M48
; DRILL file {KiCad (5.1.9)-1} date 07/17/21 19:30:42
; FORMAT={-:-/ absolute / inch / decimal}
; #@! TF.CreationDate,2021-07-17T19:30:42-07:00
; #@! TF.GenerationSoftware,Kicad,Pcbnew,(5.1.9)-1
; #@! TF.FileFunction,Plated,1,2,PTH
FMAT,2
INCH
T1C0.0157
T2C0.0236
T3C0.0320
T4C0.0394
T5C0.0409
T6C0.0579
T7C0.0591
%
G90
G05
T1
X1.5175Y-1.119
X1.5565Y-1.2115
X2.5277Y-0.7042
X11.0625Y-0.5625
X11.0948Y-0.5971
X12.525Y-2.08
X12.545Y-1.6265
X12.572Y-1.594
X12.6835Y-1.459
X12.6866Y-0.9212
X12.7007Y-0.9591
X12.728Y-1.8035
X12.7285Y-1.4305
X12.74Y-1.3795
X12.7485Y-1.838
X12.777Y-1.359
X12.777Y-1.958
X12.8065Y-1.989
X12.8105Y-1.3345
X12.8455Y-1.3085
X12.8795Y-1.2825
X12.917Y-1.2595
X12.9375Y-2.653
X12.95Y-1.2295
X12.976Y-1.192
X13.0078Y-1.7039
X13.0079Y-1.6251
X13.009Y-1.6645
X13.0655Y-1.6255
X13.0655Y-1.8505
X13.077Y-1.56
X13.2119Y-2.2
X13.2513Y-2.2
X13.2906Y-2.2
X13.295Y-1.61
X13.33Y-2.2
X13.3344Y-1.61
X13.3737Y-1.61
X13.4131Y-1.61
X13.42Y-2.5675
X13.4354Y-1.5776
X13.4702Y-1.6106
X13.52Y-2.404
X13.5375Y-2.3125
X13.5693Y-2.2892
X13.6646Y-2.2896
X13.6859Y-1.8332
X13.686Y-1.7939
X13.7031Y-2.1009
X13.7085Y-1.872
X13.7316Y-2.065
X13.7405Y-1.9005
X13.7632Y-2.0415
X13.7715Y-1.9345
X13.7918Y-1.999
T3
X13.22Y-1.425
X13.32Y-1.425
X13.42Y-1.425
X13.52Y-1.425
T4
X13.0991Y-0.9051
X13.0991Y-1.102
X13.67Y-0.9051
X13.67Y-1.0036
X13.67Y-1.102
T5
X0.95Y-0.8
X0.95Y-2.3
X0.95Y-3.05
X0.95Y-3.8
X0.9502Y-1.55
X1.05Y-0.8
X1.05Y-2.3
X1.05Y-3.05
X1.05Y-3.8
X1.0502Y-1.55
X1.8875Y-0.8
X1.9812Y-3.8
X1.9875Y-0.8
X2.075Y-1.55
X2.0812Y-3.8
X2.1687Y-2.3
X2.175Y-1.55
X2.2687Y-2.3
X2.3562Y-3.05
X2.4562Y-3.05
X2.6375Y-0.8
X2.7375Y-0.8
X3.01Y-1.55
X3.11Y-1.55
X3.2Y-2.3
X3.3Y-2.3
X3.3875Y-0.8
X3.4875Y-0.8
X3.575Y-3.05
X3.675Y-3.05
X3.76Y-1.55
X3.8562Y-3.8
X3.86Y-1.55
X3.95Y-2.3
X3.9562Y-3.8
X4.05Y-2.3
X4.1375Y-0.8
X4.2375Y-0.8
X4.325Y-3.05
X4.425Y-3.05
X4.51Y-1.55
X4.61Y-1.55
X4.7Y-2.3
X4.8Y-2.3
X4.8875Y-0.8
X4.9875Y-0.8
X5.075Y-3.05
X5.175Y-3.05
X5.26Y-1.55
X5.36Y-1.55
X5.45Y-2.3
X5.55Y-2.3
X5.6375Y-0.8
X5.7375Y-0.8
X5.825Y-3.05
X5.925Y-3.05
X6.01Y-1.55
X6.11Y-1.55
X6.2Y-2.3
X6.3Y-2.3
X6.3875Y-0.8
X6.4875Y-0.8
X6.575Y-3.05
X6.67Y-3.8
X6.675Y-3.05
X6.76Y-1.55
X6.77Y-3.8
X6.86Y-1.55
X6.95Y-2.3
X7.05Y-2.3
X7.1375Y-0.8
X7.2375Y-0.8
X7.325Y-3.05
X7.425Y-3.05
X7.51Y-1.55
X7.61Y-1.55
X7.7Y-2.3
X7.8Y-2.3
X7.8875Y-0.8
X7.9875Y-0.8
X8.075Y-3.05
X8.175Y-3.05
X8.26Y-1.55
X8.36Y-1.55
X8.45Y-2.3
X8.55Y-2.3
X8.6375Y-0.8
X8.7375Y-0.8
X8.825Y-3.05
X8.925Y-3.05
X9.01Y-1.55
X9.11Y-1.55
X9.2Y-2.3
X9.3Y-2.3
X9.3875Y-0.8
X9.3875Y-3.8
X9.4875Y-0.8
X9.4875Y-3.8
X9.575Y-3.05
X9.675Y-3.05
X9.76Y-1.55
X9.86Y-1.55
X9.95Y-2.3
X10.05Y-2.3
X10.1375Y-0.8
X10.1375Y-3.8
X10.2375Y-0.8
X10.2375Y-3.8
X10.325Y-3.05
X10.425Y-3.05
X10.51Y-1.55
X10.61Y-1.55
X10.7Y-2.3
X10.8Y-2.3
X10.8875Y-0.8
X10.8875Y-3.8
X10.9875Y-0.8
X10.9875Y-3.8
X11.26Y-1.55
X11.3562Y-3.05
X11.36Y-1.55
X11.4562Y-3.05
X11.825Y-3.9875
X11.9187Y-2.3
X11.925Y-3.9875
X12.0126Y-0.8003
X12.0187Y-2.3
X12.1126Y-0.8003
X12.1977Y-1.55
X12.2977Y-1.55
X12.575Y-3.2375
X12.575Y-3.9875
X12.675Y-3.2375
X12.675Y-3.9875
X13.325Y-3.2375
X13.325Y-3.9875
X13.425Y-3.2375
X13.425Y-3.9875
T6
X0.9Y-1.2
X0.9Y-2.7
X0.9Y-3.45
X0.9Y-4.2
X0.9002Y-1.95
X0.9016Y-1.1772
X0.9016Y-2.6772
X0.9016Y-3.4272
X0.9016Y-4.1772
X0.9018Y-1.9272
X1.0984Y-1.1575
X1.0984Y-2.6575
X1.0984Y-3.4075
X1.0984Y-4.1575
X1.0986Y-1.9075
X1.15Y-1.1
X1.15Y-2.6
X1.15Y-3.35
X1.15Y-4.1
X1.1502Y-1.85
X1.8375Y-1.2
X1.8391Y-1.1772
X1.9312Y-4.2
X1.9328Y-4.1772
X2.025Y-1.95
X2.0266Y-1.9272
X2.0359Y-1.1575
X2.0875Y-1.1
X2.1187Y-2.7
X2.1203Y-2.6772
X2.1297Y-4.1575
X2.1812Y-4.1
X2.2234Y-1.9075
X2.275Y-1.85
X2.3062Y-3.45
X2.3078Y-3.4272
X2.3172Y-2.6575
X2.3687Y-2.6
X2.5047Y-3.4075
X2.5562Y-3.35
X2.5875Y-1.2
X2.5891Y-1.1772
X2.7859Y-1.1575
X2.8375Y-1.1
X2.96Y-1.95
X2.9616Y-1.9272
X3.15Y-2.7
X3.1516Y-2.6772
X3.1584Y-1.9075
X3.21Y-1.85
X3.3375Y-1.2
X3.3391Y-1.1772
X3.3484Y-2.6575
X3.4Y-2.6
X3.525Y-3.45
X3.5266Y-3.4272
X3.5359Y-1.1575
X3.5875Y-1.1
X3.71Y-1.95
X3.7116Y-1.9272
X3.7234Y-3.4075
X3.775Y-3.35
X3.8062Y-4.2
X3.8078Y-4.1772
X3.9Y-2.7
X3.9016Y-2.6772
X3.9084Y-1.9075
X3.96Y-1.85
X4.0047Y-4.1575
X4.0562Y-4.1
X4.0875Y-1.2
X4.0891Y-1.1772
X4.0984Y-2.6575
X4.15Y-2.6
X4.275Y-3.45
X4.2766Y-3.4272
X4.2859Y-1.1575
X4.3375Y-1.1
X4.46Y-1.95
X4.4616Y-1.9272
X4.4734Y-3.4075
X4.525Y-3.35
X4.65Y-2.7
X4.6516Y-2.6772
X4.6584Y-1.9075
X4.71Y-1.85
X4.8375Y-1.2
X4.8391Y-1.1772
X4.8484Y-2.6575
X4.9Y-2.6
X5.025Y-3.45
X5.0266Y-3.4272
X5.0359Y-1.1575
X5.0875Y-1.1
X5.21Y-1.95
X5.2116Y-1.9272
X5.2234Y-3.4075
X5.275Y-3.35
X5.4Y-2.7
X5.4016Y-2.6772
X5.4084Y-1.9075
X5.46Y-1.85
X5.5875Y-1.2
X5.5891Y-1.1772
X5.5984Y-2.6575
X5.65Y-2.6
X5.775Y-3.45
X5.7766Y-3.4272
X5.7859Y-1.1575
X5.8375Y-1.1
X5.96Y-1.95
X5.9616Y-1.9272
X5.9734Y-3.4075
X6.025Y-3.35
X6.15Y-2.7
X6.1516Y-2.6772
X6.1584Y-1.9075
X6.21Y-1.85
X6.3375Y-1.2
X6.3391Y-1.1772
X6.3484Y-2.6575
X6.4Y-2.6
X6.525Y-3.45
X6.5266Y-3.4272
X6.5359Y-1.1575
X6.5875Y-1.1
X6.62Y-4.2
X6.6216Y-4.1772
X6.71Y-1.95
X6.7116Y-1.9272
X6.7234Y-3.4075
X6.775Y-3.35
X6.8184Y-4.1575
X6.87Y-4.1
X6.9Y-2.7
X6.9016Y-2.6772
X6.9084Y-1.9075
X6.96Y-1.85
X7.0875Y-1.2
X7.0891Y-1.1772
X7.0984Y-2.6575
X7.15Y-2.6
X7.275Y-3.45
X7.2766Y-3.4272
X7.2859Y-1.1575
X7.3375Y-1.1
X7.46Y-1.95
X7.4616Y-1.9272
X7.4734Y-3.4075
X7.525Y-3.35
X7.65Y-2.7
X7.6516Y-2.6772
X7.6584Y-1.9075
X7.71Y-1.85
X7.8375Y-1.2
X7.8391Y-1.1772
X7.8484Y-2.6575
X7.9Y-2.6
X8.025Y-3.45
X8.0266Y-3.4272
X8.0359Y-1.1575
X8.0875Y-1.1
X8.21Y-1.95
X8.2116Y-1.9272
X8.2234Y-3.4075
X8.275Y-3.35
X8.4Y-2.7
X8.4016Y-2.6772
X8.4084Y-1.9075
X8.46Y-1.85
X8.5875Y-1.2
X8.5891Y-1.1772
X8.5984Y-2.6575
X8.65Y-2.6
X8.775Y-3.45
X8.7766Y-3.4272
X8.7859Y-1.1575
X8.8375Y-1.1
X8.96Y-1.95
X8.9616Y-1.9272
X8.9734Y-3.4075
X9.025Y-3.35
X9.15Y-2.7
X9.1516Y-2.6772
X9.1584Y-1.9075
X9.21Y-1.85
X9.3375Y-1.2
X9.3375Y-4.2
X9.3391Y-1.1772
X9.3391Y-4.1772
X9.3484Y-2.6575
X9.4Y-2.6
X9.525Y-3.45
X9.5266Y-3.4272
X9.5359Y-1.1575
X9.5359Y-4.1575
X9.5875Y-1.1
X9.5875Y-4.1
X9.71Y-1.95
X9.7116Y-1.9272
X9.7234Y-3.4075
X9.775Y-3.35
X9.9Y-2.7
X9.9016Y-2.6772
X9.9084Y-1.9075
X9.96Y-1.85
X10.0875Y-1.2
X10.0875Y-4.2
X10.0891Y-1.1772
X10.0891Y-4.1772
X10.0984Y-2.6575
X10.15Y-2.6
X10.275Y-3.45
X10.2766Y-3.4272
X10.2859Y-1.1575
X10.2859Y-4.1575
X10.3375Y-1.1
X10.3375Y-4.1
X10.46Y-1.95
X10.4616Y-1.9272
X10.4734Y-3.4075
X10.525Y-3.35
X10.65Y-2.7
X10.6516Y-2.6772
X10.6584Y-1.9075
X10.71Y-1.85
X10.8375Y-1.2
X10.8375Y-4.2
X10.8391Y-1.1772
X10.8391Y-4.1772
X10.8484Y-2.6575
X10.9Y-2.6
X11.0359Y-1.1575
X11.0359Y-4.1575
X11.0875Y-1.1
X11.0875Y-4.1
X11.21Y-1.95
X11.2116Y-1.9272
X11.3063Y-3.45
X11.3078Y-3.4272
X11.4084Y-1.9075
X11.46Y-1.85
X11.5047Y-3.4075
X11.5563Y-3.35
X11.775Y-4.3875
X11.7766Y-4.3647
X11.8688Y-2.7
X11.8703Y-2.6772
X11.9626Y-1.2003
X11.9642Y-1.1775
X11.9734Y-4.345
X12.025Y-4.2875
X12.0672Y-2.6575
X12.1188Y-2.6
X12.1477Y-1.95
X12.1493Y-1.9272
X12.161Y-1.1578
X12.2126Y-1.1003
X12.3461Y-1.9075
X12.3977Y-1.85
X12.525Y-3.6375
X12.525Y-4.3875
X12.5266Y-3.6147
X12.5266Y-4.3647
X12.7234Y-3.595
X12.7234Y-4.345
X12.775Y-3.5375
X12.775Y-4.2875
X13.275Y-3.6375
X13.275Y-4.3875
X13.2766Y-3.6147
X13.2766Y-4.3647
X13.4734Y-3.595
X13.4734Y-4.345
X13.525Y-3.5375
X13.525Y-4.2875
T2
G00X1.2987Y-0.6218
M15
G01X1.2987Y-0.6454
M16
G05
G00X1.2987Y-0.7765
M15
G01X1.2987Y-0.8198
M16
G05
G00X1.6388Y-0.6218
M15
G01X1.6388Y-0.6454
M16
G05
G00X1.6388Y-0.7765
M15
G01X1.6388Y-0.8198
M16
G05
T7
G00X13.4003Y-0.7831
M15
G01X13.3491Y-0.7831
M16
G05
G00X13.4003Y-1.224
M15
G01X13.3491Y-1.224
M16
G05
T0
M30
