  0
SECTION
  2
HEADER
  9
$ACADVER
  1
AC1032
  9
$ACADMAINTVER
 90
      155
  9
$DWGCODEPAGE
  3
ANSI_1252
  9
$REQUIREDVERSIONS
160
                 0
  9
$INSBASE
 10
0.0
 20
0.0
 30
0.0
  9
$EXTMIN
 10
1.000000000000000E+20
 20
1.000000000000000E+20
 30
1.000000000000000E+20
  9
$EXTMAX
 10
-1.000000000000000E+20
 20
-1.000000000000000E+20
 30
-1.000000000000000E+20
  9
$LIMMIN
 10
0.0
 20
0.0
  9
$LIMMAX
 10
12.0
 20
9.0
  9
$ORTHOMODE
 70
     0
  9
$REGENMODE
 70
     1
  9
$FILLMODE
 70
     1
  9
$QTEXTMODE
 70
     0
  9
$MIRRTEXT
 70
     0
  9
$LTSCALE
 40
1.0
  9
$ATTMODE
 70
     1
  9
$TEXTSIZE
 40
0.2
  9
$TRACEWID
 40
0.05
  9
$TEXTSTYLE
  7
Standard
  9
$CLAYER
  8
0
  9
$CELTYPE
  6
ByLayer
  9
$CECOLOR
 62
   256
  9
$CELTSCALE
 40
1.0
  9
$DISPSILH
 70
     0
  9
$DIMSCALE
 40
1.0
  9
$DIMASZ
 40
0.18
  9
$DIMEXO
 40
0.0625
  9
$DIMDLI
 40
0.38
  9
$DIMRND
 40
0.0
  9
$DIMDLE
 40
0.0
  9
$DIMEXE
 40
0.18
  9
$DIMTP
 40
0.0
  9
$DIMTM
 40
0.0
  9
$DIMTXT
 40
0.18
  9
$DIMCEN
 40
0.09
  9
$DIMTSZ
 40
0.0
  9
$DIMTOL
 70
     0
  9
$DIMLIM
 70
     0
  9
$DIMTIH
 70
     1
  9
$DIMTOH
 70
     1
  9
$DIMSE1
 70
     0
  9
$DIMSE2
 70
     0
  9
$DIMTAD
 70
     0
  9
$DIMZIN
 70
     0
  9
$DIMBLK
  1

  9
$DIMASO
 70
     1
  9
$DIMSHO
 70
     1
  9
$DIMPOST
  1

  9
$DIMAPOST
  1

  9
$DIMALT
 70
     0
  9
$DIMALTD
 70
     2
  9
$DIMALTF
 40
25.4
  9
$DIMLFAC
 40
1.0
  9
$DIMTOFL
 70
     0
  9
$DIMTVP
 40
0.0
  9
$DIMTIX
 70
     0
  9
$DIMSOXD
 70
     0
  9
$DIMSAH
 70
     0
  9
$DIMBLK1
  1

  9
$DIMBLK2
  1

  9
$DIMSTYLE
  2
Standard
  9
$DIMCLRD
 70
     0
  9
$DIMCLRE
 70
     0
  9
$DIMCLRT
 70
     0
  9
$DIMTFAC
 40
1.0
  9
$DIMGAP
 40
0.09
  9
$DIMJUST
 70
     0
  9
$DIMSD1
 70
     0
  9
$DIMSD2
 70
     0
  9
$DIMTOLJ
 70
     1
  9
$DIMTZIN
 70
     0
  9
$DIMALTZ
 70
     0
  9
$DIMALTTZ
 70
     0
  9
$DIMUPT
 70
     0
  9
$DIMDEC
 70
     4
  9
$DIMTDEC
 70
     4
  9
$DIMALTU
 70
     2
  9
$DIMALTTD
 70
     2
  9
$DIMTXSTY
  7
Standard
  9
$DIMAUNIT
 70
     0
  9
$DIMADEC
 70
     0
  9
$DIMALTRND
 40
0.0
  9
$DIMAZIN
 70
     0
  9
$DIMDSEP
 70
    46
  9
$DIMATFIT
 70
     3
  9
$DIMFRAC
 70
     0
  9
$DIMLDRBLK
  1

  9
$DIMLUNIT
 70
     2
  9
$DIMLWD
 70
    -2
  9
$DIMLWE
 70
    -2
  9
$DIMTMOVE
 70
     0
  9
$DIMFXL
 40
1.0
  9
$DIMFXLON
 70
     0
  9
$DIMJOGANG
 40
0.7853981633974483
  9
$DIMTFILL
 70
     0
  9
$DIMTFILLCLR
 70
     0
  9
$DIMARCSYM
 70
     0
  9
$DIMLTYPE
  6

  9
$DIMLTEX1
  6

  9
$DIMLTEX2
  6

  9
$DIMTXTDIRECTION
 70
     0
  9
$LUNITS
 70
     2
  9
$LUPREC
 70
     4
  9
$SKETCHINC
 40
0.1
  9
$FILLETRAD
 40
0.0
  9
$AUNITS
 70
     0
  9
$AUPREC
 70
     0
  9
$MENU
  1
.
  9
$ELEVATION
 40
0.0
  9
$PELEVATION
 40
0.0
  9
$THICKNESS
 40
0.0
  9
$LIMCHECK
 70
     0
  9
$CHAMFERA
 40
0.0
  9
$CHAMFERB
 40
0.0
  9
$CHAMFERC
 40
0.0
  9
$CHAMFERD
 40
0.0
  9
$SKPOLY
 70
     0
  9
$TDCREATE
 40
2459414.969664352
  9
$TDUCREATE
 40
2459415.261331018
  9
$TDUPDATE
 40
2459414.969664352
  9
$TDUUPDATE
 40
2459415.261331018
  9
$TDINDWG
 40
0.0000000000
  9
$TDUSRTIMER
 40
0.0000000000
  9
$USRTIMER
 70
     1
  9
$ANGBASE
 50
0.0
  9
$ANGDIR
 70
     0
  9
$PDMODE
 70
     0
  9
$PDSIZE
 40
0.0
  9
$PLINEWID
 40
0.0
  9
$SPLFRAME
 70
     0
  9
$SPLINETYPE
 70
     6
  9
$SPLINESEGS
 70
     8
  9
$HANDSEED
  5
293
  9
$SURFTAB1
 70
     6
  9
$SURFTAB2
 70
     6
  9
$SURFTYPE
 70
     6
  9
$SURFU
 70
     6
  9
$SURFV
 70
     6
  9
$UCSBASE
  2

  9
$UCSNAME
  2

  9
$UCSORG
 10
0.0
 20
0.0
 30
0.0
  9
$UCSXDIR
 10
1.0
 20
0.0
 30
0.0
  9
$UCSYDIR
 10
0.0
 20
1.0
 30
0.0
  9
$UCSORTHOREF
  2

  9
$UCSORTHOVIEW
 70
     0
  9
$UCSORGTOP
 10
0.0
 20
0.0
 30
0.0
  9
$UCSORGBOTTOM
 10
0.0
 20
0.0
 30
0.0
  9
$UCSORGLEFT
 10
0.0
 20
0.0
 30
0.0
  9
$UCSORGRIGHT
 10
0.0
 20
0.0
 30
0.0
  9
$UCSORGFRONT
 10
0.0
 20
0.0
 30
0.0
  9
$UCSORGBACK
 10
0.0
 20
0.0
 30
0.0
  9
$PUCSBASE
  2

  9
$PUCSNAME
  2

  9
$PUCSORG
 10
0.0
 20
0.0
 30
0.0
  9
$PUCSXDIR
 10
1.0
 20
0.0
 30
0.0
  9
$PUCSYDIR
 10
0.0
 20
1.0
 30
0.0
  9
$PUCSORTHOREF
  2

  9
$PUCSORTHOVIEW
 70
     0
  9
$PUCSORGTOP
 10
0.0
 20
0.0
 30
0.0
  9
$PUCSORGBOTTOM
 10
0.0
 20
0.0
 30
0.0
  9
$PUCSORGLEFT
 10
0.0
 20
0.0
 30
0.0
  9
$PUCSORGRIGHT
 10
0.0
 20
0.0
 30
0.0
  9
$PUCSORGFRONT
 10
0.0
 20
0.0
 30
0.0
  9
$PUCSORGBACK
 10
0.0
 20
0.0
 30
0.0
  9
$USERI1
 70
     0
  9
$USERI2
 70
     0
  9
$USERI3
 70
     0
  9
$USERI4
 70
     0
  9
$USERI5
 70
     0
  9
$USERR1
 40
0.0
  9
$USERR2
 40
0.0
  9
$USERR3
 40
0.0
  9
$USERR4
 40
0.0
  9
$USERR5
 40
0.0
  9
$WORLDVIEW
 70
     1
  9
$SHADEDGE
 70
     3
  9
$SHADEDIF
 70
    70
  9
$TILEMODE
 70
     1
  9
$MAXACTVP
 70
    64
  9
$PINSBASE
 10
0.0
 20
0.0
 30
0.0
  9
$PLIMCHECK
 70
     0
  9
$PEXTMIN
 10
1.000000000000000E+20
 20
1.000000000000000E+20
 30
1.000000000000000E+20
  9
$PEXTMAX
 10
-1.000000000000000E+20
 20
-1.000000000000000E+20
 30
-1.000000000000000E+20
  9
$PLIMMIN
 10
0.0
 20
0.0
  9
$PLIMMAX
 10
12.0
 20
9.0
  9
$UNITMODE
 70
     0
  9
$VISRETAIN
 70
     1
  9
$PLINEGEN
 70
     0
  9
$PSLTSCALE
 70
     1
  9
$TREEDEPTH
 70
  3020
  9
$CMLSTYLE
  2
Standard
  9
$CMLJUST
 70
     0
  9
$CMLSCALE
 40
1.0
  9
$PROXYGRAPHICS
 70
     1
  9
$MEASUREMENT
 70
     0
  9
$CELWEIGHT
370
    -1
  9
$ENDCAPS
280
     0
  9
$JOINSTYLE
280
     0
  9
$LWDISPLAY
290
     1
  9
$INSUNITS
 70
     4
  9
$HYPERLINKBASE
  1

  9
$STYLESHEET
  1

  9
$XEDIT
290
     1
  9
$CEPSNTYPE
380
     0
  9
$PSTYLEMODE
290
     1
  9
$FINGERPRINTGUID
  2
{F50610C4-1169-5D41-9FC5-D70488B29CD9}
  9
$VERSIONGUID
  2
{AC28B44E-8291-EB43-BE14-58D91B25672A}
  9
$EXTNAMES
290
     1
  9
$PSVPSCALE
 40
0.0
  9
$OLESTARTUP
290
     0
  9
$SORTENTS
280
   127
  9
$INDEXCTL
280
     0
  9
$HIDETEXT
280
     1
  9
$XCLIPFRAME
280
     2
  9
$HALOGAP
280
     0
  9
$OBSCOLOR
 70
   257
  9
$OBSLTYPE
280
     0
  9
$INTERSECTIONDISPLAY
280
     0
  9
$INTERSECTIONCOLOR
 70
   257
  9
$DIMASSOC
280
     2
  9
$PROJECTNAME
  1

  9
$CAMERADISPLAY
290
     0
  9
$LENSLENGTH
 40
50.0
  9
$CAMERAHEIGHT
 40
0.0
  9
$STEPSPERSEC
 40
2.0
  9
$STEPSIZE
 40
6.0
  9
$3DDWFPREC
 40
2.0
  9
$PSOLWIDTH
 40
0.25
  9
$PSOLHEIGHT
 40
4.0
  9
$LOFTANG1
 40
1.570796326794896
  9
$LOFTANG2
 40
1.570796326794896
  9
$LOFTMAG1
 40
0.0
  9
$LOFTMAG2
 40
0.0
  9
$LOFTPARAM
 70
     7
  9
$LOFTNORMALS
280
     1
  9
$LATITUDE
 40
37.795
  9
$LONGITUDE
 40
-122.394
  9
$NORTHDIRECTION
 40
0.0
  9
$TIMEZONE
 70
 -8000
  9
$LIGHTGLYPHDISPLAY
280
     1
  9
$TILEMODELIGHTSYNCH
280
     1
  9
$CMATERIAL
347
11
  9
$SOLIDHIST
280
     0
  9
$SHOWHIST
280
     1
  9
$DWFFRAME
280
     2
  9
$DGNFRAME
280
     0
  9
$REALWORLDSCALE
290
     1
  9
$INTERFERECOLOR
 62
     1
  9
$INTERFEREOBJVS
345
33
  9
$INTERFEREVPVS
346
30
  9
$CSHADOW
280
     0
  9
$SHADOWPLANELOCATION
 40
0.0
  0
ENDSEC
  0
SECTION
  2
CLASSES
  0
CLASS
  1
ACDBDICTIONARYWDFLT
  2
AcDbDictionaryWithDefault
  3
ObjectDBX Classes
 90
        0
 91
        1
280
     0
281
     0
  0
CLASS
  1
MATERIAL
  2
AcDbMaterial
  3
ObjectDBX Classes
 90
     1153
 91
        3
280
     0
281
     0
  0
CLASS
  1
VISUALSTYLE
  2
AcDbVisualStyle
  3
ObjectDBX Classes
 90
     4095
 91
       24
280
     0
281
     0
  0
CLASS
  1
SCALE
  2
AcDbScale
  3
ObjectDBX Classes
 90
     1153
 91
       17
280
     0
281
     0
  0
CLASS
  1
TABLESTYLE
  2
AcDbTableStyle
  3
ObjectDBX Classes
 90
     4095
 91
        1
280
     0
281
     0
  0
CLASS
  1
MLEADERSTYLE
  2
AcDbMLeaderStyle
  3
ACDB_MLEADERSTYLE_CLASS
 90
     4095
 91
        1
280
     0
281
     0
  0
CLASS
  1
ACDBSECTIONVIEWSTYLE
  2
AcDbSectionViewStyle
  3
ObjectDBX Classes
 90
     1025
 91
        1
280
     0
281
     0
  0
CLASS
  1
ACDBDETAILVIEWSTYLE
  2
AcDbDetailViewStyle
  3
ObjectDBX Classes
 90
     1025
 91
        1
280
     0
281
     0
  0
CLASS
  1
DICTIONARYVAR
  2
AcDbDictionaryVar
  3
ObjectDBX Classes
 90
        0
 91
        5
280
     0
281
     0
  0
CLASS
  1
CELLSTYLEMAP
  2
AcDbCellStyleMap
  3
ObjectDBX Classes
 90
     1152
 91
        1
280
     0
281
     0
  0
ENDSEC
  0
SECTION
  2
TABLES
  0
TABLE
  2
VPORT
  5
8
330
0
100
AcDbSymbolTable
 70
     1
  0
VPORT
  5
57
330
8
100
AcDbSymbolTableRecord
100
AcDbViewportTableRecord
  2
*Active
 70
     0
 10
0.0
 20
0.0
 11
1.0
 21
1.0
 12
0.0
 22
0.0
 13
0.0
 23
0.0
 14
1.0
 24
1.0
 15
0.0
 25
0.0
 16
0.0
 26
0.0
 36
1.0
 17
80.58246558410377
 27
79.37499998015624
 37
0.0
 40
161.9249999595187
 41
2.353676723795983
 42
50.0
 43
0.0
 44
0.0
 50
0.0
 51
0.0
 71
     0
 72
   100
 73
     1
 74
     0
 75
     1
 76
     0
 77
     0
 78
     0
281
     0
 65
     1
110
0.0
120
0.0
130
0.0
111
1.0
121
0.0
131
0.0
112
0.0
122
1.0
132
0.0
 79
     0
146
0.0
 60
     3
 61
     5
292
     1
282
     1
141
0.0
142
0.0
 63
   250
421
  3355443
  0
ENDTAB
  0
TABLE
  2
LTYPE
  5
5
330
0
100
AcDbSymbolTable
 70
     1
  0
LTYPE
  5
5B
330
5
100
AcDbSymbolTableRecord
100
AcDbLinetypeTableRecord
  2
ByBlock
 70
     0
  3

 72
    65
 73
     0
 40
0.0
  0
LTYPE
  5
5C
330
5
100
AcDbSymbolTableRecord
100
AcDbLinetypeTableRecord
  2
ByLayer
 70
     0
  3

 72
    65
 73
     0
 40
0.0
  0
LTYPE
  5
5D
330
5
100
AcDbSymbolTableRecord
100
AcDbLinetypeTableRecord
  2
Continuous
 70
     0
  3
Solid line
 72
    65
 73
     0
 40
0.0
  0
ENDTAB
  0
TABLE
  2
LAYER
  5
2
330
0
100
AcDbSymbolTable
 70
     1
  0
LAYER
  5
54
330
2
100
AcDbSymbolTableRecord
100
AcDbLayerTableRecord
  2
0
 70
     0
 62
     7
  6
Continuous
370
     0
390
F
347
21
348
0
  0
ENDTAB
  0
TABLE
  2
STYLE
  5
3
330
0
100
AcDbSymbolTable
 70
     2
  0
STYLE
  5
55
330
3
100
AcDbSymbolTableRecord
100
AcDbTextStyleTableRecord
  2
Standard
 70
     0
 40
0.0
 41
1.0
 50
0.0
 71
     0
 42
0.2
  3
txt
  4

  0
STYLE
  5
5A
330
3
100
AcDbSymbolTableRecord
100
AcDbTextStyleTableRecord
  2
Annotative
 70
     0
 40
0.0
 41
1.0
 50
0.0
 71
     0
 42
0.2
  3
txt
  4

1001
AcadAnnotative
1000
AnnotativeData
1002
{
1070
     1
1070
     1
1002
}
  0
ENDTAB
  0
TABLE
  2
VIEW
  5
6
330
0
100
AcDbSymbolTable
 70
     0
  0
ENDTAB
  0
TABLE
  2
UCS
  5
7
330
0
100
AcDbSymbolTable
 70
     0
  0
ENDTAB
  0
TABLE
  2
APPID
  5
9
330
0
100
AcDbSymbolTable
 70
     2
  0
APPID
  5
56
330
9
100
AcDbSymbolTableRecord
100
AcDbRegAppTableRecord
  2
ACAD
 70
     0
  0
APPID
  5
5E
330
9
100
AcDbSymbolTableRecord
100
AcDbRegAppTableRecord
  2
AcadAnnotative
 70
     0
  0
ENDTAB
  0
TABLE
  2
DIMSTYLE
  5
A
330
0
100
AcDbSymbolTable
 70
     2
100
AcDbDimStyleTable
 71
     0
  0
DIMSTYLE
105
58
330
A
100
AcDbSymbolTableRecord
100
AcDbDimStyleTableRecord
  2
Standard
 70
     0
340
55
  0
DIMSTYLE
105
59
330
A
100
AcDbSymbolTableRecord
100
AcDbDimStyleTableRecord
  2
Annotative
 70
     0
340
55
1001
AcadAnnotative
1000
AnnotativeData
1002
{
1070
     1
1070
     1
1002
}
  0
ENDTAB
  0
TABLE
  2
BLOCK_RECORD
  5
1
330
0
100
AcDbSymbolTable
 70
     1
  0
BLOCK_RECORD
  5
70
330
1
100
AcDbSymbolTableRecord
100
AcDbBlockTableRecord
  2
*Model_Space
340
73
 70
     0
280
     1
281
     0
  0
BLOCK_RECORD
  5
6C
330
1
100
AcDbSymbolTableRecord
100
AcDbBlockTableRecord
  2
*Paper_Space
340
6F
 70
     0
280
     1
281
     0
  0
BLOCK_RECORD
  5
74
330
1
100
AcDbSymbolTableRecord
100
AcDbBlockTableRecord
  2
*Paper_Space0
340
77
 70
     0
280
     1
281
     0
  0
ENDTAB
  0
ENDSEC
  0
SECTION
  2
BLOCKS
  0
BLOCK
  5
71
330
70
100
AcDbEntity
  8
0
100
AcDbBlockBegin
  2
*Model_Space
 70
     0
 10
0.0
 20
0.0
 30
0.0
  3
*Model_Space
  1

  0
ENDBLK
  5
72
330
70
100
AcDbEntity
  8
0
100
AcDbBlockEnd
  0
BLOCK
  5
6D
330
6C
100
AcDbEntity
 67
     1
  8
0
100
AcDbBlockBegin
  2
*Paper_Space
 70
     0
 10
0.0
 20
0.0
 30
0.0
  3
*Paper_Space
  1

  0
ENDBLK
  5
6E
330
6C
100
AcDbEntity
 67
     1
  8
0
100
AcDbBlockEnd
  0
BLOCK
  5
75
330
74
100
AcDbEntity
 67
     1
  8
0
100
AcDbBlockBegin
  2
*Paper_Space0
 70
     0
 10
0.0
 20
0.0
 30
0.0
  3
*Paper_Space0
  1

  0
ENDBLK
  5
76
330
74
100
AcDbEntity
 67
     1
  8
0
100
AcDbBlockEnd
  0
ENDSEC
  0
SECTION
  2
ENTITIES
  0
LINE
  5
78
330
70
100
AcDbEntity
  8
0
 62
    18
420
        0
370
    25
100
AcDbLine
 10
246.239846569001
 20
69.85064248015598
 30
0.0
 11
246.4268465690011
 21
69.84364248015584
 31
0.0
  0
LINE
  5
79
330
70
100
AcDbEntity
  8
0
 62
    18
420
        0
370
    25
100
AcDbLine
 10
246.4268465690011
 20
69.84364248015584
 30
0.0
 11
246.6118465690011
 21
69.82164248015627
 31
0.0
  0
LINE
  5
7A
330
70
100
AcDbEntity
  8
0
 62
    18
420
        0
370
    25
100
AcDbLine
 10
246.6118465690011
 20
69.82164248015627
 30
0.0
 11
246.7948465690009
 21
69.78564248015641
 31
0.0
  0
LINE
  5
7B
330
70
100
AcDbEntity
  8
0
 62
    18
420
        0
370
    25
100
AcDbLine
 10
246.7948465690009
 20
69.78564248015641
 30
0.0
 11
246.9748465690008
 21
69.73464248015585
 31
0.0
  0
LINE
  5
7C
330
70
100
AcDbEntity
  8
0
 62
    18
420
        0
370
    25
100
AcDbLine
 10
246.9748465690008
 20
69.73464248015585
 30
0.0
 11
247.1498465690008
 21
69.66864248015591
 31
0.0
  0
LINE
  5
7D
330
70
100
AcDbEntity
  8
0
 62
    18
420
        0
370
    25
100
AcDbLine
 10
247.1498465690008
 20
69.66864248015591
 30
0.0
 11
247.3198465690013
 21
69.59164248015553
 31
0.0
  0
LINE
  5
7E
330
70
100
AcDbEntity
  8
0
 62
    18
420
        0
370
    25
100
AcDbLine
 10
247.3198465690013
 20
69.59164248015553
 30
0.0
 11
247.4838465690008
 21
69.50064248015613
 31
0.0
  0
LINE
  5
7F
330
70
100
AcDbEntity
  8
0
 62
    18
420
        0
370
    25
100
AcDbLine
 10
247.4838465690008
 20
69.50064248015613
 30
0.0
 11
247.637846569001
 21
69.39564248015642
 31
0.0
  0
LINE
  5
80
330
70
100
AcDbEntity
  8
0
 62
    18
420
        0
370
    25
100
AcDbLine
 10
247.637846569001
 20
69.39564248015642
 30
0.0
 11
247.7858465690013
 21
69.27964248015631
 31
0.0
  0
LINE
  5
81
330
70
100
AcDbEntity
  8
0
 62
    18
420
        0
370
    25
100
AcDbLine
 10
247.7858465690013
 20
69.27964248015631
 30
0.0
 11
247.923846569001
 21
69.15264248015578
 31
0.0
  0
LINE
  5
82
330
70
100
AcDbEntity
  8
0
 62
    18
420
        0
370
    25
100
AcDbLine
 10
247.923846569001
 20
69.15264248015578
 30
0.0
 11
248.0488465690007
 21
69.01564248015583
 31
0.0
  0
LINE
  5
83
330
70
100
AcDbEntity
  8
0
 62
    18
420
        0
370
    25
100
AcDbLine
 10
248.0488465690007
 20
69.01564248015583
 30
0.0
 11
248.1648465690009
 21
68.86864248015587
 31
0.0
  0
LINE
  5
84
330
70
100
AcDbEntity
  8
0
 62
    18
420
        0
370
    25
100
AcDbLine
 10
248.1648465690009
 20
68.86864248015587
 30
0.0
 11
248.2688465690008
 21
68.71364248015601
 31
0.0
  0
LINE
  5
85
330
70
100
AcDbEntity
  8
0
 62
    18
420
        0
370
    25
100
AcDbLine
 10
248.2688465690008
 20
68.71364248015601
 30
0.0
 11
248.3598465690008
 21
68.54964248015587
 31
0.0
  0
LINE
  5
86
330
70
100
AcDbEntity
  8
0
 62
    18
420
        0
370
    25
100
AcDbLine
 10
248.3598465690008
 20
68.54964248015587
 30
0.0
 11
248.4388465690007
 21
68.38164248015608
 31
0.0
  0
LINE
  5
87
330
70
100
AcDbEntity
  8
0
 62
    18
420
        0
370
    25
100
AcDbLine
 10
248.4388465690007
 20
68.38164248015608
 30
0.0
 11
248.5038465690009
 21
68.20464248015603
 31
0.0
  0
LINE
  5
88
330
70
100
AcDbEntity
  8
0
 62
    18
420
        0
370
    25
100
AcDbLine
 10
248.5038465690009
 20
68.20464248015603
 30
0.0
 11
248.5548465690008
 21
68.02464248015609
 31
0.0
  0
LINE
  5
89
330
70
100
AcDbEntity
  8
0
 62
    18
420
        0
370
    25
100
AcDbLine
 10
248.5548465690008
 20
68.02464248015609
 30
0.0
 11
248.5918465690011
 21
67.84264248015602
 31
0.0
  0
LINE
  5
8A
330
70
100
AcDbEntity
  8
0
 62
    18
420
        0
370
    25
100
AcDbLine
 10
248.5918465690011
 20
67.84264248015602
 30
0.0
 11
248.6138465690013
 21
67.65664248015631
 31
0.0
  0
LINE
  5
8B
330
70
100
AcDbEntity
  8
0
 62
    18
420
        0
370
    25
100
AcDbLine
 10
248.6138465690013
 20
67.65664248015631
 30
0.0
 11
248.6208465690008
 21
67.46864248015582
 31
0.0
  0
LINE
  5
8C
330
70
100
AcDbEntity
  8
0
 62
    18
420
        0
370
    25
100
AcDbLine
 10
248.6208465690008
 20
29.36928248015613
 30
0.0
 11
248.6208465690008
 21
67.46864248015582
 31
0.0
  0
LINE
  5
8D
330
70
100
AcDbEntity
  8
0
 62
    18
420
        0
370
    25
100
AcDbLine
 10
248.6208465690008
 20
29.36928248015613
 30
0.0
 11
248.6138465690013
 21
29.18187248015625
 31
0.0
  0
LINE
  5
8E
330
70
100
AcDbEntity
  8
0
 62
    18
420
        0
370
    25
100
AcDbLine
 10
248.6138465690013
 20
29.18187248015625
 30
0.0
 11
248.5918465690011
 21
28.99584248015598
 31
0.0
  0
LINE
  5
8F
330
70
100
AcDbEntity
  8
0
 62
    18
420
        0
370
    25
100
AcDbLine
 10
248.5918465690011
 20
28.99584248015598
 30
0.0
 11
248.5548465690008
 21
28.81255248015606
 31
0.0
  0
LINE
  5
90
330
70
100
AcDbEntity
  8
0
 62
    18
420
        0
370
    25
100
AcDbLine
 10
248.5548465690008
 20
28.81255248015606
 30
0.0
 11
248.5038465690009
 21
28.6320324801564
 31
0.0
  0
LINE
  5
91
330
70
100
AcDbEntity
  8
0
 62
    18
420
        0
370
    25
100
AcDbLine
 10
248.5038465690009
 20
28.6320324801564
 30
0.0
 11
248.4388465690007
 21
28.45702248015607
 31
0.0
  0
LINE
  5
92
330
70
100
AcDbEntity
  8
0
 62
    18
420
        0
370
    25
100
AcDbLine
 10
248.4388465690007
 20
28.45702248015607
 30
0.0
 11
248.3598465690008
 21
28.28752248015636
 31
0.0
  0
LINE
  5
93
330
70
100
AcDbEntity
  8
0
 62
    18
420
        0
370
    25
100
AcDbLine
 10
248.3598465690008
 20
28.28752248015636
 30
0.0
 11
248.2688465690008
 21
28.12492248015598
 31
0.0
  0
LINE
  5
94
330
70
100
AcDbEntity
  8
0
 62
    18
420
        0
370
    25
100
AcDbLine
 10
248.2688465690008
 20
28.12492248015598
 30
0.0
 11
248.1648465690009
 21
27.96920248015608
 31
0.0
  0
LINE
  5
95
330
70
100
AcDbEntity
  8
0
 62
    18
420
        0
370
    25
100
AcDbLine
 10
248.1648465690009
 20
27.96920248015608
 30
0.0
 11
248.0488465690007
 21
27.821752480156
 31
0.0
  0
LINE
  5
96
330
70
100
AcDbEntity
  8
0
 62
    18
420
        0
370
    25
100
AcDbLine
 10
248.0488465690007
 20
27.821752480156
 30
0.0
 11
247.923846569001
 21
27.68394648015642
 31
0.0
  0
LINE
  5
97
330
70
100
AcDbEntity
  8
0
 62
    18
420
        0
370
    25
100
AcDbLine
 10
247.923846569001
 20
27.68394648015642
 30
0.0
 11
247.7858465690013
 21
27.55716548015633
 31
0.0
  0
LINE
  5
98
330
70
100
AcDbEntity
  8
0
 62
    18
420
        0
370
    25
100
AcDbLine
 10
247.7858465690013
 20
27.55716548015633
 30
0.0
 11
247.637846569001
 21
27.44141148015647
 31
0.0
  0
LINE
  5
99
330
70
100
AcDbEntity
  8
0
 62
    18
420
        0
370
    25
100
AcDbLine
 10
247.637846569001
 20
27.44141148015647
 30
0.0
 11
247.4838465690008
 21
27.3380584801562
 31
0.0
  0
LINE
  5
9A
330
70
100
AcDbEntity
  8
0
 62
    18
420
        0
370
    25
100
AcDbLine
 10
247.4838465690008
 20
27.3380584801562
 30
0.0
 11
247.3198465690013
 21
27.24710548015612
 31
0.0
  0
LINE
  5
9B
330
70
100
AcDbEntity
  8
0
 62
    18
420
        0
370
    25
100
AcDbLine
 10
247.3198465690013
 20
27.24710548015612
 30
0.0
 11
247.1498465690008
 21
27.16855948015652
 31
0.0
  0
LINE
  5
9C
330
70
100
AcDbEntity
  8
0
 62
    18
420
        0
370
    25
100
AcDbLine
 10
247.1498465690008
 20
27.16855948015652
 30
0.0
 11
246.9748465690008
 21
27.10378948015657
 31
0.0
  0
LINE
  5
9D
330
70
100
AcDbEntity
  8
0
 62
    18
420
        0
370
    25
100
AcDbLine
 10
246.9748465690008
 20
27.10378948015657
 30
0.0
 11
246.7948465690009
 21
27.05280348015594
 31
0.0
  0
LINE
  5
9E
330
70
100
AcDbEntity
  8
0
 62
    18
420
        0
370
    25
100
AcDbLine
 10
246.7948465690009
 20
27.05280348015594
 30
0.0
 11
246.6118465690011
 21
27.01697448015653
 31
0.0
  0
LINE
  5
9F
330
70
100
AcDbEntity
  8
0
 62
    18
420
        0
370
    25
100
AcDbLine
 10
246.6118465690011
 20
27.01697448015653
 30
0.0
 11
246.4268465690011
 21
26.99492548015629
 31
0.0
  0
LINE
  5
A0
330
70
100
AcDbEntity
  8
0
 62
    18
420
        0
370
    25
100
AcDbLine
 10
246.4268465690011
 20
26.99492548015629
 30
0.0
 11
246.239846569001
 21
26.98665748015653
 31
0.0
  0
LINE
  5
A1
330
70
100
AcDbEntity
  8
0
 62
    18
420
        0
370
    25
100
AcDbLine
 10
246.239846569001
 20
26.98665748015653
 30
0.0
 11
-87.13682343099883
 21
26.98803548015606
 31
0.0
  0
LINE
  5
A2
330
70
100
AcDbEntity
  8
0
 62
    18
420
        0
370
    25
100
AcDbLine
 10
-87.13682343099883
 20
26.98803548015606
 30
0.0
 11
-87.32423343099902
 21
26.99492548015629
 31
0.0
  0
LINE
  5
A3
330
70
100
AcDbEntity
  8
0
 62
    18
420
        0
370
    25
100
AcDbLine
 10
-87.32423343099902
 20
26.99492548015629
 30
0.0
 11
-87.51026343099898
 21
27.01697448015653
 31
0.0
  0
LINE
  5
A4
330
70
100
AcDbEntity
  8
0
 62
    18
420
        0
370
    25
100
AcDbLine
 10
-87.51026343099898
 20
27.01697448015653
 30
0.0
 11
-87.69217343099896
 21
27.05280348015594
 31
0.0
  0
LINE
  5
A5
330
70
100
AcDbEntity
  8
0
 62
    18
420
        0
370
    25
100
AcDbLine
 10
-87.69217343099896
 20
27.05280348015594
 30
0.0
 11
-87.87269343099893
 21
27.10378948015657
 31
0.0
  0
LINE
  5
A6
330
70
100
AcDbEntity
  8
0
 62
    18
420
        0
370
    25
100
AcDbLine
 10
-87.87269343099893
 20
27.10378948015657
 30
0.0
 11
-88.04908343099887
 21
27.16855948015652
 31
0.0
  0
LINE
  5
A7
330
70
100
AcDbEntity
  8
0
 62
    18
420
        0
370
    25
100
AcDbLine
 10
-88.04908343099887
 20
27.16855948015652
 30
0.0
 11
-88.21720343099899
 21
27.24710548015612
 31
0.0
  0
LINE
  5
A8
330
70
100
AcDbEntity
  8
0
 62
    18
420
        0
370
    25
100
AcDbLine
 10
-88.21720343099899
 20
27.24710548015612
 30
0.0
 11
-88.38118343099898
 21
27.3380584801562
 31
0.0
  0
LINE
  5
A9
330
70
100
AcDbEntity
  8
0
 62
    18
420
        0
370
    25
100
AcDbLine
 10
-88.38118343099898
 20
27.3380584801562
 30
0.0
 11
-88.53690343099888
 21
27.44141148015647
 31
0.0
  0
LINE
  5
AA
330
70
100
AcDbEntity
  8
0
 62
    18
420
        0
370
    25
100
AcDbLine
 10
-88.53690343099888
 20
27.44141148015647
 30
0.0
 11
-88.68297743099885
 21
27.55716548015633
 31
0.0
  0
LINE
  5
AB
330
70
100
AcDbEntity
  8
0
 62
    18
420
        0
370
    25
100
AcDbLine
 10
-88.68297743099885
 20
27.55716548015633
 30
0.0
 11
-88.82078243099938
 21
27.68394648015642
 31
0.0
  0
LINE
  5
AC
330
70
100
AcDbEntity
  8
0
 62
    18
420
        0
370
    25
100
AcDbLine
 10
-88.82078243099938
 20
27.68394648015642
 30
0.0
 11
-88.94756043099901
 21
27.821752480156
 31
0.0
  0
LINE
  5
AD
330
70
100
AcDbEntity
  8
0
 62
    18
420
        0
370
    25
100
AcDbLine
 10
-88.94756043099901
 20
27.821752480156
 30
0.0
 11
-89.06331743099899
 21
27.96920248015608
 31
0.0
  0
LINE
  5
AE
330
70
100
AcDbEntity
  8
0
 62
    18
420
        0
370
    25
100
AcDbLine
 10
-89.06331743099899
 20
27.96920248015608
 30
0.0
 11
-89.16804643099904
 21
28.12492248015598
 31
0.0
  0
LINE
  5
AF
330
70
100
AcDbEntity
  8
0
 62
    18
420
        0
370
    25
100
AcDbLine
 10
-89.16804643099904
 20
28.12492248015598
 30
0.0
 11
-89.25899643099899
 21
28.28752248015636
 31
0.0
  0
LINE
  5
B0
330
70
100
AcDbEntity
  8
0
 62
    18
420
        0
370
    25
100
AcDbLine
 10
-89.25899643099899
 20
28.28752248015636
 30
0.0
 11
-89.33616743099886
 21
28.45702248015607
 31
0.0
  0
LINE
  5
B1
330
70
100
AcDbEntity
  8
0
 62
    18
420
        0
370
    25
100
AcDbLine
 10
-89.33616743099886
 20
28.45702248015607
 30
0.0
 11
-89.4023134309989
 21
28.6320324801564
 31
0.0
  0
LINE
  5
B2
330
70
100
AcDbEntity
  8
0
 62
    18
420
        0
370
    25
100
AcDbLine
 10
-89.4023134309989
 20
28.6320324801564
 30
0.0
 11
-89.45330143099898
 21
28.81255248015606
 31
0.0
  0
LINE
  5
B3
330
70
100
AcDbEntity
  8
0
 62
    18
420
        0
370
    25
100
AcDbLine
 10
-89.45330143099898
 20
28.81255248015606
 30
0.0
 11
-89.48912943099898
 21
28.99584248015598
 31
0.0
  0
LINE
  5
B4
330
70
100
AcDbEntity
  8
0
 62
    18
420
        0
370
    25
100
AcDbLine
 10
-89.48912943099898
 20
28.99584248015598
 30
0.0
 11
-89.51117843099892
 21
29.18187248015625
 31
0.0
  0
LINE
  5
B5
330
70
100
AcDbEntity
  8
0
 62
    18
420
        0
370
    25
100
AcDbLine
 10
-89.51117843099892
 20
29.18187248015625
 30
0.0
 11
-89.51806883099902
 21
29.36928248015613
 31
0.0
  0
LINE
  5
B6
330
70
100
AcDbEntity
  8
0
 62
    18
420
        0
370
    25
100
AcDbLine
 10
-89.51806883099902
 20
29.36928248015613
 30
0.0
 11
-89.51806883099902
 21
129.3813424801561
 31
0.0
  0
LINE
  5
B7
330
70
100
AcDbEntity
  8
0
 62
    18
420
        0
370
    25
100
AcDbLine
 10
-89.51806883099902
 20
129.3813424801561
 30
0.0
 11
-89.51117843099892
 21
129.5693424801563
 31
0.0
  0
LINE
  5
B8
330
70
100
AcDbEntity
  8
0
 62
    18
420
        0
370
    25
100
AcDbLine
 10
-89.51117843099892
 20
129.5693424801563
 30
0.0
 11
-89.48912943099898
 21
129.7553424801563
 31
0.0
  0
LINE
  5
B9
330
70
100
AcDbEntity
  8
0
 62
    18
420
        0
370
    25
100
AcDbLine
 10
-89.48912943099898
 20
129.7553424801563
 30
0.0
 11
-89.45330143099898
 21
129.9373424801564
 31
0.0
  0
LINE
  5
BA
330
70
100
AcDbEntity
  8
0
 62
    18
420
        0
370
    25
100
AcDbLine
 10
-89.45330143099898
 20
129.9373424801564
 30
0.0
 11
-89.4023134309989
 21
130.1173424801563
 31
0.0
  0
LINE
  5
BB
330
70
100
AcDbEntity
  8
0
 62
    18
420
        0
370
    25
100
AcDbLine
 10
-89.4023134309989
 20
130.1173424801563
 30
0.0
 11
-89.33616743099886
 21
130.2943424801564
 31
0.0
  0
LINE
  5
BC
330
70
100
AcDbEntity
  8
0
 62
    18
420
        0
370
    25
100
AcDbLine
 10
-89.33616743099886
 20
130.2943424801564
 30
0.0
 11
-89.25899643099899
 21
130.4623424801562
 31
0.0
  0
LINE
  5
BD
330
70
100
AcDbEntity
  8
0
 62
    18
420
        0
370
    25
100
AcDbLine
 10
-89.25899643099899
 20
130.4623424801562
 30
0.0
 11
-89.16804643099904
 21
130.6263424801563
 31
0.0
  0
LINE
  5
BE
330
70
100
AcDbEntity
  8
0
 62
    18
420
        0
370
    25
100
AcDbLine
 10
-89.16804643099904
 20
130.6263424801563
 30
0.0
 11
-89.06331743099899
 21
130.7813424801562
 31
0.0
  0
LINE
  5
BF
330
70
100
AcDbEntity
  8
0
 62
    18
420
        0
370
    25
100
AcDbLine
 10
-89.06331743099899
 20
130.7813424801562
 30
0.0
 11
-88.94756043099901
 21
130.9283424801561
 31
0.0
  0
LINE
  5
C0
330
70
100
AcDbEntity
  8
0
 62
    18
420
        0
370
    25
100
AcDbLine
 10
-88.94756043099901
 20
130.9283424801561
 30
0.0
 11
-88.82078243099938
 21
131.0653424801564
 31
0.0
  0
LINE
  5
C1
330
70
100
AcDbEntity
  8
0
 62
    18
420
        0
370
    25
100
AcDbLine
 10
-88.82078243099938
 20
131.0653424801564
 30
0.0
 11
-88.68297743099885
 21
131.1923424801563
 31
0.0
  0
LINE
  5
C2
330
70
100
AcDbEntity
  8
0
 62
    18
420
        0
370
    25
100
AcDbLine
 10
-88.68297743099885
 20
131.1923424801563
 30
0.0
 11
-88.53690343099888
 21
131.3083424801564
 31
0.0
  0
LINE
  5
C3
330
70
100
AcDbEntity
  8
0
 62
    18
420
        0
370
    25
100
AcDbLine
 10
-88.53690343099888
 20
131.3083424801564
 30
0.0
 11
-88.38118343099898
 21
131.4133424801561
 31
0.0
  0
LINE
  5
C4
330
70
100
AcDbEntity
  8
0
 62
    18
420
        0
370
    25
100
AcDbLine
 10
-88.38118343099898
 20
131.4133424801561
 30
0.0
 11
-88.21720343099899
 21
131.5043424801561
 31
0.0
  0
LINE
  5
C5
330
70
100
AcDbEntity
  8
0
 62
    18
420
        0
370
    25
100
AcDbLine
 10
-88.21720343099899
 20
131.5043424801561
 30
0.0
 11
-88.04908343099887
 21
131.5813424801562
 31
0.0
  0
LINE
  5
C6
330
70
100
AcDbEntity
  8
0
 62
    18
420
        0
370
    25
100
AcDbLine
 10
-88.04908343099887
 20
131.5813424801562
 30
0.0
 11
-87.87269343099893
 21
131.6473424801561
 31
0.0
  0
LINE
  5
C7
330
70
100
AcDbEntity
  8
0
 62
    18
420
        0
370
    25
100
AcDbLine
 10
-87.87269343099893
 20
131.6473424801561
 30
0.0
 11
-87.69217343099896
 21
131.6983424801564
 31
0.0
  0
LINE
  5
C8
330
70
100
AcDbEntity
  8
0
 62
    18
420
        0
370
    25
100
AcDbLine
 10
-87.69217343099896
 20
131.6983424801564
 30
0.0
 11
-87.51026343099898
 21
131.7343424801562
 31
0.0
  0
LINE
  5
C9
330
70
100
AcDbEntity
  8
0
 62
    18
420
        0
370
    25
100
AcDbLine
 10
-87.51026343099898
 20
131.7343424801562
 30
0.0
 11
-87.32423343099902
 21
131.7563424801561
 31
0.0
  0
LINE
  5
CA
330
70
100
AcDbEntity
  8
0
 62
    18
420
        0
370
    25
100
AcDbLine
 10
-87.32423343099902
 20
131.7563424801561
 30
0.0
 11
-87.13682343099883
 21
131.7633424801563
 31
0.0
  0
LINE
  5
CB
330
70
100
AcDbEntity
  8
0
 62
    18
420
        0
370
    25
100
AcDbLine
 10
221.9998465690014
 20
131.7633424801563
 30
0.0
 11
-87.13682343099883
 21
131.7633424801563
 31
0.0
  0
LINE
  5
CC
330
70
100
AcDbEntity
  8
0
 62
    18
420
        0
370
    25
100
AcDbLine
 10
229.7128465690012
 20
45.89474248015633
 30
0.0
 11
243.7138465690008
 21
45.89474248015633
 31
0.0
  0
LINE
  5
CD
330
70
100
AcDbEntity
  8
0
 62
    18
420
        0
370
    25
100
AcDbLine
 10
243.7138465690008
 20
45.89474248015633
 30
0.0
 11
243.7138465690008
 21
31.89522248015653
 31
0.0
  0
LINE
  5
CE
330
70
100
AcDbEntity
  8
0
 62
    18
420
        0
370
    25
100
AcDbLine
 10
243.7138465690008
 20
31.89522248015653
 30
0.0
 11
229.7128465690012
 21
31.89522248015653
 31
0.0
  0
LINE
  5
CF
330
70
100
AcDbEntity
  8
0
 62
    18
420
        0
370
    25
100
AcDbLine
 10
229.7128465690012
 20
31.89522248015653
 30
0.0
 11
229.7128465690012
 21
45.89474248015633
 31
0.0
  0
LINE
  5
D0
330
70
100
AcDbEntity
  8
0
 62
    18
420
        0
370
    25
100
AcDbLine
 10
210.662846569001
 20
45.89474248015633
 30
0.0
 11
224.6638465690012
 21
45.89474248015633
 31
0.0
  0
LINE
  5
D1
330
70
100
AcDbEntity
  8
0
 62
    18
420
        0
370
    25
100
AcDbLine
 10
224.6638465690012
 20
45.89474248015633
 30
0.0
 11
224.6638465690012
 21
31.89522248015653
 31
0.0
  0
LINE
  5
D2
330
70
100
AcDbEntity
  8
0
 62
    18
420
        0
370
    25
100
AcDbLine
 10
224.6638465690012
 20
31.89522248015653
 30
0.0
 11
210.662846569001
 21
31.89522248015653
 31
0.0
  0
LINE
  5
D3
330
70
100
AcDbEntity
  8
0
 62
    18
420
        0
370
    25
100
AcDbLine
 10
210.662846569001
 20
31.89522248015653
 30
0.0
 11
210.662846569001
 21
45.89474248015633
 31
0.0
  0
LINE
  5
D4
330
70
100
AcDbEntity
  8
0
 62
    18
420
        0
370
    25
100
AcDbLine
 10
191.6128465690008
 20
45.89474248015633
 30
0.0
 11
205.6138465690011
 21
45.89474248015633
 31
0.0
  0
LINE
  5
D5
330
70
100
AcDbEntity
  8
0
 62
    18
420
        0
370
    25
100
AcDbLine
 10
205.6138465690011
 20
45.89474248015633
 30
0.0
 11
205.6138465690011
 21
31.89522248015653
 31
0.0
  0
LINE
  5
D6
330
70
100
AcDbEntity
  8
0
 62
    18
420
        0
370
    25
100
AcDbLine
 10
205.6138465690011
 20
31.89522248015653
 30
0.0
 11
191.6128465690008
 21
31.89522248015653
 31
0.0
  0
LINE
  5
D7
330
70
100
AcDbEntity
  8
0
 62
    18
420
        0
370
    25
100
AcDbLine
 10
191.6128465690008
 20
31.89522248015653
 30
0.0
 11
191.6128465690008
 21
45.89474248015633
 31
0.0
  0
LINE
  5
D8
330
70
100
AcDbEntity
  8
0
 62
    18
420
        0
370
    25
100
AcDbLine
 10
60.64384656900084
 20
50.65724248015607
 30
0.0
 11
60.64384656900084
 21
45.95674248015603
 31
0.0
  0
LINE
  5
D9
330
70
100
AcDbEntity
  8
0
 62
    18
420
        0
370
    25
100
AcDbLine
 10
60.64384656900084
 20
45.95674248015603
 30
0.0
 11
21.01984656900103
 21
45.95674248015603
 31
0.0
  0
LINE
  5
DA
330
70
100
AcDbEntity
  8
0
 62
    18
420
        0
370
    25
100
AcDbLine
 10
21.01984656900103
 20
45.95674248015603
 30
0.0
 11
21.01984656900103
 21
49.1868424801564
 31
0.0
  0
LINE
  5
DB
330
70
100
AcDbEntity
  8
0
 62
    18
420
        0
370
    25
100
AcDbLine
 10
21.01984656900103
 20
49.1868424801564
 30
0.0
 11
14.26884656900088
 21
49.1868424801564
 31
0.0
  0
LINE
  5
DC
330
70
100
AcDbEntity
  8
0
 62
    18
420
        0
370
    25
100
AcDbLine
 10
14.26884656900088
 20
49.1868424801564
 30
0.0
 11
14.26884656900088
 21
45.95674248015603
 31
0.0
  0
LINE
  5
DD
330
70
100
AcDbEntity
  8
0
 62
    18
420
        0
370
    25
100
AcDbLine
 10
14.26884656900088
 20
45.95674248015603
 30
0.0
 11
13.44484656900116
 21
45.95674248015603
 31
0.0
  0
LINE
  5
DE
330
70
100
AcDbEntity
  8
0
 62
    18
420
        0
370
    25
100
AcDbLine
 10
13.44484656900116
 20
45.95674248015603
 30
0.0
 11
13.44484656900116
 21
43.15654248015624
 31
0.0
  0
LINE
  5
DF
330
70
100
AcDbEntity
  8
0
 62
    18
420
        0
370
    25
100
AcDbLine
 10
13.44484656900116
 20
43.15654248015624
 30
0.0
 11
14.26884656900088
 21
43.15654248015624
 31
0.0
  0
LINE
  5
E0
330
70
100
AcDbEntity
  8
0
 62
    18
420
        0
370
    25
100
AcDbLine
 10
14.26884656900088
 20
43.15654248015624
 30
0.0
 11
14.26884656900088
 21
36.88654248015644
 31
0.0
  0
LINE
  5
E1
330
70
100
AcDbEntity
  8
0
 62
    18
420
        0
370
    25
100
AcDbLine
 10
14.26884656900088
 20
36.88654248015644
 30
0.0
 11
15.99384656900102
 21
36.88654248015644
 31
0.0
  0
LINE
  5
E2
330
70
100
AcDbEntity
  8
0
 62
    18
420
        0
370
    25
100
AcDbLine
 10
15.99384656900102
 20
36.88654248015644
 30
0.0
 11
15.99384656900102
 21
35.68620248015621
 31
0.0
  0
LINE
  5
E3
330
70
100
AcDbEntity
  8
0
 62
    18
420
        0
370
    25
100
AcDbLine
 10
15.99384656900102
 20
35.68620248015621
 30
0.0
 11
19.29484656900089
 21
35.68620248015621
 31
0.0
  0
LINE
  5
E4
330
70
100
AcDbEntity
  8
0
 62
    18
420
        0
370
    25
100
AcDbLine
 10
19.29484656900089
 20
35.68620248015621
 30
0.0
 11
19.29484656900089
 21
36.88654248015644
 31
0.0
  0
LINE
  5
E5
330
70
100
AcDbEntity
  8
0
 62
    18
420
        0
370
    25
100
AcDbLine
 10
19.29484656900089
 20
36.88654248015644
 30
0.0
 11
21.01984656900103
 21
36.88654248015644
 31
0.0
  0
LINE
  5
E6
330
70
100
AcDbEntity
  8
0
 62
    18
420
        0
370
    25
100
AcDbLine
 10
21.01984656900103
 20
36.88654248015644
 30
0.0
 11
21.01984656900103
 21
41.35684248015603
 31
0.0
  0
LINE
  5
E7
330
70
100
AcDbEntity
  8
0
 62
    18
420
        0
370
    25
100
AcDbLine
 10
21.01984656900103
 20
41.35684248015603
 30
0.0
 11
60.64384656900084
 21
41.35684248015603
 31
0.0
  0
LINE
  5
E8
330
70
100
AcDbEntity
  8
0
 62
    18
420
        0
370
    25
100
AcDbLine
 10
60.64384656900084
 20
41.35684248015603
 30
0.0
 11
60.64384656900084
 21
36.65634248015599
 31
0.0
  0
LINE
  5
E9
330
70
100
AcDbEntity
  8
0
 62
    18
420
        0
370
    25
100
AcDbLine
 10
60.64384656900084
 20
36.65634248015599
 30
0.0
 11
74.64484656900108
 21
36.65634248015599
 31
0.0
  0
LINE
  5
EA
330
70
100
AcDbEntity
  8
0
 62
    18
420
        0
370
    25
100
AcDbLine
 10
74.64484656900108
 20
36.65634248015599
 30
0.0
 11
74.64484656900108
 21
41.35684248015603
 31
0.0
  0
LINE
  5
EB
330
70
100
AcDbEntity
  8
0
 62
    18
420
        0
370
    25
100
AcDbLine
 10
74.64484656900108
 20
41.35684248015603
 30
0.0
 11
114.2688465690012
 21
41.35684248015603
 31
0.0
  0
LINE
  5
EC
330
70
100
AcDbEntity
  8
0
 62
    18
420
        0
370
    25
100
AcDbLine
 10
114.2688465690012
 20
41.35684248015603
 30
0.0
 11
114.2688465690012
 21
36.88654248015644
 31
0.0
  0
LINE
  5
ED
330
70
100
AcDbEntity
  8
0
 62
    18
420
        0
370
    25
100
AcDbLine
 10
114.2688465690012
 20
36.88654248015644
 30
0.0
 11
115.993846569001
 21
36.88654248015644
 31
0.0
  0
LINE
  5
EE
330
70
100
AcDbEntity
  8
0
 62
    18
420
        0
370
    25
100
AcDbLine
 10
115.993846569001
 20
36.88654248015644
 30
0.0
 11
115.993846569001
 21
35.68620248015621
 31
0.0
  0
LINE
  5
EF
330
70
100
AcDbEntity
  8
0
 62
    18
420
        0
370
    25
100
AcDbLine
 10
115.993846569001
 20
35.68620248015621
 30
0.0
 11
119.2948465690012
 21
35.68620248015621
 31
0.0
  0
LINE
  5
F0
330
70
100
AcDbEntity
  8
0
 62
    18
420
        0
370
    25
100
AcDbLine
 10
119.2948465690012
 20
35.68620248015621
 30
0.0
 11
119.2948465690012
 21
36.88654248015644
 31
0.0
  0
LINE
  5
F1
330
70
100
AcDbEntity
  8
0
 62
    18
420
        0
370
    25
100
AcDbLine
 10
119.2948465690012
 20
36.88654248015644
 30
0.0
 11
121.019846569001
 21
36.88654248015644
 31
0.0
  0
LINE
  5
F2
330
70
100
AcDbEntity
  8
0
 62
    18
420
        0
370
    25
100
AcDbLine
 10
121.019846569001
 20
36.88654248015644
 30
0.0
 11
121.019846569001
 21
43.15654248015624
 31
0.0
  0
LINE
  5
F3
330
70
100
AcDbEntity
  8
0
 62
    18
420
        0
370
    25
100
AcDbLine
 10
121.019846569001
 20
43.15654248015624
 30
0.0
 11
121.8438465690007
 21
43.15654248015624
 31
0.0
  0
LINE
  5
F4
330
70
100
AcDbEntity
  8
0
 62
    18
420
        0
370
    25
100
AcDbLine
 10
121.8438465690007
 20
43.15654248015624
 30
0.0
 11
121.8438465690007
 21
45.95674248015603
 31
0.0
  0
LINE
  5
F5
330
70
100
AcDbEntity
  8
0
 62
    18
420
        0
370
    25
100
AcDbLine
 10
121.8438465690007
 20
45.95674248015603
 30
0.0
 11
121.019846569001
 21
45.95674248015603
 31
0.0
  0
LINE
  5
F6
330
70
100
AcDbEntity
  8
0
 62
    18
420
        0
370
    25
100
AcDbLine
 10
121.019846569001
 20
45.95674248015603
 30
0.0
 11
121.019846569001
 21
49.1868424801564
 31
0.0
  0
LINE
  5
F7
330
70
100
AcDbEntity
  8
0
 62
    18
420
        0
370
    25
100
AcDbLine
 10
121.019846569001
 20
49.1868424801564
 30
0.0
 11
114.2688465690012
 21
49.1868424801564
 31
0.0
  0
LINE
  5
F8
330
70
100
AcDbEntity
  8
0
 62
    18
420
        0
370
    25
100
AcDbLine
 10
114.2688465690012
 20
49.1868424801564
 30
0.0
 11
114.2688465690012
 21
45.95674248015603
 31
0.0
  0
LINE
  5
F9
330
70
100
AcDbEntity
  8
0
 62
    18
420
        0
370
    25
100
AcDbLine
 10
114.2688465690012
 20
45.95674248015603
 30
0.0
 11
74.64484656900108
 21
45.95674248015603
 31
0.0
  0
LINE
  5
FA
330
70
100
AcDbEntity
  8
0
 62
    18
420
        0
370
    25
100
AcDbLine
 10
74.64484656900108
 20
45.95674248015603
 30
0.0
 11
74.64484656900108
 21
50.65724248015607
 31
0.0
  0
LINE
  5
FB
330
70
100
AcDbEntity
  8
0
 62
    18
420
        0
370
    25
100
AcDbLine
 10
74.64484656900108
 20
50.65724248015607
 30
0.0
 11
60.64384656900084
 21
50.65724248015607
 31
0.0
  0
LINE
  5
FC
330
70
100
AcDbEntity
  8
0
 62
    18
420
        0
370
    25
100
AcDbLine
 10
167.7998465690013
 20
50.65724248015607
 30
0.0
 11
181.7998465690012
 21
50.65724248015607
 31
0.0
  0
LINE
  5
FD
330
70
100
AcDbEntity
  8
0
 62
    18
420
        0
370
    25
100
AcDbLine
 10
181.7998465690012
 20
50.65724248015607
 30
0.0
 11
181.7998465690012
 21
36.65634248015599
 31
0.0
  0
LINE
  5
FE
330
70
100
AcDbEntity
  8
0
 62
    18
420
        0
370
    25
100
AcDbLine
 10
181.7998465690012
 20
36.65634248015599
 30
0.0
 11
167.7998465690013
 21
36.65634248015599
 31
0.0
  0
LINE
  5
FF
330
70
100
AcDbEntity
  8
0
 62
    18
420
        0
370
    25
100
AcDbLine
 10
167.7998465690013
 20
36.65634248015599
 30
0.0
 11
167.7998465690013
 21
50.65724248015607
 31
0.0
  0
LINE
  5
100
330
70
100
AcDbEntity
  8
0
 62
    18
420
        0
370
    25
100
AcDbLine
 10
148.7498465690011
 20
50.65724248015607
 30
0.0
 11
162.749846569001
 21
50.65724248015607
 31
0.0
  0
LINE
  5
101
330
70
100
AcDbEntity
  8
0
 62
    18
420
        0
370
    25
100
AcDbLine
 10
162.749846569001
 20
50.65724248015607
 30
0.0
 11
162.749846569001
 21
36.65634248015599
 31
0.0
  0
LINE
  5
102
330
70
100
AcDbEntity
  8
0
 62
    18
420
        0
370
    25
100
AcDbLine
 10
162.749846569001
 20
36.65634248015599
 30
0.0
 11
148.7498465690011
 21
36.65634248015599
 31
0.0
  0
LINE
  5
103
330
70
100
AcDbEntity
  8
0
 62
    18
420
        0
370
    25
100
AcDbLine
 10
148.7498465690011
 20
36.65634248015599
 30
0.0
 11
148.7498465690011
 21
50.65724248015607
 31
0.0
  0
LINE
  5
104
330
70
100
AcDbEntity
  8
0
 62
    18
420
        0
370
    25
100
AcDbLine
 10
129.6998465690009
 20
50.65724248015607
 30
0.0
 11
143.6998465690008
 21
50.65724248015607
 31
0.0
  0
LINE
  5
105
330
70
100
AcDbEntity
  8
0
 62
    18
420
        0
370
    25
100
AcDbLine
 10
143.6998465690008
 20
50.65724248015607
 30
0.0
 11
143.6998465690008
 21
36.65634248015599
 31
0.0
  0
LINE
  5
106
330
70
100
AcDbEntity
  8
0
 62
    18
420
        0
370
    25
100
AcDbLine
 10
143.6998465690008
 20
36.65634248015599
 30
0.0
 11
129.6998465690009
 21
36.65634248015599
 31
0.0
  0
LINE
  5
107
330
70
100
AcDbEntity
  8
0
 62
    18
420
        0
370
    25
100
AcDbLine
 10
129.6998465690009
 20
36.65634248015599
 30
0.0
 11
129.6998465690009
 21
50.65724248015607
 31
0.0
  0
LINE
  5
108
330
70
100
AcDbEntity
  8
0
 62
    18
420
        0
370
    25
100
AcDbLine
 10
-10.79205343099913
 20
50.65724248015607
 30
0.0
 11
3.207246569001155
 21
50.65724248015607
 31
0.0
  0
LINE
  5
109
330
70
100
AcDbEntity
  8
0
 62
    18
420
        0
370
    25
100
AcDbLine
 10
3.207246569001155
 20
50.65724248015607
 30
0.0
 11
3.207246569001155
 21
36.65634248015599
 31
0.0
  0
LINE
  5
10A
330
70
100
AcDbEntity
  8
0
 62
    18
420
        0
370
    25
100
AcDbLine
 10
3.207246569001155
 20
36.65634248015599
 30
0.0
 11
-10.79205343099913
 21
36.65634248015599
 31
0.0
  0
LINE
  5
10B
330
70
100
AcDbEntity
  8
0
 62
    18
420
        0
370
    25
100
AcDbLine
 10
-10.79205343099913
 20
36.65634248015599
 30
0.0
 11
-10.79205343099913
 21
50.65724248015607
 31
0.0
  0
LINE
  5
10C
330
70
100
AcDbEntity
  8
0
 62
    18
420
        0
370
    25
100
AcDbLine
 10
-58.41715343099913
 20
50.65724248015607
 30
0.0
 11
-44.417753430999
 21
50.65724248015607
 31
0.0
  0
LINE
  5
10D
330
70
100
AcDbEntity
  8
0
 62
    18
420
        0
370
    25
100
AcDbLine
 10
-44.417753430999
 20
50.65724248015607
 30
0.0
 11
-44.417753430999
 21
36.65634248015599
 31
0.0
  0
LINE
  5
10E
330
70
100
AcDbEntity
  8
0
 62
    18
420
        0
370
    25
100
AcDbLine
 10
-44.417753430999
 20
36.65634248015599
 30
0.0
 11
-58.41715343099913
 21
36.65634248015599
 31
0.0
  0
LINE
  5
10F
330
70
100
AcDbEntity
  8
0
 62
    18
420
        0
370
    25
100
AcDbLine
 10
-58.41715343099913
 20
36.65634248015599
 30
0.0
 11
-58.41715343099913
 21
50.65724248015607
 31
0.0
  0
LINE
  5
110
330
70
100
AcDbEntity
  8
0
 62
    18
420
        0
370
    25
100
AcDbLine
 10
-84.61224343099884
 20
50.65724248015607
 30
0.0
 11
-70.61135343099884
 21
50.65724248015607
 31
0.0
  0
LINE
  5
111
330
70
100
AcDbEntity
  8
0
 62
    18
420
        0
370
    25
100
AcDbLine
 10
-70.61135343099884
 20
50.65724248015607
 30
0.0
 11
-70.61135343099884
 21
36.65634248015599
 31
0.0
  0
LINE
  5
112
330
70
100
AcDbEntity
  8
0
 62
    18
420
        0
370
    25
100
AcDbLine
 10
-70.61135343099884
 20
36.65634248015599
 30
0.0
 11
-84.61224343099884
 21
36.65634248015599
 31
0.0
  0
LINE
  5
113
330
70
100
AcDbEntity
  8
0
 62
    18
420
        0
370
    25
100
AcDbLine
 10
-84.61224343099884
 20
36.65634248015599
 30
0.0
 11
-84.61224343099884
 21
50.65724248015607
 31
0.0
  0
LINE
  5
114
330
70
100
AcDbEntity
  8
0
 62
    18
420
        0
370
    25
100
AcDbLine
 10
229.7128465690012
 20
64.94464248015636
 30
0.0
 11
243.7138465690008
 21
64.94464248015636
 31
0.0
  0
LINE
  5
115
330
70
100
AcDbEntity
  8
0
 62
    18
420
        0
370
    25
100
AcDbLine
 10
243.7138465690008
 20
64.94464248015636
 30
0.0
 11
243.7138465690008
 21
50.94524248015623
 31
0.0
  0
LINE
  5
116
330
70
100
AcDbEntity
  8
0
 62
    18
420
        0
370
    25
100
AcDbLine
 10
243.7138465690008
 20
50.94524248015623
 30
0.0
 11
229.7128465690012
 21
50.94524248015623
 31
0.0
  0
LINE
  5
117
330
70
100
AcDbEntity
  8
0
 62
    18
420
        0
370
    25
100
AcDbLine
 10
229.7128465690012
 20
50.94524248015623
 30
0.0
 11
229.7128465690012
 21
64.94464248015636
 31
0.0
  0
LINE
  5
118
330
70
100
AcDbEntity
  8
0
 62
    18
420
        0
370
    25
100
AcDbLine
 10
210.662846569001
 20
64.94464248015636
 30
0.0
 11
224.6638465690012
 21
64.94464248015636
 31
0.0
  0
LINE
  5
119
330
70
100
AcDbEntity
  8
0
 62
    18
420
        0
370
    25
100
AcDbLine
 10
224.6638465690012
 20
64.94464248015636
 30
0.0
 11
224.6638465690012
 21
50.94524248015623
 31
0.0
  0
LINE
  5
11A
330
70
100
AcDbEntity
  8
0
 62
    18
420
        0
370
    25
100
AcDbLine
 10
224.6638465690012
 20
50.94524248015623
 30
0.0
 11
210.662846569001
 21
50.94524248015623
 31
0.0
  0
LINE
  5
11B
330
70
100
AcDbEntity
  8
0
 62
    18
420
        0
370
    25
100
AcDbLine
 10
210.662846569001
 20
50.94524248015623
 30
0.0
 11
210.662846569001
 21
64.94464248015636
 31
0.0
  0
LINE
  5
11C
330
70
100
AcDbEntity
  8
0
 62
    18
420
        0
370
    25
100
AcDbLine
 10
-48.89205343099887
 20
69.70714248015609
 30
0.0
 11
-48.89205343099887
 21
65.00674248015622
 31
0.0
  0
LINE
  5
11D
330
70
100
AcDbEntity
  8
0
 62
    18
420
        0
370
    25
100
AcDbLine
 10
-48.89205343099887
 20
65.00674248015622
 30
0.0
 11
-50.41775343099889
 21
65.00674248015622
 31
0.0
  0
LINE
  5
11E
330
70
100
AcDbEntity
  8
0
 62
    18
420
        0
370
    25
100
AcDbLine
 10
-50.41775343099889
 20
65.00674248015622
 30
0.0
 11
-50.41775343099889
 21
68.23674248015644
 31
0.0
  0
LINE
  5
11F
330
70
100
AcDbEntity
  8
0
 62
    18
420
        0
370
    25
100
AcDbLine
 10
-50.41775343099889
 20
68.23674248015644
 30
0.0
 11
-57.16725343099909
 21
68.23674248015644
 31
0.0
  0
LINE
  5
120
330
70
100
AcDbEntity
  8
0
 62
    18
420
        0
370
    25
100
AcDbLine
 10
-57.16725343099909
 20
68.23674248015644
 30
0.0
 11
-57.16725343099909
 21
65.00674248015622
 31
0.0
  0
LINE
  5
121
330
70
100
AcDbEntity
  8
0
 62
    18
420
        0
370
    25
100
AcDbLine
 10
-57.16725343099909
 20
65.00674248015622
 30
0.0
 11
-57.99265343099891
 21
65.00674248015622
 31
0.0
  0
LINE
  5
122
330
70
100
AcDbEntity
  8
0
 62
    18
420
        0
370
    25
100
AcDbLine
 10
-57.99265343099891
 20
65.00674248015622
 30
0.0
 11
-57.99265343099891
 21
62.20674248015612
 31
0.0
  0
LINE
  5
123
330
70
100
AcDbEntity
  8
0
 62
    18
420
        0
370
    25
100
AcDbLine
 10
-57.99265343099891
 20
62.20674248015612
 30
0.0
 11
-57.16725343099909
 21
62.20674248015612
 31
0.0
  0
LINE
  5
124
330
70
100
AcDbEntity
  8
0
 62
    18
420
        0
370
    25
100
AcDbLine
 10
-57.16725343099909
 20
62.20674248015612
 30
0.0
 11
-57.16725343099909
 21
55.93654248015599
 31
0.0
  0
LINE
  5
125
330
70
100
AcDbEntity
  8
0
 62
    18
420
        0
370
    25
100
AcDbLine
 10
-57.16725343099909
 20
55.93654248015599
 30
0.0
 11
-55.44335343099887
 21
55.93654248015599
 31
0.0
  0
LINE
  5
126
330
70
100
AcDbEntity
  8
0
 62
    18
420
        0
370
    25
100
AcDbLine
 10
-55.44335343099887
 20
55.93654248015599
 30
0.0
 11
-55.44335343099887
 21
54.73624248015608
 31
0.0
  0
LINE
  5
127
330
70
100
AcDbEntity
  8
0
 62
    18
420
        0
370
    25
100
AcDbLine
 10
-55.44335343099887
 20
54.73624248015608
 30
0.0
 11
-52.14285343099888
 21
54.73624248015608
 31
0.0
  0
LINE
  5
128
330
70
100
AcDbEntity
  8
0
 62
    18
420
        0
370
    25
100
AcDbLine
 10
-52.14285343099888
 20
54.73624248015608
 30
0.0
 11
-52.14285343099888
 21
55.93654248015599
 31
0.0
  0
LINE
  5
129
330
70
100
AcDbEntity
  8
0
 62
    18
420
        0
370
    25
100
AcDbLine
 10
-52.14285343099888
 20
55.93654248015599
 30
0.0
 11
-50.41775343099889
 21
55.93654248015599
 31
0.0
  0
LINE
  5
12A
330
70
100
AcDbEntity
  8
0
 62
    18
420
        0
370
    25
100
AcDbLine
 10
-50.41775343099889
 20
55.93654248015599
 30
0.0
 11
-50.41775343099889
 21
60.40684248015622
 31
0.0
  0
LINE
  5
12B
330
70
100
AcDbEntity
  8
0
 62
    18
420
        0
370
    25
100
AcDbLine
 10
-50.41775343099889
 20
60.40684248015622
 30
0.0
 11
-48.89205343099887
 21
60.40684248015622
 31
0.0
  0
LINE
  5
12C
330
70
100
AcDbEntity
  8
0
 62
    18
420
        0
370
    25
100
AcDbLine
 10
-48.89205343099887
 20
60.40684248015622
 30
0.0
 11
-48.89205343099887
 21
55.70634248015618
 31
0.0
  0
LINE
  5
12D
330
70
100
AcDbEntity
  8
0
 62
    18
420
        0
370
    25
100
AcDbLine
 10
-48.89205343099887
 20
55.70634248015618
 30
0.0
 11
-34.89275343099891
 21
55.70634248015618
 31
0.0
  0
LINE
  5
12E
330
70
100
AcDbEntity
  8
0
 62
    18
420
        0
370
    25
100
AcDbLine
 10
-34.89275343099891
 20
55.70634248015618
 30
0.0
 11
-34.89275343099891
 21
60.40684248015622
 31
0.0
  0
LINE
  5
12F
330
70
100
AcDbEntity
  8
0
 62
    18
420
        0
370
    25
100
AcDbLine
 10
-34.89275343099891
 20
60.40684248015622
 30
0.0
 11
-33.36695343099904
 21
60.40684248015622
 31
0.0
  0
LINE
  5
130
330
70
100
AcDbEntity
  8
0
 62
    18
420
        0
370
    25
100
AcDbLine
 10
-33.36695343099904
 20
60.40684248015622
 30
0.0
 11
-33.36695343099904
 21
55.93654248015599
 31
0.0
  0
LINE
  5
131
330
70
100
AcDbEntity
  8
0
 62
    18
420
        0
370
    25
100
AcDbLine
 10
-33.36695343099904
 20
55.93654248015599
 30
0.0
 11
-31.64325343099883
 21
55.93654248015599
 31
0.0
  0
LINE
  5
132
330
70
100
AcDbEntity
  8
0
 62
    18
420
        0
370
    25
100
AcDbLine
 10
-31.64325343099883
 20
55.93654248015599
 30
0.0
 11
-31.64325343099883
 21
54.73624248015608
 31
0.0
  0
LINE
  5
133
330
70
100
AcDbEntity
  8
0
 62
    18
420
        0
370
    25
100
AcDbLine
 10
-31.64325343099883
 20
54.73624248015608
 30
0.0
 11
-28.34275343099884
 21
54.73624248015608
 31
0.0
  0
LINE
  5
134
330
70
100
AcDbEntity
  8
0
 62
    18
420
        0
370
    25
100
AcDbLine
 10
-28.34275343099884
 20
54.73624248015608
 30
0.0
 11
-28.34275343099884
 21
55.93654248015599
 31
0.0
  0
LINE
  5
135
330
70
100
AcDbEntity
  8
0
 62
    18
420
        0
370
    25
100
AcDbLine
 10
-28.34275343099884
 20
55.93654248015599
 30
0.0
 11
-26.61765343099885
 21
55.93654248015599
 31
0.0
  0
LINE
  5
136
330
70
100
AcDbEntity
  8
0
 62
    18
420
        0
370
    25
100
AcDbLine
 10
-26.61765343099885
 20
55.93654248015599
 30
0.0
 11
-26.61765343099885
 21
62.20674248015612
 31
0.0
  0
LINE
  5
137
330
70
100
AcDbEntity
  8
0
 62
    18
420
        0
370
    25
100
AcDbLine
 10
-26.61765343099885
 20
62.20674248015612
 30
0.0
 11
-25.79215343099887
 21
62.20674248015612
 31
0.0
  0
LINE
  5
138
330
70
100
AcDbEntity
  8
0
 62
    18
420
        0
370
    25
100
AcDbLine
 10
-25.79215343099887
 20
62.20674248015612
 30
0.0
 11
-25.79215343099887
 21
65.00674248015622
 31
0.0
  0
LINE
  5
139
330
70
100
AcDbEntity
  8
0
 62
    18
420
        0
370
    25
100
AcDbLine
 10
-25.79215343099887
 20
65.00674248015622
 30
0.0
 11
-26.61765343099885
 21
65.00674248015622
 31
0.0
  0
LINE
  5
13A
330
70
100
AcDbEntity
  8
0
 62
    18
420
        0
370
    25
100
AcDbLine
 10
-26.61765343099885
 20
65.00674248015622
 30
0.0
 11
-26.61765343099885
 21
68.23674248015644
 31
0.0
  0
LINE
  5
13B
330
70
100
AcDbEntity
  8
0
 62
    18
420
        0
370
    25
100
AcDbLine
 10
-26.61765343099885
 20
68.23674248015644
 30
0.0
 11
-33.36695343099904
 21
68.23674248015644
 31
0.0
  0
LINE
  5
13C
330
70
100
AcDbEntity
  8
0
 62
    18
420
        0
370
    25
100
AcDbLine
 10
-33.36695343099904
 20
68.23674248015644
 30
0.0
 11
-33.36695343099904
 21
65.00674248015622
 31
0.0
  0
LINE
  5
13D
330
70
100
AcDbEntity
  8
0
 62
    18
420
        0
370
    25
100
AcDbLine
 10
-33.36695343099904
 20
65.00674248015622
 30
0.0
 11
-34.89275343099891
 21
65.00674248015622
 31
0.0
  0
LINE
  5
13E
330
70
100
AcDbEntity
  8
0
 62
    18
420
        0
370
    25
100
AcDbLine
 10
-34.89275343099891
 20
65.00674248015622
 30
0.0
 11
-34.89275343099891
 21
69.70714248015609
 31
0.0
  0
LINE
  5
13F
330
70
100
AcDbEntity
  8
0
 62
    18
420
        0
370
    25
100
AcDbLine
 10
-34.89275343099891
 20
69.70714248015609
 30
0.0
 11
-48.89205343099887
 21
69.70714248015609
 31
0.0
  0
LINE
  5
140
330
70
100
AcDbEntity
  8
0
 62
    18
420
        0
370
    25
100
AcDbLine
 10
179.7078465690006
 20
69.70714248015609
 30
0.0
 11
193.7068465690008
 21
69.70714248015609
 31
0.0
  0
LINE
  5
141
330
70
100
AcDbEntity
  8
0
 62
    18
420
        0
370
    25
100
AcDbLine
 10
193.7068465690008
 20
69.70714248015609
 30
0.0
 11
193.7068465690008
 21
55.70634248015618
 31
0.0
  0
LINE
  5
142
330
70
100
AcDbEntity
  8
0
 62
    18
420
        0
370
    25
100
AcDbLine
 10
193.7068465690008
 20
55.70634248015618
 30
0.0
 11
179.7078465690006
 21
55.70634248015618
 31
0.0
  0
LINE
  5
143
330
70
100
AcDbEntity
  8
0
 62
    18
420
        0
370
    25
100
AcDbLine
 10
179.7078465690006
 20
55.70634248015618
 30
0.0
 11
179.7078465690006
 21
69.70714248015609
 31
0.0
  0
LINE
  5
144
330
70
100
AcDbEntity
  8
0
 62
    18
420
        0
370
    25
100
AcDbLine
 10
153.512846569001
 20
69.70714248015609
 30
0.0
 11
167.5138465690013
 21
69.70714248015609
 31
0.0
  0
LINE
  5
145
330
70
100
AcDbEntity
  8
0
 62
    18
420
        0
370
    25
100
AcDbLine
 10
167.5138465690013
 20
69.70714248015609
 30
0.0
 11
167.5138465690013
 21
55.70634248015618
 31
0.0
  0
LINE
  5
146
330
70
100
AcDbEntity
  8
0
 62
    18
420
        0
370
    25
100
AcDbLine
 10
167.5138465690013
 20
55.70634248015618
 30
0.0
 11
153.512846569001
 21
55.70634248015618
 31
0.0
  0
LINE
  5
147
330
70
100
AcDbEntity
  8
0
 62
    18
420
        0
370
    25
100
AcDbLine
 10
153.512846569001
 20
55.70634248015618
 30
0.0
 11
153.512846569001
 21
69.70714248015609
 31
0.0
  0
LINE
  5
148
330
70
100
AcDbEntity
  8
0
 62
    18
420
        0
370
    25
100
AcDbLine
 10
134.4628465690008
 20
69.70714248015609
 30
0.0
 11
148.4638465690011
 21
69.70714248015609
 31
0.0
  0
LINE
  5
149
330
70
100
AcDbEntity
  8
0
 62
    18
420
        0
370
    25
100
AcDbLine
 10
148.4638465690011
 20
69.70714248015609
 30
0.0
 11
148.4638465690011
 21
55.70634248015618
 31
0.0
  0
LINE
  5
14A
330
70
100
AcDbEntity
  8
0
 62
    18
420
        0
370
    25
100
AcDbLine
 10
148.4638465690011
 20
55.70634248015618
 30
0.0
 11
134.4628465690008
 21
55.70634248015618
 31
0.0
  0
LINE
  5
14B
330
70
100
AcDbEntity
  8
0
 62
    18
420
        0
370
    25
100
AcDbLine
 10
134.4628465690008
 20
55.70634248015618
 30
0.0
 11
134.4628465690008
 21
69.70714248015609
 31
0.0
  0
LINE
  5
14C
330
70
100
AcDbEntity
  8
0
 62
    18
420
        0
370
    25
100
AcDbLine
 10
115.4128465690013
 20
69.70714248015609
 30
0.0
 11
129.4138465690009
 21
69.70714248015609
 31
0.0
  0
LINE
  5
14D
330
70
100
AcDbEntity
  8
0
 62
    18
420
        0
370
    25
100
AcDbLine
 10
129.4138465690009
 20
69.70714248015609
 30
0.0
 11
129.4138465690009
 21
55.70634248015618
 31
0.0
  0
LINE
  5
14E
330
70
100
AcDbEntity
  8
0
 62
    18
420
        0
370
    25
100
AcDbLine
 10
129.4138465690009
 20
55.70634248015618
 30
0.0
 11
115.4128465690013
 21
55.70634248015618
 31
0.0
  0
LINE
  5
14F
330
70
100
AcDbEntity
  8
0
 62
    18
420
        0
370
    25
100
AcDbLine
 10
115.4128465690013
 20
55.70634248015618
 30
0.0
 11
115.4128465690013
 21
69.70714248015609
 31
0.0
  0
LINE
  5
150
330
70
100
AcDbEntity
  8
0
 62
    18
420
        0
370
    25
100
AcDbLine
 10
96.36284656900114
 20
69.70714248015609
 30
0.0
 11
110.3638465690007
 21
69.70714248015609
 31
0.0
  0
LINE
  5
151
330
70
100
AcDbEntity
  8
0
 62
    18
420
        0
370
    25
100
AcDbLine
 10
110.3638465690007
 20
69.70714248015609
 30
0.0
 11
110.3638465690007
 21
55.70634248015618
 31
0.0
  0
LINE
  5
152
330
70
100
AcDbEntity
  8
0
 62
    18
420
        0
370
    25
100
AcDbLine
 10
110.3638465690007
 20
55.70634248015618
 30
0.0
 11
96.36284656900114
 21
55.70634248015618
 31
0.0
  0
LINE
  5
153
330
70
100
AcDbEntity
  8
0
 62
    18
420
        0
370
    25
100
AcDbLine
 10
96.36284656900114
 20
55.70634248015618
 30
0.0
 11
96.36284656900114
 21
69.70714248015609
 31
0.0
  0
LINE
  5
154
330
70
100
AcDbEntity
  8
0
 62
    18
420
        0
370
    25
100
AcDbLine
 10
77.31284656900093
 20
69.70714248015609
 30
0.0
 11
91.31384656900118
 21
69.70714248015609
 31
0.0
  0
LINE
  5
155
330
70
100
AcDbEntity
  8
0
 62
    18
420
        0
370
    25
100
AcDbLine
 10
91.31384656900118
 20
69.70714248015609
 30
0.0
 11
91.31384656900118
 21
55.70634248015618
 31
0.0
  0
LINE
  5
156
330
70
100
AcDbEntity
  8
0
 62
    18
420
        0
370
    25
100
AcDbLine
 10
91.31384656900118
 20
55.70634248015618
 30
0.0
 11
77.31284656900093
 21
55.70634248015618
 31
0.0
  0
LINE
  5
157
330
70
100
AcDbEntity
  8
0
 62
    18
420
        0
370
    25
100
AcDbLine
 10
77.31284656900093
 20
55.70634248015618
 30
0.0
 11
77.31284656900093
 21
69.70714248015609
 31
0.0
  0
LINE
  5
158
330
70
100
AcDbEntity
  8
0
 62
    18
420
        0
370
    25
100
AcDbLine
 10
58.26284656900106
 20
69.70714248015609
 30
0.0
 11
72.26384656900099
 21
69.70714248015609
 31
0.0
  0
LINE
  5
159
330
70
100
AcDbEntity
  8
0
 62
    18
420
        0
370
    25
100
AcDbLine
 10
72.26384656900099
 20
69.70714248015609
 30
0.0
 11
72.26384656900099
 21
55.70634248015618
 31
0.0
  0
LINE
  5
15A
330
70
100
AcDbEntity
  8
0
 62
    18
420
        0
370
    25
100
AcDbLine
 10
72.26384656900099
 20
55.70634248015618
 30
0.0
 11
58.26284656900106
 21
55.70634248015618
 31
0.0
  0
LINE
  5
15B
330
70
100
AcDbEntity
  8
0
 62
    18
420
        0
370
    25
100
AcDbLine
 10
58.26284656900106
 20
55.70634248015618
 30
0.0
 11
58.26284656900106
 21
69.70714248015609
 31
0.0
  0
LINE
  5
15C
330
70
100
AcDbEntity
  8
0
 62
    18
420
        0
370
    25
100
AcDbLine
 10
39.21284656900088
 20
69.70714248015609
 30
0.0
 11
53.21384656900112
 21
69.70714248015609
 31
0.0
  0
LINE
  5
15D
330
70
100
AcDbEntity
  8
0
 62
    18
420
        0
370
    25
100
AcDbLine
 10
53.21384656900112
 20
69.70714248015609
 30
0.0
 11
53.21384656900112
 21
55.70634248015618
 31
0.0
  0
LINE
  5
15E
330
70
100
AcDbEntity
  8
0
 62
    18
420
        0
370
    25
100
AcDbLine
 10
53.21384656900112
 20
55.70634248015618
 30
0.0
 11
39.21284656900088
 21
55.70634248015618
 31
0.0
  0
LINE
  5
15F
330
70
100
AcDbEntity
  8
0
 62
    18
420
        0
370
    25
100
AcDbLine
 10
39.21284656900088
 20
55.70634248015618
 30
0.0
 11
39.21284656900088
 21
69.70714248015609
 31
0.0
  0
LINE
  5
160
330
70
100
AcDbEntity
  8
0
 62
    18
420
        0
370
    25
100
AcDbLine
 10
20.16284656900101
 20
69.70714248015609
 30
0.0
 11
34.16384656900093
 21
69.70714248015609
 31
0.0
  0
LINE
  5
161
330
70
100
AcDbEntity
  8
0
 62
    18
420
        0
370
    25
100
AcDbLine
 10
34.16384656900093
 20
69.70714248015609
 30
0.0
 11
34.16384656900093
 21
55.70634248015618
 31
0.0
  0
LINE
  5
162
330
70
100
AcDbEntity
  8
0
 62
    18
420
        0
370
    25
100
AcDbLine
 10
34.16384656900093
 20
55.70634248015618
 30
0.0
 11
20.16284656900101
 21
55.70634248015618
 31
0.0
  0
LINE
  5
163
330
70
100
AcDbEntity
  8
0
 62
    18
420
        0
370
    25
100
AcDbLine
 10
20.16284656900101
 20
55.70634248015618
 30
0.0
 11
20.16284656900101
 21
69.70714248015609
 31
0.0
  0
LINE
  5
164
330
70
100
AcDbEntity
  8
0
 62
    18
420
        0
370
    25
100
AcDbLine
 10
1.112846569001138
 20
69.70714248015609
 30
0.0
 11
15.11384656900106
 21
69.70714248015609
 31
0.0
  0
LINE
  5
165
330
70
100
AcDbEntity
  8
0
 62
    18
420
        0
370
    25
100
AcDbLine
 10
15.11384656900106
 20
69.70714248015609
 30
0.0
 11
15.11384656900106
 21
55.70634248015618
 31
0.0
  0
LINE
  5
166
330
70
100
AcDbEntity
  8
0
 62
    18
420
        0
370
    25
100
AcDbLine
 10
15.11384656900106
 20
55.70634248015618
 30
0.0
 11
1.112846569001138
 21
55.70634248015618
 31
0.0
  0
LINE
  5
167
330
70
100
AcDbEntity
  8
0
 62
    18
420
        0
370
    25
100
AcDbLine
 10
1.112846569001138
 20
55.70634248015618
 30
0.0
 11
1.112846569001138
 21
69.70714248015609
 31
0.0
  0
LINE
  5
168
330
70
100
AcDbEntity
  8
0
 62
    18
420
        0
370
    25
100
AcDbLine
 10
-17.93715343099905
 20
69.70714248015609
 30
0.0
 11
-3.936453430998992
 21
69.70714248015609
 31
0.0
  0
LINE
  5
169
330
70
100
AcDbEntity
  8
0
 62
    18
420
        0
370
    25
100
AcDbLine
 10
-3.936453430998992
 20
69.70714248015609
 30
0.0
 11
-3.936453430998992
 21
55.70634248015618
 31
0.0
  0
LINE
  5
16A
330
70
100
AcDbEntity
  8
0
 62
    18
420
        0
370
    25
100
AcDbLine
 10
-3.936453430998992
 20
55.70634248015618
 30
0.0
 11
-17.93715343099905
 21
55.70634248015618
 31
0.0
  0
LINE
  5
16B
330
70
100
AcDbEntity
  8
0
 62
    18
420
        0
370
    25
100
AcDbLine
 10
-17.93715343099905
 20
55.70634248015618
 30
0.0
 11
-17.93715343099905
 21
69.70714248015609
 31
0.0
  0
LINE
  5
16C
330
70
100
AcDbEntity
  8
0
 62
    18
420
        0
370
    25
100
AcDbLine
 10
-84.61224343099884
 20
69.70714248015609
 30
0.0
 11
-70.61135343099884
 21
69.70714248015609
 31
0.0
  0
LINE
  5
16D
330
70
100
AcDbEntity
  8
0
 62
    18
420
        0
370
    25
100
AcDbLine
 10
-70.61135343099884
 20
69.70714248015609
 30
0.0
 11
-70.61135343099884
 21
55.70634248015618
 31
0.0
  0
LINE
  5
16E
330
70
100
AcDbEntity
  8
0
 62
    18
420
        0
370
    25
100
AcDbLine
 10
-70.61135343099884
 20
55.70634248015618
 30
0.0
 11
-84.61224343099884
 21
55.70634248015618
 31
0.0
  0
LINE
  5
16F
330
70
100
AcDbEntity
  8
0
 62
    18
420
        0
370
    25
100
AcDbLine
 10
-84.61224343099884
 20
55.70634248015618
 30
0.0
 11
-84.61224343099884
 21
69.70714248015609
 31
0.0
  0
LINE
  5
170
330
70
100
AcDbEntity
  8
0
 62
    18
420
        0
370
    25
100
AcDbLine
 10
193.9938465690012
 20
88.75714248015629
 30
0.0
 11
193.9938465690012
 21
84.05674248015641
 31
0.0
  0
LINE
  5
171
330
70
100
AcDbEntity
  8
0
 62
    18
420
        0
370
    25
100
AcDbLine
 10
193.9938465690012
 20
84.05674248015641
 30
0.0
 11
192.4698465690011
 21
84.05674248015641
 31
0.0
  0
LINE
  5
172
330
70
100
AcDbEntity
  8
0
 62
    18
420
        0
370
    25
100
AcDbLine
 10
192.4698465690011
 20
84.05674248015641
 30
0.0
 11
192.4698465690011
 21
87.2867424801563
 31
0.0
  0
LINE
  5
173
330
70
100
AcDbEntity
  8
0
 62
    18
420
        0
370
    25
100
AcDbLine
 10
192.4698465690011
 20
87.2867424801563
 30
0.0
 11
185.7188465690013
 21
87.2867424801563
 31
0.0
  0
LINE
  5
174
330
70
100
AcDbEntity
  8
0
 62
    18
420
        0
370
    25
100
AcDbLine
 10
185.7188465690013
 20
87.2867424801563
 30
0.0
 11
185.7188465690013
 21
84.05674248015641
 31
0.0
  0
LINE
  5
175
330
70
100
AcDbEntity
  8
0
 62
    18
420
        0
370
    25
100
AcDbLine
 10
185.7188465690013
 20
84.05674248015641
 30
0.0
 11
184.8948465690009
 21
84.05674248015641
 31
0.0
  0
LINE
  5
176
330
70
100
AcDbEntity
  8
0
 62
    18
420
        0
370
    25
100
AcDbLine
 10
184.8948465690009
 20
84.05674248015641
 30
0.0
 11
184.8948465690009
 21
81.25674248015632
 31
0.0
  0
LINE
  5
177
330
70
100
AcDbEntity
  8
0
 62
    18
420
        0
370
    25
100
AcDbLine
 10
184.8948465690009
 20
81.25674248015632
 30
0.0
 11
185.7188465690013
 21
81.25674248015632
 31
0.0
  0
LINE
  5
178
330
70
100
AcDbEntity
  8
0
 62
    18
420
        0
370
    25
100
AcDbLine
 10
185.7188465690013
 20
81.25674248015632
 30
0.0
 11
185.7188465690013
 21
74.986442480156
 31
0.0
  0
LINE
  5
179
330
70
100
AcDbEntity
  8
0
 62
    18
420
        0
370
    25
100
AcDbLine
 10
185.7188465690013
 20
74.986442480156
 30
0.0
 11
187.4438465690011
 21
74.986442480156
 31
0.0
  0
LINE
  5
17A
330
70
100
AcDbEntity
  8
0
 62
    18
420
        0
370
    25
100
AcDbLine
 10
187.4438465690011
 20
74.986442480156
 30
0.0
 11
187.4438465690011
 21
73.78634248015643
 31
0.0
  0
LINE
  5
17B
330
70
100
AcDbEntity
  8
0
 62
    18
420
        0
370
    25
100
AcDbLine
 10
187.4438465690011
 20
73.78634248015643
 30
0.0
 11
190.7448465690007
 21
73.78634248015643
 31
0.0
  0
LINE
  5
17C
330
70
100
AcDbEntity
  8
0
 62
    18
420
        0
370
    25
100
AcDbLine
 10
190.7448465690007
 20
73.78634248015643
 30
0.0
 11
190.7448465690007
 21
74.986442480156
 31
0.0
  0
LINE
  5
17D
330
70
100
AcDbEntity
  8
0
 62
    18
420
        0
370
    25
100
AcDbLine
 10
190.7448465690007
 20
74.986442480156
 30
0.0
 11
192.4698465690011
 21
74.986442480156
 31
0.0
  0
LINE
  5
17E
330
70
100
AcDbEntity
  8
0
 62
    18
420
        0
370
    25
100
AcDbLine
 10
192.4698465690011
 20
74.986442480156
 30
0.0
 11
192.4698465690011
 21
79.45684248015641
 31
0.0
  0
LINE
  5
17F
330
70
100
AcDbEntity
  8
0
 62
    18
420
        0
370
    25
100
AcDbLine
 10
192.4698465690011
 20
79.45684248015641
 30
0.0
 11
193.9938465690012
 21
79.45684248015641
 31
0.0
  0
LINE
  5
180
330
70
100
AcDbEntity
  8
0
 62
    18
420
        0
370
    25
100
AcDbLine
 10
193.9938465690012
 20
79.45684248015641
 30
0.0
 11
193.9938465690012
 21
74.75644248015655
 31
0.0
  0
LINE
  5
181
330
70
100
AcDbEntity
  8
0
 62
    18
420
        0
370
    25
100
AcDbLine
 10
193.9938465690012
 20
74.75644248015655
 30
0.0
 11
207.9948465690008
 21
74.75644248015655
 31
0.0
  0
LINE
  5
182
330
70
100
AcDbEntity
  8
0
 62
    18
420
        0
370
    25
100
AcDbLine
 10
207.9948465690008
 20
74.75644248015655
 30
0.0
 11
207.9948465690008
 21
79.45684248015641
 31
0.0
  0
LINE
  5
183
330
70
100
AcDbEntity
  8
0
 62
    18
420
        0
370
    25
100
AcDbLine
 10
207.9948465690008
 20
79.45684248015641
 30
0.0
 11
209.5188465690009
 21
79.45684248015641
 31
0.0
  0
LINE
  5
184
330
70
100
AcDbEntity
  8
0
 62
    18
420
        0
370
    25
100
AcDbLine
 10
209.5188465690009
 20
79.45684248015641
 30
0.0
 11
209.5188465690009
 21
74.986442480156
 31
0.0
  0
LINE
  5
185
330
70
100
AcDbEntity
  8
0
 62
    18
420
        0
370
    25
100
AcDbLine
 10
209.5188465690009
 20
74.986442480156
 30
0.0
 11
211.2438465690013
 21
74.986442480156
 31
0.0
  0
LINE
  5
186
330
70
100
AcDbEntity
  8
0
 62
    18
420
        0
370
    25
100
AcDbLine
 10
211.2438465690013
 20
74.986442480156
 30
0.0
 11
211.2438465690013
 21
73.78634248015643
 31
0.0
  0
LINE
  5
187
330
70
100
AcDbEntity
  8
0
 62
    18
420
        0
370
    25
100
AcDbLine
 10
211.2438465690013
 20
73.78634248015643
 30
0.0
 11
214.5448465690009
 21
73.78634248015643
 31
0.0
  0
LINE
  5
188
330
70
100
AcDbEntity
  8
0
 62
    18
420
        0
370
    25
100
AcDbLine
 10
214.5448465690009
 20
73.78634248015643
 30
0.0
 11
214.5448465690009
 21
74.986442480156
 31
0.0
  0
LINE
  5
189
330
70
100
AcDbEntity
  8
0
 62
    18
420
        0
370
    25
100
AcDbLine
 10
214.5448465690009
 20
74.986442480156
 30
0.0
 11
216.2698465690007
 21
74.986442480156
 31
0.0
  0
LINE
  5
18A
330
70
100
AcDbEntity
  8
0
 62
    18
420
        0
370
    25
100
AcDbLine
 10
216.2698465690007
 20
74.986442480156
 30
0.0
 11
216.2698465690007
 21
81.25674248015632
 31
0.0
  0
LINE
  5
18B
330
70
100
AcDbEntity
  8
0
 62
    18
420
        0
370
    25
100
AcDbLine
 10
216.2698465690007
 20
81.25674248015632
 30
0.0
 11
217.0938465690011
 21
81.25674248015632
 31
0.0
  0
LINE
  5
18C
330
70
100
AcDbEntity
  8
0
 62
    18
420
        0
370
    25
100
AcDbLine
 10
217.0938465690011
 20
81.25674248015632
 30
0.0
 11
217.0938465690011
 21
84.05674248015641
 31
0.0
  0
LINE
  5
18D
330
70
100
AcDbEntity
  8
0
 62
    18
420
        0
370
    25
100
AcDbLine
 10
217.0938465690011
 20
84.05674248015641
 30
0.0
 11
216.2698465690007
 21
84.05674248015641
 31
0.0
  0
LINE
  5
18E
330
70
100
AcDbEntity
  8
0
 62
    18
420
        0
370
    25
100
AcDbLine
 10
216.2698465690007
 20
84.05674248015641
 30
0.0
 11
216.2698465690007
 21
87.2867424801563
 31
0.0
  0
LINE
  5
18F
330
70
100
AcDbEntity
  8
0
 62
    18
420
        0
370
    25
100
AcDbLine
 10
216.2698465690007
 20
87.2867424801563
 30
0.0
 11
209.5188465690009
 21
87.2867424801563
 31
0.0
  0
LINE
  5
190
330
70
100
AcDbEntity
  8
0
 62
    18
420
        0
370
    25
100
AcDbLine
 10
209.5188465690009
 20
87.2867424801563
 30
0.0
 11
209.5188465690009
 21
84.05674248015641
 31
0.0
  0
LINE
  5
191
330
70
100
AcDbEntity
  8
0
 62
    18
420
        0
370
    25
100
AcDbLine
 10
209.5188465690009
 20
84.05674248015641
 30
0.0
 11
207.9948465690008
 21
84.05674248015641
 31
0.0
  0
LINE
  5
192
330
70
100
AcDbEntity
  8
0
 62
    18
420
        0
370
    25
100
AcDbLine
 10
207.9948465690008
 20
84.05674248015641
 30
0.0
 11
207.9948465690008
 21
88.75714248015629
 31
0.0
  0
LINE
  5
193
330
70
100
AcDbEntity
  8
0
 62
    18
420
        0
370
    25
100
AcDbLine
 10
207.9948465690008
 20
88.75714248015629
 30
0.0
 11
193.9938465690012
 21
88.75714248015629
 31
0.0
  0
LINE
  5
194
330
70
100
AcDbEntity
  8
0
 62
    18
420
        0
370
    25
100
AcDbLine
 10
163.0378465690011
 20
88.75714248015629
 30
0.0
 11
177.0388465690007
 21
88.75714248015629
 31
0.0
  0
LINE
  5
195
330
70
100
AcDbEntity
  8
0
 62
    18
420
        0
370
    25
100
AcDbLine
 10
177.0388465690007
 20
88.75714248015629
 30
0.0
 11
177.0388465690007
 21
74.75644248015655
 31
0.0
  0
LINE
  5
196
330
70
100
AcDbEntity
  8
0
 62
    18
420
        0
370
    25
100
AcDbLine
 10
177.0388465690007
 20
74.75644248015655
 30
0.0
 11
163.0378465690011
 21
74.75644248015655
 31
0.0
  0
LINE
  5
197
330
70
100
AcDbEntity
  8
0
 62
    18
420
        0
370
    25
100
AcDbLine
 10
163.0378465690011
 20
74.75644248015655
 30
0.0
 11
163.0378465690011
 21
88.75714248015629
 31
0.0
  0
LINE
  5
198
330
70
100
AcDbEntity
  8
0
 62
    18
420
        0
370
    25
100
AcDbLine
 10
143.9878465690009
 20
88.75714248015629
 30
0.0
 11
157.9888465690012
 21
88.75714248015629
 31
0.0
  0
LINE
  5
199
330
70
100
AcDbEntity
  8
0
 62
    18
420
        0
370
    25
100
AcDbLine
 10
157.9888465690012
 20
88.75714248015629
 30
0.0
 11
157.9888465690012
 21
74.75644248015655
 31
0.0
  0
LINE
  5
19A
330
70
100
AcDbEntity
  8
0
 62
    18
420
        0
370
    25
100
AcDbLine
 10
157.9888465690012
 20
74.75644248015655
 30
0.0
 11
143.9878465690009
 21
74.75644248015655
 31
0.0
  0
LINE
  5
19B
330
70
100
AcDbEntity
  8
0
 62
    18
420
        0
370
    25
100
AcDbLine
 10
143.9878465690009
 20
74.75644248015655
 30
0.0
 11
143.9878465690009
 21
88.75714248015629
 31
0.0
  0
LINE
  5
19C
330
70
100
AcDbEntity
  8
0
 62
    18
420
        0
370
    25
100
AcDbLine
 10
124.9378465690007
 20
88.75714248015629
 30
0.0
 11
138.938846569001
 21
88.75714248015629
 31
0.0
  0
LINE
  5
19D
330
70
100
AcDbEntity
  8
0
 62
    18
420
        0
370
    25
100
AcDbLine
 10
138.938846569001
 20
88.75714248015629
 30
0.0
 11
138.938846569001
 21
74.75644248015655
 31
0.0
  0
LINE
  5
19E
330
70
100
AcDbEntity
  8
0
 62
    18
420
        0
370
    25
100
AcDbLine
 10
138.938846569001
 20
74.75644248015655
 30
0.0
 11
124.9378465690007
 21
74.75644248015655
 31
0.0
  0
LINE
  5
19F
330
70
100
AcDbEntity
  8
0
 62
    18
420
        0
370
    25
100
AcDbLine
 10
124.9378465690007
 20
74.75644248015655
 30
0.0
 11
124.9378465690007
 21
88.75714248015629
 31
0.0
  0
LINE
  5
1A0
330
70
100
AcDbEntity
  8
0
 62
    18
420
        0
370
    25
100
AcDbLine
 10
105.8878465690012
 20
88.75714248015629
 30
0.0
 11
119.8888465690008
 21
88.75714248015629
 31
0.0
  0
LINE
  5
1A1
330
70
100
AcDbEntity
  8
0
 62
    18
420
        0
370
    25
100
AcDbLine
 10
119.8888465690008
 20
88.75714248015629
 30
0.0
 11
119.8888465690008
 21
74.75644248015655
 31
0.0
  0
LINE
  5
1A2
330
70
100
AcDbEntity
  8
0
 62
    18
420
        0
370
    25
100
AcDbLine
 10
119.8888465690008
 20
74.75644248015655
 30
0.0
 11
105.8878465690012
 21
74.75644248015655
 31
0.0
  0
LINE
  5
1A3
330
70
100
AcDbEntity
  8
0
 62
    18
420
        0
370
    25
100
AcDbLine
 10
105.8878465690012
 20
74.75644248015655
 30
0.0
 11
105.8878465690012
 21
88.75714248015629
 31
0.0
  0
LINE
  5
1A4
330
70
100
AcDbEntity
  8
0
 62
    18
420
        0
370
    25
100
AcDbLine
 10
86.83784656900103
 20
88.75714248015629
 30
0.0
 11
100.8388465690013
 21
88.75714248015629
 31
0.0
  0
LINE
  5
1A5
330
70
100
AcDbEntity
  8
0
 62
    18
420
        0
370
    25
100
AcDbLine
 10
100.8388465690013
 20
88.75714248015629
 30
0.0
 11
100.8388465690013
 21
74.75644248015655
 31
0.0
  0
LINE
  5
1A6
330
70
100
AcDbEntity
  8
0
 62
    18
420
        0
370
    25
100
AcDbLine
 10
100.8388465690013
 20
74.75644248015655
 30
0.0
 11
86.83784656900103
 21
74.75644248015655
 31
0.0
  0
LINE
  5
1A7
330
70
100
AcDbEntity
  8
0
 62
    18
420
        0
370
    25
100
AcDbLine
 10
86.83784656900103
 20
74.75644248015655
 30
0.0
 11
86.83784656900103
 21
88.75714248015629
 31
0.0
  0
LINE
  5
1A8
330
70
100
AcDbEntity
  8
0
 62
    18
420
        0
370
    25
100
AcDbLine
 10
67.78784656900149
 20
88.75714248015629
 30
0.0
 11
81.78884656900107
 21
88.75714248015629
 31
0.0
  0
LINE
  5
1A9
330
70
100
AcDbEntity
  8
0
 62
    18
420
        0
370
    25
100
AcDbLine
 10
81.78884656900107
 20
88.75714248015629
 30
0.0
 11
81.78884656900107
 21
74.75644248015655
 31
0.0
  0
LINE
  5
1AA
330
70
100
AcDbEntity
  8
0
 62
    18
420
        0
370
    25
100
AcDbLine
 10
81.78884656900107
 20
74.75644248015655
 30
0.0
 11
67.78784656900149
 21
74.75644248015655
 31
0.0
  0
LINE
  5
1AB
330
70
100
AcDbEntity
  8
0
 62
    18
420
        0
370
    25
100
AcDbLine
 10
67.78784656900149
 20
74.75644248015655
 30
0.0
 11
67.78784656900149
 21
88.75714248015629
 31
0.0
  0
LINE
  5
1AC
330
70
100
AcDbEntity
  8
0
 62
    18
420
        0
370
    25
100
AcDbLine
 10
48.73784656900097
 20
88.75714248015629
 30
0.0
 11
62.73884656900089
 21
88.75714248015629
 31
0.0
  0
LINE
  5
1AD
330
70
100
AcDbEntity
  8
0
 62
    18
420
        0
370
    25
100
AcDbLine
 10
62.73884656900089
 20
88.75714248015629
 30
0.0
 11
62.73884656900089
 21
74.75644248015655
 31
0.0
  0
LINE
  5
1AE
330
70
100
AcDbEntity
  8
0
 62
    18
420
        0
370
    25
100
AcDbLine
 10
62.73884656900089
 20
74.75644248015655
 30
0.0
 11
48.73784656900097
 21
74.75644248015655
 31
0.0
  0
LINE
  5
1AF
330
70
100
AcDbEntity
  8
0
 62
    18
420
        0
370
    25
100
AcDbLine
 10
48.73784656900097
 20
74.75644248015655
 30
0.0
 11
48.73784656900097
 21
88.75714248015629
 31
0.0
  0
LINE
  5
1B0
330
70
100
AcDbEntity
  8
0
 62
    18
420
        0
370
    25
100
AcDbLine
 10
29.6878465690011
 20
88.75714248015629
 30
0.0
 11
43.68884656900102
 21
88.75714248015629
 31
0.0
  0
LINE
  5
1B1
330
70
100
AcDbEntity
  8
0
 62
    18
420
        0
370
    25
100
AcDbLine
 10
43.68884656900102
 20
88.75714248015629
 30
0.0
 11
43.68884656900102
 21
74.75644248015655
 31
0.0
  0
LINE
  5
1B2
330
70
100
AcDbEntity
  8
0
 62
    18
420
        0
370
    25
100
AcDbLine
 10
43.68884656900102
 20
74.75644248015655
 30
0.0
 11
29.6878465690011
 21
74.75644248015655
 31
0.0
  0
LINE
  5
1B3
330
70
100
AcDbEntity
  8
0
 62
    18
420
        0
370
    25
100
AcDbLine
 10
29.6878465690011
 20
74.75644248015655
 30
0.0
 11
29.6878465690011
 21
88.75714248015629
 31
0.0
  0
LINE
  5
1B4
330
70
100
AcDbEntity
  8
0
 62
    18
420
        0
370
    25
100
AcDbLine
 10
10.63784656900091
 20
88.75714248015629
 30
0.0
 11
24.63884656900115
 21
88.75714248015629
 31
0.0
  0
LINE
  5
1B5
330
70
100
AcDbEntity
  8
0
 62
    18
420
        0
370
    25
100
AcDbLine
 10
24.63884656900115
 20
88.75714248015629
 30
0.0
 11
24.63884656900115
 21
74.75644248015655
 31
0.0
  0
LINE
  5
1B6
330
70
100
AcDbEntity
  8
0
 62
    18
420
        0
370
    25
100
AcDbLine
 10
24.63884656900115
 20
74.75644248015655
 30
0.0
 11
10.63784656900091
 21
74.75644248015655
 31
0.0
  0
LINE
  5
1B7
330
70
100
AcDbEntity
  8
0
 62
    18
420
        0
370
    25
100
AcDbLine
 10
10.63784656900091
 20
74.75644248015655
 30
0.0
 11
10.63784656900091
 21
88.75714248015629
 31
0.0
  0
LINE
  5
1B8
330
70
100
AcDbEntity
  8
0
 62
    18
420
        0
370
    25
100
AcDbLine
 10
-8.412153430998957
 20
88.75714248015629
 30
0.0
 11
5.588546569001102
 21
88.75714248015629
 31
0.0
  0
LINE
  5
1B9
330
70
100
AcDbEntity
  8
0
 62
    18
420
        0
370
    25
100
AcDbLine
 10
5.588546569001102
 20
88.75714248015629
 30
0.0
 11
5.588546569001102
 21
74.75644248015655
 31
0.0
  0
LINE
  5
1BA
330
70
100
AcDbEntity
  8
0
 62
    18
420
        0
370
    25
100
AcDbLine
 10
5.588546569001102
 20
74.75644248015655
 30
0.0
 11
-8.412153430998957
 21
74.75644248015655
 31
0.0
  0
LINE
  5
1BB
330
70
100
AcDbEntity
  8
0
 62
    18
420
        0
370
    25
100
AcDbLine
 10
-8.412153430998957
 20
74.75644248015655
 30
0.0
 11
-8.412153430998957
 21
88.75714248015629
 31
0.0
  0
LINE
  5
1BC
330
70
100
AcDbEntity
  8
0
 62
    18
420
        0
370
    25
100
AcDbLine
 10
-27.46215343099883
 20
88.75714248015629
 30
0.0
 11
-13.46145343099909
 21
88.75714248015629
 31
0.0
  0
LINE
  5
1BD
330
70
100
AcDbEntity
  8
0
 62
    18
420
        0
370
    25
100
AcDbLine
 10
-13.46145343099909
 20
88.75714248015629
 30
0.0
 11
-13.46145343099909
 21
74.75644248015655
 31
0.0
  0
LINE
  5
1BE
330
70
100
AcDbEntity
  8
0
 62
    18
420
        0
370
    25
100
AcDbLine
 10
-13.46145343099909
 20
74.75644248015655
 30
0.0
 11
-27.46215343099883
 21
74.75644248015655
 31
0.0
  0
LINE
  5
1BF
330
70
100
AcDbEntity
  8
0
 62
    18
420
        0
370
    25
100
AcDbLine
 10
-27.46215343099883
 20
74.75644248015655
 30
0.0
 11
-27.46215343099883
 21
88.75714248015629
 31
0.0
  0
LINE
  5
1C0
330
70
100
AcDbEntity
  8
0
 62
    18
420
        0
370
    25
100
AcDbLine
 10
-53.65595343099901
 20
88.75714248015629
 30
0.0
 11
-39.65525343099896
 21
88.75714248015629
 31
0.0
  0
LINE
  5
1C1
330
70
100
AcDbEntity
  8
0
 62
    18
420
        0
370
    25
100
AcDbLine
 10
-39.65525343099896
 20
88.75714248015629
 30
0.0
 11
-39.65525343099896
 21
74.75644248015655
 31
0.0
  0
LINE
  5
1C2
330
70
100
AcDbEntity
  8
0
 62
    18
420
        0
370
    25
100
AcDbLine
 10
-39.65525343099896
 20
74.75644248015655
 30
0.0
 11
-53.65595343099901
 21
74.75644248015655
 31
0.0
  0
LINE
  5
1C3
330
70
100
AcDbEntity
  8
0
 62
    18
420
        0
370
    25
100
AcDbLine
 10
-53.65595343099901
 20
74.75644248015655
 30
0.0
 11
-53.65595343099901
 21
88.75714248015629
 31
0.0
  0
LINE
  5
1C4
330
70
100
AcDbEntity
  8
0
 62
    18
420
        0
370
    25
100
AcDbLine
 10
-84.61224343099884
 20
88.75714248015629
 30
0.0
 11
-70.61135343099884
 21
88.75714248015629
 31
0.0
  0
LINE
  5
1C5
330
70
100
AcDbEntity
  8
0
 62
    18
420
        0
370
    25
100
AcDbLine
 10
-70.61135343099884
 20
88.75714248015629
 30
0.0
 11
-70.61135343099884
 21
74.75644248015655
 31
0.0
  0
LINE
  5
1C6
330
70
100
AcDbEntity
  8
0
 62
    18
420
        0
370
    25
100
AcDbLine
 10
-70.61135343099884
 20
74.75644248015655
 30
0.0
 11
-84.61224343099884
 21
74.75644248015655
 31
0.0
  0
LINE
  5
1C7
330
70
100
AcDbEntity
  8
0
 62
    18
420
        0
370
    25
100
AcDbLine
 10
-84.61224343099884
 20
74.75644248015655
 30
0.0
 11
-84.61224343099884
 21
88.75714248015629
 31
0.0
  0
LINE
  5
1C8
330
70
100
AcDbEntity
  8
0
 62
    18
420
        0
370
    25
100
AcDbLine
 10
201.1378465690009
 20
107.8071424801561
 30
0.0
 11
215.1388465690011
 21
107.8071424801561
 31
0.0
  0
LINE
  5
1C9
330
70
100
AcDbEntity
  8
0
 62
    18
420
        0
370
    25
100
AcDbLine
 10
215.1388465690011
 20
107.8071424801561
 30
0.0
 11
215.1388465690011
 21
93.8064424801561
 31
0.0
  0
LINE
  5
1CA
330
70
100
AcDbEntity
  8
0
 62
    18
420
        0
370
    25
100
AcDbLine
 10
215.1388465690011
 20
93.8064424801561
 30
0.0
 11
201.1378465690009
 21
93.8064424801561
 31
0.0
  0
LINE
  5
1CB
330
70
100
AcDbEntity
  8
0
 62
    18
420
        0
370
    25
100
AcDbLine
 10
201.1378465690009
 20
93.8064424801561
 30
0.0
 11
201.1378465690009
 21
107.8071424801561
 31
0.0
  0
LINE
  5
1CC
330
70
100
AcDbEntity
  8
0
 62
    18
420
        0
370
    25
100
AcDbLine
 10
177.3248465690008
 20
107.8071424801561
 30
0.0
 11
191.3248465690013
 21
107.8071424801561
 31
0.0
  0
LINE
  5
1CD
330
70
100
AcDbEntity
  8
0
 62
    18
420
        0
370
    25
100
AcDbLine
 10
191.3248465690013
 20
107.8071424801561
 30
0.0
 11
191.3248465690013
 21
93.8064424801561
 31
0.0
  0
LINE
  5
1CE
330
70
100
AcDbEntity
  8
0
 62
    18
420
        0
370
    25
100
AcDbLine
 10
191.3248465690013
 20
93.8064424801561
 30
0.0
 11
177.3248465690008
 21
93.8064424801561
 31
0.0
  0
LINE
  5
1CF
330
70
100
AcDbEntity
  8
0
 62
    18
420
        0
370
    25
100
AcDbLine
 10
177.3248465690008
 20
93.8064424801561
 30
0.0
 11
177.3248465690008
 21
107.8071424801561
 31
0.0
  0
LINE
  5
1D0
330
70
100
AcDbEntity
  8
0
 62
    18
420
        0
370
    25
100
AcDbLine
 10
158.2748465690012
 20
107.8071424801561
 30
0.0
 11
172.2748465690011
 21
107.8071424801561
 31
0.0
  0
LINE
  5
1D1
330
70
100
AcDbEntity
  8
0
 62
    18
420
        0
370
    25
100
AcDbLine
 10
172.2748465690011
 20
107.8071424801561
 30
0.0
 11
172.2748465690011
 21
93.8064424801561
 31
0.0
  0
LINE
  5
1D2
330
70
100
AcDbEntity
  8
0
 62
    18
420
        0
370
    25
100
AcDbLine
 10
172.2748465690011
 20
93.8064424801561
 30
0.0
 11
158.2748465690012
 21
93.8064424801561
 31
0.0
  0
LINE
  5
1D3
330
70
100
AcDbEntity
  8
0
 62
    18
420
        0
370
    25
100
AcDbLine
 10
158.2748465690012
 20
93.8064424801561
 30
0.0
 11
158.2748465690012
 21
107.8071424801561
 31
0.0
  0
LINE
  5
1D4
330
70
100
AcDbEntity
  8
0
 62
    18
420
        0
370
    25
100
AcDbLine
 10
139.224846569001
 20
107.8071424801561
 30
0.0
 11
153.2248465690009
 21
107.8071424801561
 31
0.0
  0
LINE
  5
1D5
330
70
100
AcDbEntity
  8
0
 62
    18
420
        0
370
    25
100
AcDbLine
 10
153.2248465690009
 20
107.8071424801561
 30
0.0
 11
153.2248465690009
 21
93.8064424801561
 31
0.0
  0
LINE
  5
1D6
330
70
100
AcDbEntity
  8
0
 62
    18
420
        0
370
    25
100
AcDbLine
 10
153.2248465690009
 20
93.8064424801561
 30
0.0
 11
139.224846569001
 21
93.8064424801561
 31
0.0
  0
LINE
  5
1D7
330
70
100
AcDbEntity
  8
0
 62
    18
420
        0
370
    25
100
AcDbLine
 10
139.224846569001
 20
93.8064424801561
 30
0.0
 11
139.224846569001
 21
107.8071424801561
 31
0.0
  0
LINE
  5
1D8
330
70
100
AcDbEntity
  8
0
 62
    18
420
        0
370
    25
100
AcDbLine
 10
120.1748465690008
 20
107.8071424801561
 30
0.0
 11
134.1748465690007
 21
107.8071424801561
 31
0.0
  0
LINE
  5
1D9
330
70
100
AcDbEntity
  8
0
 62
    18
420
        0
370
    25
100
AcDbLine
 10
134.1748465690007
 20
107.8071424801561
 30
0.0
 11
134.1748465690007
 21
93.8064424801561
 31
0.0
  0
LINE
  5
1DA
330
70
100
AcDbEntity
  8
0
 62
    18
420
        0
370
    25
100
AcDbLine
 10
134.1748465690007
 20
93.8064424801561
 30
0.0
 11
120.1748465690008
 21
93.8064424801561
 31
0.0
  0
LINE
  5
1DB
330
70
100
AcDbEntity
  8
0
 62
    18
420
        0
370
    25
100
AcDbLine
 10
120.1748465690008
 20
93.8064424801561
 30
0.0
 11
120.1748465690008
 21
107.8071424801561
 31
0.0
  0
LINE
  5
1DC
330
70
100
AcDbEntity
  8
0
 62
    18
420
        0
370
    25
100
AcDbLine
 10
101.1248465690013
 20
107.8071424801561
 30
0.0
 11
115.1248465690011
 21
107.8071424801561
 31
0.0
  0
LINE
  5
1DD
330
70
100
AcDbEntity
  8
0
 62
    18
420
        0
370
    25
100
AcDbLine
 10
115.1248465690011
 20
107.8071424801561
 30
0.0
 11
115.1248465690011
 21
93.8064424801561
 31
0.0
  0
LINE
  5
1DE
330
70
100
AcDbEntity
  8
0
 62
    18
420
        0
370
    25
100
AcDbLine
 10
115.1248465690011
 20
93.8064424801561
 30
0.0
 11
101.1248465690013
 21
93.8064424801561
 31
0.0
  0
LINE
  5
1DF
330
70
100
AcDbEntity
  8
0
 62
    18
420
        0
370
    25
100
AcDbLine
 10
101.1248465690013
 20
93.8064424801561
 30
0.0
 11
101.1248465690013
 21
107.8071424801561
 31
0.0
  0
LINE
  5
1E0
330
70
100
AcDbEntity
  8
0
 62
    18
420
        0
370
    25
100
AcDbLine
 10
82.07484656900112
 20
107.8071424801561
 30
0.0
 11
96.07484656900098
 21
107.8071424801561
 31
0.0
  0
LINE
  5
1E1
330
70
100
AcDbEntity
  8
0
 62
    18
420
        0
370
    25
100
AcDbLine
 10
96.07484656900098
 20
107.8071424801561
 30
0.0
 11
96.07484656900098
 21
93.8064424801561
 31
0.0
  0
LINE
  5
1E2
330
70
100
AcDbEntity
  8
0
 62
    18
420
        0
370
    25
100
AcDbLine
 10
96.07484656900098
 20
93.8064424801561
 30
0.0
 11
82.07484656900112
 21
93.8064424801561
 31
0.0
  0
LINE
  5
1E3
330
70
100
AcDbEntity
  8
0
 62
    18
420
        0
370
    25
100
AcDbLine
 10
82.07484656900112
 20
93.8064424801561
 30
0.0
 11
82.07484656900112
 21
107.8071424801561
 31
0.0
  0
LINE
  5
1E4
330
70
100
AcDbEntity
  8
0
 62
    18
420
        0
370
    25
100
AcDbLine
 10
63.02484656900092
 20
107.8071424801561
 30
0.0
 11
77.0248465690011
 21
107.8071424801561
 31
0.0
  0
LINE
  5
1E5
330
70
100
AcDbEntity
  8
0
 62
    18
420
        0
370
    25
100
AcDbLine
 10
77.0248465690011
 20
107.8071424801561
 30
0.0
 11
77.0248465690011
 21
93.8064424801561
 31
0.0
  0
LINE
  5
1E6
330
70
100
AcDbEntity
  8
0
 62
    18
420
        0
370
    25
100
AcDbLine
 10
77.0248465690011
 20
93.8064424801561
 30
0.0
 11
63.02484656900092
 21
93.8064424801561
 31
0.0
  0
LINE
  5
1E7
330
70
100
AcDbEntity
  8
0
 62
    18
420
        0
370
    25
100
AcDbLine
 10
63.02484656900092
 20
93.8064424801561
 30
0.0
 11
63.02484656900092
 21
107.8071424801561
 31
0.0
  0
LINE
  5
1E8
330
70
100
AcDbEntity
  8
0
 62
    18
420
        0
370
    25
100
AcDbLine
 10
43.97484656900105
 20
107.8071424801561
 30
0.0
 11
57.9748465690009
 21
107.8071424801561
 31
0.0
  0
LINE
  5
1E9
330
70
100
AcDbEntity
  8
0
 62
    18
420
        0
370
    25
100
AcDbLine
 10
57.9748465690009
 20
107.8071424801561
 30
0.0
 11
57.9748465690009
 21
93.8064424801561
 31
0.0
  0
LINE
  5
1EA
330
70
100
AcDbEntity
  8
0
 62
    18
420
        0
370
    25
100
AcDbLine
 10
57.9748465690009
 20
93.8064424801561
 30
0.0
 11
43.97484656900105
 21
93.8064424801561
 31
0.0
  0
LINE
  5
1EB
330
70
100
AcDbEntity
  8
0
 62
    18
420
        0
370
    25
100
AcDbLine
 10
43.97484656900105
 20
93.8064424801561
 30
0.0
 11
43.97484656900105
 21
107.8071424801561
 31
0.0
  0
LINE
  5
1EC
330
70
100
AcDbEntity
  8
0
 62
    18
420
        0
370
    25
100
AcDbLine
 10
24.92484656900118
 20
107.8071424801561
 30
0.0
 11
38.92484656900104
 21
107.8071424801561
 31
0.0
  0
LINE
  5
1ED
330
70
100
AcDbEntity
  8
0
 62
    18
420
        0
370
    25
100
AcDbLine
 10
38.92484656900104
 20
107.8071424801561
 30
0.0
 11
38.92484656900104
 21
93.8064424801561
 31
0.0
  0
LINE
  5
1EE
330
70
100
AcDbEntity
  8
0
 62
    18
420
        0
370
    25
100
AcDbLine
 10
38.92484656900104
 20
93.8064424801561
 30
0.0
 11
24.92484656900118
 21
93.8064424801561
 31
0.0
  0
LINE
  5
1EF
330
70
100
AcDbEntity
  8
0
 62
    18
420
        0
370
    25
100
AcDbLine
 10
24.92484656900118
 20
93.8064424801561
 30
0.0
 11
24.92484656900118
 21
107.8071424801561
 31
0.0
  0
LINE
  5
1F0
330
70
100
AcDbEntity
  8
0
 62
    18
420
        0
370
    25
100
AcDbLine
 10
5.875346569001186
 20
107.8071424801561
 30
0.0
 11
19.87484656900116
 21
107.8071424801561
 31
0.0
  0
LINE
  5
1F1
330
70
100
AcDbEntity
  8
0
 62
    18
420
        0
370
    25
100
AcDbLine
 10
19.87484656900116
 20
107.8071424801561
 30
0.0
 11
19.87484656900116
 21
93.8064424801561
 31
0.0
  0
LINE
  5
1F2
330
70
100
AcDbEntity
  8
0
 62
    18
420
        0
370
    25
100
AcDbLine
 10
19.87484656900116
 20
93.8064424801561
 30
0.0
 11
5.875346569001186
 21
93.8064424801561
 31
0.0
  0
LINE
  5
1F3
330
70
100
AcDbEntity
  8
0
 62
    18
420
        0
370
    25
100
AcDbLine
 10
5.875346569001186
 20
93.8064424801561
 30
0.0
 11
5.875346569001186
 21
107.8071424801561
 31
0.0
  0
LINE
  5
1F4
330
70
100
AcDbEntity
  8
0
 62
    18
420
        0
370
    25
100
AcDbLine
 10
-13.174653430999
 20
107.8071424801561
 30
0.0
 11
0.8246465690009603
 21
107.8071424801561
 31
0.0
  0
LINE
  5
1F5
330
70
100
AcDbEntity
  8
0
 62
    18
420
        0
370
    25
100
AcDbLine
 10
0.8246465690009603
 20
107.8071424801561
 30
0.0
 11
0.8246465690009603
 21
93.8064424801561
 31
0.0
  0
LINE
  5
1F6
330
70
100
AcDbEntity
  8
0
 62
    18
420
        0
370
    25
100
AcDbLine
 10
0.8246465690009603
 20
93.8064424801561
 30
0.0
 11
-13.174653430999
 21
93.8064424801561
 31
0.0
  0
LINE
  5
1F7
330
70
100
AcDbEntity
  8
0
 62
    18
420
        0
370
    25
100
AcDbLine
 10
-13.174653430999
 20
93.8064424801561
 30
0.0
 11
-13.174653430999
 21
107.8071424801561
 31
0.0
  0
LINE
  5
1F8
330
70
100
AcDbEntity
  8
0
 62
    18
420
        0
370
    25
100
AcDbLine
 10
-32.22465343099888
 20
107.8071424801561
 30
0.0
 11
-18.22535343099891
 21
107.8071424801561
 31
0.0
  0
LINE
  5
1F9
330
70
100
AcDbEntity
  8
0
 62
    18
420
        0
370
    25
100
AcDbLine
 10
-18.22535343099891
 20
107.8071424801561
 30
0.0
 11
-18.22535343099891
 21
93.8064424801561
 31
0.0
  0
LINE
  5
1FA
330
70
100
AcDbEntity
  8
0
 62
    18
420
        0
370
    25
100
AcDbLine
 10
-18.22535343099891
 20
93.8064424801561
 30
0.0
 11
-32.22465343099888
 21
93.8064424801561
 31
0.0
  0
LINE
  5
1FB
330
70
100
AcDbEntity
  8
0
 62
    18
420
        0
370
    25
100
AcDbLine
 10
-32.22465343099888
 20
93.8064424801561
 30
0.0
 11
-32.22465343099888
 21
107.8071424801561
 31
0.0
  0
LINE
  5
1FC
330
70
100
AcDbEntity
  8
0
 62
    18
420
        0
370
    25
100
AcDbLine
 10
-56.03725343099895
 20
107.8071424801561
 30
0.0
 11
-42.03645343099905
 21
107.8071424801561
 31
0.0
  0
LINE
  5
1FD
330
70
100
AcDbEntity
  8
0
 62
    18
420
        0
370
    25
100
AcDbLine
 10
-42.03645343099905
 20
107.8071424801561
 30
0.0
 11
-42.03645343099905
 21
93.8064424801561
 31
0.0
  0
LINE
  5
1FE
330
70
100
AcDbEntity
  8
0
 62
    18
420
        0
370
    25
100
AcDbLine
 10
-42.03645343099905
 20
93.8064424801561
 30
0.0
 11
-56.03725343099895
 21
93.8064424801561
 31
0.0
  0
LINE
  5
1FF
330
70
100
AcDbEntity
  8
0
 62
    18
420
        0
370
    25
100
AcDbLine
 10
-56.03725343099895
 20
93.8064424801561
 30
0.0
 11
-56.03725343099895
 21
107.8071424801561
 31
0.0
  0
LINE
  5
200
330
70
100
AcDbEntity
  8
0
 62
    18
420
        0
370
    25
100
AcDbLine
 10
-84.61224343099884
 20
107.8071424801561
 30
0.0
 11
-70.61135343099884
 21
107.8071424801561
 31
0.0
  0
LINE
  5
201
330
70
100
AcDbEntity
  8
0
 62
    18
420
        0
370
    25
100
AcDbLine
 10
-70.61135343099884
 20
107.8071424801561
 30
0.0
 11
-70.61135343099884
 21
93.8064424801561
 31
0.0
  0
LINE
  5
202
330
70
100
AcDbEntity
  8
0
 62
    18
420
        0
370
    25
100
AcDbLine
 10
-70.61135343099884
 20
93.8064424801561
 30
0.0
 11
-84.61224343099884
 21
93.8064424801561
 31
0.0
  0
LINE
  5
203
330
70
100
AcDbEntity
  8
0
 62
    18
420
        0
370
    25
100
AcDbLine
 10
-84.61224343099884
 20
93.8064424801561
 30
0.0
 11
-84.61224343099884
 21
107.8071424801561
 31
0.0
  0
LINE
  5
204
330
70
100
AcDbEntity
  8
0
 62
    18
420
        0
370
    25
100
AcDbLine
 10
196.3748465690009
 20
126.8573424801563
 30
0.0
 11
196.3748465690009
 21
122.1567424801561
 31
0.0
  0
LINE
  5
205
330
70
100
AcDbEntity
  8
0
 62
    18
420
        0
370
    25
100
AcDbLine
 10
196.3748465690009
 20
122.1567424801561
 30
0.0
 11
194.8498465690011
 21
122.1567424801561
 31
0.0
  0
LINE
  5
206
330
70
100
AcDbEntity
  8
0
 62
    18
420
        0
370
    25
100
AcDbLine
 10
194.8498465690011
 20
122.1567424801561
 30
0.0
 11
194.8498465690011
 21
125.3867424801563
 31
0.0
  0
LINE
  5
207
330
70
100
AcDbEntity
  8
0
 62
    18
420
        0
370
    25
100
AcDbLine
 10
194.8498465690011
 20
125.3867424801563
 30
0.0
 11
188.099846569001
 21
125.3867424801563
 31
0.0
  0
LINE
  5
208
330
70
100
AcDbEntity
  8
0
 62
    18
420
        0
370
    25
100
AcDbLine
 10
188.099846569001
 20
125.3867424801563
 30
0.0
 11
188.099846569001
 21
122.1567424801561
 31
0.0
  0
LINE
  5
209
330
70
100
AcDbEntity
  8
0
 62
    18
420
        0
370
    25
100
AcDbLine
 10
188.099846569001
 20
122.1567424801561
 30
0.0
 11
187.2748465690009
 21
122.1567424801561
 31
0.0
  0
LINE
  5
20A
330
70
100
AcDbEntity
  8
0
 62
    18
420
        0
370
    25
100
AcDbLine
 10
187.2748465690009
 20
122.1567424801561
 30
0.0
 11
187.2748465690009
 21
119.3567424801563
 31
0.0
  0
LINE
  5
20B
330
70
100
AcDbEntity
  8
0
 62
    18
420
        0
370
    25
100
AcDbLine
 10
187.2748465690009
 20
119.3567424801563
 30
0.0
 11
188.099846569001
 21
119.3567424801563
 31
0.0
  0
LINE
  5
20C
330
70
100
AcDbEntity
  8
0
 62
    18
420
        0
370
    25
100
AcDbLine
 10
188.099846569001
 20
119.3567424801563
 30
0.0
 11
188.099846569001
 21
113.0864424801564
 31
0.0
  0
LINE
  5
20D
330
70
100
AcDbEntity
  8
0
 62
    18
420
        0
370
    25
100
AcDbLine
 10
188.099846569001
 20
113.0864424801564
 30
0.0
 11
189.8248465690009
 21
113.0864424801564
 31
0.0
  0
LINE
  5
20E
330
70
100
AcDbEntity
  8
0
 62
    18
420
        0
370
    25
100
AcDbLine
 10
189.8248465690009
 20
113.0864424801564
 30
0.0
 11
189.8248465690009
 21
111.8863424801562
 31
0.0
  0
LINE
  5
20F
330
70
100
AcDbEntity
  8
0
 62
    18
420
        0
370
    25
100
AcDbLine
 10
189.8248465690009
 20
111.8863424801562
 30
0.0
 11
193.1258465690011
 21
111.8863424801562
 31
0.0
  0
LINE
  5
210
330
70
100
AcDbEntity
  8
0
 62
    18
420
        0
370
    25
100
AcDbLine
 10
193.1258465690011
 20
111.8863424801562
 30
0.0
 11
193.1258465690011
 21
113.0864424801564
 31
0.0
  0
LINE
  5
211
330
70
100
AcDbEntity
  8
0
 62
    18
420
        0
370
    25
100
AcDbLine
 10
193.1258465690011
 20
113.0864424801564
 30
0.0
 11
194.8498465690011
 21
113.0864424801564
 31
0.0
  0
LINE
  5
212
330
70
100
AcDbEntity
  8
0
 62
    18
420
        0
370
    25
100
AcDbLine
 10
194.8498465690011
 20
113.0864424801564
 30
0.0
 11
194.8498465690011
 21
117.5568424801561
 31
0.0
  0
LINE
  5
213
330
70
100
AcDbEntity
  8
0
 62
    18
420
        0
370
    25
100
AcDbLine
 10
194.8498465690011
 20
117.5568424801561
 30
0.0
 11
196.3748465690009
 21
117.5568424801561
 31
0.0
  0
LINE
  5
214
330
70
100
AcDbEntity
  8
0
 62
    18
420
        0
370
    25
100
AcDbLine
 10
196.3748465690009
 20
117.5568424801561
 30
0.0
 11
196.3748465690009
 21
112.8564424801563
 31
0.0
  0
LINE
  5
215
330
70
100
AcDbEntity
  8
0
 62
    18
420
        0
370
    25
100
AcDbLine
 10
196.3748465690009
 20
112.8564424801563
 30
0.0
 11
210.3748465690008
 21
112.8564424801563
 31
0.0
  0
LINE
  5
216
330
70
100
AcDbEntity
  8
0
 62
    18
420
        0
370
    25
100
AcDbLine
 10
210.3748465690008
 20
112.8564424801563
 30
0.0
 11
210.3748465690008
 21
117.5568424801561
 31
0.0
  0
LINE
  5
217
330
70
100
AcDbEntity
  8
0
 62
    18
420
        0
370
    25
100
AcDbLine
 10
210.3748465690008
 20
117.5568424801561
 30
0.0
 11
211.9008465690011
 21
117.5568424801561
 31
0.0
  0
LINE
  5
218
330
70
100
AcDbEntity
  8
0
 62
    18
420
        0
370
    25
100
AcDbLine
 10
211.9008465690011
 20
117.5568424801561
 30
0.0
 11
211.9008465690011
 21
113.0864424801564
 31
0.0
  0
LINE
  5
219
330
70
100
AcDbEntity
  8
0
 62
    18
420
        0
370
    25
100
AcDbLine
 10
211.9008465690011
 20
113.0864424801564
 30
0.0
 11
213.6258465690008
 21
113.0864424801564
 31
0.0
  0
LINE
  5
21A
330
70
100
AcDbEntity
  8
0
 62
    18
420
        0
370
    25
100
AcDbLine
 10
213.6258465690008
 20
113.0864424801564
 30
0.0
 11
213.6258465690008
 21
111.8863424801562
 31
0.0
  0
LINE
  5
21B
330
70
100
AcDbEntity
  8
0
 62
    18
420
        0
370
    25
100
AcDbLine
 10
213.6258465690008
 20
111.8863424801562
 30
0.0
 11
216.9258465690013
 21
111.8863424801562
 31
0.0
  0
LINE
  5
21C
330
70
100
AcDbEntity
  8
0
 62
    18
420
        0
370
    25
100
AcDbLine
 10
216.9258465690013
 20
111.8863424801562
 30
0.0
 11
216.9258465690013
 21
113.0864424801564
 31
0.0
  0
LINE
  5
21D
330
70
100
AcDbEntity
  8
0
 62
    18
420
        0
370
    25
100
AcDbLine
 10
216.9258465690013
 20
113.0864424801564
 30
0.0
 11
218.6498465690007
 21
113.0864424801564
 31
0.0
  0
LINE
  5
21E
330
70
100
AcDbEntity
  8
0
 62
    18
420
        0
370
    25
100
AcDbLine
 10
218.6498465690007
 20
113.0864424801564
 30
0.0
 11
218.6498465690007
 21
119.3567424801563
 31
0.0
  0
LINE
  5
21F
330
70
100
AcDbEntity
  8
0
 62
    18
420
        0
370
    25
100
AcDbLine
 10
218.6498465690007
 20
119.3567424801563
 30
0.0
 11
219.4748465690008
 21
119.3567424801563
 31
0.0
  0
LINE
  5
220
330
70
100
AcDbEntity
  8
0
 62
    18
420
        0
370
    25
100
AcDbLine
 10
219.4748465690008
 20
119.3567424801563
 30
0.0
 11
219.4748465690008
 21
122.1567424801561
 31
0.0
  0
LINE
  5
221
330
70
100
AcDbEntity
  8
0
 62
    18
420
        0
370
    25
100
AcDbLine
 10
219.4748465690008
 20
122.1567424801561
 30
0.0
 11
218.6498465690007
 21
122.1567424801561
 31
0.0
  0
LINE
  5
222
330
70
100
AcDbEntity
  8
0
 62
    18
420
        0
370
    25
100
AcDbLine
 10
218.6498465690007
 20
122.1567424801561
 30
0.0
 11
218.6498465690007
 21
125.3867424801563
 31
0.0
  0
LINE
  5
223
330
70
100
AcDbEntity
  8
0
 62
    18
420
        0
370
    25
100
AcDbLine
 10
218.6498465690007
 20
125.3867424801563
 30
0.0
 11
211.9008465690011
 21
125.3867424801563
 31
0.0
  0
LINE
  5
224
330
70
100
AcDbEntity
  8
0
 62
    18
420
        0
370
    25
100
AcDbLine
 10
211.9008465690011
 20
125.3867424801563
 30
0.0
 11
211.9008465690011
 21
122.1567424801561
 31
0.0
  0
LINE
  5
225
330
70
100
AcDbEntity
  8
0
 62
    18
420
        0
370
    25
100
AcDbLine
 10
211.9008465690011
 20
122.1567424801561
 30
0.0
 11
210.3748465690008
 21
122.1567424801561
 31
0.0
  0
LINE
  5
226
330
70
100
AcDbEntity
  8
0
 62
    18
420
        0
370
    25
100
AcDbLine
 10
210.3748465690008
 20
122.1567424801561
 30
0.0
 11
210.3748465690008
 21
126.8573424801563
 31
0.0
  0
LINE
  5
227
330
70
100
AcDbEntity
  8
0
 62
    18
420
        0
370
    25
100
AcDbLine
 10
210.3748465690008
 20
126.8573424801563
 30
0.0
 11
196.3748465690009
 21
126.8573424801563
 31
0.0
  0
LINE
  5
228
330
70
100
AcDbEntity
  8
0
 62
    18
420
        0
370
    25
100
AcDbLine
 10
167.7998465690013
 20
126.8573424801563
 30
0.0
 11
181.7998465690012
 21
126.8573424801563
 31
0.0
  0
LINE
  5
229
330
70
100
AcDbEntity
  8
0
 62
    18
420
        0
370
    25
100
AcDbLine
 10
181.7998465690012
 20
126.8573424801563
 30
0.0
 11
181.7998465690012
 21
112.8564424801563
 31
0.0
  0
LINE
  5
22A
330
70
100
AcDbEntity
  8
0
 62
    18
420
        0
370
    25
100
AcDbLine
 10
181.7998465690012
 20
112.8564424801563
 30
0.0
 11
167.7998465690013
 21
112.8564424801563
 31
0.0
  0
LINE
  5
22B
330
70
100
AcDbEntity
  8
0
 62
    18
420
        0
370
    25
100
AcDbLine
 10
167.7998465690013
 20
112.8564424801563
 30
0.0
 11
167.7998465690013
 21
126.8573424801563
 31
0.0
  0
LINE
  5
22C
330
70
100
AcDbEntity
  8
0
 62
    18
420
        0
370
    25
100
AcDbLine
 10
148.7498465690011
 20
126.8573424801563
 30
0.0
 11
162.749846569001
 21
126.8573424801563
 31
0.0
  0
LINE
  5
22D
330
70
100
AcDbEntity
  8
0
 62
    18
420
        0
370
    25
100
AcDbLine
 10
162.749846569001
 20
126.8573424801563
 30
0.0
 11
162.749846569001
 21
112.8564424801563
 31
0.0
  0
LINE
  5
22E
330
70
100
AcDbEntity
  8
0
 62
    18
420
        0
370
    25
100
AcDbLine
 10
162.749846569001
 20
112.8564424801563
 30
0.0
 11
148.7498465690011
 21
112.8564424801563
 31
0.0
  0
LINE
  5
22F
330
70
100
AcDbEntity
  8
0
 62
    18
420
        0
370
    25
100
AcDbLine
 10
148.7498465690011
 20
112.8564424801563
 30
0.0
 11
148.7498465690011
 21
126.8573424801563
 31
0.0
  0
LINE
  5
230
330
70
100
AcDbEntity
  8
0
 62
    18
420
        0
370
    25
100
AcDbLine
 10
129.6998465690009
 20
126.8573424801563
 30
0.0
 11
143.6998465690008
 21
126.8573424801563
 31
0.0
  0
LINE
  5
231
330
70
100
AcDbEntity
  8
0
 62
    18
420
        0
370
    25
100
AcDbLine
 10
143.6998465690008
 20
126.8573424801563
 30
0.0
 11
143.6998465690008
 21
112.8564424801563
 31
0.0
  0
LINE
  5
232
330
70
100
AcDbEntity
  8
0
 62
    18
420
        0
370
    25
100
AcDbLine
 10
143.6998465690008
 20
112.8564424801563
 30
0.0
 11
129.6998465690009
 21
112.8564424801563
 31
0.0
  0
LINE
  5
233
330
70
100
AcDbEntity
  8
0
 62
    18
420
        0
370
    25
100
AcDbLine
 10
129.6998465690009
 20
112.8564424801563
 30
0.0
 11
129.6998465690009
 21
126.8573424801563
 31
0.0
  0
LINE
  5
234
330
70
100
AcDbEntity
  8
0
 62
    18
420
        0
370
    25
100
AcDbLine
 10
110.6498465690007
 20
126.8573424801563
 30
0.0
 11
124.6498465690012
 21
126.8573424801563
 31
0.0
  0
LINE
  5
235
330
70
100
AcDbEntity
  8
0
 62
    18
420
        0
370
    25
100
AcDbLine
 10
124.6498465690012
 20
126.8573424801563
 30
0.0
 11
124.6498465690012
 21
112.8564424801563
 31
0.0
  0
LINE
  5
236
330
70
100
AcDbEntity
  8
0
 62
    18
420
        0
370
    25
100
AcDbLine
 10
124.6498465690012
 20
112.8564424801563
 30
0.0
 11
110.6498465690007
 21
112.8564424801563
 31
0.0
  0
LINE
  5
237
330
70
100
AcDbEntity
  8
0
 62
    18
420
        0
370
    25
100
AcDbLine
 10
110.6498465690007
 20
112.8564424801563
 30
0.0
 11
110.6498465690007
 21
126.8573424801563
 31
0.0
  0
LINE
  5
238
330
70
100
AcDbEntity
  8
0
 62
    18
420
        0
370
    25
100
AcDbLine
 10
91.59984656900121
 20
126.8573424801563
 30
0.0
 11
105.599846569001
 21
126.8573424801563
 31
0.0
  0
LINE
  5
239
330
70
100
AcDbEntity
  8
0
 62
    18
420
        0
370
    25
100
AcDbLine
 10
105.599846569001
 20
126.8573424801563
 30
0.0
 11
105.599846569001
 21
112.8564424801563
 31
0.0
  0
LINE
  5
23A
330
70
100
AcDbEntity
  8
0
 62
    18
420
        0
370
    25
100
AcDbLine
 10
105.599846569001
 20
112.8564424801563
 30
0.0
 11
91.59984656900121
 21
112.8564424801563
 31
0.0
  0
LINE
  5
23B
330
70
100
AcDbEntity
  8
0
 62
    18
420
        0
370
    25
100
AcDbLine
 10
91.59984656900121
 20
112.8564424801563
 30
0.0
 11
91.59984656900121
 21
126.8573424801563
 31
0.0
  0
LINE
  5
23C
330
70
100
AcDbEntity
  8
0
 62
    18
420
        0
370
    25
100
AcDbLine
 10
72.54984656900102
 20
126.8573424801563
 30
0.0
 11
86.54984656900088
 21
126.8573424801563
 31
0.0
  0
LINE
  5
23D
330
70
100
AcDbEntity
  8
0
 62
    18
420
        0
370
    25
100
AcDbLine
 10
86.54984656900088
 20
126.8573424801563
 30
0.0
 11
86.54984656900088
 21
112.8564424801563
 31
0.0
  0
LINE
  5
23E
330
70
100
AcDbEntity
  8
0
 62
    18
420
        0
370
    25
100
AcDbLine
 10
86.54984656900088
 20
112.8564424801563
 30
0.0
 11
72.54984656900102
 21
112.8564424801563
 31
0.0
  0
LINE
  5
23F
330
70
100
AcDbEntity
  8
0
 62
    18
420
        0
370
    25
100
AcDbLine
 10
72.54984656900102
 20
112.8564424801563
 30
0.0
 11
72.54984656900102
 21
126.8573424801563
 31
0.0
  0
LINE
  5
240
330
70
100
AcDbEntity
  8
0
 62
    18
420
        0
370
    25
100
AcDbLine
 10
53.49984656900083
 20
126.8573424801563
 30
0.0
 11
67.499846569001
 21
126.8573424801563
 31
0.0
  0
LINE
  5
241
330
70
100
AcDbEntity
  8
0
 62
    18
420
        0
370
    25
100
AcDbLine
 10
67.499846569001
 20
126.8573424801563
 30
0.0
 11
67.499846569001
 21
112.8564424801563
 31
0.0
  0
LINE
  5
242
330
70
100
AcDbEntity
  8
0
 62
    18
420
        0
370
    25
100
AcDbLine
 10
67.499846569001
 20
112.8564424801563
 30
0.0
 11
53.49984656900083
 21
112.8564424801563
 31
0.0
  0
LINE
  5
243
330
70
100
AcDbEntity
  8
0
 62
    18
420
        0
370
    25
100
AcDbLine
 10
53.49984656900083
 20
112.8564424801563
 30
0.0
 11
53.49984656900083
 21
126.8573424801563
 31
0.0
  0
LINE
  5
244
330
70
100
AcDbEntity
  8
0
 62
    18
420
        0
370
    25
100
AcDbLine
 10
34.44884656900089
 20
126.8573424801563
 30
0.0
 11
48.44984656900113
 21
126.8573424801563
 31
0.0
  0
LINE
  5
245
330
70
100
AcDbEntity
  8
0
 62
    18
420
        0
370
    25
100
AcDbLine
 10
48.44984656900113
 20
126.8573424801563
 30
0.0
 11
48.44984656900113
 21
112.8564424801563
 31
0.0
  0
LINE
  5
246
330
70
100
AcDbEntity
  8
0
 62
    18
420
        0
370
    25
100
AcDbLine
 10
48.44984656900113
 20
112.8564424801563
 30
0.0
 11
34.44884656900089
 21
112.8564424801563
 31
0.0
  0
LINE
  5
247
330
70
100
AcDbEntity
  8
0
 62
    18
420
        0
370
    25
100
AcDbLine
 10
34.44884656900089
 20
112.8564424801563
 30
0.0
 11
34.44884656900089
 21
126.8573424801563
 31
0.0
  0
LINE
  5
248
330
70
100
AcDbEntity
  8
0
 62
    18
420
        0
370
    25
100
AcDbLine
 10
15.39984656900109
 20
126.8573424801563
 30
0.0
 11
29.39984656900094
 21
126.8573424801563
 31
0.0
  0
LINE
  5
249
330
70
100
AcDbEntity
  8
0
 62
    18
420
        0
370
    25
100
AcDbLine
 10
29.39984656900094
 20
126.8573424801563
 30
0.0
 11
29.39984656900094
 21
112.8564424801563
 31
0.0
  0
LINE
  5
24A
330
70
100
AcDbEntity
  8
0
 62
    18
420
        0
370
    25
100
AcDbLine
 10
29.39984656900094
 20
112.8564424801563
 30
0.0
 11
15.39984656900109
 21
112.8564424801563
 31
0.0
  0
LINE
  5
24B
330
70
100
AcDbEntity
  8
0
 62
    18
420
        0
370
    25
100
AcDbLine
 10
15.39984656900109
 20
112.8564424801563
 30
0.0
 11
15.39984656900109
 21
126.8573424801563
 31
0.0
  0
LINE
  5
24C
330
70
100
AcDbEntity
  8
0
 62
    18
420
        0
370
    25
100
AcDbLine
 10
-3.649653430998909
 20
126.8573424801563
 30
0.0
 11
10.34964656900105
 21
126.8573424801563
 31
0.0
  0
LINE
  5
24D
330
70
100
AcDbEntity
  8
0
 62
    18
420
        0
370
    25
100
AcDbLine
 10
10.34964656900105
 20
126.8573424801563
 30
0.0
 11
10.34964656900105
 21
112.8564424801563
 31
0.0
  0
LINE
  5
24E
330
70
100
AcDbEntity
  8
0
 62
    18
420
        0
370
    25
100
AcDbLine
 10
10.34964656900105
 20
112.8564424801563
 30
0.0
 11
-3.649653430998909
 21
112.8564424801563
 31
0.0
  0
LINE
  5
24F
330
70
100
AcDbEntity
  8
0
 62
    18
420
        0
370
    25
100
AcDbLine
 10
-3.649653430998909
 20
112.8564424801563
 30
0.0
 11
-3.649653430998909
 21
126.8573424801563
 31
0.0
  0
LINE
  5
250
330
70
100
AcDbEntity
  8
0
 62
    18
420
        0
370
    25
100
AcDbLine
 10
-22.6996534309991
 20
126.8573424801563
 30
0.0
 11
-8.700353430999134
 21
126.8573424801563
 31
0.0
  0
LINE
  5
251
330
70
100
AcDbEntity
  8
0
 62
    18
420
        0
370
    25
100
AcDbLine
 10
-8.700353430999134
 20
126.8573424801563
 30
0.0
 11
-8.700353430999134
 21
112.8564424801563
 31
0.0
  0
LINE
  5
252
330
70
100
AcDbEntity
  8
0
 62
    18
420
        0
370
    25
100
AcDbLine
 10
-8.700353430999134
 20
112.8564424801563
 30
0.0
 11
-22.6996534309991
 21
112.8564424801563
 31
0.0
  0
LINE
  5
253
330
70
100
AcDbEntity
  8
0
 62
    18
420
        0
370
    25
100
AcDbLine
 10
-22.6996534309991
 20
112.8564424801563
 30
0.0
 11
-22.6996534309991
 21
126.8573424801563
 31
0.0
  0
LINE
  5
254
330
70
100
AcDbEntity
  8
0
 62
    18
420
        0
370
    25
100
AcDbLine
 10
-41.74965343099897
 20
126.8573424801563
 30
0.0
 11
-27.75035343099901
 21
126.8573424801563
 31
0.0
  0
LINE
  5
255
330
70
100
AcDbEntity
  8
0
 62
    18
420
        0
370
    25
100
AcDbLine
 10
-27.75035343099901
 20
126.8573424801563
 30
0.0
 11
-27.75035343099901
 21
112.8564424801563
 31
0.0
  0
LINE
  5
256
330
70
100
AcDbEntity
  8
0
 62
    18
420
        0
370
    25
100
AcDbLine
 10
-27.75035343099901
 20
112.8564424801563
 30
0.0
 11
-41.74965343099897
 21
112.8564424801563
 31
0.0
  0
LINE
  5
257
330
70
100
AcDbEntity
  8
0
 62
    18
420
        0
370
    25
100
AcDbLine
 10
-41.74965343099897
 20
112.8564424801563
 30
0.0
 11
-41.74965343099897
 21
126.8573424801563
 31
0.0
  0
LINE
  5
258
330
70
100
AcDbEntity
  8
0
 62
    18
420
        0
370
    25
100
AcDbLine
 10
-60.79975343099901
 20
126.8573424801563
 30
0.0
 11
-46.80035343099887
 21
126.8573424801563
 31
0.0
  0
LINE
  5
259
330
70
100
AcDbEntity
  8
0
 62
    18
420
        0
370
    25
100
AcDbLine
 10
-46.80035343099887
 20
126.8573424801563
 30
0.0
 11
-46.80035343099887
 21
112.8564424801563
 31
0.0
  0
LINE
  5
25A
330
70
100
AcDbEntity
  8
0
 62
    18
420
        0
370
    25
100
AcDbLine
 10
-46.80035343099887
 20
112.8564424801563
 30
0.0
 11
-60.79975343099901
 21
112.8564424801563
 31
0.0
  0
LINE
  5
25B
330
70
100
AcDbEntity
  8
0
 62
    18
420
        0
370
    25
100
AcDbLine
 10
-60.79975343099901
 20
112.8564424801563
 30
0.0
 11
-60.79975343099901
 21
126.8573424801563
 31
0.0
  0
LINE
  5
25C
330
70
100
AcDbEntity
  8
0
 62
    18
420
        0
370
    25
100
AcDbLine
 10
-84.61224343099884
 20
126.8573424801563
 30
0.0
 11
-70.61135343099884
 21
126.8573424801563
 31
0.0
  0
LINE
  5
25D
330
70
100
AcDbEntity
  8
0
 62
    18
420
        0
370
    25
100
AcDbLine
 10
-70.61135343099884
 20
126.8573424801563
 30
0.0
 11
-70.61135343099884
 21
112.8564424801563
 31
0.0
  0
LINE
  5
25E
330
70
100
AcDbEntity
  8
0
 62
    18
420
        0
370
    25
100
AcDbLine
 10
-70.61135343099884
 20
112.8564424801563
 30
0.0
 11
-84.61224343099884
 21
112.8564424801563
 31
0.0
  0
LINE
  5
25F
330
70
100
AcDbEntity
  8
0
 62
    18
420
        0
370
    25
100
AcDbLine
 10
-84.61224343099884
 20
112.8564424801563
 30
0.0
 11
-84.61224343099884
 21
126.8573424801563
 31
0.0
  0
LINE
  5
260
330
70
100
AcDbEntity
  8
0
 62
    18
420
        0
370
    25
100
AcDbLine
 10
221.9998465690014
 20
131.7633424801563
 30
0.0
 11
222.1868465690014
 21
131.7563424801561
 31
0.0
  0
LINE
  5
261
330
70
100
AcDbEntity
  8
0
 62
    18
420
        0
370
    25
100
AcDbLine
 10
222.1868465690014
 20
131.7563424801561
 30
0.0
 11
222.3718465690014
 21
131.7343424801562
 31
0.0
  0
LINE
  5
262
330
70
100
AcDbEntity
  8
0
 62
    18
420
        0
370
    25
100
AcDbLine
 10
222.3718465690014
 20
131.7343424801562
 30
0.0
 11
222.5548465690012
 21
131.6983424801564
 31
0.0
  0
LINE
  5
263
330
70
100
AcDbEntity
  8
0
 62
    18
420
        0
370
    25
100
AcDbLine
 10
222.5548465690012
 20
131.6983424801564
 30
0.0
 11
222.7348465690011
 21
131.6473424801561
 31
0.0
  0
LINE
  5
264
330
70
100
AcDbEntity
  8
0
 62
    18
420
        0
370
    25
100
AcDbLine
 10
222.7348465690011
 20
131.6473424801561
 30
0.0
 11
222.9098465690011
 21
131.5813424801562
 31
0.0
  0
LINE
  5
265
330
70
100
AcDbEntity
  8
0
 62
    18
420
        0
370
    25
100
AcDbLine
 10
222.9098465690011
 20
131.5813424801562
 30
0.0
 11
223.0798465690016
 21
131.5043424801561
 31
0.0
  0
LINE
  5
266
330
70
100
AcDbEntity
  8
0
 62
    18
420
        0
370
    25
100
AcDbLine
 10
223.0798465690016
 20
131.5043424801561
 30
0.0
 11
223.2438465690011
 21
131.4133424801561
 31
0.0
  0
LINE
  5
267
330
70
100
AcDbEntity
  8
0
 62
    18
420
        0
370
    25
100
AcDbLine
 10
223.2438465690011
 20
131.4133424801561
 30
0.0
 11
223.3978465690012
 21
131.3083424801564
 31
0.0
  0
LINE
  5
268
330
70
100
AcDbEntity
  8
0
 62
    18
420
        0
370
    25
100
AcDbLine
 10
223.3978465690012
 20
131.3083424801564
 30
0.0
 11
223.5458465690016
 21
131.1923424801563
 31
0.0
  0
LINE
  5
269
330
70
100
AcDbEntity
  8
0
 62
    18
420
        0
370
    25
100
AcDbLine
 10
223.5458465690016
 20
131.1923424801563
 30
0.0
 11
223.6838465690013
 21
131.0653424801564
 31
0.0
  0
LINE
  5
26A
330
70
100
AcDbEntity
  8
0
 62
    18
420
        0
370
    25
100
AcDbLine
 10
223.6838465690013
 20
131.0653424801564
 30
0.0
 11
223.808846569001
 21
130.9283424801561
 31
0.0
  0
LINE
  5
26B
330
70
100
AcDbEntity
  8
0
 62
    18
420
        0
370
    25
100
AcDbLine
 10
223.808846569001
 20
130.9283424801561
 30
0.0
 11
223.9248465690011
 21
130.7813424801562
 31
0.0
  0
LINE
  5
26C
330
70
100
AcDbEntity
  8
0
 62
    18
420
        0
370
    25
100
AcDbLine
 10
223.9248465690011
 20
130.7813424801562
 30
0.0
 11
224.0288465690011
 21
130.6263424801563
 31
0.0
  0
LINE
  5
26D
330
70
100
AcDbEntity
  8
0
 62
    18
420
        0
370
    25
100
AcDbLine
 10
224.0288465690011
 20
130.6263424801563
 30
0.0
 11
224.1198465690011
 21
130.4623424801562
 31
0.0
  0
LINE
  5
26E
330
70
100
AcDbEntity
  8
0
 62
    18
420
        0
370
    25
100
AcDbLine
 10
224.1198465690011
 20
130.4623424801562
 30
0.0
 11
224.198846569001
 21
130.2943424801564
 31
0.0
  0
LINE
  5
26F
330
70
100
AcDbEntity
  8
0
 62
    18
420
        0
370
    25
100
AcDbLine
 10
224.198846569001
 20
130.2943424801564
 30
0.0
 11
224.2638465690012
 21
130.1173424801563
 31
0.0
  0
LINE
  5
270
330
70
100
AcDbEntity
  8
0
 62
    18
420
        0
370
    25
100
AcDbLine
 10
224.2638465690012
 20
130.1173424801563
 30
0.0
 11
224.3148465690012
 21
129.9373424801564
 31
0.0
  0
LINE
  5
271
330
70
100
AcDbEntity
  8
0
 62
    18
420
        0
370
    25
100
AcDbLine
 10
224.3148465690012
 20
129.9373424801564
 30
0.0
 11
224.3518465690014
 21
129.7553424801563
 31
0.0
  0
LINE
  5
272
330
70
100
AcDbEntity
  8
0
 62
    18
420
        0
370
    25
100
AcDbLine
 10
224.3518465690014
 20
129.7553424801563
 30
0.0
 11
224.3738465690016
 21
129.5693424801563
 31
0.0
  0
LINE
  5
273
330
70
100
AcDbEntity
  8
0
 62
    18
420
        0
370
    25
100
AcDbLine
 10
224.3738465690016
 20
129.5693424801563
 30
0.0
 11
224.3808465690011
 21
129.3813424801561
 31
0.0
  0
LINE
  5
274
330
70
100
AcDbEntity
  8
0
 62
    18
420
        0
370
    25
100
AcDbLine
 10
226.7618465690008
 20
69.85131479693653
 30
0.0
 11
226.5748465690008
 21
69.85831479693668
 31
0.0
  0
LINE
  5
275
330
70
100
AcDbEntity
  8
0
 62
    18
420
        0
370
    25
100
AcDbLine
 10
226.5748465690008
 20
69.85831479693668
 30
0.0
 11
226.3898465690008
 21
69.88031479693624
 31
0.0
  0
LINE
  5
276
330
70
100
AcDbEntity
  8
0
 62
    18
420
        0
370
    25
100
AcDbLine
 10
226.3898465690008
 20
69.88031479693624
 30
0.0
 11
226.206846569001
 21
69.9163147969361
 31
0.0
  0
LINE
  5
277
330
70
100
AcDbEntity
  8
0
 62
    18
420
        0
370
    25
100
AcDbLine
 10
226.206846569001
 20
69.9163147969361
 30
0.0
 11
226.026846569001
 21
69.96731479693664
 31
0.0
  0
LINE
  5
278
330
70
100
AcDbEntity
  8
0
 62
    18
420
        0
370
    25
100
AcDbLine
 10
226.026846569001
 20
69.96731479693664
 30
0.0
 11
225.8518465690011
 21
70.0333147969366
 31
0.0
  0
LINE
  5
279
330
70
100
AcDbEntity
  8
0
 62
    18
420
        0
370
    25
100
AcDbLine
 10
225.8518465690011
 20
70.0333147969366
 30
0.0
 11
225.6818465690006
 21
70.11031479693635
 31
0.0
  0
LINE
  5
27A
330
70
100
AcDbEntity
  8
0
 62
    18
420
        0
370
    25
100
AcDbLine
 10
225.6818465690006
 20
70.11031479693635
 30
0.0
 11
225.517846569001
 21
70.20131479693638
 31
0.0
  0
LINE
  5
27B
330
70
100
AcDbEntity
  8
0
 62
    18
420
        0
370
    25
100
AcDbLine
 10
225.517846569001
 20
70.20131479693638
 30
0.0
 11
225.3638465690009
 21
70.30631479693608
 31
0.0
  0
LINE
  5
27C
330
70
100
AcDbEntity
  8
0
 62
    18
420
        0
370
    25
100
AcDbLine
 10
225.3638465690009
 20
70.30631479693608
 30
0.0
 11
225.2158465690006
 21
70.4223147969362
 31
0.0
  0
LINE
  5
27D
330
70
100
AcDbEntity
  8
0
 62
    18
420
        0
370
    25
100
AcDbLine
 10
225.2158465690006
 20
70.4223147969362
 30
0.0
 11
225.0778465690009
 21
70.5493147969361
 31
0.0
  0
LINE
  5
27E
330
70
100
AcDbEntity
  8
0
 62
    18
420
        0
370
    25
100
AcDbLine
 10
225.0778465690009
 20
70.5493147969361
 30
0.0
 11
224.9528465690012
 21
70.68631479693603
 31
0.0
  0
LINE
  5
27F
330
70
100
AcDbEntity
  8
0
 62
    18
420
        0
370
    25
100
AcDbLine
 10
224.9528465690012
 20
70.68631479693603
 30
0.0
 11
224.836846569001
 21
70.83331479693663
 31
0.0
  0
LINE
  5
280
330
70
100
AcDbEntity
  8
0
 62
    18
420
        0
370
    25
100
AcDbLine
 10
224.836846569001
 20
70.83331479693663
 30
0.0
 11
224.7328465690011
 21
70.98831479693649
 31
0.0
  0
LINE
  5
281
330
70
100
AcDbEntity
  8
0
 62
    18
420
        0
370
    25
100
AcDbLine
 10
224.7328465690011
 20
70.98831479693649
 30
0.0
 11
224.641846569001
 21
71.152314796936
 31
0.0
  0
LINE
  5
282
330
70
100
AcDbEntity
  8
0
 62
    18
420
        0
370
    25
100
AcDbLine
 10
224.641846569001
 20
71.152314796936
 30
0.0
 11
224.5628465690011
 21
71.32031479693577
 31
0.0
  0
LINE
  5
283
330
70
100
AcDbEntity
  8
0
 62
    18
420
        0
370
    25
100
AcDbLine
 10
224.5628465690011
 20
71.32031479693577
 30
0.0
 11
224.497846569001
 21
71.49731479693648
 31
0.0
  0
LINE
  5
284
330
70
100
AcDbEntity
  8
0
 62
    18
420
        0
370
    25
100
AcDbLine
 10
224.497846569001
 20
71.49731479693648
 30
0.0
 11
224.446846569001
 21
71.67731479693578
 31
0.0
  0
LINE
  5
285
330
70
100
AcDbEntity
  8
0
 62
    18
420
        0
370
    25
100
AcDbLine
 10
224.446846569001
 20
71.67731479693578
 30
0.0
 11
224.4098465690008
 21
71.85931479693586
 31
0.0
  0
LINE
  5
286
330
70
100
AcDbEntity
  8
0
 62
    18
420
        0
370
    25
100
AcDbLine
 10
224.4098465690008
 20
71.85931479693586
 30
0.0
 11
224.3878465690006
 21
72.04531479693621
 31
0.0
  0
LINE
  5
287
330
70
100
AcDbEntity
  8
0
 62
    18
420
        0
370
    25
100
AcDbLine
 10
224.3878465690006
 20
72.04531479693621
 30
0.0
 11
224.3808465690011
 21
72.23331479693604
 31
0.0
  0
LINE
  5
288
330
70
100
AcDbEntity
  8
0
 62
    18
420
        0
370
    25
100
AcDbLine
 10
224.3808465690011
 20
72.23331479693604
 30
0.0
 11
224.3808465690011
 21
129.3813424801561
 31
0.0
  0
LINE
  5
289
330
70
100
AcDbEntity
  8
0
 62
    18
420
        0
370
    25
100
AcDbLine
 10
226.7618465690008
 20
69.85064248015598
 30
0.0
 11
246.239846569001
 21
69.85064248015598
 31
0.0
  0
ENDSEC
  0
SECTION
  2
OBJECTS
  0
DICTIONARY
  5
C
330
0
100
AcDbDictionary
281
     1
  3
ACAD_COLOR
350
63
  3
ACAD_DETAILVIEWSTYLE
350
6A
  3
ACAD_GROUP
350
D
  3
ACAD_LAYOUT
350
62
  3
ACAD_MATERIAL
350
10
  3
ACAD_MLEADERSTYLE
350
66
  3
ACAD_MLINESTYLE
350
5F
  3
ACAD_PLOTSETTINGS
350
61
  3
ACAD_PLOTSTYLENAME
350
E
  3
ACAD_SCALELIST
350
42
  3
ACAD_SECTIONVIEWSTYLE
350
68
  3
ACAD_TABLESTYLE
350
64
  3
ACAD_VISUALSTYLE
350
29
  3
ACDB_RECOMPOSE_DATA
350
292
  3
AcDbVariableDictionary
350
28A
  0
DICTIONARY
  5
63
102
{ACAD_REACTORS
330
C
102
}
330
C
100
AcDbDictionary
281
     1
  0
DICTIONARY
  5
6A
102
{ACAD_REACTORS
330
C
102
}
330
C
100
AcDbDictionary
281
     1
  3
Imperial24
350
6B
  0
DICTIONARY
  5
D
102
{ACAD_REACTORS
330
C
102
}
330
C
100
AcDbDictionary
281
     1
  0
DICTIONARY
  5
62
102
{ACAD_REACTORS
330
C
102
}
330
C
100
AcDbDictionary
281
     1
  3
Layout1
350
6F
  3
Layout2
350
77
  3
Model
350
73
  0
DICTIONARY
  5
10
102
{ACAD_REACTORS
330
C
102
}
330
C
100
AcDbDictionary
281
     1
  3
ByBlock
350
19
  3
ByLayer
350
11
  3
Global
350
21
  0
DICTIONARY
  5
66
102
{ACAD_REACTORS
330
C
102
}
330
C
100
AcDbDictionary
281
     1
  3
Standard
350
67
  0
DICTIONARY
  5
5F
102
{ACAD_REACTORS
330
C
102
}
330
C
100
AcDbDictionary
281
     1
  3
Standard
350
60
  0
DICTIONARY
  5
61
102
{ACAD_REACTORS
330
C
102
}
330
C
100
AcDbDictionary
281
     1
  0
ACDBDICTIONARYWDFLT
  5
E
102
{ACAD_REACTORS
330
C
102
}
330
C
100
AcDbDictionary
281
     1
  3
Normal
350
F
100
AcDbDictionaryWithDefault
340
F
  0
DICTIONARY
  5
42
102
{ACAD_REACTORS
330
C
102
}
330
C
100
AcDbDictionary
281
     1
  3
A0
350
43
  3
A1
350
44
  3
A2
350
45
  3
A3
350
46
  3
A4
350
47
  3
A5
350
48
  3
A6
350
49
  3
A7
350
4A
  3
A8
350
4B
  3
A9
350
4C
  3
B0
350
4D
  3
B1
350
4E
  3
B2
350
4F
  3
B3
350
50
  3
B4
350
51
  3
B5
350
52
  3
B6
350
53
  0
DICTIONARY
  5
68
102
{ACAD_REACTORS
330
C
102
}
330
C
100
AcDbDictionary
281
     1
  3
Imperial24
350
69
  0
DICTIONARY
  5
64
102
{ACAD_REACTORS
330
C
102
}
330
C
100
AcDbDictionary
281
     1
  3
Standard
350
65
  0
DICTIONARY
  5
29
102
{ACAD_REACTORS
330
C
102
}
330
C
100
AcDbDictionary
281
     1
  3
2dWireframe
350
2F
  3
Basic
350
2E
  3
Brighten
350
35
  3
ColorChange
350
39
  3
Conceptual
350
32
  3
Dim
350
34
  3
EdgeColorOff
350
41
  3
Facepattern
350
38
  3
Flat
350
2A
  3
FlatWithEdges
350
2B
  3
Gouraud
350
2C
  3
GouraudWithEdges
350
2D
  3
Hidden
350
31
  3
JitterOff
350
3F
  3
Linepattern
350
37
  3
OverhangOff
350
40
  3
Realistic
350
33
  3
Shaded
350
3E
  3
Shaded with edges
350
3D
  3
Shades of Gray
350
3A
  3
Sketchy
350
3B
  3
Thicken
350
36
  3
Wireframe
350
30
  3
X-Ray
350
3C
  0
XRECORD
  5
292
102
{ACAD_REACTORS
330
C
102
}
330
C
100
AcDbXrecord
280
     1
 90
        1
330
65
  0
DICTIONARY
  5
28A
102
{ACAD_REACTORS
330
C
102
}
330
C
100
AcDbDictionary
281
     1
  3
CANNOSCALE
350
28F
  3
CMLEADERSTYLE
350
28C
  3
CTABLESTYLE
350
28B
  3
CVIEWDETAILSTYLE
350
28D
  3
CVIEWSECTIONSTYLE
350
28E
  0
ACDBDETAILVIEWSTYLE
  5
6B
102
{ACAD_REACTORS
330
6A
102
}
330
6A
100
AcDbModelDocViewStyle
 70
     0
  3
Imperial24
290
     1
300
Imperial24
 90
        0
100
AcDbDetailViewStyle
 70
     0
 71
     0
 90
        3
 71
     1
340
55
 62
   256
 40
0.24
340
0
 62
   256
 40
0.24
300

 40
0.36
280
     3
 71
     2
340
5D
 90
       25
 62
   256
 71
     3
340
55
 62
   256
 40
0.24
 90
        1
 40
0.75
 90
        1
300
%<\AcVar ViewType \f "%tc1">% %<\AcVar ViewDetailId>%\PSCALE %<\AcVar ViewScale \f "%sn">%
 71
     4
340
5D
 90
       25
 62
   256
340
5D
 90
       25
 62
   256
280
     0
  0
LAYOUT
  5
6F
102
{ACAD_REACTORS
330
62
102
}
330
62
100
AcDbPlotSettings
  1

  2

  4

  6

 40
0.0
 41
0.0
 42
0.0
 43
0.0
 44
0.0
 45
0.0
 46
0.0
 47
0.0
 48
0.0
 49
0.0
140
0.0
141
0.0
142
1.0
143
1.0
 70
   688
 72
     0
 73
     0
 74
     5
  7

 75
    16
147
1.0
 76
     0
 77
     2
 78
   300
148
0.0
149
0.0
100
AcDbLayout
  1
Layout1
 70
     1
 71
     1
 10
0.0
 20
0.0
 11
12.0
 21
9.0
 12
0.0
 22
0.0
 32
0.0
 14
0.0
 24
0.0
 34
0.0
 15
0.0
 25
0.0
 35
0.0
146
0.0
 13
0.0
 23
0.0
 33
0.0
 16
1.0
 26
0.0
 36
0.0
 17
0.0
 27
1.0
 37
0.0
 76
     0
330
6C
  0
LAYOUT
  5
77
102
{ACAD_REACTORS
330
62
102
}
330
62
100
AcDbPlotSettings
  1

  2

  4

  6

 40
0.0
 41
0.0
 42
0.0
 43
0.0
 44
0.0
 45
0.0
 46
0.0
 47
0.0
 48
0.0
 49
0.0
140
0.0
141
0.0
142
1.0
143
1.0
 70
   688
 72
     0
 73
     0
 74
     5
  7

 75
    16
147
1.0
 76
     0
 77
     2
 78
   300
148
0.0
149
0.0
100
AcDbLayout
  1
Layout2
 70
     1
 71
     2
 10
0.0
 20
0.0
 11
12.0
 21
9.0
 12
0.0
 22
0.0
 32
0.0
 14
0.0
 24
0.0
 34
0.0
 15
0.0
 25
0.0
 35
0.0
146
0.0
 13
0.0
 23
0.0
 33
0.0
 16
1.0
 26
0.0
 36
0.0
 17
0.0
 27
1.0
 37
0.0
 76
     0
330
74
  0
LAYOUT
  5
73
102
{ACAD_REACTORS
330
62
102
}
330
62
100
AcDbPlotSettings
  1

  2

  4

  6

 40
0.0
 41
0.0
 42
0.0
 43
0.0
 44
0.0
 45
0.0
 46
0.0
 47
0.0
 48
0.0
 49
0.0
140
0.0
141
0.0
142
1.0
143
1.0
 70
  1712
 72
     0
 73
     0
 74
     0
  7

 75
     0
147
1.0
 76
     0
 77
     2
 78
   300
148
0.0
149
0.0
100
AcDbLayout
  1
Model
 70
     1
 71
     0
 10
0.0
 20
0.0
 11
12.0
 21
9.0
 12
0.0
 22
0.0
 32
0.0
 14
0.0
 24
0.0
 34
0.0
 15
0.0
 25
0.0
 35
0.0
146
0.0
 13
0.0
 23
0.0
 33
0.0
 16
1.0
 26
0.0
 36
0.0
 17
0.0
 27
1.0
 37
0.0
 76
     0
330
70
  0
MATERIAL
  5
19
102
{ACAD_XDICTIONARY
360
1A
102
}
102
{ACAD_REACTORS
330
10
102
}
330
10
100
AcDbMaterial
  1
ByBlock
 72
     0
 43
0.0208333333333333
 43
0.0
 43
0.0
 43
0.0
 43
0.0
 43
0.0208333333333333
 43
0.0
 43
0.0
 43
0.0
 43
0.0
 43
1.0
 43
0.0
 43
0.0
 43
0.0
 43
0.0
 43
1.0
 77
     0
 47
0.0208333333333333
 47
0.0
 47
0.0
 47
0.0
 47
0.0
 47
0.0208333333333333
 47
0.0
 47
0.0
 47
0.0
 47
0.0
 47
1.0
 47
0.0
 47
0.0
 47
0.0
 47
0.0
 47
1.0
171
     0
 49
0.0208333333333333
 49
0.0
 49
0.0
 49
0.0
 49
0.0
 49
0.0208333333333333
 49
0.0
 49
0.0
 49
0.0
 49
0.0
 49
1.0
 49
0.0
 49
0.0
 49
0.0
 49
0.0
 49
1.0
175
     0
142
0.0208333333333333
142
0.0
142
0.0
142
0.0
142
0.0
142
0.0208333333333333
142
0.0
142
0.0
142
0.0
142
0.0
142
1.0
142
0.0
142
0.0
142
0.0
142
0.0
142
1.0
179
     0
144
0.0208333333333333
144
0.0
144
0.0
144
0.0
144
0.0
144
0.0208333333333333
144
0.0
144
0.0
144
0.0
144
0.0
144
1.0
144
0.0
144
0.0
144
0.0
144
0.0
144
1.0
147
0.0208333333333333
147
0.0
147
0.0
147
0.0
147
0.0
147
0.0208333333333333
147
0.0
147
0.0
147
0.0
147
0.0
147
1.0
147
0.0
147
0.0
147
0.0
147
0.0
147
1.0
  0
MATERIAL
  5
11
102
{ACAD_XDICTIONARY
360
12
102
}
102
{ACAD_REACTORS
330
10
102
}
330
10
100
AcDbMaterial
  1
ByLayer
 72
     0
 43
0.0208333333333333
 43
0.0
 43
0.0
 43
0.0
 43
0.0
 43
0.0208333333333333
 43
0.0
 43
0.0
 43
0.0
 43
0.0
 43
1.0
 43
0.0
 43
0.0
 43
0.0
 43
0.0
 43
1.0
 77
     0
 47
0.0208333333333333
 47
0.0
 47
0.0
 47
0.0
 47
0.0
 47
0.0208333333333333
 47
0.0
 47
0.0
 47
0.0
 47
0.0
 47
1.0
 47
0.0
 47
0.0
 47
0.0
 47
0.0
 47
1.0
171
     0
 49
0.0208333333333333
 49
0.0
 49
0.0
 49
0.0
 49
0.0
 49
0.0208333333333333
 49
0.0
 49
0.0
 49
0.0
 49
0.0
 49
1.0
 49
0.0
 49
0.0
 49
0.0
 49
0.0
 49
1.0
175
     0
142
0.0208333333333333
142
0.0
142
0.0
142
0.0
142
0.0
142
0.0208333333333333
142
0.0
142
0.0
142
0.0
142
0.0
142
1.0
142
0.0
142
0.0
142
0.0
142
0.0
142
1.0
179
     0
144
0.0208333333333333
144
0.0
144
0.0
144
0.0
144
0.0
144
0.0208333333333333
144
0.0
144
0.0
144
0.0
144
0.0
144
1.0
144
0.0
144
0.0
144
0.0
144
0.0
144
1.0
147
0.0208333333333333
147
0.0
147
0.0
147
0.0
147
0.0
147
0.0208333333333333
147
0.0
147
0.0
147
0.0
147
0.0
147
1.0
147
0.0
147
0.0
147
0.0
147
0.0
147
1.0
  0
MATERIAL
  5
21
102
{ACAD_XDICTIONARY
360
22
102
}
102
{ACAD_REACTORS
330
10
102
}
330
10
100
AcDbMaterial
  1
Global
 72
     0
 43
0.0208333333333333
 43
0.0
 43
0.0
 43
0.0
 43
0.0
 43
0.0208333333333333
 43
0.0
 43
0.0
 43
0.0
 43
0.0
 43
1.0
 43
0.0
 43
0.0
 43
0.0
 43
0.0
 43
1.0
 77
     0
 47
0.0208333333333333
 47
0.0
 47
0.0
 47
0.0
 47
0.0
 47
0.0208333333333333
 47
0.0
 47
0.0
 47
0.0
 47
0.0
 47
1.0
 47
0.0
 47
0.0
 47
0.0
 47
0.0
 47
1.0
171
     0
 49
0.0208333333333333
 49
0.0
 49
0.0
 49
0.0
 49
0.0
 49
0.0208333333333333
 49
0.0
 49
0.0
 49
0.0
 49
0.0
 49
1.0
 49
0.0
 49
0.0
 49
0.0
 49
0.0
 49
1.0
175
     0
142
0.0208333333333333
142
0.0
142
0.0
142
0.0
142
0.0
142
0.0208333333333333
142
0.0
142
0.0
142
0.0
142
0.0
142
1.0
142
0.0
142
0.0
142
0.0
142
0.0
142
1.0
179
     0
144
0.0208333333333333
144
0.0
144
0.0
144
0.0
144
0.0
144
0.0208333333333333
144
0.0
144
0.0
144
0.0
144
0.0
144
1.0
144
0.0
144
0.0
144
0.0
144
0.0
144
1.0
147
0.0208333333333333
147
0.0
147
0.0
147
0.0
147
0.0
147
0.0208333333333333
147
0.0
147
0.0
147
0.0
147
0.0
147
1.0
147
0.0
147
0.0
147
0.0
147
0.0
147
1.0
  0
MLEADERSTYLE
  5
67
102
{ACAD_REACTORS
330
66
102
}
330
66
100
AcDbMLeaderStyle
179
     2
170
     2
171
     1
172
     0
 90
        2
 40
0.0
 41
0.0
173
     1
 91
-1056964608
340
5B
 92
       -2
290
     1
 42
0.09
291
     1
 43
0.36
  3
Standard
 44
0.18
300

342
55
174
     1
178
     6
175
     1
176
     0
 93
-1056964608
 45
0.18
292
     0
297
     0
 46
0.18
 94
-1056964608
 47
1.0
 49
1.0
140
1.0
293
     1
141
0.0
294
     1
177
     0
142
1.0
295
     1
296
     0
143
0.125
271
     0
272
     9
273
     9
298
     1
  0
MLINESTYLE
  5
60
102
{ACAD_REACTORS
330
5F
102
}
330
5F
100
AcDbMlineStyle
  2
STANDARD
 70
     0
  3

 62
   256
 51
90.0
 52
90.0
 71
     2
 49
0.5
 62
   256
  6
BYLAYER
 49
-0.5
 62
   256
  6
BYLAYER
  0
ACDBPLACEHOLDER
  5
F
102
{ACAD_REACTORS
330
E
102
}
330
E
  0
SCALE
  5
43
102
{ACAD_REACTORS
330
42
102
}
330
42
100
AcDbScale
 70
     0
300
1:1
140
1.0
141
1.0
290
     1
  0
SCALE
  5
44
102
{ACAD_REACTORS
330
42
102
}
330
42
100
AcDbScale
 70
     0
300
1/128" = 1'-0"
140
0.0078125
141
12.0
290
     0
  0
SCALE
  5
45
102
{ACAD_REACTORS
330
42
102
}
330
42
100
AcDbScale
 70
     0
300
1/64" = 1'-0"
140
0.015625
141
12.0
290
     0
  0
SCALE
  5
46
102
{ACAD_REACTORS
330
42
102
}
330
42
100
AcDbScale
 70
     0
300
1/32" = 1'-0"
140
0.03125
141
12.0
290
     0
  0
SCALE
  5
47
102
{ACAD_REACTORS
330
42
102
}
330
42
100
AcDbScale
 70
     0
300
1/16" = 1'-0"
140
0.0625
141
12.0
290
     0
  0
SCALE
  5
48
102
{ACAD_REACTORS
330
42
102
}
330
42
100
AcDbScale
 70
     0
300
3/32" = 1'-0"
140
0.09375
141
12.0
290
     0
  0
SCALE
  5
49
102
{ACAD_REACTORS
330
42
102
}
330
42
100
AcDbScale
 70
     0
300
1/8" = 1'-0"
140
0.125
141
12.0
290
     0
  0
SCALE
  5
4A
102
{ACAD_REACTORS
330
42
102
}
330
42
100
AcDbScale
 70
     0
300
3/16" = 1'-0"
140
0.1875
141
12.0
290
     0
  0
SCALE
  5
4B
102
{ACAD_REACTORS
330
42
102
}
330
42
100
AcDbScale
 70
     0
300
1/4" = 1'-0"
140
0.25
141
12.0
290
     0
  0
SCALE
  5
4C
102
{ACAD_REACTORS
330
42
102
}
330
42
100
AcDbScale
 70
     0
300
3/8" = 1'-0"
140
0.375
141
12.0
290
     0
  0
SCALE
  5
4D
102
{ACAD_REACTORS
330
42
102
}
330
42
100
AcDbScale
 70
     0
300
1/2" = 1'-0"
140
0.5
141
12.0
290
     0
  0
SCALE
  5
4E
102
{ACAD_REACTORS
330
42
102
}
330
42
100
AcDbScale
 70
     0
300
3/4" = 1'-0"
140
0.75
141
12.0
290
     0
  0
SCALE
  5
4F
102
{ACAD_REACTORS
330
42
102
}
330
42
100
AcDbScale
 70
     0
300
1" = 1'-0"
140
1.0
141
12.0
290
     0
  0
SCALE
  5
50
102
{ACAD_REACTORS
330
42
102
}
330
42
100
AcDbScale
 70
     0
300
1-1/2" = 1'-0"
140
1.5
141
12.0
290
     0
  0
SCALE
  5
51
102
{ACAD_REACTORS
330
42
102
}
330
42
100
AcDbScale
 70
     0
300
3" = 1'-0"
140
3.0
141
12.0
290
     0
  0
SCALE
  5
52
102
{ACAD_REACTORS
330
42
102
}
330
42
100
AcDbScale
 70
     0
300
6" = 1'-0"
140
6.0
141
12.0
290
     0
  0
SCALE
  5
53
102
{ACAD_REACTORS
330
42
102
}
330
42
100
AcDbScale
 70
     0
300
1'-0" = 1'-0"
140
12.0
141
12.0
290
     0
  0
ACDBSECTIONVIEWSTYLE
  5
69
102
{ACAD_REACTORS
330
68
102
}
330
68
100
AcDbModelDocViewStyle
 70
     0
  3
Imperial24
290
     1
300
Imperial24
 90
        0
100
AcDbSectionViewStyle
 70
     0
 71
     0
 90
       78
 71
     1
340
55
 62
   256
 40
0.24
340
0
340
0
 62
   256
 40
0.24
300
I, O, Q, S, X, Z
 40
0.48
 90
        3
 40
0.18
 90
        1
 71
     2
340
5D
 90
       25
 62
   256
340
5D
 90
       50
 62
   256
 40
0.24
 40
0.0
 40
0.24
 71
     3
340
55
 62
   256
 40
0.24
 90
        1
 40
0.75
 90
        1
300
%<\AcVar ViewType \f "%tc1">% %<\AcVar ViewSectionStartId>%-%<\AcVar ViewSectionEndId>%\PSCALE %<\AcVar ViewScale \f "%sn">%
 71
     4
 62
   256
 62
   257
300
ANSI31
 40
1.0
 90
        0
290
     0
290
     0
 90
        6
 40
0.0
 40
1.570796326794896
 40
0.2617993877991494
 40
1.308996938995747
 40
-0.2617993877991494
 40
1.832595714594046
  0
TABLESTYLE
  5
65
102
{ACAD_XDICTIONARY
360
290
102
}
102
{ACAD_REACTORS
330
64
102
}
330
64
100
AcDbTableStyle
280
     0
  3
Standard
 70
     0
 71
     0
 40
0.06
 41
0.06
280
     0
281
     0
  7
Standard
140
0.18
170
     2
 62
     0
 63
     7
283
     0
 90
      512
 91
        0
  1

274
    -2
284
     1
 64
     0
275
    -2
285
     1
 65
     0
276
    -2
286
     1
 66
     0
277
    -2
287
     1
 67
     0
278
    -2
288
     1
 68
     0
279
    -2
289
     1
 69
     0
  7
Standard
140
0.25
170
     5
 62
     0
 63
     7
283
     0
 90
      512
 91
        0
  1

274
    -2
284
     1
 64
     0
275
    -2
285
     1
 65
     0
276
    -2
286
     1
 66
     0
277
    -2
287
     1
 67
     0
278
    -2
288
     1
 68
     0
279
    -2
289
     1
 69
     0
  7
Standard
140
0.18
170
     5
 62
     0
 63
     7
283
     0
 90
      512
 91
        0
  1

274
    -2
284
     1
 64
     0
275
    -2
285
     1
 65
     0
276
    -2
286
     1
 66
     0
277
    -2
287
     1
 67
     0
278
    -2
288
     1
 68
     0
279
    -2
289
     1
 69
     0
  0
VISUALSTYLE
  5
2F
102
{ACAD_REACTORS
330
29
102
}
330
29
100
AcDbVisualStyle
  2
2dWireframe
 70
     4
177
     3
291
     0
 70
    58
 90
        0
176
     1
 90
        2
176
     1
 90
        0
176
     1
 90
        0
176
     1
 40
0.6
176
     1
 40
30.0
176
     1
 62
     7
420
 16777215
176
     1
 90
        1
176
     1
 90
        4
176
     1
 62
     7
176
     1
 62
   257
176
     1
 90
        1
176
     1
 90
        1
176
     1
 40
1.0
176
     1
 90
        0
176
     1
 62
   257
176
     1
 40
1.0
176
     1
 90
        1
176
     1
 90
        6
176
     1
 90
        2
176
     1
 62
     7
176
     1
 90
        5
176
     1
 90
        0
176
     1
 90
        0
176
     1
290
     0
176
     1
 90
        1
176
     1
 40
0.0
176
     1
 90
        0
176
     1
290
     1
176
     1
290
     1
176
     1
290
     0
176
     1
290
     0
176
     1
290
     0
176
     1
290
     0
176
     1
290
     0
176
     1
290
     0
176
     1
290
     0
176
     1
 90
       50
176
     1
 40
0.0
176
     1
 40
1.0
176
     1
 90
        0
176
     1
 62
    18
420
        0
176
     1
 90
       50
176
     1
 90
        3
176
     1
 62
     5
420
      255
176
     1
290
     0
176
     1
 90
       50
176
     1
 90
       50
176
     1
 90
       50
176
     1
290
     0
176
     1
 90
       50
176
     1
 62
   256
176
     0
 40
1.0
176
     0
 90
        2
176
     1
  1
strokes_ogs.tif
176
     1
290
     0
176
     1
 40
1.0
176
     1
 40
1.0
176
     1
  0
VISUALSTYLE
  5
2E
102
{ACAD_REACTORS
330
29
102
}
330
29
100
AcDbVisualStyle
  2
Basic
 70
     7
177
     3
291
     1
 70
    58
 90
        1
176
     1
 90
        0
176
     1
 90
        1
176
     1
 90
        0
176
     1
 40
0.6
176
     1
 40
30.0
176
     1
 62
     7
420
 16777215
176
     1
 90
        0
176
     1
 90
        4
176
     1
 62
     7
176
     1
 62
   257
176
     1
 90
        1
176
     1
 90
        1
176
     1
 40
1.0
176
     1
 90
        8
176
     1
 62
     7
176
     1
 40
1.0
176
     1
 90
        1
176
     1
 90
        6
176
     1
 90
        2
176
     1
 62
     7
176
     1
 90
        5
176
     1
 90
        0
176
     1
 90
        0
176
     1
290
     0
176
     1
 90
        1
176
     1
 40
0.0
176
     1
 90
        0
176
     1
290
     0
176
     1
290
     1
176
     1
290
     1
176
     1
290
     0
176
     1
290
     0
176
     1
290
     0
176
     1
290
     0
176
     1
290
     0
176
     1
290
     0
176
     1
 90
       50
176
     1
 40
0.0
176
     1
 40
1.0
176
     1
 90
        0
176
     1
 62
    18
420
        0
176
     1
 90
       50
176
     1
 90
        3
176
     1
 62
     5
420
      255
176
     1
290
     0
176
     1
 90
       50
176
     1
 90
       50
176
     1
 90
       50
176
     1
290
     0
176
     1
 90
       50
176
     1
 62
   256
176
     0
 40
1.0
176
     0
 90
        2
176
     1
  1
strokes_ogs.tif
176
     1
290
     0
176
     1
 40
1.0
176
     1
 40
1.0
176
     1
  0
VISUALSTYLE
  5
35
102
{ACAD_REACTORS
330
29
102
}
330
29
100
AcDbVisualStyle
  2
Brighten
 70
    12
177
     3
291
     1
 70
    58
 90
        2
176
     1
 90
        2
176
     1
 90
        0
176
     1
 90
        0
176
     1
 40
0.6
176
     1
 40
30.0
176
     1
 62
     7
420
 16777215
176
     1
 90
        1
176
     1
 90
        4
176
     1
 62
     7
176
     1
 62
   257
176
     1
 90
        1
176
     1
 90
        1
176
     1
 40
1.0
176
     1
 90
        8
176
     1
 62
     7
176
     1
 40
1.0
176
     1
 90
        1
176
     1
 90
        6
176
     1
 90
        2
176
     1
 62
     7
176
     1
 90
        5
176
     1
 90
        0
176
     1
 90
        0
176
     1
290
     0
176
     1
 90
        1
176
     1
 40
50.0
176
     1
 90
        0
176
     1
290
     0
176
     1
290
     1
176
     1
290
     1
176
     1
290
     0
176
     1
290
     0
176
     1
290
     0
176
     1
290
     0
176
     1
290
     0
176
     1
290
     0
176
     1
 90
       50
176
     1
 40
0.0
176
     1
 40
1.0
176
     1
 90
        0
176
     1
 62
    18
420
        0
176
     1
 90
       50
176
     1
 90
        3
176
     1
 62
     5
420
      255
176
     1
290
     0
176
     1
 90
       50
176
     1
 90
       50
176
     1
 90
       50
176
     1
290
     0
176
     1
 90
       50
176
     1
 62
   256
176
     0
 40
1.0
176
     0
 90
        2
176
     1
  1
strokes_ogs.tif
176
     1
290
     0
176
     1
 40
1.0
176
     1
 40
1.0
176
     1
  0
VISUALSTYLE
  5
39
102
{ACAD_REACTORS
330
29
102
}
330
29
100
AcDbVisualStyle
  2
ColorChange
 70
    16
177
     3
291
     1
 70
    58
 90
        2
176
     1
 90
        2
176
     1
 90
        3
176
     1
 90
        0
176
     1
 40
0.6
176
     1
 40
30.0
176
     1
 62
     8
420
  8421504
176
     1
 90
        1
176
     1
 90
        4
176
     1
 62
     7
176
     1
 62
   257
176
     1
 90
        1
176
     1
 90
        1
176
     1
 40
1.0
176
     1
 90
        8
176
     1
 62
     8
420
  8421504
176
     1
 40
1.0
176
     1
 90
        1
176
     1
 90
        6
176
     1
 90
        2
176
     1
 62
     7
176
     1
 90
        5
176
     1
 90
        0
176
     1
 90
        0
176
     1
290
     0
176
     1
 90
        1
176
     1
 40
0.0
176
     1
 90
        0
176
     1
290
     0
176
     1
290
     1
176
     1
290
     1
176
     1
290
     0
176
     1
290
     0
176
     1
290
     0
176
     1
290
     0
176
     1
290
     0
176
     1
290
     0
176
     1
 90
       50
176
     1
 40
0.0
176
     1
 40
1.0
176
     1
 90
        0
176
     1
 62
    18
420
        0
176
     1
 90
       50
176
     1
 90
        3
176
     1
 62
     5
420
      255
176
     1
290
     0
176
     1
 90
       50
176
     1
 90
       50
176
     1
 90
       50
176
     1
290
     0
176
     1
 90
       50
176
     1
 62
   256
176
     0
 40
1.0
176
     0
 90
        2
176
     1
  1
strokes_ogs.tif
176
     1
290
     0
176
     1
 40
1.0
176
     1
 40
1.0
176
     1
  0
VISUALSTYLE
  5
32
102
{ACAD_REACTORS
330
29
102
}
330
29
100
AcDbVisualStyle
  2
Conceptual
 70
     9
177
     3
291
     0
 70
    58
 90
        3
176
     1
 90
        2
176
     1
 90
        0
176
     1
 90
        0
176
     1
 40
0.6
176
     1
 40
30.0
176
     1
 62
     7
420
 16777215
176
     1
 90
        2
176
     1
 90
        2
176
     1
 62
     7
176
     1
 62
   257
176
     1
 90
        1
176
     1
 90
        1
176
     1
 40
179.0
176
     1
 90
        8
176
     1
 62
     7
176
     1
 40
1.0
176
     1
 90
        1
176
     1
 90
        6
176
     1
 90
        2
176
     1
 62
     7
176
     1
 90
        3
176
     1
 90
        0
176
     1
 90
        0
176
     1
290
     0
176
     1
 90
        1
176
     1
 40
0.0
176
     1
 90
        0
176
     1
290
     0
176
     1
290
     1
176
     1
290
     1
176
     1
290
     0
176
     1
290
     0
176
     1
290
     0
176
     1
290
     0
176
     1
290
     0
176
     1
290
     0
176
     1
 90
       50
176
     1
 40
0.0
176
     1
 40
1.0
176
     1
 90
        0
176
     1
 62
    18
420
        0
176
     1
 90
       50
176
     1
 90
        3
176
     1
 62
     5
420
      255
176
     1
290
     0
176
     1
 90
       50
176
     1
 90
       50
176
     1
 90
       50
176
     1
290
     0
176
     1
 90
       50
176
     1
 62
   256
176
     0
 40
1.0
176
     0
 90
        2
176
     1
  1
strokes_ogs.tif
176
     1
290
     0
176
     1
 40
1.0
176
     1
 40
1.0
176
     1
  0
VISUALSTYLE
  5
34
102
{ACAD_REACTORS
330
29
102
}
330
29
100
AcDbVisualStyle
  2
Dim
 70
    11
177
     3
291
     1
 70
    58
 90
        2
176
     1
 90
        2
176
     1
 90
        0
176
     1
 90
        0
176
     1
 40
0.6
176
     1
 40
30.0
176
     1
 62
     7
420
 16777215
176
     1
 90
        1
176
     1
 90
        4
176
     1
 62
     7
176
     1
 62
   257
176
     1
 90
        1
176
     1
 90
        1
176
     1
 40
1.0
176
     1
 90
        8
176
     1
 62
     7
176
     1
 40
1.0
176
     1
 90
        1
176
     1
 90
        6
176
     1
 90
        2
176
     1
 62
     7
176
     1
 90
        5
176
     1
 90
        0
176
     1
 90
        0
176
     1
290
     0
176
     1
 90
        1
176
     1
 40
-50.0
176
     1
 90
        0
176
     1
290
     0
176
     1
290
     1
176
     1
290
     1
176
     1
290
     0
176
     1
290
     0
176
     1
290
     0
176
     1
290
     0
176
     1
290
     0
176
     1
290
     0
176
     1
 90
       50
176
     1
 40
0.0
176
     1
 40
1.0
176
     1
 90
        0
176
     1
 62
    18
420
        0
176
     1
 90
       50
176
     1
 90
        3
176
     1
 62
     5
420
      255
176
     1
290
     0
176
     1
 90
       50
176
     1
 90
       50
176
     1
 90
       50
176
     1
290
     0
176
     1
 90
       50
176
     1
 62
   256
176
     0
 40
1.0
176
     0
 90
        2
176
     1
  1
strokes_ogs.tif
176
     1
290
     0
176
     1
 40
1.0
176
     1
 40
1.0
176
     1
  0
VISUALSTYLE
  5
41
102
{ACAD_REACTORS
330
29
102
}
330
29
100
AcDbVisualStyle
  2
EdgeColorOff
 70
    22
177
     3
291
     1
 70
    58
 90
        2
176
     0
 90
        2
176
     0
 90
        0
176
     0
 90
        0
176
     0
 40
0.6
176
     0
 40
30.0
176
     0
 62
     7
420
 16777215
176
     0
 90
        1
176
     0
 90
        4
176
     0
 62
     7
176
     0
 62
   257
176
     0
 90
        1
176
     0
 90
        1
176
     0
 40
1.0
176
     0
 90
        8
176
     2
 62
     7
176
     0
 40
1.0
176
     0
 90
        1
176
     0
 90
        6
176
     0
 90
        2
176
     0
 62
     7
176
     0
 90
        5
176
     0
 90
        0
176
     0
 90
        0
176
     0
290
     0
176
     0
 90
        1
176
     0
 40
0.0
176
     0
 90
        0
176
     0
290
     0
176
     0
290
     1
176
     0
290
     1
176
     0
290
     0
176
     0
290
     0
176
     0
290
     0
176
     0
290
     0
176
     0
290
     0
176
     0
290
     0
176
     0
 90
       50
176
     0
 40
0.0
176
     0
 40
1.0
176
     0
 90
        0
176
     0
 62
    18
420
        0
176
     0
 90
       50
176
     0
 90
        3
176
     0
 62
     5
420
      255
176
     0
290
     0
176
     0
 90
       50
176
     0
 90
       50
176
     0
 90
       50
176
     0
290
     0
176
     0
 90
       50
176
     0
 62
   256
176
     0
 40
1.0
176
     0
 90
        2
176
     0
  1
strokes_ogs.tif
176
     0
290
     0
176
     0
 40
1.0
176
     0
 40
1.0
176
     0
  0
VISUALSTYLE
  5
38
102
{ACAD_REACTORS
330
29
102
}
330
29
100
AcDbVisualStyle
  2
Facepattern
 70
    15
177
     3
291
     1
 70
    58
 90
        2
176
     1
 90
        2
176
     1
 90
        0
176
     1
 90
        0
176
     1
 40
0.6
176
     1
 40
30.0
176
     1
 62
     7
420
 16777215
176
     1
 90
        1
176
     1
 90
        4
176
     1
 62
     7
176
     1
 62
   257
176
     1
 90
        1
176
     1
 90
        1
176
     1
 40
1.0
176
     1
 90
        8
176
     1
 62
     7
176
     1
 40
1.0
176
     1
 90
        1
176
     1
 90
        6
176
     1
 90
        2
176
     1
 62
     7
176
     1
 90
        5
176
     1
 90
        0
176
     1
 90
        0
176
     1
290
     0
176
     1
 90
        1
176
     1
 40
0.0
176
     1
 90
        0
176
     1
290
     0
176
     1
290
     1
176
     1
290
     1
176
     1
290
     0
176
     1
290
     0
176
     1
290
     0
176
     1
290
     0
176
     1
290
     0
176
     1
290
     0
176
     1
 90
       50
176
     1
 40
0.0
176
     1
 40
1.0
176
     1
 90
        0
176
     1
 62
    18
420
        0
176
     1
 90
       50
176
     1
 90
        3
176
     1
 62
     5
420
      255
176
     1
290
     0
176
     1
 90
       50
176
     1
 90
       50
176
     1
 90
       50
176
     1
290
     0
176
     1
 90
       50
176
     1
 62
   256
176
     0
 40
1.0
176
     0
 90
        2
176
     1
  1
strokes_ogs.tif
176
     1
290
     0
176
     1
 40
1.0
176
     1
 40
1.0
176
     1
  0
VISUALSTYLE
  5
2A
102
{ACAD_REACTORS
330
29
102
}
330
29
100
AcDbVisualStyle
  2
Flat
 70
     0
177
     3
291
     1
 70
    58
 90
        2
176
     1
 90
        1
176
     1
 90
        1
176
     1
 90
        2
176
     1
 40
0.6
176
     1
 40
30.0
176
     1
 62
     7
420
 16777215
176
     1
 90
        0
176
     1
 90
        0
176
     1
 62
     7
176
     1
 62
   257
176
     1
 90
        1
176
     1
 90
        1
176
     1
 40
1.0
176
     1
 90
        8
176
     1
 62
     7
176
     1
 40
1.0
176
     1
 90
        1
176
     1
 90
        6
176
     1
 90
        2
176
     1
 62
     7
176
     1
 90
        5
176
     1
 90
        0
176
     1
 90
        0
176
     1
290
     0
176
     1
 90
       13
176
     1
 40
0.0
176
     1
 90
        0
176
     1
290
     0
176
     1
290
     1
176
     1
290
     1
176
     1
290
     0
176
     1
290
     0
176
     1
290
     0
176
     1
290
     0
176
     1
290
     0
176
     1
290
     0
176
     1
 90
       50
176
     1
 40
0.0
176
     1
 40
1.0
176
     1
 90
        0
176
     1
 62
    18
420
        0
176
     1
 90
       50
176
     1
 90
        3
176
     1
 62
     5
420
      255
176
     1
290
     0
176
     1
 90
       50
176
     1
 90
       50
176
     1
 90
       50
176
     1
290
     0
176
     1
 90
       50
176
     1
 62
   256
176
     0
 40
1.0
176
     0
 90
        2
176
     1
  1
strokes_ogs.tif
176
     1
290
     0
176
     1
 40
1.0
176
     1
 40
1.0
176
     1
  0
VISUALSTYLE
  5
2B
102
{ACAD_REACTORS
330
29
102
}
330
29
100
AcDbVisualStyle
  2
FlatWithEdges
 70
     1
177
     3
291
     1
 70
    58
 90
        2
176
     1
 90
        1
176
     1
 90
        1
176
     1
 90
        2
176
     1
 40
0.6
176
     1
 40
30.0
176
     1
 62
     7
420
 16777215
176
     1
 90
        1
176
     1
 90
        0
176
     1
 62
     7
176
     1
 62
   257
176
     1
 90
        1
176
     1
 90
        1
176
     1
 40
1.0
176
     1
 90
        0
176
     1
 62
   257
176
     1
 40
1.0
176
     1
 90
        1
176
     1
 90
        6
176
     1
 90
        2
176
     1
 62
     7
176
     1
 90
        5
176
     1
 90
        0
176
     1
 90
        0
176
     1
290
     0
176
     1
 90
       13
176
     1
 40
0.0
176
     1
 90
        0
176
     1
290
     0
176
     1
290
     1
176
     1
290
     1
176
     1
290
     0
176
     1
290
     0
176
     1
290
     0
176
     1
290
     0
176
     1
290
     0
176
     1
290
     0
176
     1
 90
       50
176
     1
 40
0.0
176
     1
 40
1.0
176
     1
 90
        0
176
     1
 62
    18
420
        0
176
     1
 90
       50
176
     1
 90
        3
176
     1
 62
     5
420
      255
176
     1
290
     0
176
     1
 90
       50
176
     1
 90
       50
176
     1
 90
       50
176
     1
290
     0
176
     1
 90
       50
176
     1
 62
   256
176
     0
 40
1.0
176
     0
 90
        2
176
     1
  1
strokes_ogs.tif
176
     1
290
     0
176
     1
 40
1.0
176
     1
 40
1.0
176
     1
  0
VISUALSTYLE
  5
2C
102
{ACAD_REACTORS
330
29
102
}
330
29
100
AcDbVisualStyle
  2
Gouraud
 70
     2
177
     3
291
     1
 70
    58
 90
        2
176
     1
 90
        2
176
     1
 90
        1
176
     1
 90
        2
176
     1
 40
0.6
176
     1
 40
30.0
176
     1
 62
     7
420
 16777215
176
     1
 90
        0
176
     1
 90
        0
176
     1
 62
     7
176
     1
 62
   257
176
     1
 90
        1
176
     1
 90
        1
176
     1
 40
1.0
176
     1
 90
        0
176
     1
 62
     7
176
     1
 40
1.0
176
     1
 90
        1
176
     1
 90
        6
176
     1
 90
        2
176
     1
 62
     7
176
     1
 90
        5
176
     1
 90
        0
176
     1
 90
        0
176
     1
290
     0
176
     1
 90
       13
176
     1
 40
0.0
176
     1
 90
        0
176
     1
290
     0
176
     1
290
     1
176
     1
290
     1
176
     1
290
     0
176
     1
290
     0
176
     1
290
     0
176
     1
290
     0
176
     1
290
     0
176
     1
290
     0
176
     1
 90
       50
176
     1
 40
0.0
176
     1
 40
1.0
176
     1
 90
        0
176
     1
 62
    18
420
        0
176
     1
 90
       50
176
     1
 90
        3
176
     1
 62
     5
420
      255
176
     1
290
     0
176
     1
 90
       50
176
     1
 90
       50
176
     1
 90
       50
176
     1
290
     0
176
     1
 90
       50
176
     1
 62
   256
176
     0
 40
1.0
176
     0
 90
        2
176
     1
  1
strokes_ogs.tif
176
     1
290
     0
176
     1
 40
1.0
176
     1
 40
1.0
176
     1
  0
VISUALSTYLE
  5
2D
102
{ACAD_REACTORS
330
29
102
}
330
29
100
AcDbVisualStyle
  2
GouraudWithEdges
 70
     3
177
     3
291
     1
 70
    58
 90
        2
176
     1
 90
        2
176
     1
 90
        1
176
     1
 90
        2
176
     1
 40
0.6
176
     1
 40
30.0
176
     1
 62
     7
420
 16777215
176
     1
 90
        1
176
     1
 90
        0
176
     1
 62
     7
176
     1
 62
   257
176
     1
 90
        1
176
     1
 90
        1
176
     1
 40
1.0
176
     1
 90
        0
176
     1
 62
   257
176
     1
 40
1.0
176
     1
 90
        1
176
     1
 90
        6
176
     1
 90
        2
176
     1
 62
     7
176
     1
 90
        5
176
     1
 90
        0
176
     1
 90
        0
176
     1
290
     0
176
     1
 90
       13
176
     1
 40
0.0
176
     1
 90
        0
176
     1
290
     0
176
     1
290
     1
176
     1
290
     1
176
     1
290
     0
176
     1
290
     0
176
     1
290
     0
176
     1
290
     0
176
     1
290
     0
176
     1
290
     0
176
     1
 90
       50
176
     1
 40
0.0
176
     1
 40
1.0
176
     1
 90
        0
176
     1
 62
    18
420
        0
176
     1
 90
       50
176
     1
 90
        3
176
     1
 62
     5
420
      255
176
     1
290
     0
176
     1
 90
       50
176
     1
 90
       50
176
     1
 90
       50
176
     1
290
     0
176
     1
 90
       50
176
     1
 62
   256
176
     0
 40
1.0
176
     0
 90
        2
176
     1
  1
strokes_ogs.tif
176
     1
290
     0
176
     1
 40
1.0
176
     1
 40
1.0
176
     1
  0
VISUALSTYLE
  5
31
102
{ACAD_REACTORS
330
29
102
}
330
29
100
AcDbVisualStyle
  2
Hidden
 70
     6
177
     3
291
     0
 70
    58
 90
        1
176
     1
 90
        2
176
     1
 90
        2
176
     1
 90
        0
176
     1
 40
0.6
176
     1
 40
30.0
176
     1
 62
     7
420
 16777215
176
     1
 90
        2
176
     1
 90
        2
176
     1
 62
     7
176
     1
 62
   257
176
     1
 90
        2
176
     1
 90
        1
176
     1
 40
40.0
176
     1
 90
        0
176
     1
 62
   257
176
     1
 40
1.0
176
     1
 90
        1
176
     1
 90
        6
176
     1
 90
        2
176
     1
 62
     7
176
     1
 90
        3
176
     1
 90
        0
176
     1
 90
        0
176
     1
290
     0
176
     1
 90
        1
176
     1
 40
0.0
176
     1
 90
        0
176
     1
290
     0
176
     1
290
     1
176
     1
290
     1
176
     1
290
     0
176
     1
290
     0
176
     1
290
     0
176
     1
290
     0
176
     1
290
     0
176
     1
290
     0
176
     1
 90
       50
176
     1
 40
0.0
176
     1
 40
1.0
176
     1
 90
        0
176
     1
 62
    18
420
        0
176
     1
 90
       50
176
     1
 90
        3
176
     1
 62
     5
420
      255
176
     1
290
     0
176
     1
 90
       50
176
     1
 90
       50
176
     1
 90
       50
176
     1
290
     0
176
     1
 90
       50
176
     1
 62
   256
176
     0
 40
1.0
176
     0
 90
        2
176
     1
  1
strokes_ogs.tif
176
     1
290
     0
176
     1
 40
1.0
176
     1
 40
1.0
176
     1
  0
VISUALSTYLE
  5
3F
102
{ACAD_REACTORS
330
29
102
}
330
29
100
AcDbVisualStyle
  2
JitterOff
 70
    20
177
     3
291
     1
 70
    58
 90
        2
176
     0
 90
        2
176
     0
 90
        0
176
     0
 90
        0
176
     0
 40
0.6
176
     0
 40
30.0
176
     0
 62
     7
420
 16777215
176
     0
 90
        1
176
     0
 90
        4
176
     0
 62
     7
176
     0
 62
   257
176
     0
 90
        1
176
     0
 90
        1
176
     0
 40
1.0
176
     0
 90
       10
176
     2
 62
     7
176
     0
 40
1.0
176
     0
 90
        1
176
     0
 90
        6
176
     0
 90
        2
176
     0
 62
     7
176
     0
 90
        5
176
     0
 90
        0
176
     0
 90
        0
176
     0
290
     0
176
     0
 90
        1
176
     0
 40
0.0
176
     0
 90
        0
176
     0
290
     0
176
     0
290
     1
176
     0
290
     1
176
     0
290
     0
176
     0
290
     0
176
     0
290
     0
176
     0
290
     0
176
     0
290
     0
176
     0
290
     0
176
     0
 90
       50
176
     0
 40
0.0
176
     0
 40
1.0
176
     0
 90
        0
176
     0
 62
    18
420
        0
176
     0
 90
       50
176
     0
 90
        3
176
     0
 62
     5
420
      255
176
     0
290
     0
176
     0
 90
       50
176
     0
 90
       50
176
     0
 90
       50
176
     0
290
     0
176
     0
 90
       50
176
     0
 62
   256
176
     0
 40
1.0
176
     0
 90
        2
176
     0
  1
strokes_ogs.tif
176
     0
290
     0
176
     0
 40
1.0
176
     0
 40
1.0
176
     0
  0
VISUALSTYLE
  5
37
102
{ACAD_REACTORS
330
29
102
}
330
29
100
AcDbVisualStyle
  2
Linepattern
 70
    14
177
     3
291
     1
 70
    58
 90
        2
176
     1
 90
        2
176
     1
 90
        0
176
     1
 90
        0
176
     1
 40
0.6
176
     1
 40
30.0
176
     1
 62
     7
420
 16777215
176
     1
 90
        1
176
     1
 90
        4
176
     1
 62
     7
176
     1
 62
   257
176
     1
 90
        7
176
     1
 90
        7
176
     1
 40
1.0
176
     1
 90
        8
176
     1
 62
     7
176
     1
 40
1.0
176
     1
 90
        1
176
     1
 90
        6
176
     1
 90
        2
176
     1
 62
     7
176
     1
 90
        5
176
     1
 90
        0
176
     1
 90
        0
176
     1
290
     0
176
     1
 90
        1
176
     1
 40
0.0
176
     1
 90
        0
176
     1
290
     0
176
     1
290
     1
176
     1
290
     1
176
     1
290
     0
176
     1
290
     0
176
     1
290
     0
176
     1
290
     0
176
     1
290
     0
176
     1
290
     0
176
     1
 90
       50
176
     1
 40
0.0
176
     1
 40
1.0
176
     1
 90
        0
176
     1
 62
    18
420
        0
176
     1
 90
       50
176
     1
 90
        3
176
     1
 62
     5
420
      255
176
     1
290
     0
176
     1
 90
       50
176
     1
 90
       50
176
     1
 90
       50
176
     1
290
     0
176
     1
 90
       50
176
     1
 62
   256
176
     0
 40
1.0
176
     0
 90
        2
176
     1
  1
strokes_ogs.tif
176
     1
290
     0
176
     1
 40
1.0
176
     1
 40
1.0
176
     1
  0
VISUALSTYLE
  5
40
102
{ACAD_REACTORS
330
29
102
}
330
29
100
AcDbVisualStyle
  2
OverhangOff
 70
    21
177
     3
291
     1
 70
    58
 90
        2
176
     0
 90
        2
176
     0
 90
        0
176
     0
 90
        0
176
     0
 40
0.6
176
     0
 40
30.0
176
     0
 62
     7
420
 16777215
176
     0
 90
        1
176
     0
 90
        4
176
     0
 62
     7
176
     0
 62
   257
176
     0
 90
        1
176
     0
 90
        1
176
     0
 40
1.0
176
     0
 90
        9
176
     2
 62
     7
176
     0
 40
1.0
176
     0
 90
        1
176
     0
 90
        6
176
     0
 90
        2
176
     0
 62
     7
176
     0
 90
        5
176
     0
 90
        0
176
     0
 90
        0
176
     0
290
     0
176
     0
 90
        1
176
     0
 40
0.0
176
     0
 90
        0
176
     0
290
     0
176
     0
290
     1
176
     0
290
     1
176
     0
290
     0
176
     0
290
     0
176
     0
290
     0
176
     0
290
     0
176
     0
290
     0
176
     0
290
     0
176
     0
 90
       50
176
     0
 40
0.0
176
     0
 40
1.0
176
     0
 90
        0
176
     0
 62
    18
420
        0
176
     0
 90
       50
176
     0
 90
        3
176
     0
 62
     5
420
      255
176
     0
290
     0
176
     0
 90
       50
176
     0
 90
       50
176
     0
 90
       50
176
     0
290
     0
176
     0
 90
       50
176
     0
 62
   256
176
     0
 40
1.0
176
     0
 90
        2
176
     0
  1
strokes_ogs.tif
176
     0
290
     0
176
     0
 40
1.0
176
     0
 40
1.0
176
     0
  0
VISUALSTYLE
  5
33
102
{ACAD_REACTORS
330
29
102
}
330
29
100
AcDbVisualStyle
  2
Realistic
 70
     8
177
     3
291
     0
 70
    58
 90
        2
176
     1
 90
        3
176
     1
 90
        0
176
     1
 90
        2
176
     1
 40
0.6
176
     1
 40
30.0
176
     1
 62
     7
420
 16777215
176
     1
 90
        0
176
     1
 90
        0
176
     1
 62
     7
176
     1
 62
   257
176
     1
 90
        1
176
     1
 90
        1
176
     1
 40
1.0
176
     1
 90
        8
176
     1
 62
   257
176
     1
 40
1.0
176
     1
 90
        1
176
     1
 90
        6
176
     1
 90
        2
176
     1
 62
     7
176
     1
 90
        3
176
     1
 90
        0
176
     1
 90
        0
176
     1
290
     0
176
     1
 90
       13
176
     1
 40
0.0
176
     1
 90
        0
176
     1
290
     0
176
     1
290
     1
176
     1
290
     1
176
     1
290
     0
176
     1
290
     0
176
     1
290
     0
176
     1
290
     0
176
     1
290
     0
176
     1
290
     0
176
     1
 90
       50
176
     1
 40
0.0
176
     1
 40
1.0
176
     1
 90
        0
176
     1
 62
    18
420
        0
176
     1
 90
       50
176
     1
 90
        3
176
     1
 62
     5
420
      255
176
     1
290
     0
176
     1
 90
       50
176
     1
 90
       50
176
     1
 90
       50
176
     1
290
     0
176
     1
 90
       50
176
     1
 62
   256
176
     0
 40
1.0
176
     0
 90
        2
176
     1
  1
strokes_ogs.tif
176
     1
290
     0
176
     1
 40
1.0
176
     1
 40
1.0
176
     1
  0
VISUALSTYLE
  5
3E
102
{ACAD_REACTORS
330
29
102
}
330
29
100
AcDbVisualStyle
  2
Shaded
 70
    27
177
     3
291
     0
 70
    58
 90
        2
176
     1
 90
        2
176
     1
 90
        1
176
     1
 90
        2
176
     1
 40
0.6
176
     1
 40
30.0
176
     1
 62
     7
420
 16777215
176
     1
 90
        0
176
     1
 90
        4
176
     1
 62
     7
176
     1
 62
   257
176
     1
 90
        1
176
     1
 90
        1
176
     1
 40
1.0
176
     1
 90
        8
176
     1
 62
   257
176
     1
 40
1.0
176
     1
 90
        1
176
     1
 90
        6
176
     1
 90
        2
176
     1
 62
     8
420
  7895160
176
     1
 90
        3
176
     1
 90
        0
176
     1
 90
        0
176
     1
290
     0
176
     1
 90
        5
176
     1
 40
0.0
176
     1
 90
        0
176
     1
290
     0
176
     1
290
     1
176
     1
290
     1
176
     1
290
     0
176
     1
290
     0
176
     1
290
     0
176
     1
290
     0
176
     1
290
     0
176
     1
290
     0
176
     1
 90
       50
176
     1
 40
0.0
176
     1
 40
1.0
176
     1
 90
        0
176
     1
 62
    18
420
        0
176
     1
 90
       50
176
     1
 90
        3
176
     1
 62
     5
420
      255
176
     1
290
     0
176
     1
 90
       50
176
     1
 90
       50
176
     1
 90
       50
176
     1
290
     0
176
     1
 90
       50
176
     1
 62
   256
176
     0
 40
1.0
176
     0
 90
        2
176
     1
  1
strokes_ogs.tif
176
     1
290
     0
176
     1
 40
1.0
176
     1
 40
1.0
176
     1
  0
VISUALSTYLE
  5
3D
102
{ACAD_REACTORS
330
29
102
}
330
29
100
AcDbVisualStyle
  2
Shaded with edges
 70
    26
177
     3
291
     0
 70
    58
 90
        2
176
     1
 90
        2
176
     1
 90
        1
176
     1
 90
        2
176
     1
 40
0.6
176
     1
 40
30.0
176
     1
 62
     7
420
 16777215
176
     1
 90
        1
176
     1
 90
        2
176
     1
 62
     7
176
     1
 62
   257
176
     1
 90
        2
176
     1
 90
        1
176
     1
 40
1.0
176
     1
 90
        8
176
     1
 62
   257
176
     1
 40
1.0
176
     1
 90
        1
176
     1
 90
        6
176
     1
 90
        2
176
     1
 62
     7
176
     1
 90
        3
176
     1
 90
        0
176
     1
 90
        0
176
     1
290
     0
176
     1
 90
        5
176
     1
 40
0.0
176
     1
 90
        0
176
     1
290
     0
176
     1
290
     1
176
     1
290
     1
176
     1
290
     0
176
     1
290
     0
176
     1
290
     0
176
     1
290
     0
176
     1
290
     0
176
     1
290
     0
176
     1
 90
       50
176
     1
 40
0.0
176
     1
 40
1.0
176
     1
 90
        0
176
     1
 62
    18
420
        0
176
     1
 90
       50
176
     1
 90
        3
176
     1
 62
     5
420
      255
176
     1
290
     0
176
     1
 90
       50
176
     1
 90
       50
176
     1
 90
       50
176
     1
290
     0
176
     1
 90
       50
176
     1
 62
   256
176
     0
 40
1.0
176
     0
 90
        2
176
     1
  1
strokes_ogs.tif
176
     1
290
     0
176
     1
 40
1.0
176
     1
 40
1.0
176
     1
  0
VISUALSTYLE
  5
3A
102
{ACAD_REACTORS
330
29
102
}
330
29
100
AcDbVisualStyle
  2
Shades of Gray
 70
    23
177
     3
291
     0
 70
    58
 90
        2
176
     1
 90
        2
176
     1
 90
        3
176
     1
 90
        0
176
     1
 40
0.6
176
     1
 40
30.0
176
     1
 62
     7
420
 16777215
176
     1
 90
        2
176
     1
 90
        2
176
     1
 62
     7
176
     1
 62
     7
176
     1
 90
        1
176
     1
 90
        1
176
     1
 40
40.0
176
     1
 90
        8
176
     1
 62
     7
176
     1
 40
1.0
176
     1
 90
        1
176
     1
 90
        6
176
     1
 90
        2
176
     1
 62
     7
176
     1
 90
        3
176
     1
 90
        0
176
     1
 90
        0
176
     1
290
     0
176
     1
 90
        1
176
     1
 40
0.0
176
     1
 90
        0
176
     1
290
     0
176
     1
290
     1
176
     1
290
     1
176
     1
290
     0
176
     1
290
     0
176
     1
290
     0
176
     1
290
     0
176
     1
290
     0
176
     1
290
     0
176
     1
 90
       50
176
     1
 40
0.0
176
     1
 40
1.0
176
     1
 90
        0
176
     1
 62
    18
420
        0
176
     1
 90
       50
176
     1
 90
        3
176
     1
 62
     5
420
      255
176
     1
290
     0
176
     1
 90
       50
176
     1
 90
       50
176
     1
 90
       50
176
     1
290
     0
176
     1
 90
       50
176
     1
 62
   256
176
     0
 40
1.0
176
     0
 90
        2
176
     1
  1
strokes_ogs.tif
176
     1
290
     0
176
     1
 40
1.0
176
     1
 40
1.0
176
     1
  0
VISUALSTYLE
  5
3B
102
{ACAD_REACTORS
330
29
102
}
330
29
100
AcDbVisualStyle
  2
Sketchy
 70
    24
177
     3
291
     0
 70
    58
 90
        1
176
     1
 90
        2
176
     1
 90
        2
176
     1
 90
        0
176
     1
 40
0.6
176
     1
 40
30.0
176
     1
 62
     7
420
 16777215
176
     1
 90
        2
176
     1
 90
        2
176
     1
 62
     7
176
     1
 62
     7
176
     1
 90
        1
176
     1
 90
        1
176
     1
 40
40.0
176
     1
 90
       11
176
     1
 62
     7
176
     1
 40
1.0
176
     1
 90
        1
176
     1
 90
        6
176
     1
 90
        2
176
     1
 62
     7
176
     1
 90
        6
176
     1
 90
        0
176
     1
 90
        0
176
     1
290
     0
176
     1
 90
        1
176
     1
 40
0.0
176
     1
 90
        0
176
     1
290
     0
176
     1
290
     1
176
     1
290
     1
176
     1
290
     0
176
     1
290
     0
176
     1
290
     0
176
     1
290
     0
176
     1
290
     0
176
     1
290
     0
176
     1
 90
       50
176
     1
 40
0.0
176
     1
 40
1.0
176
     1
 90
        0
176
     1
 62
    18
420
        0
176
     1
 90
       50
176
     1
 90
        3
176
     1
 62
     5
420
      255
176
     1
290
     0
176
     1
 90
       50
176
     1
 90
       50
176
     1
 90
       50
176
     1
290
     0
176
     1
 90
       50
176
     1
 62
   256
176
     0
 40
1.0
176
     0
 90
        2
176
     1
  1
strokes_ogs.tif
176
     1
290
     0
176
     1
 40
1.0
176
     1
 40
1.0
176
     1
  0
VISUALSTYLE
  5
36
102
{ACAD_REACTORS
330
29
102
}
330
29
100
AcDbVisualStyle
  2
Thicken
 70
    13
177
     3
291
     1
 70
    58
 90
        2
176
     1
 90
        2
176
     1
 90
        0
176
     1
 90
        0
176
     1
 40
0.6
176
     1
 40
30.0
176
     1
 62
     7
420
 16777215
176
     1
 90
        1
176
     1
 90
        4
176
     1
 62
     7
176
     1
 62
   257
176
     1
 90
        1
176
     1
 90
        1
176
     1
 40
1.0
176
     1
 90
       12
176
     1
 62
     7
176
     1
 40
1.0
176
     1
 90
        1
176
     1
 90
        6
176
     1
 90
        2
176
     1
 62
     7
176
     1
 90
        5
176
     1
 90
        0
176
     1
 90
        0
176
     1
290
     0
176
     1
 90
        1
176
     1
 40
0.0
176
     1
 90
        0
176
     1
290
     0
176
     1
290
     1
176
     1
290
     1
176
     1
290
     0
176
     1
290
     0
176
     1
290
     0
176
     1
290
     0
176
     1
290
     0
176
     1
290
     0
176
     1
 90
       50
176
     1
 40
0.0
176
     1
 40
1.0
176
     1
 90
        0
176
     1
 62
    18
420
        0
176
     1
 90
       50
176
     1
 90
        3
176
     1
 62
     5
420
      255
176
     1
290
     0
176
     1
 90
       50
176
     1
 90
       50
176
     1
 90
       50
176
     1
290
     0
176
     1
 90
       50
176
     1
 62
   256
176
     0
 40
1.0
176
     0
 90
        2
176
     1
  1
strokes_ogs.tif
176
     1
290
     0
176
     1
 40
1.0
176
     1
 40
1.0
176
     1
  0
VISUALSTYLE
  5
30
102
{ACAD_REACTORS
330
29
102
}
330
29
100
AcDbVisualStyle
  2
Wireframe
 70
     5
177
     3
291
     0
 70
    58
 90
        0
176
     1
 90
        2
176
     1
 90
        0
176
     1
 90
        0
176
     1
 40
0.6
176
     1
 40
30.0
176
     1
 62
     7
420
 16777215
176
     1
 90
        1
176
     1
 90
        4
176
     1
 62
     7
176
     1
 62
   257
176
     1
 90
        1
176
     1
 90
        1
176
     1
 40
1.0
176
     1
 90
        0
176
     1
 62
   257
176
     1
 40
1.0
176
     1
 90
        1
176
     1
 90
        6
176
     1
 90
        2
176
     1
 62
     7
176
     1
 90
        3
176
     1
 90
        0
176
     1
 90
        0
176
     1
290
     0
176
     1
 90
        1
176
     1
 40
0.0
176
     1
 90
        0
176
     1
290
     0
176
     1
290
     1
176
     1
290
     1
176
     1
290
     0
176
     1
290
     0
176
     1
290
     0
176
     1
290
     0
176
     1
290
     0
176
     1
290
     0
176
     1
 90
       50
176
     1
 40
0.0
176
     1
 40
1.0
176
     1
 90
        0
176
     1
 62
    18
420
        0
176
     1
 90
       50
176
     1
 90
        3
176
     1
 62
     5
420
      255
176
     1
290
     0
176
     1
 90
       50
176
     1
 90
       50
176
     1
 90
       50
176
     1
290
     0
176
     1
 90
       50
176
     1
 62
   256
176
     0
 40
1.0
176
     0
 90
        2
176
     1
  1
strokes_ogs.tif
176
     1
290
     0
176
     1
 40
1.0
176
     1
 40
1.0
176
     1
  0
VISUALSTYLE
  5
3C
102
{ACAD_REACTORS
330
29
102
}
330
29
100
AcDbVisualStyle
  2
X-Ray
 70
    25
177
     3
291
     0
 70
    58
 90
        2
176
     1
 90
        2
176
     1
 90
        1
176
     1
 90
        1
176
     1
 40
0.5
176
     1
 40
30.0
176
     1
 62
     7
420
 16777215
176
     1
 90
        1
176
     1
 90
        0
176
     1
 62
     7
176
     1
 62
   257
176
     1
 90
        1
176
     1
 90
        1
176
     1
 40
1.0
176
     1
 90
        8
176
     1
 62
     7
176
     1
 40
1.0
176
     1
 90
        1
176
     1
 90
        6
176
     1
 90
        2
176
     1
 62
     7
176
     1
 90
        3
176
     1
 90
        0
176
     1
 90
        0
176
     1
290
     0
176
     1
 90
       13
176
     1
 40
0.0
176
     1
 90
        0
176
     1
290
     0
176
     1
290
     1
176
     1
290
     1
176
     1
290
     0
176
     1
290
     0
176
     1
290
     0
176
     1
290
     0
176
     1
290
     0
176
     1
290
     0
176
     1
 90
       50
176
     1
 40
0.0
176
     1
 40
1.0
176
     1
 90
        0
176
     1
 62
    18
420
        0
176
     1
 90
       50
176
     1
 90
        3
176
     1
 62
     5
420
      255
176
     1
290
     0
176
     1
 90
       50
176
     1
 90
       50
176
     1
 90
       50
176
     1
290
     0
176
     1
 90
       50
176
     1
 62
   256
176
     0
 40
1.0
176
     0
 90
        2
176
     1
  1
strokes_ogs.tif
176
     1
290
     0
176
     1
 40
1.0
176
     1
 40
1.0
176
     1
  0
DICTIONARYVAR
  5
28F
102
{ACAD_REACTORS
330
28A
102
}
330
28A
100
DictionaryVariables
280
     0
  1
1:1
  0
DICTIONARYVAR
  5
28C
102
{ACAD_REACTORS
330
28A
102
}
330
28A
100
DictionaryVariables
280
     0
  1
STANDARD
  0
DICTIONARYVAR
  5
28B
102
{ACAD_REACTORS
330
28A
102
}
330
28A
100
DictionaryVariables
280
     0
  1
STANDARD
  0
DICTIONARYVAR
  5
28D
102
{ACAD_REACTORS
330
28A
102
}
330
28A
100
DictionaryVariables
280
     0
  1
Imperial24
  0
DICTIONARYVAR
  5
28E
102
{ACAD_REACTORS
330
28A
102
}
330
28A
100
DictionaryVariables
280
     0
  1
Imperial24
  0
DICTIONARY
  5
1A
330
19
100
AcDbDictionary
280
     1
281
     1
  3
BUMPTILE
360
1C
  3
DIFFUSETILE
360
1B
  3
OPACITYTILE
360
1F
  3
REFLECTIONTILE
360
1E
  3
REFRACTIONTILE
360
20
  3
SPECULARTILE
360
1D
  0
DICTIONARY
  5
12
330
11
100
AcDbDictionary
280
     1
281
     1
  3
BUMPTILE
360
14
  3
DIFFUSETILE
360
13
  3
OPACITYTILE
360
17
  3
REFLECTIONTILE
360
16
  3
REFRACTIONTILE
360
18
  3
SPECULARTILE
360
15
  0
DICTIONARY
  5
22
330
21
100
AcDbDictionary
280
     1
281
     1
  3
BUMPTILE
360
24
  3
DIFFUSETILE
360
23
  3
OPACITYTILE
360
27
  3
REFLECTIONTILE
360
26
  3
REFRACTIONTILE
360
28
  3
SPECULARTILE
360
25
  0
DICTIONARY
  5
290
330
65
100
AcDbDictionary
280
     1
281
     1
  3
ACAD_ROUNDTRIP_2008_TABLESTYLE_CELLSTYLEMAP
360
291
  0
XRECORD
  5
1C
102
{ACAD_REACTORS
330
1A
102
}
330
1A
100
AcDbXrecord
280
     1
270
     1
271
     1
  0
XRECORD
  5
1B
102
{ACAD_REACTORS
330
1A
102
}
330
1A
100
AcDbXrecord
280
     1
270
     1
271
     1
  0
XRECORD
  5
1F
102
{ACAD_REACTORS
330
1A
102
}
330
1A
100
AcDbXrecord
280
     1
270
     1
271
     1
  0
XRECORD
  5
1E
102
{ACAD_REACTORS
330
1A
102
}
330
1A
100
AcDbXrecord
280
     1
270
     1
271
     1
  0
XRECORD
  5
20
102
{ACAD_REACTORS
330
1A
102
}
330
1A
100
AcDbXrecord
280
     1
270
     1
271
     1
  0
XRECORD
  5
1D
102
{ACAD_REACTORS
330
1A
102
}
330
1A
100
AcDbXrecord
280
     1
270
     1
271
     1
  0
XRECORD
  5
14
102
{ACAD_REACTORS
330
12
102
}
330
12
100
AcDbXrecord
280
     1
270
     1
271
     1
  0
XRECORD
  5
13
102
{ACAD_REACTORS
330
12
102
}
330
12
100
AcDbXrecord
280
     1
270
     1
271
     1
  0
XRECORD
  5
17
102
{ACAD_REACTORS
330
12
102
}
330
12
100
AcDbXrecord
280
     1
270
     1
271
     1
  0
XRECORD
  5
16
102
{ACAD_REACTORS
330
12
102
}
330
12
100
AcDbXrecord
280
     1
270
     1
271
     1
  0
XRECORD
  5
18
102
{ACAD_REACTORS
330
12
102
}
330
12
100
AcDbXrecord
280
     1
270
     1
271
     1
  0
XRECORD
  5
15
102
{ACAD_REACTORS
330
12
102
}
330
12
100
AcDbXrecord
280
     1
270
     1
271
     1
  0
XRECORD
  5
24
102
{ACAD_REACTORS
330
22
102
}
330
22
100
AcDbXrecord
280
     1
270
     1
271
     1
  0
XRECORD
  5
23
102
{ACAD_REACTORS
330
22
102
}
330
22
100
AcDbXrecord
280
     1
270
     1
271
     1
  0
XRECORD
  5
27
102
{ACAD_REACTORS
330
22
102
}
330
22
100
AcDbXrecord
280
     1
270
     1
271
     1
  0
XRECORD
  5
26
102
{ACAD_REACTORS
330
22
102
}
330
22
100
AcDbXrecord
280
     1
270
     1
271
     1
  0
XRECORD
  5
28
102
{ACAD_REACTORS
330
22
102
}
330
22
100
AcDbXrecord
280
     1
270
     1
271
     1
  0
XRECORD
  5
25
102
{ACAD_REACTORS
330
22
102
}
330
22
100
AcDbXrecord
280
     1
270
     1
271
     1
  0
CELLSTYLEMAP
  5
291
102
{ACAD_REACTORS
330
290
102
}
330
290
100
AcDbCellStyleMap
 90
        3
300
CELLSTYLE
  1
TABLEFORMAT_BEGIN
 90
        5
170
     1
 91
        0
 92
    32768
 62
   257
 93
        1
300
CONTENTFORMAT
  1
CONTENTFORMAT_BEGIN
 90
        0
 91
        0
 92
      512
 93
        0
300

 40
0.0
140
1.0
 94
        5
 62
     0
340
55
144
0.25
309
CONTENTFORMAT_END
171
     0
 94
        0
309
TABLEFORMAT_END
  1
CELLSTYLE_BEGIN
 90
        1
 91
        1
300
_TITLE
309
CELLSTYLE_END
300
CELLSTYLE
  1
TABLEFORMAT_BEGIN
 90
        5
170
     1
 91
        0
 92
        0
 62
   257
 93
        1
300
CONTENTFORMAT
  1
CONTENTFORMAT_BEGIN
 90
        0
 91
        0
 92
      512
 93
        0
300

 40
0.0
140
1.0
 94
        5
 62
     0
340
55
144
0.18
309
CONTENTFORMAT_END
171
     0
 94
        0
309
TABLEFORMAT_END
  1
CELLSTYLE_BEGIN
 90
        2
 91
        1
300
_HEADER
309
CELLSTYLE_END
300
CELLSTYLE
  1
TABLEFORMAT_BEGIN
 90
        5
170
     1
 91
        0
 92
        0
 62
   257
 93
        1
300
CONTENTFORMAT
  1
CONTENTFORMAT_BEGIN
 90
        0
 91
        0
 92
      512
 93
        0
300

 40
0.0
140
1.0
 94
        2
 62
     0
340
55
144
0.18
309
CONTENTFORMAT_END
171
     0
 94
        0
309
TABLEFORMAT_END
  1
CELLSTYLE_BEGIN
 90
        3
 91
        2
300
_DATA
309
CELLSTYLE_END
  0
ENDSEC
  0
EOF
