  0
SECTION
  2
HEADER
  9
$ACADVER
  1
AC1009
  9
$EXTMIN
 10
0.0
 20
0.0
 30
0.0
  9
$EXTMAX
 10
1000.0
 20
1000.0
 30
0.0
  9
$FILLMODE
 70
 0
  9
$SPLFRAME
 70
 1
  0
ENDSEC
  0
SECTION
  2
TABLES
  0
TABLE
  2
LAYER
 70
1
  0
LAYER
  2
0
 70
     0
 62
     7
  6
CONTINUOUS
  0
ENDTAB
  0
ENDSEC
  0
SECTION
  2
ENTITIES
  0
LINE
  8
0
 62
     0
 10
408.097
 20
120.202
 30
0.0
 11
408.333
 21
120.192
 31
0.0
  0
LINE
  8
0
 62
     0
 10
408.333
 20
120.192
 30
0.0
 11
408.566
 21
120.166
 31
0.0
  0
LINE
  8
0
 62
     0
 10
408.566
 20
120.166
 30
0.0
 11
408.795
 21
120.119
 31
0.0
  0
LINE
  8
0
 62
     0
 10
408.795
 20
120.119
 30
0.0
 11
409.025
 21
120.056
 31
0.0
  0
LINE
  8
0
 62
     0
 10
409.025
 20
120.056
 30
0.0
 11
409.243
 21
119.973
 31
0.0
  0
LINE
  8
0
 62
     0
 10
409.243
 20
119.973
 30
0.0
 11
409.459
 21
119.876
 31
0.0
  0
LINE
  8
0
 62
     0
 10
409.459
 20
119.876
 30
0.0
 11
409.663
 21
119.76
 31
0.0
  0
LINE
  8
0
 62
     0
 10
409.663
 20
119.76
 30
0.0
 11
409.857
 21
119.63
 31
0.0
  0
LINE
  8
0
 62
     0
 10
409.857
 20
119.63
 30
0.0
 11
410.044
 21
119.484
 31
0.0
  0
LINE
  8
0
 62
     0
 10
410.044
 20
119.484
 30
0.0
 11
410.217
 21
119.324
 31
0.0
  0
LINE
  8
0
 62
     0
 10
410.217
 20
119.324
 30
0.0
 11
410.376
 21
119.151
 31
0.0
  0
LINE
  8
0
 62
     0
 10
410.376
 20
119.151
 30
0.0
 11
410.524
 21
118.966
 31
0.0
  0
LINE
  8
0
 62
     0
 10
410.524
 20
118.966
 30
0.0
 11
410.655
 21
118.77
 31
0.0
  0
LINE
  8
0
 62
     0
 10
410.655
 20
118.77
 30
0.0
 11
410.771
 21
118.564
 31
0.0
  0
LINE
  8
0
 62
     0
 10
410.771
 20
118.564
 30
0.0
 11
410.866
 21
118.35
 31
0.0
  0
LINE
  8
0
 62
     0
 10
410.866
 20
118.35
 30
0.0
 11
410.947
 21
118.129
 31
0.0
  0
LINE
  8
0
 62
     0
 10
410.947
 20
118.129
 30
0.0
 11
411.014
 21
117.902
 31
0.0
  0
LINE
  8
0
 62
     0
 10
411.014
 20
117.902
 30
0.0
 11
411.06
 21
117.672
 31
0.0
  0
LINE
  8
0
 62
     0
 10
411.06
 20
117.672
 30
0.0
 11
411.088
 21
117.438
 31
0.0
  0
LINE
  8
0
 62
     0
 10
411.088
 20
117.438
 30
0.0
 11
411.095
 21
117.202
 31
0.0
  0
LINE
  8
0
 62
     0
 10
411.095
 20
117.202
 30
0.0
 11
411.095
 21
3.18878
 31
0.0
  0
LINE
  8
0
 62
     0
 10
411.095
 20
3.18878
 30
0.0
 11
411.088
 21
2.95313
 31
0.0
  0
LINE
  8
0
 62
     0
 10
411.088
 20
2.95313
 30
0.0
 11
411.06
 21
2.72025
 31
0.0
  0
LINE
  8
0
 62
     0
 10
411.06
 20
2.72025
 30
0.0
 11
411.014
 21
2.48874
 31
0.0
  0
LINE
  8
0
 62
     0
 10
411.014
 20
2.48874
 30
0.0
 11
410.947
 21
2.26136
 31
0.0
  0
LINE
  8
0
 62
     0
 10
410.947
 20
2.26136
 30
0.0
 11
410.866
 21
2.04088
 31
0.0
  0
LINE
  8
0
 62
     0
 10
410.866
 20
2.04088
 30
0.0
 11
410.771
 21
1.82728
 31
0.0
  0
LINE
  8
0
 62
     0
 10
410.771
 20
1.82728
 30
0.0
 11
410.655
 21
1.62195
 31
0.0
  0
LINE
  8
0
 62
     0
 10
410.655
 20
1.62195
 30
0.0
 11
410.524
 21
1.42627
 31
0.0
  0
LINE
  8
0
 62
     0
 10
410.524
 20
1.42627
 30
0.0
 11
410.376
 21
1.24024
 31
0.0
  0
LINE
  8
0
 62
     0
 10
410.376
 20
1.24024
 30
0.0
 11
410.217
 21
1.06798
 31
0.0
  0
LINE
  8
0
 62
     0
 10
410.217
 20
1.06798
 30
0.0
 11
410.044
 21
0.908128
 31
0.0
  0
LINE
  8
0
 62
     0
 10
410.044
 20
0.908128
 30
0.0
 11
409.857
 21
0.762056
 31
0.0
  0
LINE
  8
0
 62
     0
 10
409.857
 20
0.762056
 30
0.0
 11
409.663
 21
0.631141
 31
0.0
  0
LINE
  8
0
 62
     0
 10
409.663
 20
0.631141
 30
0.0
 11
409.459
 21
0.515387
 31
0.0
  0
LINE
  8
0
 62
     0
 10
409.459
 20
0.515387
 30
0.0
 11
409.243
 21
0.416168
 31
0.0
  0
LINE
  8
0
 62
     0
 10
409.243
 20
0.416168
 30
0.0
 11
409.025
 21
0.336241
 31
0.0
  0
LINE
  8
0
 62
     0
 10
409.025
 20
0.336241
 30
0.0
 11
408.795
 21
0.271473
 31
0.0
  0
LINE
  8
0
 62
     0
 10
408.795
 20
0.271473
 30
0.0
 11
408.566
 21
0.225998
 31
0.0
  0
LINE
  8
0
 62
     0
 10
408.566
 20
0.225998
 30
0.0
 11
408.333
 21
0.19706
 31
0.0
  0
LINE
  8
0
 62
     0
 10
408.333
 20
0.19706
 30
0.0
 11
408.097
 21
0.188791
 31
0.0
  0
LINE
  8
0
 62
     0
 10
408.097
 20
0.188791
 30
0.0
 11
3.09507
 21
0.188791
 31
0.0
  0
LINE
  8
0
 62
     0
 10
3.09507
 20
0.188791
 30
0.0
 11
2.85943
 21
0.19706
 31
0.0
  0
LINE
  8
0
 62
     0
 10
2.85943
 20
0.19706
 30
0.0
 11
2.62516
 21
0.225998
 31
0.0
  0
LINE
  8
0
 62
     0
 10
2.62516
 20
0.225998
 30
0.0
 11
2.39503
 21
0.271473
 31
0.0
  0
LINE
  8
0
 62
     0
 10
2.39503
 20
0.271473
 30
0.0
 11
2.16765
 21
0.336241
 31
0.0
  0
LINE
  8
0
 62
     0
 10
2.16765
 20
0.336241
 30
0.0
 11
1.94717
 21
0.416168
 31
0.0
  0
LINE
  8
0
 62
     0
 10
1.94717
 20
0.416168
 30
0.0
 11
1.73357
 21
0.515387
 31
0.0
  0
LINE
  8
0
 62
     0
 10
1.73357
 20
0.515387
 30
0.0
 11
1.52687
 21
0.631141
 31
0.0
  0
LINE
  8
0
 62
     0
 10
1.52687
 20
0.631141
 30
0.0
 11
1.33119
 21
0.762056
 31
0.0
  0
LINE
  8
0
 62
     0
 10
1.33119
 20
0.762056
 30
0.0
 11
1.14653
 21
0.908128
 31
0.0
  0
LINE
  8
0
 62
     0
 10
1.14653
 20
0.908128
 30
0.0
 11
0.972894
 21
1.06798
 31
0.0
  0
LINE
  8
0
 62
     0
 10
0.972894
 20
1.06798
 30
0.0
 11
0.813043
 21
1.24024
 31
0.0
  0
LINE
  8
0
 62
     0
 10
0.813043
 20
1.24024
 30
0.0
 11
0.666972
 21
1.42627
 31
0.0
  0
LINE
  8
0
 62
     0
 10
0.666972
 20
1.42627
 30
0.0
 11
0.537436
 21
1.62195
 31
0.0
  0
LINE
  8
0
 62
     0
 10
0.537436
 20
1.62195
 30
0.0
 11
0.421679
 21
1.82728
 31
0.0
  0
LINE
  8
0
 62
     0
 10
0.421679
 20
1.82728
 30
0.0
 11
0.323839
 21
2.04088
 31
0.0
  0
LINE
  8
0
 62
     0
 10
0.323839
 20
2.04088
 30
0.0
 11
0.241157
 21
2.26136
 31
0.0
  0
LINE
  8
0
 62
     0
 10
0.241157
 20
2.26136
 30
0.0
 11
0.177767
 21
2.48874
 31
0.0
  0
LINE
  8
0
 62
     0
 10
0.177767
 20
2.48874
 30
0.0
 11
0.130914
 21
2.72025
 31
0.0
  0
LINE
  8
0
 62
     0
 10
0.130914
 20
2.72025
 30
0.0
 11
0.104731
 21
2.95313
 31
0.0
  0
LINE
  8
0
 62
     0
 10
0.104731
 20
2.95313
 30
0.0
 11
0.0950846
 21
3.18878
 31
0.0
  0
LINE
  8
0
 62
     0
 10
0.0950846
 20
3.18878
 30
0.0
 11
0.0950846
 21
117.202
 31
0.0
  0
LINE
  8
0
 62
     0
 10
0.0950846
 20
117.202
 30
0.0
 11
0.104731
 21
117.438
 31
0.0
  0
LINE
  8
0
 62
     0
 10
0.104731
 20
117.438
 30
0.0
 11
0.130914
 21
117.672
 31
0.0
  0
LINE
  8
0
 62
     0
 10
0.130914
 20
117.672
 30
0.0
 11
0.177767
 21
117.902
 31
0.0
  0
LINE
  8
0
 62
     0
 10
0.177767
 20
117.902
 30
0.0
 11
0.241157
 21
118.129
 31
0.0
  0
LINE
  8
0
 62
     0
 10
0.241157
 20
118.129
 30
0.0
 11
0.323839
 21
118.35
 31
0.0
  0
LINE
  8
0
 62
     0
 10
0.323839
 20
118.35
 30
0.0
 11
0.421679
 21
118.564
 31
0.0
  0
LINE
  8
0
 62
     0
 10
0.421679
 20
118.564
 30
0.0
 11
0.537436
 21
118.77
 31
0.0
  0
LINE
  8
0
 62
     0
 10
0.537436
 20
118.77
 30
0.0
 11
0.666972
 21
118.966
 31
0.0
  0
LINE
  8
0
 62
     0
 10
0.666972
 20
118.966
 30
0.0
 11
0.813043
 21
119.151
 31
0.0
  0
LINE
  8
0
 62
     0
 10
0.813043
 20
119.151
 30
0.0
 11
0.972894
 21
119.324
 31
0.0
  0
LINE
  8
0
 62
     0
 10
0.972894
 20
119.324
 30
0.0
 11
1.14653
 21
119.484
 31
0.0
  0
LINE
  8
0
 62
     0
 10
1.14653
 20
119.484
 30
0.0
 11
1.33119
 21
119.63
 31
0.0
  0
LINE
  8
0
 62
     0
 10
1.33119
 20
119.63
 30
0.0
 11
1.52687
 21
119.76
 31
0.0
  0
LINE
  8
0
 62
     0
 10
1.52687
 20
119.76
 30
0.0
 11
1.73357
 21
119.876
 31
0.0
  0
LINE
  8
0
 62
     0
 10
1.73357
 20
119.876
 30
0.0
 11
1.94717
 21
119.973
 31
0.0
  0
LINE
  8
0
 62
     0
 10
1.94717
 20
119.973
 30
0.0
 11
2.16765
 21
120.056
 31
0.0
  0
LINE
  8
0
 62
     0
 10
2.16765
 20
120.056
 30
0.0
 11
2.39503
 21
120.119
 31
0.0
  0
LINE
  8
0
 62
     0
 10
2.39503
 20
120.119
 30
0.0
 11
2.62516
 21
120.166
 31
0.0
  0
LINE
  8
0
 62
     0
 10
2.62516
 20
120.166
 30
0.0
 11
2.85943
 21
120.192
 31
0.0
  0
LINE
  8
0
 62
     0
 10
2.85943
 20
120.192
 30
0.0
 11
3.09507
 21
120.202
 31
0.0
  0
LINE
  8
0
 62
     0
 10
3.09507
 20
120.202
 30
0.0
 11
408.097
 21
120.202
 31
0.0
  0
LINE
  8
0
 62
     0
 10
2.78501
 20
4.13964
 30
0.0
 11
2.50803
 21
3.99768
 31
0.0
  0
LINE
  8
0
 62
     0
 10
2.50803
 20
3.99768
 30
0.0
 11
2.28617
 21
3.77719
 31
0.0
  0
LINE
  8
0
 62
     0
 10
2.28617
 20
3.77719
 30
0.0
 11
2.14285
 21
3.49746
 31
0.0
  0
LINE
  8
0
 62
     0
 10
2.14285
 20
3.49746
 30
0.0
 11
2.09462
 21
3.18878
 31
0.0
  0
LINE
  8
0
 62
     0
 10
2.09462
 20
3.18878
 30
0.0
 11
2.14285
 21
2.8801
 31
0.0
  0
LINE
  8
0
 62
     0
 10
2.14285
 20
2.8801
 30
0.0
 11
2.28617
 21
2.60036
 31
0.0
  0
LINE
  8
0
 62
     0
 10
2.28617
 20
2.60036
 30
0.0
 11
2.50803
 21
2.37987
 31
0.0
  0
LINE
  8
0
 62
     0
 10
2.50803
 20
2.37987
 30
0.0
 11
2.78501
 21
2.23793
 31
0.0
  0
LINE
  8
0
 62
     0
 10
2.78501
 20
2.23793
 30
0.0
 11
3.09507
 21
2.18833
 31
0.0
  0
LINE
  8
0
 62
     0
 10
3.09507
 20
2.18833
 30
0.0
 11
3.40513
 21
2.23793
 31
0.0
  0
LINE
  8
0
 62
     0
 10
3.40513
 20
2.23793
 30
0.0
 11
3.68212
 21
2.37987
 31
0.0
  0
LINE
  8
0
 62
     0
 10
3.68212
 20
2.37987
 30
0.0
 11
3.90398
 21
2.60036
 31
0.0
  0
LINE
  8
0
 62
     0
 10
3.90398
 20
2.60036
 30
0.0
 11
4.04594
 21
2.8801
 31
0.0
  0
LINE
  8
0
 62
     0
 10
4.04594
 20
2.8801
 30
0.0
 11
4.09416
 21
3.18878
 31
0.0
  0
LINE
  8
0
 62
     0
 10
4.09416
 20
3.18878
 30
0.0
 11
4.04594
 21
3.49746
 31
0.0
  0
LINE
  8
0
 62
     0
 10
4.04594
 20
3.49746
 30
0.0
 11
3.90398
 21
3.77719
 31
0.0
  0
LINE
  8
0
 62
     0
 10
3.90398
 20
3.77719
 30
0.0
 11
3.68212
 21
3.99768
 31
0.0
  0
LINE
  8
0
 62
     0
 10
3.68212
 20
3.99768
 30
0.0
 11
3.40513
 21
4.13964
 31
0.0
  0
LINE
  8
0
 62
     0
 10
3.40513
 20
4.13964
 30
0.0
 11
3.09507
 21
4.18924
 31
0.0
  0
LINE
  8
0
 62
     0
 10
3.09507
 20
4.18924
 30
0.0
 11
2.78501
 21
4.13964
 31
0.0
  0
LINE
  8
0
 62
     0
 10
104.036
 20
4.13964
 30
0.0
 11
103.758
 21
3.99768
 31
0.0
  0
LINE
  8
0
 62
     0
 10
103.758
 20
3.99768
 30
0.0
 11
103.536
 21
3.77719
 31
0.0
  0
LINE
  8
0
 62
     0
 10
103.536
 20
3.77719
 30
0.0
 11
103.394
 21
3.49746
 31
0.0
  0
LINE
  8
0
 62
     0
 10
103.394
 20
3.49746
 30
0.0
 11
103.346
 21
3.18878
 31
0.0
  0
LINE
  8
0
 62
     0
 10
103.346
 20
3.18878
 30
0.0
 11
103.394
 21
2.8801
 31
0.0
  0
LINE
  8
0
 62
     0
 10
103.394
 20
2.8801
 30
0.0
 11
103.536
 21
2.60036
 31
0.0
  0
LINE
  8
0
 62
     0
 10
103.536
 20
2.60036
 30
0.0
 11
103.758
 21
2.37987
 31
0.0
  0
LINE
  8
0
 62
     0
 10
103.758
 20
2.37987
 30
0.0
 11
104.036
 21
2.23793
 31
0.0
  0
LINE
  8
0
 62
     0
 10
104.036
 20
2.23793
 30
0.0
 11
104.345
 21
2.18833
 31
0.0
  0
LINE
  8
0
 62
     0
 10
104.345
 20
2.18833
 30
0.0
 11
104.655
 21
2.23793
 31
0.0
  0
LINE
  8
0
 62
     0
 10
104.655
 20
2.23793
 30
0.0
 11
104.933
 21
2.37987
 31
0.0
  0
LINE
  8
0
 62
     0
 10
104.933
 20
2.37987
 30
0.0
 11
105.154
 21
2.60036
 31
0.0
  0
LINE
  8
0
 62
     0
 10
105.154
 20
2.60036
 30
0.0
 11
105.296
 21
2.8801
 31
0.0
  0
LINE
  8
0
 62
     0
 10
105.296
 20
2.8801
 30
0.0
 11
105.345
 21
3.18878
 31
0.0
  0
LINE
  8
0
 62
     0
 10
105.345
 20
3.18878
 30
0.0
 11
105.296
 21
3.49746
 31
0.0
  0
LINE
  8
0
 62
     0
 10
105.296
 20
3.49746
 30
0.0
 11
105.154
 21
3.77719
 31
0.0
  0
LINE
  8
0
 62
     0
 10
105.154
 20
3.77719
 30
0.0
 11
104.933
 21
3.99768
 31
0.0
  0
LINE
  8
0
 62
     0
 10
104.933
 20
3.99768
 30
0.0
 11
104.655
 21
4.13964
 31
0.0
  0
LINE
  8
0
 62
     0
 10
104.655
 20
4.13964
 30
0.0
 11
104.345
 21
4.18924
 31
0.0
  0
LINE
  8
0
 62
     0
 10
104.345
 20
4.18924
 30
0.0
 11
104.036
 21
4.13964
 31
0.0
  0
LINE
  8
0
 62
     0
 10
205.286
 20
4.13964
 30
0.0
 11
205.008
 21
3.99768
 31
0.0
  0
LINE
  8
0
 62
     0
 10
205.008
 20
3.99768
 30
0.0
 11
204.786
 21
3.77719
 31
0.0
  0
LINE
  8
0
 62
     0
 10
204.786
 20
3.77719
 30
0.0
 11
204.644
 21
3.49746
 31
0.0
  0
LINE
  8
0
 62
     0
 10
204.644
 20
3.49746
 30
0.0
 11
204.596
 21
3.18878
 31
0.0
  0
LINE
  8
0
 62
     0
 10
204.596
 20
3.18878
 30
0.0
 11
204.644
 21
2.8801
 31
0.0
  0
LINE
  8
0
 62
     0
 10
204.644
 20
2.8801
 30
0.0
 11
204.786
 21
2.60036
 31
0.0
  0
LINE
  8
0
 62
     0
 10
204.786
 20
2.60036
 30
0.0
 11
205.008
 21
2.37987
 31
0.0
  0
LINE
  8
0
 62
     0
 10
205.008
 20
2.37987
 30
0.0
 11
205.286
 21
2.23793
 31
0.0
  0
LINE
  8
0
 62
     0
 10
205.286
 20
2.23793
 30
0.0
 11
205.595
 21
2.18833
 31
0.0
  0
LINE
  8
0
 62
     0
 10
205.595
 20
2.18833
 30
0.0
 11
205.905
 21
2.23793
 31
0.0
  0
LINE
  8
0
 62
     0
 10
205.905
 20
2.23793
 30
0.0
 11
206.183
 21
2.37987
 31
0.0
  0
LINE
  8
0
 62
     0
 10
206.183
 20
2.37987
 30
0.0
 11
206.404
 21
2.60036
 31
0.0
  0
LINE
  8
0
 62
     0
 10
206.404
 20
2.60036
 30
0.0
 11
206.546
 21
2.8801
 31
0.0
  0
LINE
  8
0
 62
     0
 10
206.546
 20
2.8801
 30
0.0
 11
206.595
 21
3.18878
 31
0.0
  0
LINE
  8
0
 62
     0
 10
206.595
 20
3.18878
 30
0.0
 11
206.546
 21
3.49746
 31
0.0
  0
LINE
  8
0
 62
     0
 10
206.546
 20
3.49746
 30
0.0
 11
206.404
 21
3.77719
 31
0.0
  0
LINE
  8
0
 62
     0
 10
206.404
 20
3.77719
 30
0.0
 11
206.183
 21
3.99768
 31
0.0
  0
LINE
  8
0
 62
     0
 10
206.183
 20
3.99768
 30
0.0
 11
205.905
 21
4.13964
 31
0.0
  0
LINE
  8
0
 62
     0
 10
205.905
 20
4.13964
 30
0.0
 11
205.595
 21
4.18924
 31
0.0
  0
LINE
  8
0
 62
     0
 10
205.595
 20
4.18924
 30
0.0
 11
205.286
 21
4.13964
 31
0.0
  0
LINE
  8
0
 62
     0
 10
306.536
 20
4.13964
 30
0.0
 11
306.258
 21
3.99768
 31
0.0
  0
LINE
  8
0
 62
     0
 10
306.258
 20
3.99768
 30
0.0
 11
306.036
 21
3.77719
 31
0.0
  0
LINE
  8
0
 62
     0
 10
306.036
 20
3.77719
 30
0.0
 11
305.894
 21
3.49746
 31
0.0
  0
LINE
  8
0
 62
     0
 10
305.894
 20
3.49746
 30
0.0
 11
305.846
 21
3.18878
 31
0.0
  0
LINE
  8
0
 62
     0
 10
305.846
 20
3.18878
 30
0.0
 11
305.894
 21
2.8801
 31
0.0
  0
LINE
  8
0
 62
     0
 10
305.894
 20
2.8801
 30
0.0
 11
306.036
 21
2.60036
 31
0.0
  0
LINE
  8
0
 62
     0
 10
306.036
 20
2.60036
 30
0.0
 11
306.258
 21
2.37987
 31
0.0
  0
LINE
  8
0
 62
     0
 10
306.258
 20
2.37987
 30
0.0
 11
306.536
 21
2.23793
 31
0.0
  0
LINE
  8
0
 62
     0
 10
306.536
 20
2.23793
 30
0.0
 11
306.845
 21
2.18833
 31
0.0
  0
LINE
  8
0
 62
     0
 10
306.845
 20
2.18833
 30
0.0
 11
307.155
 21
2.23793
 31
0.0
  0
LINE
  8
0
 62
     0
 10
307.155
 20
2.23793
 30
0.0
 11
307.433
 21
2.37987
 31
0.0
  0
LINE
  8
0
 62
     0
 10
307.433
 20
2.37987
 30
0.0
 11
307.654
 21
2.60036
 31
0.0
  0
LINE
  8
0
 62
     0
 10
307.654
 20
2.60036
 30
0.0
 11
307.796
 21
2.8801
 31
0.0
  0
LINE
  8
0
 62
     0
 10
307.796
 20
2.8801
 30
0.0
 11
307.846
 21
3.18878
 31
0.0
  0
LINE
  8
0
 62
     0
 10
307.846
 20
3.18878
 30
0.0
 11
307.796
 21
3.49746
 31
0.0
  0
LINE
  8
0
 62
     0
 10
307.796
 20
3.49746
 30
0.0
 11
307.654
 21
3.77719
 31
0.0
  0
LINE
  8
0
 62
     0
 10
307.654
 20
3.77719
 30
0.0
 11
307.433
 21
3.99768
 31
0.0
  0
LINE
  8
0
 62
     0
 10
307.433
 20
3.99768
 30
0.0
 11
307.155
 21
4.13964
 31
0.0
  0
LINE
  8
0
 62
     0
 10
307.155
 20
4.13964
 30
0.0
 11
306.845
 21
4.18924
 31
0.0
  0
LINE
  8
0
 62
     0
 10
306.845
 20
4.18924
 30
0.0
 11
306.536
 21
4.13964
 31
0.0
  0
LINE
  8
0
 62
     0
 10
407.786
 20
4.13964
 30
0.0
 11
407.508
 21
3.99768
 31
0.0
  0
LINE
  8
0
 62
     0
 10
407.508
 20
3.99768
 30
0.0
 11
407.285
 21
3.77719
 31
0.0
  0
LINE
  8
0
 62
     0
 10
407.285
 20
3.77719
 30
0.0
 11
407.144
 21
3.49746
 31
0.0
  0
LINE
  8
0
 62
     0
 10
407.144
 20
3.49746
 30
0.0
 11
407.095
 21
3.18878
 31
0.0
  0
LINE
  8
0
 62
     0
 10
407.095
 20
3.18878
 30
0.0
 11
407.144
 21
2.8801
 31
0.0
  0
LINE
  8
0
 62
     0
 10
407.144
 20
2.8801
 30
0.0
 11
407.285
 21
2.60036
 31
0.0
  0
LINE
  8
0
 62
     0
 10
407.285
 20
2.60036
 30
0.0
 11
407.508
 21
2.37987
 31
0.0
  0
LINE
  8
0
 62
     0
 10
407.508
 20
2.37987
 30
0.0
 11
407.786
 21
2.23793
 31
0.0
  0
LINE
  8
0
 62
     0
 10
407.786
 20
2.23793
 30
0.0
 11
408.097
 21
2.18833
 31
0.0
  0
LINE
  8
0
 62
     0
 10
408.097
 20
2.18833
 30
0.0
 11
408.404
 21
2.23793
 31
0.0
  0
LINE
  8
0
 62
     0
 10
408.404
 20
2.23793
 30
0.0
 11
408.682
 21
2.37987
 31
0.0
  0
LINE
  8
0
 62
     0
 10
408.682
 20
2.37987
 30
0.0
 11
408.905
 21
2.60036
 31
0.0
  0
LINE
  8
0
 62
     0
 10
408.905
 20
2.60036
 30
0.0
 11
409.046
 21
2.8801
 31
0.0
  0
LINE
  8
0
 62
     0
 10
409.046
 20
2.8801
 30
0.0
 11
409.095
 21
3.18878
 31
0.0
  0
LINE
  8
0
 62
     0
 10
409.095
 20
3.18878
 30
0.0
 11
409.046
 21
3.49746
 31
0.0
  0
LINE
  8
0
 62
     0
 10
409.046
 20
3.49746
 30
0.0
 11
408.905
 21
3.77719
 31
0.0
  0
LINE
  8
0
 62
     0
 10
408.905
 20
3.77719
 30
0.0
 11
408.682
 21
3.99768
 31
0.0
  0
LINE
  8
0
 62
     0
 10
408.682
 20
3.99768
 30
0.0
 11
408.404
 21
4.13964
 31
0.0
  0
LINE
  8
0
 62
     0
 10
408.404
 20
4.13964
 30
0.0
 11
408.097
 21
4.18924
 31
0.0
  0
LINE
  8
0
 62
     0
 10
408.097
 20
4.18924
 30
0.0
 11
407.786
 21
4.13964
 31
0.0
  0
LINE
  8
0
 62
     0
 10
6.09505
 20
114.202
 30
0.0
 11
405.095
 21
114.202
 31
0.0
  0
LINE
  8
0
 62
     0
 10
405.095
 20
114.202
 30
0.0
 11
405.095
 21
6.18878
 31
0.0
  0
LINE
  8
0
 62
     0
 10
405.095
 20
6.18878
 30
0.0
 11
6.09505
 21
6.18878
 31
0.0
  0
LINE
  8
0
 62
     0
 10
6.09505
 20
6.18878
 30
0.0
 11
6.09505
 21
114.202
 31
0.0
  0
LINE
  8
0
 62
     0
 10
2.78501
 20
61.1463
 30
0.0
 11
2.50803
 21
61.0044
 31
0.0
  0
LINE
  8
0
 62
     0
 10
2.50803
 20
61.0044
 30
0.0
 11
2.28617
 21
60.784
 31
0.0
  0
LINE
  8
0
 62
     0
 10
2.28617
 20
60.784
 30
0.0
 11
2.14285
 21
60.5042
 31
0.0
  0
LINE
  8
0
 62
     0
 10
2.14285
 20
60.5042
 30
0.0
 11
2.09462
 21
60.1955
 31
0.0
  0
LINE
  8
0
 62
     0
 10
2.09462
 20
60.1955
 30
0.0
 11
2.14285
 21
59.8868
 31
0.0
  0
LINE
  8
0
 62
     0
 10
2.14285
 20
59.8868
 30
0.0
 11
2.28617
 21
59.6085
 31
0.0
  0
LINE
  8
0
 62
     0
 10
2.28617
 20
59.6085
 30
0.0
 11
2.50803
 21
59.3866
 31
0.0
  0
LINE
  8
0
 62
     0
 10
2.50803
 20
59.3866
 30
0.0
 11
2.78501
 21
59.2448
 31
0.0
  0
LINE
  8
0
 62
     0
 10
2.78501
 20
59.2448
 30
0.0
 11
3.09507
 21
59.1965
 31
0.0
  0
LINE
  8
0
 62
     0
 10
3.09507
 20
59.1965
 30
0.0
 11
3.40513
 21
59.2448
 31
0.0
  0
LINE
  8
0
 62
     0
 10
3.40513
 20
59.2448
 30
0.0
 11
3.68212
 21
59.3866
 31
0.0
  0
LINE
  8
0
 62
     0
 10
3.68212
 20
59.3866
 30
0.0
 11
3.90398
 21
59.6085
 31
0.0
  0
LINE
  8
0
 62
     0
 10
3.90398
 20
59.6085
 30
0.0
 11
4.04594
 21
59.8868
 31
0.0
  0
LINE
  8
0
 62
     0
 10
4.04594
 20
59.8868
 30
0.0
 11
4.09416
 21
60.1955
 31
0.0
  0
LINE
  8
0
 62
     0
 10
4.09416
 20
60.1955
 30
0.0
 11
4.04594
 21
60.5042
 31
0.0
  0
LINE
  8
0
 62
     0
 10
4.04594
 20
60.5042
 30
0.0
 11
3.90398
 21
60.784
 31
0.0
  0
LINE
  8
0
 62
     0
 10
3.90398
 20
60.784
 30
0.0
 11
3.68212
 21
61.0044
 31
0.0
  0
LINE
  8
0
 62
     0
 10
3.68212
 20
61.0044
 30
0.0
 11
3.40513
 21
61.1463
 31
0.0
  0
LINE
  8
0
 62
     0
 10
3.40513
 20
61.1463
 30
0.0
 11
3.09507
 21
61.196
 31
0.0
  0
LINE
  8
0
 62
     0
 10
3.09507
 20
61.196
 30
0.0
 11
2.78501
 21
61.1463
 31
0.0
  0
LINE
  8
0
 62
     0
 10
407.786
 20
61.1463
 30
0.0
 11
407.508
 21
61.0044
 31
0.0
  0
LINE
  8
0
 62
     0
 10
407.508
 20
61.0044
 30
0.0
 11
407.285
 21
60.784
 31
0.0
  0
LINE
  8
0
 62
     0
 10
407.285
 20
60.784
 30
0.0
 11
407.144
 21
60.5042
 31
0.0
  0
LINE
  8
0
 62
     0
 10
407.144
 20
60.5042
 30
0.0
 11
407.095
 21
60.1955
 31
0.0
  0
LINE
  8
0
 62
     0
 10
407.095
 20
60.1955
 30
0.0
 11
407.144
 21
59.8868
 31
0.0
  0
LINE
  8
0
 62
     0
 10
407.144
 20
59.8868
 30
0.0
 11
407.285
 21
59.6085
 31
0.0
  0
LINE
  8
0
 62
     0
 10
407.285
 20
59.6085
 30
0.0
 11
407.508
 21
59.3866
 31
0.0
  0
LINE
  8
0
 62
     0
 10
407.508
 20
59.3866
 30
0.0
 11
407.786
 21
59.2448
 31
0.0
  0
LINE
  8
0
 62
     0
 10
407.786
 20
59.2448
 30
0.0
 11
408.097
 21
59.1965
 31
0.0
  0
LINE
  8
0
 62
     0
 10
408.097
 20
59.1965
 30
0.0
 11
408.404
 21
59.2448
 31
0.0
  0
LINE
  8
0
 62
     0
 10
408.404
 20
59.2448
 30
0.0
 11
408.682
 21
59.3866
 31
0.0
  0
LINE
  8
0
 62
     0
 10
408.682
 20
59.3866
 30
0.0
 11
408.905
 21
59.6085
 31
0.0
  0
LINE
  8
0
 62
     0
 10
408.905
 20
59.6085
 30
0.0
 11
409.046
 21
59.8868
 31
0.0
  0
LINE
  8
0
 62
     0
 10
409.046
 20
59.8868
 30
0.0
 11
409.095
 21
60.1955
 31
0.0
  0
LINE
  8
0
 62
     0
 10
409.095
 20
60.1955
 30
0.0
 11
409.046
 21
60.5042
 31
0.0
  0
LINE
  8
0
 62
     0
 10
409.046
 20
60.5042
 30
0.0
 11
408.905
 21
60.784
 31
0.0
  0
LINE
  8
0
 62
     0
 10
408.905
 20
60.784
 30
0.0
 11
408.682
 21
61.0044
 31
0.0
  0
LINE
  8
0
 62
     0
 10
408.682
 20
61.0044
 30
0.0
 11
408.404
 21
61.1463
 31
0.0
  0
LINE
  8
0
 62
     0
 10
408.404
 20
61.1463
 30
0.0
 11
408.097
 21
61.196
 31
0.0
  0
LINE
  8
0
 62
     0
 10
408.097
 20
61.196
 30
0.0
 11
407.786
 21
61.1463
 31
0.0
  0
LINE
  8
0
 62
     0
 10
2.78501
 20
118.154
 30
0.0
 11
2.50803
 21
118.011
 31
0.0
  0
LINE
  8
0
 62
     0
 10
2.50803
 20
118.011
 30
0.0
 11
2.28617
 21
117.789
 31
0.0
  0
LINE
  8
0
 62
     0
 10
2.28617
 20
117.789
 30
0.0
 11
2.14285
 21
117.512
 31
0.0
  0
LINE
  8
0
 62
     0
 10
2.14285
 20
117.512
 30
0.0
 11
2.09462
 21
117.202
 31
0.0
  0
LINE
  8
0
 62
     0
 10
2.09462
 20
117.202
 30
0.0
 11
2.14285
 21
116.892
 31
0.0
  0
LINE
  8
0
 62
     0
 10
2.14285
 20
116.892
 30
0.0
 11
2.28617
 21
116.615
 31
0.0
  0
LINE
  8
0
 62
     0
 10
2.28617
 20
116.615
 30
0.0
 11
2.50803
 21
116.393
 31
0.0
  0
LINE
  8
0
 62
     0
 10
2.50803
 20
116.393
 30
0.0
 11
2.78501
 21
116.251
 31
0.0
  0
LINE
  8
0
 62
     0
 10
2.78501
 20
116.251
 30
0.0
 11
3.09507
 21
116.202
 31
0.0
  0
LINE
  8
0
 62
     0
 10
3.09507
 20
116.202
 30
0.0
 11
3.40513
 21
116.251
 31
0.0
  0
LINE
  8
0
 62
     0
 10
3.40513
 20
116.251
 30
0.0
 11
3.68212
 21
116.393
 31
0.0
  0
LINE
  8
0
 62
     0
 10
3.68212
 20
116.393
 30
0.0
 11
3.90398
 21
116.615
 31
0.0
  0
LINE
  8
0
 62
     0
 10
3.90398
 20
116.615
 30
0.0
 11
4.04594
 21
116.892
 31
0.0
  0
LINE
  8
0
 62
     0
 10
4.04594
 20
116.892
 30
0.0
 11
4.09416
 21
117.202
 31
0.0
  0
LINE
  8
0
 62
     0
 10
4.09416
 20
117.202
 30
0.0
 11
4.04594
 21
117.512
 31
0.0
  0
LINE
  8
0
 62
     0
 10
4.04594
 20
117.512
 30
0.0
 11
3.90398
 21
117.789
 31
0.0
  0
LINE
  8
0
 62
     0
 10
3.90398
 20
117.789
 30
0.0
 11
3.68212
 21
118.011
 31
0.0
  0
LINE
  8
0
 62
     0
 10
3.68212
 20
118.011
 30
0.0
 11
3.40513
 21
118.154
 31
0.0
  0
LINE
  8
0
 62
     0
 10
3.40513
 20
118.154
 30
0.0
 11
3.09507
 21
118.201
 31
0.0
  0
LINE
  8
0
 62
     0
 10
3.09507
 20
118.201
 30
0.0
 11
2.78501
 21
118.154
 31
0.0
  0
LINE
  8
0
 62
     0
 10
407.786
 20
118.154
 30
0.0
 11
407.508
 21
118.011
 31
0.0
  0
LINE
  8
0
 62
     0
 10
407.508
 20
118.011
 30
0.0
 11
407.285
 21
117.789
 31
0.0
  0
LINE
  8
0
 62
     0
 10
407.285
 20
117.789
 30
0.0
 11
407.144
 21
117.512
 31
0.0
  0
LINE
  8
0
 62
     0
 10
407.144
 20
117.512
 30
0.0
 11
407.095
 21
117.202
 31
0.0
  0
LINE
  8
0
 62
     0
 10
407.095
 20
117.202
 30
0.0
 11
407.144
 21
116.892
 31
0.0
  0
LINE
  8
0
 62
     0
 10
407.144
 20
116.892
 30
0.0
 11
407.285
 21
116.615
 31
0.0
  0
LINE
  8
0
 62
     0
 10
407.285
 20
116.615
 30
0.0
 11
407.508
 21
116.393
 31
0.0
  0
LINE
  8
0
 62
     0
 10
407.508
 20
116.393
 30
0.0
 11
407.786
 21
116.251
 31
0.0
  0
LINE
  8
0
 62
     0
 10
407.786
 20
116.251
 30
0.0
 11
408.097
 21
116.202
 31
0.0
  0
LINE
  8
0
 62
     0
 10
408.097
 20
116.202
 30
0.0
 11
408.404
 21
116.251
 31
0.0
  0
LINE
  8
0
 62
     0
 10
408.404
 20
116.251
 30
0.0
 11
408.682
 21
116.393
 31
0.0
  0
LINE
  8
0
 62
     0
 10
408.682
 20
116.393
 30
0.0
 11
408.905
 21
116.615
 31
0.0
  0
LINE
  8
0
 62
     0
 10
408.905
 20
116.615
 30
0.0
 11
409.046
 21
116.892
 31
0.0
  0
LINE
  8
0
 62
     0
 10
409.046
 20
116.892
 30
0.0
 11
409.095
 21
117.202
 31
0.0
  0
LINE
  8
0
 62
     0
 10
409.095
 20
117.202
 30
0.0
 11
409.046
 21
117.512
 31
0.0
  0
LINE
  8
0
 62
     0
 10
409.046
 20
117.512
 30
0.0
 11
408.905
 21
117.789
 31
0.0
  0
LINE
  8
0
 62
     0
 10
408.905
 20
117.789
 30
0.0
 11
408.682
 21
118.011
 31
0.0
  0
LINE
  8
0
 62
     0
 10
408.682
 20
118.011
 30
0.0
 11
408.404
 21
118.154
 31
0.0
  0
LINE
  8
0
 62
     0
 10
408.404
 20
118.154
 30
0.0
 11
408.097
 21
118.201
 31
0.0
  0
LINE
  8
0
 62
     0
 10
408.097
 20
118.201
 30
0.0
 11
407.786
 21
118.154
 31
0.0
  0
LINE
  8
0
 62
     0
 10
306.536
 20
118.154
 30
0.0
 11
306.258
 21
118.011
 31
0.0
  0
LINE
  8
0
 62
     0
 10
306.258
 20
118.011
 30
0.0
 11
306.036
 21
117.789
 31
0.0
  0
LINE
  8
0
 62
     0
 10
306.036
 20
117.789
 30
0.0
 11
305.894
 21
117.512
 31
0.0
  0
LINE
  8
0
 62
     0
 10
305.894
 20
117.512
 30
0.0
 11
305.846
 21
117.202
 31
0.0
  0
LINE
  8
0
 62
     0
 10
305.846
 20
117.202
 30
0.0
 11
305.894
 21
116.892
 31
0.0
  0
LINE
  8
0
 62
     0
 10
305.894
 20
116.892
 30
0.0
 11
306.036
 21
116.615
 31
0.0
  0
LINE
  8
0
 62
     0
 10
306.036
 20
116.615
 30
0.0
 11
306.258
 21
116.393
 31
0.0
  0
LINE
  8
0
 62
     0
 10
306.258
 20
116.393
 30
0.0
 11
306.536
 21
116.251
 31
0.0
  0
LINE
  8
0
 62
     0
 10
306.536
 20
116.251
 30
0.0
 11
306.845
 21
116.202
 31
0.0
  0
LINE
  8
0
 62
     0
 10
306.845
 20
116.202
 30
0.0
 11
307.155
 21
116.251
 31
0.0
  0
LINE
  8
0
 62
     0
 10
307.155
 20
116.251
 30
0.0
 11
307.433
 21
116.393
 31
0.0
  0
LINE
  8
0
 62
     0
 10
307.433
 20
116.393
 30
0.0
 11
307.654
 21
116.615
 31
0.0
  0
LINE
  8
0
 62
     0
 10
307.654
 20
116.615
 30
0.0
 11
307.796
 21
116.892
 31
0.0
  0
LINE
  8
0
 62
     0
 10
307.796
 20
116.892
 30
0.0
 11
307.846
 21
117.202
 31
0.0
  0
LINE
  8
0
 62
     0
 10
307.846
 20
117.202
 30
0.0
 11
307.796
 21
117.512
 31
0.0
  0
LINE
  8
0
 62
     0
 10
307.796
 20
117.512
 30
0.0
 11
307.654
 21
117.789
 31
0.0
  0
LINE
  8
0
 62
     0
 10
307.654
 20
117.789
 30
0.0
 11
307.433
 21
118.011
 31
0.0
  0
LINE
  8
0
 62
     0
 10
307.433
 20
118.011
 30
0.0
 11
307.155
 21
118.154
 31
0.0
  0
LINE
  8
0
 62
     0
 10
307.155
 20
118.154
 30
0.0
 11
306.845
 21
118.201
 31
0.0
  0
LINE
  8
0
 62
     0
 10
306.845
 20
118.201
 30
0.0
 11
306.536
 21
118.154
 31
0.0
  0
LINE
  8
0
 62
     0
 10
205.286
 20
118.154
 30
0.0
 11
205.008
 21
118.011
 31
0.0
  0
LINE
  8
0
 62
     0
 10
205.008
 20
118.011
 30
0.0
 11
204.786
 21
117.789
 31
0.0
  0
LINE
  8
0
 62
     0
 10
204.786
 20
117.789
 30
0.0
 11
204.644
 21
117.512
 31
0.0
  0
LINE
  8
0
 62
     0
 10
204.644
 20
117.512
 30
0.0
 11
204.596
 21
117.202
 31
0.0
  0
LINE
  8
0
 62
     0
 10
204.596
 20
117.202
 30
0.0
 11
204.644
 21
116.892
 31
0.0
  0
LINE
  8
0
 62
     0
 10
204.644
 20
116.892
 30
0.0
 11
204.786
 21
116.615
 31
0.0
  0
LINE
  8
0
 62
     0
 10
204.786
 20
116.615
 30
0.0
 11
205.008
 21
116.393
 31
0.0
  0
LINE
  8
0
 62
     0
 10
205.008
 20
116.393
 30
0.0
 11
205.286
 21
116.251
 31
0.0
  0
LINE
  8
0
 62
     0
 10
205.286
 20
116.251
 30
0.0
 11
205.595
 21
116.202
 31
0.0
  0
LINE
  8
0
 62
     0
 10
205.595
 20
116.202
 30
0.0
 11
205.905
 21
116.251
 31
0.0
  0
LINE
  8
0
 62
     0
 10
205.905
 20
116.251
 30
0.0
 11
206.183
 21
116.393
 31
0.0
  0
LINE
  8
0
 62
     0
 10
206.183
 20
116.393
 30
0.0
 11
206.404
 21
116.615
 31
0.0
  0
LINE
  8
0
 62
     0
 10
206.404
 20
116.615
 30
0.0
 11
206.546
 21
116.892
 31
0.0
  0
LINE
  8
0
 62
     0
 10
206.546
 20
116.892
 30
0.0
 11
206.595
 21
117.202
 31
0.0
  0
LINE
  8
0
 62
     0
 10
206.595
 20
117.202
 30
0.0
 11
206.546
 21
117.512
 31
0.0
  0
LINE
  8
0
 62
     0
 10
206.546
 20
117.512
 30
0.0
 11
206.404
 21
117.789
 31
0.0
  0
LINE
  8
0
 62
     0
 10
206.404
 20
117.789
 30
0.0
 11
206.183
 21
118.011
 31
0.0
  0
LINE
  8
0
 62
     0
 10
206.183
 20
118.011
 30
0.0
 11
205.905
 21
118.154
 31
0.0
  0
LINE
  8
0
 62
     0
 10
205.905
 20
118.154
 30
0.0
 11
205.595
 21
118.201
 31
0.0
  0
LINE
  8
0
 62
     0
 10
205.595
 20
118.201
 30
0.0
 11
205.286
 21
118.154
 31
0.0
  0
LINE
  8
0
 62
     0
 10
104.036
 20
118.154
 30
0.0
 11
103.758
 21
118.011
 31
0.0
  0
LINE
  8
0
 62
     0
 10
103.758
 20
118.011
 30
0.0
 11
103.536
 21
117.789
 31
0.0
  0
LINE
  8
0
 62
     0
 10
103.536
 20
117.789
 30
0.0
 11
103.394
 21
117.512
 31
0.0
  0
LINE
  8
0
 62
     0
 10
103.394
 20
117.512
 30
0.0
 11
103.346
 21
117.202
 31
0.0
  0
LINE
  8
0
 62
     0
 10
103.346
 20
117.202
 30
0.0
 11
103.394
 21
116.892
 31
0.0
  0
LINE
  8
0
 62
     0
 10
103.394
 20
116.892
 30
0.0
 11
103.536
 21
116.615
 31
0.0
  0
LINE
  8
0
 62
     0
 10
103.536
 20
116.615
 30
0.0
 11
103.758
 21
116.393
 31
0.0
  0
LINE
  8
0
 62
     0
 10
103.758
 20
116.393
 30
0.0
 11
104.036
 21
116.251
 31
0.0
  0
LINE
  8
0
 62
     0
 10
104.036
 20
116.251
 30
0.0
 11
104.345
 21
116.202
 31
0.0
  0
LINE
  8
0
 62
     0
 10
104.345
 20
116.202
 30
0.0
 11
104.655
 21
116.251
 31
0.0
  0
LINE
  8
0
 62
     0
 10
104.655
 20
116.251
 30
0.0
 11
104.933
 21
116.393
 31
0.0
  0
LINE
  8
0
 62
     0
 10
104.933
 20
116.393
 30
0.0
 11
105.154
 21
116.615
 31
0.0
  0
LINE
  8
0
 62
     0
 10
105.154
 20
116.615
 30
0.0
 11
105.296
 21
116.892
 31
0.0
  0
LINE
  8
0
 62
     0
 10
105.296
 20
116.892
 30
0.0
 11
105.345
 21
117.202
 31
0.0
  0
LINE
  8
0
 62
     0
 10
105.345
 20
117.202
 30
0.0
 11
105.296
 21
117.512
 31
0.0
  0
LINE
  8
0
 62
     0
 10
105.296
 20
117.512
 30
0.0
 11
105.154
 21
117.789
 31
0.0
  0
LINE
  8
0
 62
     0
 10
105.154
 20
117.789
 30
0.0
 11
104.933
 21
118.011
 31
0.0
  0
LINE
  8
0
 62
     0
 10
104.933
 20
118.011
 30
0.0
 11
104.655
 21
118.154
 31
0.0
  0
LINE
  8
0
 62
     0
 10
104.655
 20
118.154
 30
0.0
 11
104.345
 21
118.201
 31
0.0
  0
LINE
  8
0
 62
     0
 10
104.345
 20
118.201
 30
0.0
 11
104.036
 21
118.154
 31
0.0
  0
ENDSEC
  0
EOF
