M48
; DRILL file {KiCad (5.1.9)-1} date 03/13/21 21:00:29
; FORMAT={-:-/ absolute / inch / decimal}
; #@! TF.CreationDate,2021-03-13T21:00:29-08:00
; #@! TF.GenerationSoftware,Kicad,Pcbnew,(5.1.9)-1
; #@! TF.FileFunction,Plated,1,2,PTH
FMAT,2
INCH
T1C0.0320
T2C0.0394
T3C0.0409
T4C0.0579
T5C0.0591
%
G90
G05
T1
X0.7934Y-1.2112
X0.7934Y-1.3113
X0.7934Y-1.4112
X0.7934Y-1.5112
X0.7934Y-1.6113
X0.7934Y-1.7112
X0.7934Y-1.8113
X0.7934Y-1.9112
X0.7934Y-2.0112
X0.7934Y-2.1113
X0.7934Y-2.2113
X0.7934Y-2.3112
X0.95Y-2.625
X1.05Y-2.625
X1.15Y-2.625
X1.25Y-2.625
X1.3942Y-1.2112
X1.3942Y-1.3113
X1.3942Y-1.4112
X1.3942Y-1.5112
X1.3942Y-1.6113
X1.3942Y-1.7112
X1.3942Y-1.8113
X1.3942Y-1.9112
X1.3942Y-2.0112
X1.3942Y-2.1113
X1.3942Y-2.2113
X1.3942Y-2.3112
X15.1067Y-1.2112
X15.1067Y-1.3113
X15.1067Y-1.4112
X15.1067Y-1.5112
X15.1067Y-1.6113
X15.1067Y-1.7112
X15.1067Y-1.8113
X15.1067Y-1.9112
X15.1067Y-2.0112
X15.1067Y-2.1113
X15.1067Y-2.2113
X15.1067Y-2.3112
X15.2625Y-2.625
X15.3625Y-2.625
X15.4625Y-2.625
X15.5625Y-2.625
X15.7059Y-1.2112
X15.7059Y-1.3113
X15.7059Y-1.4112
X15.7059Y-1.5112
X15.7059Y-1.6113
X15.7059Y-1.7112
X15.7059Y-1.8113
X15.7059Y-1.9112
X15.7059Y-2.0112
X15.7059Y-2.1113
X15.7059Y-2.2113
X15.7059Y-2.3112
T2
X1.7612Y-1.25
X1.7612Y-1.3484
X1.7612Y-1.4469
X2.3321Y-1.25
X2.3321Y-1.4469
X14.1412Y-1.25
X14.1412Y-1.3484
X14.1412Y-1.4469
X14.7121Y-1.25
X14.7121Y-1.4469
T3
X2.0112Y-1.9875
X2.0112Y-2.7375
X2.0112Y-3.4875
X2.0112Y-4.2375
X2.1113Y-1.9875
X2.1113Y-2.7375
X2.1113Y-3.4875
X2.1113Y-4.2375
X2.95Y-1.2375
X3.0437Y-2.7375
X3.0437Y-4.2375
X3.05Y-1.2375
X3.1375Y-1.9875
X3.1437Y-2.7375
X3.1437Y-4.2375
X3.2375Y-1.9875
X3.4187Y-3.4875
X3.5187Y-3.4875
X3.7012Y-1.2375
X3.8013Y-1.2375
X4.075Y-1.9875
X4.175Y-1.9875
X4.2625Y-2.7375
X4.3625Y-2.7375
X4.45Y-1.2375
X4.55Y-1.2375
X4.6375Y-3.4875
X4.7375Y-3.4875
X4.825Y-1.9875
X4.9188Y-4.2375
X4.925Y-1.9875
X5.0125Y-2.7375
X5.0187Y-4.2375
X5.1125Y-2.7375
X5.2Y-1.2375
X5.3Y-1.2375
X5.3875Y-3.4875
X5.4875Y-3.4875
X5.575Y-1.9875
X5.675Y-1.9875
X5.7625Y-2.7375
X5.7625Y-4.2375
X5.8625Y-2.7375
X5.8625Y-4.2375
X5.95Y-1.2375
X6.05Y-1.2375
X6.1375Y-3.4875
X6.2375Y-3.4875
X6.325Y-1.9875
X6.425Y-1.9875
X6.5125Y-2.7375
X6.6125Y-2.7375
X6.7Y-1.2375
X6.8Y-1.2375
X6.8875Y-3.4875
X6.9813Y-4.2375
X6.9875Y-3.4875
X7.075Y-1.9875
X7.0812Y-4.2375
X7.175Y-1.9875
X7.2625Y-2.7375
X7.3625Y-2.7375
X7.45Y-1.2375
X7.55Y-1.2375
X7.6375Y-3.4875
X7.7375Y-3.4875
X7.825Y-1.9875
X7.925Y-1.9875
X8.0125Y-2.7375
X8.1125Y-2.7375
X8.2Y-1.2375
X8.3Y-1.2375
X8.3875Y-3.4875
X8.4812Y-4.2375
X8.4875Y-3.4875
X8.575Y-1.9875
X8.5812Y-4.2375
X8.675Y-1.9875
X8.7625Y-2.7375
X8.8625Y-2.7375
X8.95Y-1.2375
X9.05Y-1.2375
X9.1375Y-3.4875
X9.2375Y-3.4875
X9.325Y-1.9875
X9.425Y-1.9875
X9.5125Y-2.7375
X9.6062Y-4.2375
X9.6125Y-2.7375
X9.7Y-1.2375
X9.7062Y-4.2375
X9.8Y-1.2375
X9.8875Y-3.4875
X9.9875Y-3.4875
X10.075Y-1.9875
X10.175Y-1.9875
X10.2625Y-2.7375
X10.3625Y-2.7375
X10.45Y-1.2375
X10.45Y-4.2375
X10.55Y-1.2375
X10.55Y-4.2375
X10.6375Y-3.4875
X10.7375Y-3.4875
X10.825Y-1.9875
X10.925Y-1.9875
X11.0125Y-2.7375
X11.1125Y-2.7375
X11.2Y-1.2375
X11.2Y-4.2375
X11.3Y-1.2375
X11.3Y-4.2375
X11.3875Y-3.4875
X11.4875Y-3.4875
X11.575Y-1.9875
X11.675Y-1.9875
X11.7625Y-2.7375
X11.8625Y-2.7375
X11.95Y-1.2375
X11.95Y-4.2375
X12.05Y-1.2375
X12.05Y-4.2375
X12.325Y-1.9875
X12.4187Y-3.4875
X12.425Y-1.9875
X12.5187Y-3.4875
X12.8875Y-4.425
X12.9812Y-2.7375
X12.9875Y-4.425
X13.075Y-1.2375
X13.0812Y-2.7375
X13.175Y-1.2375
X13.2625Y-1.9875
X13.3625Y-1.9875
X13.6375Y-3.675
X13.6375Y-4.425
X13.7375Y-3.675
X13.7375Y-4.425
X14.3875Y-1.9875
X14.3875Y-2.7375
X14.3875Y-3.675
X14.3875Y-4.425
X14.4875Y-1.9875
X14.4875Y-2.7375
X14.4875Y-3.675
X14.4875Y-4.425
T4
X1.9612Y-2.3875
X1.9612Y-3.1375
X1.9612Y-3.8875
X1.9612Y-4.6375
X1.9628Y-2.3647
X1.9628Y-3.1147
X1.9628Y-3.8647
X1.9628Y-4.6147
X2.1597Y-2.345
X2.1597Y-3.095
X2.1597Y-3.845
X2.1597Y-4.595
X2.2113Y-2.2875
X2.2113Y-3.0375
X2.2113Y-3.7875
X2.2113Y-4.5375
X2.9Y-1.6375
X2.9016Y-1.6147
X2.9937Y-3.1375
X2.9937Y-4.6375
X2.9953Y-3.1147
X2.9953Y-4.6147
X3.0875Y-2.3875
X3.0891Y-2.3647
X3.0984Y-1.595
X3.15Y-1.5375
X3.1922Y-3.095
X3.1922Y-4.595
X3.2437Y-3.0375
X3.2437Y-4.5375
X3.2859Y-2.345
X3.3375Y-2.2875
X3.3687Y-3.8875
X3.3703Y-3.8647
X3.5672Y-3.845
X3.6187Y-3.7875
X3.6513Y-1.6375
X3.6528Y-1.6147
X3.8497Y-1.595
X3.9013Y-1.5375
X4.025Y-2.3875
X4.0266Y-2.3647
X4.2125Y-3.1375
X4.2141Y-3.1147
X4.2234Y-2.345
X4.275Y-2.2875
X4.4Y-1.6375
X4.4016Y-1.6147
X4.4109Y-3.095
X4.4625Y-3.0375
X4.5875Y-3.8875
X4.5891Y-3.8647
X4.5984Y-1.595
X4.65Y-1.5375
X4.775Y-2.3875
X4.7766Y-2.3647
X4.7859Y-3.845
X4.8375Y-3.7875
X4.8687Y-4.6375
X4.8703Y-4.6147
X4.9625Y-3.1375
X4.9641Y-3.1147
X4.9734Y-2.345
X5.025Y-2.2875
X5.0672Y-4.595
X5.1187Y-4.5375
X5.15Y-1.6375
X5.1516Y-1.6147
X5.1609Y-3.095
X5.2125Y-3.0375
X5.3375Y-3.8875
X5.3391Y-3.8647
X5.3484Y-1.595
X5.4Y-1.5375
X5.525Y-2.3875
X5.5266Y-2.3647
X5.5359Y-3.845
X5.5875Y-3.7875
X5.7125Y-3.1375
X5.7125Y-4.6375
X5.7141Y-3.1147
X5.7141Y-4.6147
X5.7234Y-2.345
X5.775Y-2.2875
X5.9Y-1.6375
X5.9016Y-1.6147
X5.9109Y-3.095
X5.9109Y-4.595
X5.9625Y-3.0375
X5.9625Y-4.5375
X6.0875Y-3.8875
X6.0891Y-3.8647
X6.0984Y-1.595
X6.15Y-1.5375
X6.275Y-2.3875
X6.2766Y-2.3647
X6.2859Y-3.845
X6.3375Y-3.7875
X6.4625Y-3.1375
X6.4641Y-3.1147
X6.4734Y-2.345
X6.525Y-2.2875
X6.65Y-1.6375
X6.6516Y-1.6147
X6.6609Y-3.095
X6.7125Y-3.0375
X6.8375Y-3.8875
X6.8391Y-3.8647
X6.8484Y-1.595
X6.9Y-1.5375
X6.9312Y-4.6375
X6.9328Y-4.6147
X7.025Y-2.3875
X7.0266Y-2.3647
X7.0359Y-3.845
X7.0875Y-3.7875
X7.1297Y-4.595
X7.1812Y-4.5375
X7.2125Y-3.1375
X7.2141Y-3.1147
X7.2234Y-2.345
X7.275Y-2.2875
X7.4Y-1.6375
X7.4016Y-1.6147
X7.4109Y-3.095
X7.4625Y-3.0375
X7.5875Y-3.8875
X7.5891Y-3.8647
X7.5984Y-1.595
X7.65Y-1.5375
X7.775Y-2.3875
X7.7766Y-2.3647
X7.7859Y-3.845
X7.8375Y-3.7875
X7.9625Y-3.1375
X7.9641Y-3.1147
X7.9734Y-2.345
X8.025Y-2.2875
X8.15Y-1.6375
X8.1516Y-1.6147
X8.1609Y-3.095
X8.2125Y-3.0375
X8.3375Y-3.8875
X8.3391Y-3.8647
X8.3484Y-1.595
X8.4Y-1.5375
X8.4313Y-4.6375
X8.4328Y-4.6147
X8.525Y-2.3875
X8.5266Y-2.3647
X8.5359Y-3.845
X8.5875Y-3.7875
X8.6297Y-4.595
X8.6813Y-4.5375
X8.7125Y-3.1375
X8.7141Y-3.1147
X8.7234Y-2.345
X8.775Y-2.2875
X8.9Y-1.6375
X8.9016Y-1.6147
X8.9109Y-3.095
X8.9625Y-3.0375
X9.0875Y-3.8875
X9.0891Y-3.8647
X9.0984Y-1.595
X9.15Y-1.5375
X9.275Y-2.3875
X9.2766Y-2.3647
X9.2859Y-3.845
X9.3375Y-3.7875
X9.4625Y-3.1375
X9.4641Y-3.1147
X9.4734Y-2.345
X9.525Y-2.2875
X9.5563Y-4.6375
X9.5578Y-4.6147
X9.65Y-1.6375
X9.6516Y-1.6147
X9.6609Y-3.095
X9.7125Y-3.0375
X9.7547Y-4.595
X9.8063Y-4.5375
X9.8375Y-3.8875
X9.8391Y-3.8647
X9.8484Y-1.595
X9.9Y-1.5375
X10.025Y-2.3875
X10.0266Y-2.3647
X10.0359Y-3.845
X10.0875Y-3.7875
X10.2125Y-3.1375
X10.2141Y-3.1147
X10.2234Y-2.345
X10.275Y-2.2875
X10.4Y-1.6375
X10.4Y-4.6375
X10.4016Y-1.6147
X10.4016Y-4.6147
X10.4109Y-3.095
X10.4625Y-3.0375
X10.5875Y-3.8875
X10.5891Y-3.8647
X10.5984Y-1.595
X10.5984Y-4.595
X10.65Y-1.5375
X10.65Y-4.5375
X10.775Y-2.3875
X10.7766Y-2.3647
X10.7859Y-3.845
X10.8375Y-3.7875
X10.9625Y-3.1375
X10.9641Y-3.1147
X10.9734Y-2.345
X11.025Y-2.2875
X11.15Y-1.6375
X11.15Y-4.6375
X11.1516Y-1.6147
X11.1516Y-4.6147
X11.1609Y-3.095
X11.2125Y-3.0375
X11.3375Y-3.8875
X11.3391Y-3.8647
X11.3484Y-1.595
X11.3484Y-4.595
X11.4Y-1.5375
X11.4Y-4.5375
X11.525Y-2.3875
X11.5266Y-2.3647
X11.5359Y-3.845
X11.5875Y-3.7875
X11.7125Y-3.1375
X11.7141Y-3.1147
X11.7234Y-2.345
X11.775Y-2.2875
X11.9Y-1.6375
X11.9Y-4.6375
X11.9016Y-1.6147
X11.9016Y-4.6147
X11.9109Y-3.095
X11.9625Y-3.0375
X12.0984Y-1.595
X12.0984Y-4.595
X12.15Y-1.5375
X12.15Y-4.5375
X12.275Y-2.3875
X12.2766Y-2.3647
X12.3688Y-3.8875
X12.3703Y-3.8647
X12.4734Y-2.345
X12.525Y-2.2875
X12.5672Y-3.845
X12.6188Y-3.7875
X12.8375Y-4.825
X12.8391Y-4.8022
X12.9313Y-3.1375
X12.9328Y-3.1147
X13.025Y-1.6375
X13.0266Y-1.6147
X13.0359Y-4.7825
X13.0875Y-4.725
X13.1297Y-3.095
X13.1813Y-3.0375
X13.2125Y-2.3875
X13.2141Y-2.3647
X13.2234Y-1.595
X13.275Y-1.5375
X13.4109Y-2.345
X13.4625Y-2.2875
X13.5875Y-4.075
X13.5875Y-4.825
X13.5891Y-4.0522
X13.5891Y-4.8022
X13.7859Y-4.0325
X13.7859Y-4.7825
X13.8375Y-3.975
X13.8375Y-4.725
X14.3375Y-2.3875
X14.3375Y-3.1375
X14.3375Y-4.075
X14.3375Y-4.825
X14.3391Y-2.3647
X14.3391Y-3.1147
X14.3391Y-4.0522
X14.3391Y-4.8022
X14.5359Y-2.345
X14.5359Y-3.095
X14.5359Y-4.0325
X14.5359Y-4.7825
X14.5875Y-2.2875
X14.5875Y-3.0375
X14.5875Y-3.975
X14.5875Y-4.725
T5
G00X2.0309Y-1.128
M15
G01X2.0821Y-1.128
M16
G05
G00X2.0309Y-1.5689
M15
G01X2.0821Y-1.5689
M16
G05
G00X14.4109Y-1.128
M15
G01X14.4621Y-1.128
M16
G05
G00X14.4109Y-1.5689
M15
G01X14.4621Y-1.5689
M16
G05
T0
M30
