M48
; DRILL file {KiCad (5.1.9)-1} date 03/13/21 20:19:28
; FORMAT={-:-/ absolute / inch / decimal}
; #@! TF.CreationDate,2021-03-13T20:19:28-08:00
; #@! TF.GenerationSoftware,Kicad,Pcbnew,(5.1.9)-1
; #@! TF.FileFunction,NonPlated,1,2,NPTH
FMAT,2
INCH
T1C0.0689
T2C0.1200
T3C0.1570
%
G90
G05
T1
X1.8612Y-2.1875
X1.8612Y-2.9375
X1.8612Y-3.6875
X1.8612Y-4.4375
X2.2612Y-2.1875
X2.2612Y-2.9375
X2.2612Y-3.6875
X2.2612Y-4.4375
X2.8Y-1.4375
X2.8937Y-2.9375
X2.8937Y-4.4375
X2.9875Y-2.1875
X3.2Y-1.4375
X3.2687Y-3.6875
X3.2937Y-2.9375
X3.2937Y-4.4375
X3.3875Y-2.1875
X3.5513Y-1.4375
X3.6687Y-3.6875
X3.925Y-2.1875
X3.9512Y-1.4375
X4.1125Y-2.9375
X4.3Y-1.4375
X4.325Y-2.1875
X4.4875Y-3.6875
X4.5125Y-2.9375
X4.675Y-2.1875
X4.7Y-1.4375
X4.7687Y-4.4375
X4.8625Y-2.9375
X4.8875Y-3.6875
X5.05Y-1.4375
X5.075Y-2.1875
X5.1688Y-4.4375
X5.2375Y-3.6875
X5.2625Y-2.9375
X5.425Y-2.1875
X5.45Y-1.4375
X5.6125Y-2.9375
X5.6125Y-4.4375
X5.6375Y-3.6875
X5.8Y-1.4375
X5.825Y-2.1875
X5.9875Y-3.6875
X6.0125Y-2.9375
X6.0125Y-4.4375
X6.175Y-2.1875
X6.2Y-1.4375
X6.3625Y-2.9375
X6.3875Y-3.6875
X6.55Y-1.4375
X6.575Y-2.1875
X6.7375Y-3.6875
X6.7625Y-2.9375
X6.8312Y-4.4375
X6.925Y-2.1875
X6.95Y-1.4375
X7.1125Y-2.9375
X7.1375Y-3.6875
X7.2313Y-4.4375
X7.3Y-1.4375
X7.325Y-2.1875
X7.4875Y-3.6875
X7.5125Y-2.9375
X7.675Y-2.1875
X7.7Y-1.4375
X7.8625Y-2.9375
X7.8875Y-3.6875
X8.05Y-1.4375
X8.075Y-2.1875
X8.2375Y-3.6875
X8.2625Y-2.9375
X8.3312Y-4.4375
X8.425Y-2.1875
X8.45Y-1.4375
X8.6125Y-2.9375
X8.6375Y-3.6875
X8.7312Y-4.4375
X8.8Y-1.4375
X8.825Y-2.1875
X8.9875Y-3.6875
X9.0125Y-2.9375
X9.175Y-2.1875
X9.2Y-1.4375
X9.3625Y-2.9375
X9.3875Y-3.6875
X9.4562Y-4.4375
X9.55Y-1.4375
X9.575Y-2.1875
X9.7375Y-3.6875
X9.7625Y-2.9375
X9.8562Y-4.4375
X9.925Y-2.1875
X9.95Y-1.4375
X10.1125Y-2.9375
X10.1375Y-3.6875
X10.3Y-1.4375
X10.3Y-4.4375
X10.325Y-2.1875
X10.4875Y-3.6875
X10.5125Y-2.9375
X10.675Y-2.1875
X10.7Y-1.4375
X10.7Y-4.4375
X10.8625Y-2.9375
X10.8875Y-3.6875
X11.05Y-1.4375
X11.05Y-4.4375
X11.075Y-2.1875
X11.2375Y-3.6875
X11.2625Y-2.9375
X11.425Y-2.1875
X11.45Y-1.4375
X11.45Y-4.4375
X11.6125Y-2.9375
X11.6375Y-3.6875
X11.8Y-1.4375
X11.8Y-4.4375
X11.825Y-2.1875
X12.0125Y-2.9375
X12.175Y-2.1875
X12.2Y-1.4375
X12.2Y-4.4375
X12.2687Y-3.6875
X12.575Y-2.1875
X12.6687Y-3.6875
X12.7375Y-4.625
X12.8312Y-2.9375
X12.925Y-1.4375
X13.1125Y-2.1875
X13.1375Y-4.625
X13.2312Y-2.9375
X13.325Y-1.4375
X13.4875Y-3.875
X13.4875Y-4.625
X13.5125Y-2.1875
X13.8875Y-3.875
X13.8875Y-4.625
X14.2375Y-2.1875
X14.2375Y-2.9375
X14.2375Y-3.875
X14.2375Y-4.625
X14.6375Y-2.1875
X14.6375Y-2.9375
X14.6375Y-3.875
X14.6375Y-4.625
T2
X2.9987Y-3.9625
X3.9387Y-3.9625
X6.5613Y-4.7125
X7.5012Y-4.7125
X12.5612Y-3.2125
X12.655Y-1.7125
X13.5012Y-3.2125
X13.595Y-1.7125
T3
X2.0612Y-2.1875
X2.0612Y-2.9375
X2.0612Y-3.6875
X2.0612Y-4.4375
X2.9987Y-3.3625
X3.0Y-1.4375
X3.0938Y-2.9375
X3.0938Y-4.4375
X3.1875Y-2.1875
X3.4688Y-3.6875
X3.7512Y-1.4375
X3.9387Y-3.3625
X4.125Y-2.1875
X4.3125Y-2.9375
X4.5Y-1.4375
X4.6875Y-3.6875
X4.875Y-2.1875
X4.9688Y-4.4375
X5.0625Y-2.9375
X5.25Y-1.4375
X5.4375Y-3.6875
X5.625Y-2.1875
X5.8125Y-2.9375
X5.8125Y-4.4375
X6.0Y-1.4375
X6.1875Y-3.6875
X6.375Y-2.1875
X6.5613Y-4.1125
X6.5625Y-2.9375
X6.75Y-1.4375
X6.9375Y-3.6875
X7.0312Y-4.4375
X7.125Y-2.1875
X7.3125Y-2.9375
X7.5Y-1.4375
X7.5012Y-4.1125
X7.6875Y-3.6875
X7.875Y-2.1875
X8.0625Y-2.9375
X8.25Y-1.4375
X8.4375Y-3.6875
X8.5312Y-4.4375
X8.625Y-2.1875
X8.8125Y-2.9375
X9.0Y-1.4375
X9.1875Y-3.6875
X9.375Y-2.1875
X9.5625Y-2.9375
X9.6562Y-4.4375
X9.75Y-1.4375
X9.9375Y-3.6875
X10.125Y-2.1875
X10.3125Y-2.9375
X10.5Y-1.4375
X10.5Y-4.4375
X10.6875Y-3.6875
X10.875Y-2.1875
X11.0625Y-2.9375
X11.25Y-1.4375
X11.25Y-4.4375
X11.4375Y-3.6875
X11.625Y-2.1875
X11.8125Y-2.9375
X12.0Y-1.4375
X12.0Y-4.4375
X12.375Y-2.1875
X12.4688Y-3.6875
X12.5612Y-2.6125
X12.655Y-1.1125
X12.9375Y-4.625
X13.0312Y-2.9375
X13.125Y-1.4375
X13.3125Y-2.1875
X13.5012Y-2.6125
X13.595Y-1.1125
X13.6875Y-3.875
X13.6875Y-4.625
X14.4375Y-2.1875
X14.4375Y-2.9375
X14.4375Y-3.875
X14.4375Y-4.625
T0
M30
