%TF.GenerationSoftware,KiCad,Pcbnew,(5.1.9)-1*%
%TF.CreationDate,2021-07-17T19:30:38-07:00*%
%TF.ProjectId,unsplit-keyboard,756e7370-6c69-4742-9d6b-6579626f6172,rev?*%
%TF.SameCoordinates,Original*%
%TF.FileFunction,Copper,L1,Top*%
%TF.FilePolarity,Positive*%
%FSLAX46Y46*%
G04 Gerber Fmt 4.6, Leading zero omitted, Abs format (unit mm)*
G04 Created by KiCad (PCBNEW (5.1.9)-1) date 2021-07-17 19:30:38*
%MOMM*%
%LPD*%
G01*
G04 APERTURE LIST*
%TA.AperFunction,ComponentPad*%
%ADD10O,1.000000X2.100000*%
%TD*%
%TA.AperFunction,ComponentPad*%
%ADD11O,1.000000X1.600000*%
%TD*%
%TA.AperFunction,ComponentPad*%
%ADD12R,1.905000X1.905000*%
%TD*%
%TA.AperFunction,ComponentPad*%
%ADD13C,1.905000*%
%TD*%
%TA.AperFunction,ComponentPad*%
%ADD14C,2.250000*%
%TD*%
%TA.AperFunction,ComponentPad*%
%ADD15C,2.000000*%
%TD*%
%TA.AperFunction,ComponentPad*%
%ADD16R,3.200000X2.000000*%
%TD*%
%TA.AperFunction,ComponentPad*%
%ADD17R,2.000000X2.000000*%
%TD*%
%TA.AperFunction,ComponentPad*%
%ADD18C,1.397000*%
%TD*%
%TA.AperFunction,ViaPad*%
%ADD19C,0.800000*%
%TD*%
%TA.AperFunction,Conductor*%
%ADD20C,0.250000*%
%TD*%
G04 APERTURE END LIST*
D10*
%TO.P,USB1,13*%
%TO.N,GND*%
X32986250Y-20273750D03*
X41626250Y-20273750D03*
D11*
X32986250Y-16093750D03*
X41626250Y-16093750D03*
%TD*%
D12*
%TO.P,MX30,4*%
%TO.N,N/C*%
X309821580Y-39370000D03*
D13*
%TO.P,MX30,3*%
X312361580Y-39370000D03*
D14*
%TO.P,MX30,1*%
%TO.N,COL14*%
X313591580Y-48450000D03*
%TA.AperFunction,ComponentPad*%
G36*
G01*
X315654352Y-46153962D02*
X315652897Y-46152655D01*
G75*
G02*
X315738925Y-47741317I-751317J-837345D01*
G01*
X314428923Y-49201317D01*
G75*
G02*
X312840261Y-49287345I-837345J751317D01*
G01*
X312840261Y-49287345D01*
G75*
G02*
X312754233Y-47698683I751317J837345D01*
G01*
X314064235Y-46238683D01*
G75*
G02*
X315652897Y-46152655I837345J-751317D01*
G01*
G37*
%TD.AperFunction*%
%TO.P,MX30,2*%
%TO.N,Net-(D30-Pad1)*%
X308551580Y-49530000D03*
%TA.AperFunction,ComponentPad*%
G36*
G01*
X308670056Y-47827740D02*
X308668983Y-47827666D01*
G75*
G02*
X309713914Y-49027403I-77403J-1122334D01*
G01*
X309673914Y-49607403D01*
G75*
G02*
X308474177Y-50652334I-1122334J77403D01*
G01*
X308474177Y-50652334D01*
G75*
G02*
X307429246Y-49452597I77403J1122334D01*
G01*
X307469246Y-48872597D01*
G75*
G02*
X308668983Y-47827666I1122334J-77403D01*
G01*
G37*
%TD.AperFunction*%
%TD*%
%TO.P,MX44,2*%
%TO.N,Net-(D44-Pad1)*%
%TA.AperFunction,ComponentPad*%
G36*
G01*
X301584726Y-66877740D02*
X301583653Y-66877666D01*
G75*
G02*
X302628584Y-68077403I-77403J-1122334D01*
G01*
X302588584Y-68657403D01*
G75*
G02*
X301388847Y-69702334I-1122334J77403D01*
G01*
X301388847Y-69702334D01*
G75*
G02*
X300343916Y-68502597I77403J1122334D01*
G01*
X300383916Y-67922597D01*
G75*
G02*
X301583653Y-66877666I1122334J-77403D01*
G01*
G37*
%TD.AperFunction*%
X301466250Y-68580000D03*
%TO.P,MX44,1*%
%TO.N,COL13*%
%TA.AperFunction,ComponentPad*%
G36*
G01*
X308569022Y-65203962D02*
X308567567Y-65202655D01*
G75*
G02*
X308653595Y-66791317I-751317J-837345D01*
G01*
X307343593Y-68251317D01*
G75*
G02*
X305754931Y-68337345I-837345J751317D01*
G01*
X305754931Y-68337345D01*
G75*
G02*
X305668903Y-66748683I751317J837345D01*
G01*
X306978905Y-65288683D01*
G75*
G02*
X308567567Y-65202655I837345J-751317D01*
G01*
G37*
%TD.AperFunction*%
X306506250Y-67500000D03*
D13*
%TO.P,MX44,3*%
%TO.N,N/C*%
X305276250Y-58420000D03*
D12*
%TO.P,MX44,4*%
X302736250Y-58420000D03*
%TD*%
D15*
%TO.P,ENC1,S1*%
%TO.N,COL14*%
X332718000Y-22990800D03*
%TO.P,ENC1,S2*%
%TO.N,R_ENC*%
X332718000Y-27990800D03*
D16*
%TO.P,ENC1,MP*%
%TO.N,N/C*%
X339718000Y-19890800D03*
X339718000Y-31090800D03*
D15*
%TO.P,ENC1,B*%
%TO.N,ROT_B*%
X347218000Y-22990800D03*
%TO.P,ENC1,C*%
%TO.N,GND*%
X347218000Y-25490800D03*
D17*
%TO.P,ENC1,A*%
%TO.N,ROT_A*%
X347218000Y-27990800D03*
%TD*%
%TO.P,MX2,2*%
%TO.N,Net-(D2-Pad1)*%
%TA.AperFunction,ComponentPad*%
G36*
G01*
X46790976Y-28777740D02*
X46789903Y-28777666D01*
G75*
G02*
X47834834Y-29977403I-77403J-1122334D01*
G01*
X47794834Y-30557403D01*
G75*
G02*
X46595097Y-31602334I-1122334J77403D01*
G01*
X46595097Y-31602334D01*
G75*
G02*
X45550166Y-30402597I77403J1122334D01*
G01*
X45590166Y-29822597D01*
G75*
G02*
X46789903Y-28777666I1122334J-77403D01*
G01*
G37*
%TD.AperFunction*%
D14*
X46672500Y-30480000D03*
%TO.P,MX2,1*%
%TO.N,COL1*%
%TA.AperFunction,ComponentPad*%
G36*
G01*
X53775272Y-27103962D02*
X53773817Y-27102655D01*
G75*
G02*
X53859845Y-28691317I-751317J-837345D01*
G01*
X52549843Y-30151317D01*
G75*
G02*
X50961181Y-30237345I-837345J751317D01*
G01*
X50961181Y-30237345D01*
G75*
G02*
X50875153Y-28648683I751317J837345D01*
G01*
X52185155Y-27188683D01*
G75*
G02*
X53773817Y-27102655I837345J-751317D01*
G01*
G37*
%TD.AperFunction*%
X51712500Y-29400000D03*
D13*
%TO.P,MX2,3*%
%TO.N,N/C*%
X50482500Y-20320000D03*
D12*
%TO.P,MX2,4*%
X47942500Y-20320000D03*
%TD*%
D18*
%TO.P,OL1,4*%
%TO.N,GND*%
X343408000Y-36195000D03*
%TO.P,OL1,3*%
%TO.N,VCC*%
X340868000Y-36195000D03*
%TO.P,OL1,2*%
%TO.N,SCL*%
X338328000Y-36195000D03*
%TO.P,OL1,1*%
%TO.N,SDA*%
X335788000Y-36195000D03*
%TD*%
%TO.P,MX69,2*%
%TO.N,Net-(D69-Pad1)*%
%TA.AperFunction,ComponentPad*%
G36*
G01*
X337303476Y-109740240D02*
X337302403Y-109740166D01*
G75*
G02*
X338347334Y-110939903I-77403J-1122334D01*
G01*
X338307334Y-111519903D01*
G75*
G02*
X337107597Y-112564834I-1122334J77403D01*
G01*
X337107597Y-112564834D01*
G75*
G02*
X336062666Y-111365097I77403J1122334D01*
G01*
X336102666Y-110785097D01*
G75*
G02*
X337302403Y-109740166I1122334J-77403D01*
G01*
G37*
%TD.AperFunction*%
D14*
X337185000Y-111442500D03*
%TO.P,MX69,1*%
%TO.N,COL14*%
%TA.AperFunction,ComponentPad*%
G36*
G01*
X344287772Y-108066462D02*
X344286317Y-108065155D01*
G75*
G02*
X344372345Y-109653817I-751317J-837345D01*
G01*
X343062343Y-111113817D01*
G75*
G02*
X341473681Y-111199845I-837345J751317D01*
G01*
X341473681Y-111199845D01*
G75*
G02*
X341387653Y-109611183I751317J837345D01*
G01*
X342697655Y-108151183D01*
G75*
G02*
X344286317Y-108065155I837345J-751317D01*
G01*
G37*
%TD.AperFunction*%
X342225000Y-110362500D03*
D13*
%TO.P,MX69,3*%
%TO.N,N/C*%
X340995000Y-101282500D03*
D12*
%TO.P,MX69,4*%
X338455000Y-101282500D03*
%TD*%
%TO.P,MX68,2*%
%TO.N,Net-(D68-Pad1)*%
%TA.AperFunction,ComponentPad*%
G36*
G01*
X318253476Y-109740240D02*
X318252403Y-109740166D01*
G75*
G02*
X319297334Y-110939903I-77403J-1122334D01*
G01*
X319257334Y-111519903D01*
G75*
G02*
X318057597Y-112564834I-1122334J77403D01*
G01*
X318057597Y-112564834D01*
G75*
G02*
X317012666Y-111365097I77403J1122334D01*
G01*
X317052666Y-110785097D01*
G75*
G02*
X318252403Y-109740166I1122334J-77403D01*
G01*
G37*
%TD.AperFunction*%
D14*
X318135000Y-111442500D03*
%TO.P,MX68,1*%
%TO.N,COL13*%
%TA.AperFunction,ComponentPad*%
G36*
G01*
X325237772Y-108066462D02*
X325236317Y-108065155D01*
G75*
G02*
X325322345Y-109653817I-751317J-837345D01*
G01*
X324012343Y-111113817D01*
G75*
G02*
X322423681Y-111199845I-837345J751317D01*
G01*
X322423681Y-111199845D01*
G75*
G02*
X322337653Y-109611183I751317J837345D01*
G01*
X323647655Y-108151183D01*
G75*
G02*
X325236317Y-108065155I837345J-751317D01*
G01*
G37*
%TD.AperFunction*%
X323175000Y-110362500D03*
D13*
%TO.P,MX68,3*%
%TO.N,N/C*%
X321945000Y-101282500D03*
D12*
%TO.P,MX68,4*%
X319405000Y-101282500D03*
%TD*%
%TO.P,MX67,2*%
%TO.N,Net-(D67-Pad1)*%
%TA.AperFunction,ComponentPad*%
G36*
G01*
X299203476Y-109740240D02*
X299202403Y-109740166D01*
G75*
G02*
X300247334Y-110939903I-77403J-1122334D01*
G01*
X300207334Y-111519903D01*
G75*
G02*
X299007597Y-112564834I-1122334J77403D01*
G01*
X299007597Y-112564834D01*
G75*
G02*
X297962666Y-111365097I77403J1122334D01*
G01*
X298002666Y-110785097D01*
G75*
G02*
X299202403Y-109740166I1122334J-77403D01*
G01*
G37*
%TD.AperFunction*%
D14*
X299085000Y-111442500D03*
%TO.P,MX67,1*%
%TO.N,COL12*%
%TA.AperFunction,ComponentPad*%
G36*
G01*
X306187772Y-108066462D02*
X306186317Y-108065155D01*
G75*
G02*
X306272345Y-109653817I-751317J-837345D01*
G01*
X304962343Y-111113817D01*
G75*
G02*
X303373681Y-111199845I-837345J751317D01*
G01*
X303373681Y-111199845D01*
G75*
G02*
X303287653Y-109611183I751317J837345D01*
G01*
X304597655Y-108151183D01*
G75*
G02*
X306186317Y-108065155I837345J-751317D01*
G01*
G37*
%TD.AperFunction*%
X304125000Y-110362500D03*
D13*
%TO.P,MX67,3*%
%TO.N,N/C*%
X302895000Y-101282500D03*
D12*
%TO.P,MX67,4*%
X300355000Y-101282500D03*
%TD*%
%TO.P,MX66,2*%
%TO.N,Net-(D66-Pad1)*%
%TA.AperFunction,ComponentPad*%
G36*
G01*
X275390976Y-104977740D02*
X275389903Y-104977666D01*
G75*
G02*
X276434834Y-106177403I-77403J-1122334D01*
G01*
X276394834Y-106757403D01*
G75*
G02*
X275195097Y-107802334I-1122334J77403D01*
G01*
X275195097Y-107802334D01*
G75*
G02*
X274150166Y-106602597I77403J1122334D01*
G01*
X274190166Y-106022597D01*
G75*
G02*
X275389903Y-104977666I1122334J-77403D01*
G01*
G37*
%TD.AperFunction*%
D14*
X275272500Y-106680000D03*
%TO.P,MX66,1*%
%TO.N,COL11*%
%TA.AperFunction,ComponentPad*%
G36*
G01*
X282375272Y-103303962D02*
X282373817Y-103302655D01*
G75*
G02*
X282459845Y-104891317I-751317J-837345D01*
G01*
X281149843Y-106351317D01*
G75*
G02*
X279561181Y-106437345I-837345J751317D01*
G01*
X279561181Y-106437345D01*
G75*
G02*
X279475153Y-104848683I751317J837345D01*
G01*
X280785155Y-103388683D01*
G75*
G02*
X282373817Y-103302655I837345J-751317D01*
G01*
G37*
%TD.AperFunction*%
X280312500Y-105600000D03*
D13*
%TO.P,MX66,3*%
%TO.N,N/C*%
X279082500Y-96520000D03*
D12*
%TO.P,MX66,4*%
X276542500Y-96520000D03*
%TD*%
%TO.P,MX65,2*%
%TO.N,Net-(D65-Pad1)*%
%TA.AperFunction,ComponentPad*%
G36*
G01*
X256340976Y-104977740D02*
X256339903Y-104977666D01*
G75*
G02*
X257384834Y-106177403I-77403J-1122334D01*
G01*
X257344834Y-106757403D01*
G75*
G02*
X256145097Y-107802334I-1122334J77403D01*
G01*
X256145097Y-107802334D01*
G75*
G02*
X255100166Y-106602597I77403J1122334D01*
G01*
X255140166Y-106022597D01*
G75*
G02*
X256339903Y-104977666I1122334J-77403D01*
G01*
G37*
%TD.AperFunction*%
D14*
X256222500Y-106680000D03*
%TO.P,MX65,1*%
%TO.N,COL10*%
%TA.AperFunction,ComponentPad*%
G36*
G01*
X263325272Y-103303962D02*
X263323817Y-103302655D01*
G75*
G02*
X263409845Y-104891317I-751317J-837345D01*
G01*
X262099843Y-106351317D01*
G75*
G02*
X260511181Y-106437345I-837345J751317D01*
G01*
X260511181Y-106437345D01*
G75*
G02*
X260425153Y-104848683I751317J837345D01*
G01*
X261735155Y-103388683D01*
G75*
G02*
X263323817Y-103302655I837345J-751317D01*
G01*
G37*
%TD.AperFunction*%
X261262500Y-105600000D03*
D13*
%TO.P,MX65,3*%
%TO.N,N/C*%
X260032500Y-96520000D03*
D12*
%TO.P,MX65,4*%
X257492500Y-96520000D03*
%TD*%
%TO.P,MX64,2*%
%TO.N,Net-(D64-Pad1)*%
%TA.AperFunction,ComponentPad*%
G36*
G01*
X237290976Y-104977740D02*
X237289903Y-104977666D01*
G75*
G02*
X238334834Y-106177403I-77403J-1122334D01*
G01*
X238294834Y-106757403D01*
G75*
G02*
X237095097Y-107802334I-1122334J77403D01*
G01*
X237095097Y-107802334D01*
G75*
G02*
X236050166Y-106602597I77403J1122334D01*
G01*
X236090166Y-106022597D01*
G75*
G02*
X237289903Y-104977666I1122334J-77403D01*
G01*
G37*
%TD.AperFunction*%
D14*
X237172500Y-106680000D03*
%TO.P,MX64,1*%
%TO.N,COL9*%
%TA.AperFunction,ComponentPad*%
G36*
G01*
X244275272Y-103303962D02*
X244273817Y-103302655D01*
G75*
G02*
X244359845Y-104891317I-751317J-837345D01*
G01*
X243049843Y-106351317D01*
G75*
G02*
X241461181Y-106437345I-837345J751317D01*
G01*
X241461181Y-106437345D01*
G75*
G02*
X241375153Y-104848683I751317J837345D01*
G01*
X242685155Y-103388683D01*
G75*
G02*
X244273817Y-103302655I837345J-751317D01*
G01*
G37*
%TD.AperFunction*%
X242212500Y-105600000D03*
D13*
%TO.P,MX64,3*%
%TO.N,N/C*%
X240982500Y-96520000D03*
D12*
%TO.P,MX64,4*%
X238442500Y-96520000D03*
%TD*%
%TO.P,MX63,2*%
%TO.N,Net-(D63-Pad1)*%
%TA.AperFunction,ComponentPad*%
G36*
G01*
X168266476Y-104977740D02*
X168265403Y-104977666D01*
G75*
G02*
X169310334Y-106177403I-77403J-1122334D01*
G01*
X169270334Y-106757403D01*
G75*
G02*
X168070597Y-107802334I-1122334J77403D01*
G01*
X168070597Y-107802334D01*
G75*
G02*
X167025666Y-106602597I77403J1122334D01*
G01*
X167065666Y-106022597D01*
G75*
G02*
X168265403Y-104977666I1122334J-77403D01*
G01*
G37*
%TD.AperFunction*%
D14*
X168148000Y-106680000D03*
%TO.P,MX63,1*%
%TO.N,COL6*%
%TA.AperFunction,ComponentPad*%
G36*
G01*
X175250772Y-103303962D02*
X175249317Y-103302655D01*
G75*
G02*
X175335345Y-104891317I-751317J-837345D01*
G01*
X174025343Y-106351317D01*
G75*
G02*
X172436681Y-106437345I-837345J751317D01*
G01*
X172436681Y-106437345D01*
G75*
G02*
X172350653Y-104848683I751317J837345D01*
G01*
X173660655Y-103388683D01*
G75*
G02*
X175249317Y-103302655I837345J-751317D01*
G01*
G37*
%TD.AperFunction*%
X173188000Y-105600000D03*
D13*
%TO.P,MX63,3*%
%TO.N,N/C*%
X171958000Y-96520000D03*
D12*
%TO.P,MX63,4*%
X169418000Y-96520000D03*
%TD*%
%TO.P,MX62,2*%
%TO.N,Net-(D62-Pad1)*%
%TA.AperFunction,ComponentPad*%
G36*
G01*
X96797226Y-104977740D02*
X96796153Y-104977666D01*
G75*
G02*
X97841084Y-106177403I-77403J-1122334D01*
G01*
X97801084Y-106757403D01*
G75*
G02*
X96601347Y-107802334I-1122334J77403D01*
G01*
X96601347Y-107802334D01*
G75*
G02*
X95556416Y-106602597I77403J1122334D01*
G01*
X95596416Y-106022597D01*
G75*
G02*
X96796153Y-104977666I1122334J-77403D01*
G01*
G37*
%TD.AperFunction*%
D14*
X96678750Y-106680000D03*
%TO.P,MX62,1*%
%TO.N,COL3*%
%TA.AperFunction,ComponentPad*%
G36*
G01*
X103781522Y-103303962D02*
X103780067Y-103302655D01*
G75*
G02*
X103866095Y-104891317I-751317J-837345D01*
G01*
X102556093Y-106351317D01*
G75*
G02*
X100967431Y-106437345I-837345J751317D01*
G01*
X100967431Y-106437345D01*
G75*
G02*
X100881403Y-104848683I751317J837345D01*
G01*
X102191405Y-103388683D01*
G75*
G02*
X103780067Y-103302655I837345J-751317D01*
G01*
G37*
%TD.AperFunction*%
X101718750Y-105600000D03*
D13*
%TO.P,MX62,3*%
%TO.N,N/C*%
X100488750Y-96520000D03*
D12*
%TO.P,MX62,4*%
X97948750Y-96520000D03*
%TD*%
%TO.P,MX61,2*%
%TO.N,Net-(D61-Pad1)*%
%TA.AperFunction,ComponentPad*%
G36*
G01*
X49172226Y-104977740D02*
X49171153Y-104977666D01*
G75*
G02*
X50216084Y-106177403I-77403J-1122334D01*
G01*
X50176084Y-106757403D01*
G75*
G02*
X48976347Y-107802334I-1122334J77403D01*
G01*
X48976347Y-107802334D01*
G75*
G02*
X47931416Y-106602597I77403J1122334D01*
G01*
X47971416Y-106022597D01*
G75*
G02*
X49171153Y-104977666I1122334J-77403D01*
G01*
G37*
%TD.AperFunction*%
D14*
X49053750Y-106680000D03*
%TO.P,MX61,1*%
%TO.N,COL1*%
%TA.AperFunction,ComponentPad*%
G36*
G01*
X56156522Y-103303962D02*
X56155067Y-103302655D01*
G75*
G02*
X56241095Y-104891317I-751317J-837345D01*
G01*
X54931093Y-106351317D01*
G75*
G02*
X53342431Y-106437345I-837345J751317D01*
G01*
X53342431Y-106437345D01*
G75*
G02*
X53256403Y-104848683I751317J837345D01*
G01*
X54566405Y-103388683D01*
G75*
G02*
X56155067Y-103302655I837345J-751317D01*
G01*
G37*
%TD.AperFunction*%
X54093750Y-105600000D03*
D13*
%TO.P,MX61,3*%
%TO.N,N/C*%
X52863750Y-96520000D03*
D12*
%TO.P,MX61,4*%
X50323750Y-96520000D03*
%TD*%
%TO.P,MX60,2*%
%TO.N,Net-(D60-Pad1)*%
%TA.AperFunction,ComponentPad*%
G36*
G01*
X22978476Y-104977740D02*
X22977403Y-104977666D01*
G75*
G02*
X24022334Y-106177403I-77403J-1122334D01*
G01*
X23982334Y-106757403D01*
G75*
G02*
X22782597Y-107802334I-1122334J77403D01*
G01*
X22782597Y-107802334D01*
G75*
G02*
X21737666Y-106602597I77403J1122334D01*
G01*
X21777666Y-106022597D01*
G75*
G02*
X22977403Y-104977666I1122334J-77403D01*
G01*
G37*
%TD.AperFunction*%
D14*
X22860000Y-106680000D03*
%TO.P,MX60,1*%
%TO.N,COL0*%
%TA.AperFunction,ComponentPad*%
G36*
G01*
X29962772Y-103303962D02*
X29961317Y-103302655D01*
G75*
G02*
X30047345Y-104891317I-751317J-837345D01*
G01*
X28737343Y-106351317D01*
G75*
G02*
X27148681Y-106437345I-837345J751317D01*
G01*
X27148681Y-106437345D01*
G75*
G02*
X27062653Y-104848683I751317J837345D01*
G01*
X28372655Y-103388683D01*
G75*
G02*
X29961317Y-103302655I837345J-751317D01*
G01*
G37*
%TD.AperFunction*%
X27900000Y-105600000D03*
D13*
%TO.P,MX60,3*%
%TO.N,N/C*%
X26670000Y-96520000D03*
D12*
%TO.P,MX60,4*%
X24130000Y-96520000D03*
%TD*%
%TO.P,MX59,2*%
%TO.N,Net-(D59-Pad1)*%
%TA.AperFunction,ComponentPad*%
G36*
G01*
X337303476Y-90690240D02*
X337302403Y-90690166D01*
G75*
G02*
X338347334Y-91889903I-77403J-1122334D01*
G01*
X338307334Y-92469903D01*
G75*
G02*
X337107597Y-93514834I-1122334J77403D01*
G01*
X337107597Y-93514834D01*
G75*
G02*
X336062666Y-92315097I77403J1122334D01*
G01*
X336102666Y-91735097D01*
G75*
G02*
X337302403Y-90690166I1122334J-77403D01*
G01*
G37*
%TD.AperFunction*%
D14*
X337185000Y-92392500D03*
%TO.P,MX59,1*%
%TO.N,COL14*%
%TA.AperFunction,ComponentPad*%
G36*
G01*
X344287772Y-89016462D02*
X344286317Y-89015155D01*
G75*
G02*
X344372345Y-90603817I-751317J-837345D01*
G01*
X343062343Y-92063817D01*
G75*
G02*
X341473681Y-92149845I-837345J751317D01*
G01*
X341473681Y-92149845D01*
G75*
G02*
X341387653Y-90561183I751317J837345D01*
G01*
X342697655Y-89101183D01*
G75*
G02*
X344286317Y-89015155I837345J-751317D01*
G01*
G37*
%TD.AperFunction*%
X342225000Y-91312500D03*
D13*
%TO.P,MX59,3*%
%TO.N,N/C*%
X340995000Y-82232500D03*
D12*
%TO.P,MX59,4*%
X338455000Y-82232500D03*
%TD*%
%TO.P,MX58,2*%
%TO.N,Net-(D58-Pad1)*%
%TA.AperFunction,ComponentPad*%
G36*
G01*
X318253476Y-90690240D02*
X318252403Y-90690166D01*
G75*
G02*
X319297334Y-91889903I-77403J-1122334D01*
G01*
X319257334Y-92469903D01*
G75*
G02*
X318057597Y-93514834I-1122334J77403D01*
G01*
X318057597Y-93514834D01*
G75*
G02*
X317012666Y-92315097I77403J1122334D01*
G01*
X317052666Y-91735097D01*
G75*
G02*
X318252403Y-90690166I1122334J-77403D01*
G01*
G37*
%TD.AperFunction*%
D14*
X318135000Y-92392500D03*
%TO.P,MX58,1*%
%TO.N,COL13*%
%TA.AperFunction,ComponentPad*%
G36*
G01*
X325237772Y-89016462D02*
X325236317Y-89015155D01*
G75*
G02*
X325322345Y-90603817I-751317J-837345D01*
G01*
X324012343Y-92063817D01*
G75*
G02*
X322423681Y-92149845I-837345J751317D01*
G01*
X322423681Y-92149845D01*
G75*
G02*
X322337653Y-90561183I751317J837345D01*
G01*
X323647655Y-89101183D01*
G75*
G02*
X325236317Y-89015155I837345J-751317D01*
G01*
G37*
%TD.AperFunction*%
X323175000Y-91312500D03*
D13*
%TO.P,MX58,3*%
%TO.N,N/C*%
X321945000Y-82232500D03*
D12*
%TO.P,MX58,4*%
X319405000Y-82232500D03*
%TD*%
%TO.P,MX57,2*%
%TO.N,Net-(D57-Pad1)*%
%TA.AperFunction,ComponentPad*%
G36*
G01*
X287297226Y-85927740D02*
X287296153Y-85927666D01*
G75*
G02*
X288341084Y-87127403I-77403J-1122334D01*
G01*
X288301084Y-87707403D01*
G75*
G02*
X287101347Y-88752334I-1122334J77403D01*
G01*
X287101347Y-88752334D01*
G75*
G02*
X286056416Y-87552597I77403J1122334D01*
G01*
X286096416Y-86972597D01*
G75*
G02*
X287296153Y-85927666I1122334J-77403D01*
G01*
G37*
%TD.AperFunction*%
D14*
X287178750Y-87630000D03*
%TO.P,MX57,1*%
%TO.N,COL12*%
%TA.AperFunction,ComponentPad*%
G36*
G01*
X294281522Y-84253962D02*
X294280067Y-84252655D01*
G75*
G02*
X294366095Y-85841317I-751317J-837345D01*
G01*
X293056093Y-87301317D01*
G75*
G02*
X291467431Y-87387345I-837345J751317D01*
G01*
X291467431Y-87387345D01*
G75*
G02*
X291381403Y-85798683I751317J837345D01*
G01*
X292691405Y-84338683D01*
G75*
G02*
X294280067Y-84252655I837345J-751317D01*
G01*
G37*
%TD.AperFunction*%
X292218750Y-86550000D03*
D13*
%TO.P,MX57,3*%
%TO.N,N/C*%
X290988750Y-77470000D03*
D12*
%TO.P,MX57,4*%
X288448750Y-77470000D03*
%TD*%
%TO.P,MX56,2*%
%TO.N,Net-(D56-Pad1)*%
%TA.AperFunction,ComponentPad*%
G36*
G01*
X261103476Y-85927740D02*
X261102403Y-85927666D01*
G75*
G02*
X262147334Y-87127403I-77403J-1122334D01*
G01*
X262107334Y-87707403D01*
G75*
G02*
X260907597Y-88752334I-1122334J77403D01*
G01*
X260907597Y-88752334D01*
G75*
G02*
X259862666Y-87552597I77403J1122334D01*
G01*
X259902666Y-86972597D01*
G75*
G02*
X261102403Y-85927666I1122334J-77403D01*
G01*
G37*
%TD.AperFunction*%
D14*
X260985000Y-87630000D03*
%TO.P,MX56,1*%
%TO.N,COL11*%
%TA.AperFunction,ComponentPad*%
G36*
G01*
X268087772Y-84253962D02*
X268086317Y-84252655D01*
G75*
G02*
X268172345Y-85841317I-751317J-837345D01*
G01*
X266862343Y-87301317D01*
G75*
G02*
X265273681Y-87387345I-837345J751317D01*
G01*
X265273681Y-87387345D01*
G75*
G02*
X265187653Y-85798683I751317J837345D01*
G01*
X266497655Y-84338683D01*
G75*
G02*
X268086317Y-84252655I837345J-751317D01*
G01*
G37*
%TD.AperFunction*%
X266025000Y-86550000D03*
D13*
%TO.P,MX56,3*%
%TO.N,N/C*%
X264795000Y-77470000D03*
D12*
%TO.P,MX56,4*%
X262255000Y-77470000D03*
%TD*%
%TO.P,MX55,2*%
%TO.N,Net-(D55-Pad1)*%
%TA.AperFunction,ComponentPad*%
G36*
G01*
X242053476Y-85927740D02*
X242052403Y-85927666D01*
G75*
G02*
X243097334Y-87127403I-77403J-1122334D01*
G01*
X243057334Y-87707403D01*
G75*
G02*
X241857597Y-88752334I-1122334J77403D01*
G01*
X241857597Y-88752334D01*
G75*
G02*
X240812666Y-87552597I77403J1122334D01*
G01*
X240852666Y-86972597D01*
G75*
G02*
X242052403Y-85927666I1122334J-77403D01*
G01*
G37*
%TD.AperFunction*%
D14*
X241935000Y-87630000D03*
%TO.P,MX55,1*%
%TO.N,COL10*%
%TA.AperFunction,ComponentPad*%
G36*
G01*
X249037772Y-84253962D02*
X249036317Y-84252655D01*
G75*
G02*
X249122345Y-85841317I-751317J-837345D01*
G01*
X247812343Y-87301317D01*
G75*
G02*
X246223681Y-87387345I-837345J751317D01*
G01*
X246223681Y-87387345D01*
G75*
G02*
X246137653Y-85798683I751317J837345D01*
G01*
X247447655Y-84338683D01*
G75*
G02*
X249036317Y-84252655I837345J-751317D01*
G01*
G37*
%TD.AperFunction*%
X246975000Y-86550000D03*
D13*
%TO.P,MX55,3*%
%TO.N,N/C*%
X245745000Y-77470000D03*
D12*
%TO.P,MX55,4*%
X243205000Y-77470000D03*
%TD*%
%TO.P,MX54,2*%
%TO.N,Net-(D54-Pad1)*%
%TA.AperFunction,ComponentPad*%
G36*
G01*
X223003476Y-85927740D02*
X223002403Y-85927666D01*
G75*
G02*
X224047334Y-87127403I-77403J-1122334D01*
G01*
X224007334Y-87707403D01*
G75*
G02*
X222807597Y-88752334I-1122334J77403D01*
G01*
X222807597Y-88752334D01*
G75*
G02*
X221762666Y-87552597I77403J1122334D01*
G01*
X221802666Y-86972597D01*
G75*
G02*
X223002403Y-85927666I1122334J-77403D01*
G01*
G37*
%TD.AperFunction*%
D14*
X222885000Y-87630000D03*
%TO.P,MX54,1*%
%TO.N,COL9*%
%TA.AperFunction,ComponentPad*%
G36*
G01*
X229987772Y-84253962D02*
X229986317Y-84252655D01*
G75*
G02*
X230072345Y-85841317I-751317J-837345D01*
G01*
X228762343Y-87301317D01*
G75*
G02*
X227173681Y-87387345I-837345J751317D01*
G01*
X227173681Y-87387345D01*
G75*
G02*
X227087653Y-85798683I751317J837345D01*
G01*
X228397655Y-84338683D01*
G75*
G02*
X229986317Y-84252655I837345J-751317D01*
G01*
G37*
%TD.AperFunction*%
X227925000Y-86550000D03*
D13*
%TO.P,MX54,3*%
%TO.N,N/C*%
X226695000Y-77470000D03*
D12*
%TO.P,MX54,4*%
X224155000Y-77470000D03*
%TD*%
%TO.P,MX53,2*%
%TO.N,Net-(D53-Pad1)*%
%TA.AperFunction,ComponentPad*%
G36*
G01*
X203953476Y-85927740D02*
X203952403Y-85927666D01*
G75*
G02*
X204997334Y-87127403I-77403J-1122334D01*
G01*
X204957334Y-87707403D01*
G75*
G02*
X203757597Y-88752334I-1122334J77403D01*
G01*
X203757597Y-88752334D01*
G75*
G02*
X202712666Y-87552597I77403J1122334D01*
G01*
X202752666Y-86972597D01*
G75*
G02*
X203952403Y-85927666I1122334J-77403D01*
G01*
G37*
%TD.AperFunction*%
D14*
X203835000Y-87630000D03*
%TO.P,MX53,1*%
%TO.N,COL8*%
%TA.AperFunction,ComponentPad*%
G36*
G01*
X210937772Y-84253962D02*
X210936317Y-84252655D01*
G75*
G02*
X211022345Y-85841317I-751317J-837345D01*
G01*
X209712343Y-87301317D01*
G75*
G02*
X208123681Y-87387345I-837345J751317D01*
G01*
X208123681Y-87387345D01*
G75*
G02*
X208037653Y-85798683I751317J837345D01*
G01*
X209347655Y-84338683D01*
G75*
G02*
X210936317Y-84252655I837345J-751317D01*
G01*
G37*
%TD.AperFunction*%
X208875000Y-86550000D03*
D13*
%TO.P,MX53,3*%
%TO.N,N/C*%
X207645000Y-77470000D03*
D12*
%TO.P,MX53,4*%
X205105000Y-77470000D03*
%TD*%
%TO.P,MX52,2*%
%TO.N,Net-(D52-Pad1)*%
%TA.AperFunction,ComponentPad*%
G36*
G01*
X184903476Y-85927740D02*
X184902403Y-85927666D01*
G75*
G02*
X185947334Y-87127403I-77403J-1122334D01*
G01*
X185907334Y-87707403D01*
G75*
G02*
X184707597Y-88752334I-1122334J77403D01*
G01*
X184707597Y-88752334D01*
G75*
G02*
X183662666Y-87552597I77403J1122334D01*
G01*
X183702666Y-86972597D01*
G75*
G02*
X184902403Y-85927666I1122334J-77403D01*
G01*
G37*
%TD.AperFunction*%
D14*
X184785000Y-87630000D03*
%TO.P,MX52,1*%
%TO.N,COL7*%
%TA.AperFunction,ComponentPad*%
G36*
G01*
X191887772Y-84253962D02*
X191886317Y-84252655D01*
G75*
G02*
X191972345Y-85841317I-751317J-837345D01*
G01*
X190662343Y-87301317D01*
G75*
G02*
X189073681Y-87387345I-837345J751317D01*
G01*
X189073681Y-87387345D01*
G75*
G02*
X188987653Y-85798683I751317J837345D01*
G01*
X190297655Y-84338683D01*
G75*
G02*
X191886317Y-84252655I837345J-751317D01*
G01*
G37*
%TD.AperFunction*%
X189825000Y-86550000D03*
D13*
%TO.P,MX52,3*%
%TO.N,N/C*%
X188595000Y-77470000D03*
D12*
%TO.P,MX52,4*%
X186055000Y-77470000D03*
%TD*%
%TO.P,MX51,2*%
%TO.N,Net-(D51-Pad1)*%
%TA.AperFunction,ComponentPad*%
G36*
G01*
X165853476Y-85927740D02*
X165852403Y-85927666D01*
G75*
G02*
X166897334Y-87127403I-77403J-1122334D01*
G01*
X166857334Y-87707403D01*
G75*
G02*
X165657597Y-88752334I-1122334J77403D01*
G01*
X165657597Y-88752334D01*
G75*
G02*
X164612666Y-87552597I77403J1122334D01*
G01*
X164652666Y-86972597D01*
G75*
G02*
X165852403Y-85927666I1122334J-77403D01*
G01*
G37*
%TD.AperFunction*%
D14*
X165735000Y-87630000D03*
%TO.P,MX51,1*%
%TO.N,COL6*%
%TA.AperFunction,ComponentPad*%
G36*
G01*
X172837772Y-84253962D02*
X172836317Y-84252655D01*
G75*
G02*
X172922345Y-85841317I-751317J-837345D01*
G01*
X171612343Y-87301317D01*
G75*
G02*
X170023681Y-87387345I-837345J751317D01*
G01*
X170023681Y-87387345D01*
G75*
G02*
X169937653Y-85798683I751317J837345D01*
G01*
X171247655Y-84338683D01*
G75*
G02*
X172836317Y-84252655I837345J-751317D01*
G01*
G37*
%TD.AperFunction*%
X170775000Y-86550000D03*
D13*
%TO.P,MX51,3*%
%TO.N,N/C*%
X169545000Y-77470000D03*
D12*
%TO.P,MX51,4*%
X167005000Y-77470000D03*
%TD*%
%TO.P,MX50,2*%
%TO.N,Net-(D50-Pad1)*%
%TA.AperFunction,ComponentPad*%
G36*
G01*
X146803476Y-85927740D02*
X146802403Y-85927666D01*
G75*
G02*
X147847334Y-87127403I-77403J-1122334D01*
G01*
X147807334Y-87707403D01*
G75*
G02*
X146607597Y-88752334I-1122334J77403D01*
G01*
X146607597Y-88752334D01*
G75*
G02*
X145562666Y-87552597I77403J1122334D01*
G01*
X145602666Y-86972597D01*
G75*
G02*
X146802403Y-85927666I1122334J-77403D01*
G01*
G37*
%TD.AperFunction*%
D14*
X146685000Y-87630000D03*
%TO.P,MX50,1*%
%TO.N,COL5*%
%TA.AperFunction,ComponentPad*%
G36*
G01*
X153787772Y-84253962D02*
X153786317Y-84252655D01*
G75*
G02*
X153872345Y-85841317I-751317J-837345D01*
G01*
X152562343Y-87301317D01*
G75*
G02*
X150973681Y-87387345I-837345J751317D01*
G01*
X150973681Y-87387345D01*
G75*
G02*
X150887653Y-85798683I751317J837345D01*
G01*
X152197655Y-84338683D01*
G75*
G02*
X153786317Y-84252655I837345J-751317D01*
G01*
G37*
%TD.AperFunction*%
X151725000Y-86550000D03*
D13*
%TO.P,MX50,3*%
%TO.N,N/C*%
X150495000Y-77470000D03*
D12*
%TO.P,MX50,4*%
X147955000Y-77470000D03*
%TD*%
%TO.P,MX49,2*%
%TO.N,Net-(D49-Pad1)*%
%TA.AperFunction,ComponentPad*%
G36*
G01*
X127753476Y-85927740D02*
X127752403Y-85927666D01*
G75*
G02*
X128797334Y-87127403I-77403J-1122334D01*
G01*
X128757334Y-87707403D01*
G75*
G02*
X127557597Y-88752334I-1122334J77403D01*
G01*
X127557597Y-88752334D01*
G75*
G02*
X126512666Y-87552597I77403J1122334D01*
G01*
X126552666Y-86972597D01*
G75*
G02*
X127752403Y-85927666I1122334J-77403D01*
G01*
G37*
%TD.AperFunction*%
D14*
X127635000Y-87630000D03*
%TO.P,MX49,1*%
%TO.N,COL4*%
%TA.AperFunction,ComponentPad*%
G36*
G01*
X134737772Y-84253962D02*
X134736317Y-84252655D01*
G75*
G02*
X134822345Y-85841317I-751317J-837345D01*
G01*
X133512343Y-87301317D01*
G75*
G02*
X131923681Y-87387345I-837345J751317D01*
G01*
X131923681Y-87387345D01*
G75*
G02*
X131837653Y-85798683I751317J837345D01*
G01*
X133147655Y-84338683D01*
G75*
G02*
X134736317Y-84252655I837345J-751317D01*
G01*
G37*
%TD.AperFunction*%
X132675000Y-86550000D03*
D13*
%TO.P,MX49,3*%
%TO.N,N/C*%
X131445000Y-77470000D03*
D12*
%TO.P,MX49,4*%
X128905000Y-77470000D03*
%TD*%
%TO.P,MX48,2*%
%TO.N,Net-(D48-Pad1)*%
%TA.AperFunction,ComponentPad*%
G36*
G01*
X108703476Y-85927740D02*
X108702403Y-85927666D01*
G75*
G02*
X109747334Y-87127403I-77403J-1122334D01*
G01*
X109707334Y-87707403D01*
G75*
G02*
X108507597Y-88752334I-1122334J77403D01*
G01*
X108507597Y-88752334D01*
G75*
G02*
X107462666Y-87552597I77403J1122334D01*
G01*
X107502666Y-86972597D01*
G75*
G02*
X108702403Y-85927666I1122334J-77403D01*
G01*
G37*
%TD.AperFunction*%
D14*
X108585000Y-87630000D03*
%TO.P,MX48,1*%
%TO.N,COL3*%
%TA.AperFunction,ComponentPad*%
G36*
G01*
X115687772Y-84253962D02*
X115686317Y-84252655D01*
G75*
G02*
X115772345Y-85841317I-751317J-837345D01*
G01*
X114462343Y-87301317D01*
G75*
G02*
X112873681Y-87387345I-837345J751317D01*
G01*
X112873681Y-87387345D01*
G75*
G02*
X112787653Y-85798683I751317J837345D01*
G01*
X114097655Y-84338683D01*
G75*
G02*
X115686317Y-84252655I837345J-751317D01*
G01*
G37*
%TD.AperFunction*%
X113625000Y-86550000D03*
D13*
%TO.P,MX48,3*%
%TO.N,N/C*%
X112395000Y-77470000D03*
D12*
%TO.P,MX48,4*%
X109855000Y-77470000D03*
%TD*%
%TO.P,MX47,2*%
%TO.N,Net-(D47-Pad1)*%
%TA.AperFunction,ComponentPad*%
G36*
G01*
X89653476Y-85927740D02*
X89652403Y-85927666D01*
G75*
G02*
X90697334Y-87127403I-77403J-1122334D01*
G01*
X90657334Y-87707403D01*
G75*
G02*
X89457597Y-88752334I-1122334J77403D01*
G01*
X89457597Y-88752334D01*
G75*
G02*
X88412666Y-87552597I77403J1122334D01*
G01*
X88452666Y-86972597D01*
G75*
G02*
X89652403Y-85927666I1122334J-77403D01*
G01*
G37*
%TD.AperFunction*%
D14*
X89535000Y-87630000D03*
%TO.P,MX47,1*%
%TO.N,COL2*%
%TA.AperFunction,ComponentPad*%
G36*
G01*
X96637772Y-84253962D02*
X96636317Y-84252655D01*
G75*
G02*
X96722345Y-85841317I-751317J-837345D01*
G01*
X95412343Y-87301317D01*
G75*
G02*
X93823681Y-87387345I-837345J751317D01*
G01*
X93823681Y-87387345D01*
G75*
G02*
X93737653Y-85798683I751317J837345D01*
G01*
X95047655Y-84338683D01*
G75*
G02*
X96636317Y-84252655I837345J-751317D01*
G01*
G37*
%TD.AperFunction*%
X94575000Y-86550000D03*
D13*
%TO.P,MX47,3*%
%TO.N,N/C*%
X93345000Y-77470000D03*
D12*
%TO.P,MX47,4*%
X90805000Y-77470000D03*
%TD*%
%TO.P,MX46,2*%
%TO.N,Net-(D46-Pad1)*%
%TA.AperFunction,ComponentPad*%
G36*
G01*
X58697226Y-85927740D02*
X58696153Y-85927666D01*
G75*
G02*
X59741084Y-87127403I-77403J-1122334D01*
G01*
X59701084Y-87707403D01*
G75*
G02*
X58501347Y-88752334I-1122334J77403D01*
G01*
X58501347Y-88752334D01*
G75*
G02*
X57456416Y-87552597I77403J1122334D01*
G01*
X57496416Y-86972597D01*
G75*
G02*
X58696153Y-85927666I1122334J-77403D01*
G01*
G37*
%TD.AperFunction*%
D14*
X58578750Y-87630000D03*
%TO.P,MX46,1*%
%TO.N,COL1*%
%TA.AperFunction,ComponentPad*%
G36*
G01*
X65681522Y-84253962D02*
X65680067Y-84252655D01*
G75*
G02*
X65766095Y-85841317I-751317J-837345D01*
G01*
X64456093Y-87301317D01*
G75*
G02*
X62867431Y-87387345I-837345J751317D01*
G01*
X62867431Y-87387345D01*
G75*
G02*
X62781403Y-85798683I751317J837345D01*
G01*
X64091405Y-84338683D01*
G75*
G02*
X65680067Y-84252655I837345J-751317D01*
G01*
G37*
%TD.AperFunction*%
X63618750Y-86550000D03*
D13*
%TO.P,MX46,3*%
%TO.N,N/C*%
X62388750Y-77470000D03*
D12*
%TO.P,MX46,4*%
X59848750Y-77470000D03*
%TD*%
%TO.P,MX45,2*%
%TO.N,Net-(D45-Pad1)*%
%TA.AperFunction,ComponentPad*%
G36*
G01*
X22978476Y-85927740D02*
X22977403Y-85927666D01*
G75*
G02*
X24022334Y-87127403I-77403J-1122334D01*
G01*
X23982334Y-87707403D01*
G75*
G02*
X22782597Y-88752334I-1122334J77403D01*
G01*
X22782597Y-88752334D01*
G75*
G02*
X21737666Y-87552597I77403J1122334D01*
G01*
X21777666Y-86972597D01*
G75*
G02*
X22977403Y-85927666I1122334J-77403D01*
G01*
G37*
%TD.AperFunction*%
D14*
X22860000Y-87630000D03*
%TO.P,MX45,1*%
%TO.N,COL0*%
%TA.AperFunction,ComponentPad*%
G36*
G01*
X29962772Y-84253962D02*
X29961317Y-84252655D01*
G75*
G02*
X30047345Y-85841317I-751317J-837345D01*
G01*
X28737343Y-87301317D01*
G75*
G02*
X27148681Y-87387345I-837345J751317D01*
G01*
X27148681Y-87387345D01*
G75*
G02*
X27062653Y-85798683I751317J837345D01*
G01*
X28372655Y-84338683D01*
G75*
G02*
X29961317Y-84252655I837345J-751317D01*
G01*
G37*
%TD.AperFunction*%
X27900000Y-86550000D03*
D13*
%TO.P,MX45,3*%
%TO.N,N/C*%
X26670000Y-77470000D03*
D12*
%TO.P,MX45,4*%
X24130000Y-77470000D03*
%TD*%
%TO.P,MX43,2*%
%TO.N,Net-(D43-Pad1)*%
%TA.AperFunction,ComponentPad*%
G36*
G01*
X270628476Y-66877740D02*
X270627403Y-66877666D01*
G75*
G02*
X271672334Y-68077403I-77403J-1122334D01*
G01*
X271632334Y-68657403D01*
G75*
G02*
X270432597Y-69702334I-1122334J77403D01*
G01*
X270432597Y-69702334D01*
G75*
G02*
X269387666Y-68502597I77403J1122334D01*
G01*
X269427666Y-67922597D01*
G75*
G02*
X270627403Y-66877666I1122334J-77403D01*
G01*
G37*
%TD.AperFunction*%
D14*
X270510000Y-68580000D03*
%TO.P,MX43,1*%
%TO.N,COL12*%
%TA.AperFunction,ComponentPad*%
G36*
G01*
X277612772Y-65203962D02*
X277611317Y-65202655D01*
G75*
G02*
X277697345Y-66791317I-751317J-837345D01*
G01*
X276387343Y-68251317D01*
G75*
G02*
X274798681Y-68337345I-837345J751317D01*
G01*
X274798681Y-68337345D01*
G75*
G02*
X274712653Y-66748683I751317J837345D01*
G01*
X276022655Y-65288683D01*
G75*
G02*
X277611317Y-65202655I837345J-751317D01*
G01*
G37*
%TD.AperFunction*%
X275550000Y-67500000D03*
D13*
%TO.P,MX43,3*%
%TO.N,N/C*%
X274320000Y-58420000D03*
D12*
%TO.P,MX43,4*%
X271780000Y-58420000D03*
%TD*%
%TO.P,MX42,2*%
%TO.N,Net-(D42-Pad1)*%
%TA.AperFunction,ComponentPad*%
G36*
G01*
X251578476Y-66877740D02*
X251577403Y-66877666D01*
G75*
G02*
X252622334Y-68077403I-77403J-1122334D01*
G01*
X252582334Y-68657403D01*
G75*
G02*
X251382597Y-69702334I-1122334J77403D01*
G01*
X251382597Y-69702334D01*
G75*
G02*
X250337666Y-68502597I77403J1122334D01*
G01*
X250377666Y-67922597D01*
G75*
G02*
X251577403Y-66877666I1122334J-77403D01*
G01*
G37*
%TD.AperFunction*%
D14*
X251460000Y-68580000D03*
%TO.P,MX42,1*%
%TO.N,COL11*%
%TA.AperFunction,ComponentPad*%
G36*
G01*
X258562772Y-65203962D02*
X258561317Y-65202655D01*
G75*
G02*
X258647345Y-66791317I-751317J-837345D01*
G01*
X257337343Y-68251317D01*
G75*
G02*
X255748681Y-68337345I-837345J751317D01*
G01*
X255748681Y-68337345D01*
G75*
G02*
X255662653Y-66748683I751317J837345D01*
G01*
X256972655Y-65288683D01*
G75*
G02*
X258561317Y-65202655I837345J-751317D01*
G01*
G37*
%TD.AperFunction*%
X256500000Y-67500000D03*
D13*
%TO.P,MX42,3*%
%TO.N,N/C*%
X255270000Y-58420000D03*
D12*
%TO.P,MX42,4*%
X252730000Y-58420000D03*
%TD*%
%TO.P,MX41,2*%
%TO.N,Net-(D41-Pad1)*%
%TA.AperFunction,ComponentPad*%
G36*
G01*
X232528476Y-66877740D02*
X232527403Y-66877666D01*
G75*
G02*
X233572334Y-68077403I-77403J-1122334D01*
G01*
X233532334Y-68657403D01*
G75*
G02*
X232332597Y-69702334I-1122334J77403D01*
G01*
X232332597Y-69702334D01*
G75*
G02*
X231287666Y-68502597I77403J1122334D01*
G01*
X231327666Y-67922597D01*
G75*
G02*
X232527403Y-66877666I1122334J-77403D01*
G01*
G37*
%TD.AperFunction*%
D14*
X232410000Y-68580000D03*
%TO.P,MX41,1*%
%TO.N,COL10*%
%TA.AperFunction,ComponentPad*%
G36*
G01*
X239512772Y-65203962D02*
X239511317Y-65202655D01*
G75*
G02*
X239597345Y-66791317I-751317J-837345D01*
G01*
X238287343Y-68251317D01*
G75*
G02*
X236698681Y-68337345I-837345J751317D01*
G01*
X236698681Y-68337345D01*
G75*
G02*
X236612653Y-66748683I751317J837345D01*
G01*
X237922655Y-65288683D01*
G75*
G02*
X239511317Y-65202655I837345J-751317D01*
G01*
G37*
%TD.AperFunction*%
X237450000Y-67500000D03*
D13*
%TO.P,MX41,3*%
%TO.N,N/C*%
X236220000Y-58420000D03*
D12*
%TO.P,MX41,4*%
X233680000Y-58420000D03*
%TD*%
%TO.P,MX40,2*%
%TO.N,Net-(D40-Pad1)*%
%TA.AperFunction,ComponentPad*%
G36*
G01*
X213478476Y-66877740D02*
X213477403Y-66877666D01*
G75*
G02*
X214522334Y-68077403I-77403J-1122334D01*
G01*
X214482334Y-68657403D01*
G75*
G02*
X213282597Y-69702334I-1122334J77403D01*
G01*
X213282597Y-69702334D01*
G75*
G02*
X212237666Y-68502597I77403J1122334D01*
G01*
X212277666Y-67922597D01*
G75*
G02*
X213477403Y-66877666I1122334J-77403D01*
G01*
G37*
%TD.AperFunction*%
D14*
X213360000Y-68580000D03*
%TO.P,MX40,1*%
%TO.N,COL9*%
%TA.AperFunction,ComponentPad*%
G36*
G01*
X220462772Y-65203962D02*
X220461317Y-65202655D01*
G75*
G02*
X220547345Y-66791317I-751317J-837345D01*
G01*
X219237343Y-68251317D01*
G75*
G02*
X217648681Y-68337345I-837345J751317D01*
G01*
X217648681Y-68337345D01*
G75*
G02*
X217562653Y-66748683I751317J837345D01*
G01*
X218872655Y-65288683D01*
G75*
G02*
X220461317Y-65202655I837345J-751317D01*
G01*
G37*
%TD.AperFunction*%
X218400000Y-67500000D03*
D13*
%TO.P,MX40,3*%
%TO.N,N/C*%
X217170000Y-58420000D03*
D12*
%TO.P,MX40,4*%
X214630000Y-58420000D03*
%TD*%
%TO.P,MX39,2*%
%TO.N,Net-(D39-Pad1)*%
%TA.AperFunction,ComponentPad*%
G36*
G01*
X194428476Y-66877740D02*
X194427403Y-66877666D01*
G75*
G02*
X195472334Y-68077403I-77403J-1122334D01*
G01*
X195432334Y-68657403D01*
G75*
G02*
X194232597Y-69702334I-1122334J77403D01*
G01*
X194232597Y-69702334D01*
G75*
G02*
X193187666Y-68502597I77403J1122334D01*
G01*
X193227666Y-67922597D01*
G75*
G02*
X194427403Y-66877666I1122334J-77403D01*
G01*
G37*
%TD.AperFunction*%
D14*
X194310000Y-68580000D03*
%TO.P,MX39,1*%
%TO.N,COL8*%
%TA.AperFunction,ComponentPad*%
G36*
G01*
X201412772Y-65203962D02*
X201411317Y-65202655D01*
G75*
G02*
X201497345Y-66791317I-751317J-837345D01*
G01*
X200187343Y-68251317D01*
G75*
G02*
X198598681Y-68337345I-837345J751317D01*
G01*
X198598681Y-68337345D01*
G75*
G02*
X198512653Y-66748683I751317J837345D01*
G01*
X199822655Y-65288683D01*
G75*
G02*
X201411317Y-65202655I837345J-751317D01*
G01*
G37*
%TD.AperFunction*%
X199350000Y-67500000D03*
D13*
%TO.P,MX39,3*%
%TO.N,N/C*%
X198120000Y-58420000D03*
D12*
%TO.P,MX39,4*%
X195580000Y-58420000D03*
%TD*%
%TO.P,MX38,2*%
%TO.N,Net-(D38-Pad1)*%
%TA.AperFunction,ComponentPad*%
G36*
G01*
X175378476Y-66877740D02*
X175377403Y-66877666D01*
G75*
G02*
X176422334Y-68077403I-77403J-1122334D01*
G01*
X176382334Y-68657403D01*
G75*
G02*
X175182597Y-69702334I-1122334J77403D01*
G01*
X175182597Y-69702334D01*
G75*
G02*
X174137666Y-68502597I77403J1122334D01*
G01*
X174177666Y-67922597D01*
G75*
G02*
X175377403Y-66877666I1122334J-77403D01*
G01*
G37*
%TD.AperFunction*%
D14*
X175260000Y-68580000D03*
%TO.P,MX38,1*%
%TO.N,COL7*%
%TA.AperFunction,ComponentPad*%
G36*
G01*
X182362772Y-65203962D02*
X182361317Y-65202655D01*
G75*
G02*
X182447345Y-66791317I-751317J-837345D01*
G01*
X181137343Y-68251317D01*
G75*
G02*
X179548681Y-68337345I-837345J751317D01*
G01*
X179548681Y-68337345D01*
G75*
G02*
X179462653Y-66748683I751317J837345D01*
G01*
X180772655Y-65288683D01*
G75*
G02*
X182361317Y-65202655I837345J-751317D01*
G01*
G37*
%TD.AperFunction*%
X180300000Y-67500000D03*
D13*
%TO.P,MX38,3*%
%TO.N,N/C*%
X179070000Y-58420000D03*
D12*
%TO.P,MX38,4*%
X176530000Y-58420000D03*
%TD*%
%TO.P,MX37,2*%
%TO.N,Net-(D37-Pad1)*%
%TA.AperFunction,ComponentPad*%
G36*
G01*
X156328476Y-66877740D02*
X156327403Y-66877666D01*
G75*
G02*
X157372334Y-68077403I-77403J-1122334D01*
G01*
X157332334Y-68657403D01*
G75*
G02*
X156132597Y-69702334I-1122334J77403D01*
G01*
X156132597Y-69702334D01*
G75*
G02*
X155087666Y-68502597I77403J1122334D01*
G01*
X155127666Y-67922597D01*
G75*
G02*
X156327403Y-66877666I1122334J-77403D01*
G01*
G37*
%TD.AperFunction*%
D14*
X156210000Y-68580000D03*
%TO.P,MX37,1*%
%TO.N,COL6*%
%TA.AperFunction,ComponentPad*%
G36*
G01*
X163312772Y-65203962D02*
X163311317Y-65202655D01*
G75*
G02*
X163397345Y-66791317I-751317J-837345D01*
G01*
X162087343Y-68251317D01*
G75*
G02*
X160498681Y-68337345I-837345J751317D01*
G01*
X160498681Y-68337345D01*
G75*
G02*
X160412653Y-66748683I751317J837345D01*
G01*
X161722655Y-65288683D01*
G75*
G02*
X163311317Y-65202655I837345J-751317D01*
G01*
G37*
%TD.AperFunction*%
X161250000Y-67500000D03*
D13*
%TO.P,MX37,3*%
%TO.N,N/C*%
X160020000Y-58420000D03*
D12*
%TO.P,MX37,4*%
X157480000Y-58420000D03*
%TD*%
%TO.P,MX36,2*%
%TO.N,Net-(D36-Pad1)*%
%TA.AperFunction,ComponentPad*%
G36*
G01*
X137278476Y-66877740D02*
X137277403Y-66877666D01*
G75*
G02*
X138322334Y-68077403I-77403J-1122334D01*
G01*
X138282334Y-68657403D01*
G75*
G02*
X137082597Y-69702334I-1122334J77403D01*
G01*
X137082597Y-69702334D01*
G75*
G02*
X136037666Y-68502597I77403J1122334D01*
G01*
X136077666Y-67922597D01*
G75*
G02*
X137277403Y-66877666I1122334J-77403D01*
G01*
G37*
%TD.AperFunction*%
D14*
X137160000Y-68580000D03*
%TO.P,MX36,1*%
%TO.N,COL5*%
%TA.AperFunction,ComponentPad*%
G36*
G01*
X144262772Y-65203962D02*
X144261317Y-65202655D01*
G75*
G02*
X144347345Y-66791317I-751317J-837345D01*
G01*
X143037343Y-68251317D01*
G75*
G02*
X141448681Y-68337345I-837345J751317D01*
G01*
X141448681Y-68337345D01*
G75*
G02*
X141362653Y-66748683I751317J837345D01*
G01*
X142672655Y-65288683D01*
G75*
G02*
X144261317Y-65202655I837345J-751317D01*
G01*
G37*
%TD.AperFunction*%
X142200000Y-67500000D03*
D13*
%TO.P,MX36,3*%
%TO.N,N/C*%
X140970000Y-58420000D03*
D12*
%TO.P,MX36,4*%
X138430000Y-58420000D03*
%TD*%
%TO.P,MX35,2*%
%TO.N,Net-(D35-Pad1)*%
%TA.AperFunction,ComponentPad*%
G36*
G01*
X118228476Y-66877740D02*
X118227403Y-66877666D01*
G75*
G02*
X119272334Y-68077403I-77403J-1122334D01*
G01*
X119232334Y-68657403D01*
G75*
G02*
X118032597Y-69702334I-1122334J77403D01*
G01*
X118032597Y-69702334D01*
G75*
G02*
X116987666Y-68502597I77403J1122334D01*
G01*
X117027666Y-67922597D01*
G75*
G02*
X118227403Y-66877666I1122334J-77403D01*
G01*
G37*
%TD.AperFunction*%
D14*
X118110000Y-68580000D03*
%TO.P,MX35,1*%
%TO.N,COL4*%
%TA.AperFunction,ComponentPad*%
G36*
G01*
X125212772Y-65203962D02*
X125211317Y-65202655D01*
G75*
G02*
X125297345Y-66791317I-751317J-837345D01*
G01*
X123987343Y-68251317D01*
G75*
G02*
X122398681Y-68337345I-837345J751317D01*
G01*
X122398681Y-68337345D01*
G75*
G02*
X122312653Y-66748683I751317J837345D01*
G01*
X123622655Y-65288683D01*
G75*
G02*
X125211317Y-65202655I837345J-751317D01*
G01*
G37*
%TD.AperFunction*%
X123150000Y-67500000D03*
D13*
%TO.P,MX35,3*%
%TO.N,N/C*%
X121920000Y-58420000D03*
D12*
%TO.P,MX35,4*%
X119380000Y-58420000D03*
%TD*%
%TO.P,MX34,2*%
%TO.N,Net-(D34-Pad1)*%
%TA.AperFunction,ComponentPad*%
G36*
G01*
X99178476Y-66877740D02*
X99177403Y-66877666D01*
G75*
G02*
X100222334Y-68077403I-77403J-1122334D01*
G01*
X100182334Y-68657403D01*
G75*
G02*
X98982597Y-69702334I-1122334J77403D01*
G01*
X98982597Y-69702334D01*
G75*
G02*
X97937666Y-68502597I77403J1122334D01*
G01*
X97977666Y-67922597D01*
G75*
G02*
X99177403Y-66877666I1122334J-77403D01*
G01*
G37*
%TD.AperFunction*%
D14*
X99060000Y-68580000D03*
%TO.P,MX34,1*%
%TO.N,COL3*%
%TA.AperFunction,ComponentPad*%
G36*
G01*
X106162772Y-65203962D02*
X106161317Y-65202655D01*
G75*
G02*
X106247345Y-66791317I-751317J-837345D01*
G01*
X104937343Y-68251317D01*
G75*
G02*
X103348681Y-68337345I-837345J751317D01*
G01*
X103348681Y-68337345D01*
G75*
G02*
X103262653Y-66748683I751317J837345D01*
G01*
X104572655Y-65288683D01*
G75*
G02*
X106161317Y-65202655I837345J-751317D01*
G01*
G37*
%TD.AperFunction*%
X104100000Y-67500000D03*
D13*
%TO.P,MX34,3*%
%TO.N,N/C*%
X102870000Y-58420000D03*
D12*
%TO.P,MX34,4*%
X100330000Y-58420000D03*
%TD*%
%TO.P,MX33,2*%
%TO.N,Net-(D33-Pad1)*%
%TA.AperFunction,ComponentPad*%
G36*
G01*
X80128476Y-66877740D02*
X80127403Y-66877666D01*
G75*
G02*
X81172334Y-68077403I-77403J-1122334D01*
G01*
X81132334Y-68657403D01*
G75*
G02*
X79932597Y-69702334I-1122334J77403D01*
G01*
X79932597Y-69702334D01*
G75*
G02*
X78887666Y-68502597I77403J1122334D01*
G01*
X78927666Y-67922597D01*
G75*
G02*
X80127403Y-66877666I1122334J-77403D01*
G01*
G37*
%TD.AperFunction*%
D14*
X80010000Y-68580000D03*
%TO.P,MX33,1*%
%TO.N,COL2*%
%TA.AperFunction,ComponentPad*%
G36*
G01*
X87112772Y-65203962D02*
X87111317Y-65202655D01*
G75*
G02*
X87197345Y-66791317I-751317J-837345D01*
G01*
X85887343Y-68251317D01*
G75*
G02*
X84298681Y-68337345I-837345J751317D01*
G01*
X84298681Y-68337345D01*
G75*
G02*
X84212653Y-66748683I751317J837345D01*
G01*
X85522655Y-65288683D01*
G75*
G02*
X87111317Y-65202655I837345J-751317D01*
G01*
G37*
%TD.AperFunction*%
X85050000Y-67500000D03*
D13*
%TO.P,MX33,3*%
%TO.N,N/C*%
X83820000Y-58420000D03*
D12*
%TO.P,MX33,4*%
X81280000Y-58420000D03*
%TD*%
%TO.P,MX32,2*%
%TO.N,Net-(D32-Pad1)*%
%TA.AperFunction,ComponentPad*%
G36*
G01*
X53934726Y-66877740D02*
X53933653Y-66877666D01*
G75*
G02*
X54978584Y-68077403I-77403J-1122334D01*
G01*
X54938584Y-68657403D01*
G75*
G02*
X53738847Y-69702334I-1122334J77403D01*
G01*
X53738847Y-69702334D01*
G75*
G02*
X52693916Y-68502597I77403J1122334D01*
G01*
X52733916Y-67922597D01*
G75*
G02*
X53933653Y-66877666I1122334J-77403D01*
G01*
G37*
%TD.AperFunction*%
D14*
X53816250Y-68580000D03*
%TO.P,MX32,1*%
%TO.N,COL1*%
%TA.AperFunction,ComponentPad*%
G36*
G01*
X60919022Y-65203962D02*
X60917567Y-65202655D01*
G75*
G02*
X61003595Y-66791317I-751317J-837345D01*
G01*
X59693593Y-68251317D01*
G75*
G02*
X58104931Y-68337345I-837345J751317D01*
G01*
X58104931Y-68337345D01*
G75*
G02*
X58018903Y-66748683I751317J837345D01*
G01*
X59328905Y-65288683D01*
G75*
G02*
X60917567Y-65202655I837345J-751317D01*
G01*
G37*
%TD.AperFunction*%
X58856250Y-67500000D03*
D13*
%TO.P,MX32,3*%
%TO.N,N/C*%
X57626250Y-58420000D03*
D12*
%TO.P,MX32,4*%
X55086250Y-58420000D03*
%TD*%
%TO.P,MX31,2*%
%TO.N,Net-(D31-Pad1)*%
%TA.AperFunction,ComponentPad*%
G36*
G01*
X22978476Y-66877740D02*
X22977403Y-66877666D01*
G75*
G02*
X24022334Y-68077403I-77403J-1122334D01*
G01*
X23982334Y-68657403D01*
G75*
G02*
X22782597Y-69702334I-1122334J77403D01*
G01*
X22782597Y-69702334D01*
G75*
G02*
X21737666Y-68502597I77403J1122334D01*
G01*
X21777666Y-67922597D01*
G75*
G02*
X22977403Y-66877666I1122334J-77403D01*
G01*
G37*
%TD.AperFunction*%
D14*
X22860000Y-68580000D03*
%TO.P,MX31,1*%
%TO.N,COL0*%
%TA.AperFunction,ComponentPad*%
G36*
G01*
X29962772Y-65203962D02*
X29961317Y-65202655D01*
G75*
G02*
X30047345Y-66791317I-751317J-837345D01*
G01*
X28737343Y-68251317D01*
G75*
G02*
X27148681Y-68337345I-837345J751317D01*
G01*
X27148681Y-68337345D01*
G75*
G02*
X27062653Y-66748683I751317J837345D01*
G01*
X28372655Y-65288683D01*
G75*
G02*
X29961317Y-65202655I837345J-751317D01*
G01*
G37*
%TD.AperFunction*%
X27900000Y-67500000D03*
D13*
%TO.P,MX31,3*%
%TO.N,N/C*%
X26670000Y-58420000D03*
D12*
%TO.P,MX31,4*%
X24130000Y-58420000D03*
%TD*%
%TO.P,MX29,2*%
%TO.N,Net-(D29-Pad1)*%
%TA.AperFunction,ComponentPad*%
G36*
G01*
X284852476Y-47827740D02*
X284851403Y-47827666D01*
G75*
G02*
X285896334Y-49027403I-77403J-1122334D01*
G01*
X285856334Y-49607403D01*
G75*
G02*
X284656597Y-50652334I-1122334J77403D01*
G01*
X284656597Y-50652334D01*
G75*
G02*
X283611666Y-49452597I77403J1122334D01*
G01*
X283651666Y-48872597D01*
G75*
G02*
X284851403Y-47827666I1122334J-77403D01*
G01*
G37*
%TD.AperFunction*%
D14*
X284734000Y-49530000D03*
%TO.P,MX29,1*%
%TO.N,COL13*%
%TA.AperFunction,ComponentPad*%
G36*
G01*
X291836772Y-46153962D02*
X291835317Y-46152655D01*
G75*
G02*
X291921345Y-47741317I-751317J-837345D01*
G01*
X290611343Y-49201317D01*
G75*
G02*
X289022681Y-49287345I-837345J751317D01*
G01*
X289022681Y-49287345D01*
G75*
G02*
X288936653Y-47698683I751317J837345D01*
G01*
X290246655Y-46238683D01*
G75*
G02*
X291835317Y-46152655I837345J-751317D01*
G01*
G37*
%TD.AperFunction*%
X289774000Y-48450000D03*
D13*
%TO.P,MX29,3*%
%TO.N,N/C*%
X288544000Y-39370000D03*
D12*
%TO.P,MX29,4*%
X286004000Y-39370000D03*
%TD*%
%TO.P,MX28,2*%
%TO.N,Net-(D28-Pad1)*%
%TA.AperFunction,ComponentPad*%
G36*
G01*
X265802476Y-47827740D02*
X265801403Y-47827666D01*
G75*
G02*
X266846334Y-49027403I-77403J-1122334D01*
G01*
X266806334Y-49607403D01*
G75*
G02*
X265606597Y-50652334I-1122334J77403D01*
G01*
X265606597Y-50652334D01*
G75*
G02*
X264561666Y-49452597I77403J1122334D01*
G01*
X264601666Y-48872597D01*
G75*
G02*
X265801403Y-47827666I1122334J-77403D01*
G01*
G37*
%TD.AperFunction*%
D14*
X265684000Y-49530000D03*
%TO.P,MX28,1*%
%TO.N,COL12*%
%TA.AperFunction,ComponentPad*%
G36*
G01*
X272786772Y-46153962D02*
X272785317Y-46152655D01*
G75*
G02*
X272871345Y-47741317I-751317J-837345D01*
G01*
X271561343Y-49201317D01*
G75*
G02*
X269972681Y-49287345I-837345J751317D01*
G01*
X269972681Y-49287345D01*
G75*
G02*
X269886653Y-47698683I751317J837345D01*
G01*
X271196655Y-46238683D01*
G75*
G02*
X272785317Y-46152655I837345J-751317D01*
G01*
G37*
%TD.AperFunction*%
X270724000Y-48450000D03*
D13*
%TO.P,MX28,3*%
%TO.N,N/C*%
X269494000Y-39370000D03*
D12*
%TO.P,MX28,4*%
X266954000Y-39370000D03*
%TD*%
%TO.P,MX27,2*%
%TO.N,Net-(D27-Pad1)*%
%TA.AperFunction,ComponentPad*%
G36*
G01*
X246752476Y-47827740D02*
X246751403Y-47827666D01*
G75*
G02*
X247796334Y-49027403I-77403J-1122334D01*
G01*
X247756334Y-49607403D01*
G75*
G02*
X246556597Y-50652334I-1122334J77403D01*
G01*
X246556597Y-50652334D01*
G75*
G02*
X245511666Y-49452597I77403J1122334D01*
G01*
X245551666Y-48872597D01*
G75*
G02*
X246751403Y-47827666I1122334J-77403D01*
G01*
G37*
%TD.AperFunction*%
D14*
X246634000Y-49530000D03*
%TO.P,MX27,1*%
%TO.N,COL11*%
%TA.AperFunction,ComponentPad*%
G36*
G01*
X253736772Y-46153962D02*
X253735317Y-46152655D01*
G75*
G02*
X253821345Y-47741317I-751317J-837345D01*
G01*
X252511343Y-49201317D01*
G75*
G02*
X250922681Y-49287345I-837345J751317D01*
G01*
X250922681Y-49287345D01*
G75*
G02*
X250836653Y-47698683I751317J837345D01*
G01*
X252146655Y-46238683D01*
G75*
G02*
X253735317Y-46152655I837345J-751317D01*
G01*
G37*
%TD.AperFunction*%
X251674000Y-48450000D03*
D13*
%TO.P,MX27,3*%
%TO.N,N/C*%
X250444000Y-39370000D03*
D12*
%TO.P,MX27,4*%
X247904000Y-39370000D03*
%TD*%
%TO.P,MX26,2*%
%TO.N,Net-(D26-Pad1)*%
%TA.AperFunction,ComponentPad*%
G36*
G01*
X227702476Y-47827740D02*
X227701403Y-47827666D01*
G75*
G02*
X228746334Y-49027403I-77403J-1122334D01*
G01*
X228706334Y-49607403D01*
G75*
G02*
X227506597Y-50652334I-1122334J77403D01*
G01*
X227506597Y-50652334D01*
G75*
G02*
X226461666Y-49452597I77403J1122334D01*
G01*
X226501666Y-48872597D01*
G75*
G02*
X227701403Y-47827666I1122334J-77403D01*
G01*
G37*
%TD.AperFunction*%
D14*
X227584000Y-49530000D03*
%TO.P,MX26,1*%
%TO.N,COL10*%
%TA.AperFunction,ComponentPad*%
G36*
G01*
X234686772Y-46153962D02*
X234685317Y-46152655D01*
G75*
G02*
X234771345Y-47741317I-751317J-837345D01*
G01*
X233461343Y-49201317D01*
G75*
G02*
X231872681Y-49287345I-837345J751317D01*
G01*
X231872681Y-49287345D01*
G75*
G02*
X231786653Y-47698683I751317J837345D01*
G01*
X233096655Y-46238683D01*
G75*
G02*
X234685317Y-46152655I837345J-751317D01*
G01*
G37*
%TD.AperFunction*%
X232624000Y-48450000D03*
D13*
%TO.P,MX26,3*%
%TO.N,N/C*%
X231394000Y-39370000D03*
D12*
%TO.P,MX26,4*%
X228854000Y-39370000D03*
%TD*%
%TO.P,MX25,2*%
%TO.N,Net-(D25-Pad1)*%
%TA.AperFunction,ComponentPad*%
G36*
G01*
X208652476Y-47827740D02*
X208651403Y-47827666D01*
G75*
G02*
X209696334Y-49027403I-77403J-1122334D01*
G01*
X209656334Y-49607403D01*
G75*
G02*
X208456597Y-50652334I-1122334J77403D01*
G01*
X208456597Y-50652334D01*
G75*
G02*
X207411666Y-49452597I77403J1122334D01*
G01*
X207451666Y-48872597D01*
G75*
G02*
X208651403Y-47827666I1122334J-77403D01*
G01*
G37*
%TD.AperFunction*%
D14*
X208534000Y-49530000D03*
%TO.P,MX25,1*%
%TO.N,COL9*%
%TA.AperFunction,ComponentPad*%
G36*
G01*
X215636772Y-46153962D02*
X215635317Y-46152655D01*
G75*
G02*
X215721345Y-47741317I-751317J-837345D01*
G01*
X214411343Y-49201317D01*
G75*
G02*
X212822681Y-49287345I-837345J751317D01*
G01*
X212822681Y-49287345D01*
G75*
G02*
X212736653Y-47698683I751317J837345D01*
G01*
X214046655Y-46238683D01*
G75*
G02*
X215635317Y-46152655I837345J-751317D01*
G01*
G37*
%TD.AperFunction*%
X213574000Y-48450000D03*
D13*
%TO.P,MX25,3*%
%TO.N,N/C*%
X212344000Y-39370000D03*
D12*
%TO.P,MX25,4*%
X209804000Y-39370000D03*
%TD*%
%TO.P,MX24,2*%
%TO.N,Net-(D24-Pad1)*%
%TA.AperFunction,ComponentPad*%
G36*
G01*
X189602476Y-47827740D02*
X189601403Y-47827666D01*
G75*
G02*
X190646334Y-49027403I-77403J-1122334D01*
G01*
X190606334Y-49607403D01*
G75*
G02*
X189406597Y-50652334I-1122334J77403D01*
G01*
X189406597Y-50652334D01*
G75*
G02*
X188361666Y-49452597I77403J1122334D01*
G01*
X188401666Y-48872597D01*
G75*
G02*
X189601403Y-47827666I1122334J-77403D01*
G01*
G37*
%TD.AperFunction*%
D14*
X189484000Y-49530000D03*
%TO.P,MX24,1*%
%TO.N,COL8*%
%TA.AperFunction,ComponentPad*%
G36*
G01*
X196586772Y-46153962D02*
X196585317Y-46152655D01*
G75*
G02*
X196671345Y-47741317I-751317J-837345D01*
G01*
X195361343Y-49201317D01*
G75*
G02*
X193772681Y-49287345I-837345J751317D01*
G01*
X193772681Y-49287345D01*
G75*
G02*
X193686653Y-47698683I751317J837345D01*
G01*
X194996655Y-46238683D01*
G75*
G02*
X196585317Y-46152655I837345J-751317D01*
G01*
G37*
%TD.AperFunction*%
X194524000Y-48450000D03*
D13*
%TO.P,MX24,3*%
%TO.N,N/C*%
X193294000Y-39370000D03*
D12*
%TO.P,MX24,4*%
X190754000Y-39370000D03*
%TD*%
%TO.P,MX23,2*%
%TO.N,Net-(D23-Pad1)*%
%TA.AperFunction,ComponentPad*%
G36*
G01*
X170552476Y-47827740D02*
X170551403Y-47827666D01*
G75*
G02*
X171596334Y-49027403I-77403J-1122334D01*
G01*
X171556334Y-49607403D01*
G75*
G02*
X170356597Y-50652334I-1122334J77403D01*
G01*
X170356597Y-50652334D01*
G75*
G02*
X169311666Y-49452597I77403J1122334D01*
G01*
X169351666Y-48872597D01*
G75*
G02*
X170551403Y-47827666I1122334J-77403D01*
G01*
G37*
%TD.AperFunction*%
D14*
X170434000Y-49530000D03*
%TO.P,MX23,1*%
%TO.N,COL7*%
%TA.AperFunction,ComponentPad*%
G36*
G01*
X177536772Y-46153962D02*
X177535317Y-46152655D01*
G75*
G02*
X177621345Y-47741317I-751317J-837345D01*
G01*
X176311343Y-49201317D01*
G75*
G02*
X174722681Y-49287345I-837345J751317D01*
G01*
X174722681Y-49287345D01*
G75*
G02*
X174636653Y-47698683I751317J837345D01*
G01*
X175946655Y-46238683D01*
G75*
G02*
X177535317Y-46152655I837345J-751317D01*
G01*
G37*
%TD.AperFunction*%
X175474000Y-48450000D03*
D13*
%TO.P,MX23,3*%
%TO.N,N/C*%
X174244000Y-39370000D03*
D12*
%TO.P,MX23,4*%
X171704000Y-39370000D03*
%TD*%
%TO.P,MX22,2*%
%TO.N,Net-(D22-Pad1)*%
%TA.AperFunction,ComponentPad*%
G36*
G01*
X151502476Y-47827740D02*
X151501403Y-47827666D01*
G75*
G02*
X152546334Y-49027403I-77403J-1122334D01*
G01*
X152506334Y-49607403D01*
G75*
G02*
X151306597Y-50652334I-1122334J77403D01*
G01*
X151306597Y-50652334D01*
G75*
G02*
X150261666Y-49452597I77403J1122334D01*
G01*
X150301666Y-48872597D01*
G75*
G02*
X151501403Y-47827666I1122334J-77403D01*
G01*
G37*
%TD.AperFunction*%
D14*
X151384000Y-49530000D03*
%TO.P,MX22,1*%
%TO.N,COL6*%
%TA.AperFunction,ComponentPad*%
G36*
G01*
X158486772Y-46153962D02*
X158485317Y-46152655D01*
G75*
G02*
X158571345Y-47741317I-751317J-837345D01*
G01*
X157261343Y-49201317D01*
G75*
G02*
X155672681Y-49287345I-837345J751317D01*
G01*
X155672681Y-49287345D01*
G75*
G02*
X155586653Y-47698683I751317J837345D01*
G01*
X156896655Y-46238683D01*
G75*
G02*
X158485317Y-46152655I837345J-751317D01*
G01*
G37*
%TD.AperFunction*%
X156424000Y-48450000D03*
D13*
%TO.P,MX22,3*%
%TO.N,N/C*%
X155194000Y-39370000D03*
D12*
%TO.P,MX22,4*%
X152654000Y-39370000D03*
%TD*%
%TO.P,MX21,2*%
%TO.N,Net-(D21-Pad1)*%
%TA.AperFunction,ComponentPad*%
G36*
G01*
X132452476Y-47827740D02*
X132451403Y-47827666D01*
G75*
G02*
X133496334Y-49027403I-77403J-1122334D01*
G01*
X133456334Y-49607403D01*
G75*
G02*
X132256597Y-50652334I-1122334J77403D01*
G01*
X132256597Y-50652334D01*
G75*
G02*
X131211666Y-49452597I77403J1122334D01*
G01*
X131251666Y-48872597D01*
G75*
G02*
X132451403Y-47827666I1122334J-77403D01*
G01*
G37*
%TD.AperFunction*%
D14*
X132334000Y-49530000D03*
%TO.P,MX21,1*%
%TO.N,COL5*%
%TA.AperFunction,ComponentPad*%
G36*
G01*
X139436772Y-46153962D02*
X139435317Y-46152655D01*
G75*
G02*
X139521345Y-47741317I-751317J-837345D01*
G01*
X138211343Y-49201317D01*
G75*
G02*
X136622681Y-49287345I-837345J751317D01*
G01*
X136622681Y-49287345D01*
G75*
G02*
X136536653Y-47698683I751317J837345D01*
G01*
X137846655Y-46238683D01*
G75*
G02*
X139435317Y-46152655I837345J-751317D01*
G01*
G37*
%TD.AperFunction*%
X137374000Y-48450000D03*
D13*
%TO.P,MX21,3*%
%TO.N,N/C*%
X136144000Y-39370000D03*
D12*
%TO.P,MX21,4*%
X133604000Y-39370000D03*
%TD*%
%TO.P,MX20,2*%
%TO.N,Net-(D20-Pad1)*%
%TA.AperFunction,ComponentPad*%
G36*
G01*
X113402476Y-47827740D02*
X113401403Y-47827666D01*
G75*
G02*
X114446334Y-49027403I-77403J-1122334D01*
G01*
X114406334Y-49607403D01*
G75*
G02*
X113206597Y-50652334I-1122334J77403D01*
G01*
X113206597Y-50652334D01*
G75*
G02*
X112161666Y-49452597I77403J1122334D01*
G01*
X112201666Y-48872597D01*
G75*
G02*
X113401403Y-47827666I1122334J-77403D01*
G01*
G37*
%TD.AperFunction*%
D14*
X113284000Y-49530000D03*
%TO.P,MX20,1*%
%TO.N,COL4*%
%TA.AperFunction,ComponentPad*%
G36*
G01*
X120386772Y-46153962D02*
X120385317Y-46152655D01*
G75*
G02*
X120471345Y-47741317I-751317J-837345D01*
G01*
X119161343Y-49201317D01*
G75*
G02*
X117572681Y-49287345I-837345J751317D01*
G01*
X117572681Y-49287345D01*
G75*
G02*
X117486653Y-47698683I751317J837345D01*
G01*
X118796655Y-46238683D01*
G75*
G02*
X120385317Y-46152655I837345J-751317D01*
G01*
G37*
%TD.AperFunction*%
X118324000Y-48450000D03*
D13*
%TO.P,MX20,3*%
%TO.N,N/C*%
X117094000Y-39370000D03*
D12*
%TO.P,MX20,4*%
X114554000Y-39370000D03*
%TD*%
%TO.P,MX19,2*%
%TO.N,Net-(D19-Pad1)*%
%TA.AperFunction,ComponentPad*%
G36*
G01*
X94352476Y-47827740D02*
X94351403Y-47827666D01*
G75*
G02*
X95396334Y-49027403I-77403J-1122334D01*
G01*
X95356334Y-49607403D01*
G75*
G02*
X94156597Y-50652334I-1122334J77403D01*
G01*
X94156597Y-50652334D01*
G75*
G02*
X93111666Y-49452597I77403J1122334D01*
G01*
X93151666Y-48872597D01*
G75*
G02*
X94351403Y-47827666I1122334J-77403D01*
G01*
G37*
%TD.AperFunction*%
D14*
X94234000Y-49530000D03*
%TO.P,MX19,1*%
%TO.N,COL3*%
%TA.AperFunction,ComponentPad*%
G36*
G01*
X101336772Y-46153962D02*
X101335317Y-46152655D01*
G75*
G02*
X101421345Y-47741317I-751317J-837345D01*
G01*
X100111343Y-49201317D01*
G75*
G02*
X98522681Y-49287345I-837345J751317D01*
G01*
X98522681Y-49287345D01*
G75*
G02*
X98436653Y-47698683I751317J837345D01*
G01*
X99746655Y-46238683D01*
G75*
G02*
X101335317Y-46152655I837345J-751317D01*
G01*
G37*
%TD.AperFunction*%
X99274000Y-48450000D03*
D13*
%TO.P,MX19,3*%
%TO.N,N/C*%
X98044000Y-39370000D03*
D12*
%TO.P,MX19,4*%
X95504000Y-39370000D03*
%TD*%
%TO.P,MX18,2*%
%TO.N,Net-(D18-Pad1)*%
%TA.AperFunction,ComponentPad*%
G36*
G01*
X75302476Y-47827740D02*
X75301403Y-47827666D01*
G75*
G02*
X76346334Y-49027403I-77403J-1122334D01*
G01*
X76306334Y-49607403D01*
G75*
G02*
X75106597Y-50652334I-1122334J77403D01*
G01*
X75106597Y-50652334D01*
G75*
G02*
X74061666Y-49452597I77403J1122334D01*
G01*
X74101666Y-48872597D01*
G75*
G02*
X75301403Y-47827666I1122334J-77403D01*
G01*
G37*
%TD.AperFunction*%
D14*
X75184000Y-49530000D03*
%TO.P,MX18,1*%
%TO.N,COL2*%
%TA.AperFunction,ComponentPad*%
G36*
G01*
X82286772Y-46153962D02*
X82285317Y-46152655D01*
G75*
G02*
X82371345Y-47741317I-751317J-837345D01*
G01*
X81061343Y-49201317D01*
G75*
G02*
X79472681Y-49287345I-837345J751317D01*
G01*
X79472681Y-49287345D01*
G75*
G02*
X79386653Y-47698683I751317J837345D01*
G01*
X80696655Y-46238683D01*
G75*
G02*
X82285317Y-46152655I837345J-751317D01*
G01*
G37*
%TD.AperFunction*%
X80224000Y-48450000D03*
D13*
%TO.P,MX18,3*%
%TO.N,N/C*%
X78994000Y-39370000D03*
D12*
%TO.P,MX18,4*%
X76454000Y-39370000D03*
%TD*%
%TO.P,MX17,2*%
%TO.N,Net-(D17-Pad1)*%
%TA.AperFunction,ComponentPad*%
G36*
G01*
X51553476Y-47827740D02*
X51552403Y-47827666D01*
G75*
G02*
X52597334Y-49027403I-77403J-1122334D01*
G01*
X52557334Y-49607403D01*
G75*
G02*
X51357597Y-50652334I-1122334J77403D01*
G01*
X51357597Y-50652334D01*
G75*
G02*
X50312666Y-49452597I77403J1122334D01*
G01*
X50352666Y-48872597D01*
G75*
G02*
X51552403Y-47827666I1122334J-77403D01*
G01*
G37*
%TD.AperFunction*%
D14*
X51435000Y-49530000D03*
%TO.P,MX17,1*%
%TO.N,COL1*%
%TA.AperFunction,ComponentPad*%
G36*
G01*
X58537772Y-46153962D02*
X58536317Y-46152655D01*
G75*
G02*
X58622345Y-47741317I-751317J-837345D01*
G01*
X57312343Y-49201317D01*
G75*
G02*
X55723681Y-49287345I-837345J751317D01*
G01*
X55723681Y-49287345D01*
G75*
G02*
X55637653Y-47698683I751317J837345D01*
G01*
X56947655Y-46238683D01*
G75*
G02*
X58536317Y-46152655I837345J-751317D01*
G01*
G37*
%TD.AperFunction*%
X56475000Y-48450000D03*
D13*
%TO.P,MX17,3*%
%TO.N,N/C*%
X55245000Y-39370000D03*
D12*
%TO.P,MX17,4*%
X52705000Y-39370000D03*
%TD*%
%TO.P,MX16,2*%
%TO.N,Net-(D16-Pad1)*%
%TA.AperFunction,ComponentPad*%
G36*
G01*
X22983556Y-47827740D02*
X22982483Y-47827666D01*
G75*
G02*
X24027414Y-49027403I-77403J-1122334D01*
G01*
X23987414Y-49607403D01*
G75*
G02*
X22787677Y-50652334I-1122334J77403D01*
G01*
X22787677Y-50652334D01*
G75*
G02*
X21742746Y-49452597I77403J1122334D01*
G01*
X21782746Y-48872597D01*
G75*
G02*
X22982483Y-47827666I1122334J-77403D01*
G01*
G37*
%TD.AperFunction*%
D14*
X22865080Y-49530000D03*
%TO.P,MX16,1*%
%TO.N,COL0*%
%TA.AperFunction,ComponentPad*%
G36*
G01*
X29967852Y-46153962D02*
X29966397Y-46152655D01*
G75*
G02*
X30052425Y-47741317I-751317J-837345D01*
G01*
X28742423Y-49201317D01*
G75*
G02*
X27153761Y-49287345I-837345J751317D01*
G01*
X27153761Y-49287345D01*
G75*
G02*
X27067733Y-47698683I751317J837345D01*
G01*
X28377735Y-46238683D01*
G75*
G02*
X29966397Y-46152655I837345J-751317D01*
G01*
G37*
%TD.AperFunction*%
X27905080Y-48450000D03*
D13*
%TO.P,MX16,3*%
%TO.N,N/C*%
X26675080Y-39370000D03*
D12*
%TO.P,MX16,4*%
X24135080Y-39370000D03*
%TD*%
%TO.P,MX15,4*%
%TO.N,N/C*%
X305120040Y-20327620D03*
D13*
%TO.P,MX15,3*%
X307660040Y-20327620D03*
D14*
%TO.P,MX15,1*%
%TO.N,COL14*%
X308890040Y-29407620D03*
%TA.AperFunction,ComponentPad*%
G36*
G01*
X310952812Y-27111582D02*
X310951357Y-27110275D01*
G75*
G02*
X311037385Y-28698937I-751317J-837345D01*
G01*
X309727383Y-30158937D01*
G75*
G02*
X308138721Y-30244965I-837345J751317D01*
G01*
X308138721Y-30244965D01*
G75*
G02*
X308052693Y-28656303I751317J837345D01*
G01*
X309362695Y-27196303D01*
G75*
G02*
X310951357Y-27110275I837345J-751317D01*
G01*
G37*
%TD.AperFunction*%
%TO.P,MX15,2*%
%TO.N,Net-(D15-Pad1)*%
X303850040Y-30487620D03*
%TA.AperFunction,ComponentPad*%
G36*
G01*
X303968516Y-28785360D02*
X303967443Y-28785286D01*
G75*
G02*
X305012374Y-29985023I-77403J-1122334D01*
G01*
X304972374Y-30565023D01*
G75*
G02*
X303772637Y-31609954I-1122334J77403D01*
G01*
X303772637Y-31609954D01*
G75*
G02*
X302727706Y-30410217I77403J1122334D01*
G01*
X302767706Y-29830217D01*
G75*
G02*
X303967443Y-28785286I1122334J-77403D01*
G01*
G37*
%TD.AperFunction*%
%TD*%
%TO.P,MX14,2*%
%TO.N,Net-(D14-Pad1)*%
%TA.AperFunction,ComponentPad*%
G36*
G01*
X275390976Y-28777740D02*
X275389903Y-28777666D01*
G75*
G02*
X276434834Y-29977403I-77403J-1122334D01*
G01*
X276394834Y-30557403D01*
G75*
G02*
X275195097Y-31602334I-1122334J77403D01*
G01*
X275195097Y-31602334D01*
G75*
G02*
X274150166Y-30402597I77403J1122334D01*
G01*
X274190166Y-29822597D01*
G75*
G02*
X275389903Y-28777666I1122334J-77403D01*
G01*
G37*
%TD.AperFunction*%
X275272500Y-30480000D03*
%TO.P,MX14,1*%
%TO.N,COL13*%
%TA.AperFunction,ComponentPad*%
G36*
G01*
X282375272Y-27103962D02*
X282373817Y-27102655D01*
G75*
G02*
X282459845Y-28691317I-751317J-837345D01*
G01*
X281149843Y-30151317D01*
G75*
G02*
X279561181Y-30237345I-837345J751317D01*
G01*
X279561181Y-30237345D01*
G75*
G02*
X279475153Y-28648683I751317J837345D01*
G01*
X280785155Y-27188683D01*
G75*
G02*
X282373817Y-27102655I837345J-751317D01*
G01*
G37*
%TD.AperFunction*%
X280312500Y-29400000D03*
D13*
%TO.P,MX14,3*%
%TO.N,N/C*%
X279082500Y-20320000D03*
D12*
%TO.P,MX14,4*%
X276542500Y-20320000D03*
%TD*%
%TO.P,MX13,2*%
%TO.N,Net-(D13-Pad1)*%
%TA.AperFunction,ComponentPad*%
G36*
G01*
X256340976Y-28777740D02*
X256339903Y-28777666D01*
G75*
G02*
X257384834Y-29977403I-77403J-1122334D01*
G01*
X257344834Y-30557403D01*
G75*
G02*
X256145097Y-31602334I-1122334J77403D01*
G01*
X256145097Y-31602334D01*
G75*
G02*
X255100166Y-30402597I77403J1122334D01*
G01*
X255140166Y-29822597D01*
G75*
G02*
X256339903Y-28777666I1122334J-77403D01*
G01*
G37*
%TD.AperFunction*%
D14*
X256222500Y-30480000D03*
%TO.P,MX13,1*%
%TO.N,COL12*%
%TA.AperFunction,ComponentPad*%
G36*
G01*
X263325272Y-27103962D02*
X263323817Y-27102655D01*
G75*
G02*
X263409845Y-28691317I-751317J-837345D01*
G01*
X262099843Y-30151317D01*
G75*
G02*
X260511181Y-30237345I-837345J751317D01*
G01*
X260511181Y-30237345D01*
G75*
G02*
X260425153Y-28648683I751317J837345D01*
G01*
X261735155Y-27188683D01*
G75*
G02*
X263323817Y-27102655I837345J-751317D01*
G01*
G37*
%TD.AperFunction*%
X261262500Y-29400000D03*
D13*
%TO.P,MX13,3*%
%TO.N,N/C*%
X260032500Y-20320000D03*
D12*
%TO.P,MX13,4*%
X257492500Y-20320000D03*
%TD*%
%TO.P,MX12,2*%
%TO.N,Net-(D12-Pad1)*%
%TA.AperFunction,ComponentPad*%
G36*
G01*
X237290976Y-28777740D02*
X237289903Y-28777666D01*
G75*
G02*
X238334834Y-29977403I-77403J-1122334D01*
G01*
X238294834Y-30557403D01*
G75*
G02*
X237095097Y-31602334I-1122334J77403D01*
G01*
X237095097Y-31602334D01*
G75*
G02*
X236050166Y-30402597I77403J1122334D01*
G01*
X236090166Y-29822597D01*
G75*
G02*
X237289903Y-28777666I1122334J-77403D01*
G01*
G37*
%TD.AperFunction*%
D14*
X237172500Y-30480000D03*
%TO.P,MX12,1*%
%TO.N,COL11*%
%TA.AperFunction,ComponentPad*%
G36*
G01*
X244275272Y-27103962D02*
X244273817Y-27102655D01*
G75*
G02*
X244359845Y-28691317I-751317J-837345D01*
G01*
X243049843Y-30151317D01*
G75*
G02*
X241461181Y-30237345I-837345J751317D01*
G01*
X241461181Y-30237345D01*
G75*
G02*
X241375153Y-28648683I751317J837345D01*
G01*
X242685155Y-27188683D01*
G75*
G02*
X244273817Y-27102655I837345J-751317D01*
G01*
G37*
%TD.AperFunction*%
X242212500Y-29400000D03*
D13*
%TO.P,MX12,3*%
%TO.N,N/C*%
X240982500Y-20320000D03*
D12*
%TO.P,MX12,4*%
X238442500Y-20320000D03*
%TD*%
%TO.P,MX11,2*%
%TO.N,Net-(D11-Pad1)*%
%TA.AperFunction,ComponentPad*%
G36*
G01*
X218240976Y-28777740D02*
X218239903Y-28777666D01*
G75*
G02*
X219284834Y-29977403I-77403J-1122334D01*
G01*
X219244834Y-30557403D01*
G75*
G02*
X218045097Y-31602334I-1122334J77403D01*
G01*
X218045097Y-31602334D01*
G75*
G02*
X217000166Y-30402597I77403J1122334D01*
G01*
X217040166Y-29822597D01*
G75*
G02*
X218239903Y-28777666I1122334J-77403D01*
G01*
G37*
%TD.AperFunction*%
D14*
X218122500Y-30480000D03*
%TO.P,MX11,1*%
%TO.N,COL10*%
%TA.AperFunction,ComponentPad*%
G36*
G01*
X225225272Y-27103962D02*
X225223817Y-27102655D01*
G75*
G02*
X225309845Y-28691317I-751317J-837345D01*
G01*
X223999843Y-30151317D01*
G75*
G02*
X222411181Y-30237345I-837345J751317D01*
G01*
X222411181Y-30237345D01*
G75*
G02*
X222325153Y-28648683I751317J837345D01*
G01*
X223635155Y-27188683D01*
G75*
G02*
X225223817Y-27102655I837345J-751317D01*
G01*
G37*
%TD.AperFunction*%
X223162500Y-29400000D03*
D13*
%TO.P,MX11,3*%
%TO.N,N/C*%
X221932500Y-20320000D03*
D12*
%TO.P,MX11,4*%
X219392500Y-20320000D03*
%TD*%
%TO.P,MX10,2*%
%TO.N,Net-(D10-Pad1)*%
%TA.AperFunction,ComponentPad*%
G36*
G01*
X199190976Y-28777740D02*
X199189903Y-28777666D01*
G75*
G02*
X200234834Y-29977403I-77403J-1122334D01*
G01*
X200194834Y-30557403D01*
G75*
G02*
X198995097Y-31602334I-1122334J77403D01*
G01*
X198995097Y-31602334D01*
G75*
G02*
X197950166Y-30402597I77403J1122334D01*
G01*
X197990166Y-29822597D01*
G75*
G02*
X199189903Y-28777666I1122334J-77403D01*
G01*
G37*
%TD.AperFunction*%
D14*
X199072500Y-30480000D03*
%TO.P,MX10,1*%
%TO.N,COL9*%
%TA.AperFunction,ComponentPad*%
G36*
G01*
X206175272Y-27103962D02*
X206173817Y-27102655D01*
G75*
G02*
X206259845Y-28691317I-751317J-837345D01*
G01*
X204949843Y-30151317D01*
G75*
G02*
X203361181Y-30237345I-837345J751317D01*
G01*
X203361181Y-30237345D01*
G75*
G02*
X203275153Y-28648683I751317J837345D01*
G01*
X204585155Y-27188683D01*
G75*
G02*
X206173817Y-27102655I837345J-751317D01*
G01*
G37*
%TD.AperFunction*%
X204112500Y-29400000D03*
D13*
%TO.P,MX10,3*%
%TO.N,N/C*%
X202882500Y-20320000D03*
D12*
%TO.P,MX10,4*%
X200342500Y-20320000D03*
%TD*%
%TO.P,MX9,2*%
%TO.N,Net-(D9-Pad1)*%
%TA.AperFunction,ComponentPad*%
G36*
G01*
X180140976Y-28777740D02*
X180139903Y-28777666D01*
G75*
G02*
X181184834Y-29977403I-77403J-1122334D01*
G01*
X181144834Y-30557403D01*
G75*
G02*
X179945097Y-31602334I-1122334J77403D01*
G01*
X179945097Y-31602334D01*
G75*
G02*
X178900166Y-30402597I77403J1122334D01*
G01*
X178940166Y-29822597D01*
G75*
G02*
X180139903Y-28777666I1122334J-77403D01*
G01*
G37*
%TD.AperFunction*%
D14*
X180022500Y-30480000D03*
%TO.P,MX9,1*%
%TO.N,COL8*%
%TA.AperFunction,ComponentPad*%
G36*
G01*
X187125272Y-27103962D02*
X187123817Y-27102655D01*
G75*
G02*
X187209845Y-28691317I-751317J-837345D01*
G01*
X185899843Y-30151317D01*
G75*
G02*
X184311181Y-30237345I-837345J751317D01*
G01*
X184311181Y-30237345D01*
G75*
G02*
X184225153Y-28648683I751317J837345D01*
G01*
X185535155Y-27188683D01*
G75*
G02*
X187123817Y-27102655I837345J-751317D01*
G01*
G37*
%TD.AperFunction*%
X185062500Y-29400000D03*
D13*
%TO.P,MX9,3*%
%TO.N,N/C*%
X183832500Y-20320000D03*
D12*
%TO.P,MX9,4*%
X181292500Y-20320000D03*
%TD*%
%TO.P,MX8,2*%
%TO.N,Net-(D8-Pad1)*%
%TA.AperFunction,ComponentPad*%
G36*
G01*
X161090976Y-28777740D02*
X161089903Y-28777666D01*
G75*
G02*
X162134834Y-29977403I-77403J-1122334D01*
G01*
X162094834Y-30557403D01*
G75*
G02*
X160895097Y-31602334I-1122334J77403D01*
G01*
X160895097Y-31602334D01*
G75*
G02*
X159850166Y-30402597I77403J1122334D01*
G01*
X159890166Y-29822597D01*
G75*
G02*
X161089903Y-28777666I1122334J-77403D01*
G01*
G37*
%TD.AperFunction*%
D14*
X160972500Y-30480000D03*
%TO.P,MX8,1*%
%TO.N,COL7*%
%TA.AperFunction,ComponentPad*%
G36*
G01*
X168075272Y-27103962D02*
X168073817Y-27102655D01*
G75*
G02*
X168159845Y-28691317I-751317J-837345D01*
G01*
X166849843Y-30151317D01*
G75*
G02*
X165261181Y-30237345I-837345J751317D01*
G01*
X165261181Y-30237345D01*
G75*
G02*
X165175153Y-28648683I751317J837345D01*
G01*
X166485155Y-27188683D01*
G75*
G02*
X168073817Y-27102655I837345J-751317D01*
G01*
G37*
%TD.AperFunction*%
X166012500Y-29400000D03*
D13*
%TO.P,MX8,3*%
%TO.N,N/C*%
X164782500Y-20320000D03*
D12*
%TO.P,MX8,4*%
X162242500Y-20320000D03*
%TD*%
%TO.P,MX7,2*%
%TO.N,Net-(D7-Pad1)*%
%TA.AperFunction,ComponentPad*%
G36*
G01*
X142040976Y-28777740D02*
X142039903Y-28777666D01*
G75*
G02*
X143084834Y-29977403I-77403J-1122334D01*
G01*
X143044834Y-30557403D01*
G75*
G02*
X141845097Y-31602334I-1122334J77403D01*
G01*
X141845097Y-31602334D01*
G75*
G02*
X140800166Y-30402597I77403J1122334D01*
G01*
X140840166Y-29822597D01*
G75*
G02*
X142039903Y-28777666I1122334J-77403D01*
G01*
G37*
%TD.AperFunction*%
D14*
X141922500Y-30480000D03*
%TO.P,MX7,1*%
%TO.N,COL6*%
%TA.AperFunction,ComponentPad*%
G36*
G01*
X149025272Y-27103962D02*
X149023817Y-27102655D01*
G75*
G02*
X149109845Y-28691317I-751317J-837345D01*
G01*
X147799843Y-30151317D01*
G75*
G02*
X146211181Y-30237345I-837345J751317D01*
G01*
X146211181Y-30237345D01*
G75*
G02*
X146125153Y-28648683I751317J837345D01*
G01*
X147435155Y-27188683D01*
G75*
G02*
X149023817Y-27102655I837345J-751317D01*
G01*
G37*
%TD.AperFunction*%
X146962500Y-29400000D03*
D13*
%TO.P,MX7,3*%
%TO.N,N/C*%
X145732500Y-20320000D03*
D12*
%TO.P,MX7,4*%
X143192500Y-20320000D03*
%TD*%
%TO.P,MX6,2*%
%TO.N,Net-(D6-Pad1)*%
%TA.AperFunction,ComponentPad*%
G36*
G01*
X122990976Y-28777740D02*
X122989903Y-28777666D01*
G75*
G02*
X124034834Y-29977403I-77403J-1122334D01*
G01*
X123994834Y-30557403D01*
G75*
G02*
X122795097Y-31602334I-1122334J77403D01*
G01*
X122795097Y-31602334D01*
G75*
G02*
X121750166Y-30402597I77403J1122334D01*
G01*
X121790166Y-29822597D01*
G75*
G02*
X122989903Y-28777666I1122334J-77403D01*
G01*
G37*
%TD.AperFunction*%
D14*
X122872500Y-30480000D03*
%TO.P,MX6,1*%
%TO.N,COL5*%
%TA.AperFunction,ComponentPad*%
G36*
G01*
X129975272Y-27103962D02*
X129973817Y-27102655D01*
G75*
G02*
X130059845Y-28691317I-751317J-837345D01*
G01*
X128749843Y-30151317D01*
G75*
G02*
X127161181Y-30237345I-837345J751317D01*
G01*
X127161181Y-30237345D01*
G75*
G02*
X127075153Y-28648683I751317J837345D01*
G01*
X128385155Y-27188683D01*
G75*
G02*
X129973817Y-27102655I837345J-751317D01*
G01*
G37*
%TD.AperFunction*%
X127912500Y-29400000D03*
D13*
%TO.P,MX6,3*%
%TO.N,N/C*%
X126682500Y-20320000D03*
D12*
%TO.P,MX6,4*%
X124142500Y-20320000D03*
%TD*%
%TO.P,MX5,2*%
%TO.N,Net-(D5-Pad1)*%
%TA.AperFunction,ComponentPad*%
G36*
G01*
X103940976Y-28777740D02*
X103939903Y-28777666D01*
G75*
G02*
X104984834Y-29977403I-77403J-1122334D01*
G01*
X104944834Y-30557403D01*
G75*
G02*
X103745097Y-31602334I-1122334J77403D01*
G01*
X103745097Y-31602334D01*
G75*
G02*
X102700166Y-30402597I77403J1122334D01*
G01*
X102740166Y-29822597D01*
G75*
G02*
X103939903Y-28777666I1122334J-77403D01*
G01*
G37*
%TD.AperFunction*%
D14*
X103822500Y-30480000D03*
%TO.P,MX5,1*%
%TO.N,COL4*%
%TA.AperFunction,ComponentPad*%
G36*
G01*
X110925272Y-27103962D02*
X110923817Y-27102655D01*
G75*
G02*
X111009845Y-28691317I-751317J-837345D01*
G01*
X109699843Y-30151317D01*
G75*
G02*
X108111181Y-30237345I-837345J751317D01*
G01*
X108111181Y-30237345D01*
G75*
G02*
X108025153Y-28648683I751317J837345D01*
G01*
X109335155Y-27188683D01*
G75*
G02*
X110923817Y-27102655I837345J-751317D01*
G01*
G37*
%TD.AperFunction*%
X108862500Y-29400000D03*
D13*
%TO.P,MX5,3*%
%TO.N,N/C*%
X107632500Y-20320000D03*
D12*
%TO.P,MX5,4*%
X105092500Y-20320000D03*
%TD*%
%TO.P,MX4,2*%
%TO.N,Net-(D4-Pad1)*%
%TA.AperFunction,ComponentPad*%
G36*
G01*
X84890976Y-28777740D02*
X84889903Y-28777666D01*
G75*
G02*
X85934834Y-29977403I-77403J-1122334D01*
G01*
X85894834Y-30557403D01*
G75*
G02*
X84695097Y-31602334I-1122334J77403D01*
G01*
X84695097Y-31602334D01*
G75*
G02*
X83650166Y-30402597I77403J1122334D01*
G01*
X83690166Y-29822597D01*
G75*
G02*
X84889903Y-28777666I1122334J-77403D01*
G01*
G37*
%TD.AperFunction*%
D14*
X84772500Y-30480000D03*
%TO.P,MX4,1*%
%TO.N,COL3*%
%TA.AperFunction,ComponentPad*%
G36*
G01*
X91875272Y-27103962D02*
X91873817Y-27102655D01*
G75*
G02*
X91959845Y-28691317I-751317J-837345D01*
G01*
X90649843Y-30151317D01*
G75*
G02*
X89061181Y-30237345I-837345J751317D01*
G01*
X89061181Y-30237345D01*
G75*
G02*
X88975153Y-28648683I751317J837345D01*
G01*
X90285155Y-27188683D01*
G75*
G02*
X91873817Y-27102655I837345J-751317D01*
G01*
G37*
%TD.AperFunction*%
X89812500Y-29400000D03*
D13*
%TO.P,MX4,3*%
%TO.N,N/C*%
X88582500Y-20320000D03*
D12*
%TO.P,MX4,4*%
X86042500Y-20320000D03*
%TD*%
%TO.P,MX3,2*%
%TO.N,Net-(D3-Pad1)*%
%TA.AperFunction,ComponentPad*%
G36*
G01*
X65840976Y-28777740D02*
X65839903Y-28777666D01*
G75*
G02*
X66884834Y-29977403I-77403J-1122334D01*
G01*
X66844834Y-30557403D01*
G75*
G02*
X65645097Y-31602334I-1122334J77403D01*
G01*
X65645097Y-31602334D01*
G75*
G02*
X64600166Y-30402597I77403J1122334D01*
G01*
X64640166Y-29822597D01*
G75*
G02*
X65839903Y-28777666I1122334J-77403D01*
G01*
G37*
%TD.AperFunction*%
D14*
X65722500Y-30480000D03*
%TO.P,MX3,1*%
%TO.N,COL2*%
%TA.AperFunction,ComponentPad*%
G36*
G01*
X72825272Y-27103962D02*
X72823817Y-27102655D01*
G75*
G02*
X72909845Y-28691317I-751317J-837345D01*
G01*
X71599843Y-30151317D01*
G75*
G02*
X70011181Y-30237345I-837345J751317D01*
G01*
X70011181Y-30237345D01*
G75*
G02*
X69925153Y-28648683I751317J837345D01*
G01*
X71235155Y-27188683D01*
G75*
G02*
X72823817Y-27102655I837345J-751317D01*
G01*
G37*
%TD.AperFunction*%
X70762500Y-29400000D03*
D13*
%TO.P,MX3,3*%
%TO.N,N/C*%
X69532500Y-20320000D03*
D12*
%TO.P,MX3,4*%
X66992500Y-20320000D03*
%TD*%
%TO.P,MX1,2*%
%TO.N,Net-(D1-Pad1)*%
%TA.AperFunction,ComponentPad*%
G36*
G01*
X22978476Y-28777740D02*
X22977403Y-28777666D01*
G75*
G02*
X24022334Y-29977403I-77403J-1122334D01*
G01*
X23982334Y-30557403D01*
G75*
G02*
X22782597Y-31602334I-1122334J77403D01*
G01*
X22782597Y-31602334D01*
G75*
G02*
X21737666Y-30402597I77403J1122334D01*
G01*
X21777666Y-29822597D01*
G75*
G02*
X22977403Y-28777666I1122334J-77403D01*
G01*
G37*
%TD.AperFunction*%
D14*
X22860000Y-30480000D03*
%TO.P,MX1,1*%
%TO.N,COL0*%
%TA.AperFunction,ComponentPad*%
G36*
G01*
X29962772Y-27103962D02*
X29961317Y-27102655D01*
G75*
G02*
X30047345Y-28691317I-751317J-837345D01*
G01*
X28737343Y-30151317D01*
G75*
G02*
X27148681Y-30237345I-837345J751317D01*
G01*
X27148681Y-30237345D01*
G75*
G02*
X27062653Y-28648683I751317J837345D01*
G01*
X28372655Y-27188683D01*
G75*
G02*
X29961317Y-27102655I837345J-751317D01*
G01*
G37*
%TD.AperFunction*%
X27900000Y-29400000D03*
D13*
%TO.P,MX1,3*%
%TO.N,N/C*%
X26670000Y-20320000D03*
D12*
%TO.P,MX1,4*%
X24130000Y-20320000D03*
%TD*%
D19*
%TO.N,GND*%
X347081001Y-58156001D03*
%TO.N,XTAL1*%
X324535800Y-49733200D03*
X340868000Y-65214500D03*
%TO.N,XTAL2*%
X325285100Y-50520600D03*
X343408000Y-61061600D03*
%TO.N,COL14*%
X347625315Y-45564143D03*
X318643000Y-41313100D03*
%TO.N,VCC*%
X64204222Y-17887322D03*
X328612500Y-67386200D03*
%TO.N,ROW1*%
X349796100Y-49136300D03*
X350311359Y-50774600D03*
%TO.N,ROW2*%
X349008700Y-48272700D03*
X349586359Y-51854100D03*
%TO.N,ROW3*%
X348195900Y-47548800D03*
X348783696Y-52450535D03*
%TO.N,ROW4*%
X347623010Y-46564142D03*
X348058696Y-53363101D03*
%TO.N,R_ENC*%
X318135000Y-52832000D03*
%TO.N,COL0*%
X322239150Y-23398845D03*
X338582000Y-55880000D03*
X329590400Y-30276800D03*
X280987500Y-14287500D03*
%TO.N,COL1*%
X322598834Y-24359998D03*
X337581997Y-55880000D03*
X328930000Y-31229300D03*
X281808347Y-15167431D03*
%TO.N,COL2*%
X336581994Y-55880000D03*
X328091800Y-31991300D03*
%TO.N,COL3*%
X335581991Y-55880000D03*
X327139300Y-32575500D03*
%TO.N,COL4*%
X340693009Y-40894000D03*
X326275700Y-33235900D03*
%TO.N,COL5*%
X341260344Y-40070511D03*
X325386700Y-33896300D03*
%TO.N,COL6*%
X342143010Y-40909330D03*
X324535800Y-34518600D03*
%TO.N,COL7*%
X323596000Y-35039300D03*
X323810800Y-46685200D03*
%TO.N,COL8*%
X323303900Y-36333600D03*
X323291200Y-45808900D03*
%TO.N,COL10*%
X337693000Y-40894000D03*
X331863700Y-41287700D03*
%TO.N,COL11*%
X332155800Y-39624000D03*
X330400833Y-41278683D03*
%TO.N,COL12*%
X338693003Y-40894000D03*
X330428600Y-42278300D03*
%TO.N,COL13*%
X339693006Y-40894000D03*
X319328800Y-40487600D03*
X330398311Y-43277843D03*
%TO.N,SDA*%
X331863700Y-47002700D03*
%TO.N,D-*%
X344659364Y-58146760D03*
X38544500Y-28422600D03*
%TO.N,D+*%
X343852500Y-58737500D03*
X39535100Y-30772100D03*
%TO.N,COL9*%
X322160900Y-37058600D03*
%TD*%
D20*
%TO.N,GND*%
X41626250Y-20273750D02*
X41626250Y-16093750D01*
X32986250Y-16093750D02*
X32986250Y-20273750D01*
X24606250Y-117475000D02*
X17462500Y-110331250D01*
X147637500Y-117475000D02*
X24606250Y-117475000D01*
X148081240Y-117918740D02*
X147637500Y-117475000D01*
X32486250Y-15593750D02*
X32986250Y-16093750D01*
X347218760Y-117918740D02*
X148081240Y-117918740D01*
X17462500Y-110331250D02*
X17462500Y-24497498D01*
X349598409Y-115539091D02*
X347218760Y-117918740D01*
X26366248Y-15593750D02*
X32486250Y-15593750D01*
X349598409Y-60673409D02*
X349598409Y-115539091D01*
X17462500Y-24497498D02*
X26366248Y-15593750D01*
X347081001Y-58156001D02*
X349598409Y-60673409D01*
X32986250Y-16093750D02*
X41626250Y-16093750D01*
%TO.N,XTAL1*%
X324535800Y-50844302D02*
X324535800Y-49733200D01*
X338905998Y-65214500D02*
X324535800Y-50844302D01*
X340868000Y-65214500D02*
X338905998Y-65214500D01*
%TO.N,XTAL2*%
X335826100Y-61061600D02*
X325285100Y-50520600D01*
X343408000Y-61061600D02*
X335826100Y-61061600D01*
%TO.N,COL14*%
X343535000Y-89852500D02*
X343535000Y-108902500D01*
X343170157Y-45564143D02*
X347625315Y-45564143D01*
X342684100Y-46050200D02*
X343170157Y-45564143D01*
X342684100Y-55622322D02*
X342684100Y-46050200D01*
X340351393Y-57955029D02*
X342684100Y-55622322D01*
X334007627Y-57955029D02*
X340351393Y-57955029D01*
X318643000Y-42590402D02*
X334007627Y-57955029D01*
X318643000Y-41313100D02*
X318643000Y-42590402D01*
X351036360Y-42308578D02*
X351036360Y-52722040D01*
X343899281Y-35171499D02*
X351036360Y-42308578D01*
X340613697Y-35171499D02*
X343899281Y-35171499D01*
X334043001Y-28600803D02*
X340613697Y-35171499D01*
X334043001Y-24315801D02*
X334043001Y-28600803D01*
X332718000Y-22990800D02*
X334043001Y-24315801D01*
X344095239Y-57421759D02*
X342887300Y-58629698D01*
X346336641Y-57421759D02*
X344095239Y-57421759D01*
X351036360Y-52722040D02*
X346336641Y-57421759D01*
X344133001Y-79030999D02*
X343535000Y-79629000D01*
X344133001Y-60713599D02*
X344133001Y-79030999D01*
X342887300Y-59467898D02*
X344133001Y-60713599D01*
X342887300Y-58629698D02*
X342887300Y-59467898D01*
X343535000Y-79629000D02*
X343535000Y-89852500D01*
X330623801Y-25084999D02*
X332718000Y-22990800D01*
X322262729Y-25084999D02*
X330623801Y-25084999D01*
X314901580Y-32446148D02*
X322262729Y-25084999D01*
X314901580Y-46990000D02*
X314901580Y-32446148D01*
X311659606Y-48450000D02*
X313591580Y-48450000D01*
X308544079Y-45334473D02*
X311659606Y-48450000D01*
X308544079Y-29603581D02*
X308544079Y-45334473D01*
X310200040Y-27947620D02*
X308544079Y-29603581D01*
%TO.N,VCC*%
X324303578Y-67386200D02*
X328612500Y-67386200D01*
X304811579Y-47894201D02*
X324303578Y-67386200D01*
X304811579Y-39038679D02*
X304811579Y-47894201D01*
X281665332Y-15892432D02*
X304811579Y-39038679D01*
X64204222Y-17887322D02*
X67043928Y-17887322D01*
X69038818Y-15892432D02*
X69073682Y-15892432D01*
X67043928Y-17887322D02*
X69038818Y-15892432D01*
X69073682Y-15892432D02*
X281665332Y-15892432D01*
%TO.N,ROW1*%
X349796100Y-50259341D02*
X350311359Y-50774600D01*
X349796100Y-49136300D02*
X349796100Y-50259341D01*
%TO.N,ROW2*%
X349071099Y-48335099D02*
X349008700Y-48272700D01*
X349071099Y-51338840D02*
X349071099Y-48335099D01*
X349586359Y-51854100D02*
X349071099Y-51338840D01*
%TO.N,ROW3*%
X348195900Y-51862739D02*
X348783696Y-52450535D01*
X348195900Y-47548800D02*
X348195900Y-51862739D01*
%TO.N,ROW4*%
X347223011Y-52405211D02*
X347700600Y-52882800D01*
X347223011Y-46964141D02*
X347223011Y-52405211D01*
X347623010Y-46564142D02*
X347223011Y-46964141D01*
X347700600Y-53005005D02*
X347700600Y-52882800D01*
X348058696Y-53363101D02*
X347700600Y-53005005D01*
%TO.N,R_ENC*%
X316479039Y-42981457D02*
X316479039Y-31505099D01*
X318135000Y-44637418D02*
X316479039Y-42981457D01*
X318135000Y-52832000D02*
X318135000Y-44637418D01*
X319993338Y-27990800D02*
X316479039Y-31505099D01*
X332718000Y-27990800D02*
X319993338Y-27990800D01*
%TO.N,COL0*%
X29210000Y-46984920D02*
X29215080Y-46990000D01*
X29210000Y-27940000D02*
X29210000Y-46984920D01*
X29215080Y-66034920D02*
X29210000Y-66040000D01*
X29215080Y-46990000D02*
X29215080Y-66034920D01*
X29210000Y-80137000D02*
X29210000Y-85090000D01*
X29210000Y-66040000D02*
X29210000Y-80137000D01*
X29210000Y-99441000D02*
X29210000Y-104140000D01*
X29210000Y-85090000D02*
X29210000Y-99441000D01*
X310378233Y-21155111D02*
X319606521Y-21155111D01*
X321850255Y-23398845D02*
X322239150Y-23398845D01*
X319606521Y-21155111D02*
X321850255Y-23398845D01*
X329655001Y-30341401D02*
X329590400Y-30276800D01*
X329223300Y-32569212D02*
X329655001Y-32137511D01*
X329223300Y-45911700D02*
X329223300Y-32569212D01*
X329655001Y-46387316D02*
X329655001Y-46343401D01*
X329655001Y-46343401D02*
X329223300Y-45911700D01*
X338582000Y-55314315D02*
X329655001Y-46387316D01*
X329655001Y-32137511D02*
X329655001Y-30341401D01*
X338582000Y-55880000D02*
X338582000Y-55314315D01*
X308273241Y-19050119D02*
X310356250Y-21133128D01*
X303907539Y-19050119D02*
X308273241Y-19050119D01*
X287185439Y-19471521D02*
X303486137Y-19471521D01*
X282001418Y-14287500D02*
X287185439Y-19471521D01*
X303486137Y-19471521D02*
X303907539Y-19050119D01*
X280987500Y-14287500D02*
X282001418Y-14287500D01*
%TO.N,COL1*%
X57785000Y-40019298D02*
X57785000Y-46990000D01*
X53022500Y-35256798D02*
X57785000Y-40019298D01*
X53022500Y-27940000D02*
X53022500Y-35256798D01*
X60166250Y-49371250D02*
X60166250Y-66040000D01*
X57785000Y-46990000D02*
X60166250Y-49371250D01*
X64928750Y-70802500D02*
X60166250Y-66040000D01*
X64928750Y-85090000D02*
X64928750Y-70802500D01*
X55403750Y-94615000D02*
X64928750Y-85090000D01*
X55403750Y-104140000D02*
X55403750Y-94615000D01*
X337581997Y-55807001D02*
X337581997Y-55880000D01*
X328541810Y-46766814D02*
X337581997Y-55807001D01*
X328541810Y-32614292D02*
X328541810Y-46766814D01*
X328930000Y-32226102D02*
X328541810Y-32614292D01*
X328930000Y-31229300D02*
X328930000Y-32226102D01*
X288246037Y-21605121D02*
X281808347Y-15167431D01*
X319420121Y-21605121D02*
X288246037Y-21605121D01*
X322174998Y-24359998D02*
X319420121Y-21605121D01*
X322598834Y-24359998D02*
X322174998Y-24359998D01*
%TO.N,COL2*%
X81534000Y-37401500D02*
X72072500Y-27940000D01*
X81534000Y-46990000D02*
X81534000Y-37401500D01*
X85097501Y-64777501D02*
X86360000Y-66040000D01*
X85097501Y-50553501D02*
X85097501Y-64777501D01*
X81534000Y-46990000D02*
X85097501Y-50553501D01*
X95885000Y-78119298D02*
X95885000Y-85090000D01*
X86360000Y-68594298D02*
X95885000Y-78119298D01*
X86360000Y-66040000D02*
X86360000Y-68594298D01*
X328091800Y-47316807D02*
X328091800Y-31991300D01*
X336581994Y-55807001D02*
X328091800Y-47316807D01*
X336581994Y-55880000D02*
X336581994Y-55807001D01*
%TO.N,COL3*%
X114935000Y-89187748D02*
X114935000Y-85090000D01*
X103028750Y-101093998D02*
X114935000Y-89187748D01*
X103028750Y-104140000D02*
X103028750Y-101093998D01*
X113672501Y-83827501D02*
X114935000Y-85090000D01*
X113672501Y-74302501D02*
X113672501Y-83827501D01*
X105410000Y-66040000D02*
X113672501Y-74302501D01*
X105410000Y-59069298D02*
X105410000Y-66040000D01*
X100584000Y-54243298D02*
X105410000Y-59069298D01*
X100584000Y-46990000D02*
X100584000Y-54243298D01*
X91122500Y-27940000D02*
X91122500Y-28130500D01*
X100584000Y-37592000D02*
X100584000Y-46990000D01*
X91122500Y-28130500D02*
X100584000Y-37592000D01*
X327139300Y-47437309D02*
X335581991Y-55880000D01*
X327139300Y-32575500D02*
X327139300Y-47437309D01*
%TO.N,COL4*%
X110172500Y-27940000D02*
X110172500Y-28130500D01*
X119703999Y-46920001D02*
X119634000Y-46990000D01*
X119703999Y-37661999D02*
X119703999Y-46920001D01*
X110172500Y-28130500D02*
X119703999Y-37661999D01*
X123197501Y-64777501D02*
X124460000Y-66040000D01*
X123197501Y-50553501D02*
X123197501Y-64777501D01*
X119634000Y-46990000D02*
X123197501Y-50553501D01*
X124460000Y-66040000D02*
X125984000Y-66040000D01*
X132722501Y-83827501D02*
X133985000Y-85090000D01*
X132722501Y-72778501D02*
X132722501Y-83827501D01*
X125984000Y-66040000D02*
X132722501Y-72778501D01*
X326275700Y-47646711D02*
X326275700Y-33235900D01*
X335233990Y-56605001D02*
X326275700Y-47646711D01*
X338930001Y-56605001D02*
X335233990Y-56605001D01*
X339307001Y-56228001D02*
X338930001Y-56605001D01*
X339307001Y-42845693D02*
X339307001Y-56228001D01*
X340693009Y-41459685D02*
X339307001Y-42845693D01*
X340693009Y-40894000D02*
X340693009Y-41459685D01*
%TO.N,COL5*%
X129222500Y-27940000D02*
X129222500Y-29781500D01*
X138684000Y-39243000D02*
X138684000Y-46990000D01*
X129222500Y-29781500D02*
X138684000Y-39243000D01*
X138684000Y-46990000D02*
X138684000Y-52959000D01*
X143324999Y-66375001D02*
X142200000Y-67500000D01*
X143324999Y-57599999D02*
X143324999Y-66375001D01*
X138684000Y-52959000D02*
X143324999Y-57599999D01*
X153035000Y-78119298D02*
X153035000Y-85090000D01*
X143510000Y-68594298D02*
X153035000Y-78119298D01*
X143510000Y-66040000D02*
X143510000Y-68594298D01*
X325386700Y-47394121D02*
X325386700Y-33896300D01*
X335047589Y-57055010D02*
X325386700Y-47394121D01*
X341418010Y-55615592D02*
X339978592Y-57055010D01*
X339978592Y-57055010D02*
X335047589Y-57055010D01*
X341418010Y-40228177D02*
X341418010Y-55615592D01*
X341260344Y-40070511D02*
X341418010Y-40228177D01*
%TO.N,COL6*%
X174567999Y-104070001D02*
X174498000Y-104140000D01*
X174567999Y-87572999D02*
X174567999Y-104070001D01*
X172085000Y-85090000D02*
X174567999Y-87572999D01*
X162560000Y-66040000D02*
X162560000Y-68199000D01*
X172085000Y-77724000D02*
X172085000Y-85090000D01*
X162560000Y-68199000D02*
X172085000Y-77724000D01*
X157734000Y-46990000D02*
X157734000Y-52959000D01*
X161297501Y-56522501D02*
X161297501Y-64777501D01*
X161297501Y-64777501D02*
X162560000Y-66040000D01*
X157734000Y-52959000D02*
X161297501Y-56522501D01*
X148272500Y-30557798D02*
X157734000Y-40019298D01*
X157734000Y-40019298D02*
X157734000Y-46990000D01*
X148272500Y-27940000D02*
X148272500Y-30557798D01*
X340164992Y-57505020D02*
X334861188Y-57505019D01*
X324535800Y-47179631D02*
X324535800Y-34518600D01*
X334861188Y-57505019D02*
X324535800Y-47179631D01*
X342143010Y-55527002D02*
X340164992Y-57505020D01*
X342143010Y-40909330D02*
X342143010Y-55527002D01*
%TO.N,COL7*%
X167322500Y-27940000D02*
X167322500Y-28892500D01*
X175521501Y-45727501D02*
X176784000Y-46990000D01*
X175521501Y-37091501D02*
X175521501Y-45727501D01*
X167322500Y-28892500D02*
X175521501Y-37091501D01*
X181610000Y-59069298D02*
X181610000Y-66040000D01*
X176784000Y-54243298D02*
X181610000Y-59069298D01*
X176784000Y-46990000D02*
X176784000Y-54243298D01*
X181610000Y-66040000D02*
X181610000Y-67437000D01*
X191204999Y-85020001D02*
X191135000Y-85090000D01*
X191204999Y-77031999D02*
X191204999Y-85020001D01*
X181610000Y-67437000D02*
X191204999Y-77031999D01*
X324028901Y-35472201D02*
X323596000Y-35039300D01*
X324028901Y-46467099D02*
X324028901Y-35472201D01*
X323810800Y-46685200D02*
X324028901Y-46467099D01*
%TO.N,COL8*%
X186372500Y-27940000D02*
X195199000Y-36766500D01*
X195199000Y-46355000D02*
X195834000Y-46990000D01*
X195199000Y-36766500D02*
X195199000Y-46355000D01*
X195834000Y-46990000D02*
X195834000Y-53467000D01*
X199397501Y-64777501D02*
X200660000Y-66040000D01*
X199397501Y-57030501D02*
X199397501Y-64777501D01*
X195834000Y-53467000D02*
X199397501Y-57030501D01*
X208922501Y-83827501D02*
X210185000Y-85090000D01*
X208922501Y-74302501D02*
X208922501Y-83827501D01*
X200660000Y-66040000D02*
X208922501Y-74302501D01*
X323303900Y-45796200D02*
X323291200Y-45808900D01*
X323303900Y-36333600D02*
X323303900Y-45796200D01*
%TO.N,COL10*%
X224472500Y-27940000D02*
X224472500Y-29146500D01*
X233934000Y-38608000D02*
X233934000Y-46990000D01*
X224472500Y-29146500D02*
X233934000Y-38608000D01*
X233934000Y-46990000D02*
X233934000Y-53975000D01*
X238760000Y-58801000D02*
X238760000Y-66040000D01*
X233934000Y-53975000D02*
X238760000Y-58801000D01*
X238760000Y-66040000D02*
X238760000Y-67691000D01*
X248285000Y-77216000D02*
X248285000Y-85090000D01*
X238760000Y-67691000D02*
X248285000Y-77216000D01*
X262572500Y-97169298D02*
X262572500Y-104140000D01*
X250493202Y-85090000D02*
X262572500Y-97169298D01*
X248285000Y-85090000D02*
X250493202Y-85090000D01*
X337299300Y-41287700D02*
X337693000Y-40894000D01*
X331863700Y-41287700D02*
X337299300Y-41287700D01*
%TO.N,COL11*%
X243522500Y-27940000D02*
X251968000Y-36385500D01*
X251968000Y-45974000D02*
X252984000Y-46990000D01*
X251968000Y-36385500D02*
X251968000Y-45974000D01*
X256547501Y-64777501D02*
X257810000Y-66040000D01*
X256547501Y-50553501D02*
X256547501Y-64777501D01*
X252984000Y-46990000D02*
X256547501Y-50553501D01*
X267335000Y-78119298D02*
X267335000Y-85090000D01*
X257810000Y-68594298D02*
X267335000Y-78119298D01*
X257810000Y-66040000D02*
X257810000Y-68594298D01*
X281622500Y-97169298D02*
X281622500Y-104140000D01*
X269543202Y-85090000D02*
X281622500Y-97169298D01*
X267335000Y-85090000D02*
X269543202Y-85090000D01*
X330501117Y-41278683D02*
X332155800Y-39624000D01*
X330400833Y-41278683D02*
X330501117Y-41278683D01*
%TO.N,COL12*%
X270771501Y-36139001D02*
X270771501Y-45727501D01*
X270771501Y-45727501D02*
X272034000Y-46990000D01*
X262572500Y-27940000D02*
X270771501Y-36139001D01*
X275597501Y-64777501D02*
X276860000Y-66040000D01*
X275597501Y-50553501D02*
X275597501Y-64777501D01*
X272034000Y-46990000D02*
X275597501Y-50553501D01*
X293528750Y-78119298D02*
X293528750Y-85090000D01*
X281449452Y-66040000D02*
X293528750Y-78119298D01*
X276860000Y-66040000D02*
X281449452Y-66040000D01*
X293528750Y-85090000D02*
X293528750Y-86899750D01*
X305504999Y-108832501D02*
X305435000Y-108902500D01*
X305504999Y-98875999D02*
X305504999Y-108832501D01*
X293528750Y-86899750D02*
X305504999Y-98875999D01*
X338693003Y-41459685D02*
X338693003Y-40894000D01*
X337874388Y-42278300D02*
X338693003Y-41459685D01*
X330428600Y-42278300D02*
X337874388Y-42278300D01*
%TO.N,COL13*%
X281622500Y-27940000D02*
X281622500Y-30162500D01*
X289821501Y-45727501D02*
X291084000Y-46990000D01*
X289821501Y-38361501D02*
X289821501Y-45727501D01*
X281622500Y-30162500D02*
X289821501Y-38361501D01*
X295736952Y-46990000D02*
X306705000Y-57958048D01*
X291084000Y-46990000D02*
X295736952Y-46990000D01*
X306705000Y-64928750D02*
X307816250Y-66040000D01*
X306705000Y-57958048D02*
X306705000Y-64928750D01*
X307816250Y-66040000D02*
X323596000Y-81819750D01*
X323596000Y-88963500D02*
X324485000Y-89852500D01*
X323596000Y-81819750D02*
X323596000Y-88963500D01*
X324485000Y-89852500D02*
X324485000Y-108902500D01*
X339693006Y-41459685D02*
X337874848Y-43277843D01*
X337874848Y-43277843D02*
X330398311Y-43277843D01*
X339693006Y-40894000D02*
X339693006Y-41459685D01*
%TO.N,SDA*%
X334411514Y-36195000D02*
X335788000Y-36195000D01*
X329673310Y-40933204D02*
X334411514Y-36195000D01*
X329673310Y-44812310D02*
X329673310Y-40933204D01*
X331863700Y-47002700D02*
X329673310Y-44812310D01*
%TO.N,D-*%
X344659364Y-58337036D02*
X349148400Y-62826072D01*
X344659364Y-58146760D02*
X344659364Y-58337036D01*
X349148400Y-62826072D02*
X349148400Y-105532649D01*
X349148400Y-113093500D02*
X345427300Y-116814600D01*
X349148400Y-105532649D02*
X349148400Y-113093500D01*
X345427300Y-116814600D02*
X40398700Y-116814600D01*
X38544500Y-114960400D02*
X38544500Y-28422600D01*
X40398700Y-116814600D02*
X38544500Y-114960400D01*
%TO.N,D+*%
X39535100Y-30772100D02*
X39535100Y-114325400D01*
X39535100Y-114325400D02*
X41376600Y-116166900D01*
X41376600Y-116166900D02*
X344868500Y-116166900D01*
X348698390Y-63583390D02*
X343852500Y-58737500D01*
X348698390Y-112337010D02*
X348698390Y-63583390D01*
X344868500Y-116166900D02*
X348698390Y-112337010D01*
%TO.N,COL9*%
X205422500Y-27940000D02*
X205422500Y-30416500D01*
X213621501Y-45727501D02*
X214884000Y-46990000D01*
X213621501Y-38615501D02*
X213621501Y-45727501D01*
X205422500Y-30416500D02*
X213621501Y-38615501D01*
X219710000Y-59069298D02*
X219710000Y-66040000D01*
X214884000Y-54243298D02*
X219710000Y-59069298D01*
X214884000Y-46990000D02*
X214884000Y-54243298D01*
X227972501Y-83827501D02*
X229235000Y-85090000D01*
X227972501Y-74302501D02*
X227972501Y-83827501D01*
X219710000Y-66040000D02*
X227972501Y-74302501D01*
X243522500Y-97169298D02*
X243522500Y-104140000D01*
X231443202Y-85090000D02*
X243522500Y-97169298D01*
X229235000Y-85090000D02*
X231443202Y-85090000D01*
%TD*%
M02*
