%TF.GenerationSoftware,KiCad,Pcbnew,(5.1.9)-1*%
%TF.CreationDate,2021-07-17T19:30:38-07:00*%
%TF.ProjectId,unsplit-keyboard,756e7370-6c69-4742-9d6b-6579626f6172,rev?*%
%TF.SameCoordinates,Original*%
%TF.FileFunction,Legend,Top*%
%TF.FilePolarity,Positive*%
%FSLAX46Y46*%
G04 Gerber Fmt 4.6, Leading zero omitted, Abs format (unit mm)*
G04 Created by KiCad (PCBNEW (5.1.9)-1) date 2021-07-17 19:30:38*
%MOMM*%
%LPD*%
G01*
G04 APERTURE LIST*
%ADD10C,0.150000*%
%ADD11C,0.300000*%
%ADD12C,0.010000*%
%ADD13C,0.120000*%
G04 APERTURE END LIST*
D10*
X127587952Y-105021130D02*
X127587952Y-105735416D01*
X127540333Y-105878273D01*
X127445095Y-105973511D01*
X127302238Y-106021130D01*
X127207000Y-106021130D01*
X128540333Y-106021130D02*
X128064142Y-106021130D01*
X128064142Y-105021130D01*
X129445095Y-105925892D02*
X129397476Y-105973511D01*
X129254619Y-106021130D01*
X129159380Y-106021130D01*
X129016523Y-105973511D01*
X128921285Y-105878273D01*
X128873666Y-105783035D01*
X128826047Y-105592559D01*
X128826047Y-105449702D01*
X128873666Y-105259226D01*
X128921285Y-105163988D01*
X129016523Y-105068750D01*
X129159380Y-105021130D01*
X129254619Y-105021130D01*
X129397476Y-105068750D01*
X129445095Y-105116369D01*
X130159380Y-105021130D02*
X130159380Y-105735416D01*
X130111761Y-105878273D01*
X130016523Y-105973511D01*
X129873666Y-106021130D01*
X129778428Y-106021130D01*
X131111761Y-106021130D02*
X130635571Y-106021130D01*
X130635571Y-105021130D01*
X132016523Y-105925892D02*
X131968904Y-105973511D01*
X131826047Y-106021130D01*
X131730809Y-106021130D01*
X131587952Y-105973511D01*
X131492714Y-105878273D01*
X131445095Y-105783035D01*
X131397476Y-105592559D01*
X131397476Y-105449702D01*
X131445095Y-105259226D01*
X131492714Y-105163988D01*
X131587952Y-105068750D01*
X131730809Y-105021130D01*
X131826047Y-105021130D01*
X131968904Y-105068750D01*
X132016523Y-105116369D01*
X132730809Y-105021130D02*
X132730809Y-105735416D01*
X132683190Y-105878273D01*
X132587952Y-105973511D01*
X132445095Y-106021130D01*
X132349857Y-106021130D01*
X133683190Y-106021130D02*
X133207000Y-106021130D01*
X133207000Y-105021130D01*
X134587952Y-105925892D02*
X134540333Y-105973511D01*
X134397476Y-106021130D01*
X134302238Y-106021130D01*
X134159380Y-105973511D01*
X134064142Y-105878273D01*
X134016523Y-105783035D01*
X133968904Y-105592559D01*
X133968904Y-105449702D01*
X134016523Y-105259226D01*
X134064142Y-105163988D01*
X134159380Y-105068750D01*
X134302238Y-105021130D01*
X134397476Y-105021130D01*
X134540333Y-105068750D01*
X134587952Y-105116369D01*
X135302238Y-105021130D02*
X135302238Y-105735416D01*
X135254619Y-105878273D01*
X135159380Y-105973511D01*
X135016523Y-106021130D01*
X134921285Y-106021130D01*
X136254619Y-106021130D02*
X135778428Y-106021130D01*
X135778428Y-105021130D01*
X137159380Y-105925892D02*
X137111761Y-105973511D01*
X136968904Y-106021130D01*
X136873666Y-106021130D01*
X136730809Y-105973511D01*
X136635571Y-105878273D01*
X136587952Y-105783035D01*
X136540333Y-105592559D01*
X136540333Y-105449702D01*
X136587952Y-105259226D01*
X136635571Y-105163988D01*
X136730809Y-105068750D01*
X136873666Y-105021130D01*
X136968904Y-105021130D01*
X137111761Y-105068750D01*
X137159380Y-105116369D01*
D11*
X127290190Y-96854511D02*
X127290190Y-98473559D01*
X127385428Y-98664035D01*
X127480666Y-98759273D01*
X127671142Y-98854511D01*
X128052095Y-98854511D01*
X128242571Y-98759273D01*
X128337809Y-98664035D01*
X128433047Y-98473559D01*
X128433047Y-96854511D01*
X129385428Y-98664035D02*
X129480666Y-98759273D01*
X129385428Y-98854511D01*
X129290190Y-98759273D01*
X129385428Y-98664035D01*
X129385428Y-98854511D01*
X130242571Y-98759273D02*
X130528285Y-98854511D01*
X131004476Y-98854511D01*
X131194952Y-98759273D01*
X131290190Y-98664035D01*
X131385428Y-98473559D01*
X131385428Y-98283083D01*
X131290190Y-98092607D01*
X131194952Y-97997369D01*
X131004476Y-97902130D01*
X130623523Y-97806892D01*
X130433047Y-97711654D01*
X130337809Y-97616416D01*
X130242571Y-97425940D01*
X130242571Y-97235464D01*
X130337809Y-97044988D01*
X130433047Y-96949750D01*
X130623523Y-96854511D01*
X131099714Y-96854511D01*
X131385428Y-96949750D01*
X132242571Y-98664035D02*
X132337809Y-98759273D01*
X132242571Y-98854511D01*
X132147333Y-98759273D01*
X132242571Y-98664035D01*
X132242571Y-98854511D01*
X133194952Y-98854511D02*
X133194952Y-96854511D01*
X134337809Y-98854511D02*
X133480666Y-97711654D01*
X134337809Y-96854511D02*
X133194952Y-97997369D01*
X135194952Y-98664035D02*
X135290190Y-98759273D01*
X135194952Y-98854511D01*
X135099714Y-98759273D01*
X135194952Y-98664035D01*
X135194952Y-98854511D01*
X136814000Y-97806892D02*
X137099714Y-97902130D01*
X137194952Y-97997369D01*
X137290190Y-98187845D01*
X137290190Y-98473559D01*
X137194952Y-98664035D01*
X137099714Y-98759273D01*
X136909238Y-98854511D01*
X136147333Y-98854511D01*
X136147333Y-96854511D01*
X136814000Y-96854511D01*
X137004476Y-96949750D01*
X137099714Y-97044988D01*
X137194952Y-97235464D01*
X137194952Y-97425940D01*
X137099714Y-97616416D01*
X137004476Y-97711654D01*
X136814000Y-97806892D01*
X136147333Y-97806892D01*
X127290190Y-102154511D02*
X127290190Y-100154511D01*
X127766380Y-100154511D01*
X128052095Y-100249750D01*
X128242571Y-100440226D01*
X128337809Y-100630702D01*
X128433047Y-101011654D01*
X128433047Y-101297369D01*
X128337809Y-101678321D01*
X128242571Y-101868797D01*
X128052095Y-102059273D01*
X127766380Y-102154511D01*
X127290190Y-102154511D01*
X130052095Y-102059273D02*
X129861619Y-102154511D01*
X129480666Y-102154511D01*
X129290190Y-102059273D01*
X129194952Y-101868797D01*
X129194952Y-101106892D01*
X129290190Y-100916416D01*
X129480666Y-100821178D01*
X129861619Y-100821178D01*
X130052095Y-100916416D01*
X130147333Y-101106892D01*
X130147333Y-101297369D01*
X129194952Y-101487845D01*
X130909238Y-102059273D02*
X131099714Y-102154511D01*
X131480666Y-102154511D01*
X131671142Y-102059273D01*
X131766380Y-101868797D01*
X131766380Y-101773559D01*
X131671142Y-101583083D01*
X131480666Y-101487845D01*
X131194952Y-101487845D01*
X131004476Y-101392607D01*
X130909238Y-101202130D01*
X130909238Y-101106892D01*
X131004476Y-100916416D01*
X131194952Y-100821178D01*
X131480666Y-100821178D01*
X131671142Y-100916416D01*
X132623523Y-102154511D02*
X132623523Y-100821178D01*
X132623523Y-100154511D02*
X132528285Y-100249750D01*
X132623523Y-100344988D01*
X132718761Y-100249750D01*
X132623523Y-100154511D01*
X132623523Y-100344988D01*
X134433047Y-100821178D02*
X134433047Y-102440226D01*
X134337809Y-102630702D01*
X134242571Y-102725940D01*
X134052095Y-102821178D01*
X133766380Y-102821178D01*
X133575904Y-102725940D01*
X134433047Y-102059273D02*
X134242571Y-102154511D01*
X133861619Y-102154511D01*
X133671142Y-102059273D01*
X133575904Y-101964035D01*
X133480666Y-101773559D01*
X133480666Y-101202130D01*
X133575904Y-101011654D01*
X133671142Y-100916416D01*
X133861619Y-100821178D01*
X134242571Y-100821178D01*
X134433047Y-100916416D01*
X135385428Y-100821178D02*
X135385428Y-102154511D01*
X135385428Y-101011654D02*
X135480666Y-100916416D01*
X135671142Y-100821178D01*
X135956857Y-100821178D01*
X136147333Y-100916416D01*
X136242571Y-101106892D01*
X136242571Y-102154511D01*
X137956857Y-102059273D02*
X137766380Y-102154511D01*
X137385428Y-102154511D01*
X137194952Y-102059273D01*
X137099714Y-101868797D01*
X137099714Y-101106892D01*
X137194952Y-100916416D01*
X137385428Y-100821178D01*
X137766380Y-100821178D01*
X137956857Y-100916416D01*
X138052095Y-101106892D01*
X138052095Y-101297369D01*
X137099714Y-101487845D01*
X139766380Y-102154511D02*
X139766380Y-100154511D01*
X139766380Y-102059273D02*
X139575904Y-102154511D01*
X139194952Y-102154511D01*
X139004476Y-102059273D01*
X138909238Y-101964035D01*
X138814000Y-101773559D01*
X138814000Y-101202130D01*
X138909238Y-101011654D01*
X139004476Y-100916416D01*
X139194952Y-100821178D01*
X139575904Y-100821178D01*
X139766380Y-100916416D01*
X142242571Y-102154511D02*
X142242571Y-100154511D01*
X142242571Y-100916416D02*
X142433047Y-100821178D01*
X142814000Y-100821178D01*
X143004476Y-100916416D01*
X143099714Y-101011654D01*
X143194952Y-101202130D01*
X143194952Y-101773559D01*
X143099714Y-101964035D01*
X143004476Y-102059273D01*
X142814000Y-102154511D01*
X142433047Y-102154511D01*
X142242571Y-102059273D01*
X143861619Y-100821178D02*
X144337809Y-102154511D01*
X144814000Y-100821178D02*
X144337809Y-102154511D01*
X144147333Y-102630702D01*
X144052095Y-102725940D01*
X143861619Y-102821178D01*
X146814000Y-100154511D02*
X147480666Y-102154511D01*
X148147333Y-100154511D01*
X148814000Y-101964035D02*
X148909238Y-102059273D01*
X148814000Y-102154511D01*
X148718761Y-102059273D01*
X148814000Y-101964035D01*
X148814000Y-102154511D01*
X149671142Y-102059273D02*
X149956857Y-102154511D01*
X150433047Y-102154511D01*
X150623523Y-102059273D01*
X150718761Y-101964035D01*
X150814000Y-101773559D01*
X150814000Y-101583083D01*
X150718761Y-101392607D01*
X150623523Y-101297369D01*
X150433047Y-101202130D01*
X150052095Y-101106892D01*
X149861619Y-101011654D01*
X149766380Y-100916416D01*
X149671142Y-100725940D01*
X149671142Y-100535464D01*
X149766380Y-100344988D01*
X149861619Y-100249750D01*
X150052095Y-100154511D01*
X150528285Y-100154511D01*
X150814000Y-100249750D01*
X151671142Y-101964035D02*
X151766380Y-102059273D01*
X151671142Y-102154511D01*
X151575904Y-102059273D01*
X151671142Y-101964035D01*
X151671142Y-102154511D01*
D12*
%TO.C,G\u002A\u002A\u002A*%
G36*
X194769116Y-103808380D02*
G01*
X194876462Y-103862324D01*
X194955144Y-103950728D01*
X195001575Y-104068707D01*
X195012172Y-104211374D01*
X195002569Y-104292366D01*
X194985878Y-104386647D01*
X194970326Y-104476215D01*
X194964344Y-104511441D01*
X194908254Y-104835427D01*
X194845606Y-105178055D01*
X194779152Y-105525187D01*
X194711646Y-105862682D01*
X194645839Y-106176401D01*
X194598340Y-106391617D01*
X194574838Y-106500077D01*
X194557469Y-106589654D01*
X194548043Y-106650305D01*
X194547777Y-106671788D01*
X194574926Y-106670282D01*
X194631478Y-106654330D01*
X194663374Y-106643076D01*
X194933308Y-106565798D01*
X195222803Y-106525342D01*
X195518337Y-106522145D01*
X195806383Y-106556646D01*
X195985558Y-106600201D01*
X196062904Y-106626265D01*
X196153097Y-106660924D01*
X196244003Y-106698930D01*
X196323490Y-106735035D01*
X196379426Y-106763992D01*
X196399466Y-106779226D01*
X196427725Y-106797544D01*
X196435003Y-106798179D01*
X196469487Y-106813907D01*
X196518894Y-106852585D01*
X196527743Y-106860835D01*
X196593142Y-106923491D01*
X196607547Y-106805510D01*
X196641631Y-106634848D01*
X196701990Y-106442077D01*
X196782441Y-106242030D01*
X196850434Y-106103328D01*
X197780524Y-106103328D01*
X197793280Y-106123579D01*
X197823554Y-106113800D01*
X197875402Y-106095257D01*
X197948772Y-106077698D01*
X197964938Y-106074741D01*
X198055432Y-106058974D01*
X198107341Y-106042462D01*
X198127398Y-106013836D01*
X198122334Y-105961731D01*
X198098881Y-105874777D01*
X198093900Y-105856970D01*
X198039159Y-105662177D01*
X197996173Y-105513738D01*
X197964544Y-105410355D01*
X197943875Y-105350729D01*
X197933767Y-105333561D01*
X197933642Y-105333669D01*
X197926065Y-105359551D01*
X197911460Y-105423678D01*
X197891836Y-105515956D01*
X197869200Y-105626290D01*
X197845561Y-105744585D01*
X197822928Y-105860748D01*
X197803308Y-105964684D01*
X197788709Y-106046298D01*
X197781141Y-106095496D01*
X197780524Y-106103328D01*
X196850434Y-106103328D01*
X196876801Y-106049542D01*
X196978887Y-105879447D01*
X197014688Y-105828770D01*
X197058067Y-105768031D01*
X197090614Y-105713631D01*
X197116186Y-105654760D01*
X197138640Y-105580611D01*
X197161833Y-105480377D01*
X197189622Y-105343248D01*
X197191669Y-105332852D01*
X197261744Y-105019243D01*
X197340031Y-104748025D01*
X197425946Y-104520631D01*
X197518908Y-104338491D01*
X197618335Y-104203036D01*
X197672436Y-104151493D01*
X197741480Y-104098631D01*
X197797872Y-104070346D01*
X197863346Y-104059001D01*
X197941366Y-104056973D01*
X198033076Y-104059832D01*
X198096221Y-104073186D01*
X198151226Y-104103273D01*
X198190025Y-104132925D01*
X198262760Y-104200206D01*
X198321804Y-104277575D01*
X198374710Y-104377241D01*
X198429035Y-104511412D01*
X198435990Y-104530360D01*
X198469899Y-104627452D01*
X198510958Y-104751067D01*
X198555944Y-104890823D01*
X198601640Y-105036337D01*
X198644824Y-105177228D01*
X198682277Y-105303114D01*
X198710779Y-105403614D01*
X198727110Y-105468344D01*
X198727537Y-105470395D01*
X198744431Y-105535008D01*
X198762275Y-105578453D01*
X198764067Y-105581044D01*
X198781396Y-105620399D01*
X198798576Y-105683817D01*
X198800210Y-105691693D01*
X198814842Y-105751948D01*
X198840242Y-105844304D01*
X198872263Y-105954001D01*
X198893436Y-106023638D01*
X198925583Y-106128724D01*
X198952175Y-106217647D01*
X198969849Y-106279046D01*
X198975137Y-106299691D01*
X198990945Y-106347816D01*
X199024289Y-106428666D01*
X199070019Y-106531334D01*
X199122983Y-106644914D01*
X199178030Y-106758497D01*
X199230010Y-106861179D01*
X199273771Y-106942052D01*
X199295390Y-106977790D01*
X199342551Y-107059815D01*
X199378076Y-107140440D01*
X199389586Y-107180008D01*
X199387368Y-107290040D01*
X199344503Y-107391970D01*
X199269516Y-107478507D01*
X199170932Y-107542362D01*
X199057273Y-107576245D01*
X198937065Y-107572865D01*
X198931579Y-107571707D01*
X198848895Y-107535282D01*
X198757707Y-107466403D01*
X198667415Y-107376042D01*
X198587418Y-107275176D01*
X198527115Y-107174778D01*
X198495906Y-107085823D01*
X198493593Y-107060310D01*
X198485184Y-107017728D01*
X198463707Y-106951028D01*
X198434790Y-106874280D01*
X198404059Y-106801554D01*
X198377139Y-106746919D01*
X198359658Y-106724444D01*
X198359269Y-106724413D01*
X198333229Y-106728673D01*
X198270766Y-106740008D01*
X198183756Y-106756250D01*
X198153085Y-106762050D01*
X198050967Y-106780089D01*
X197981734Y-106787276D01*
X197930290Y-106783549D01*
X197881541Y-106768848D01*
X197861789Y-106760877D01*
X197786334Y-106722151D01*
X197721921Y-106677560D01*
X197714490Y-106670950D01*
X197660080Y-106619834D01*
X197643146Y-106690565D01*
X197625284Y-106750112D01*
X197609034Y-106785884D01*
X197591365Y-106820552D01*
X197562790Y-106885821D01*
X197535178Y-106953397D01*
X197468750Y-107080182D01*
X197379484Y-107193699D01*
X197278109Y-107282783D01*
X197175353Y-107336269D01*
X197164086Y-107339591D01*
X197027509Y-107354347D01*
X196893330Y-107329634D01*
X196774921Y-107269677D01*
X196694438Y-107191190D01*
X196644950Y-107134401D01*
X196612986Y-107120411D01*
X196600395Y-107149915D01*
X196600272Y-107155693D01*
X196583135Y-107224542D01*
X196539861Y-107304986D01*
X196482656Y-107377824D01*
X196432846Y-107419040D01*
X196324436Y-107456737D01*
X196200916Y-107450784D01*
X196059166Y-107400964D01*
X196040181Y-107391727D01*
X195851900Y-107308593D01*
X195677489Y-107257295D01*
X195498260Y-107232817D01*
X195437365Y-107229844D01*
X195251821Y-107234807D01*
X195078895Y-107264065D01*
X194909683Y-107321078D01*
X194735282Y-107409307D01*
X194546789Y-107532209D01*
X194423602Y-107623743D01*
X194290474Y-107724107D01*
X194186040Y-107795883D01*
X194101789Y-107842638D01*
X194029209Y-107867943D01*
X193959788Y-107875366D01*
X193885014Y-107868475D01*
X193853394Y-107862840D01*
X193778754Y-107827756D01*
X193705913Y-107759897D01*
X193648739Y-107674160D01*
X193627765Y-107620477D01*
X193619005Y-107578808D01*
X193616841Y-107532379D01*
X193622513Y-107472721D01*
X193637264Y-107391365D01*
X193662335Y-107279842D01*
X193698967Y-107129682D01*
X193700808Y-107122279D01*
X193734587Y-106986115D01*
X193764523Y-106864665D01*
X193788440Y-106766822D01*
X193804161Y-106701479D01*
X193809154Y-106679685D01*
X193817340Y-106642353D01*
X193834375Y-106566330D01*
X193858175Y-106460872D01*
X193886652Y-106335233D01*
X193904383Y-106257230D01*
X193940643Y-106093848D01*
X193980383Y-105907758D01*
X194022432Y-105705075D01*
X194065621Y-105491913D01*
X194108781Y-105274386D01*
X194150742Y-105058606D01*
X194190335Y-104850690D01*
X194226389Y-104656749D01*
X194257737Y-104482899D01*
X194283207Y-104335254D01*
X194301631Y-104219926D01*
X194311839Y-104143031D01*
X194313535Y-104118251D01*
X194336302Y-104013167D01*
X194397353Y-103917791D01*
X194485807Y-103843048D01*
X194590786Y-103799860D01*
X194636689Y-103793781D01*
X194769116Y-103808380D01*
G37*
X194769116Y-103808380D02*
X194876462Y-103862324D01*
X194955144Y-103950728D01*
X195001575Y-104068707D01*
X195012172Y-104211374D01*
X195002569Y-104292366D01*
X194985878Y-104386647D01*
X194970326Y-104476215D01*
X194964344Y-104511441D01*
X194908254Y-104835427D01*
X194845606Y-105178055D01*
X194779152Y-105525187D01*
X194711646Y-105862682D01*
X194645839Y-106176401D01*
X194598340Y-106391617D01*
X194574838Y-106500077D01*
X194557469Y-106589654D01*
X194548043Y-106650305D01*
X194547777Y-106671788D01*
X194574926Y-106670282D01*
X194631478Y-106654330D01*
X194663374Y-106643076D01*
X194933308Y-106565798D01*
X195222803Y-106525342D01*
X195518337Y-106522145D01*
X195806383Y-106556646D01*
X195985558Y-106600201D01*
X196062904Y-106626265D01*
X196153097Y-106660924D01*
X196244003Y-106698930D01*
X196323490Y-106735035D01*
X196379426Y-106763992D01*
X196399466Y-106779226D01*
X196427725Y-106797544D01*
X196435003Y-106798179D01*
X196469487Y-106813907D01*
X196518894Y-106852585D01*
X196527743Y-106860835D01*
X196593142Y-106923491D01*
X196607547Y-106805510D01*
X196641631Y-106634848D01*
X196701990Y-106442077D01*
X196782441Y-106242030D01*
X196850434Y-106103328D01*
X197780524Y-106103328D01*
X197793280Y-106123579D01*
X197823554Y-106113800D01*
X197875402Y-106095257D01*
X197948772Y-106077698D01*
X197964938Y-106074741D01*
X198055432Y-106058974D01*
X198107341Y-106042462D01*
X198127398Y-106013836D01*
X198122334Y-105961731D01*
X198098881Y-105874777D01*
X198093900Y-105856970D01*
X198039159Y-105662177D01*
X197996173Y-105513738D01*
X197964544Y-105410355D01*
X197943875Y-105350729D01*
X197933767Y-105333561D01*
X197933642Y-105333669D01*
X197926065Y-105359551D01*
X197911460Y-105423678D01*
X197891836Y-105515956D01*
X197869200Y-105626290D01*
X197845561Y-105744585D01*
X197822928Y-105860748D01*
X197803308Y-105964684D01*
X197788709Y-106046298D01*
X197781141Y-106095496D01*
X197780524Y-106103328D01*
X196850434Y-106103328D01*
X196876801Y-106049542D01*
X196978887Y-105879447D01*
X197014688Y-105828770D01*
X197058067Y-105768031D01*
X197090614Y-105713631D01*
X197116186Y-105654760D01*
X197138640Y-105580611D01*
X197161833Y-105480377D01*
X197189622Y-105343248D01*
X197191669Y-105332852D01*
X197261744Y-105019243D01*
X197340031Y-104748025D01*
X197425946Y-104520631D01*
X197518908Y-104338491D01*
X197618335Y-104203036D01*
X197672436Y-104151493D01*
X197741480Y-104098631D01*
X197797872Y-104070346D01*
X197863346Y-104059001D01*
X197941366Y-104056973D01*
X198033076Y-104059832D01*
X198096221Y-104073186D01*
X198151226Y-104103273D01*
X198190025Y-104132925D01*
X198262760Y-104200206D01*
X198321804Y-104277575D01*
X198374710Y-104377241D01*
X198429035Y-104511412D01*
X198435990Y-104530360D01*
X198469899Y-104627452D01*
X198510958Y-104751067D01*
X198555944Y-104890823D01*
X198601640Y-105036337D01*
X198644824Y-105177228D01*
X198682277Y-105303114D01*
X198710779Y-105403614D01*
X198727110Y-105468344D01*
X198727537Y-105470395D01*
X198744431Y-105535008D01*
X198762275Y-105578453D01*
X198764067Y-105581044D01*
X198781396Y-105620399D01*
X198798576Y-105683817D01*
X198800210Y-105691693D01*
X198814842Y-105751948D01*
X198840242Y-105844304D01*
X198872263Y-105954001D01*
X198893436Y-106023638D01*
X198925583Y-106128724D01*
X198952175Y-106217647D01*
X198969849Y-106279046D01*
X198975137Y-106299691D01*
X198990945Y-106347816D01*
X199024289Y-106428666D01*
X199070019Y-106531334D01*
X199122983Y-106644914D01*
X199178030Y-106758497D01*
X199230010Y-106861179D01*
X199273771Y-106942052D01*
X199295390Y-106977790D01*
X199342551Y-107059815D01*
X199378076Y-107140440D01*
X199389586Y-107180008D01*
X199387368Y-107290040D01*
X199344503Y-107391970D01*
X199269516Y-107478507D01*
X199170932Y-107542362D01*
X199057273Y-107576245D01*
X198937065Y-107572865D01*
X198931579Y-107571707D01*
X198848895Y-107535282D01*
X198757707Y-107466403D01*
X198667415Y-107376042D01*
X198587418Y-107275176D01*
X198527115Y-107174778D01*
X198495906Y-107085823D01*
X198493593Y-107060310D01*
X198485184Y-107017728D01*
X198463707Y-106951028D01*
X198434790Y-106874280D01*
X198404059Y-106801554D01*
X198377139Y-106746919D01*
X198359658Y-106724444D01*
X198359269Y-106724413D01*
X198333229Y-106728673D01*
X198270766Y-106740008D01*
X198183756Y-106756250D01*
X198153085Y-106762050D01*
X198050967Y-106780089D01*
X197981734Y-106787276D01*
X197930290Y-106783549D01*
X197881541Y-106768848D01*
X197861789Y-106760877D01*
X197786334Y-106722151D01*
X197721921Y-106677560D01*
X197714490Y-106670950D01*
X197660080Y-106619834D01*
X197643146Y-106690565D01*
X197625284Y-106750112D01*
X197609034Y-106785884D01*
X197591365Y-106820552D01*
X197562790Y-106885821D01*
X197535178Y-106953397D01*
X197468750Y-107080182D01*
X197379484Y-107193699D01*
X197278109Y-107282783D01*
X197175353Y-107336269D01*
X197164086Y-107339591D01*
X197027509Y-107354347D01*
X196893330Y-107329634D01*
X196774921Y-107269677D01*
X196694438Y-107191190D01*
X196644950Y-107134401D01*
X196612986Y-107120411D01*
X196600395Y-107149915D01*
X196600272Y-107155693D01*
X196583135Y-107224542D01*
X196539861Y-107304986D01*
X196482656Y-107377824D01*
X196432846Y-107419040D01*
X196324436Y-107456737D01*
X196200916Y-107450784D01*
X196059166Y-107400964D01*
X196040181Y-107391727D01*
X195851900Y-107308593D01*
X195677489Y-107257295D01*
X195498260Y-107232817D01*
X195437365Y-107229844D01*
X195251821Y-107234807D01*
X195078895Y-107264065D01*
X194909683Y-107321078D01*
X194735282Y-107409307D01*
X194546789Y-107532209D01*
X194423602Y-107623743D01*
X194290474Y-107724107D01*
X194186040Y-107795883D01*
X194101789Y-107842638D01*
X194029209Y-107867943D01*
X193959788Y-107875366D01*
X193885014Y-107868475D01*
X193853394Y-107862840D01*
X193778754Y-107827756D01*
X193705913Y-107759897D01*
X193648739Y-107674160D01*
X193627765Y-107620477D01*
X193619005Y-107578808D01*
X193616841Y-107532379D01*
X193622513Y-107472721D01*
X193637264Y-107391365D01*
X193662335Y-107279842D01*
X193698967Y-107129682D01*
X193700808Y-107122279D01*
X193734587Y-106986115D01*
X193764523Y-106864665D01*
X193788440Y-106766822D01*
X193804161Y-106701479D01*
X193809154Y-106679685D01*
X193817340Y-106642353D01*
X193834375Y-106566330D01*
X193858175Y-106460872D01*
X193886652Y-106335233D01*
X193904383Y-106257230D01*
X193940643Y-106093848D01*
X193980383Y-105907758D01*
X194022432Y-105705075D01*
X194065621Y-105491913D01*
X194108781Y-105274386D01*
X194150742Y-105058606D01*
X194190335Y-104850690D01*
X194226389Y-104656749D01*
X194257737Y-104482899D01*
X194283207Y-104335254D01*
X194301631Y-104219926D01*
X194311839Y-104143031D01*
X194313535Y-104118251D01*
X194336302Y-104013167D01*
X194397353Y-103917791D01*
X194485807Y-103843048D01*
X194590786Y-103799860D01*
X194636689Y-103793781D01*
X194769116Y-103808380D01*
G36*
X199973072Y-103870021D02*
G01*
X200163707Y-103944906D01*
X200350679Y-104057621D01*
X200529029Y-104204816D01*
X200693797Y-104383140D01*
X200840022Y-104589244D01*
X200925554Y-104742007D01*
X200964520Y-104821597D01*
X200989939Y-104884949D01*
X201004699Y-104946631D01*
X201011688Y-105021213D01*
X201013796Y-105123263D01*
X201013922Y-105187687D01*
X201012736Y-105312286D01*
X201007716Y-105401377D01*
X200996666Y-105468602D01*
X200977393Y-105527601D01*
X200949435Y-105588520D01*
X200884949Y-105718818D01*
X201060084Y-105806660D01*
X201167647Y-105861624D01*
X201279858Y-105920558D01*
X201370456Y-105969625D01*
X201452382Y-106014840D01*
X201524868Y-106054346D01*
X201562619Y-106074521D01*
X201682295Y-106151203D01*
X201804995Y-106253315D01*
X201914389Y-106365818D01*
X201991776Y-106469714D01*
X202071213Y-106640320D01*
X202104451Y-106807262D01*
X202094465Y-106966476D01*
X202044231Y-107113895D01*
X201956726Y-107245452D01*
X201834926Y-107357083D01*
X201681806Y-107444719D01*
X201500343Y-107504296D01*
X201293513Y-107531747D01*
X201213574Y-107532984D01*
X201113219Y-107530372D01*
X201027277Y-107526022D01*
X200971415Y-107520778D01*
X200964745Y-107519593D01*
X200847450Y-107484468D01*
X200710744Y-107427923D01*
X200574387Y-107358276D01*
X200555165Y-107347201D01*
X200472177Y-107301964D01*
X200410274Y-107279985D01*
X200350332Y-107276211D01*
X200304523Y-107280965D01*
X200225648Y-107285778D01*
X200159339Y-107270731D01*
X200081511Y-107230924D01*
X200049741Y-107211301D01*
X200021465Y-107189551D01*
X199993703Y-107160681D01*
X199963476Y-107119697D01*
X199927801Y-107061606D01*
X199883699Y-106981415D01*
X199828191Y-106874129D01*
X199758294Y-106734756D01*
X199671029Y-106558303D01*
X199628355Y-106471674D01*
X199539831Y-106290760D01*
X200365230Y-106290760D01*
X200388351Y-106355623D01*
X200416401Y-106416398D01*
X200454793Y-106485279D01*
X200490335Y-106518626D01*
X200535337Y-106527687D01*
X200538187Y-106527704D01*
X200631247Y-106542629D01*
X200731772Y-106590299D01*
X200848747Y-106675062D01*
X200857252Y-106682057D01*
X200960851Y-106757276D01*
X201058643Y-106799978D01*
X201172522Y-106818279D01*
X201231121Y-106820654D01*
X201306728Y-106817723D01*
X201339165Y-106804507D01*
X201340385Y-106792031D01*
X201316390Y-106771557D01*
X201255456Y-106733185D01*
X201164645Y-106680979D01*
X201051021Y-106618999D01*
X200923563Y-106552293D01*
X200791899Y-106484034D01*
X200673528Y-106421375D01*
X200576192Y-106368518D01*
X200507635Y-106329664D01*
X200476207Y-106309543D01*
X200444803Y-106290078D01*
X200436090Y-106294113D01*
X200420962Y-106296324D01*
X200399207Y-106281818D01*
X200368825Y-106265972D01*
X200365230Y-106290760D01*
X199539831Y-106290760D01*
X199489198Y-106187285D01*
X199371255Y-105941644D01*
X199272774Y-105730014D01*
X199192003Y-105547657D01*
X199127191Y-105389836D01*
X199076584Y-105251814D01*
X199038432Y-105128853D01*
X199010982Y-105016216D01*
X198992482Y-104909166D01*
X198981181Y-104802966D01*
X198975827Y-104707178D01*
X198979038Y-104638174D01*
X199678173Y-104638174D01*
X199679686Y-104730594D01*
X199707596Y-104854754D01*
X199761546Y-105007639D01*
X199826398Y-105155363D01*
X199950559Y-105418162D01*
X200076529Y-105404939D01*
X200175114Y-105385218D01*
X200242051Y-105346860D01*
X200257823Y-105331330D01*
X200296468Y-105276521D01*
X200313132Y-105227851D01*
X200313147Y-105226808D01*
X200297506Y-105139450D01*
X200254944Y-105032218D01*
X200192009Y-104921272D01*
X200185372Y-104911367D01*
X200127559Y-104839843D01*
X200050279Y-104762152D01*
X199964001Y-104686839D01*
X199879188Y-104622450D01*
X199806307Y-104577528D01*
X199755824Y-104560618D01*
X199755770Y-104560618D01*
X199703415Y-104580510D01*
X199678173Y-104638174D01*
X198979038Y-104638174D01*
X198986163Y-104485066D01*
X199034291Y-104293142D01*
X199119405Y-104132516D01*
X199240699Y-104004298D01*
X199397366Y-103909598D01*
X199588600Y-103849525D01*
X199600658Y-103847142D01*
X199783736Y-103836316D01*
X199973072Y-103870021D01*
G37*
X199973072Y-103870021D02*
X200163707Y-103944906D01*
X200350679Y-104057621D01*
X200529029Y-104204816D01*
X200693797Y-104383140D01*
X200840022Y-104589244D01*
X200925554Y-104742007D01*
X200964520Y-104821597D01*
X200989939Y-104884949D01*
X201004699Y-104946631D01*
X201011688Y-105021213D01*
X201013796Y-105123263D01*
X201013922Y-105187687D01*
X201012736Y-105312286D01*
X201007716Y-105401377D01*
X200996666Y-105468602D01*
X200977393Y-105527601D01*
X200949435Y-105588520D01*
X200884949Y-105718818D01*
X201060084Y-105806660D01*
X201167647Y-105861624D01*
X201279858Y-105920558D01*
X201370456Y-105969625D01*
X201452382Y-106014840D01*
X201524868Y-106054346D01*
X201562619Y-106074521D01*
X201682295Y-106151203D01*
X201804995Y-106253315D01*
X201914389Y-106365818D01*
X201991776Y-106469714D01*
X202071213Y-106640320D01*
X202104451Y-106807262D01*
X202094465Y-106966476D01*
X202044231Y-107113895D01*
X201956726Y-107245452D01*
X201834926Y-107357083D01*
X201681806Y-107444719D01*
X201500343Y-107504296D01*
X201293513Y-107531747D01*
X201213574Y-107532984D01*
X201113219Y-107530372D01*
X201027277Y-107526022D01*
X200971415Y-107520778D01*
X200964745Y-107519593D01*
X200847450Y-107484468D01*
X200710744Y-107427923D01*
X200574387Y-107358276D01*
X200555165Y-107347201D01*
X200472177Y-107301964D01*
X200410274Y-107279985D01*
X200350332Y-107276211D01*
X200304523Y-107280965D01*
X200225648Y-107285778D01*
X200159339Y-107270731D01*
X200081511Y-107230924D01*
X200049741Y-107211301D01*
X200021465Y-107189551D01*
X199993703Y-107160681D01*
X199963476Y-107119697D01*
X199927801Y-107061606D01*
X199883699Y-106981415D01*
X199828191Y-106874129D01*
X199758294Y-106734756D01*
X199671029Y-106558303D01*
X199628355Y-106471674D01*
X199539831Y-106290760D01*
X200365230Y-106290760D01*
X200388351Y-106355623D01*
X200416401Y-106416398D01*
X200454793Y-106485279D01*
X200490335Y-106518626D01*
X200535337Y-106527687D01*
X200538187Y-106527704D01*
X200631247Y-106542629D01*
X200731772Y-106590299D01*
X200848747Y-106675062D01*
X200857252Y-106682057D01*
X200960851Y-106757276D01*
X201058643Y-106799978D01*
X201172522Y-106818279D01*
X201231121Y-106820654D01*
X201306728Y-106817723D01*
X201339165Y-106804507D01*
X201340385Y-106792031D01*
X201316390Y-106771557D01*
X201255456Y-106733185D01*
X201164645Y-106680979D01*
X201051021Y-106618999D01*
X200923563Y-106552293D01*
X200791899Y-106484034D01*
X200673528Y-106421375D01*
X200576192Y-106368518D01*
X200507635Y-106329664D01*
X200476207Y-106309543D01*
X200444803Y-106290078D01*
X200436090Y-106294113D01*
X200420962Y-106296324D01*
X200399207Y-106281818D01*
X200368825Y-106265972D01*
X200365230Y-106290760D01*
X199539831Y-106290760D01*
X199489198Y-106187285D01*
X199371255Y-105941644D01*
X199272774Y-105730014D01*
X199192003Y-105547657D01*
X199127191Y-105389836D01*
X199076584Y-105251814D01*
X199038432Y-105128853D01*
X199010982Y-105016216D01*
X198992482Y-104909166D01*
X198981181Y-104802966D01*
X198975827Y-104707178D01*
X198979038Y-104638174D01*
X199678173Y-104638174D01*
X199679686Y-104730594D01*
X199707596Y-104854754D01*
X199761546Y-105007639D01*
X199826398Y-105155363D01*
X199950559Y-105418162D01*
X200076529Y-105404939D01*
X200175114Y-105385218D01*
X200242051Y-105346860D01*
X200257823Y-105331330D01*
X200296468Y-105276521D01*
X200313132Y-105227851D01*
X200313147Y-105226808D01*
X200297506Y-105139450D01*
X200254944Y-105032218D01*
X200192009Y-104921272D01*
X200185372Y-104911367D01*
X200127559Y-104839843D01*
X200050279Y-104762152D01*
X199964001Y-104686839D01*
X199879188Y-104622450D01*
X199806307Y-104577528D01*
X199755824Y-104560618D01*
X199755770Y-104560618D01*
X199703415Y-104580510D01*
X199678173Y-104638174D01*
X198979038Y-104638174D01*
X198986163Y-104485066D01*
X199034291Y-104293142D01*
X199119405Y-104132516D01*
X199240699Y-104004298D01*
X199397366Y-103909598D01*
X199588600Y-103849525D01*
X199600658Y-103847142D01*
X199783736Y-103836316D01*
X199973072Y-103870021D01*
G36*
X202533076Y-103994207D02*
G01*
X202670083Y-104052768D01*
X202773810Y-104139960D01*
X202825580Y-104210671D01*
X202853654Y-104262826D01*
X202870825Y-104318098D01*
X202879611Y-104390550D01*
X202882529Y-104494246D01*
X202882638Y-104529439D01*
X202882654Y-104756441D01*
X202793228Y-104845899D01*
X202731424Y-104900353D01*
X202670685Y-104930887D01*
X202588956Y-104947413D01*
X202559637Y-104950844D01*
X202464908Y-104967487D01*
X202418704Y-104990429D01*
X202421185Y-105017514D01*
X202472513Y-105046587D01*
X202550708Y-105070286D01*
X202734116Y-105120949D01*
X202942173Y-105187703D01*
X203163612Y-105266157D01*
X203387166Y-105351921D01*
X203601571Y-105440604D01*
X203795559Y-105527815D01*
X203957864Y-105609164D01*
X204013728Y-105640441D01*
X204267467Y-105804793D01*
X204481149Y-105977167D01*
X204653386Y-106155477D01*
X204782792Y-106337633D01*
X204867978Y-106521547D01*
X204907556Y-106705132D01*
X204900140Y-106886300D01*
X204885297Y-106951975D01*
X204844720Y-107035750D01*
X204771748Y-107130940D01*
X204677611Y-107226262D01*
X204573540Y-107310431D01*
X204470764Y-107372164D01*
X204463920Y-107375348D01*
X204362867Y-107411370D01*
X204228577Y-107445494D01*
X204076983Y-107474848D01*
X203924014Y-107496561D01*
X203785603Y-107507763D01*
X203725077Y-107508490D01*
X203627516Y-107502062D01*
X203512285Y-107488395D01*
X203435897Y-107476072D01*
X203241126Y-107433524D01*
X203069334Y-107383321D01*
X202928469Y-107328253D01*
X202826479Y-107271116D01*
X202805100Y-107254377D01*
X202750711Y-107201218D01*
X202721815Y-107149355D01*
X202708311Y-107077377D01*
X202705304Y-107042830D01*
X202705359Y-106936901D01*
X202726901Y-106854148D01*
X202742213Y-106822767D01*
X202816102Y-106735484D01*
X202919460Y-106677225D01*
X203039429Y-106651985D01*
X203163146Y-106663760D01*
X203207295Y-106678297D01*
X203275501Y-106705880D01*
X203325248Y-106726194D01*
X203413653Y-106753007D01*
X203524850Y-106772595D01*
X203649690Y-106785031D01*
X203779019Y-106790388D01*
X203903687Y-106788740D01*
X204014541Y-106780160D01*
X204102431Y-106764720D01*
X204158204Y-106742494D01*
X204173554Y-106719417D01*
X204156650Y-106688375D01*
X204112204Y-106634350D01*
X204049611Y-106566821D01*
X203978268Y-106495267D01*
X203907573Y-106429168D01*
X203846922Y-106378004D01*
X203811062Y-106353733D01*
X203759449Y-106324961D01*
X203730960Y-106305101D01*
X203702046Y-106286922D01*
X203637704Y-106253257D01*
X203547440Y-106208606D01*
X203440759Y-106157468D01*
X203327166Y-106104342D01*
X203216168Y-106053727D01*
X203117268Y-106010124D01*
X203040080Y-105978072D01*
X202963422Y-105950222D01*
X202850694Y-105912170D01*
X202713021Y-105867533D01*
X202561531Y-105819924D01*
X202426483Y-105778700D01*
X202241814Y-105721526D01*
X202097938Y-105672192D01*
X201987874Y-105626890D01*
X201904636Y-105581810D01*
X201841243Y-105533145D01*
X201790711Y-105477085D01*
X201746056Y-105409824D01*
X201744140Y-105406587D01*
X201717405Y-105356031D01*
X201701559Y-105306553D01*
X201694679Y-105244452D01*
X201694839Y-105156028D01*
X201697851Y-105076978D01*
X201708459Y-104934026D01*
X201728602Y-104818308D01*
X201762487Y-104708171D01*
X201776642Y-104671267D01*
X201871079Y-104470151D01*
X201982208Y-104295293D01*
X202104942Y-104152897D01*
X202234192Y-104049169D01*
X202324073Y-104003555D01*
X202401287Y-103979404D01*
X202465097Y-103977938D01*
X202533076Y-103994207D01*
G37*
X202533076Y-103994207D02*
X202670083Y-104052768D01*
X202773810Y-104139960D01*
X202825580Y-104210671D01*
X202853654Y-104262826D01*
X202870825Y-104318098D01*
X202879611Y-104390550D01*
X202882529Y-104494246D01*
X202882638Y-104529439D01*
X202882654Y-104756441D01*
X202793228Y-104845899D01*
X202731424Y-104900353D01*
X202670685Y-104930887D01*
X202588956Y-104947413D01*
X202559637Y-104950844D01*
X202464908Y-104967487D01*
X202418704Y-104990429D01*
X202421185Y-105017514D01*
X202472513Y-105046587D01*
X202550708Y-105070286D01*
X202734116Y-105120949D01*
X202942173Y-105187703D01*
X203163612Y-105266157D01*
X203387166Y-105351921D01*
X203601571Y-105440604D01*
X203795559Y-105527815D01*
X203957864Y-105609164D01*
X204013728Y-105640441D01*
X204267467Y-105804793D01*
X204481149Y-105977167D01*
X204653386Y-106155477D01*
X204782792Y-106337633D01*
X204867978Y-106521547D01*
X204907556Y-106705132D01*
X204900140Y-106886300D01*
X204885297Y-106951975D01*
X204844720Y-107035750D01*
X204771748Y-107130940D01*
X204677611Y-107226262D01*
X204573540Y-107310431D01*
X204470764Y-107372164D01*
X204463920Y-107375348D01*
X204362867Y-107411370D01*
X204228577Y-107445494D01*
X204076983Y-107474848D01*
X203924014Y-107496561D01*
X203785603Y-107507763D01*
X203725077Y-107508490D01*
X203627516Y-107502062D01*
X203512285Y-107488395D01*
X203435897Y-107476072D01*
X203241126Y-107433524D01*
X203069334Y-107383321D01*
X202928469Y-107328253D01*
X202826479Y-107271116D01*
X202805100Y-107254377D01*
X202750711Y-107201218D01*
X202721815Y-107149355D01*
X202708311Y-107077377D01*
X202705304Y-107042830D01*
X202705359Y-106936901D01*
X202726901Y-106854148D01*
X202742213Y-106822767D01*
X202816102Y-106735484D01*
X202919460Y-106677225D01*
X203039429Y-106651985D01*
X203163146Y-106663760D01*
X203207295Y-106678297D01*
X203275501Y-106705880D01*
X203325248Y-106726194D01*
X203413653Y-106753007D01*
X203524850Y-106772595D01*
X203649690Y-106785031D01*
X203779019Y-106790388D01*
X203903687Y-106788740D01*
X204014541Y-106780160D01*
X204102431Y-106764720D01*
X204158204Y-106742494D01*
X204173554Y-106719417D01*
X204156650Y-106688375D01*
X204112204Y-106634350D01*
X204049611Y-106566821D01*
X203978268Y-106495267D01*
X203907573Y-106429168D01*
X203846922Y-106378004D01*
X203811062Y-106353733D01*
X203759449Y-106324961D01*
X203730960Y-106305101D01*
X203702046Y-106286922D01*
X203637704Y-106253257D01*
X203547440Y-106208606D01*
X203440759Y-106157468D01*
X203327166Y-106104342D01*
X203216168Y-106053727D01*
X203117268Y-106010124D01*
X203040080Y-105978072D01*
X202963422Y-105950222D01*
X202850694Y-105912170D01*
X202713021Y-105867533D01*
X202561531Y-105819924D01*
X202426483Y-105778700D01*
X202241814Y-105721526D01*
X202097938Y-105672192D01*
X201987874Y-105626890D01*
X201904636Y-105581810D01*
X201841243Y-105533145D01*
X201790711Y-105477085D01*
X201746056Y-105409824D01*
X201744140Y-105406587D01*
X201717405Y-105356031D01*
X201701559Y-105306553D01*
X201694679Y-105244452D01*
X201694839Y-105156028D01*
X201697851Y-105076978D01*
X201708459Y-104934026D01*
X201728602Y-104818308D01*
X201762487Y-104708171D01*
X201776642Y-104671267D01*
X201871079Y-104470151D01*
X201982208Y-104295293D01*
X202104942Y-104152897D01*
X202234192Y-104049169D01*
X202324073Y-104003555D01*
X202401287Y-103979404D01*
X202465097Y-103977938D01*
X202533076Y-103994207D01*
G36*
X198171802Y-94765266D02*
G01*
X198390321Y-94866010D01*
X198391297Y-94866505D01*
X198688667Y-95021316D01*
X198856121Y-95134346D01*
X198914800Y-95240330D01*
X198885846Y-95374001D01*
X198803689Y-95544036D01*
X198676204Y-95756368D01*
X198544981Y-95852070D01*
X198350565Y-95874416D01*
X198349798Y-95874416D01*
X198017145Y-95908152D01*
X197564540Y-96002013D01*
X197025695Y-96144983D01*
X196434320Y-96326046D01*
X195824127Y-96534185D01*
X195228827Y-96758384D01*
X194682133Y-96987625D01*
X194217755Y-97210892D01*
X194151250Y-97246466D01*
X193654908Y-97526483D01*
X193243839Y-97785836D01*
X192870708Y-98059758D01*
X192488179Y-98383484D01*
X192048918Y-98792246D01*
X191961020Y-98876756D01*
X191314250Y-99545399D01*
X190793285Y-100188365D01*
X190367522Y-100844860D01*
X190231231Y-101092874D01*
X190075876Y-101409924D01*
X190016839Y-101591752D01*
X190055264Y-101643194D01*
X190192296Y-101569086D01*
X190320083Y-101468243D01*
X190577652Y-101253868D01*
X190744682Y-101121284D01*
X190860221Y-101043285D01*
X190963318Y-100992664D01*
X191053544Y-100957220D01*
X191229791Y-100874225D01*
X191493514Y-100731989D01*
X191788498Y-100560866D01*
X191796620Y-100555978D01*
X192134838Y-100365099D01*
X192550539Y-100148776D01*
X192965250Y-99947536D01*
X193050583Y-99908396D01*
X193447036Y-99727983D01*
X193857462Y-99539625D01*
X194207239Y-99377605D01*
X194278250Y-99344394D01*
X194615583Y-99198845D01*
X194958950Y-99070555D01*
X195167250Y-99005985D01*
X195414036Y-98932435D01*
X195593178Y-98863414D01*
X195632917Y-98840834D01*
X195898668Y-98735501D01*
X196205146Y-98764768D01*
X196447263Y-98887471D01*
X196687995Y-99033026D01*
X196923953Y-99128840D01*
X196946329Y-99134320D01*
X197096598Y-99179418D01*
X197141803Y-99259904D01*
X197104708Y-99432199D01*
X197088318Y-99486221D01*
X197048129Y-99610055D01*
X196999544Y-99711021D01*
X196919985Y-99808686D01*
X196786874Y-99922616D01*
X196577637Y-100072376D01*
X196269694Y-100277532D01*
X195886917Y-100527387D01*
X194871437Y-101261502D01*
X193964782Y-102076251D01*
X193141305Y-102998163D01*
X192375360Y-104053767D01*
X192171835Y-104370331D01*
X191813328Y-105006815D01*
X191483667Y-105715634D01*
X191194978Y-106459824D01*
X190959388Y-107202423D01*
X190789022Y-107906465D01*
X190696007Y-108534988D01*
X190683334Y-108907638D01*
X190693469Y-109302330D01*
X190692797Y-109564785D01*
X190677423Y-109731957D01*
X190643454Y-109840801D01*
X190586999Y-109928271D01*
X190574083Y-109944679D01*
X190419929Y-110035160D01*
X190251639Y-110014856D01*
X189961205Y-109906721D01*
X189710104Y-109771536D01*
X189560450Y-109642825D01*
X189559380Y-109641242D01*
X189517245Y-109483177D01*
X189498409Y-109198927D01*
X189501589Y-108829843D01*
X189525507Y-108417281D01*
X189568883Y-108002593D01*
X189620104Y-107679274D01*
X189904608Y-106548963D01*
X190322186Y-105392147D01*
X190851781Y-104252443D01*
X191472336Y-103173468D01*
X192162791Y-102198838D01*
X192412186Y-101896120D01*
X192618489Y-101648351D01*
X192737758Y-101482220D01*
X192762166Y-101399967D01*
X192683886Y-101403833D01*
X192495088Y-101496058D01*
X192187946Y-101678882D01*
X191754631Y-101954545D01*
X191399583Y-102185899D01*
X190981829Y-102468151D01*
X190553415Y-102772009D01*
X190167606Y-103058922D01*
X189902351Y-103269519D01*
X189622152Y-103511807D01*
X189447210Y-103692662D01*
X189347935Y-103853072D01*
X189294735Y-104034021D01*
X189277695Y-104134725D01*
X189265834Y-104350299D01*
X189269979Y-104692485D01*
X189287469Y-105119595D01*
X189315647Y-105589938D01*
X189351851Y-106061825D01*
X189393422Y-106493567D01*
X189437701Y-106843475D01*
X189458299Y-106965750D01*
X189473756Y-107120498D01*
X189432683Y-107245677D01*
X189308314Y-107381148D01*
X189073888Y-107566773D01*
X189035466Y-107595523D01*
X188703349Y-107843332D01*
X188421633Y-107517435D01*
X188259073Y-107308929D01*
X188157292Y-107139029D01*
X188139917Y-107080695D01*
X188112153Y-106920219D01*
X188035877Y-106632740D01*
X187921614Y-106249964D01*
X187779888Y-105803595D01*
X187621221Y-105325340D01*
X187456140Y-104846904D01*
X187295166Y-104399993D01*
X187148825Y-104016313D01*
X187027640Y-103727569D01*
X187025012Y-103721815D01*
X186883972Y-103398178D01*
X186782342Y-103134090D01*
X186733143Y-102965274D01*
X186734339Y-102924439D01*
X186841311Y-102889184D01*
X187060394Y-102854016D01*
X187233174Y-102836203D01*
X187598533Y-102848035D01*
X187827392Y-102956987D01*
X187923349Y-103165067D01*
X187926974Y-103223436D01*
X187979745Y-103356697D01*
X188020954Y-103383974D01*
X188086912Y-103323492D01*
X188178121Y-103131690D01*
X188279567Y-102841724D01*
X188305209Y-102756262D01*
X188498599Y-102150825D01*
X188729149Y-101523743D01*
X188976546Y-100924942D01*
X189220475Y-100404347D01*
X189385835Y-100100441D01*
X189645967Y-99714639D01*
X190002821Y-99256687D01*
X190423396Y-98763275D01*
X190874688Y-98271090D01*
X191323698Y-97816820D01*
X191737421Y-97437153D01*
X191907583Y-97297044D01*
X192372495Y-96969347D01*
X192988611Y-96596219D01*
X193745793Y-96183637D01*
X194134442Y-95984380D01*
X194850242Y-95633032D01*
X195458381Y-95358058D01*
X195994926Y-95146303D01*
X196495946Y-94984613D01*
X196997509Y-94859831D01*
X197459963Y-94771469D01*
X197773565Y-94724826D01*
X197988530Y-94720481D01*
X198171802Y-94765266D01*
G37*
X198171802Y-94765266D02*
X198390321Y-94866010D01*
X198391297Y-94866505D01*
X198688667Y-95021316D01*
X198856121Y-95134346D01*
X198914800Y-95240330D01*
X198885846Y-95374001D01*
X198803689Y-95544036D01*
X198676204Y-95756368D01*
X198544981Y-95852070D01*
X198350565Y-95874416D01*
X198349798Y-95874416D01*
X198017145Y-95908152D01*
X197564540Y-96002013D01*
X197025695Y-96144983D01*
X196434320Y-96326046D01*
X195824127Y-96534185D01*
X195228827Y-96758384D01*
X194682133Y-96987625D01*
X194217755Y-97210892D01*
X194151250Y-97246466D01*
X193654908Y-97526483D01*
X193243839Y-97785836D01*
X192870708Y-98059758D01*
X192488179Y-98383484D01*
X192048918Y-98792246D01*
X191961020Y-98876756D01*
X191314250Y-99545399D01*
X190793285Y-100188365D01*
X190367522Y-100844860D01*
X190231231Y-101092874D01*
X190075876Y-101409924D01*
X190016839Y-101591752D01*
X190055264Y-101643194D01*
X190192296Y-101569086D01*
X190320083Y-101468243D01*
X190577652Y-101253868D01*
X190744682Y-101121284D01*
X190860221Y-101043285D01*
X190963318Y-100992664D01*
X191053544Y-100957220D01*
X191229791Y-100874225D01*
X191493514Y-100731989D01*
X191788498Y-100560866D01*
X191796620Y-100555978D01*
X192134838Y-100365099D01*
X192550539Y-100148776D01*
X192965250Y-99947536D01*
X193050583Y-99908396D01*
X193447036Y-99727983D01*
X193857462Y-99539625D01*
X194207239Y-99377605D01*
X194278250Y-99344394D01*
X194615583Y-99198845D01*
X194958950Y-99070555D01*
X195167250Y-99005985D01*
X195414036Y-98932435D01*
X195593178Y-98863414D01*
X195632917Y-98840834D01*
X195898668Y-98735501D01*
X196205146Y-98764768D01*
X196447263Y-98887471D01*
X196687995Y-99033026D01*
X196923953Y-99128840D01*
X196946329Y-99134320D01*
X197096598Y-99179418D01*
X197141803Y-99259904D01*
X197104708Y-99432199D01*
X197088318Y-99486221D01*
X197048129Y-99610055D01*
X196999544Y-99711021D01*
X196919985Y-99808686D01*
X196786874Y-99922616D01*
X196577637Y-100072376D01*
X196269694Y-100277532D01*
X195886917Y-100527387D01*
X194871437Y-101261502D01*
X193964782Y-102076251D01*
X193141305Y-102998163D01*
X192375360Y-104053767D01*
X192171835Y-104370331D01*
X191813328Y-105006815D01*
X191483667Y-105715634D01*
X191194978Y-106459824D01*
X190959388Y-107202423D01*
X190789022Y-107906465D01*
X190696007Y-108534988D01*
X190683334Y-108907638D01*
X190693469Y-109302330D01*
X190692797Y-109564785D01*
X190677423Y-109731957D01*
X190643454Y-109840801D01*
X190586999Y-109928271D01*
X190574083Y-109944679D01*
X190419929Y-110035160D01*
X190251639Y-110014856D01*
X189961205Y-109906721D01*
X189710104Y-109771536D01*
X189560450Y-109642825D01*
X189559380Y-109641242D01*
X189517245Y-109483177D01*
X189498409Y-109198927D01*
X189501589Y-108829843D01*
X189525507Y-108417281D01*
X189568883Y-108002593D01*
X189620104Y-107679274D01*
X189904608Y-106548963D01*
X190322186Y-105392147D01*
X190851781Y-104252443D01*
X191472336Y-103173468D01*
X192162791Y-102198838D01*
X192412186Y-101896120D01*
X192618489Y-101648351D01*
X192737758Y-101482220D01*
X192762166Y-101399967D01*
X192683886Y-101403833D01*
X192495088Y-101496058D01*
X192187946Y-101678882D01*
X191754631Y-101954545D01*
X191399583Y-102185899D01*
X190981829Y-102468151D01*
X190553415Y-102772009D01*
X190167606Y-103058922D01*
X189902351Y-103269519D01*
X189622152Y-103511807D01*
X189447210Y-103692662D01*
X189347935Y-103853072D01*
X189294735Y-104034021D01*
X189277695Y-104134725D01*
X189265834Y-104350299D01*
X189269979Y-104692485D01*
X189287469Y-105119595D01*
X189315647Y-105589938D01*
X189351851Y-106061825D01*
X189393422Y-106493567D01*
X189437701Y-106843475D01*
X189458299Y-106965750D01*
X189473756Y-107120498D01*
X189432683Y-107245677D01*
X189308314Y-107381148D01*
X189073888Y-107566773D01*
X189035466Y-107595523D01*
X188703349Y-107843332D01*
X188421633Y-107517435D01*
X188259073Y-107308929D01*
X188157292Y-107139029D01*
X188139917Y-107080695D01*
X188112153Y-106920219D01*
X188035877Y-106632740D01*
X187921614Y-106249964D01*
X187779888Y-105803595D01*
X187621221Y-105325340D01*
X187456140Y-104846904D01*
X187295166Y-104399993D01*
X187148825Y-104016313D01*
X187027640Y-103727569D01*
X187025012Y-103721815D01*
X186883972Y-103398178D01*
X186782342Y-103134090D01*
X186733143Y-102965274D01*
X186734339Y-102924439D01*
X186841311Y-102889184D01*
X187060394Y-102854016D01*
X187233174Y-102836203D01*
X187598533Y-102848035D01*
X187827392Y-102956987D01*
X187923349Y-103165067D01*
X187926974Y-103223436D01*
X187979745Y-103356697D01*
X188020954Y-103383974D01*
X188086912Y-103323492D01*
X188178121Y-103131690D01*
X188279567Y-102841724D01*
X188305209Y-102756262D01*
X188498599Y-102150825D01*
X188729149Y-101523743D01*
X188976546Y-100924942D01*
X189220475Y-100404347D01*
X189385835Y-100100441D01*
X189645967Y-99714639D01*
X190002821Y-99256687D01*
X190423396Y-98763275D01*
X190874688Y-98271090D01*
X191323698Y-97816820D01*
X191737421Y-97437153D01*
X191907583Y-97297044D01*
X192372495Y-96969347D01*
X192988611Y-96596219D01*
X193745793Y-96183637D01*
X194134442Y-95984380D01*
X194850242Y-95633032D01*
X195458381Y-95358058D01*
X195994926Y-95146303D01*
X196495946Y-94984613D01*
X196997509Y-94859831D01*
X197459963Y-94771469D01*
X197773565Y-94724826D01*
X197988530Y-94720481D01*
X198171802Y-94765266D01*
D13*
%TO.C,ENC1*%
X340218000Y-25490800D02*
X339218000Y-25490800D01*
X339718000Y-25990800D02*
X339718000Y-24990800D01*
X333618000Y-21990800D02*
X333618000Y-19590800D01*
X333618000Y-26790800D02*
X333618000Y-24190800D01*
X333618000Y-31390800D02*
X333618000Y-28990800D01*
X346918000Y-29590800D02*
X347218000Y-29290800D01*
X347518000Y-29590800D02*
X346918000Y-29590800D01*
X347218000Y-29290800D02*
X347518000Y-29590800D01*
X345818000Y-31390800D02*
X345818000Y-19590800D01*
X341718000Y-31390800D02*
X345818000Y-31390800D01*
X341718000Y-19590800D02*
X345818000Y-19590800D01*
X333618000Y-19590800D02*
X337718000Y-19590800D01*
X337718000Y-31390800D02*
X333618000Y-31390800D01*
X342718000Y-25490800D02*
G75*
G03*
X342718000Y-25490800I-3000000J0D01*
G01*
D10*
%TO.C,OL1*%
X334518000Y-37465000D02*
X334518000Y-34925000D01*
X344678000Y-34925000D02*
X344678000Y-37465000D01*
X334518000Y-34925000D02*
X344678000Y-34925000D01*
X334518000Y-37465000D02*
X344678000Y-37465000D01*
%TO.C,ENC1*%
X342703714Y-32619371D02*
X343037047Y-32619371D01*
X343179904Y-33143180D02*
X342703714Y-33143180D01*
X342703714Y-32143180D01*
X343179904Y-32143180D01*
X343608476Y-33143180D02*
X343608476Y-32143180D01*
X344179904Y-33143180D01*
X344179904Y-32143180D01*
X345227523Y-33047942D02*
X345179904Y-33095561D01*
X345037047Y-33143180D01*
X344941809Y-33143180D01*
X344798952Y-33095561D01*
X344703714Y-33000323D01*
X344656095Y-32905085D01*
X344608476Y-32714609D01*
X344608476Y-32571752D01*
X344656095Y-32381276D01*
X344703714Y-32286038D01*
X344798952Y-32190800D01*
X344941809Y-32143180D01*
X345037047Y-32143180D01*
X345179904Y-32190800D01*
X345227523Y-32238419D01*
X346179904Y-33143180D02*
X345608476Y-33143180D01*
X345894190Y-33143180D02*
X345894190Y-32143180D01*
X345798952Y-32286038D01*
X345703714Y-32381276D01*
X345608476Y-32428895D01*
%TO.C,OL1*%
X338135619Y-33547380D02*
X338326095Y-33547380D01*
X338421333Y-33595000D01*
X338516571Y-33690238D01*
X338564190Y-33880714D01*
X338564190Y-34214047D01*
X338516571Y-34404523D01*
X338421333Y-34499761D01*
X338326095Y-34547380D01*
X338135619Y-34547380D01*
X338040380Y-34499761D01*
X337945142Y-34404523D01*
X337897523Y-34214047D01*
X337897523Y-33880714D01*
X337945142Y-33690238D01*
X338040380Y-33595000D01*
X338135619Y-33547380D01*
X339468952Y-34547380D02*
X338992761Y-34547380D01*
X338992761Y-33547380D01*
X339802285Y-34023571D02*
X340135619Y-34023571D01*
X340278476Y-34547380D02*
X339802285Y-34547380D01*
X339802285Y-33547380D01*
X340278476Y-33547380D01*
X340707047Y-34547380D02*
X340707047Y-33547380D01*
X340945142Y-33547380D01*
X341088000Y-33595000D01*
X341183238Y-33690238D01*
X341230857Y-33785476D01*
X341278476Y-33975952D01*
X341278476Y-34118809D01*
X341230857Y-34309285D01*
X341183238Y-34404523D01*
X341088000Y-34499761D01*
X340945142Y-34547380D01*
X340707047Y-34547380D01*
%TD*%
M02*
