  0
SECTION
  2
HEADER
  9
$ACADVER
  1
AC1009
  9
$EXTMIN
 10
0.0
 20
0.0
 30
0.0
  9
$EXTMAX
 10
1000.0
 20
1000.0
 30
0.0
  9
$FILLMODE
 70
 0
  9
$SPLFRAME
 70
 1
  0
ENDSEC
  0
SECTION
  2
TABLES
  0
TABLE
  2
LAYER
 70
1
  0
LAYER
  2
0
 70
     0
 62
     7
  6
CONTINUOUS
  0
ENDTAB
  0
ENDSEC
  0
SECTION
  2
ENTITIES
  0
LINE
  8
0
 62
     0
 10
338.471
 20
108.208
 30
0.0
 11
338.707
 21
108.198
 31
0.0
  0
LINE
  8
0
 62
     0
 10
338.707
 20
108.198
 30
0.0
 11
338.941
 21
108.172
 31
0.0
  0
LINE
  8
0
 62
     0
 10
338.941
 20
108.172
 30
0.0
 11
339.171
 21
108.125
 31
0.0
  0
LINE
  8
0
 62
     0
 10
339.171
 20
108.125
 30
0.0
 11
339.398
 21
108.061
 31
0.0
  0
LINE
  8
0
 62
     0
 10
339.398
 20
108.061
 30
0.0
 11
339.619
 21
107.979
 31
0.0
  0
LINE
  8
0
 62
     0
 10
339.619
 20
107.979
 30
0.0
 11
339.833
 21
107.881
 31
0.0
  0
LINE
  8
0
 62
     0
 10
339.833
 20
107.881
 30
0.0
 11
340.038
 21
107.765
 31
0.0
  0
LINE
  8
0
 62
     0
 10
340.038
 20
107.765
 30
0.0
 11
340.235
 21
107.636
 31
0.0
  0
LINE
  8
0
 62
     0
 10
340.235
 20
107.636
 30
0.0
 11
340.42
 21
107.49
 31
0.0
  0
LINE
  8
0
 62
     0
 10
340.42
 20
107.49
 30
0.0
 11
340.593
 21
107.33
 31
0.0
  0
LINE
  8
0
 62
     0
 10
340.593
 20
107.33
 30
0.0
 11
340.753
 21
107.156
 31
0.0
  0
LINE
  8
0
 62
     0
 10
340.753
 20
107.156
 30
0.0
 11
340.899
 21
106.972
 31
0.0
  0
LINE
  8
0
 62
     0
 10
340.899
 20
106.972
 30
0.0
 11
341.029
 21
106.776
 31
0.0
  0
LINE
  8
0
 62
     0
 10
341.029
 20
106.776
 30
0.0
 11
341.144
 21
106.569
 31
0.0
  0
LINE
  8
0
 62
     0
 10
341.144
 20
106.569
 30
0.0
 11
341.242
 21
106.355
 31
0.0
  0
LINE
  8
0
 62
     0
 10
341.242
 20
106.355
 30
0.0
 11
341.325
 21
106.135
 31
0.0
  0
LINE
  8
0
 62
     0
 10
341.325
 20
106.135
 30
0.0
 11
341.388
 21
105.908
 31
0.0
  0
LINE
  8
0
 62
     0
 10
341.388
 20
105.908
 30
0.0
 11
341.435
 21
105.678
 31
0.0
  0
LINE
  8
0
 62
     0
 10
341.435
 20
105.678
 30
0.0
 11
341.461
 21
105.444
 31
0.0
  0
LINE
  8
0
 62
     0
 10
341.461
 20
105.444
 30
0.0
 11
341.471
 21
105.208
 31
0.0
  0
LINE
  8
0
 62
     0
 10
341.471
 20
105.208
 30
0.0
 11
341.471
 21
3.19429
 31
0.0
  0
LINE
  8
0
 62
     0
 10
341.471
 20
3.19429
 30
0.0
 11
341.461
 21
2.95865
 31
0.0
  0
LINE
  8
0
 62
     0
 10
341.461
 20
2.95865
 30
0.0
 11
341.435
 21
2.72576
 31
0.0
  0
LINE
  8
0
 62
     0
 10
341.435
 20
2.72576
 30
0.0
 11
341.388
 21
2.49425
 31
0.0
  0
LINE
  8
0
 62
     0
 10
341.388
 20
2.49425
 30
0.0
 11
341.325
 21
2.26687
 31
0.0
  0
LINE
  8
0
 62
     0
 10
341.325
 20
2.26687
 30
0.0
 11
341.242
 21
2.04639
 31
0.0
  0
LINE
  8
0
 62
     0
 10
341.242
 20
2.04639
 30
0.0
 11
341.144
 21
1.83279
 31
0.0
  0
LINE
  8
0
 62
     0
 10
341.144
 20
1.83279
 30
0.0
 11
341.029
 21
1.62746
 31
0.0
  0
LINE
  8
0
 62
     0
 10
341.029
 20
1.62746
 30
0.0
 11
340.899
 21
1.43178
 31
0.0
  0
LINE
  8
0
 62
     0
 10
340.899
 20
1.43178
 30
0.0
 11
340.753
 21
1.24575
 31
0.0
  0
LINE
  8
0
 62
     0
 10
340.753
 20
1.24575
 30
0.0
 11
340.593
 21
1.07349
 31
0.0
  0
LINE
  8
0
 62
     0
 10
340.593
 20
1.07349
 30
0.0
 11
340.42
 21
0.913638
 31
0.0
  0
LINE
  8
0
 62
     0
 10
340.42
 20
0.913638
 30
0.0
 11
340.235
 21
0.767567
 31
0.0
  0
LINE
  8
0
 62
     0
 10
340.235
 20
0.767567
 30
0.0
 11
340.038
 21
0.636655
 31
0.0
  0
LINE
  8
0
 62
     0
 10
340.038
 20
0.636655
 30
0.0
 11
339.833
 21
0.520898
 31
0.0
  0
LINE
  8
0
 62
     0
 10
339.833
 20
0.520898
 30
0.0
 11
339.619
 21
0.421679
 31
0.0
  0
LINE
  8
0
 62
     0
 10
339.619
 20
0.421679
 30
0.0
 11
339.398
 21
0.341753
 31
0.0
  0
LINE
  8
0
 62
     0
 10
339.398
 20
0.341753
 30
0.0
 11
339.171
 21
0.276986
 31
0.0
  0
LINE
  8
0
 62
     0
 10
339.171
 20
0.276986
 30
0.0
 11
338.941
 21
0.23151
 31
0.0
  0
LINE
  8
0
 62
     0
 10
338.941
 20
0.23151
 30
0.0
 11
338.707
 21
0.20395
 31
0.0
  0
LINE
  8
0
 62
     0
 10
338.707
 20
0.20395
 30
0.0
 11
338.471
 21
0.194303
 31
0.0
  0
LINE
  8
0
 62
     0
 10
338.471
 20
0.194303
 30
0.0
 11
3.09507
 21
0.194303
 31
0.0
  0
LINE
  8
0
 62
     0
 10
3.09507
 20
0.194303
 30
0.0
 11
2.85943
 21
0.20395
 31
0.0
  0
LINE
  8
0
 62
     0
 10
2.85943
 20
0.20395
 30
0.0
 11
2.62516
 21
0.23151
 31
0.0
  0
LINE
  8
0
 62
     0
 10
2.62516
 20
0.23151
 30
0.0
 11
2.39503
 21
0.276986
 31
0.0
  0
LINE
  8
0
 62
     0
 10
2.39503
 20
0.276986
 30
0.0
 11
2.16765
 21
0.341753
 31
0.0
  0
LINE
  8
0
 62
     0
 10
2.16765
 20
0.341753
 30
0.0
 11
1.94717
 21
0.421679
 31
0.0
  0
LINE
  8
0
 62
     0
 10
1.94717
 20
0.421679
 30
0.0
 11
1.73357
 21
0.520898
 31
0.0
  0
LINE
  8
0
 62
     0
 10
1.73357
 20
0.520898
 30
0.0
 11
1.52687
 21
0.636655
 31
0.0
  0
LINE
  8
0
 62
     0
 10
1.52687
 20
0.636655
 30
0.0
 11
1.33119
 21
0.767567
 31
0.0
  0
LINE
  8
0
 62
     0
 10
1.33119
 20
0.767567
 30
0.0
 11
1.14653
 21
0.913638
 31
0.0
  0
LINE
  8
0
 62
     0
 10
1.14653
 20
0.913638
 30
0.0
 11
0.972894
 21
1.07349
 31
0.0
  0
LINE
  8
0
 62
     0
 10
0.972894
 20
1.07349
 30
0.0
 11
0.813043
 21
1.24575
 31
0.0
  0
LINE
  8
0
 62
     0
 10
0.813043
 20
1.24575
 30
0.0
 11
0.666972
 21
1.43178
 31
0.0
  0
LINE
  8
0
 62
     0
 10
0.666972
 20
1.43178
 30
0.0
 11
0.537436
 21
1.62746
 31
0.0
  0
LINE
  8
0
 62
     0
 10
0.537436
 20
1.62746
 30
0.0
 11
0.421679
 21
1.83279
 31
0.0
  0
LINE
  8
0
 62
     0
 10
0.421679
 20
1.83279
 30
0.0
 11
0.323839
 21
2.04639
 31
0.0
  0
LINE
  8
0
 62
     0
 10
0.323839
 20
2.04639
 30
0.0
 11
0.241157
 21
2.26687
 31
0.0
  0
LINE
  8
0
 62
     0
 10
0.241157
 20
2.26687
 30
0.0
 11
0.177767
 21
2.49425
 31
0.0
  0
LINE
  8
0
 62
     0
 10
0.177767
 20
2.49425
 30
0.0
 11
0.130914
 21
2.72576
 31
0.0
  0
LINE
  8
0
 62
     0
 10
0.130914
 20
2.72576
 30
0.0
 11
0.104731
 21
2.95865
 31
0.0
  0
LINE
  8
0
 62
     0
 10
0.104731
 20
2.95865
 30
0.0
 11
0.0950846
 21
3.19429
 31
0.0
  0
LINE
  8
0
 62
     0
 10
0.0950846
 20
3.19429
 30
0.0
 11
0.0950846
 21
105.208
 31
0.0
  0
LINE
  8
0
 62
     0
 10
0.0950846
 20
105.208
 30
0.0
 11
0.104731
 21
105.444
 31
0.0
  0
LINE
  8
0
 62
     0
 10
0.104731
 20
105.444
 30
0.0
 11
0.130914
 21
105.678
 31
0.0
  0
LINE
  8
0
 62
     0
 10
0.130914
 20
105.678
 30
0.0
 11
0.177767
 21
105.908
 31
0.0
  0
LINE
  8
0
 62
     0
 10
0.177767
 20
105.908
 30
0.0
 11
0.241157
 21
106.135
 31
0.0
  0
LINE
  8
0
 62
     0
 10
0.241157
 20
106.135
 30
0.0
 11
0.323839
 21
106.355
 31
0.0
  0
LINE
  8
0
 62
     0
 10
0.323839
 20
106.355
 30
0.0
 11
0.421679
 21
106.569
 31
0.0
  0
LINE
  8
0
 62
     0
 10
0.421679
 20
106.569
 30
0.0
 11
0.537436
 21
106.776
 31
0.0
  0
LINE
  8
0
 62
     0
 10
0.537436
 20
106.776
 30
0.0
 11
0.666972
 21
106.972
 31
0.0
  0
LINE
  8
0
 62
     0
 10
0.666972
 20
106.972
 30
0.0
 11
0.813043
 21
107.156
 31
0.0
  0
LINE
  8
0
 62
     0
 10
0.813043
 20
107.156
 30
0.0
 11
0.972894
 21
107.33
 31
0.0
  0
LINE
  8
0
 62
     0
 10
0.972894
 20
107.33
 30
0.0
 11
1.14653
 21
107.49
 31
0.0
  0
LINE
  8
0
 62
     0
 10
1.14653
 20
107.49
 30
0.0
 11
1.33119
 21
107.636
 31
0.0
  0
LINE
  8
0
 62
     0
 10
1.33119
 20
107.636
 30
0.0
 11
1.52687
 21
107.765
 31
0.0
  0
LINE
  8
0
 62
     0
 10
1.52687
 20
107.765
 30
0.0
 11
1.73357
 21
107.881
 31
0.0
  0
LINE
  8
0
 62
     0
 10
1.73357
 20
107.881
 30
0.0
 11
1.94717
 21
107.979
 31
0.0
  0
LINE
  8
0
 62
     0
 10
1.94717
 20
107.979
 30
0.0
 11
2.16765
 21
108.061
 31
0.0
  0
LINE
  8
0
 62
     0
 10
2.16765
 20
108.061
 30
0.0
 11
2.39503
 21
108.125
 31
0.0
  0
LINE
  8
0
 62
     0
 10
2.39503
 20
108.125
 30
0.0
 11
2.62516
 21
108.172
 31
0.0
  0
LINE
  8
0
 62
     0
 10
2.62516
 20
108.172
 30
0.0
 11
2.85943
 21
108.198
 31
0.0
  0
LINE
  8
0
 62
     0
 10
2.85943
 20
108.198
 30
0.0
 11
3.09507
 21
108.208
 31
0.0
  0
LINE
  8
0
 62
     0
 10
3.09507
 20
108.208
 30
0.0
 11
338.471
 21
108.208
 31
0.0
  0
LINE
  8
0
 62
     0
 10
320.945
 20
20.7202
 30
0.0
 11
320.945
 21
19.7197
 31
0.0
  0
LINE
  8
0
 62
     0
 10
320.945
 20
19.7197
 30
0.0
 11
320.146
 21
19.7197
 31
0.0
  0
LINE
  8
0
 62
     0
 10
320.146
 20
19.7197
 30
0.0
 11
320.146
 21
16.6205
 31
0.0
  0
LINE
  8
0
 62
     0
 10
320.146
 20
16.6205
 30
0.0
 11
320.945
 21
16.6205
 31
0.0
  0
LINE
  8
0
 62
     0
 10
320.945
 20
16.6205
 30
0.0
 11
320.945
 21
10.8204
 31
0.0
  0
LINE
  8
0
 62
     0
 10
320.945
 20
10.8204
 30
0.0
 11
320.146
 21
10.8204
 31
0.0
  0
LINE
  8
0
 62
     0
 10
320.146
 20
10.8204
 30
0.0
 11
320.146
 21
7.71977
 31
0.0
  0
LINE
  8
0
 62
     0
 10
320.146
 20
7.71977
 30
0.0
 11
320.945
 21
7.71977
 31
0.0
  0
LINE
  8
0
 62
     0
 10
320.945
 20
7.71977
 30
0.0
 11
320.945
 21
6.7207
 31
0.0
  0
LINE
  8
0
 62
     0
 10
320.945
 20
6.7207
 30
0.0
 11
334.946
 21
6.7207
 31
0.0
  0
LINE
  8
0
 62
     0
 10
334.946
 20
6.7207
 30
0.0
 11
334.946
 21
7.71977
 31
0.0
  0
LINE
  8
0
 62
     0
 10
334.946
 20
7.71977
 30
0.0
 11
335.745
 21
7.71977
 31
0.0
  0
LINE
  8
0
 62
     0
 10
335.745
 20
7.71977
 30
0.0
 11
335.745
 21
10.8204
 31
0.0
  0
LINE
  8
0
 62
     0
 10
335.745
 20
10.8204
 30
0.0
 11
334.946
 21
10.8204
 31
0.0
  0
LINE
  8
0
 62
     0
 10
334.946
 20
10.8204
 30
0.0
 11
334.946
 21
16.6205
 31
0.0
  0
LINE
  8
0
 62
     0
 10
334.946
 20
16.6205
 30
0.0
 11
335.745
 21
16.6205
 31
0.0
  0
LINE
  8
0
 62
     0
 10
335.745
 20
16.6205
 30
0.0
 11
335.745
 21
19.7197
 31
0.0
  0
LINE
  8
0
 62
     0
 10
335.745
 20
19.7197
 30
0.0
 11
334.946
 21
19.7197
 31
0.0
  0
LINE
  8
0
 62
     0
 10
334.946
 20
19.7197
 30
0.0
 11
334.946
 21
20.7202
 31
0.0
  0
LINE
  8
0
 62
     0
 10
334.946
 20
20.7202
 30
0.0
 11
320.945
 21
20.7202
 31
0.0
  0
LINE
  8
0
 62
     0
 10
301.895
 20
20.7202
 30
0.0
 11
301.895
 21
19.7197
 31
0.0
  0
LINE
  8
0
 62
     0
 10
301.895
 20
19.7197
 30
0.0
 11
301.096
 21
19.7197
 31
0.0
  0
LINE
  8
0
 62
     0
 10
301.096
 20
19.7197
 30
0.0
 11
301.096
 21
16.6205
 31
0.0
  0
LINE
  8
0
 62
     0
 10
301.096
 20
16.6205
 30
0.0
 11
301.895
 21
16.6205
 31
0.0
  0
LINE
  8
0
 62
     0
 10
301.895
 20
16.6205
 30
0.0
 11
301.895
 21
10.8204
 31
0.0
  0
LINE
  8
0
 62
     0
 10
301.895
 20
10.8204
 30
0.0
 11
301.096
 21
10.8204
 31
0.0
  0
LINE
  8
0
 62
     0
 10
301.096
 20
10.8204
 30
0.0
 11
301.096
 21
7.71977
 31
0.0
  0
LINE
  8
0
 62
     0
 10
301.096
 20
7.71977
 30
0.0
 11
301.895
 21
7.71977
 31
0.0
  0
LINE
  8
0
 62
     0
 10
301.895
 20
7.71977
 30
0.0
 11
301.895
 21
6.7207
 31
0.0
  0
LINE
  8
0
 62
     0
 10
301.895
 20
6.7207
 30
0.0
 11
315.896
 21
6.7207
 31
0.0
  0
LINE
  8
0
 62
     0
 10
315.896
 20
6.7207
 30
0.0
 11
315.896
 21
7.71977
 31
0.0
  0
LINE
  8
0
 62
     0
 10
315.896
 20
7.71977
 30
0.0
 11
316.695
 21
7.71977
 31
0.0
  0
LINE
  8
0
 62
     0
 10
316.695
 20
7.71977
 30
0.0
 11
316.695
 21
10.8204
 31
0.0
  0
LINE
  8
0
 62
     0
 10
316.695
 20
10.8204
 30
0.0
 11
315.896
 21
10.8204
 31
0.0
  0
LINE
  8
0
 62
     0
 10
315.896
 20
10.8204
 30
0.0
 11
315.896
 21
16.6205
 31
0.0
  0
LINE
  8
0
 62
     0
 10
315.896
 20
16.6205
 30
0.0
 11
316.695
 21
16.6205
 31
0.0
  0
LINE
  8
0
 62
     0
 10
316.695
 20
16.6205
 30
0.0
 11
316.695
 21
19.7197
 31
0.0
  0
LINE
  8
0
 62
     0
 10
316.695
 20
19.7197
 30
0.0
 11
315.896
 21
19.7197
 31
0.0
  0
LINE
  8
0
 62
     0
 10
315.896
 20
19.7197
 30
0.0
 11
315.896
 21
20.7202
 31
0.0
  0
LINE
  8
0
 62
     0
 10
315.896
 20
20.7202
 30
0.0
 11
301.895
 21
20.7202
 31
0.0
  0
LINE
  8
0
 62
     0
 10
282.845
 20
20.7202
 30
0.0
 11
282.845
 21
19.7197
 31
0.0
  0
LINE
  8
0
 62
     0
 10
282.845
 20
19.7197
 30
0.0
 11
282.046
 21
19.7197
 31
0.0
  0
LINE
  8
0
 62
     0
 10
282.046
 20
19.7197
 30
0.0
 11
282.046
 21
16.6205
 31
0.0
  0
LINE
  8
0
 62
     0
 10
282.046
 20
16.6205
 30
0.0
 11
282.845
 21
16.6205
 31
0.0
  0
LINE
  8
0
 62
     0
 10
282.845
 20
16.6205
 30
0.0
 11
282.845
 21
10.8204
 31
0.0
  0
LINE
  8
0
 62
     0
 10
282.845
 20
10.8204
 30
0.0
 11
282.046
 21
10.8204
 31
0.0
  0
LINE
  8
0
 62
     0
 10
282.046
 20
10.8204
 30
0.0
 11
282.046
 21
7.71977
 31
0.0
  0
LINE
  8
0
 62
     0
 10
282.046
 20
7.71977
 30
0.0
 11
282.845
 21
7.71977
 31
0.0
  0
LINE
  8
0
 62
     0
 10
282.845
 20
7.71977
 30
0.0
 11
282.845
 21
6.7207
 31
0.0
  0
LINE
  8
0
 62
     0
 10
282.845
 20
6.7207
 30
0.0
 11
296.846
 21
6.7207
 31
0.0
  0
LINE
  8
0
 62
     0
 10
296.846
 20
6.7207
 30
0.0
 11
296.846
 21
7.71977
 31
0.0
  0
LINE
  8
0
 62
     0
 10
296.846
 20
7.71977
 30
0.0
 11
297.645
 21
7.71977
 31
0.0
  0
LINE
  8
0
 62
     0
 10
297.645
 20
7.71977
 30
0.0
 11
297.645
 21
10.8204
 31
0.0
  0
LINE
  8
0
 62
     0
 10
297.645
 20
10.8204
 30
0.0
 11
296.846
 21
10.8204
 31
0.0
  0
LINE
  8
0
 62
     0
 10
296.846
 20
10.8204
 30
0.0
 11
296.846
 21
16.6205
 31
0.0
  0
LINE
  8
0
 62
     0
 10
296.846
 20
16.6205
 30
0.0
 11
297.645
 21
16.6205
 31
0.0
  0
LINE
  8
0
 62
     0
 10
297.645
 20
16.6205
 30
0.0
 11
297.645
 21
19.7197
 31
0.0
  0
LINE
  8
0
 62
     0
 10
297.645
 20
19.7197
 30
0.0
 11
296.846
 21
19.7197
 31
0.0
  0
LINE
  8
0
 62
     0
 10
296.846
 20
19.7197
 30
0.0
 11
296.846
 21
20.7202
 31
0.0
  0
LINE
  8
0
 62
     0
 10
296.846
 20
20.7202
 30
0.0
 11
282.845
 21
20.7202
 31
0.0
  0
LINE
  8
0
 62
     0
 10
151.876
 20
25.4827
 30
0.0
 11
151.876
 21
24.4822
 31
0.0
  0
LINE
  8
0
 62
     0
 10
151.876
 20
24.4822
 30
0.0
 11
151.077
 21
24.4822
 31
0.0
  0
LINE
  8
0
 62
     0
 10
151.077
 20
24.4822
 30
0.0
 11
151.077
 21
21.3817
 31
0.0
  0
LINE
  8
0
 62
     0
 10
151.077
 20
21.3817
 30
0.0
 11
151.876
 21
21.3817
 31
0.0
  0
LINE
  8
0
 62
     0
 10
151.876
 20
21.3817
 30
0.0
 11
151.876
 21
20.7822
 31
0.0
  0
LINE
  8
0
 62
     0
 10
151.876
 20
20.7822
 30
0.0
 11
112.251
 21
20.7822
 31
0.0
  0
LINE
  8
0
 62
     0
 10
112.251
 20
20.7822
 30
0.0
 11
112.251
 21
24.0123
 31
0.0
  0
LINE
  8
0
 62
     0
 10
112.251
 20
24.0123
 30
0.0
 11
105.501
 21
24.0123
 31
0.0
  0
LINE
  8
0
 62
     0
 10
105.501
 20
24.0123
 30
0.0
 11
105.501
 21
20.7822
 31
0.0
  0
LINE
  8
0
 62
     0
 10
105.501
 20
20.7822
 30
0.0
 11
104.677
 21
20.7822
 31
0.0
  0
LINE
  8
0
 62
     0
 10
104.677
 20
20.7822
 30
0.0
 11
104.677
 21
17.982
 31
0.0
  0
LINE
  8
0
 62
     0
 10
104.677
 20
17.982
 30
0.0
 11
105.501
 21
17.982
 31
0.0
  0
LINE
  8
0
 62
     0
 10
105.501
 20
17.982
 30
0.0
 11
105.501
 21
11.7119
 31
0.0
  0
LINE
  8
0
 62
     0
 10
105.501
 20
11.7119
 30
0.0
 11
107.226
 21
11.7119
 31
0.0
  0
LINE
  8
0
 62
     0
 10
107.226
 20
11.7119
 30
0.0
 11
107.226
 21
10.5117
 31
0.0
  0
LINE
  8
0
 62
     0
 10
107.226
 20
10.5117
 30
0.0
 11
110.527
 21
10.5117
 31
0.0
  0
LINE
  8
0
 62
     0
 10
110.527
 20
10.5117
 30
0.0
 11
110.527
 21
11.7119
 31
0.0
  0
LINE
  8
0
 62
     0
 10
110.527
 20
11.7119
 30
0.0
 11
112.251
 21
11.7119
 31
0.0
  0
LINE
  8
0
 62
     0
 10
112.251
 20
11.7119
 30
0.0
 11
112.251
 21
16.1823
 31
0.0
  0
LINE
  8
0
 62
     0
 10
112.251
 20
16.1823
 30
0.0
 11
151.876
 21
16.1823
 31
0.0
  0
LINE
  8
0
 62
     0
 10
151.876
 20
16.1823
 30
0.0
 11
151.876
 21
15.5829
 31
0.0
  0
LINE
  8
0
 62
     0
 10
151.876
 20
15.5829
 30
0.0
 11
151.077
 21
15.5829
 31
0.0
  0
LINE
  8
0
 62
     0
 10
151.077
 20
15.5829
 30
0.0
 11
151.077
 21
12.4823
 31
0.0
  0
LINE
  8
0
 62
     0
 10
151.077
 20
12.4823
 30
0.0
 11
151.876
 21
12.4823
 31
0.0
  0
LINE
  8
0
 62
     0
 10
151.876
 20
12.4823
 30
0.0
 11
151.876
 21
11.4818
 31
0.0
  0
LINE
  8
0
 62
     0
 10
151.876
 20
11.4818
 30
0.0
 11
165.876
 21
11.4818
 31
0.0
  0
LINE
  8
0
 62
     0
 10
165.876
 20
11.4818
 30
0.0
 11
165.876
 21
12.4823
 31
0.0
  0
LINE
  8
0
 62
     0
 10
165.876
 20
12.4823
 30
0.0
 11
166.677
 21
12.4823
 31
0.0
  0
LINE
  8
0
 62
     0
 10
166.677
 20
12.4823
 30
0.0
 11
166.677
 21
15.5829
 31
0.0
  0
LINE
  8
0
 62
     0
 10
166.677
 20
15.5829
 30
0.0
 11
165.876
 21
15.5829
 31
0.0
  0
LINE
  8
0
 62
     0
 10
165.876
 20
15.5829
 30
0.0
 11
165.876
 21
16.1823
 31
0.0
  0
LINE
  8
0
 62
     0
 10
165.876
 20
16.1823
 30
0.0
 11
205.501
 21
16.1823
 31
0.0
  0
LINE
  8
0
 62
     0
 10
205.501
 20
16.1823
 30
0.0
 11
205.501
 21
11.7119
 31
0.0
  0
LINE
  8
0
 62
     0
 10
205.501
 20
11.7119
 30
0.0
 11
207.227
 21
11.7119
 31
0.0
  0
LINE
  8
0
 62
     0
 10
207.227
 20
11.7119
 30
0.0
 11
207.227
 21
10.5117
 31
0.0
  0
LINE
  8
0
 62
     0
 10
207.227
 20
10.5117
 30
0.0
 11
210.527
 21
10.5117
 31
0.0
  0
LINE
  8
0
 62
     0
 10
210.527
 20
10.5117
 30
0.0
 11
210.527
 21
11.7119
 31
0.0
  0
LINE
  8
0
 62
     0
 10
210.527
 20
11.7119
 30
0.0
 11
212.251
 21
11.7119
 31
0.0
  0
LINE
  8
0
 62
     0
 10
212.251
 20
11.7119
 30
0.0
 11
212.251
 21
17.982
 31
0.0
  0
LINE
  8
0
 62
     0
 10
212.251
 20
17.982
 30
0.0
 11
213.076
 21
17.982
 31
0.0
  0
LINE
  8
0
 62
     0
 10
213.076
 20
17.982
 30
0.0
 11
213.076
 21
20.7822
 31
0.0
  0
LINE
  8
0
 62
     0
 10
213.076
 20
20.7822
 30
0.0
 11
212.251
 21
20.7822
 31
0.0
  0
LINE
  8
0
 62
     0
 10
212.251
 20
20.7822
 30
0.0
 11
212.251
 21
24.0123
 31
0.0
  0
LINE
  8
0
 62
     0
 10
212.251
 20
24.0123
 30
0.0
 11
205.501
 21
24.0123
 31
0.0
  0
LINE
  8
0
 62
     0
 10
205.501
 20
24.0123
 30
0.0
 11
205.501
 21
20.7822
 31
0.0
  0
LINE
  8
0
 62
     0
 10
205.501
 20
20.7822
 30
0.0
 11
165.876
 21
20.7822
 31
0.0
  0
LINE
  8
0
 62
     0
 10
165.876
 20
20.7822
 30
0.0
 11
165.876
 21
21.3817
 31
0.0
  0
LINE
  8
0
 62
     0
 10
165.876
 20
21.3817
 30
0.0
 11
166.677
 21
21.3817
 31
0.0
  0
LINE
  8
0
 62
     0
 10
166.677
 20
21.3817
 30
0.0
 11
166.677
 21
24.4822
 31
0.0
  0
LINE
  8
0
 62
     0
 10
166.677
 20
24.4822
 30
0.0
 11
165.876
 21
24.4822
 31
0.0
  0
LINE
  8
0
 62
     0
 10
165.876
 20
24.4822
 30
0.0
 11
165.876
 21
25.4827
 31
0.0
  0
LINE
  8
0
 62
     0
 10
165.876
 20
25.4827
 30
0.0
 11
151.876
 21
25.4827
 31
0.0
  0
LINE
  8
0
 62
     0
 10
259.033
 20
25.4827
 30
0.0
 11
259.033
 21
24.4822
 31
0.0
  0
LINE
  8
0
 62
     0
 10
259.033
 20
24.4822
 30
0.0
 11
258.232
 21
24.4822
 31
0.0
  0
LINE
  8
0
 62
     0
 10
258.232
 20
24.4822
 30
0.0
 11
258.232
 21
21.3817
 31
0.0
  0
LINE
  8
0
 62
     0
 10
258.232
 20
21.3817
 30
0.0
 11
259.033
 21
21.3817
 31
0.0
  0
LINE
  8
0
 62
     0
 10
259.033
 20
21.3817
 30
0.0
 11
259.033
 21
15.5829
 31
0.0
  0
LINE
  8
0
 62
     0
 10
259.033
 20
15.5829
 30
0.0
 11
258.232
 21
15.5829
 31
0.0
  0
LINE
  8
0
 62
     0
 10
258.232
 20
15.5829
 30
0.0
 11
258.232
 21
12.4823
 31
0.0
  0
LINE
  8
0
 62
     0
 10
258.232
 20
12.4823
 30
0.0
 11
259.033
 21
12.4823
 31
0.0
  0
LINE
  8
0
 62
     0
 10
259.033
 20
12.4823
 30
0.0
 11
259.033
 21
11.4818
 31
0.0
  0
LINE
  8
0
 62
     0
 10
259.033
 20
11.4818
 30
0.0
 11
273.032
 21
11.4818
 31
0.0
  0
LINE
  8
0
 62
     0
 10
273.032
 20
11.4818
 30
0.0
 11
273.032
 21
12.4823
 31
0.0
  0
LINE
  8
0
 62
     0
 10
273.032
 20
12.4823
 30
0.0
 11
273.833
 21
12.4823
 31
0.0
  0
LINE
  8
0
 62
     0
 10
273.833
 20
12.4823
 30
0.0
 11
273.833
 21
15.5829
 31
0.0
  0
LINE
  8
0
 62
     0
 10
273.833
 20
15.5829
 30
0.0
 11
273.032
 21
15.5829
 31
0.0
  0
LINE
  8
0
 62
     0
 10
273.032
 20
15.5829
 30
0.0
 11
273.032
 21
21.3817
 31
0.0
  0
LINE
  8
0
 62
     0
 10
273.032
 20
21.3817
 30
0.0
 11
273.833
 21
21.3817
 31
0.0
  0
LINE
  8
0
 62
     0
 10
273.833
 20
21.3817
 30
0.0
 11
273.833
 21
24.4822
 31
0.0
  0
LINE
  8
0
 62
     0
 10
273.833
 20
24.4822
 30
0.0
 11
273.032
 21
24.4822
 31
0.0
  0
LINE
  8
0
 62
     0
 10
273.032
 20
24.4822
 30
0.0
 11
273.032
 21
25.4827
 31
0.0
  0
LINE
  8
0
 62
     0
 10
273.032
 20
25.4827
 30
0.0
 11
259.033
 21
25.4827
 31
0.0
  0
LINE
  8
0
 62
     0
 10
239.983
 20
25.4827
 30
0.0
 11
239.983
 21
24.4822
 31
0.0
  0
LINE
  8
0
 62
     0
 10
239.983
 20
24.4822
 30
0.0
 11
239.182
 21
24.4822
 31
0.0
  0
LINE
  8
0
 62
     0
 10
239.182
 20
24.4822
 30
0.0
 11
239.182
 21
21.3817
 31
0.0
  0
LINE
  8
0
 62
     0
 10
239.182
 20
21.3817
 30
0.0
 11
239.983
 21
21.3817
 31
0.0
  0
LINE
  8
0
 62
     0
 10
239.983
 20
21.3817
 30
0.0
 11
239.983
 21
15.5829
 31
0.0
  0
LINE
  8
0
 62
     0
 10
239.983
 20
15.5829
 30
0.0
 11
239.182
 21
15.5829
 31
0.0
  0
LINE
  8
0
 62
     0
 10
239.182
 20
15.5829
 30
0.0
 11
239.182
 21
12.4823
 31
0.0
  0
LINE
  8
0
 62
     0
 10
239.182
 20
12.4823
 30
0.0
 11
239.983
 21
12.4823
 31
0.0
  0
LINE
  8
0
 62
     0
 10
239.983
 20
12.4823
 30
0.0
 11
239.983
 21
11.4818
 31
0.0
  0
LINE
  8
0
 62
     0
 10
239.983
 20
11.4818
 30
0.0
 11
253.982
 21
11.4818
 31
0.0
  0
LINE
  8
0
 62
     0
 10
253.982
 20
11.4818
 30
0.0
 11
253.982
 21
12.4823
 31
0.0
  0
LINE
  8
0
 62
     0
 10
253.982
 20
12.4823
 30
0.0
 11
254.783
 21
12.4823
 31
0.0
  0
LINE
  8
0
 62
     0
 10
254.783
 20
12.4823
 30
0.0
 11
254.783
 21
15.5829
 31
0.0
  0
LINE
  8
0
 62
     0
 10
254.783
 20
15.5829
 30
0.0
 11
253.982
 21
15.5829
 31
0.0
  0
LINE
  8
0
 62
     0
 10
253.982
 20
15.5829
 30
0.0
 11
253.982
 21
21.3817
 31
0.0
  0
LINE
  8
0
 62
     0
 10
253.982
 20
21.3817
 30
0.0
 11
254.783
 21
21.3817
 31
0.0
  0
LINE
  8
0
 62
     0
 10
254.783
 20
21.3817
 30
0.0
 11
254.783
 21
24.4822
 31
0.0
  0
LINE
  8
0
 62
     0
 10
254.783
 20
24.4822
 30
0.0
 11
253.982
 21
24.4822
 31
0.0
  0
LINE
  8
0
 62
     0
 10
253.982
 20
24.4822
 30
0.0
 11
253.982
 21
25.4827
 31
0.0
  0
LINE
  8
0
 62
     0
 10
253.982
 20
25.4827
 30
0.0
 11
239.983
 21
25.4827
 31
0.0
  0
LINE
  8
0
 62
     0
 10
220.933
 20
25.4827
 30
0.0
 11
220.933
 21
24.4822
 31
0.0
  0
LINE
  8
0
 62
     0
 10
220.933
 20
24.4822
 30
0.0
 11
220.132
 21
24.4822
 31
0.0
  0
LINE
  8
0
 62
     0
 10
220.132
 20
24.4822
 30
0.0
 11
220.132
 21
21.3817
 31
0.0
  0
LINE
  8
0
 62
     0
 10
220.132
 20
21.3817
 30
0.0
 11
220.933
 21
21.3817
 31
0.0
  0
LINE
  8
0
 62
     0
 10
220.933
 20
21.3817
 30
0.0
 11
220.933
 21
15.5829
 31
0.0
  0
LINE
  8
0
 62
     0
 10
220.933
 20
15.5829
 30
0.0
 11
220.132
 21
15.5829
 31
0.0
  0
LINE
  8
0
 62
     0
 10
220.132
 20
15.5829
 30
0.0
 11
220.132
 21
12.4823
 31
0.0
  0
LINE
  8
0
 62
     0
 10
220.132
 20
12.4823
 30
0.0
 11
220.933
 21
12.4823
 31
0.0
  0
LINE
  8
0
 62
     0
 10
220.933
 20
12.4823
 30
0.0
 11
220.933
 21
11.4818
 31
0.0
  0
LINE
  8
0
 62
     0
 10
220.933
 20
11.4818
 30
0.0
 11
234.932
 21
11.4818
 31
0.0
  0
LINE
  8
0
 62
     0
 10
234.932
 20
11.4818
 30
0.0
 11
234.932
 21
12.4823
 31
0.0
  0
LINE
  8
0
 62
     0
 10
234.932
 20
12.4823
 30
0.0
 11
235.733
 21
12.4823
 31
0.0
  0
LINE
  8
0
 62
     0
 10
235.733
 20
12.4823
 30
0.0
 11
235.733
 21
15.5829
 31
0.0
  0
LINE
  8
0
 62
     0
 10
235.733
 20
15.5829
 30
0.0
 11
234.932
 21
15.5829
 31
0.0
  0
LINE
  8
0
 62
     0
 10
234.932
 20
15.5829
 30
0.0
 11
234.932
 21
21.3817
 31
0.0
  0
LINE
  8
0
 62
     0
 10
234.932
 20
21.3817
 30
0.0
 11
235.733
 21
21.3817
 31
0.0
  0
LINE
  8
0
 62
     0
 10
235.733
 20
21.3817
 30
0.0
 11
235.733
 21
24.4822
 31
0.0
  0
LINE
  8
0
 62
     0
 10
235.733
 20
24.4822
 30
0.0
 11
234.932
 21
24.4822
 31
0.0
  0
LINE
  8
0
 62
     0
 10
234.932
 20
24.4822
 30
0.0
 11
234.932
 21
25.4827
 31
0.0
  0
LINE
  8
0
 62
     0
 10
234.932
 20
25.4827
 30
0.0
 11
220.933
 21
25.4827
 31
0.0
  0
LINE
  8
0
 62
     0
 10
80.439
 20
25.4827
 30
0.0
 11
80.439
 21
24.4822
 31
0.0
  0
LINE
  8
0
 62
     0
 10
80.439
 20
24.4822
 30
0.0
 11
79.6382
 21
24.4822
 31
0.0
  0
LINE
  8
0
 62
     0
 10
79.6382
 20
24.4822
 30
0.0
 11
79.6382
 21
21.3817
 31
0.0
  0
LINE
  8
0
 62
     0
 10
79.6382
 20
21.3817
 30
0.0
 11
80.439
 21
21.3817
 31
0.0
  0
LINE
  8
0
 62
     0
 10
80.439
 20
21.3817
 30
0.0
 11
80.439
 21
15.5829
 31
0.0
  0
LINE
  8
0
 62
     0
 10
80.439
 20
15.5829
 30
0.0
 11
79.6382
 21
15.5829
 31
0.0
  0
LINE
  8
0
 62
     0
 10
79.6382
 20
15.5829
 30
0.0
 11
79.6382
 21
12.4823
 31
0.0
  0
LINE
  8
0
 62
     0
 10
79.6382
 20
12.4823
 30
0.0
 11
80.439
 21
12.4823
 31
0.0
  0
LINE
  8
0
 62
     0
 10
80.439
 20
12.4823
 30
0.0
 11
80.439
 21
11.4818
 31
0.0
  0
LINE
  8
0
 62
     0
 10
80.439
 20
11.4818
 30
0.0
 11
94.4383
 21
11.4818
 31
0.0
  0
LINE
  8
0
 62
     0
 10
94.4383
 20
11.4818
 30
0.0
 11
94.4383
 21
12.4823
 31
0.0
  0
LINE
  8
0
 62
     0
 10
94.4383
 20
12.4823
 30
0.0
 11
95.2391
 21
12.4823
 31
0.0
  0
LINE
  8
0
 62
     0
 10
95.2391
 20
12.4823
 30
0.0
 11
95.2391
 21
15.5829
 31
0.0
  0
LINE
  8
0
 62
     0
 10
95.2391
 20
15.5829
 30
0.0
 11
94.4383
 21
15.5829
 31
0.0
  0
LINE
  8
0
 62
     0
 10
94.4383
 20
15.5829
 30
0.0
 11
94.4383
 21
21.3817
 31
0.0
  0
LINE
  8
0
 62
     0
 10
94.4383
 20
21.3817
 30
0.0
 11
95.2391
 21
21.3817
 31
0.0
  0
LINE
  8
0
 62
     0
 10
95.2391
 20
21.3817
 30
0.0
 11
95.2391
 21
24.4822
 31
0.0
  0
LINE
  8
0
 62
     0
 10
95.2391
 20
24.4822
 30
0.0
 11
94.4383
 21
24.4822
 31
0.0
  0
LINE
  8
0
 62
     0
 10
94.4383
 20
24.4822
 30
0.0
 11
94.4383
 21
25.4827
 31
0.0
  0
LINE
  8
0
 62
     0
 10
94.4383
 20
25.4827
 30
0.0
 11
80.439
 21
25.4827
 31
0.0
  0
LINE
  8
0
 62
     0
 10
32.8138
 20
25.4827
 30
0.0
 11
32.8138
 21
24.4822
 31
0.0
  0
LINE
  8
0
 62
     0
 10
32.8138
 20
24.4822
 30
0.0
 11
32.0132
 21
24.4822
 31
0.0
  0
LINE
  8
0
 62
     0
 10
32.0132
 20
24.4822
 30
0.0
 11
32.0132
 21
21.3817
 31
0.0
  0
LINE
  8
0
 62
     0
 10
32.0132
 20
21.3817
 30
0.0
 11
32.8138
 21
21.3817
 31
0.0
  0
LINE
  8
0
 62
     0
 10
32.8138
 20
21.3817
 30
0.0
 11
32.8138
 21
15.5829
 31
0.0
  0
LINE
  8
0
 62
     0
 10
32.8138
 20
15.5829
 30
0.0
 11
32.0132
 21
15.5829
 31
0.0
  0
LINE
  8
0
 62
     0
 10
32.0132
 20
15.5829
 30
0.0
 11
32.0132
 21
12.4823
 31
0.0
  0
LINE
  8
0
 62
     0
 10
32.0132
 20
12.4823
 30
0.0
 11
32.8138
 21
12.4823
 31
0.0
  0
LINE
  8
0
 62
     0
 10
32.8138
 20
12.4823
 30
0.0
 11
32.8138
 21
11.4818
 31
0.0
  0
LINE
  8
0
 62
     0
 10
32.8138
 20
11.4818
 30
0.0
 11
46.8133
 21
11.4818
 31
0.0
  0
LINE
  8
0
 62
     0
 10
46.8133
 20
11.4818
 30
0.0
 11
46.8133
 21
12.4823
 31
0.0
  0
LINE
  8
0
 62
     0
 10
46.8133
 20
12.4823
 30
0.0
 11
47.6141
 21
12.4823
 31
0.0
  0
LINE
  8
0
 62
     0
 10
47.6141
 20
12.4823
 30
0.0
 11
47.6141
 21
15.5829
 31
0.0
  0
LINE
  8
0
 62
     0
 10
47.6141
 20
15.5829
 30
0.0
 11
46.8133
 21
15.5829
 31
0.0
  0
LINE
  8
0
 62
     0
 10
46.8133
 20
15.5829
 30
0.0
 11
46.8133
 21
21.3817
 31
0.0
  0
LINE
  8
0
 62
     0
 10
46.8133
 20
21.3817
 30
0.0
 11
47.6141
 21
21.3817
 31
0.0
  0
LINE
  8
0
 62
     0
 10
47.6141
 20
21.3817
 30
0.0
 11
47.6141
 21
24.4822
 31
0.0
  0
LINE
  8
0
 62
     0
 10
47.6141
 20
24.4822
 30
0.0
 11
46.8133
 21
24.4822
 31
0.0
  0
LINE
  8
0
 62
     0
 10
46.8133
 20
24.4822
 30
0.0
 11
46.8133
 21
25.4827
 31
0.0
  0
LINE
  8
0
 62
     0
 10
46.8133
 20
25.4827
 30
0.0
 11
32.8138
 21
25.4827
 31
0.0
  0
LINE
  8
0
 62
     0
 10
6.62009
 20
25.4827
 30
0.0
 11
6.62009
 21
24.4822
 31
0.0
  0
LINE
  8
0
 62
     0
 10
6.62009
 20
24.4822
 30
0.0
 11
5.81946
 21
24.4822
 31
0.0
  0
LINE
  8
0
 62
     0
 10
5.81946
 20
24.4822
 30
0.0
 11
5.81946
 21
21.3817
 31
0.0
  0
LINE
  8
0
 62
     0
 10
5.81946
 20
21.3817
 30
0.0
 11
6.62009
 21
21.3817
 31
0.0
  0
LINE
  8
0
 62
     0
 10
6.62009
 20
21.3817
 30
0.0
 11
6.62009
 21
15.5829
 31
0.0
  0
LINE
  8
0
 62
     0
 10
6.62009
 20
15.5829
 30
0.0
 11
5.81946
 21
15.5829
 31
0.0
  0
LINE
  8
0
 62
     0
 10
5.81946
 20
15.5829
 30
0.0
 11
5.81946
 21
12.4823
 31
0.0
  0
LINE
  8
0
 62
     0
 10
5.81946
 20
12.4823
 30
0.0
 11
6.62009
 21
12.4823
 31
0.0
  0
LINE
  8
0
 62
     0
 10
6.62009
 20
12.4823
 30
0.0
 11
6.62009
 21
11.4818
 31
0.0
  0
LINE
  8
0
 62
     0
 10
6.62009
 20
11.4818
 30
0.0
 11
20.621
 21
11.4818
 31
0.0
  0
LINE
  8
0
 62
     0
 10
20.621
 20
11.4818
 30
0.0
 11
20.621
 21
12.4823
 31
0.0
  0
LINE
  8
0
 62
     0
 10
20.621
 20
12.4823
 30
0.0
 11
21.4202
 21
12.4823
 31
0.0
  0
LINE
  8
0
 62
     0
 10
21.4202
 20
12.4823
 30
0.0
 11
21.4202
 21
15.5829
 31
0.0
  0
LINE
  8
0
 62
     0
 10
21.4202
 20
15.5829
 30
0.0
 11
20.621
 21
15.5829
 31
0.0
  0
LINE
  8
0
 62
     0
 10
20.621
 20
15.5829
 30
0.0
 11
20.621
 21
21.3817
 31
0.0
  0
LINE
  8
0
 62
     0
 10
20.621
 20
21.3817
 30
0.0
 11
21.4202
 21
21.3817
 31
0.0
  0
LINE
  8
0
 62
     0
 10
21.4202
 20
21.3817
 30
0.0
 11
21.4202
 21
24.4822
 31
0.0
  0
LINE
  8
0
 62
     0
 10
21.4202
 20
24.4822
 30
0.0
 11
20.621
 21
24.4822
 31
0.0
  0
LINE
  8
0
 62
     0
 10
20.621
 20
24.4822
 30
0.0
 11
20.621
 21
25.4827
 31
0.0
  0
LINE
  8
0
 62
     0
 10
20.621
 20
25.4827
 30
0.0
 11
6.62009
 21
25.4827
 31
0.0
  0
LINE
  8
0
 62
     0
 10
320.945
 20
39.7701
 30
0.0
 11
320.945
 21
38.7696
 31
0.0
  0
LINE
  8
0
 62
     0
 10
320.945
 20
38.7696
 30
0.0
 11
320.146
 21
38.7696
 31
0.0
  0
LINE
  8
0
 62
     0
 10
320.146
 20
38.7696
 30
0.0
 11
320.146
 21
35.6704
 31
0.0
  0
LINE
  8
0
 62
     0
 10
320.146
 20
35.6704
 30
0.0
 11
320.945
 21
35.6704
 31
0.0
  0
LINE
  8
0
 62
     0
 10
320.945
 20
35.6704
 30
0.0
 11
320.945
 21
29.8704
 31
0.0
  0
LINE
  8
0
 62
     0
 10
320.945
 20
29.8704
 30
0.0
 11
320.146
 21
29.8704
 31
0.0
  0
LINE
  8
0
 62
     0
 10
320.146
 20
29.8704
 30
0.0
 11
320.146
 21
26.7698
 31
0.0
  0
LINE
  8
0
 62
     0
 10
320.146
 20
26.7698
 30
0.0
 11
320.945
 21
26.7698
 31
0.0
  0
LINE
  8
0
 62
     0
 10
320.945
 20
26.7698
 30
0.0
 11
320.945
 21
25.7707
 31
0.0
  0
LINE
  8
0
 62
     0
 10
320.945
 20
25.7707
 30
0.0
 11
334.946
 21
25.7707
 31
0.0
  0
LINE
  8
0
 62
     0
 10
334.946
 20
25.7707
 30
0.0
 11
334.946
 21
26.7698
 31
0.0
  0
LINE
  8
0
 62
     0
 10
334.946
 20
26.7698
 30
0.0
 11
335.745
 21
26.7698
 31
0.0
  0
LINE
  8
0
 62
     0
 10
335.745
 20
26.7698
 30
0.0
 11
335.745
 21
29.8704
 31
0.0
  0
LINE
  8
0
 62
     0
 10
335.745
 20
29.8704
 30
0.0
 11
334.946
 21
29.8704
 31
0.0
  0
LINE
  8
0
 62
     0
 10
334.946
 20
29.8704
 30
0.0
 11
334.946
 21
35.6704
 31
0.0
  0
LINE
  8
0
 62
     0
 10
334.946
 20
35.6704
 30
0.0
 11
335.745
 21
35.6704
 31
0.0
  0
LINE
  8
0
 62
     0
 10
335.745
 20
35.6704
 30
0.0
 11
335.745
 21
38.7696
 31
0.0
  0
LINE
  8
0
 62
     0
 10
335.745
 20
38.7696
 30
0.0
 11
334.946
 21
38.7696
 31
0.0
  0
LINE
  8
0
 62
     0
 10
334.946
 20
38.7696
 30
0.0
 11
334.946
 21
39.7701
 31
0.0
  0
LINE
  8
0
 62
     0
 10
334.946
 20
39.7701
 30
0.0
 11
320.945
 21
39.7701
 31
0.0
  0
LINE
  8
0
 62
     0
 10
301.895
 20
39.7701
 30
0.0
 11
301.895
 21
38.7696
 31
0.0
  0
LINE
  8
0
 62
     0
 10
301.895
 20
38.7696
 30
0.0
 11
301.096
 21
38.7696
 31
0.0
  0
LINE
  8
0
 62
     0
 10
301.096
 20
38.7696
 30
0.0
 11
301.096
 21
35.6704
 31
0.0
  0
LINE
  8
0
 62
     0
 10
301.096
 20
35.6704
 30
0.0
 11
301.895
 21
35.6704
 31
0.0
  0
LINE
  8
0
 62
     0
 10
301.895
 20
35.6704
 30
0.0
 11
301.895
 21
29.8704
 31
0.0
  0
LINE
  8
0
 62
     0
 10
301.895
 20
29.8704
 30
0.0
 11
301.096
 21
29.8704
 31
0.0
  0
LINE
  8
0
 62
     0
 10
301.096
 20
29.8704
 30
0.0
 11
301.096
 21
26.7698
 31
0.0
  0
LINE
  8
0
 62
     0
 10
301.096
 20
26.7698
 30
0.0
 11
301.895
 21
26.7698
 31
0.0
  0
LINE
  8
0
 62
     0
 10
301.895
 20
26.7698
 30
0.0
 11
301.895
 21
25.7707
 31
0.0
  0
LINE
  8
0
 62
     0
 10
301.895
 20
25.7707
 30
0.0
 11
315.896
 21
25.7707
 31
0.0
  0
LINE
  8
0
 62
     0
 10
315.896
 20
25.7707
 30
0.0
 11
315.896
 21
26.7698
 31
0.0
  0
LINE
  8
0
 62
     0
 10
315.896
 20
26.7698
 30
0.0
 11
316.695
 21
26.7698
 31
0.0
  0
LINE
  8
0
 62
     0
 10
316.695
 20
26.7698
 30
0.0
 11
316.695
 21
29.8704
 31
0.0
  0
LINE
  8
0
 62
     0
 10
316.695
 20
29.8704
 30
0.0
 11
315.896
 21
29.8704
 31
0.0
  0
LINE
  8
0
 62
     0
 10
315.896
 20
29.8704
 30
0.0
 11
315.896
 21
35.6704
 31
0.0
  0
LINE
  8
0
 62
     0
 10
315.896
 20
35.6704
 30
0.0
 11
316.695
 21
35.6704
 31
0.0
  0
LINE
  8
0
 62
     0
 10
316.695
 20
35.6704
 30
0.0
 11
316.695
 21
38.7696
 31
0.0
  0
LINE
  8
0
 62
     0
 10
316.695
 20
38.7696
 30
0.0
 11
315.896
 21
38.7696
 31
0.0
  0
LINE
  8
0
 62
     0
 10
315.896
 20
38.7696
 30
0.0
 11
315.896
 21
39.7701
 31
0.0
  0
LINE
  8
0
 62
     0
 10
315.896
 20
39.7701
 30
0.0
 11
301.895
 21
39.7701
 31
0.0
  0
LINE
  8
0
 62
     0
 10
42.339
 20
44.5326
 30
0.0
 11
42.339
 21
43.5321
 31
0.0
  0
LINE
  8
0
 62
     0
 10
42.339
 20
43.5321
 30
0.0
 11
41.5382
 21
43.5321
 31
0.0
  0
LINE
  8
0
 62
     0
 10
41.5382
 20
43.5321
 30
0.0
 11
41.5382
 21
40.4315
 31
0.0
  0
LINE
  8
0
 62
     0
 10
41.5382
 20
40.4315
 30
0.0
 11
42.339
 21
40.4315
 31
0.0
  0
LINE
  8
0
 62
     0
 10
42.339
 20
40.4315
 30
0.0
 11
42.339
 21
39.8321
 31
0.0
  0
LINE
  8
0
 62
     0
 10
42.339
 20
39.8321
 30
0.0
 11
40.8132
 21
39.8321
 31
0.0
  0
LINE
  8
0
 62
     0
 10
40.8132
 20
39.8321
 30
0.0
 11
40.8132
 21
43.0622
 31
0.0
  0
LINE
  8
0
 62
     0
 10
40.8132
 20
43.0622
 30
0.0
 11
34.0637
 21
43.0622
 31
0.0
  0
LINE
  8
0
 62
     0
 10
34.0637
 20
43.0622
 30
0.0
 11
34.0637
 21
39.8321
 31
0.0
  0
LINE
  8
0
 62
     0
 10
34.0637
 20
39.8321
 30
0.0
 11
33.2383
 21
39.8321
 31
0.0
  0
LINE
  8
0
 62
     0
 10
33.2383
 20
39.8321
 30
0.0
 11
33.2383
 21
37.0321
 31
0.0
  0
LINE
  8
0
 62
     0
 10
33.2383
 20
37.0321
 30
0.0
 11
34.0637
 21
37.0321
 31
0.0
  0
LINE
  8
0
 62
     0
 10
34.0637
 20
37.0321
 30
0.0
 11
34.0637
 21
30.7619
 31
0.0
  0
LINE
  8
0
 62
     0
 10
34.0637
 20
30.7619
 30
0.0
 11
35.789
 21
30.7619
 31
0.0
  0
LINE
  8
0
 62
     0
 10
35.789
 20
30.7619
 30
0.0
 11
35.789
 21
29.5617
 31
0.0
  0
LINE
  8
0
 62
     0
 10
35.789
 20
29.5617
 30
0.0
 11
39.0881
 21
29.5617
 31
0.0
  0
LINE
  8
0
 62
     0
 10
39.0881
 20
29.5617
 30
0.0
 11
39.0881
 21
30.7619
 31
0.0
  0
LINE
  8
0
 62
     0
 10
39.0881
 20
30.7619
 30
0.0
 11
40.8132
 21
30.7619
 31
0.0
  0
LINE
  8
0
 62
     0
 10
40.8132
 20
30.7619
 30
0.0
 11
40.8132
 21
35.2323
 31
0.0
  0
LINE
  8
0
 62
     0
 10
40.8132
 20
35.2323
 30
0.0
 11
42.339
 21
35.2323
 31
0.0
  0
LINE
  8
0
 62
     0
 10
42.339
 20
35.2323
 30
0.0
 11
42.339
 21
34.6329
 31
0.0
  0
LINE
  8
0
 62
     0
 10
42.339
 20
34.6329
 30
0.0
 11
41.5382
 21
34.6329
 31
0.0
  0
LINE
  8
0
 62
     0
 10
41.5382
 20
34.6329
 30
0.0
 11
41.5382
 21
31.5323
 31
0.0
  0
LINE
  8
0
 62
     0
 10
41.5382
 20
31.5323
 30
0.0
 11
42.339
 21
31.5323
 31
0.0
  0
LINE
  8
0
 62
     0
 10
42.339
 20
31.5323
 30
0.0
 11
42.339
 21
30.5318
 31
0.0
  0
LINE
  8
0
 62
     0
 10
42.339
 20
30.5318
 30
0.0
 11
56.3383
 21
30.5318
 31
0.0
  0
LINE
  8
0
 62
     0
 10
56.3383
 20
30.5318
 30
0.0
 11
56.3383
 21
31.5323
 31
0.0
  0
LINE
  8
0
 62
     0
 10
56.3383
 20
31.5323
 30
0.0
 11
57.1391
 21
31.5323
 31
0.0
  0
LINE
  8
0
 62
     0
 10
57.1391
 20
31.5323
 30
0.0
 11
57.1391
 21
34.6329
 31
0.0
  0
LINE
  8
0
 62
     0
 10
57.1391
 20
34.6329
 30
0.0
 11
56.3383
 21
34.6329
 31
0.0
  0
LINE
  8
0
 62
     0
 10
56.3383
 20
34.6329
 30
0.0
 11
56.3383
 21
35.2323
 31
0.0
  0
LINE
  8
0
 62
     0
 10
56.3383
 20
35.2323
 30
0.0
 11
57.8637
 21
35.2323
 31
0.0
  0
LINE
  8
0
 62
     0
 10
57.8637
 20
35.2323
 30
0.0
 11
57.8637
 21
30.7619
 31
0.0
  0
LINE
  8
0
 62
     0
 10
57.8637
 20
30.7619
 30
0.0
 11
59.5877
 21
30.7619
 31
0.0
  0
LINE
  8
0
 62
     0
 10
59.5877
 20
30.7619
 30
0.0
 11
59.5877
 21
29.5617
 31
0.0
  0
LINE
  8
0
 62
     0
 10
59.5877
 20
29.5617
 30
0.0
 11
62.8883
 21
29.5617
 31
0.0
  0
LINE
  8
0
 62
     0
 10
62.8883
 20
29.5617
 30
0.0
 11
62.8883
 21
30.7619
 31
0.0
  0
LINE
  8
0
 62
     0
 10
62.8883
 20
30.7619
 30
0.0
 11
64.6134
 21
30.7619
 31
0.0
  0
LINE
  8
0
 62
     0
 10
64.6134
 20
30.7619
 30
0.0
 11
64.6134
 21
37.0321
 31
0.0
  0
LINE
  8
0
 62
     0
 10
64.6134
 20
37.0321
 30
0.0
 11
65.4389
 21
37.0321
 31
0.0
  0
LINE
  8
0
 62
     0
 10
65.4389
 20
37.0321
 30
0.0
 11
65.4389
 21
39.8321
 31
0.0
  0
LINE
  8
0
 62
     0
 10
65.4389
 20
39.8321
 30
0.0
 11
64.6134
 21
39.8321
 31
0.0
  0
LINE
  8
0
 62
     0
 10
64.6134
 20
39.8321
 30
0.0
 11
64.6134
 21
43.0622
 31
0.0
  0
LINE
  8
0
 62
     0
 10
64.6134
 20
43.0622
 30
0.0
 11
57.8637
 21
43.0622
 31
0.0
  0
LINE
  8
0
 62
     0
 10
57.8637
 20
43.0622
 30
0.0
 11
57.8637
 21
39.8321
 31
0.0
  0
LINE
  8
0
 62
     0
 10
57.8637
 20
39.8321
 30
0.0
 11
56.3383
 21
39.8321
 31
0.0
  0
LINE
  8
0
 62
     0
 10
56.3383
 20
39.8321
 30
0.0
 11
56.3383
 21
40.4315
 31
0.0
  0
LINE
  8
0
 62
     0
 10
56.3383
 20
40.4315
 30
0.0
 11
57.1391
 21
40.4315
 31
0.0
  0
LINE
  8
0
 62
     0
 10
57.1391
 20
40.4315
 30
0.0
 11
57.1391
 21
43.5321
 31
0.0
  0
LINE
  8
0
 62
     0
 10
57.1391
 20
43.5321
 30
0.0
 11
56.3383
 21
43.5321
 31
0.0
  0
LINE
  8
0
 62
     0
 10
56.3383
 20
43.5321
 30
0.0
 11
56.3383
 21
44.5326
 31
0.0
  0
LINE
  8
0
 62
     0
 10
56.3383
 20
44.5326
 30
0.0
 11
42.339
 21
44.5326
 31
0.0
  0
LINE
  8
0
 62
     0
 10
270.939
 20
44.5326
 30
0.0
 11
270.939
 21
43.5321
 31
0.0
  0
LINE
  8
0
 62
     0
 10
270.939
 20
43.5321
 30
0.0
 11
270.138
 21
43.5321
 31
0.0
  0
LINE
  8
0
 62
     0
 10
270.138
 20
43.5321
 30
0.0
 11
270.138
 21
40.4315
 31
0.0
  0
LINE
  8
0
 62
     0
 10
270.138
 20
40.4315
 30
0.0
 11
270.939
 21
40.4315
 31
0.0
  0
LINE
  8
0
 62
     0
 10
270.939
 20
40.4315
 30
0.0
 11
270.939
 21
34.6329
 31
0.0
  0
LINE
  8
0
 62
     0
 10
270.939
 20
34.6329
 30
0.0
 11
270.138
 21
34.6329
 31
0.0
  0
LINE
  8
0
 62
     0
 10
270.138
 20
34.6329
 30
0.0
 11
270.138
 21
31.5323
 31
0.0
  0
LINE
  8
0
 62
     0
 10
270.138
 20
31.5323
 30
0.0
 11
270.939
 21
31.5323
 31
0.0
  0
LINE
  8
0
 62
     0
 10
270.939
 20
31.5323
 30
0.0
 11
270.939
 21
30.5318
 31
0.0
  0
LINE
  8
0
 62
     0
 10
270.939
 20
30.5318
 30
0.0
 11
284.938
 21
30.5318
 31
0.0
  0
LINE
  8
0
 62
     0
 10
284.938
 20
30.5318
 30
0.0
 11
284.938
 21
31.5323
 31
0.0
  0
LINE
  8
0
 62
     0
 10
284.938
 20
31.5323
 30
0.0
 11
285.739
 21
31.5323
 31
0.0
  0
LINE
  8
0
 62
     0
 10
285.739
 20
31.5323
 30
0.0
 11
285.739
 21
34.6329
 31
0.0
  0
LINE
  8
0
 62
     0
 10
285.739
 20
34.6329
 30
0.0
 11
284.938
 21
34.6329
 31
0.0
  0
LINE
  8
0
 62
     0
 10
284.938
 20
34.6329
 30
0.0
 11
284.938
 21
40.4315
 31
0.0
  0
LINE
  8
0
 62
     0
 10
284.938
 20
40.4315
 30
0.0
 11
285.739
 21
40.4315
 31
0.0
  0
LINE
  8
0
 62
     0
 10
285.739
 20
40.4315
 30
0.0
 11
285.739
 21
43.5321
 31
0.0
  0
LINE
  8
0
 62
     0
 10
285.739
 20
43.5321
 30
0.0
 11
284.938
 21
43.5321
 31
0.0
  0
LINE
  8
0
 62
     0
 10
284.938
 20
43.5321
 30
0.0
 11
284.938
 21
44.5326
 31
0.0
  0
LINE
  8
0
 62
     0
 10
284.938
 20
44.5326
 30
0.0
 11
270.939
 21
44.5326
 31
0.0
  0
LINE
  8
0
 62
     0
 10
244.745
 20
44.5326
 30
0.0
 11
244.745
 21
43.5321
 31
0.0
  0
LINE
  8
0
 62
     0
 10
244.745
 20
43.5321
 30
0.0
 11
243.946
 21
43.5321
 31
0.0
  0
LINE
  8
0
 62
     0
 10
243.946
 20
43.5321
 30
0.0
 11
243.946
 21
40.4315
 31
0.0
  0
LINE
  8
0
 62
     0
 10
243.946
 20
40.4315
 30
0.0
 11
244.745
 21
40.4315
 31
0.0
  0
LINE
  8
0
 62
     0
 10
244.745
 20
40.4315
 30
0.0
 11
244.745
 21
34.6329
 31
0.0
  0
LINE
  8
0
 62
     0
 10
244.745
 20
34.6329
 30
0.0
 11
243.946
 21
34.6329
 31
0.0
  0
LINE
  8
0
 62
     0
 10
243.946
 20
34.6329
 30
0.0
 11
243.946
 21
31.5323
 31
0.0
  0
LINE
  8
0
 62
     0
 10
243.946
 20
31.5323
 30
0.0
 11
244.745
 21
31.5323
 31
0.0
  0
LINE
  8
0
 62
     0
 10
244.745
 20
31.5323
 30
0.0
 11
244.745
 21
30.5318
 31
0.0
  0
LINE
  8
0
 62
     0
 10
244.745
 20
30.5318
 30
0.0
 11
258.746
 21
30.5318
 31
0.0
  0
LINE
  8
0
 62
     0
 10
258.746
 20
30.5318
 30
0.0
 11
258.746
 21
31.5323
 31
0.0
  0
LINE
  8
0
 62
     0
 10
258.746
 20
31.5323
 30
0.0
 11
259.545
 21
31.5323
 31
0.0
  0
LINE
  8
0
 62
     0
 10
259.545
 20
31.5323
 30
0.0
 11
259.545
 21
34.6329
 31
0.0
  0
LINE
  8
0
 62
     0
 10
259.545
 20
34.6329
 30
0.0
 11
258.746
 21
34.6329
 31
0.0
  0
LINE
  8
0
 62
     0
 10
258.746
 20
34.6329
 30
0.0
 11
258.746
 21
40.4315
 31
0.0
  0
LINE
  8
0
 62
     0
 10
258.746
 20
40.4315
 30
0.0
 11
259.545
 21
40.4315
 31
0.0
  0
LINE
  8
0
 62
     0
 10
259.545
 20
40.4315
 30
0.0
 11
259.545
 21
43.5321
 31
0.0
  0
LINE
  8
0
 62
     0
 10
259.545
 20
43.5321
 30
0.0
 11
258.746
 21
43.5321
 31
0.0
  0
LINE
  8
0
 62
     0
 10
258.746
 20
43.5321
 30
0.0
 11
258.746
 21
44.5326
 31
0.0
  0
LINE
  8
0
 62
     0
 10
258.746
 20
44.5326
 30
0.0
 11
244.745
 21
44.5326
 31
0.0
  0
LINE
  8
0
 62
     0
 10
225.695
 20
44.5326
 30
0.0
 11
225.695
 21
43.5321
 31
0.0
  0
LINE
  8
0
 62
     0
 10
225.695
 20
43.5321
 30
0.0
 11
224.896
 21
43.5321
 31
0.0
  0
LINE
  8
0
 62
     0
 10
224.896
 20
43.5321
 30
0.0
 11
224.896
 21
40.4315
 31
0.0
  0
LINE
  8
0
 62
     0
 10
224.896
 20
40.4315
 30
0.0
 11
225.695
 21
40.4315
 31
0.0
  0
LINE
  8
0
 62
     0
 10
225.695
 20
40.4315
 30
0.0
 11
225.695
 21
34.6329
 31
0.0
  0
LINE
  8
0
 62
     0
 10
225.695
 20
34.6329
 30
0.0
 11
224.896
 21
34.6329
 31
0.0
  0
LINE
  8
0
 62
     0
 10
224.896
 20
34.6329
 30
0.0
 11
224.896
 21
31.5323
 31
0.0
  0
LINE
  8
0
 62
     0
 10
224.896
 20
31.5323
 30
0.0
 11
225.695
 21
31.5323
 31
0.0
  0
LINE
  8
0
 62
     0
 10
225.695
 20
31.5323
 30
0.0
 11
225.695
 21
30.5318
 31
0.0
  0
LINE
  8
0
 62
     0
 10
225.695
 20
30.5318
 30
0.0
 11
239.696
 21
30.5318
 31
0.0
  0
LINE
  8
0
 62
     0
 10
239.696
 20
30.5318
 30
0.0
 11
239.696
 21
31.5323
 31
0.0
  0
LINE
  8
0
 62
     0
 10
239.696
 20
31.5323
 30
0.0
 11
240.495
 21
31.5323
 31
0.0
  0
LINE
  8
0
 62
     0
 10
240.495
 20
31.5323
 30
0.0
 11
240.495
 21
34.6329
 31
0.0
  0
LINE
  8
0
 62
     0
 10
240.495
 20
34.6329
 30
0.0
 11
239.696
 21
34.6329
 31
0.0
  0
LINE
  8
0
 62
     0
 10
239.696
 20
34.6329
 30
0.0
 11
239.696
 21
40.4315
 31
0.0
  0
LINE
  8
0
 62
     0
 10
239.696
 20
40.4315
 30
0.0
 11
240.495
 21
40.4315
 31
0.0
  0
LINE
  8
0
 62
     0
 10
240.495
 20
40.4315
 30
0.0
 11
240.495
 21
43.5321
 31
0.0
  0
LINE
  8
0
 62
     0
 10
240.495
 20
43.5321
 30
0.0
 11
239.696
 21
43.5321
 31
0.0
  0
LINE
  8
0
 62
     0
 10
239.696
 20
43.5321
 30
0.0
 11
239.696
 21
44.5326
 31
0.0
  0
LINE
  8
0
 62
     0
 10
239.696
 20
44.5326
 30
0.0
 11
225.695
 21
44.5326
 31
0.0
  0
LINE
  8
0
 62
     0
 10
206.645
 20
44.5326
 30
0.0
 11
206.645
 21
43.5321
 31
0.0
  0
LINE
  8
0
 62
     0
 10
206.645
 20
43.5321
 30
0.0
 11
205.846
 21
43.5321
 31
0.0
  0
LINE
  8
0
 62
     0
 10
205.846
 20
43.5321
 30
0.0
 11
205.846
 21
40.4315
 31
0.0
  0
LINE
  8
0
 62
     0
 10
205.846
 20
40.4315
 30
0.0
 11
206.645
 21
40.4315
 31
0.0
  0
LINE
  8
0
 62
     0
 10
206.645
 20
40.4315
 30
0.0
 11
206.645
 21
34.6329
 31
0.0
  0
LINE
  8
0
 62
     0
 10
206.645
 20
34.6329
 30
0.0
 11
205.846
 21
34.6329
 31
0.0
  0
LINE
  8
0
 62
     0
 10
205.846
 20
34.6329
 30
0.0
 11
205.846
 21
31.5323
 31
0.0
  0
LINE
  8
0
 62
     0
 10
205.846
 20
31.5323
 30
0.0
 11
206.645
 21
31.5323
 31
0.0
  0
LINE
  8
0
 62
     0
 10
206.645
 20
31.5323
 30
0.0
 11
206.645
 21
30.5318
 31
0.0
  0
LINE
  8
0
 62
     0
 10
206.645
 20
30.5318
 30
0.0
 11
220.646
 21
30.5318
 31
0.0
  0
LINE
  8
0
 62
     0
 10
220.646
 20
30.5318
 30
0.0
 11
220.646
 21
31.5323
 31
0.0
  0
LINE
  8
0
 62
     0
 10
220.646
 20
31.5323
 30
0.0
 11
221.445
 21
31.5323
 31
0.0
  0
LINE
  8
0
 62
     0
 10
221.445
 20
31.5323
 30
0.0
 11
221.445
 21
34.6329
 31
0.0
  0
LINE
  8
0
 62
     0
 10
221.445
 20
34.6329
 30
0.0
 11
220.646
 21
34.6329
 31
0.0
  0
LINE
  8
0
 62
     0
 10
220.646
 20
34.6329
 30
0.0
 11
220.646
 21
40.4315
 31
0.0
  0
LINE
  8
0
 62
     0
 10
220.646
 20
40.4315
 30
0.0
 11
221.445
 21
40.4315
 31
0.0
  0
LINE
  8
0
 62
     0
 10
221.445
 20
40.4315
 30
0.0
 11
221.445
 21
43.5321
 31
0.0
  0
LINE
  8
0
 62
     0
 10
221.445
 20
43.5321
 30
0.0
 11
220.646
 21
43.5321
 31
0.0
  0
LINE
  8
0
 62
     0
 10
220.646
 20
43.5321
 30
0.0
 11
220.646
 21
44.5326
 31
0.0
  0
LINE
  8
0
 62
     0
 10
220.646
 20
44.5326
 30
0.0
 11
206.645
 21
44.5326
 31
0.0
  0
LINE
  8
0
 62
     0
 10
187.595
 20
44.5326
 30
0.0
 11
187.595
 21
43.5321
 31
0.0
  0
LINE
  8
0
 62
     0
 10
187.595
 20
43.5321
 30
0.0
 11
186.796
 21
43.5321
 31
0.0
  0
LINE
  8
0
 62
     0
 10
186.796
 20
43.5321
 30
0.0
 11
186.796
 21
40.4315
 31
0.0
  0
LINE
  8
0
 62
     0
 10
186.796
 20
40.4315
 30
0.0
 11
187.595
 21
40.4315
 31
0.0
  0
LINE
  8
0
 62
     0
 10
187.595
 20
40.4315
 30
0.0
 11
187.595
 21
34.6329
 31
0.0
  0
LINE
  8
0
 62
     0
 10
187.595
 20
34.6329
 30
0.0
 11
186.796
 21
34.6329
 31
0.0
  0
LINE
  8
0
 62
     0
 10
186.796
 20
34.6329
 30
0.0
 11
186.796
 21
31.5323
 31
0.0
  0
LINE
  8
0
 62
     0
 10
186.796
 20
31.5323
 30
0.0
 11
187.595
 21
31.5323
 31
0.0
  0
LINE
  8
0
 62
     0
 10
187.595
 20
31.5323
 30
0.0
 11
187.595
 21
30.5318
 31
0.0
  0
LINE
  8
0
 62
     0
 10
187.595
 20
30.5318
 30
0.0
 11
201.596
 21
30.5318
 31
0.0
  0
LINE
  8
0
 62
     0
 10
201.596
 20
30.5318
 30
0.0
 11
201.596
 21
31.5323
 31
0.0
  0
LINE
  8
0
 62
     0
 10
201.596
 20
31.5323
 30
0.0
 11
202.395
 21
31.5323
 31
0.0
  0
LINE
  8
0
 62
     0
 10
202.395
 20
31.5323
 30
0.0
 11
202.395
 21
34.6329
 31
0.0
  0
LINE
  8
0
 62
     0
 10
202.395
 20
34.6329
 30
0.0
 11
201.596
 21
34.6329
 31
0.0
  0
LINE
  8
0
 62
     0
 10
201.596
 20
34.6329
 30
0.0
 11
201.596
 21
40.4315
 31
0.0
  0
LINE
  8
0
 62
     0
 10
201.596
 20
40.4315
 30
0.0
 11
202.395
 21
40.4315
 31
0.0
  0
LINE
  8
0
 62
     0
 10
202.395
 20
40.4315
 30
0.0
 11
202.395
 21
43.5321
 31
0.0
  0
LINE
  8
0
 62
     0
 10
202.395
 20
43.5321
 30
0.0
 11
201.596
 21
43.5321
 31
0.0
  0
LINE
  8
0
 62
     0
 10
201.596
 20
43.5321
 30
0.0
 11
201.596
 21
44.5326
 31
0.0
  0
LINE
  8
0
 62
     0
 10
201.596
 20
44.5326
 30
0.0
 11
187.595
 21
44.5326
 31
0.0
  0
LINE
  8
0
 62
     0
 10
168.545
 20
44.5326
 30
0.0
 11
168.545
 21
43.5321
 31
0.0
  0
LINE
  8
0
 62
     0
 10
168.545
 20
43.5321
 30
0.0
 11
167.746
 21
43.5321
 31
0.0
  0
LINE
  8
0
 62
     0
 10
167.746
 20
43.5321
 30
0.0
 11
167.746
 21
40.4315
 31
0.0
  0
LINE
  8
0
 62
     0
 10
167.746
 20
40.4315
 30
0.0
 11
168.545
 21
40.4315
 31
0.0
  0
LINE
  8
0
 62
     0
 10
168.545
 20
40.4315
 30
0.0
 11
168.545
 21
34.6329
 31
0.0
  0
LINE
  8
0
 62
     0
 10
168.545
 20
34.6329
 30
0.0
 11
167.746
 21
34.6329
 31
0.0
  0
LINE
  8
0
 62
     0
 10
167.746
 20
34.6329
 30
0.0
 11
167.746
 21
31.5323
 31
0.0
  0
LINE
  8
0
 62
     0
 10
167.746
 20
31.5323
 30
0.0
 11
168.545
 21
31.5323
 31
0.0
  0
LINE
  8
0
 62
     0
 10
168.545
 20
31.5323
 30
0.0
 11
168.545
 21
30.5318
 31
0.0
  0
LINE
  8
0
 62
     0
 10
168.545
 20
30.5318
 30
0.0
 11
182.546
 21
30.5318
 31
0.0
  0
LINE
  8
0
 62
     0
 10
182.546
 20
30.5318
 30
0.0
 11
182.546
 21
31.5323
 31
0.0
  0
LINE
  8
0
 62
     0
 10
182.546
 20
31.5323
 30
0.0
 11
183.345
 21
31.5323
 31
0.0
  0
LINE
  8
0
 62
     0
 10
183.345
 20
31.5323
 30
0.0
 11
183.345
 21
34.6329
 31
0.0
  0
LINE
  8
0
 62
     0
 10
183.345
 20
34.6329
 30
0.0
 11
182.546
 21
34.6329
 31
0.0
  0
LINE
  8
0
 62
     0
 10
182.546
 20
34.6329
 30
0.0
 11
182.546
 21
40.4315
 31
0.0
  0
LINE
  8
0
 62
     0
 10
182.546
 20
40.4315
 30
0.0
 11
183.345
 21
40.4315
 31
0.0
  0
LINE
  8
0
 62
     0
 10
183.345
 20
40.4315
 30
0.0
 11
183.345
 21
43.5321
 31
0.0
  0
LINE
  8
0
 62
     0
 10
183.345
 20
43.5321
 30
0.0
 11
182.546
 21
43.5321
 31
0.0
  0
LINE
  8
0
 62
     0
 10
182.546
 20
43.5321
 30
0.0
 11
182.546
 21
44.5326
 31
0.0
  0
LINE
  8
0
 62
     0
 10
182.546
 20
44.5326
 30
0.0
 11
168.545
 21
44.5326
 31
0.0
  0
LINE
  8
0
 62
     0
 10
149.495
 20
44.5326
 30
0.0
 11
149.495
 21
43.5321
 31
0.0
  0
LINE
  8
0
 62
     0
 10
149.495
 20
43.5321
 30
0.0
 11
148.696
 21
43.5321
 31
0.0
  0
LINE
  8
0
 62
     0
 10
148.696
 20
43.5321
 30
0.0
 11
148.696
 21
40.4315
 31
0.0
  0
LINE
  8
0
 62
     0
 10
148.696
 20
40.4315
 30
0.0
 11
149.495
 21
40.4315
 31
0.0
  0
LINE
  8
0
 62
     0
 10
149.495
 20
40.4315
 30
0.0
 11
149.495
 21
34.6329
 31
0.0
  0
LINE
  8
0
 62
     0
 10
149.495
 20
34.6329
 30
0.0
 11
148.696
 21
34.6329
 31
0.0
  0
LINE
  8
0
 62
     0
 10
148.696
 20
34.6329
 30
0.0
 11
148.696
 21
31.5323
 31
0.0
  0
LINE
  8
0
 62
     0
 10
148.696
 20
31.5323
 30
0.0
 11
149.495
 21
31.5323
 31
0.0
  0
LINE
  8
0
 62
     0
 10
149.495
 20
31.5323
 30
0.0
 11
149.495
 21
30.5318
 31
0.0
  0
LINE
  8
0
 62
     0
 10
149.495
 20
30.5318
 30
0.0
 11
163.496
 21
30.5318
 31
0.0
  0
LINE
  8
0
 62
     0
 10
163.496
 20
30.5318
 30
0.0
 11
163.496
 21
31.5323
 31
0.0
  0
LINE
  8
0
 62
     0
 10
163.496
 20
31.5323
 30
0.0
 11
164.295
 21
31.5323
 31
0.0
  0
LINE
  8
0
 62
     0
 10
164.295
 20
31.5323
 30
0.0
 11
164.295
 21
34.6329
 31
0.0
  0
LINE
  8
0
 62
     0
 10
164.295
 20
34.6329
 30
0.0
 11
163.496
 21
34.6329
 31
0.0
  0
LINE
  8
0
 62
     0
 10
163.496
 20
34.6329
 30
0.0
 11
163.496
 21
40.4315
 31
0.0
  0
LINE
  8
0
 62
     0
 10
163.496
 20
40.4315
 30
0.0
 11
164.295
 21
40.4315
 31
0.0
  0
LINE
  8
0
 62
     0
 10
164.295
 20
40.4315
 30
0.0
 11
164.295
 21
43.5321
 31
0.0
  0
LINE
  8
0
 62
     0
 10
164.295
 20
43.5321
 30
0.0
 11
163.496
 21
43.5321
 31
0.0
  0
LINE
  8
0
 62
     0
 10
163.496
 20
43.5321
 30
0.0
 11
163.496
 21
44.5326
 31
0.0
  0
LINE
  8
0
 62
     0
 10
163.496
 20
44.5326
 30
0.0
 11
149.495
 21
44.5326
 31
0.0
  0
LINE
  8
0
 62
     0
 10
130.445
 20
44.5326
 30
0.0
 11
130.445
 21
43.5321
 31
0.0
  0
LINE
  8
0
 62
     0
 10
130.445
 20
43.5321
 30
0.0
 11
129.644
 21
43.5321
 31
0.0
  0
LINE
  8
0
 62
     0
 10
129.644
 20
43.5321
 30
0.0
 11
129.644
 21
40.4315
 31
0.0
  0
LINE
  8
0
 62
     0
 10
129.644
 20
40.4315
 30
0.0
 11
130.445
 21
40.4315
 31
0.0
  0
LINE
  8
0
 62
     0
 10
130.445
 20
40.4315
 30
0.0
 11
130.445
 21
34.6329
 31
0.0
  0
LINE
  8
0
 62
     0
 10
130.445
 20
34.6329
 30
0.0
 11
129.644
 21
34.6329
 31
0.0
  0
LINE
  8
0
 62
     0
 10
129.644
 20
34.6329
 30
0.0
 11
129.644
 21
31.5323
 31
0.0
  0
LINE
  8
0
 62
     0
 10
129.644
 20
31.5323
 30
0.0
 11
130.445
 21
31.5323
 31
0.0
  0
LINE
  8
0
 62
     0
 10
130.445
 20
31.5323
 30
0.0
 11
130.445
 21
30.5318
 31
0.0
  0
LINE
  8
0
 62
     0
 10
130.445
 20
30.5318
 30
0.0
 11
144.446
 21
30.5318
 31
0.0
  0
LINE
  8
0
 62
     0
 10
144.446
 20
30.5318
 30
0.0
 11
144.446
 21
31.5323
 31
0.0
  0
LINE
  8
0
 62
     0
 10
144.446
 20
31.5323
 30
0.0
 11
145.245
 21
31.5323
 31
0.0
  0
LINE
  8
0
 62
     0
 10
145.245
 20
31.5323
 30
0.0
 11
145.245
 21
34.6329
 31
0.0
  0
LINE
  8
0
 62
     0
 10
145.245
 20
34.6329
 30
0.0
 11
144.446
 21
34.6329
 31
0.0
  0
LINE
  8
0
 62
     0
 10
144.446
 20
34.6329
 30
0.0
 11
144.446
 21
40.4315
 31
0.0
  0
LINE
  8
0
 62
     0
 10
144.446
 20
40.4315
 30
0.0
 11
145.245
 21
40.4315
 31
0.0
  0
LINE
  8
0
 62
     0
 10
145.245
 20
40.4315
 30
0.0
 11
145.245
 21
43.5321
 31
0.0
  0
LINE
  8
0
 62
     0
 10
145.245
 20
43.5321
 30
0.0
 11
144.446
 21
43.5321
 31
0.0
  0
LINE
  8
0
 62
     0
 10
144.446
 20
43.5321
 30
0.0
 11
144.446
 21
44.5326
 31
0.0
  0
LINE
  8
0
 62
     0
 10
144.446
 20
44.5326
 30
0.0
 11
130.445
 21
44.5326
 31
0.0
  0
LINE
  8
0
 62
     0
 10
111.395
 20
44.5326
 30
0.0
 11
111.395
 21
43.5321
 31
0.0
  0
LINE
  8
0
 62
     0
 10
111.395
 20
43.5321
 30
0.0
 11
110.596
 21
43.5321
 31
0.0
  0
LINE
  8
0
 62
     0
 10
110.596
 20
43.5321
 30
0.0
 11
110.596
 21
40.4315
 31
0.0
  0
LINE
  8
0
 62
     0
 10
110.596
 20
40.4315
 30
0.0
 11
111.395
 21
40.4315
 31
0.0
  0
LINE
  8
0
 62
     0
 10
111.395
 20
40.4315
 30
0.0
 11
111.395
 21
34.6329
 31
0.0
  0
LINE
  8
0
 62
     0
 10
111.395
 20
34.6329
 30
0.0
 11
110.596
 21
34.6329
 31
0.0
  0
LINE
  8
0
 62
     0
 10
110.596
 20
34.6329
 30
0.0
 11
110.596
 21
31.5323
 31
0.0
  0
LINE
  8
0
 62
     0
 10
110.596
 20
31.5323
 30
0.0
 11
111.395
 21
31.5323
 31
0.0
  0
LINE
  8
0
 62
     0
 10
111.395
 20
31.5323
 30
0.0
 11
111.395
 21
30.5318
 31
0.0
  0
LINE
  8
0
 62
     0
 10
111.395
 20
30.5318
 30
0.0
 11
125.396
 21
30.5318
 31
0.0
  0
LINE
  8
0
 62
     0
 10
125.396
 20
30.5318
 30
0.0
 11
125.396
 21
31.5323
 31
0.0
  0
LINE
  8
0
 62
     0
 10
125.396
 20
31.5323
 30
0.0
 11
126.195
 21
31.5323
 31
0.0
  0
LINE
  8
0
 62
     0
 10
126.195
 20
31.5323
 30
0.0
 11
126.195
 21
34.6329
 31
0.0
  0
LINE
  8
0
 62
     0
 10
126.195
 20
34.6329
 30
0.0
 11
125.396
 21
34.6329
 31
0.0
  0
LINE
  8
0
 62
     0
 10
125.396
 20
34.6329
 30
0.0
 11
125.396
 21
40.4315
 31
0.0
  0
LINE
  8
0
 62
     0
 10
125.396
 20
40.4315
 30
0.0
 11
126.195
 21
40.4315
 31
0.0
  0
LINE
  8
0
 62
     0
 10
126.195
 20
40.4315
 30
0.0
 11
126.195
 21
43.5321
 31
0.0
  0
LINE
  8
0
 62
     0
 10
126.195
 20
43.5321
 30
0.0
 11
125.396
 21
43.5321
 31
0.0
  0
LINE
  8
0
 62
     0
 10
125.396
 20
43.5321
 30
0.0
 11
125.396
 21
44.5326
 31
0.0
  0
LINE
  8
0
 62
     0
 10
125.396
 20
44.5326
 30
0.0
 11
111.395
 21
44.5326
 31
0.0
  0
LINE
  8
0
 62
     0
 10
92.3452
 20
44.5326
 30
0.0
 11
92.3452
 21
43.5321
 31
0.0
  0
LINE
  8
0
 62
     0
 10
92.3452
 20
43.5321
 30
0.0
 11
91.5458
 21
43.5321
 31
0.0
  0
LINE
  8
0
 62
     0
 10
91.5458
 20
43.5321
 30
0.0
 11
91.5458
 21
40.4315
 31
0.0
  0
LINE
  8
0
 62
     0
 10
91.5458
 20
40.4315
 30
0.0
 11
92.3452
 21
40.4315
 31
0.0
  0
LINE
  8
0
 62
     0
 10
92.3452
 20
40.4315
 30
0.0
 11
92.3452
 21
34.6329
 31
0.0
  0
LINE
  8
0
 62
     0
 10
92.3452
 20
34.6329
 30
0.0
 11
91.5458
 21
34.6329
 31
0.0
  0
LINE
  8
0
 62
     0
 10
91.5458
 20
34.6329
 30
0.0
 11
91.5458
 21
31.5323
 31
0.0
  0
LINE
  8
0
 62
     0
 10
91.5458
 20
31.5323
 30
0.0
 11
92.3452
 21
31.5323
 31
0.0
  0
LINE
  8
0
 62
     0
 10
92.3452
 20
31.5323
 30
0.0
 11
92.3452
 21
30.5318
 31
0.0
  0
LINE
  8
0
 62
     0
 10
92.3452
 20
30.5318
 30
0.0
 11
106.346
 21
30.5318
 31
0.0
  0
LINE
  8
0
 62
     0
 10
106.346
 20
30.5318
 30
0.0
 11
106.346
 21
31.5323
 31
0.0
  0
LINE
  8
0
 62
     0
 10
106.346
 20
31.5323
 30
0.0
 11
107.145
 21
31.5323
 31
0.0
  0
LINE
  8
0
 62
     0
 10
107.145
 20
31.5323
 30
0.0
 11
107.145
 21
34.6329
 31
0.0
  0
LINE
  8
0
 62
     0
 10
107.145
 20
34.6329
 30
0.0
 11
106.346
 21
34.6329
 31
0.0
  0
LINE
  8
0
 62
     0
 10
106.346
 20
34.6329
 30
0.0
 11
106.346
 21
40.4315
 31
0.0
  0
LINE
  8
0
 62
     0
 10
106.346
 20
40.4315
 30
0.0
 11
107.145
 21
40.4315
 31
0.0
  0
LINE
  8
0
 62
     0
 10
107.145
 20
40.4315
 30
0.0
 11
107.145
 21
43.5321
 31
0.0
  0
LINE
  8
0
 62
     0
 10
107.145
 20
43.5321
 30
0.0
 11
106.346
 21
43.5321
 31
0.0
  0
LINE
  8
0
 62
     0
 10
106.346
 20
43.5321
 30
0.0
 11
106.346
 21
44.5326
 31
0.0
  0
LINE
  8
0
 62
     0
 10
106.346
 20
44.5326
 30
0.0
 11
92.3452
 21
44.5326
 31
0.0
  0
LINE
  8
0
 62
     0
 10
73.2952
 20
44.5326
 30
0.0
 11
73.2952
 21
43.5321
 31
0.0
  0
LINE
  8
0
 62
     0
 10
73.2952
 20
43.5321
 30
0.0
 11
72.4958
 21
43.5321
 31
0.0
  0
LINE
  8
0
 62
     0
 10
72.4958
 20
43.5321
 30
0.0
 11
72.4958
 21
40.4315
 31
0.0
  0
LINE
  8
0
 62
     0
 10
72.4958
 20
40.4315
 30
0.0
 11
73.2952
 21
40.4315
 31
0.0
  0
LINE
  8
0
 62
     0
 10
73.2952
 20
40.4315
 30
0.0
 11
73.2952
 21
34.6329
 31
0.0
  0
LINE
  8
0
 62
     0
 10
73.2952
 20
34.6329
 30
0.0
 11
72.4958
 21
34.6329
 31
0.0
  0
LINE
  8
0
 62
     0
 10
72.4958
 20
34.6329
 30
0.0
 11
72.4958
 21
31.5323
 31
0.0
  0
LINE
  8
0
 62
     0
 10
72.4958
 20
31.5323
 30
0.0
 11
73.2952
 21
31.5323
 31
0.0
  0
LINE
  8
0
 62
     0
 10
73.2952
 20
31.5323
 30
0.0
 11
73.2952
 21
30.5318
 31
0.0
  0
LINE
  8
0
 62
     0
 10
73.2952
 20
30.5318
 30
0.0
 11
87.2959
 21
30.5318
 31
0.0
  0
LINE
  8
0
 62
     0
 10
87.2959
 20
30.5318
 30
0.0
 11
87.2959
 21
31.5323
 31
0.0
  0
LINE
  8
0
 62
     0
 10
87.2959
 20
31.5323
 30
0.0
 11
88.0953
 21
31.5323
 31
0.0
  0
LINE
  8
0
 62
     0
 10
88.0953
 20
31.5323
 30
0.0
 11
88.0953
 21
34.6329
 31
0.0
  0
LINE
  8
0
 62
     0
 10
88.0953
 20
34.6329
 30
0.0
 11
87.2959
 21
34.6329
 31
0.0
  0
LINE
  8
0
 62
     0
 10
87.2959
 20
34.6329
 30
0.0
 11
87.2959
 21
40.4315
 31
0.0
  0
LINE
  8
0
 62
     0
 10
87.2959
 20
40.4315
 30
0.0
 11
88.0953
 21
40.4315
 31
0.0
  0
LINE
  8
0
 62
     0
 10
88.0953
 20
40.4315
 30
0.0
 11
88.0953
 21
43.5321
 31
0.0
  0
LINE
  8
0
 62
     0
 10
88.0953
 20
43.5321
 30
0.0
 11
87.2959
 21
43.5321
 31
0.0
  0
LINE
  8
0
 62
     0
 10
87.2959
 20
43.5321
 30
0.0
 11
87.2959
 21
44.5326
 31
0.0
  0
LINE
  8
0
 62
     0
 10
87.2959
 20
44.5326
 30
0.0
 11
73.2952
 21
44.5326
 31
0.0
  0
LINE
  8
0
 62
     0
 10
6.62009
 20
44.5326
 30
0.0
 11
6.62009
 21
43.5321
 31
0.0
  0
LINE
  8
0
 62
     0
 10
6.62009
 20
43.5321
 30
0.0
 11
5.81946
 21
43.5321
 31
0.0
  0
LINE
  8
0
 62
     0
 10
5.81946
 20
43.5321
 30
0.0
 11
5.81946
 21
40.4315
 31
0.0
  0
LINE
  8
0
 62
     0
 10
5.81946
 20
40.4315
 30
0.0
 11
6.62009
 21
40.4315
 31
0.0
  0
LINE
  8
0
 62
     0
 10
6.62009
 20
40.4315
 30
0.0
 11
6.62009
 21
34.6329
 31
0.0
  0
LINE
  8
0
 62
     0
 10
6.62009
 20
34.6329
 30
0.0
 11
5.81946
 21
34.6329
 31
0.0
  0
LINE
  8
0
 62
     0
 10
5.81946
 20
34.6329
 30
0.0
 11
5.81946
 21
31.5323
 31
0.0
  0
LINE
  8
0
 62
     0
 10
5.81946
 20
31.5323
 30
0.0
 11
6.62009
 21
31.5323
 31
0.0
  0
LINE
  8
0
 62
     0
 10
6.62009
 20
31.5323
 30
0.0
 11
6.62009
 21
30.5318
 31
0.0
  0
LINE
  8
0
 62
     0
 10
6.62009
 20
30.5318
 30
0.0
 11
20.621
 21
30.5318
 31
0.0
  0
LINE
  8
0
 62
     0
 10
20.621
 20
30.5318
 30
0.0
 11
20.621
 21
31.5323
 31
0.0
  0
LINE
  8
0
 62
     0
 10
20.621
 20
31.5323
 30
0.0
 11
21.4202
 21
31.5323
 31
0.0
  0
LINE
  8
0
 62
     0
 10
21.4202
 20
31.5323
 30
0.0
 11
21.4202
 21
34.6329
 31
0.0
  0
LINE
  8
0
 62
     0
 10
21.4202
 20
34.6329
 30
0.0
 11
20.621
 21
34.6329
 31
0.0
  0
LINE
  8
0
 62
     0
 10
20.621
 20
34.6329
 30
0.0
 11
20.621
 21
40.4315
 31
0.0
  0
LINE
  8
0
 62
     0
 10
20.621
 20
40.4315
 30
0.0
 11
21.4202
 21
40.4315
 31
0.0
  0
LINE
  8
0
 62
     0
 10
21.4202
 20
40.4315
 30
0.0
 11
21.4202
 21
43.5321
 31
0.0
  0
LINE
  8
0
 62
     0
 10
21.4202
 20
43.5321
 30
0.0
 11
20.621
 21
43.5321
 31
0.0
  0
LINE
  8
0
 62
     0
 10
20.621
 20
43.5321
 30
0.0
 11
20.621
 21
44.5326
 31
0.0
  0
LINE
  8
0
 62
     0
 10
20.621
 20
44.5326
 30
0.0
 11
6.62009
 21
44.5326
 31
0.0
  0
LINE
  8
0
 62
     0
 10
285.226
 20
63.5825
 30
0.0
 11
285.226
 21
62.5821
 31
0.0
  0
LINE
  8
0
 62
     0
 10
285.226
 20
62.5821
 30
0.0
 11
284.427
 21
62.5821
 31
0.0
  0
LINE
  8
0
 62
     0
 10
284.427
 20
62.5821
 30
0.0
 11
284.427
 21
59.4815
 31
0.0
  0
LINE
  8
0
 62
     0
 10
284.427
 20
59.4815
 30
0.0
 11
285.226
 21
59.4815
 31
0.0
  0
LINE
  8
0
 62
     0
 10
285.226
 20
59.4815
 30
0.0
 11
285.226
 21
58.8821
 31
0.0
  0
LINE
  8
0
 62
     0
 10
285.226
 20
58.8821
 30
0.0
 11
283.701
 21
58.8821
 31
0.0
  0
LINE
  8
0
 62
     0
 10
283.701
 20
58.8821
 30
0.0
 11
283.701
 21
62.1122
 31
0.0
  0
LINE
  8
0
 62
     0
 10
283.701
 20
62.1122
 30
0.0
 11
276.951
 21
62.1122
 31
0.0
  0
LINE
  8
0
 62
     0
 10
276.951
 20
62.1122
 30
0.0
 11
276.951
 21
58.8821
 31
0.0
  0
LINE
  8
0
 62
     0
 10
276.951
 20
58.8821
 30
0.0
 11
276.127
 21
58.8821
 31
0.0
  0
LINE
  8
0
 62
     0
 10
276.127
 20
58.8821
 30
0.0
 11
276.127
 21
56.0821
 31
0.0
  0
LINE
  8
0
 62
     0
 10
276.127
 20
56.0821
 30
0.0
 11
276.951
 21
56.0821
 31
0.0
  0
LINE
  8
0
 62
     0
 10
276.951
 20
56.0821
 30
0.0
 11
276.951
 21
49.8119
 31
0.0
  0
LINE
  8
0
 62
     0
 10
276.951
 20
49.8119
 30
0.0
 11
278.676
 21
49.8119
 31
0.0
  0
LINE
  8
0
 62
     0
 10
278.676
 20
49.8119
 30
0.0
 11
278.676
 21
48.6117
 31
0.0
  0
LINE
  8
0
 62
     0
 10
278.676
 20
48.6117
 30
0.0
 11
281.977
 21
48.6117
 31
0.0
  0
LINE
  8
0
 62
     0
 10
281.977
 20
48.6117
 30
0.0
 11
281.977
 21
49.8119
 31
0.0
  0
LINE
  8
0
 62
     0
 10
281.977
 20
49.8119
 30
0.0
 11
283.701
 21
49.8119
 31
0.0
  0
LINE
  8
0
 62
     0
 10
283.701
 20
49.8119
 30
0.0
 11
283.701
 21
54.2823
 31
0.0
  0
LINE
  8
0
 62
     0
 10
283.701
 20
54.2823
 30
0.0
 11
285.226
 21
54.2823
 31
0.0
  0
LINE
  8
0
 62
     0
 10
285.226
 20
54.2823
 30
0.0
 11
285.226
 21
53.6829
 31
0.0
  0
LINE
  8
0
 62
     0
 10
285.226
 20
53.6829
 30
0.0
 11
284.427
 21
53.6829
 31
0.0
  0
LINE
  8
0
 62
     0
 10
284.427
 20
53.6829
 30
0.0
 11
284.427
 21
50.5823
 31
0.0
  0
LINE
  8
0
 62
     0
 10
284.427
 20
50.5823
 30
0.0
 11
285.226
 21
50.5823
 31
0.0
  0
LINE
  8
0
 62
     0
 10
285.226
 20
50.5823
 30
0.0
 11
285.226
 21
49.5819
 31
0.0
  0
LINE
  8
0
 62
     0
 10
285.226
 20
49.5819
 30
0.0
 11
299.226
 21
49.5819
 31
0.0
  0
LINE
  8
0
 62
     0
 10
299.226
 20
49.5819
 30
0.0
 11
299.226
 21
50.5823
 31
0.0
  0
LINE
  8
0
 62
     0
 10
299.226
 20
50.5823
 30
0.0
 11
300.027
 21
50.5823
 31
0.0
  0
LINE
  8
0
 62
     0
 10
300.027
 20
50.5823
 30
0.0
 11
300.027
 21
53.6829
 31
0.0
  0
LINE
  8
0
 62
     0
 10
300.027
 20
53.6829
 30
0.0
 11
299.226
 21
53.6829
 31
0.0
  0
LINE
  8
0
 62
     0
 10
299.226
 20
53.6829
 30
0.0
 11
299.226
 21
54.2823
 31
0.0
  0
LINE
  8
0
 62
     0
 10
299.226
 20
54.2823
 30
0.0
 11
300.751
 21
54.2823
 31
0.0
  0
LINE
  8
0
 62
     0
 10
300.751
 20
54.2823
 30
0.0
 11
300.751
 21
49.8119
 31
0.0
  0
LINE
  8
0
 62
     0
 10
300.751
 20
49.8119
 30
0.0
 11
302.477
 21
49.8119
 31
0.0
  0
LINE
  8
0
 62
     0
 10
302.477
 20
49.8119
 30
0.0
 11
302.477
 21
48.6117
 31
0.0
  0
LINE
  8
0
 62
     0
 10
302.477
 20
48.6117
 30
0.0
 11
305.777
 21
48.6117
 31
0.0
  0
LINE
  8
0
 62
     0
 10
305.777
 20
48.6117
 30
0.0
 11
305.777
 21
49.8119
 31
0.0
  0
LINE
  8
0
 62
     0
 10
305.777
 20
49.8119
 30
0.0
 11
307.501
 21
49.8119
 31
0.0
  0
LINE
  8
0
 62
     0
 10
307.501
 20
49.8119
 30
0.0
 11
307.501
 21
56.0821
 31
0.0
  0
LINE
  8
0
 62
     0
 10
307.501
 20
56.0821
 30
0.0
 11
308.326
 21
56.0821
 31
0.0
  0
LINE
  8
0
 62
     0
 10
308.326
 20
56.0821
 30
0.0
 11
308.326
 21
58.8821
 31
0.0
  0
LINE
  8
0
 62
     0
 10
308.326
 20
58.8821
 30
0.0
 11
307.501
 21
58.8821
 31
0.0
  0
LINE
  8
0
 62
     0
 10
307.501
 20
58.8821
 30
0.0
 11
307.501
 21
62.1122
 31
0.0
  0
LINE
  8
0
 62
     0
 10
307.501
 20
62.1122
 30
0.0
 11
300.751
 21
62.1122
 31
0.0
  0
LINE
  8
0
 62
     0
 10
300.751
 20
62.1122
 30
0.0
 11
300.751
 21
58.8821
 31
0.0
  0
LINE
  8
0
 62
     0
 10
300.751
 20
58.8821
 30
0.0
 11
299.226
 21
58.8821
 31
0.0
  0
LINE
  8
0
 62
     0
 10
299.226
 20
58.8821
 30
0.0
 11
299.226
 21
59.4815
 31
0.0
  0
LINE
  8
0
 62
     0
 10
299.226
 20
59.4815
 30
0.0
 11
300.027
 21
59.4815
 31
0.0
  0
LINE
  8
0
 62
     0
 10
300.027
 20
59.4815
 30
0.0
 11
300.027
 21
62.5821
 31
0.0
  0
LINE
  8
0
 62
     0
 10
300.027
 20
62.5821
 30
0.0
 11
299.226
 21
62.5821
 31
0.0
  0
LINE
  8
0
 62
     0
 10
299.226
 20
62.5821
 30
0.0
 11
299.226
 21
63.5825
 31
0.0
  0
LINE
  8
0
 62
     0
 10
299.226
 20
63.5825
 30
0.0
 11
285.226
 21
63.5825
 31
0.0
  0
LINE
  8
0
 62
     0
 10
254.27
 20
63.5825
 30
0.0
 11
254.27
 21
62.5821
 31
0.0
  0
LINE
  8
0
 62
     0
 10
254.27
 20
62.5821
 30
0.0
 11
253.471
 21
62.5821
 31
0.0
  0
LINE
  8
0
 62
     0
 10
253.471
 20
62.5821
 30
0.0
 11
253.471
 21
59.4815
 31
0.0
  0
LINE
  8
0
 62
     0
 10
253.471
 20
59.4815
 30
0.0
 11
254.27
 21
59.4815
 31
0.0
  0
LINE
  8
0
 62
     0
 10
254.27
 20
59.4815
 30
0.0
 11
254.27
 21
53.6829
 31
0.0
  0
LINE
  8
0
 62
     0
 10
254.27
 20
53.6829
 30
0.0
 11
253.471
 21
53.6829
 31
0.0
  0
LINE
  8
0
 62
     0
 10
253.471
 20
53.6829
 30
0.0
 11
253.471
 21
50.5823
 31
0.0
  0
LINE
  8
0
 62
     0
 10
253.471
 20
50.5823
 30
0.0
 11
254.27
 21
50.5823
 31
0.0
  0
LINE
  8
0
 62
     0
 10
254.27
 20
50.5823
 30
0.0
 11
254.27
 21
49.5819
 31
0.0
  0
LINE
  8
0
 62
     0
 10
254.27
 20
49.5819
 30
0.0
 11
268.271
 21
49.5819
 31
0.0
  0
LINE
  8
0
 62
     0
 10
268.271
 20
49.5819
 30
0.0
 11
268.271
 21
50.5823
 31
0.0
  0
LINE
  8
0
 62
     0
 10
268.271
 20
50.5823
 30
0.0
 11
269.07
 21
50.5823
 31
0.0
  0
LINE
  8
0
 62
     0
 10
269.07
 20
50.5823
 30
0.0
 11
269.07
 21
53.6829
 31
0.0
  0
LINE
  8
0
 62
     0
 10
269.07
 20
53.6829
 30
0.0
 11
268.271
 21
53.6829
 31
0.0
  0
LINE
  8
0
 62
     0
 10
268.271
 20
53.6829
 30
0.0
 11
268.271
 21
59.4815
 31
0.0
  0
LINE
  8
0
 62
     0
 10
268.271
 20
59.4815
 30
0.0
 11
269.07
 21
59.4815
 31
0.0
  0
LINE
  8
0
 62
     0
 10
269.07
 20
59.4815
 30
0.0
 11
269.07
 21
62.5821
 31
0.0
  0
LINE
  8
0
 62
     0
 10
269.07
 20
62.5821
 30
0.0
 11
268.271
 21
62.5821
 31
0.0
  0
LINE
  8
0
 62
     0
 10
268.271
 20
62.5821
 30
0.0
 11
268.271
 21
63.5825
 31
0.0
  0
LINE
  8
0
 62
     0
 10
268.271
 20
63.5825
 30
0.0
 11
254.27
 21
63.5825
 31
0.0
  0
LINE
  8
0
 62
     0
 10
235.22
 20
63.5825
 30
0.0
 11
235.22
 21
62.5821
 31
0.0
  0
LINE
  8
0
 62
     0
 10
235.22
 20
62.5821
 30
0.0
 11
234.421
 21
62.5821
 31
0.0
  0
LINE
  8
0
 62
     0
 10
234.421
 20
62.5821
 30
0.0
 11
234.421
 21
59.4815
 31
0.0
  0
LINE
  8
0
 62
     0
 10
234.421
 20
59.4815
 30
0.0
 11
235.22
 21
59.4815
 31
0.0
  0
LINE
  8
0
 62
     0
 10
235.22
 20
59.4815
 30
0.0
 11
235.22
 21
53.6829
 31
0.0
  0
LINE
  8
0
 62
     0
 10
235.22
 20
53.6829
 30
0.0
 11
234.421
 21
53.6829
 31
0.0
  0
LINE
  8
0
 62
     0
 10
234.421
 20
53.6829
 30
0.0
 11
234.421
 21
50.5823
 31
0.0
  0
LINE
  8
0
 62
     0
 10
234.421
 20
50.5823
 30
0.0
 11
235.22
 21
50.5823
 31
0.0
  0
LINE
  8
0
 62
     0
 10
235.22
 20
50.5823
 30
0.0
 11
235.22
 21
49.5819
 31
0.0
  0
LINE
  8
0
 62
     0
 10
235.22
 20
49.5819
 30
0.0
 11
249.221
 21
49.5819
 31
0.0
  0
LINE
  8
0
 62
     0
 10
249.221
 20
49.5819
 30
0.0
 11
249.221
 21
50.5823
 31
0.0
  0
LINE
  8
0
 62
     0
 10
249.221
 20
50.5823
 30
0.0
 11
250.02
 21
50.5823
 31
0.0
  0
LINE
  8
0
 62
     0
 10
250.02
 20
50.5823
 30
0.0
 11
250.02
 21
53.6829
 31
0.0
  0
LINE
  8
0
 62
     0
 10
250.02
 20
53.6829
 30
0.0
 11
249.221
 21
53.6829
 31
0.0
  0
LINE
  8
0
 62
     0
 10
249.221
 20
53.6829
 30
0.0
 11
249.221
 21
59.4815
 31
0.0
  0
LINE
  8
0
 62
     0
 10
249.221
 20
59.4815
 30
0.0
 11
250.02
 21
59.4815
 31
0.0
  0
LINE
  8
0
 62
     0
 10
250.02
 20
59.4815
 30
0.0
 11
250.02
 21
62.5821
 31
0.0
  0
LINE
  8
0
 62
     0
 10
250.02
 20
62.5821
 30
0.0
 11
249.221
 21
62.5821
 31
0.0
  0
LINE
  8
0
 62
     0
 10
249.221
 20
62.5821
 30
0.0
 11
249.221
 21
63.5825
 31
0.0
  0
LINE
  8
0
 62
     0
 10
249.221
 20
63.5825
 30
0.0
 11
235.22
 21
63.5825
 31
0.0
  0
LINE
  8
0
 62
     0
 10
216.17
 20
63.5825
 30
0.0
 11
216.17
 21
62.5821
 31
0.0
  0
LINE
  8
0
 62
     0
 10
216.17
 20
62.5821
 30
0.0
 11
215.371
 21
62.5821
 31
0.0
  0
LINE
  8
0
 62
     0
 10
215.371
 20
62.5821
 30
0.0
 11
215.371
 21
59.4815
 31
0.0
  0
LINE
  8
0
 62
     0
 10
215.371
 20
59.4815
 30
0.0
 11
216.17
 21
59.4815
 31
0.0
  0
LINE
  8
0
 62
     0
 10
216.17
 20
59.4815
 30
0.0
 11
216.17
 21
53.6829
 31
0.0
  0
LINE
  8
0
 62
     0
 10
216.17
 20
53.6829
 30
0.0
 11
215.371
 21
53.6829
 31
0.0
  0
LINE
  8
0
 62
     0
 10
215.371
 20
53.6829
 30
0.0
 11
215.371
 21
50.5823
 31
0.0
  0
LINE
  8
0
 62
     0
 10
215.371
 20
50.5823
 30
0.0
 11
216.17
 21
50.5823
 31
0.0
  0
LINE
  8
0
 62
     0
 10
216.17
 20
50.5823
 30
0.0
 11
216.17
 21
49.5819
 31
0.0
  0
LINE
  8
0
 62
     0
 10
216.17
 20
49.5819
 30
0.0
 11
230.171
 21
49.5819
 31
0.0
  0
LINE
  8
0
 62
     0
 10
230.171
 20
49.5819
 30
0.0
 11
230.171
 21
50.5823
 31
0.0
  0
LINE
  8
0
 62
     0
 10
230.171
 20
50.5823
 30
0.0
 11
230.97
 21
50.5823
 31
0.0
  0
LINE
  8
0
 62
     0
 10
230.97
 20
50.5823
 30
0.0
 11
230.97
 21
53.6829
 31
0.0
  0
LINE
  8
0
 62
     0
 10
230.97
 20
53.6829
 30
0.0
 11
230.171
 21
53.6829
 31
0.0
  0
LINE
  8
0
 62
     0
 10
230.171
 20
53.6829
 30
0.0
 11
230.171
 21
59.4815
 31
0.0
  0
LINE
  8
0
 62
     0
 10
230.171
 20
59.4815
 30
0.0
 11
230.97
 21
59.4815
 31
0.0
  0
LINE
  8
0
 62
     0
 10
230.97
 20
59.4815
 30
0.0
 11
230.97
 21
62.5821
 31
0.0
  0
LINE
  8
0
 62
     0
 10
230.97
 20
62.5821
 30
0.0
 11
230.171
 21
62.5821
 31
0.0
  0
LINE
  8
0
 62
     0
 10
230.171
 20
62.5821
 30
0.0
 11
230.171
 21
63.5825
 31
0.0
  0
LINE
  8
0
 62
     0
 10
230.171
 20
63.5825
 30
0.0
 11
216.17
 21
63.5825
 31
0.0
  0
LINE
  8
0
 62
     0
 10
197.12
 20
63.5825
 30
0.0
 11
197.12
 21
62.5821
 31
0.0
  0
LINE
  8
0
 62
     0
 10
197.12
 20
62.5821
 30
0.0
 11
196.321
 21
62.5821
 31
0.0
  0
LINE
  8
0
 62
     0
 10
196.321
 20
62.5821
 30
0.0
 11
196.321
 21
59.4815
 31
0.0
  0
LINE
  8
0
 62
     0
 10
196.321
 20
59.4815
 30
0.0
 11
197.12
 21
59.4815
 31
0.0
  0
LINE
  8
0
 62
     0
 10
197.12
 20
59.4815
 30
0.0
 11
197.12
 21
53.6829
 31
0.0
  0
LINE
  8
0
 62
     0
 10
197.12
 20
53.6829
 30
0.0
 11
196.321
 21
53.6829
 31
0.0
  0
LINE
  8
0
 62
     0
 10
196.321
 20
53.6829
 30
0.0
 11
196.321
 21
50.5823
 31
0.0
  0
LINE
  8
0
 62
     0
 10
196.321
 20
50.5823
 30
0.0
 11
197.12
 21
50.5823
 31
0.0
  0
LINE
  8
0
 62
     0
 10
197.12
 20
50.5823
 30
0.0
 11
197.12
 21
49.5819
 31
0.0
  0
LINE
  8
0
 62
     0
 10
197.12
 20
49.5819
 30
0.0
 11
211.121
 21
49.5819
 31
0.0
  0
LINE
  8
0
 62
     0
 10
211.121
 20
49.5819
 30
0.0
 11
211.121
 21
50.5823
 31
0.0
  0
LINE
  8
0
 62
     0
 10
211.121
 20
50.5823
 30
0.0
 11
211.92
 21
50.5823
 31
0.0
  0
LINE
  8
0
 62
     0
 10
211.92
 20
50.5823
 30
0.0
 11
211.92
 21
53.6829
 31
0.0
  0
LINE
  8
0
 62
     0
 10
211.92
 20
53.6829
 30
0.0
 11
211.121
 21
53.6829
 31
0.0
  0
LINE
  8
0
 62
     0
 10
211.121
 20
53.6829
 30
0.0
 11
211.121
 21
59.4815
 31
0.0
  0
LINE
  8
0
 62
     0
 10
211.121
 20
59.4815
 30
0.0
 11
211.92
 21
59.4815
 31
0.0
  0
LINE
  8
0
 62
     0
 10
211.92
 20
59.4815
 30
0.0
 11
211.92
 21
62.5821
 31
0.0
  0
LINE
  8
0
 62
     0
 10
211.92
 20
62.5821
 30
0.0
 11
211.121
 21
62.5821
 31
0.0
  0
LINE
  8
0
 62
     0
 10
211.121
 20
62.5821
 30
0.0
 11
211.121
 21
63.5825
 31
0.0
  0
LINE
  8
0
 62
     0
 10
211.121
 20
63.5825
 30
0.0
 11
197.12
 21
63.5825
 31
0.0
  0
LINE
  8
0
 62
     0
 10
178.07
 20
63.5825
 30
0.0
 11
178.07
 21
62.5821
 31
0.0
  0
LINE
  8
0
 62
     0
 10
178.07
 20
62.5821
 30
0.0
 11
177.271
 21
62.5821
 31
0.0
  0
LINE
  8
0
 62
     0
 10
177.271
 20
62.5821
 30
0.0
 11
177.271
 21
59.4815
 31
0.0
  0
LINE
  8
0
 62
     0
 10
177.271
 20
59.4815
 30
0.0
 11
178.07
 21
59.4815
 31
0.0
  0
LINE
  8
0
 62
     0
 10
178.07
 20
59.4815
 30
0.0
 11
178.07
 21
53.6829
 31
0.0
  0
LINE
  8
0
 62
     0
 10
178.07
 20
53.6829
 30
0.0
 11
177.271
 21
53.6829
 31
0.0
  0
LINE
  8
0
 62
     0
 10
177.271
 20
53.6829
 30
0.0
 11
177.271
 21
50.5823
 31
0.0
  0
LINE
  8
0
 62
     0
 10
177.271
 20
50.5823
 30
0.0
 11
178.07
 21
50.5823
 31
0.0
  0
LINE
  8
0
 62
     0
 10
178.07
 20
50.5823
 30
0.0
 11
178.07
 21
49.5819
 31
0.0
  0
LINE
  8
0
 62
     0
 10
178.07
 20
49.5819
 30
0.0
 11
192.071
 21
49.5819
 31
0.0
  0
LINE
  8
0
 62
     0
 10
192.071
 20
49.5819
 30
0.0
 11
192.071
 21
50.5823
 31
0.0
  0
LINE
  8
0
 62
     0
 10
192.071
 20
50.5823
 30
0.0
 11
192.87
 21
50.5823
 31
0.0
  0
LINE
  8
0
 62
     0
 10
192.87
 20
50.5823
 30
0.0
 11
192.87
 21
53.6829
 31
0.0
  0
LINE
  8
0
 62
     0
 10
192.87
 20
53.6829
 30
0.0
 11
192.071
 21
53.6829
 31
0.0
  0
LINE
  8
0
 62
     0
 10
192.071
 20
53.6829
 30
0.0
 11
192.071
 21
59.4815
 31
0.0
  0
LINE
  8
0
 62
     0
 10
192.071
 20
59.4815
 30
0.0
 11
192.87
 21
59.4815
 31
0.0
  0
LINE
  8
0
 62
     0
 10
192.87
 20
59.4815
 30
0.0
 11
192.87
 21
62.5821
 31
0.0
  0
LINE
  8
0
 62
     0
 10
192.87
 20
62.5821
 30
0.0
 11
192.071
 21
62.5821
 31
0.0
  0
LINE
  8
0
 62
     0
 10
192.071
 20
62.5821
 30
0.0
 11
192.071
 21
63.5825
 31
0.0
  0
LINE
  8
0
 62
     0
 10
192.071
 20
63.5825
 30
0.0
 11
178.07
 21
63.5825
 31
0.0
  0
LINE
  8
0
 62
     0
 10
159.02
 20
63.5825
 30
0.0
 11
159.02
 21
62.5821
 31
0.0
  0
LINE
  8
0
 62
     0
 10
159.02
 20
62.5821
 30
0.0
 11
158.221
 21
62.5821
 31
0.0
  0
LINE
  8
0
 62
     0
 10
158.221
 20
62.5821
 30
0.0
 11
158.221
 21
59.4815
 31
0.0
  0
LINE
  8
0
 62
     0
 10
158.221
 20
59.4815
 30
0.0
 11
159.02
 21
59.4815
 31
0.0
  0
LINE
  8
0
 62
     0
 10
159.02
 20
59.4815
 30
0.0
 11
159.02
 21
53.6829
 31
0.0
  0
LINE
  8
0
 62
     0
 10
159.02
 20
53.6829
 30
0.0
 11
158.221
 21
53.6829
 31
0.0
  0
LINE
  8
0
 62
     0
 10
158.221
 20
53.6829
 30
0.0
 11
158.221
 21
50.5823
 31
0.0
  0
LINE
  8
0
 62
     0
 10
158.221
 20
50.5823
 30
0.0
 11
159.02
 21
50.5823
 31
0.0
  0
LINE
  8
0
 62
     0
 10
159.02
 20
50.5823
 30
0.0
 11
159.02
 21
49.5819
 31
0.0
  0
LINE
  8
0
 62
     0
 10
159.02
 20
49.5819
 30
0.0
 11
173.021
 21
49.5819
 31
0.0
  0
LINE
  8
0
 62
     0
 10
173.021
 20
49.5819
 30
0.0
 11
173.021
 21
50.5823
 31
0.0
  0
LINE
  8
0
 62
     0
 10
173.021
 20
50.5823
 30
0.0
 11
173.82
 21
50.5823
 31
0.0
  0
LINE
  8
0
 62
     0
 10
173.82
 20
50.5823
 30
0.0
 11
173.82
 21
53.6829
 31
0.0
  0
LINE
  8
0
 62
     0
 10
173.82
 20
53.6829
 30
0.0
 11
173.021
 21
53.6829
 31
0.0
  0
LINE
  8
0
 62
     0
 10
173.021
 20
53.6829
 30
0.0
 11
173.021
 21
59.4815
 31
0.0
  0
LINE
  8
0
 62
     0
 10
173.021
 20
59.4815
 30
0.0
 11
173.82
 21
59.4815
 31
0.0
  0
LINE
  8
0
 62
     0
 10
173.82
 20
59.4815
 30
0.0
 11
173.82
 21
62.5821
 31
0.0
  0
LINE
  8
0
 62
     0
 10
173.82
 20
62.5821
 30
0.0
 11
173.021
 21
62.5821
 31
0.0
  0
LINE
  8
0
 62
     0
 10
173.021
 20
62.5821
 30
0.0
 11
173.021
 21
63.5825
 31
0.0
  0
LINE
  8
0
 62
     0
 10
173.021
 20
63.5825
 30
0.0
 11
159.02
 21
63.5825
 31
0.0
  0
LINE
  8
0
 62
     0
 10
139.97
 20
63.5825
 30
0.0
 11
139.97
 21
62.5821
 31
0.0
  0
LINE
  8
0
 62
     0
 10
139.97
 20
62.5821
 30
0.0
 11
139.171
 21
62.5821
 31
0.0
  0
LINE
  8
0
 62
     0
 10
139.171
 20
62.5821
 30
0.0
 11
139.171
 21
59.4815
 31
0.0
  0
LINE
  8
0
 62
     0
 10
139.171
 20
59.4815
 30
0.0
 11
139.97
 21
59.4815
 31
0.0
  0
LINE
  8
0
 62
     0
 10
139.97
 20
59.4815
 30
0.0
 11
139.97
 21
53.6829
 31
0.0
  0
LINE
  8
0
 62
     0
 10
139.97
 20
53.6829
 30
0.0
 11
139.171
 21
53.6829
 31
0.0
  0
LINE
  8
0
 62
     0
 10
139.171
 20
53.6829
 30
0.0
 11
139.171
 21
50.5823
 31
0.0
  0
LINE
  8
0
 62
     0
 10
139.171
 20
50.5823
 30
0.0
 11
139.97
 21
50.5823
 31
0.0
  0
LINE
  8
0
 62
     0
 10
139.97
 20
50.5823
 30
0.0
 11
139.97
 21
49.5819
 31
0.0
  0
LINE
  8
0
 62
     0
 10
139.97
 20
49.5819
 30
0.0
 11
153.971
 21
49.5819
 31
0.0
  0
LINE
  8
0
 62
     0
 10
153.971
 20
49.5819
 30
0.0
 11
153.971
 21
50.5823
 31
0.0
  0
LINE
  8
0
 62
     0
 10
153.971
 20
50.5823
 30
0.0
 11
154.77
 21
50.5823
 31
0.0
  0
LINE
  8
0
 62
     0
 10
154.77
 20
50.5823
 30
0.0
 11
154.77
 21
53.6829
 31
0.0
  0
LINE
  8
0
 62
     0
 10
154.77
 20
53.6829
 30
0.0
 11
153.971
 21
53.6829
 31
0.0
  0
LINE
  8
0
 62
     0
 10
153.971
 20
53.6829
 30
0.0
 11
153.971
 21
59.4815
 31
0.0
  0
LINE
  8
0
 62
     0
 10
153.971
 20
59.4815
 30
0.0
 11
154.77
 21
59.4815
 31
0.0
  0
LINE
  8
0
 62
     0
 10
154.77
 20
59.4815
 30
0.0
 11
154.77
 21
62.5821
 31
0.0
  0
LINE
  8
0
 62
     0
 10
154.77
 20
62.5821
 30
0.0
 11
153.971
 21
62.5821
 31
0.0
  0
LINE
  8
0
 62
     0
 10
153.971
 20
62.5821
 30
0.0
 11
153.971
 21
63.5825
 31
0.0
  0
LINE
  8
0
 62
     0
 10
153.971
 20
63.5825
 30
0.0
 11
139.97
 21
63.5825
 31
0.0
  0
LINE
  8
0
 62
     0
 10
120.92
 20
63.5825
 30
0.0
 11
120.92
 21
62.5821
 31
0.0
  0
LINE
  8
0
 62
     0
 10
120.92
 20
62.5821
 30
0.0
 11
120.121
 21
62.5821
 31
0.0
  0
LINE
  8
0
 62
     0
 10
120.121
 20
62.5821
 30
0.0
 11
120.121
 21
59.4815
 31
0.0
  0
LINE
  8
0
 62
     0
 10
120.121
 20
59.4815
 30
0.0
 11
120.92
 21
59.4815
 31
0.0
  0
LINE
  8
0
 62
     0
 10
120.92
 20
59.4815
 30
0.0
 11
120.92
 21
53.6829
 31
0.0
  0
LINE
  8
0
 62
     0
 10
120.92
 20
53.6829
 30
0.0
 11
120.121
 21
53.6829
 31
0.0
  0
LINE
  8
0
 62
     0
 10
120.121
 20
53.6829
 30
0.0
 11
120.121
 21
50.5823
 31
0.0
  0
LINE
  8
0
 62
     0
 10
120.121
 20
50.5823
 30
0.0
 11
120.92
 21
50.5823
 31
0.0
  0
LINE
  8
0
 62
     0
 10
120.92
 20
50.5823
 30
0.0
 11
120.92
 21
49.5819
 31
0.0
  0
LINE
  8
0
 62
     0
 10
120.92
 20
49.5819
 30
0.0
 11
134.921
 21
49.5819
 31
0.0
  0
LINE
  8
0
 62
     0
 10
134.921
 20
49.5819
 30
0.0
 11
134.921
 21
50.5823
 31
0.0
  0
LINE
  8
0
 62
     0
 10
134.921
 20
50.5823
 30
0.0
 11
135.72
 21
50.5823
 31
0.0
  0
LINE
  8
0
 62
     0
 10
135.72
 20
50.5823
 30
0.0
 11
135.72
 21
53.6829
 31
0.0
  0
LINE
  8
0
 62
     0
 10
135.72
 20
53.6829
 30
0.0
 11
134.921
 21
53.6829
 31
0.0
  0
LINE
  8
0
 62
     0
 10
134.921
 20
53.6829
 30
0.0
 11
134.921
 21
59.4815
 31
0.0
  0
LINE
  8
0
 62
     0
 10
134.921
 20
59.4815
 30
0.0
 11
135.72
 21
59.4815
 31
0.0
  0
LINE
  8
0
 62
     0
 10
135.72
 20
59.4815
 30
0.0
 11
135.72
 21
62.5821
 31
0.0
  0
LINE
  8
0
 62
     0
 10
135.72
 20
62.5821
 30
0.0
 11
134.921
 21
62.5821
 31
0.0
  0
LINE
  8
0
 62
     0
 10
134.921
 20
62.5821
 30
0.0
 11
134.921
 21
63.5825
 31
0.0
  0
LINE
  8
0
 62
     0
 10
134.921
 20
63.5825
 30
0.0
 11
120.92
 21
63.5825
 31
0.0
  0
LINE
  8
0
 62
     0
 10
101.87
 20
63.5825
 30
0.0
 11
101.87
 21
62.5821
 31
0.0
  0
LINE
  8
0
 62
     0
 10
101.87
 20
62.5821
 30
0.0
 11
101.071
 21
62.5821
 31
0.0
  0
LINE
  8
0
 62
     0
 10
101.071
 20
62.5821
 30
0.0
 11
101.071
 21
59.4815
 31
0.0
  0
LINE
  8
0
 62
     0
 10
101.071
 20
59.4815
 30
0.0
 11
101.87
 21
59.4815
 31
0.0
  0
LINE
  8
0
 62
     0
 10
101.87
 20
59.4815
 30
0.0
 11
101.87
 21
53.6829
 31
0.0
  0
LINE
  8
0
 62
     0
 10
101.87
 20
53.6829
 30
0.0
 11
101.071
 21
53.6829
 31
0.0
  0
LINE
  8
0
 62
     0
 10
101.071
 20
53.6829
 30
0.0
 11
101.071
 21
50.5823
 31
0.0
  0
LINE
  8
0
 62
     0
 10
101.071
 20
50.5823
 30
0.0
 11
101.87
 21
50.5823
 31
0.0
  0
LINE
  8
0
 62
     0
 10
101.87
 20
50.5823
 30
0.0
 11
101.87
 21
49.5819
 31
0.0
  0
LINE
  8
0
 62
     0
 10
101.87
 20
49.5819
 30
0.0
 11
115.871
 21
49.5819
 31
0.0
  0
LINE
  8
0
 62
     0
 10
115.871
 20
49.5819
 30
0.0
 11
115.871
 21
50.5823
 31
0.0
  0
LINE
  8
0
 62
     0
 10
115.871
 20
50.5823
 30
0.0
 11
116.67
 21
50.5823
 31
0.0
  0
LINE
  8
0
 62
     0
 10
116.67
 20
50.5823
 30
0.0
 11
116.67
 21
53.6829
 31
0.0
  0
LINE
  8
0
 62
     0
 10
116.67
 20
53.6829
 30
0.0
 11
115.871
 21
53.6829
 31
0.0
  0
LINE
  8
0
 62
     0
 10
115.871
 20
53.6829
 30
0.0
 11
115.871
 21
59.4815
 31
0.0
  0
LINE
  8
0
 62
     0
 10
115.871
 20
59.4815
 30
0.0
 11
116.67
 21
59.4815
 31
0.0
  0
LINE
  8
0
 62
     0
 10
116.67
 20
59.4815
 30
0.0
 11
116.67
 21
62.5821
 31
0.0
  0
LINE
  8
0
 62
     0
 10
116.67
 20
62.5821
 30
0.0
 11
115.871
 21
62.5821
 31
0.0
  0
LINE
  8
0
 62
     0
 10
115.871
 20
62.5821
 30
0.0
 11
115.871
 21
63.5825
 31
0.0
  0
LINE
  8
0
 62
     0
 10
115.871
 20
63.5825
 30
0.0
 11
101.87
 21
63.5825
 31
0.0
  0
LINE
  8
0
 62
     0
 10
82.8202
 20
63.5825
 30
0.0
 11
82.8202
 21
62.5821
 31
0.0
  0
LINE
  8
0
 62
     0
 10
82.8202
 20
62.5821
 30
0.0
 11
82.0208
 21
62.5821
 31
0.0
  0
LINE
  8
0
 62
     0
 10
82.0208
 20
62.5821
 30
0.0
 11
82.0208
 21
59.4815
 31
0.0
  0
LINE
  8
0
 62
     0
 10
82.0208
 20
59.4815
 30
0.0
 11
82.8202
 21
59.4815
 31
0.0
  0
LINE
  8
0
 62
     0
 10
82.8202
 20
59.4815
 30
0.0
 11
82.8202
 21
53.6829
 31
0.0
  0
LINE
  8
0
 62
     0
 10
82.8202
 20
53.6829
 30
0.0
 11
82.0208
 21
53.6829
 31
0.0
  0
LINE
  8
0
 62
     0
 10
82.0208
 20
53.6829
 30
0.0
 11
82.0208
 21
50.5823
 31
0.0
  0
LINE
  8
0
 62
     0
 10
82.0208
 20
50.5823
 30
0.0
 11
82.8202
 21
50.5823
 31
0.0
  0
LINE
  8
0
 62
     0
 10
82.8202
 20
50.5823
 30
0.0
 11
82.8202
 21
49.5819
 31
0.0
  0
LINE
  8
0
 62
     0
 10
82.8202
 20
49.5819
 30
0.0
 11
96.8209
 21
49.5819
 31
0.0
  0
LINE
  8
0
 62
     0
 10
96.8209
 20
49.5819
 30
0.0
 11
96.8209
 21
50.5823
 31
0.0
  0
LINE
  8
0
 62
     0
 10
96.8209
 20
50.5823
 30
0.0
 11
97.6203
 21
50.5823
 31
0.0
  0
LINE
  8
0
 62
     0
 10
97.6203
 20
50.5823
 30
0.0
 11
97.6203
 21
53.6829
 31
0.0
  0
LINE
  8
0
 62
     0
 10
97.6203
 20
53.6829
 30
0.0
 11
96.8209
 21
53.6829
 31
0.0
  0
LINE
  8
0
 62
     0
 10
96.8209
 20
53.6829
 30
0.0
 11
96.8209
 21
59.4815
 31
0.0
  0
LINE
  8
0
 62
     0
 10
96.8209
 20
59.4815
 30
0.0
 11
97.6203
 21
59.4815
 31
0.0
  0
LINE
  8
0
 62
     0
 10
97.6203
 20
59.4815
 30
0.0
 11
97.6203
 21
62.5821
 31
0.0
  0
LINE
  8
0
 62
     0
 10
97.6203
 20
62.5821
 30
0.0
 11
96.8209
 21
62.5821
 31
0.0
  0
LINE
  8
0
 62
     0
 10
96.8209
 20
62.5821
 30
0.0
 11
96.8209
 21
63.5825
 31
0.0
  0
LINE
  8
0
 62
     0
 10
96.8209
 20
63.5825
 30
0.0
 11
82.8202
 21
63.5825
 31
0.0
  0
LINE
  8
0
 62
     0
 10
63.7702
 20
63.5825
 30
0.0
 11
63.7702
 21
62.5821
 31
0.0
  0
LINE
  8
0
 62
     0
 10
63.7702
 20
62.5821
 30
0.0
 11
62.9708
 21
62.5821
 31
0.0
  0
LINE
  8
0
 62
     0
 10
62.9708
 20
62.5821
 30
0.0
 11
62.9708
 21
59.4815
 31
0.0
  0
LINE
  8
0
 62
     0
 10
62.9708
 20
59.4815
 30
0.0
 11
63.7702
 21
59.4815
 31
0.0
  0
LINE
  8
0
 62
     0
 10
63.7702
 20
59.4815
 30
0.0
 11
63.7702
 21
53.6829
 31
0.0
  0
LINE
  8
0
 62
     0
 10
63.7702
 20
53.6829
 30
0.0
 11
62.9708
 21
53.6829
 31
0.0
  0
LINE
  8
0
 62
     0
 10
62.9708
 20
53.6829
 30
0.0
 11
62.9708
 21
50.5823
 31
0.0
  0
LINE
  8
0
 62
     0
 10
62.9708
 20
50.5823
 30
0.0
 11
63.7702
 21
50.5823
 31
0.0
  0
LINE
  8
0
 62
     0
 10
63.7702
 20
50.5823
 30
0.0
 11
63.7702
 21
49.5819
 31
0.0
  0
LINE
  8
0
 62
     0
 10
63.7702
 20
49.5819
 30
0.0
 11
77.7709
 21
49.5819
 31
0.0
  0
LINE
  8
0
 62
     0
 10
77.7709
 20
49.5819
 30
0.0
 11
77.7709
 21
50.5823
 31
0.0
  0
LINE
  8
0
 62
     0
 10
77.7709
 20
50.5823
 30
0.0
 11
78.5703
 21
50.5823
 31
0.0
  0
LINE
  8
0
 62
     0
 10
78.5703
 20
50.5823
 30
0.0
 11
78.5703
 21
53.6829
 31
0.0
  0
LINE
  8
0
 62
     0
 10
78.5703
 20
53.6829
 30
0.0
 11
77.7709
 21
53.6829
 31
0.0
  0
LINE
  8
0
 62
     0
 10
77.7709
 20
53.6829
 30
0.0
 11
77.7709
 21
59.4815
 31
0.0
  0
LINE
  8
0
 62
     0
 10
77.7709
 20
59.4815
 30
0.0
 11
78.5703
 21
59.4815
 31
0.0
  0
LINE
  8
0
 62
     0
 10
78.5703
 20
59.4815
 30
0.0
 11
78.5703
 21
62.5821
 31
0.0
  0
LINE
  8
0
 62
     0
 10
78.5703
 20
62.5821
 30
0.0
 11
77.7709
 21
62.5821
 31
0.0
  0
LINE
  8
0
 62
     0
 10
77.7709
 20
62.5821
 30
0.0
 11
77.7709
 21
63.5825
 31
0.0
  0
LINE
  8
0
 62
     0
 10
77.7709
 20
63.5825
 30
0.0
 11
63.7702
 21
63.5825
 31
0.0
  0
LINE
  8
0
 62
     0
 10
37.5765
 20
63.5825
 30
0.0
 11
37.5765
 21
62.5821
 31
0.0
  0
LINE
  8
0
 62
     0
 10
37.5765
 20
62.5821
 30
0.0
 11
36.7771
 21
62.5821
 31
0.0
  0
LINE
  8
0
 62
     0
 10
36.7771
 20
62.5821
 30
0.0
 11
36.7771
 21
59.4815
 31
0.0
  0
LINE
  8
0
 62
     0
 10
36.7771
 20
59.4815
 30
0.0
 11
37.5765
 21
59.4815
 31
0.0
  0
LINE
  8
0
 62
     0
 10
37.5765
 20
59.4815
 30
0.0
 11
37.5765
 21
53.6829
 31
0.0
  0
LINE
  8
0
 62
     0
 10
37.5765
 20
53.6829
 30
0.0
 11
36.7771
 21
53.6829
 31
0.0
  0
LINE
  8
0
 62
     0
 10
36.7771
 20
53.6829
 30
0.0
 11
36.7771
 21
50.5823
 31
0.0
  0
LINE
  8
0
 62
     0
 10
36.7771
 20
50.5823
 30
0.0
 11
37.5765
 21
50.5823
 31
0.0
  0
LINE
  8
0
 62
     0
 10
37.5765
 20
50.5823
 30
0.0
 11
37.5765
 21
49.5819
 31
0.0
  0
LINE
  8
0
 62
     0
 10
37.5765
 20
49.5819
 30
0.0
 11
51.5758
 21
49.5819
 31
0.0
  0
LINE
  8
0
 62
     0
 10
51.5758
 20
49.5819
 30
0.0
 11
51.5758
 21
50.5823
 31
0.0
  0
LINE
  8
0
 62
     0
 10
51.5758
 20
50.5823
 30
0.0
 11
52.3766
 21
50.5823
 31
0.0
  0
LINE
  8
0
 62
     0
 10
52.3766
 20
50.5823
 30
0.0
 11
52.3766
 21
53.6829
 31
0.0
  0
LINE
  8
0
 62
     0
 10
52.3766
 20
53.6829
 30
0.0
 11
51.5758
 21
53.6829
 31
0.0
  0
LINE
  8
0
 62
     0
 10
51.5758
 20
53.6829
 30
0.0
 11
51.5758
 21
59.4815
 31
0.0
  0
LINE
  8
0
 62
     0
 10
51.5758
 20
59.4815
 30
0.0
 11
52.3766
 21
59.4815
 31
0.0
  0
LINE
  8
0
 62
     0
 10
52.3766
 20
59.4815
 30
0.0
 11
52.3766
 21
62.5821
 31
0.0
  0
LINE
  8
0
 62
     0
 10
52.3766
 20
62.5821
 30
0.0
 11
51.5758
 21
62.5821
 31
0.0
  0
LINE
  8
0
 62
     0
 10
51.5758
 20
62.5821
 30
0.0
 11
51.5758
 21
63.5825
 31
0.0
  0
LINE
  8
0
 62
     0
 10
51.5758
 20
63.5825
 30
0.0
 11
37.5765
 21
63.5825
 31
0.0
  0
LINE
  8
0
 62
     0
 10
6.62009
 20
63.5825
 30
0.0
 11
6.62009
 21
62.5821
 31
0.0
  0
LINE
  8
0
 62
     0
 10
6.62009
 20
62.5821
 30
0.0
 11
5.81946
 21
62.5821
 31
0.0
  0
LINE
  8
0
 62
     0
 10
5.81946
 20
62.5821
 30
0.0
 11
5.81946
 21
59.4815
 31
0.0
  0
LINE
  8
0
 62
     0
 10
5.81946
 20
59.4815
 30
0.0
 11
6.62009
 21
59.4815
 31
0.0
  0
LINE
  8
0
 62
     0
 10
6.62009
 20
59.4815
 30
0.0
 11
6.62009
 21
53.6829
 31
0.0
  0
LINE
  8
0
 62
     0
 10
6.62009
 20
53.6829
 30
0.0
 11
5.81946
 21
53.6829
 31
0.0
  0
LINE
  8
0
 62
     0
 10
5.81946
 20
53.6829
 30
0.0
 11
5.81946
 21
50.5823
 31
0.0
  0
LINE
  8
0
 62
     0
 10
5.81946
 20
50.5823
 30
0.0
 11
6.62009
 21
50.5823
 31
0.0
  0
LINE
  8
0
 62
     0
 10
6.62009
 20
50.5823
 30
0.0
 11
6.62009
 21
49.5819
 31
0.0
  0
LINE
  8
0
 62
     0
 10
6.62009
 20
49.5819
 30
0.0
 11
20.621
 21
49.5819
 31
0.0
  0
LINE
  8
0
 62
     0
 10
20.621
 20
49.5819
 30
0.0
 11
20.621
 21
50.5823
 31
0.0
  0
LINE
  8
0
 62
     0
 10
20.621
 20
50.5823
 30
0.0
 11
21.4202
 21
50.5823
 31
0.0
  0
LINE
  8
0
 62
     0
 10
21.4202
 20
50.5823
 30
0.0
 11
21.4202
 21
53.6829
 31
0.0
  0
LINE
  8
0
 62
     0
 10
21.4202
 20
53.6829
 30
0.0
 11
20.621
 21
53.6829
 31
0.0
  0
LINE
  8
0
 62
     0
 10
20.621
 20
53.6829
 30
0.0
 11
20.621
 21
59.4815
 31
0.0
  0
LINE
  8
0
 62
     0
 10
20.621
 20
59.4815
 30
0.0
 11
21.4202
 21
59.4815
 31
0.0
  0
LINE
  8
0
 62
     0
 10
21.4202
 20
59.4815
 30
0.0
 11
21.4202
 21
62.5821
 31
0.0
  0
LINE
  8
0
 62
     0
 10
21.4202
 20
62.5821
 30
0.0
 11
20.621
 21
62.5821
 31
0.0
  0
LINE
  8
0
 62
     0
 10
20.621
 20
62.5821
 30
0.0
 11
20.621
 21
63.5825
 31
0.0
  0
LINE
  8
0
 62
     0
 10
20.621
 20
63.5825
 30
0.0
 11
6.62009
 21
63.5825
 31
0.0
  0
LINE
  8
0
 62
     0
 10
327.445
 20
82.2067
 30
0.0
 11
327.445
 21
81.3827
 31
0.0
  0
LINE
  8
0
 62
     0
 10
327.445
 20
81.3827
 30
0.0
 11
321.175
 21
81.3827
 31
0.0
  0
LINE
  8
0
 62
     0
 10
321.175
 20
81.3827
 30
0.0
 11
321.175
 21
79.6576
 31
0.0
  0
LINE
  8
0
 62
     0
 10
321.175
 20
79.6576
 30
0.0
 11
319.975
 21
79.6576
 31
0.0
  0
LINE
  8
0
 62
     0
 10
319.975
 20
79.6576
 30
0.0
 11
319.975
 21
76.357
 31
0.0
  0
LINE
  8
0
 62
     0
 10
319.975
 20
76.357
 30
0.0
 11
321.175
 21
76.357
 31
0.0
  0
LINE
  8
0
 62
     0
 10
321.175
 20
76.357
 30
0.0
 11
321.175
 21
74.6319
 31
0.0
  0
LINE
  8
0
 62
     0
 10
321.175
 20
74.6319
 30
0.0
 11
325.646
 21
74.6319
 31
0.0
  0
LINE
  8
0
 62
     0
 10
325.646
 20
74.6319
 30
0.0
 11
325.646
 21
73.1075
 31
0.0
  0
LINE
  8
0
 62
     0
 10
325.646
 20
73.1075
 30
0.0
 11
325.046
 21
73.1075
 31
0.0
  0
LINE
  8
0
 62
     0
 10
325.046
 20
73.1075
 30
0.0
 11
325.046
 21
73.9069
 31
0.0
  0
LINE
  8
0
 62
     0
 10
325.046
 20
73.9069
 30
0.0
 11
321.946
 21
73.9069
 31
0.0
  0
LINE
  8
0
 62
     0
 10
321.946
 20
73.9069
 30
0.0
 11
321.946
 21
73.1075
 31
0.0
  0
LINE
  8
0
 62
     0
 10
321.946
 20
73.1075
 30
0.0
 11
320.945
 21
73.1075
 31
0.0
  0
LINE
  8
0
 62
     0
 10
320.945
 20
73.1075
 30
0.0
 11
320.945
 21
59.1069
 31
0.0
  0
LINE
  8
0
 62
     0
 10
320.945
 20
59.1069
 30
0.0
 11
321.946
 21
59.1069
 31
0.0
  0
LINE
  8
0
 62
     0
 10
321.946
 20
59.1069
 30
0.0
 11
321.946
 21
58.3075
 31
0.0
  0
LINE
  8
0
 62
     0
 10
321.946
 20
58.3075
 30
0.0
 11
325.046
 21
58.3075
 31
0.0
  0
LINE
  8
0
 62
     0
 10
325.046
 20
58.3075
 30
0.0
 11
325.046
 21
59.1069
 31
0.0
  0
LINE
  8
0
 62
     0
 10
325.046
 20
59.1069
 30
0.0
 11
325.646
 21
59.1069
 31
0.0
  0
LINE
  8
0
 62
     0
 10
325.646
 20
59.1069
 30
0.0
 11
325.646
 21
57.5829
 31
0.0
  0
LINE
  8
0
 62
     0
 10
325.646
 20
57.5829
 30
0.0
 11
321.175
 21
57.5829
 31
0.0
  0
LINE
  8
0
 62
     0
 10
321.175
 20
57.5829
 30
0.0
 11
321.175
 21
55.8574
 31
0.0
  0
LINE
  8
0
 62
     0
 10
321.175
 20
55.8574
 30
0.0
 11
319.975
 21
55.8574
 31
0.0
  0
LINE
  8
0
 62
     0
 10
319.975
 20
55.8574
 30
0.0
 11
319.975
 21
52.5568
 31
0.0
  0
LINE
  8
0
 62
     0
 10
319.975
 20
52.5568
 30
0.0
 11
321.175
 21
52.5568
 31
0.0
  0
LINE
  8
0
 62
     0
 10
321.175
 20
52.5568
 30
0.0
 11
321.175
 21
50.8317
 31
0.0
  0
LINE
  8
0
 62
     0
 10
321.175
 20
50.8317
 30
0.0
 11
327.445
 21
50.8317
 31
0.0
  0
LINE
  8
0
 62
     0
 10
327.445
 20
50.8317
 30
0.0
 11
327.445
 21
50.0077
 31
0.0
  0
LINE
  8
0
 62
     0
 10
327.445
 20
50.0077
 30
0.0
 11
330.246
 21
50.0077
 31
0.0
  0
LINE
  8
0
 62
     0
 10
330.246
 20
50.0077
 30
0.0
 11
330.246
 21
50.8317
 31
0.0
  0
LINE
  8
0
 62
     0
 10
330.246
 20
50.8317
 30
0.0
 11
333.476
 21
50.8317
 31
0.0
  0
LINE
  8
0
 62
     0
 10
333.476
 20
50.8317
 30
0.0
 11
333.476
 21
57.5829
 31
0.0
  0
LINE
  8
0
 62
     0
 10
333.476
 20
57.5829
 30
0.0
 11
330.246
 21
57.5829
 31
0.0
  0
LINE
  8
0
 62
     0
 10
330.246
 20
57.5829
 30
0.0
 11
330.246
 21
59.1069
 31
0.0
  0
LINE
  8
0
 62
     0
 10
330.246
 20
59.1069
 30
0.0
 11
330.845
 21
59.1069
 31
0.0
  0
LINE
  8
0
 62
     0
 10
330.845
 20
59.1069
 30
0.0
 11
330.845
 21
58.3075
 31
0.0
  0
LINE
  8
0
 62
     0
 10
330.845
 20
58.3075
 30
0.0
 11
333.945
 21
58.3075
 31
0.0
  0
LINE
  8
0
 62
     0
 10
333.945
 20
58.3075
 30
0.0
 11
333.945
 21
59.1069
 31
0.0
  0
LINE
  8
0
 62
     0
 10
333.945
 20
59.1069
 30
0.0
 11
334.946
 21
59.1069
 31
0.0
  0
LINE
  8
0
 62
     0
 10
334.946
 20
59.1069
 30
0.0
 11
334.946
 21
73.1075
 31
0.0
  0
LINE
  8
0
 62
     0
 10
334.946
 20
73.1075
 30
0.0
 11
333.945
 21
73.1075
 31
0.0
  0
LINE
  8
0
 62
     0
 10
333.945
 20
73.1075
 30
0.0
 11
333.945
 21
73.9069
 31
0.0
  0
LINE
  8
0
 62
     0
 10
333.945
 20
73.9069
 30
0.0
 11
330.845
 21
73.9069
 31
0.0
  0
LINE
  8
0
 62
     0
 10
330.845
 20
73.9069
 30
0.0
 11
330.845
 21
73.1075
 31
0.0
  0
LINE
  8
0
 62
     0
 10
330.845
 20
73.1075
 30
0.0
 11
330.246
 21
73.1075
 31
0.0
  0
LINE
  8
0
 62
     0
 10
330.246
 20
73.1075
 30
0.0
 11
330.246
 21
74.6319
 31
0.0
  0
LINE
  8
0
 62
     0
 10
330.246
 20
74.6319
 30
0.0
 11
333.476
 21
74.6319
 31
0.0
  0
LINE
  8
0
 62
     0
 10
333.476
 20
74.6319
 30
0.0
 11
333.476
 21
81.3827
 31
0.0
  0
LINE
  8
0
 62
     0
 10
333.476
 20
81.3827
 30
0.0
 11
330.246
 21
81.3827
 31
0.0
  0
LINE
  8
0
 62
     0
 10
330.246
 20
81.3827
 30
0.0
 11
330.246
 21
82.2067
 31
0.0
  0
LINE
  8
0
 62
     0
 10
330.246
 20
82.2067
 30
0.0
 11
327.445
 21
82.2067
 31
0.0
  0
LINE
  8
0
 62
     0
 10
292.37
 20
82.6325
 30
0.0
 11
292.37
 21
81.6321
 31
0.0
  0
LINE
  8
0
 62
     0
 10
292.37
 20
81.6321
 30
0.0
 11
291.571
 21
81.6321
 31
0.0
  0
LINE
  8
0
 62
     0
 10
291.571
 20
81.6321
 30
0.0
 11
291.571
 21
78.5315
 31
0.0
  0
LINE
  8
0
 62
     0
 10
291.571
 20
78.5315
 30
0.0
 11
292.37
 21
78.5315
 31
0.0
  0
LINE
  8
0
 62
     0
 10
292.37
 20
78.5315
 30
0.0
 11
292.37
 21
72.7329
 31
0.0
  0
LINE
  8
0
 62
     0
 10
292.37
 20
72.7329
 30
0.0
 11
291.571
 21
72.7329
 31
0.0
  0
LINE
  8
0
 62
     0
 10
291.571
 20
72.7329
 30
0.0
 11
291.571
 21
69.6323
 31
0.0
  0
LINE
  8
0
 62
     0
 10
291.571
 20
69.6323
 30
0.0
 11
292.37
 21
69.6323
 31
0.0
  0
LINE
  8
0
 62
     0
 10
292.37
 20
69.6323
 30
0.0
 11
292.37
 21
68.6319
 31
0.0
  0
LINE
  8
0
 62
     0
 10
292.37
 20
68.6319
 30
0.0
 11
306.371
 21
68.6319
 31
0.0
  0
LINE
  8
0
 62
     0
 10
306.371
 20
68.6319
 30
0.0
 11
306.371
 21
69.6323
 31
0.0
  0
LINE
  8
0
 62
     0
 10
306.371
 20
69.6323
 30
0.0
 11
307.17
 21
69.6323
 31
0.0
  0
LINE
  8
0
 62
     0
 10
307.17
 20
69.6323
 30
0.0
 11
307.17
 21
72.7329
 31
0.0
  0
LINE
  8
0
 62
     0
 10
307.17
 20
72.7329
 30
0.0
 11
306.371
 21
72.7329
 31
0.0
  0
LINE
  8
0
 62
     0
 10
306.371
 20
72.7329
 30
0.0
 11
306.371
 21
78.5315
 31
0.0
  0
LINE
  8
0
 62
     0
 10
306.371
 20
78.5315
 30
0.0
 11
307.17
 21
78.5315
 31
0.0
  0
LINE
  8
0
 62
     0
 10
307.17
 20
78.5315
 30
0.0
 11
307.17
 21
81.6321
 31
0.0
  0
LINE
  8
0
 62
     0
 10
307.17
 20
81.6321
 30
0.0
 11
306.371
 21
81.6321
 31
0.0
  0
LINE
  8
0
 62
     0
 10
306.371
 20
81.6321
 30
0.0
 11
306.371
 21
82.6325
 31
0.0
  0
LINE
  8
0
 62
     0
 10
306.371
 20
82.6325
 30
0.0
 11
292.37
 21
82.6325
 31
0.0
  0
LINE
  8
0
 62
     0
 10
268.558
 20
82.6325
 30
0.0
 11
268.558
 21
81.6321
 31
0.0
  0
LINE
  8
0
 62
     0
 10
268.558
 20
81.6321
 30
0.0
 11
267.757
 21
81.6321
 31
0.0
  0
LINE
  8
0
 62
     0
 10
267.757
 20
81.6321
 30
0.0
 11
267.757
 21
78.5315
 31
0.0
  0
LINE
  8
0
 62
     0
 10
267.757
 20
78.5315
 30
0.0
 11
268.558
 21
78.5315
 31
0.0
  0
LINE
  8
0
 62
     0
 10
268.558
 20
78.5315
 30
0.0
 11
268.558
 21
72.7329
 31
0.0
  0
LINE
  8
0
 62
     0
 10
268.558
 20
72.7329
 30
0.0
 11
267.757
 21
72.7329
 31
0.0
  0
LINE
  8
0
 62
     0
 10
267.757
 20
72.7329
 30
0.0
 11
267.757
 21
69.6323
 31
0.0
  0
LINE
  8
0
 62
     0
 10
267.757
 20
69.6323
 30
0.0
 11
268.558
 21
69.6323
 31
0.0
  0
LINE
  8
0
 62
     0
 10
268.558
 20
69.6323
 30
0.0
 11
268.558
 21
68.6319
 31
0.0
  0
LINE
  8
0
 62
     0
 10
268.558
 20
68.6319
 30
0.0
 11
282.557
 21
68.6319
 31
0.0
  0
LINE
  8
0
 62
     0
 10
282.557
 20
68.6319
 30
0.0
 11
282.557
 21
69.6323
 31
0.0
  0
LINE
  8
0
 62
     0
 10
282.557
 20
69.6323
 30
0.0
 11
283.358
 21
69.6323
 31
0.0
  0
LINE
  8
0
 62
     0
 10
283.358
 20
69.6323
 30
0.0
 11
283.358
 21
72.7329
 31
0.0
  0
LINE
  8
0
 62
     0
 10
283.358
 20
72.7329
 30
0.0
 11
282.557
 21
72.7329
 31
0.0
  0
LINE
  8
0
 62
     0
 10
282.557
 20
72.7329
 30
0.0
 11
282.557
 21
78.5315
 31
0.0
  0
LINE
  8
0
 62
     0
 10
282.557
 20
78.5315
 30
0.0
 11
283.358
 21
78.5315
 31
0.0
  0
LINE
  8
0
 62
     0
 10
283.358
 20
78.5315
 30
0.0
 11
283.358
 21
81.6321
 31
0.0
  0
LINE
  8
0
 62
     0
 10
283.358
 20
81.6321
 30
0.0
 11
282.557
 21
81.6321
 31
0.0
  0
LINE
  8
0
 62
     0
 10
282.557
 20
81.6321
 30
0.0
 11
282.557
 21
82.6325
 31
0.0
  0
LINE
  8
0
 62
     0
 10
282.557
 20
82.6325
 30
0.0
 11
268.558
 21
82.6325
 31
0.0
  0
LINE
  8
0
 62
     0
 10
249.508
 20
82.6325
 30
0.0
 11
249.508
 21
81.6321
 31
0.0
  0
LINE
  8
0
 62
     0
 10
249.508
 20
81.6321
 30
0.0
 11
248.707
 21
81.6321
 31
0.0
  0
LINE
  8
0
 62
     0
 10
248.707
 20
81.6321
 30
0.0
 11
248.707
 21
78.5315
 31
0.0
  0
LINE
  8
0
 62
     0
 10
248.707
 20
78.5315
 30
0.0
 11
249.508
 21
78.5315
 31
0.0
  0
LINE
  8
0
 62
     0
 10
249.508
 20
78.5315
 30
0.0
 11
249.508
 21
72.7329
 31
0.0
  0
LINE
  8
0
 62
     0
 10
249.508
 20
72.7329
 30
0.0
 11
248.707
 21
72.7329
 31
0.0
  0
LINE
  8
0
 62
     0
 10
248.707
 20
72.7329
 30
0.0
 11
248.707
 21
69.6323
 31
0.0
  0
LINE
  8
0
 62
     0
 10
248.707
 20
69.6323
 30
0.0
 11
249.508
 21
69.6323
 31
0.0
  0
LINE
  8
0
 62
     0
 10
249.508
 20
69.6323
 30
0.0
 11
249.508
 21
68.6319
 31
0.0
  0
LINE
  8
0
 62
     0
 10
249.508
 20
68.6319
 30
0.0
 11
263.507
 21
68.6319
 31
0.0
  0
LINE
  8
0
 62
     0
 10
263.507
 20
68.6319
 30
0.0
 11
263.507
 21
69.6323
 31
0.0
  0
LINE
  8
0
 62
     0
 10
263.507
 20
69.6323
 30
0.0
 11
264.308
 21
69.6323
 31
0.0
  0
LINE
  8
0
 62
     0
 10
264.308
 20
69.6323
 30
0.0
 11
264.308
 21
72.7329
 31
0.0
  0
LINE
  8
0
 62
     0
 10
264.308
 20
72.7329
 30
0.0
 11
263.507
 21
72.7329
 31
0.0
  0
LINE
  8
0
 62
     0
 10
263.507
 20
72.7329
 30
0.0
 11
263.507
 21
78.5315
 31
0.0
  0
LINE
  8
0
 62
     0
 10
263.507
 20
78.5315
 30
0.0
 11
264.308
 21
78.5315
 31
0.0
  0
LINE
  8
0
 62
     0
 10
264.308
 20
78.5315
 30
0.0
 11
264.308
 21
81.6321
 31
0.0
  0
LINE
  8
0
 62
     0
 10
264.308
 20
81.6321
 30
0.0
 11
263.507
 21
81.6321
 31
0.0
  0
LINE
  8
0
 62
     0
 10
263.507
 20
81.6321
 30
0.0
 11
263.507
 21
82.6325
 31
0.0
  0
LINE
  8
0
 62
     0
 10
263.507
 20
82.6325
 30
0.0
 11
249.508
 21
82.6325
 31
0.0
  0
LINE
  8
0
 62
     0
 10
230.458
 20
82.6325
 30
0.0
 11
230.458
 21
81.6321
 31
0.0
  0
LINE
  8
0
 62
     0
 10
230.458
 20
81.6321
 30
0.0
 11
229.657
 21
81.6321
 31
0.0
  0
LINE
  8
0
 62
     0
 10
229.657
 20
81.6321
 30
0.0
 11
229.657
 21
78.5315
 31
0.0
  0
LINE
  8
0
 62
     0
 10
229.657
 20
78.5315
 30
0.0
 11
230.458
 21
78.5315
 31
0.0
  0
LINE
  8
0
 62
     0
 10
230.458
 20
78.5315
 30
0.0
 11
230.458
 21
72.7329
 31
0.0
  0
LINE
  8
0
 62
     0
 10
230.458
 20
72.7329
 30
0.0
 11
229.657
 21
72.7329
 31
0.0
  0
LINE
  8
0
 62
     0
 10
229.657
 20
72.7329
 30
0.0
 11
229.657
 21
69.6323
 31
0.0
  0
LINE
  8
0
 62
     0
 10
229.657
 20
69.6323
 30
0.0
 11
230.458
 21
69.6323
 31
0.0
  0
LINE
  8
0
 62
     0
 10
230.458
 20
69.6323
 30
0.0
 11
230.458
 21
68.6319
 31
0.0
  0
LINE
  8
0
 62
     0
 10
230.458
 20
68.6319
 30
0.0
 11
244.457
 21
68.6319
 31
0.0
  0
LINE
  8
0
 62
     0
 10
244.457
 20
68.6319
 30
0.0
 11
244.457
 21
69.6323
 31
0.0
  0
LINE
  8
0
 62
     0
 10
244.457
 20
69.6323
 30
0.0
 11
245.258
 21
69.6323
 31
0.0
  0
LINE
  8
0
 62
     0
 10
245.258
 20
69.6323
 30
0.0
 11
245.258
 21
72.7329
 31
0.0
  0
LINE
  8
0
 62
     0
 10
245.258
 20
72.7329
 30
0.0
 11
244.457
 21
72.7329
 31
0.0
  0
LINE
  8
0
 62
     0
 10
244.457
 20
72.7329
 30
0.0
 11
244.457
 21
78.5315
 31
0.0
  0
LINE
  8
0
 62
     0
 10
244.457
 20
78.5315
 30
0.0
 11
245.258
 21
78.5315
 31
0.0
  0
LINE
  8
0
 62
     0
 10
245.258
 20
78.5315
 30
0.0
 11
245.258
 21
81.6321
 31
0.0
  0
LINE
  8
0
 62
     0
 10
245.258
 20
81.6321
 30
0.0
 11
244.457
 21
81.6321
 31
0.0
  0
LINE
  8
0
 62
     0
 10
244.457
 20
81.6321
 30
0.0
 11
244.457
 21
82.6325
 31
0.0
  0
LINE
  8
0
 62
     0
 10
244.457
 20
82.6325
 30
0.0
 11
230.458
 21
82.6325
 31
0.0
  0
LINE
  8
0
 62
     0
 10
211.408
 20
82.6325
 30
0.0
 11
211.408
 21
81.6321
 31
0.0
  0
LINE
  8
0
 62
     0
 10
211.408
 20
81.6321
 30
0.0
 11
210.607
 21
81.6321
 31
0.0
  0
LINE
  8
0
 62
     0
 10
210.607
 20
81.6321
 30
0.0
 11
210.607
 21
78.5315
 31
0.0
  0
LINE
  8
0
 62
     0
 10
210.607
 20
78.5315
 30
0.0
 11
211.408
 21
78.5315
 31
0.0
  0
LINE
  8
0
 62
     0
 10
211.408
 20
78.5315
 30
0.0
 11
211.408
 21
72.7329
 31
0.0
  0
LINE
  8
0
 62
     0
 10
211.408
 20
72.7329
 30
0.0
 11
210.607
 21
72.7329
 31
0.0
  0
LINE
  8
0
 62
     0
 10
210.607
 20
72.7329
 30
0.0
 11
210.607
 21
69.6323
 31
0.0
  0
LINE
  8
0
 62
     0
 10
210.607
 20
69.6323
 30
0.0
 11
211.408
 21
69.6323
 31
0.0
  0
LINE
  8
0
 62
     0
 10
211.408
 20
69.6323
 30
0.0
 11
211.408
 21
68.6319
 31
0.0
  0
LINE
  8
0
 62
     0
 10
211.408
 20
68.6319
 30
0.0
 11
225.407
 21
68.6319
 31
0.0
  0
LINE
  8
0
 62
     0
 10
225.407
 20
68.6319
 30
0.0
 11
225.407
 21
69.6323
 31
0.0
  0
LINE
  8
0
 62
     0
 10
225.407
 20
69.6323
 30
0.0
 11
226.208
 21
69.6323
 31
0.0
  0
LINE
  8
0
 62
     0
 10
226.208
 20
69.6323
 30
0.0
 11
226.208
 21
72.7329
 31
0.0
  0
LINE
  8
0
 62
     0
 10
226.208
 20
72.7329
 30
0.0
 11
225.407
 21
72.7329
 31
0.0
  0
LINE
  8
0
 62
     0
 10
225.407
 20
72.7329
 30
0.0
 11
225.407
 21
78.5315
 31
0.0
  0
LINE
  8
0
 62
     0
 10
225.407
 20
78.5315
 30
0.0
 11
226.208
 21
78.5315
 31
0.0
  0
LINE
  8
0
 62
     0
 10
226.208
 20
78.5315
 30
0.0
 11
226.208
 21
81.6321
 31
0.0
  0
LINE
  8
0
 62
     0
 10
226.208
 20
81.6321
 30
0.0
 11
225.407
 21
81.6321
 31
0.0
  0
LINE
  8
0
 62
     0
 10
225.407
 20
81.6321
 30
0.0
 11
225.407
 21
82.6325
 31
0.0
  0
LINE
  8
0
 62
     0
 10
225.407
 20
82.6325
 30
0.0
 11
211.408
 21
82.6325
 31
0.0
  0
LINE
  8
0
 62
     0
 10
192.358
 20
82.6325
 30
0.0
 11
192.358
 21
81.6321
 31
0.0
  0
LINE
  8
0
 62
     0
 10
192.358
 20
81.6321
 30
0.0
 11
191.557
 21
81.6321
 31
0.0
  0
LINE
  8
0
 62
     0
 10
191.557
 20
81.6321
 30
0.0
 11
191.557
 21
78.5315
 31
0.0
  0
LINE
  8
0
 62
     0
 10
191.557
 20
78.5315
 30
0.0
 11
192.358
 21
78.5315
 31
0.0
  0
LINE
  8
0
 62
     0
 10
192.358
 20
78.5315
 30
0.0
 11
192.358
 21
72.7329
 31
0.0
  0
LINE
  8
0
 62
     0
 10
192.358
 20
72.7329
 30
0.0
 11
191.557
 21
72.7329
 31
0.0
  0
LINE
  8
0
 62
     0
 10
191.557
 20
72.7329
 30
0.0
 11
191.557
 21
69.6323
 31
0.0
  0
LINE
  8
0
 62
     0
 10
191.557
 20
69.6323
 30
0.0
 11
192.358
 21
69.6323
 31
0.0
  0
LINE
  8
0
 62
     0
 10
192.358
 20
69.6323
 30
0.0
 11
192.358
 21
68.6319
 31
0.0
  0
LINE
  8
0
 62
     0
 10
192.358
 20
68.6319
 30
0.0
 11
206.357
 21
68.6319
 31
0.0
  0
LINE
  8
0
 62
     0
 10
206.357
 20
68.6319
 30
0.0
 11
206.357
 21
69.6323
 31
0.0
  0
LINE
  8
0
 62
     0
 10
206.357
 20
69.6323
 30
0.0
 11
207.158
 21
69.6323
 31
0.0
  0
LINE
  8
0
 62
     0
 10
207.158
 20
69.6323
 30
0.0
 11
207.158
 21
72.7329
 31
0.0
  0
LINE
  8
0
 62
     0
 10
207.158
 20
72.7329
 30
0.0
 11
206.357
 21
72.7329
 31
0.0
  0
LINE
  8
0
 62
     0
 10
206.357
 20
72.7329
 30
0.0
 11
206.357
 21
78.5315
 31
0.0
  0
LINE
  8
0
 62
     0
 10
206.357
 20
78.5315
 30
0.0
 11
207.158
 21
78.5315
 31
0.0
  0
LINE
  8
0
 62
     0
 10
207.158
 20
78.5315
 30
0.0
 11
207.158
 21
81.6321
 31
0.0
  0
LINE
  8
0
 62
     0
 10
207.158
 20
81.6321
 30
0.0
 11
206.357
 21
81.6321
 31
0.0
  0
LINE
  8
0
 62
     0
 10
206.357
 20
81.6321
 30
0.0
 11
206.357
 21
82.6325
 31
0.0
  0
LINE
  8
0
 62
     0
 10
206.357
 20
82.6325
 30
0.0
 11
192.358
 21
82.6325
 31
0.0
  0
LINE
  8
0
 62
     0
 10
173.308
 20
82.6325
 30
0.0
 11
173.308
 21
81.6321
 31
0.0
  0
LINE
  8
0
 62
     0
 10
173.308
 20
81.6321
 30
0.0
 11
172.507
 21
81.6321
 31
0.0
  0
LINE
  8
0
 62
     0
 10
172.507
 20
81.6321
 30
0.0
 11
172.507
 21
78.5315
 31
0.0
  0
LINE
  8
0
 62
     0
 10
172.507
 20
78.5315
 30
0.0
 11
173.308
 21
78.5315
 31
0.0
  0
LINE
  8
0
 62
     0
 10
173.308
 20
78.5315
 30
0.0
 11
173.308
 21
72.7329
 31
0.0
  0
LINE
  8
0
 62
     0
 10
173.308
 20
72.7329
 30
0.0
 11
172.507
 21
72.7329
 31
0.0
  0
LINE
  8
0
 62
     0
 10
172.507
 20
72.7329
 30
0.0
 11
172.507
 21
69.6323
 31
0.0
  0
LINE
  8
0
 62
     0
 10
172.507
 20
69.6323
 30
0.0
 11
173.308
 21
69.6323
 31
0.0
  0
LINE
  8
0
 62
     0
 10
173.308
 20
69.6323
 30
0.0
 11
173.308
 21
68.6319
 31
0.0
  0
LINE
  8
0
 62
     0
 10
173.308
 20
68.6319
 30
0.0
 11
187.307
 21
68.6319
 31
0.0
  0
LINE
  8
0
 62
     0
 10
187.307
 20
68.6319
 30
0.0
 11
187.307
 21
69.6323
 31
0.0
  0
LINE
  8
0
 62
     0
 10
187.307
 20
69.6323
 30
0.0
 11
188.108
 21
69.6323
 31
0.0
  0
LINE
  8
0
 62
     0
 10
188.108
 20
69.6323
 30
0.0
 11
188.108
 21
72.7329
 31
0.0
  0
LINE
  8
0
 62
     0
 10
188.108
 20
72.7329
 30
0.0
 11
187.307
 21
72.7329
 31
0.0
  0
LINE
  8
0
 62
     0
 10
187.307
 20
72.7329
 30
0.0
 11
187.307
 21
78.5315
 31
0.0
  0
LINE
  8
0
 62
     0
 10
187.307
 20
78.5315
 30
0.0
 11
188.108
 21
78.5315
 31
0.0
  0
LINE
  8
0
 62
     0
 10
188.108
 20
78.5315
 30
0.0
 11
188.108
 21
81.6321
 31
0.0
  0
LINE
  8
0
 62
     0
 10
188.108
 20
81.6321
 30
0.0
 11
187.307
 21
81.6321
 31
0.0
  0
LINE
  8
0
 62
     0
 10
187.307
 20
81.6321
 30
0.0
 11
187.307
 21
82.6325
 31
0.0
  0
LINE
  8
0
 62
     0
 10
187.307
 20
82.6325
 30
0.0
 11
173.308
 21
82.6325
 31
0.0
  0
LINE
  8
0
 62
     0
 10
154.258
 20
82.6325
 30
0.0
 11
154.258
 21
81.6321
 31
0.0
  0
LINE
  8
0
 62
     0
 10
154.258
 20
81.6321
 30
0.0
 11
153.457
 21
81.6321
 31
0.0
  0
LINE
  8
0
 62
     0
 10
153.457
 20
81.6321
 30
0.0
 11
153.457
 21
78.5315
 31
0.0
  0
LINE
  8
0
 62
     0
 10
153.457
 20
78.5315
 30
0.0
 11
154.258
 21
78.5315
 31
0.0
  0
LINE
  8
0
 62
     0
 10
154.258
 20
78.5315
 30
0.0
 11
154.258
 21
72.7329
 31
0.0
  0
LINE
  8
0
 62
     0
 10
154.258
 20
72.7329
 30
0.0
 11
153.457
 21
72.7329
 31
0.0
  0
LINE
  8
0
 62
     0
 10
153.457
 20
72.7329
 30
0.0
 11
153.457
 21
69.6323
 31
0.0
  0
LINE
  8
0
 62
     0
 10
153.457
 20
69.6323
 30
0.0
 11
154.258
 21
69.6323
 31
0.0
  0
LINE
  8
0
 62
     0
 10
154.258
 20
69.6323
 30
0.0
 11
154.258
 21
68.6319
 31
0.0
  0
LINE
  8
0
 62
     0
 10
154.258
 20
68.6319
 30
0.0
 11
168.257
 21
68.6319
 31
0.0
  0
LINE
  8
0
 62
     0
 10
168.257
 20
68.6319
 30
0.0
 11
168.257
 21
69.6323
 31
0.0
  0
LINE
  8
0
 62
     0
 10
168.257
 20
69.6323
 30
0.0
 11
169.058
 21
69.6323
 31
0.0
  0
LINE
  8
0
 62
     0
 10
169.058
 20
69.6323
 30
0.0
 11
169.058
 21
72.7329
 31
0.0
  0
LINE
  8
0
 62
     0
 10
169.058
 20
72.7329
 30
0.0
 11
168.257
 21
72.7329
 31
0.0
  0
LINE
  8
0
 62
     0
 10
168.257
 20
72.7329
 30
0.0
 11
168.257
 21
78.5315
 31
0.0
  0
LINE
  8
0
 62
     0
 10
168.257
 20
78.5315
 30
0.0
 11
169.058
 21
78.5315
 31
0.0
  0
LINE
  8
0
 62
     0
 10
169.058
 20
78.5315
 30
0.0
 11
169.058
 21
81.6321
 31
0.0
  0
LINE
  8
0
 62
     0
 10
169.058
 20
81.6321
 30
0.0
 11
168.257
 21
81.6321
 31
0.0
  0
LINE
  8
0
 62
     0
 10
168.257
 20
81.6321
 30
0.0
 11
168.257
 21
82.6325
 31
0.0
  0
LINE
  8
0
 62
     0
 10
168.257
 20
82.6325
 30
0.0
 11
154.258
 21
82.6325
 31
0.0
  0
LINE
  8
0
 62
     0
 10
135.208
 20
82.6325
 30
0.0
 11
135.208
 21
81.6321
 31
0.0
  0
LINE
  8
0
 62
     0
 10
135.208
 20
81.6321
 30
0.0
 11
134.407
 21
81.6321
 31
0.0
  0
LINE
  8
0
 62
     0
 10
134.407
 20
81.6321
 30
0.0
 11
134.407
 21
78.5315
 31
0.0
  0
LINE
  8
0
 62
     0
 10
134.407
 20
78.5315
 30
0.0
 11
135.208
 21
78.5315
 31
0.0
  0
LINE
  8
0
 62
     0
 10
135.208
 20
78.5315
 30
0.0
 11
135.208
 21
72.7329
 31
0.0
  0
LINE
  8
0
 62
     0
 10
135.208
 20
72.7329
 30
0.0
 11
134.407
 21
72.7329
 31
0.0
  0
LINE
  8
0
 62
     0
 10
134.407
 20
72.7329
 30
0.0
 11
134.407
 21
69.6323
 31
0.0
  0
LINE
  8
0
 62
     0
 10
134.407
 20
69.6323
 30
0.0
 11
135.208
 21
69.6323
 31
0.0
  0
LINE
  8
0
 62
     0
 10
135.208
 20
69.6323
 30
0.0
 11
135.208
 21
68.6319
 31
0.0
  0
LINE
  8
0
 62
     0
 10
135.208
 20
68.6319
 30
0.0
 11
149.207
 21
68.6319
 31
0.0
  0
LINE
  8
0
 62
     0
 10
149.207
 20
68.6319
 30
0.0
 11
149.207
 21
69.6323
 31
0.0
  0
LINE
  8
0
 62
     0
 10
149.207
 20
69.6323
 30
0.0
 11
150.008
 21
69.6323
 31
0.0
  0
LINE
  8
0
 62
     0
 10
150.008
 20
69.6323
 30
0.0
 11
150.008
 21
72.7329
 31
0.0
  0
LINE
  8
0
 62
     0
 10
150.008
 20
72.7329
 30
0.0
 11
149.207
 21
72.7329
 31
0.0
  0
LINE
  8
0
 62
     0
 10
149.207
 20
72.7329
 30
0.0
 11
149.207
 21
78.5315
 31
0.0
  0
LINE
  8
0
 62
     0
 10
149.207
 20
78.5315
 30
0.0
 11
150.008
 21
78.5315
 31
0.0
  0
LINE
  8
0
 62
     0
 10
150.008
 20
78.5315
 30
0.0
 11
150.008
 21
81.6321
 31
0.0
  0
LINE
  8
0
 62
     0
 10
150.008
 20
81.6321
 30
0.0
 11
149.207
 21
81.6321
 31
0.0
  0
LINE
  8
0
 62
     0
 10
149.207
 20
81.6321
 30
0.0
 11
149.207
 21
82.6325
 31
0.0
  0
LINE
  8
0
 62
     0
 10
149.207
 20
82.6325
 30
0.0
 11
135.208
 21
82.6325
 31
0.0
  0
LINE
  8
0
 62
     0
 10
116.158
 20
82.6325
 30
0.0
 11
116.158
 21
81.6321
 31
0.0
  0
LINE
  8
0
 62
     0
 10
116.158
 20
81.6321
 30
0.0
 11
115.357
 21
81.6321
 31
0.0
  0
LINE
  8
0
 62
     0
 10
115.357
 20
81.6321
 30
0.0
 11
115.357
 21
78.5315
 31
0.0
  0
LINE
  8
0
 62
     0
 10
115.357
 20
78.5315
 30
0.0
 11
116.158
 21
78.5315
 31
0.0
  0
LINE
  8
0
 62
     0
 10
116.158
 20
78.5315
 30
0.0
 11
116.158
 21
72.7329
 31
0.0
  0
LINE
  8
0
 62
     0
 10
116.158
 20
72.7329
 30
0.0
 11
115.357
 21
72.7329
 31
0.0
  0
LINE
  8
0
 62
     0
 10
115.357
 20
72.7329
 30
0.0
 11
115.357
 21
69.6323
 31
0.0
  0
LINE
  8
0
 62
     0
 10
115.357
 20
69.6323
 30
0.0
 11
116.158
 21
69.6323
 31
0.0
  0
LINE
  8
0
 62
     0
 10
116.158
 20
69.6323
 30
0.0
 11
116.158
 21
68.6319
 31
0.0
  0
LINE
  8
0
 62
     0
 10
116.158
 20
68.6319
 30
0.0
 11
130.157
 21
68.6319
 31
0.0
  0
LINE
  8
0
 62
     0
 10
130.157
 20
68.6319
 30
0.0
 11
130.157
 21
69.6323
 31
0.0
  0
LINE
  8
0
 62
     0
 10
130.157
 20
69.6323
 30
0.0
 11
130.958
 21
69.6323
 31
0.0
  0
LINE
  8
0
 62
     0
 10
130.958
 20
69.6323
 30
0.0
 11
130.958
 21
72.7329
 31
0.0
  0
LINE
  8
0
 62
     0
 10
130.958
 20
72.7329
 30
0.0
 11
130.157
 21
72.7329
 31
0.0
  0
LINE
  8
0
 62
     0
 10
130.157
 20
72.7329
 30
0.0
 11
130.157
 21
78.5315
 31
0.0
  0
LINE
  8
0
 62
     0
 10
130.157
 20
78.5315
 30
0.0
 11
130.958
 21
78.5315
 31
0.0
  0
LINE
  8
0
 62
     0
 10
130.958
 20
78.5315
 30
0.0
 11
130.958
 21
81.6321
 31
0.0
  0
LINE
  8
0
 62
     0
 10
130.958
 20
81.6321
 30
0.0
 11
130.157
 21
81.6321
 31
0.0
  0
LINE
  8
0
 62
     0
 10
130.157
 20
81.6321
 30
0.0
 11
130.157
 21
82.6325
 31
0.0
  0
LINE
  8
0
 62
     0
 10
130.157
 20
82.6325
 30
0.0
 11
116.158
 21
82.6325
 31
0.0
  0
LINE
  8
0
 62
     0
 10
97.1077
 20
82.6325
 30
0.0
 11
97.1077
 21
81.6321
 31
0.0
  0
LINE
  8
0
 62
     0
 10
97.1077
 20
81.6321
 30
0.0
 11
96.3069
 21
81.6321
 31
0.0
  0
LINE
  8
0
 62
     0
 10
96.3069
 20
81.6321
 30
0.0
 11
96.3069
 21
78.5315
 31
0.0
  0
LINE
  8
0
 62
     0
 10
96.3069
 20
78.5315
 30
0.0
 11
97.1077
 21
78.5315
 31
0.0
  0
LINE
  8
0
 62
     0
 10
97.1077
 20
78.5315
 30
0.0
 11
97.1077
 21
72.7329
 31
0.0
  0
LINE
  8
0
 62
     0
 10
97.1077
 20
72.7329
 30
0.0
 11
96.3069
 21
72.7329
 31
0.0
  0
LINE
  8
0
 62
     0
 10
96.3069
 20
72.7329
 30
0.0
 11
96.3069
 21
69.6323
 31
0.0
  0
LINE
  8
0
 62
     0
 10
96.3069
 20
69.6323
 30
0.0
 11
97.1077
 21
69.6323
 31
0.0
  0
LINE
  8
0
 62
     0
 10
97.1077
 20
69.6323
 30
0.0
 11
97.1077
 21
68.6319
 31
0.0
  0
LINE
  8
0
 62
     0
 10
97.1077
 20
68.6319
 30
0.0
 11
111.107
 21
68.6319
 31
0.0
  0
LINE
  8
0
 62
     0
 10
111.107
 20
68.6319
 30
0.0
 11
111.107
 21
69.6323
 31
0.0
  0
LINE
  8
0
 62
     0
 10
111.107
 20
69.6323
 30
0.0
 11
111.908
 21
69.6323
 31
0.0
  0
LINE
  8
0
 62
     0
 10
111.908
 20
69.6323
 30
0.0
 11
111.908
 21
72.7329
 31
0.0
  0
LINE
  8
0
 62
     0
 10
111.908
 20
72.7329
 30
0.0
 11
111.107
 21
72.7329
 31
0.0
  0
LINE
  8
0
 62
     0
 10
111.107
 20
72.7329
 30
0.0
 11
111.107
 21
78.5315
 31
0.0
  0
LINE
  8
0
 62
     0
 10
111.107
 20
78.5315
 30
0.0
 11
111.908
 21
78.5315
 31
0.0
  0
LINE
  8
0
 62
     0
 10
111.908
 20
78.5315
 30
0.0
 11
111.908
 21
81.6321
 31
0.0
  0
LINE
  8
0
 62
     0
 10
111.908
 20
81.6321
 30
0.0
 11
111.107
 21
81.6321
 31
0.0
  0
LINE
  8
0
 62
     0
 10
111.107
 20
81.6321
 30
0.0
 11
111.107
 21
82.6325
 31
0.0
  0
LINE
  8
0
 62
     0
 10
111.107
 20
82.6325
 30
0.0
 11
97.1077
 21
82.6325
 31
0.0
  0
LINE
  8
0
 62
     0
 10
78.0577
 20
82.6325
 30
0.0
 11
78.0577
 21
81.6321
 31
0.0
  0
LINE
  8
0
 62
     0
 10
78.0577
 20
81.6321
 30
0.0
 11
77.2569
 21
81.6321
 31
0.0
  0
LINE
  8
0
 62
     0
 10
77.2569
 20
81.6321
 30
0.0
 11
77.2569
 21
78.5315
 31
0.0
  0
LINE
  8
0
 62
     0
 10
77.2569
 20
78.5315
 30
0.0
 11
78.0577
 21
78.5315
 31
0.0
  0
LINE
  8
0
 62
     0
 10
78.0577
 20
78.5315
 30
0.0
 11
78.0577
 21
72.7329
 31
0.0
  0
LINE
  8
0
 62
     0
 10
78.0577
 20
72.7329
 30
0.0
 11
77.2569
 21
72.7329
 31
0.0
  0
LINE
  8
0
 62
     0
 10
77.2569
 20
72.7329
 30
0.0
 11
77.2569
 21
69.6323
 31
0.0
  0
LINE
  8
0
 62
     0
 10
77.2569
 20
69.6323
 30
0.0
 11
78.0577
 21
69.6323
 31
0.0
  0
LINE
  8
0
 62
     0
 10
78.0577
 20
69.6323
 30
0.0
 11
78.0577
 21
68.6319
 31
0.0
  0
LINE
  8
0
 62
     0
 10
78.0577
 20
68.6319
 30
0.0
 11
92.057
 21
68.6319
 31
0.0
  0
LINE
  8
0
 62
     0
 10
92.057
 20
68.6319
 30
0.0
 11
92.057
 21
69.6323
 31
0.0
  0
LINE
  8
0
 62
     0
 10
92.057
 20
69.6323
 30
0.0
 11
92.8578
 21
69.6323
 31
0.0
  0
LINE
  8
0
 62
     0
 10
92.8578
 20
69.6323
 30
0.0
 11
92.8578
 21
72.7329
 31
0.0
  0
LINE
  8
0
 62
     0
 10
92.8578
 20
72.7329
 30
0.0
 11
92.057
 21
72.7329
 31
0.0
  0
LINE
  8
0
 62
     0
 10
92.057
 20
72.7329
 30
0.0
 11
92.057
 21
78.5315
 31
0.0
  0
LINE
  8
0
 62
     0
 10
92.057
 20
78.5315
 30
0.0
 11
92.8578
 21
78.5315
 31
0.0
  0
LINE
  8
0
 62
     0
 10
92.8578
 20
78.5315
 30
0.0
 11
92.8578
 21
81.6321
 31
0.0
  0
LINE
  8
0
 62
     0
 10
92.8578
 20
81.6321
 30
0.0
 11
92.057
 21
81.6321
 31
0.0
  0
LINE
  8
0
 62
     0
 10
92.057
 20
81.6321
 30
0.0
 11
92.057
 21
82.6325
 31
0.0
  0
LINE
  8
0
 62
     0
 10
92.057
 20
82.6325
 30
0.0
 11
78.0577
 21
82.6325
 31
0.0
  0
LINE
  8
0
 62
     0
 10
59.0077
 20
82.6325
 30
0.0
 11
59.0077
 21
81.6321
 31
0.0
  0
LINE
  8
0
 62
     0
 10
59.0077
 20
81.6321
 30
0.0
 11
58.2069
 21
81.6321
 31
0.0
  0
LINE
  8
0
 62
     0
 10
58.2069
 20
81.6321
 30
0.0
 11
58.2069
 21
78.5315
 31
0.0
  0
LINE
  8
0
 62
     0
 10
58.2069
 20
78.5315
 30
0.0
 11
59.0077
 21
78.5315
 31
0.0
  0
LINE
  8
0
 62
     0
 10
59.0077
 20
78.5315
 30
0.0
 11
59.0077
 21
72.7329
 31
0.0
  0
LINE
  8
0
 62
     0
 10
59.0077
 20
72.7329
 30
0.0
 11
58.2069
 21
72.7329
 31
0.0
  0
LINE
  8
0
 62
     0
 10
58.2069
 20
72.7329
 30
0.0
 11
58.2069
 21
69.6323
 31
0.0
  0
LINE
  8
0
 62
     0
 10
58.2069
 20
69.6323
 30
0.0
 11
59.0077
 21
69.6323
 31
0.0
  0
LINE
  8
0
 62
     0
 10
59.0077
 20
69.6323
 30
0.0
 11
59.0077
 21
68.6319
 31
0.0
  0
LINE
  8
0
 62
     0
 10
59.0077
 20
68.6319
 30
0.0
 11
73.007
 21
68.6319
 31
0.0
  0
LINE
  8
0
 62
     0
 10
73.007
 20
68.6319
 30
0.0
 11
73.007
 21
69.6323
 31
0.0
  0
LINE
  8
0
 62
     0
 10
73.007
 20
69.6323
 30
0.0
 11
73.8078
 21
69.6323
 31
0.0
  0
LINE
  8
0
 62
     0
 10
73.8078
 20
69.6323
 30
0.0
 11
73.8078
 21
72.7329
 31
0.0
  0
LINE
  8
0
 62
     0
 10
73.8078
 20
72.7329
 30
0.0
 11
73.007
 21
72.7329
 31
0.0
  0
LINE
  8
0
 62
     0
 10
73.007
 20
72.7329
 30
0.0
 11
73.007
 21
78.5315
 31
0.0
  0
LINE
  8
0
 62
     0
 10
73.007
 20
78.5315
 30
0.0
 11
73.8078
 21
78.5315
 31
0.0
  0
LINE
  8
0
 62
     0
 10
73.8078
 20
78.5315
 30
0.0
 11
73.8078
 21
81.6321
 31
0.0
  0
LINE
  8
0
 62
     0
 10
73.8078
 20
81.6321
 30
0.0
 11
73.007
 21
81.6321
 31
0.0
  0
LINE
  8
0
 62
     0
 10
73.007
 20
81.6321
 30
0.0
 11
73.007
 21
82.6325
 31
0.0
  0
LINE
  8
0
 62
     0
 10
73.007
 20
82.6325
 30
0.0
 11
59.0077
 21
82.6325
 31
0.0
  0
LINE
  8
0
 62
     0
 10
35.1951
 20
82.6325
 30
0.0
 11
35.1951
 21
81.6321
 31
0.0
  0
LINE
  8
0
 62
     0
 10
35.1951
 20
81.6321
 30
0.0
 11
34.3958
 21
81.6321
 31
0.0
  0
LINE
  8
0
 62
     0
 10
34.3958
 20
81.6321
 30
0.0
 11
34.3958
 21
78.5315
 31
0.0
  0
LINE
  8
0
 62
     0
 10
34.3958
 20
78.5315
 30
0.0
 11
35.1951
 21
78.5315
 31
0.0
  0
LINE
  8
0
 62
     0
 10
35.1951
 20
78.5315
 30
0.0
 11
35.1951
 21
72.7329
 31
0.0
  0
LINE
  8
0
 62
     0
 10
35.1951
 20
72.7329
 30
0.0
 11
34.3958
 21
72.7329
 31
0.0
  0
LINE
  8
0
 62
     0
 10
34.3958
 20
72.7329
 30
0.0
 11
34.3958
 21
69.6323
 31
0.0
  0
LINE
  8
0
 62
     0
 10
34.3958
 20
69.6323
 30
0.0
 11
35.1951
 21
69.6323
 31
0.0
  0
LINE
  8
0
 62
     0
 10
35.1951
 20
69.6323
 30
0.0
 11
35.1951
 21
68.6319
 31
0.0
  0
LINE
  8
0
 62
     0
 10
35.1951
 20
68.6319
 30
0.0
 11
49.1959
 21
68.6319
 31
0.0
  0
LINE
  8
0
 62
     0
 10
49.1959
 20
68.6319
 30
0.0
 11
49.1959
 21
69.6323
 31
0.0
  0
LINE
  8
0
 62
     0
 10
49.1959
 20
69.6323
 30
0.0
 11
49.9953
 21
69.6323
 31
0.0
  0
LINE
  8
0
 62
     0
 10
49.9953
 20
69.6323
 30
0.0
 11
49.9953
 21
72.7329
 31
0.0
  0
LINE
  8
0
 62
     0
 10
49.9953
 20
72.7329
 30
0.0
 11
49.1959
 21
72.7329
 31
0.0
  0
LINE
  8
0
 62
     0
 10
49.1959
 20
72.7329
 30
0.0
 11
49.1959
 21
78.5315
 31
0.0
  0
LINE
  8
0
 62
     0
 10
49.1959
 20
78.5315
 30
0.0
 11
49.9953
 21
78.5315
 31
0.0
  0
LINE
  8
0
 62
     0
 10
49.9953
 20
78.5315
 30
0.0
 11
49.9953
 21
81.6321
 31
0.0
  0
LINE
  8
0
 62
     0
 10
49.9953
 20
81.6321
 30
0.0
 11
49.1959
 21
81.6321
 31
0.0
  0
LINE
  8
0
 62
     0
 10
49.1959
 20
81.6321
 30
0.0
 11
49.1959
 21
82.6325
 31
0.0
  0
LINE
  8
0
 62
     0
 10
49.1959
 20
82.6325
 30
0.0
 11
35.1951
 21
82.6325
 31
0.0
  0
LINE
  8
0
 62
     0
 10
6.62009
 20
82.6325
 30
0.0
 11
6.62009
 21
81.6321
 31
0.0
  0
LINE
  8
0
 62
     0
 10
6.62009
 20
81.6321
 30
0.0
 11
5.81946
 21
81.6321
 31
0.0
  0
LINE
  8
0
 62
     0
 10
5.81946
 20
81.6321
 30
0.0
 11
5.81946
 21
78.5315
 31
0.0
  0
LINE
  8
0
 62
     0
 10
5.81946
 20
78.5315
 30
0.0
 11
6.62009
 21
78.5315
 31
0.0
  0
LINE
  8
0
 62
     0
 10
6.62009
 20
78.5315
 30
0.0
 11
6.62009
 21
72.7329
 31
0.0
  0
LINE
  8
0
 62
     0
 10
6.62009
 20
72.7329
 30
0.0
 11
5.81946
 21
72.7329
 31
0.0
  0
LINE
  8
0
 62
     0
 10
5.81946
 20
72.7329
 30
0.0
 11
5.81946
 21
69.6323
 31
0.0
  0
LINE
  8
0
 62
     0
 10
5.81946
 20
69.6323
 30
0.0
 11
6.62009
 21
69.6323
 31
0.0
  0
LINE
  8
0
 62
     0
 10
6.62009
 20
69.6323
 30
0.0
 11
6.62009
 21
68.6319
 31
0.0
  0
LINE
  8
0
 62
     0
 10
6.62009
 20
68.6319
 30
0.0
 11
20.621
 21
68.6319
 31
0.0
  0
LINE
  8
0
 62
     0
 10
20.621
 20
68.6319
 30
0.0
 11
20.621
 21
69.6323
 31
0.0
  0
LINE
  8
0
 62
     0
 10
20.621
 20
69.6323
 30
0.0
 11
21.4202
 21
69.6323
 31
0.0
  0
LINE
  8
0
 62
     0
 10
21.4202
 20
69.6323
 30
0.0
 11
21.4202
 21
72.7329
 31
0.0
  0
LINE
  8
0
 62
     0
 10
21.4202
 20
72.7329
 30
0.0
 11
20.621
 21
72.7329
 31
0.0
  0
LINE
  8
0
 62
     0
 10
20.621
 20
72.7329
 30
0.0
 11
20.621
 21
78.5315
 31
0.0
  0
LINE
  8
0
 62
     0
 10
20.621
 20
78.5315
 30
0.0
 11
21.4202
 21
78.5315
 31
0.0
  0
LINE
  8
0
 62
     0
 10
21.4202
 20
78.5315
 30
0.0
 11
21.4202
 21
81.6321
 31
0.0
  0
LINE
  8
0
 62
     0
 10
21.4202
 20
81.6321
 30
0.0
 11
20.621
 21
81.6321
 31
0.0
  0
LINE
  8
0
 62
     0
 10
20.621
 20
81.6321
 30
0.0
 11
20.621
 21
82.6325
 31
0.0
  0
LINE
  8
0
 62
     0
 10
20.621
 20
82.6325
 30
0.0
 11
6.62009
 21
82.6325
 31
0.0
  0
LINE
  8
0
 62
     0
 10
287.608
 20
101.683
 30
0.0
 11
287.608
 21
100.683
 31
0.0
  0
LINE
  8
0
 62
     0
 10
287.608
 20
100.683
 30
0.0
 11
286.807
 21
100.683
 31
0.0
  0
LINE
  8
0
 62
     0
 10
286.807
 20
100.683
 30
0.0
 11
286.807
 21
97.5829
 31
0.0
  0
LINE
  8
0
 62
     0
 10
286.807
 20
97.5829
 30
0.0
 11
287.608
 21
97.5829
 31
0.0
  0
LINE
  8
0
 62
     0
 10
287.608
 20
97.5829
 30
0.0
 11
287.608
 21
96.9836
 31
0.0
  0
LINE
  8
0
 62
     0
 10
287.608
 20
96.9836
 30
0.0
 11
286.082
 21
96.9836
 31
0.0
  0
LINE
  8
0
 62
     0
 10
286.082
 20
96.9836
 30
0.0
 11
286.082
 21
100.214
 31
0.0
  0
LINE
  8
0
 62
     0
 10
286.082
 20
100.214
 30
0.0
 11
279.333
 21
100.214
 31
0.0
  0
LINE
  8
0
 62
     0
 10
279.333
 20
100.214
 30
0.0
 11
279.333
 21
96.9836
 31
0.0
  0
LINE
  8
0
 62
     0
 10
279.333
 20
96.9836
 30
0.0
 11
278.507
 21
96.9836
 31
0.0
  0
LINE
  8
0
 62
     0
 10
278.507
 20
96.9836
 30
0.0
 11
278.507
 21
94.1821
 31
0.0
  0
LINE
  8
0
 62
     0
 10
278.507
 20
94.1821
 30
0.0
 11
279.333
 21
94.1821
 31
0.0
  0
LINE
  8
0
 62
     0
 10
279.333
 20
94.1821
 30
0.0
 11
279.333
 21
87.9133
 31
0.0
  0
LINE
  8
0
 62
     0
 10
279.333
 20
87.9133
 30
0.0
 11
281.058
 21
87.9133
 31
0.0
  0
LINE
  8
0
 62
     0
 10
281.058
 20
87.9133
 30
0.0
 11
281.058
 21
86.7131
 31
0.0
  0
LINE
  8
0
 62
     0
 10
281.058
 20
86.7131
 30
0.0
 11
284.357
 21
86.7131
 31
0.0
  0
LINE
  8
0
 62
     0
 10
284.357
 20
86.7131
 30
0.0
 11
284.357
 21
87.9133
 31
0.0
  0
LINE
  8
0
 62
     0
 10
284.357
 20
87.9133
 30
0.0
 11
286.082
 21
87.9133
 31
0.0
  0
LINE
  8
0
 62
     0
 10
286.082
 20
87.9133
 30
0.0
 11
286.082
 21
92.3823
 31
0.0
  0
LINE
  8
0
 62
     0
 10
286.082
 20
92.3823
 30
0.0
 11
287.608
 21
92.3823
 31
0.0
  0
LINE
  8
0
 62
     0
 10
287.608
 20
92.3823
 30
0.0
 11
287.608
 21
91.7829
 31
0.0
  0
LINE
  8
0
 62
     0
 10
287.608
 20
91.7829
 30
0.0
 11
286.807
 21
91.7829
 31
0.0
  0
LINE
  8
0
 62
     0
 10
286.807
 20
91.7829
 30
0.0
 11
286.807
 21
88.6823
 31
0.0
  0
LINE
  8
0
 62
     0
 10
286.807
 20
88.6823
 30
0.0
 11
287.608
 21
88.6823
 31
0.0
  0
LINE
  8
0
 62
     0
 10
287.608
 20
88.6823
 30
0.0
 11
287.608
 21
87.6819
 31
0.0
  0
LINE
  8
0
 62
     0
 10
287.608
 20
87.6819
 30
0.0
 11
301.607
 21
87.6819
 31
0.0
  0
LINE
  8
0
 62
     0
 10
301.607
 20
87.6819
 30
0.0
 11
301.607
 21
88.6823
 31
0.0
  0
LINE
  8
0
 62
     0
 10
301.607
 20
88.6823
 30
0.0
 11
302.408
 21
88.6823
 31
0.0
  0
LINE
  8
0
 62
     0
 10
302.408
 20
88.6823
 30
0.0
 11
302.408
 21
91.7829
 31
0.0
  0
LINE
  8
0
 62
     0
 10
302.408
 20
91.7829
 30
0.0
 11
301.607
 21
91.7829
 31
0.0
  0
LINE
  8
0
 62
     0
 10
301.607
 20
91.7829
 30
0.0
 11
301.607
 21
92.3823
 31
0.0
  0
LINE
  8
0
 62
     0
 10
301.607
 20
92.3823
 30
0.0
 11
303.132
 21
92.3823
 31
0.0
  0
LINE
  8
0
 62
     0
 10
303.132
 20
92.3823
 30
0.0
 11
303.132
 21
87.9133
 31
0.0
  0
LINE
  8
0
 62
     0
 10
303.132
 20
87.9133
 30
0.0
 11
304.858
 21
87.9133
 31
0.0
  0
LINE
  8
0
 62
     0
 10
304.858
 20
87.9133
 30
0.0
 11
304.858
 21
86.7131
 31
0.0
  0
LINE
  8
0
 62
     0
 10
304.858
 20
86.7131
 30
0.0
 11
308.157
 21
86.7131
 31
0.0
  0
LINE
  8
0
 62
     0
 10
308.157
 20
86.7131
 30
0.0
 11
308.157
 21
87.9133
 31
0.0
  0
LINE
  8
0
 62
     0
 10
308.157
 20
87.9133
 30
0.0
 11
309.882
 21
87.9133
 31
0.0
  0
LINE
  8
0
 62
     0
 10
309.882
 20
87.9133
 30
0.0
 11
309.882
 21
94.1821
 31
0.0
  0
LINE
  8
0
 62
     0
 10
309.882
 20
94.1821
 30
0.0
 11
310.708
 21
94.1821
 31
0.0
  0
LINE
  8
0
 62
     0
 10
310.708
 20
94.1821
 30
0.0
 11
310.708
 21
96.9836
 31
0.0
  0
LINE
  8
0
 62
     0
 10
310.708
 20
96.9836
 30
0.0
 11
309.882
 21
96.9836
 31
0.0
  0
LINE
  8
0
 62
     0
 10
309.882
 20
96.9836
 30
0.0
 11
309.882
 21
100.214
 31
0.0
  0
LINE
  8
0
 62
     0
 10
309.882
 20
100.214
 30
0.0
 11
303.132
 21
100.214
 31
0.0
  0
LINE
  8
0
 62
     0
 10
303.132
 20
100.214
 30
0.0
 11
303.132
 21
96.9836
 31
0.0
  0
LINE
  8
0
 62
     0
 10
303.132
 20
96.9836
 30
0.0
 11
301.607
 21
96.9836
 31
0.0
  0
LINE
  8
0
 62
     0
 10
301.607
 20
96.9836
 30
0.0
 11
301.607
 21
97.5829
 31
0.0
  0
LINE
  8
0
 62
     0
 10
301.607
 20
97.5829
 30
0.0
 11
302.408
 21
97.5829
 31
0.0
  0
LINE
  8
0
 62
     0
 10
302.408
 20
97.5829
 30
0.0
 11
302.408
 21
100.683
 31
0.0
  0
LINE
  8
0
 62
     0
 10
302.408
 20
100.683
 30
0.0
 11
301.607
 21
100.683
 31
0.0
  0
LINE
  8
0
 62
     0
 10
301.607
 20
100.683
 30
0.0
 11
301.607
 21
101.683
 31
0.0
  0
LINE
  8
0
 62
     0
 10
301.607
 20
101.683
 30
0.0
 11
287.608
 21
101.683
 31
0.0
  0
LINE
  8
0
 62
     0
 10
320.945
 20
101.683
 30
0.0
 11
320.945
 21
100.683
 31
0.0
  0
LINE
  8
0
 62
     0
 10
320.945
 20
100.683
 30
0.0
 11
320.146
 21
100.683
 31
0.0
  0
LINE
  8
0
 62
     0
 10
320.146
 20
100.683
 30
0.0
 11
320.146
 21
97.5829
 31
0.0
  0
LINE
  8
0
 62
     0
 10
320.146
 20
97.5829
 30
0.0
 11
320.945
 21
97.5829
 31
0.0
  0
LINE
  8
0
 62
     0
 10
320.945
 20
97.5829
 30
0.0
 11
320.945
 21
91.7829
 31
0.0
  0
LINE
  8
0
 62
     0
 10
320.945
 20
91.7829
 30
0.0
 11
320.146
 21
91.7829
 31
0.0
  0
LINE
  8
0
 62
     0
 10
320.146
 20
91.7829
 30
0.0
 11
320.146
 21
88.6823
 31
0.0
  0
LINE
  8
0
 62
     0
 10
320.146
 20
88.6823
 30
0.0
 11
320.945
 21
88.6823
 31
0.0
  0
LINE
  8
0
 62
     0
 10
320.945
 20
88.6823
 30
0.0
 11
320.945
 21
87.6819
 31
0.0
  0
LINE
  8
0
 62
     0
 10
320.945
 20
87.6819
 30
0.0
 11
334.946
 21
87.6819
 31
0.0
  0
LINE
  8
0
 62
     0
 10
334.946
 20
87.6819
 30
0.0
 11
334.946
 21
88.6823
 31
0.0
  0
LINE
  8
0
 62
     0
 10
334.946
 20
88.6823
 30
0.0
 11
335.745
 21
88.6823
 31
0.0
  0
LINE
  8
0
 62
     0
 10
335.745
 20
88.6823
 30
0.0
 11
335.745
 21
91.7829
 31
0.0
  0
LINE
  8
0
 62
     0
 10
335.745
 20
91.7829
 30
0.0
 11
334.946
 21
91.7829
 31
0.0
  0
LINE
  8
0
 62
     0
 10
334.946
 20
91.7829
 30
0.0
 11
334.946
 21
97.5829
 31
0.0
  0
LINE
  8
0
 62
     0
 10
334.946
 20
97.5829
 30
0.0
 11
335.745
 21
97.5829
 31
0.0
  0
LINE
  8
0
 62
     0
 10
335.745
 20
97.5829
 30
0.0
 11
335.745
 21
100.683
 31
0.0
  0
LINE
  8
0
 62
     0
 10
335.745
 20
100.683
 30
0.0
 11
334.946
 21
100.683
 31
0.0
  0
LINE
  8
0
 62
     0
 10
334.946
 20
100.683
 30
0.0
 11
334.946
 21
101.683
 31
0.0
  0
LINE
  8
0
 62
     0
 10
334.946
 20
101.683
 30
0.0
 11
320.945
 21
101.683
 31
0.0
  0
LINE
  8
0
 62
     0
 10
259.033
 20
101.683
 30
0.0
 11
259.033
 21
100.683
 31
0.0
  0
LINE
  8
0
 62
     0
 10
259.033
 20
100.683
 30
0.0
 11
258.232
 21
100.683
 31
0.0
  0
LINE
  8
0
 62
     0
 10
258.232
 20
100.683
 30
0.0
 11
258.232
 21
97.5829
 31
0.0
  0
LINE
  8
0
 62
     0
 10
258.232
 20
97.5829
 30
0.0
 11
259.033
 21
97.5829
 31
0.0
  0
LINE
  8
0
 62
     0
 10
259.033
 20
97.5829
 30
0.0
 11
259.033
 21
91.7829
 31
0.0
  0
LINE
  8
0
 62
     0
 10
259.033
 20
91.7829
 30
0.0
 11
258.232
 21
91.7829
 31
0.0
  0
LINE
  8
0
 62
     0
 10
258.232
 20
91.7829
 30
0.0
 11
258.232
 21
88.6823
 31
0.0
  0
LINE
  8
0
 62
     0
 10
258.232
 20
88.6823
 30
0.0
 11
259.033
 21
88.6823
 31
0.0
  0
LINE
  8
0
 62
     0
 10
259.033
 20
88.6823
 30
0.0
 11
259.033
 21
87.6819
 31
0.0
  0
LINE
  8
0
 62
     0
 10
259.033
 20
87.6819
 30
0.0
 11
273.032
 21
87.6819
 31
0.0
  0
LINE
  8
0
 62
     0
 10
273.032
 20
87.6819
 30
0.0
 11
273.032
 21
88.6823
 31
0.0
  0
LINE
  8
0
 62
     0
 10
273.032
 20
88.6823
 30
0.0
 11
273.833
 21
88.6823
 31
0.0
  0
LINE
  8
0
 62
     0
 10
273.833
 20
88.6823
 30
0.0
 11
273.833
 21
91.7829
 31
0.0
  0
LINE
  8
0
 62
     0
 10
273.833
 20
91.7829
 30
0.0
 11
273.032
 21
91.7829
 31
0.0
  0
LINE
  8
0
 62
     0
 10
273.032
 20
91.7829
 30
0.0
 11
273.032
 21
97.5829
 31
0.0
  0
LINE
  8
0
 62
     0
 10
273.032
 20
97.5829
 30
0.0
 11
273.833
 21
97.5829
 31
0.0
  0
LINE
  8
0
 62
     0
 10
273.833
 20
97.5829
 30
0.0
 11
273.833
 21
100.683
 31
0.0
  0
LINE
  8
0
 62
     0
 10
273.833
 20
100.683
 30
0.0
 11
273.032
 21
100.683
 31
0.0
  0
LINE
  8
0
 62
     0
 10
273.032
 20
100.683
 30
0.0
 11
273.032
 21
101.683
 31
0.0
  0
LINE
  8
0
 62
     0
 10
273.032
 20
101.683
 30
0.0
 11
259.033
 21
101.683
 31
0.0
  0
LINE
  8
0
 62
     0
 10
239.983
 20
101.683
 30
0.0
 11
239.983
 21
100.683
 31
0.0
  0
LINE
  8
0
 62
     0
 10
239.983
 20
100.683
 30
0.0
 11
239.182
 21
100.683
 31
0.0
  0
LINE
  8
0
 62
     0
 10
239.182
 20
100.683
 30
0.0
 11
239.182
 21
97.5829
 31
0.0
  0
LINE
  8
0
 62
     0
 10
239.182
 20
97.5829
 30
0.0
 11
239.983
 21
97.5829
 31
0.0
  0
LINE
  8
0
 62
     0
 10
239.983
 20
97.5829
 30
0.0
 11
239.983
 21
91.7829
 31
0.0
  0
LINE
  8
0
 62
     0
 10
239.983
 20
91.7829
 30
0.0
 11
239.182
 21
91.7829
 31
0.0
  0
LINE
  8
0
 62
     0
 10
239.182
 20
91.7829
 30
0.0
 11
239.182
 21
88.6823
 31
0.0
  0
LINE
  8
0
 62
     0
 10
239.182
 20
88.6823
 30
0.0
 11
239.983
 21
88.6823
 31
0.0
  0
LINE
  8
0
 62
     0
 10
239.983
 20
88.6823
 30
0.0
 11
239.983
 21
87.6819
 31
0.0
  0
LINE
  8
0
 62
     0
 10
239.983
 20
87.6819
 30
0.0
 11
253.982
 21
87.6819
 31
0.0
  0
LINE
  8
0
 62
     0
 10
253.982
 20
87.6819
 30
0.0
 11
253.982
 21
88.6823
 31
0.0
  0
LINE
  8
0
 62
     0
 10
253.982
 20
88.6823
 30
0.0
 11
254.783
 21
88.6823
 31
0.0
  0
LINE
  8
0
 62
     0
 10
254.783
 20
88.6823
 30
0.0
 11
254.783
 21
91.7829
 31
0.0
  0
LINE
  8
0
 62
     0
 10
254.783
 20
91.7829
 30
0.0
 11
253.982
 21
91.7829
 31
0.0
  0
LINE
  8
0
 62
     0
 10
253.982
 20
91.7829
 30
0.0
 11
253.982
 21
97.5829
 31
0.0
  0
LINE
  8
0
 62
     0
 10
253.982
 20
97.5829
 30
0.0
 11
254.783
 21
97.5829
 31
0.0
  0
LINE
  8
0
 62
     0
 10
254.783
 20
97.5829
 30
0.0
 11
254.783
 21
100.683
 31
0.0
  0
LINE
  8
0
 62
     0
 10
254.783
 20
100.683
 30
0.0
 11
253.982
 21
100.683
 31
0.0
  0
LINE
  8
0
 62
     0
 10
253.982
 20
100.683
 30
0.0
 11
253.982
 21
101.683
 31
0.0
  0
LINE
  8
0
 62
     0
 10
253.982
 20
101.683
 30
0.0
 11
239.983
 21
101.683
 31
0.0
  0
LINE
  8
0
 62
     0
 10
220.933
 20
101.683
 30
0.0
 11
220.933
 21
100.683
 31
0.0
  0
LINE
  8
0
 62
     0
 10
220.933
 20
100.683
 30
0.0
 11
220.132
 21
100.683
 31
0.0
  0
LINE
  8
0
 62
     0
 10
220.132
 20
100.683
 30
0.0
 11
220.132
 21
97.5829
 31
0.0
  0
LINE
  8
0
 62
     0
 10
220.132
 20
97.5829
 30
0.0
 11
220.933
 21
97.5829
 31
0.0
  0
LINE
  8
0
 62
     0
 10
220.933
 20
97.5829
 30
0.0
 11
220.933
 21
91.7829
 31
0.0
  0
LINE
  8
0
 62
     0
 10
220.933
 20
91.7829
 30
0.0
 11
220.132
 21
91.7829
 31
0.0
  0
LINE
  8
0
 62
     0
 10
220.132
 20
91.7829
 30
0.0
 11
220.132
 21
88.6823
 31
0.0
  0
LINE
  8
0
 62
     0
 10
220.132
 20
88.6823
 30
0.0
 11
220.933
 21
88.6823
 31
0.0
  0
LINE
  8
0
 62
     0
 10
220.933
 20
88.6823
 30
0.0
 11
220.933
 21
87.6819
 31
0.0
  0
LINE
  8
0
 62
     0
 10
220.933
 20
87.6819
 30
0.0
 11
234.932
 21
87.6819
 31
0.0
  0
LINE
  8
0
 62
     0
 10
234.932
 20
87.6819
 30
0.0
 11
234.932
 21
88.6823
 31
0.0
  0
LINE
  8
0
 62
     0
 10
234.932
 20
88.6823
 30
0.0
 11
235.733
 21
88.6823
 31
0.0
  0
LINE
  8
0
 62
     0
 10
235.733
 20
88.6823
 30
0.0
 11
235.733
 21
91.7829
 31
0.0
  0
LINE
  8
0
 62
     0
 10
235.733
 20
91.7829
 30
0.0
 11
234.932
 21
91.7829
 31
0.0
  0
LINE
  8
0
 62
     0
 10
234.932
 20
91.7829
 30
0.0
 11
234.932
 21
97.5829
 31
0.0
  0
LINE
  8
0
 62
     0
 10
234.932
 20
97.5829
 30
0.0
 11
235.733
 21
97.5829
 31
0.0
  0
LINE
  8
0
 62
     0
 10
235.733
 20
97.5829
 30
0.0
 11
235.733
 21
100.683
 31
0.0
  0
LINE
  8
0
 62
     0
 10
235.733
 20
100.683
 30
0.0
 11
234.932
 21
100.683
 31
0.0
  0
LINE
  8
0
 62
     0
 10
234.932
 20
100.683
 30
0.0
 11
234.932
 21
101.683
 31
0.0
  0
LINE
  8
0
 62
     0
 10
234.932
 20
101.683
 30
0.0
 11
220.933
 21
101.683
 31
0.0
  0
LINE
  8
0
 62
     0
 10
201.883
 20
101.683
 30
0.0
 11
201.883
 21
100.683
 31
0.0
  0
LINE
  8
0
 62
     0
 10
201.883
 20
100.683
 30
0.0
 11
201.082
 21
100.683
 31
0.0
  0
LINE
  8
0
 62
     0
 10
201.082
 20
100.683
 30
0.0
 11
201.082
 21
97.5829
 31
0.0
  0
LINE
  8
0
 62
     0
 10
201.082
 20
97.5829
 30
0.0
 11
201.883
 21
97.5829
 31
0.0
  0
LINE
  8
0
 62
     0
 10
201.883
 20
97.5829
 30
0.0
 11
201.883
 21
91.7829
 31
0.0
  0
LINE
  8
0
 62
     0
 10
201.883
 20
91.7829
 30
0.0
 11
201.082
 21
91.7829
 31
0.0
  0
LINE
  8
0
 62
     0
 10
201.082
 20
91.7829
 30
0.0
 11
201.082
 21
88.6823
 31
0.0
  0
LINE
  8
0
 62
     0
 10
201.082
 20
88.6823
 30
0.0
 11
201.883
 21
88.6823
 31
0.0
  0
LINE
  8
0
 62
     0
 10
201.883
 20
88.6823
 30
0.0
 11
201.883
 21
87.6819
 31
0.0
  0
LINE
  8
0
 62
     0
 10
201.883
 20
87.6819
 30
0.0
 11
215.882
 21
87.6819
 31
0.0
  0
LINE
  8
0
 62
     0
 10
215.882
 20
87.6819
 30
0.0
 11
215.882
 21
88.6823
 31
0.0
  0
LINE
  8
0
 62
     0
 10
215.882
 20
88.6823
 30
0.0
 11
216.683
 21
88.6823
 31
0.0
  0
LINE
  8
0
 62
     0
 10
216.683
 20
88.6823
 30
0.0
 11
216.683
 21
91.7829
 31
0.0
  0
LINE
  8
0
 62
     0
 10
216.683
 20
91.7829
 30
0.0
 11
215.882
 21
91.7829
 31
0.0
  0
LINE
  8
0
 62
     0
 10
215.882
 20
91.7829
 30
0.0
 11
215.882
 21
97.5829
 31
0.0
  0
LINE
  8
0
 62
     0
 10
215.882
 20
97.5829
 30
0.0
 11
216.683
 21
97.5829
 31
0.0
  0
LINE
  8
0
 62
     0
 10
216.683
 20
97.5829
 30
0.0
 11
216.683
 21
100.683
 31
0.0
  0
LINE
  8
0
 62
     0
 10
216.683
 20
100.683
 30
0.0
 11
215.882
 21
100.683
 31
0.0
  0
LINE
  8
0
 62
     0
 10
215.882
 20
100.683
 30
0.0
 11
215.882
 21
101.683
 31
0.0
  0
LINE
  8
0
 62
     0
 10
215.882
 20
101.683
 30
0.0
 11
201.883
 21
101.683
 31
0.0
  0
LINE
  8
0
 62
     0
 10
182.833
 20
101.683
 30
0.0
 11
182.833
 21
100.683
 31
0.0
  0
LINE
  8
0
 62
     0
 10
182.833
 20
100.683
 30
0.0
 11
182.032
 21
100.683
 31
0.0
  0
LINE
  8
0
 62
     0
 10
182.032
 20
100.683
 30
0.0
 11
182.032
 21
97.5829
 31
0.0
  0
LINE
  8
0
 62
     0
 10
182.032
 20
97.5829
 30
0.0
 11
182.833
 21
97.5829
 31
0.0
  0
LINE
  8
0
 62
     0
 10
182.833
 20
97.5829
 30
0.0
 11
182.833
 21
91.7829
 31
0.0
  0
LINE
  8
0
 62
     0
 10
182.833
 20
91.7829
 30
0.0
 11
182.032
 21
91.7829
 31
0.0
  0
LINE
  8
0
 62
     0
 10
182.032
 20
91.7829
 30
0.0
 11
182.032
 21
88.6823
 31
0.0
  0
LINE
  8
0
 62
     0
 10
182.032
 20
88.6823
 30
0.0
 11
182.833
 21
88.6823
 31
0.0
  0
LINE
  8
0
 62
     0
 10
182.833
 20
88.6823
 30
0.0
 11
182.833
 21
87.6819
 31
0.0
  0
LINE
  8
0
 62
     0
 10
182.833
 20
87.6819
 30
0.0
 11
196.832
 21
87.6819
 31
0.0
  0
LINE
  8
0
 62
     0
 10
196.832
 20
87.6819
 30
0.0
 11
196.832
 21
88.6823
 31
0.0
  0
LINE
  8
0
 62
     0
 10
196.832
 20
88.6823
 30
0.0
 11
197.633
 21
88.6823
 31
0.0
  0
LINE
  8
0
 62
     0
 10
197.633
 20
88.6823
 30
0.0
 11
197.633
 21
91.7829
 31
0.0
  0
LINE
  8
0
 62
     0
 10
197.633
 20
91.7829
 30
0.0
 11
196.832
 21
91.7829
 31
0.0
  0
LINE
  8
0
 62
     0
 10
196.832
 20
91.7829
 30
0.0
 11
196.832
 21
97.5829
 31
0.0
  0
LINE
  8
0
 62
     0
 10
196.832
 20
97.5829
 30
0.0
 11
197.633
 21
97.5829
 31
0.0
  0
LINE
  8
0
 62
     0
 10
197.633
 20
97.5829
 30
0.0
 11
197.633
 21
100.683
 31
0.0
  0
LINE
  8
0
 62
     0
 10
197.633
 20
100.683
 30
0.0
 11
196.832
 21
100.683
 31
0.0
  0
LINE
  8
0
 62
     0
 10
196.832
 20
100.683
 30
0.0
 11
196.832
 21
101.683
 31
0.0
  0
LINE
  8
0
 62
     0
 10
196.832
 20
101.683
 30
0.0
 11
182.833
 21
101.683
 31
0.0
  0
LINE
  8
0
 62
     0
 10
163.783
 20
101.683
 30
0.0
 11
163.783
 21
100.683
 31
0.0
  0
LINE
  8
0
 62
     0
 10
163.783
 20
100.683
 30
0.0
 11
162.982
 21
100.683
 31
0.0
  0
LINE
  8
0
 62
     0
 10
162.982
 20
100.683
 30
0.0
 11
162.982
 21
97.5829
 31
0.0
  0
LINE
  8
0
 62
     0
 10
162.982
 20
97.5829
 30
0.0
 11
163.783
 21
97.5829
 31
0.0
  0
LINE
  8
0
 62
     0
 10
163.783
 20
97.5829
 30
0.0
 11
163.783
 21
91.7829
 31
0.0
  0
LINE
  8
0
 62
     0
 10
163.783
 20
91.7829
 30
0.0
 11
162.982
 21
91.7829
 31
0.0
  0
LINE
  8
0
 62
     0
 10
162.982
 20
91.7829
 30
0.0
 11
162.982
 21
88.6823
 31
0.0
  0
LINE
  8
0
 62
     0
 10
162.982
 20
88.6823
 30
0.0
 11
163.783
 21
88.6823
 31
0.0
  0
LINE
  8
0
 62
     0
 10
163.783
 20
88.6823
 30
0.0
 11
163.783
 21
87.6819
 31
0.0
  0
LINE
  8
0
 62
     0
 10
163.783
 20
87.6819
 30
0.0
 11
177.782
 21
87.6819
 31
0.0
  0
LINE
  8
0
 62
     0
 10
177.782
 20
87.6819
 30
0.0
 11
177.782
 21
88.6823
 31
0.0
  0
LINE
  8
0
 62
     0
 10
177.782
 20
88.6823
 30
0.0
 11
178.583
 21
88.6823
 31
0.0
  0
LINE
  8
0
 62
     0
 10
178.583
 20
88.6823
 30
0.0
 11
178.583
 21
91.7829
 31
0.0
  0
LINE
  8
0
 62
     0
 10
178.583
 20
91.7829
 30
0.0
 11
177.782
 21
91.7829
 31
0.0
  0
LINE
  8
0
 62
     0
 10
177.782
 20
91.7829
 30
0.0
 11
177.782
 21
97.5829
 31
0.0
  0
LINE
  8
0
 62
     0
 10
177.782
 20
97.5829
 30
0.0
 11
178.583
 21
97.5829
 31
0.0
  0
LINE
  8
0
 62
     0
 10
178.583
 20
97.5829
 30
0.0
 11
178.583
 21
100.683
 31
0.0
  0
LINE
  8
0
 62
     0
 10
178.583
 20
100.683
 30
0.0
 11
177.782
 21
100.683
 31
0.0
  0
LINE
  8
0
 62
     0
 10
177.782
 20
100.683
 30
0.0
 11
177.782
 21
101.683
 31
0.0
  0
LINE
  8
0
 62
     0
 10
177.782
 20
101.683
 30
0.0
 11
163.783
 21
101.683
 31
0.0
  0
LINE
  8
0
 62
     0
 10
144.733
 20
101.683
 30
0.0
 11
144.733
 21
100.683
 31
0.0
  0
LINE
  8
0
 62
     0
 10
144.733
 20
100.683
 30
0.0
 11
143.932
 21
100.683
 31
0.0
  0
LINE
  8
0
 62
     0
 10
143.932
 20
100.683
 30
0.0
 11
143.932
 21
97.5829
 31
0.0
  0
LINE
  8
0
 62
     0
 10
143.932
 20
97.5829
 30
0.0
 11
144.733
 21
97.5829
 31
0.0
  0
LINE
  8
0
 62
     0
 10
144.733
 20
97.5829
 30
0.0
 11
144.733
 21
91.7829
 31
0.0
  0
LINE
  8
0
 62
     0
 10
144.733
 20
91.7829
 30
0.0
 11
143.932
 21
91.7829
 31
0.0
  0
LINE
  8
0
 62
     0
 10
143.932
 20
91.7829
 30
0.0
 11
143.932
 21
88.6823
 31
0.0
  0
LINE
  8
0
 62
     0
 10
143.932
 20
88.6823
 30
0.0
 11
144.733
 21
88.6823
 31
0.0
  0
LINE
  8
0
 62
     0
 10
144.733
 20
88.6823
 30
0.0
 11
144.733
 21
87.6819
 31
0.0
  0
LINE
  8
0
 62
     0
 10
144.733
 20
87.6819
 30
0.0
 11
158.732
 21
87.6819
 31
0.0
  0
LINE
  8
0
 62
     0
 10
158.732
 20
87.6819
 30
0.0
 11
158.732
 21
88.6823
 31
0.0
  0
LINE
  8
0
 62
     0
 10
158.732
 20
88.6823
 30
0.0
 11
159.533
 21
88.6823
 31
0.0
  0
LINE
  8
0
 62
     0
 10
159.533
 20
88.6823
 30
0.0
 11
159.533
 21
91.7829
 31
0.0
  0
LINE
  8
0
 62
     0
 10
159.533
 20
91.7829
 30
0.0
 11
158.732
 21
91.7829
 31
0.0
  0
LINE
  8
0
 62
     0
 10
158.732
 20
91.7829
 30
0.0
 11
158.732
 21
97.5829
 31
0.0
  0
LINE
  8
0
 62
     0
 10
158.732
 20
97.5829
 30
0.0
 11
159.533
 21
97.5829
 31
0.0
  0
LINE
  8
0
 62
     0
 10
159.533
 20
97.5829
 30
0.0
 11
159.533
 21
100.683
 31
0.0
  0
LINE
  8
0
 62
     0
 10
159.533
 20
100.683
 30
0.0
 11
158.732
 21
100.683
 31
0.0
  0
LINE
  8
0
 62
     0
 10
158.732
 20
100.683
 30
0.0
 11
158.732
 21
101.683
 31
0.0
  0
LINE
  8
0
 62
     0
 10
158.732
 20
101.683
 30
0.0
 11
144.733
 21
101.683
 31
0.0
  0
LINE
  8
0
 62
     0
 10
125.681
 20
101.683
 30
0.0
 11
125.681
 21
100.683
 31
0.0
  0
LINE
  8
0
 62
     0
 10
125.681
 20
100.683
 30
0.0
 11
124.882
 21
100.683
 31
0.0
  0
LINE
  8
0
 62
     0
 10
124.882
 20
100.683
 30
0.0
 11
124.882
 21
97.5829
 31
0.0
  0
LINE
  8
0
 62
     0
 10
124.882
 20
97.5829
 30
0.0
 11
125.681
 21
97.5829
 31
0.0
  0
LINE
  8
0
 62
     0
 10
125.681
 20
97.5829
 30
0.0
 11
125.681
 21
91.7829
 31
0.0
  0
LINE
  8
0
 62
     0
 10
125.681
 20
91.7829
 30
0.0
 11
124.882
 21
91.7829
 31
0.0
  0
LINE
  8
0
 62
     0
 10
124.882
 20
91.7829
 30
0.0
 11
124.882
 21
88.6823
 31
0.0
  0
LINE
  8
0
 62
     0
 10
124.882
 20
88.6823
 30
0.0
 11
125.681
 21
88.6823
 31
0.0
  0
LINE
  8
0
 62
     0
 10
125.681
 20
88.6823
 30
0.0
 11
125.681
 21
87.6819
 31
0.0
  0
LINE
  8
0
 62
     0
 10
125.681
 20
87.6819
 30
0.0
 11
139.682
 21
87.6819
 31
0.0
  0
LINE
  8
0
 62
     0
 10
139.682
 20
87.6819
 30
0.0
 11
139.682
 21
88.6823
 31
0.0
  0
LINE
  8
0
 62
     0
 10
139.682
 20
88.6823
 30
0.0
 11
140.483
 21
88.6823
 31
0.0
  0
LINE
  8
0
 62
     0
 10
140.483
 20
88.6823
 30
0.0
 11
140.483
 21
91.7829
 31
0.0
  0
LINE
  8
0
 62
     0
 10
140.483
 20
91.7829
 30
0.0
 11
139.682
 21
91.7829
 31
0.0
  0
LINE
  8
0
 62
     0
 10
139.682
 20
91.7829
 30
0.0
 11
139.682
 21
97.5829
 31
0.0
  0
LINE
  8
0
 62
     0
 10
139.682
 20
97.5829
 30
0.0
 11
140.483
 21
97.5829
 31
0.0
  0
LINE
  8
0
 62
     0
 10
140.483
 20
97.5829
 30
0.0
 11
140.483
 21
100.683
 31
0.0
  0
LINE
  8
0
 62
     0
 10
140.483
 20
100.683
 30
0.0
 11
139.682
 21
100.683
 31
0.0
  0
LINE
  8
0
 62
     0
 10
139.682
 20
100.683
 30
0.0
 11
139.682
 21
101.683
 31
0.0
  0
LINE
  8
0
 62
     0
 10
139.682
 20
101.683
 30
0.0
 11
125.681
 21
101.683
 31
0.0
  0
LINE
  8
0
 62
     0
 10
106.633
 20
101.683
 30
0.0
 11
106.633
 21
100.683
 31
0.0
  0
LINE
  8
0
 62
     0
 10
106.633
 20
100.683
 30
0.0
 11
105.832
 21
100.683
 31
0.0
  0
LINE
  8
0
 62
     0
 10
105.832
 20
100.683
 30
0.0
 11
105.832
 21
97.5829
 31
0.0
  0
LINE
  8
0
 62
     0
 10
105.832
 20
97.5829
 30
0.0
 11
106.633
 21
97.5829
 31
0.0
  0
LINE
  8
0
 62
     0
 10
106.633
 20
97.5829
 30
0.0
 11
106.633
 21
91.7829
 31
0.0
  0
LINE
  8
0
 62
     0
 10
106.633
 20
91.7829
 30
0.0
 11
105.832
 21
91.7829
 31
0.0
  0
LINE
  8
0
 62
     0
 10
105.832
 20
91.7829
 30
0.0
 11
105.832
 21
88.6823
 31
0.0
  0
LINE
  8
0
 62
     0
 10
105.832
 20
88.6823
 30
0.0
 11
106.633
 21
88.6823
 31
0.0
  0
LINE
  8
0
 62
     0
 10
106.633
 20
88.6823
 30
0.0
 11
106.633
 21
87.6819
 31
0.0
  0
LINE
  8
0
 62
     0
 10
106.633
 20
87.6819
 30
0.0
 11
120.632
 21
87.6819
 31
0.0
  0
LINE
  8
0
 62
     0
 10
120.632
 20
87.6819
 30
0.0
 11
120.632
 21
88.6823
 31
0.0
  0
LINE
  8
0
 62
     0
 10
120.632
 20
88.6823
 30
0.0
 11
121.433
 21
88.6823
 31
0.0
  0
LINE
  8
0
 62
     0
 10
121.433
 20
88.6823
 30
0.0
 11
121.433
 21
91.7829
 31
0.0
  0
LINE
  8
0
 62
     0
 10
121.433
 20
91.7829
 30
0.0
 11
120.632
 21
91.7829
 31
0.0
  0
LINE
  8
0
 62
     0
 10
120.632
 20
91.7829
 30
0.0
 11
120.632
 21
97.5829
 31
0.0
  0
LINE
  8
0
 62
     0
 10
120.632
 20
97.5829
 30
0.0
 11
121.433
 21
97.5829
 31
0.0
  0
LINE
  8
0
 62
     0
 10
121.433
 20
97.5829
 30
0.0
 11
121.433
 21
100.683
 31
0.0
  0
LINE
  8
0
 62
     0
 10
121.433
 20
100.683
 30
0.0
 11
120.632
 21
100.683
 31
0.0
  0
LINE
  8
0
 62
     0
 10
120.632
 20
100.683
 30
0.0
 11
120.632
 21
101.683
 31
0.0
  0
LINE
  8
0
 62
     0
 10
120.632
 20
101.683
 30
0.0
 11
106.633
 21
101.683
 31
0.0
  0
LINE
  8
0
 62
     0
 10
87.5827
 20
101.683
 30
0.0
 11
87.5827
 21
100.683
 31
0.0
  0
LINE
  8
0
 62
     0
 10
87.5827
 20
100.683
 30
0.0
 11
86.7819
 21
100.683
 31
0.0
  0
LINE
  8
0
 62
     0
 10
86.7819
 20
100.683
 30
0.0
 11
86.7819
 21
97.5829
 31
0.0
  0
LINE
  8
0
 62
     0
 10
86.7819
 20
97.5829
 30
0.0
 11
87.5827
 21
97.5829
 31
0.0
  0
LINE
  8
0
 62
     0
 10
87.5827
 20
97.5829
 30
0.0
 11
87.5827
 21
91.7829
 31
0.0
  0
LINE
  8
0
 62
     0
 10
87.5827
 20
91.7829
 30
0.0
 11
86.7819
 21
91.7829
 31
0.0
  0
LINE
  8
0
 62
     0
 10
86.7819
 20
91.7829
 30
0.0
 11
86.7819
 21
88.6823
 31
0.0
  0
LINE
  8
0
 62
     0
 10
86.7819
 20
88.6823
 30
0.0
 11
87.5827
 21
88.6823
 31
0.0
  0
LINE
  8
0
 62
     0
 10
87.5827
 20
88.6823
 30
0.0
 11
87.5827
 21
87.6819
 31
0.0
  0
LINE
  8
0
 62
     0
 10
87.5827
 20
87.6819
 30
0.0
 11
101.582
 21
87.6819
 31
0.0
  0
LINE
  8
0
 62
     0
 10
101.582
 20
87.6819
 30
0.0
 11
101.582
 21
88.6823
 31
0.0
  0
LINE
  8
0
 62
     0
 10
101.582
 20
88.6823
 30
0.0
 11
102.383
 21
88.6823
 31
0.0
  0
LINE
  8
0
 62
     0
 10
102.383
 20
88.6823
 30
0.0
 11
102.383
 21
91.7829
 31
0.0
  0
LINE
  8
0
 62
     0
 10
102.383
 20
91.7829
 30
0.0
 11
101.582
 21
91.7829
 31
0.0
  0
LINE
  8
0
 62
     0
 10
101.582
 20
91.7829
 30
0.0
 11
101.582
 21
97.5829
 31
0.0
  0
LINE
  8
0
 62
     0
 10
101.582
 20
97.5829
 30
0.0
 11
102.383
 21
97.5829
 31
0.0
  0
LINE
  8
0
 62
     0
 10
102.383
 20
97.5829
 30
0.0
 11
102.383
 21
100.683
 31
0.0
  0
LINE
  8
0
 62
     0
 10
102.383
 20
100.683
 30
0.0
 11
101.582
 21
100.683
 31
0.0
  0
LINE
  8
0
 62
     0
 10
101.582
 20
100.683
 30
0.0
 11
101.582
 21
101.683
 31
0.0
  0
LINE
  8
0
 62
     0
 10
101.582
 20
101.683
 30
0.0
 11
87.5827
 21
101.683
 31
0.0
  0
LINE
  8
0
 62
     0
 10
68.5327
 20
101.683
 30
0.0
 11
68.5327
 21
100.683
 31
0.0
  0
LINE
  8
0
 62
     0
 10
68.5327
 20
100.683
 30
0.0
 11
67.7319
 21
100.683
 31
0.0
  0
LINE
  8
0
 62
     0
 10
67.7319
 20
100.683
 30
0.0
 11
67.7319
 21
97.5829
 31
0.0
  0
LINE
  8
0
 62
     0
 10
67.7319
 20
97.5829
 30
0.0
 11
68.5327
 21
97.5829
 31
0.0
  0
LINE
  8
0
 62
     0
 10
68.5327
 20
97.5829
 30
0.0
 11
68.5327
 21
91.7829
 31
0.0
  0
LINE
  8
0
 62
     0
 10
68.5327
 20
91.7829
 30
0.0
 11
67.7319
 21
91.7829
 31
0.0
  0
LINE
  8
0
 62
     0
 10
67.7319
 20
91.7829
 30
0.0
 11
67.7319
 21
88.6823
 31
0.0
  0
LINE
  8
0
 62
     0
 10
67.7319
 20
88.6823
 30
0.0
 11
68.5327
 21
88.6823
 31
0.0
  0
LINE
  8
0
 62
     0
 10
68.5327
 20
88.6823
 30
0.0
 11
68.5327
 21
87.6819
 31
0.0
  0
LINE
  8
0
 62
     0
 10
68.5327
 20
87.6819
 30
0.0
 11
82.532
 21
87.6819
 31
0.0
  0
LINE
  8
0
 62
     0
 10
82.532
 20
87.6819
 30
0.0
 11
82.532
 21
88.6823
 31
0.0
  0
LINE
  8
0
 62
     0
 10
82.532
 20
88.6823
 30
0.0
 11
83.3328
 21
88.6823
 31
0.0
  0
LINE
  8
0
 62
     0
 10
83.3328
 20
88.6823
 30
0.0
 11
83.3328
 21
91.7829
 31
0.0
  0
LINE
  8
0
 62
     0
 10
83.3328
 20
91.7829
 30
0.0
 11
82.532
 21
91.7829
 31
0.0
  0
LINE
  8
0
 62
     0
 10
82.532
 20
91.7829
 30
0.0
 11
82.532
 21
97.5829
 31
0.0
  0
LINE
  8
0
 62
     0
 10
82.532
 20
97.5829
 30
0.0
 11
83.3328
 21
97.5829
 31
0.0
  0
LINE
  8
0
 62
     0
 10
83.3328
 20
97.5829
 30
0.0
 11
83.3328
 21
100.683
 31
0.0
  0
LINE
  8
0
 62
     0
 10
83.3328
 20
100.683
 30
0.0
 11
82.532
 21
100.683
 31
0.0
  0
LINE
  8
0
 62
     0
 10
82.532
 20
100.683
 30
0.0
 11
82.532
 21
101.683
 31
0.0
  0
LINE
  8
0
 62
     0
 10
82.532
 20
101.683
 30
0.0
 11
68.5327
 21
101.683
 31
0.0
  0
LINE
  8
0
 62
     0
 10
49.4827
 20
101.683
 30
0.0
 11
49.4827
 21
100.683
 31
0.0
  0
LINE
  8
0
 62
     0
 10
49.4827
 20
100.683
 30
0.0
 11
48.6819
 21
100.683
 31
0.0
  0
LINE
  8
0
 62
     0
 10
48.6819
 20
100.683
 30
0.0
 11
48.6819
 21
97.5829
 31
0.0
  0
LINE
  8
0
 62
     0
 10
48.6819
 20
97.5829
 30
0.0
 11
49.4827
 21
97.5829
 31
0.0
  0
LINE
  8
0
 62
     0
 10
49.4827
 20
97.5829
 30
0.0
 11
49.4827
 21
91.7829
 31
0.0
  0
LINE
  8
0
 62
     0
 10
49.4827
 20
91.7829
 30
0.0
 11
48.6819
 21
91.7829
 31
0.0
  0
LINE
  8
0
 62
     0
 10
48.6819
 20
91.7829
 30
0.0
 11
48.6819
 21
88.6823
 31
0.0
  0
LINE
  8
0
 62
     0
 10
48.6819
 20
88.6823
 30
0.0
 11
49.4827
 21
88.6823
 31
0.0
  0
LINE
  8
0
 62
     0
 10
49.4827
 20
88.6823
 30
0.0
 11
49.4827
 21
87.6819
 31
0.0
  0
LINE
  8
0
 62
     0
 10
49.4827
 20
87.6819
 30
0.0
 11
63.482
 21
87.6819
 31
0.0
  0
LINE
  8
0
 62
     0
 10
63.482
 20
87.6819
 30
0.0
 11
63.482
 21
88.6823
 31
0.0
  0
LINE
  8
0
 62
     0
 10
63.482
 20
88.6823
 30
0.0
 11
64.2828
 21
88.6823
 31
0.0
  0
LINE
  8
0
 62
     0
 10
64.2828
 20
88.6823
 30
0.0
 11
64.2828
 21
91.7829
 31
0.0
  0
LINE
  8
0
 62
     0
 10
64.2828
 20
91.7829
 30
0.0
 11
63.482
 21
91.7829
 31
0.0
  0
LINE
  8
0
 62
     0
 10
63.482
 20
91.7829
 30
0.0
 11
63.482
 21
97.5829
 31
0.0
  0
LINE
  8
0
 62
     0
 10
63.482
 20
97.5829
 30
0.0
 11
64.2828
 21
97.5829
 31
0.0
  0
LINE
  8
0
 62
     0
 10
64.2828
 20
97.5829
 30
0.0
 11
64.2828
 21
100.683
 31
0.0
  0
LINE
  8
0
 62
     0
 10
64.2828
 20
100.683
 30
0.0
 11
63.482
 21
100.683
 31
0.0
  0
LINE
  8
0
 62
     0
 10
63.482
 20
100.683
 30
0.0
 11
63.482
 21
101.683
 31
0.0
  0
LINE
  8
0
 62
     0
 10
63.482
 20
101.683
 30
0.0
 11
49.4827
 21
101.683
 31
0.0
  0
LINE
  8
0
 62
     0
 10
30.4326
 20
101.683
 30
0.0
 11
30.4326
 21
100.683
 31
0.0
  0
LINE
  8
0
 62
     0
 10
30.4326
 20
100.683
 30
0.0
 11
29.632
 21
100.683
 31
0.0
  0
LINE
  8
0
 62
     0
 10
29.632
 20
100.683
 30
0.0
 11
29.632
 21
97.5829
 31
0.0
  0
LINE
  8
0
 62
     0
 10
29.632
 20
97.5829
 30
0.0
 11
30.4326
 21
97.5829
 31
0.0
  0
LINE
  8
0
 62
     0
 10
30.4326
 20
97.5829
 30
0.0
 11
30.4326
 21
91.7829
 31
0.0
  0
LINE
  8
0
 62
     0
 10
30.4326
 20
91.7829
 30
0.0
 11
29.632
 21
91.7829
 31
0.0
  0
LINE
  8
0
 62
     0
 10
29.632
 20
91.7829
 30
0.0
 11
29.632
 21
88.6823
 31
0.0
  0
LINE
  8
0
 62
     0
 10
29.632
 20
88.6823
 30
0.0
 11
30.4326
 21
88.6823
 31
0.0
  0
LINE
  8
0
 62
     0
 10
30.4326
 20
88.6823
 30
0.0
 11
30.4326
 21
87.6819
 31
0.0
  0
LINE
  8
0
 62
     0
 10
30.4326
 20
87.6819
 30
0.0
 11
44.432
 21
87.6819
 31
0.0
  0
LINE
  8
0
 62
     0
 10
44.432
 20
87.6819
 30
0.0
 11
44.432
 21
88.6823
 31
0.0
  0
LINE
  8
0
 62
     0
 10
44.432
 20
88.6823
 30
0.0
 11
45.2328
 21
88.6823
 31
0.0
  0
LINE
  8
0
 62
     0
 10
45.2328
 20
88.6823
 30
0.0
 11
45.2328
 21
91.7829
 31
0.0
  0
LINE
  8
0
 62
     0
 10
45.2328
 20
91.7829
 30
0.0
 11
44.432
 21
91.7829
 31
0.0
  0
LINE
  8
0
 62
     0
 10
44.432
 20
91.7829
 30
0.0
 11
44.432
 21
97.5829
 31
0.0
  0
LINE
  8
0
 62
     0
 10
44.432
 20
97.5829
 30
0.0
 11
45.2328
 21
97.5829
 31
0.0
  0
LINE
  8
0
 62
     0
 10
45.2328
 20
97.5829
 30
0.0
 11
45.2328
 21
100.683
 31
0.0
  0
LINE
  8
0
 62
     0
 10
45.2328
 20
100.683
 30
0.0
 11
44.432
 21
100.683
 31
0.0
  0
LINE
  8
0
 62
     0
 10
44.432
 20
100.683
 30
0.0
 11
44.432
 21
101.683
 31
0.0
  0
LINE
  8
0
 62
     0
 10
44.432
 20
101.683
 30
0.0
 11
30.4326
 21
101.683
 31
0.0
  0
LINE
  8
0
 62
     0
 10
6.62009
 20
101.683
 30
0.0
 11
6.62009
 21
100.683
 31
0.0
  0
LINE
  8
0
 62
     0
 10
6.62009
 20
100.683
 30
0.0
 11
5.81946
 21
100.683
 31
0.0
  0
LINE
  8
0
 62
     0
 10
5.81946
 20
100.683
 30
0.0
 11
5.81946
 21
97.5829
 31
0.0
  0
LINE
  8
0
 62
     0
 10
5.81946
 20
97.5829
 30
0.0
 11
6.62009
 21
97.5829
 31
0.0
  0
LINE
  8
0
 62
     0
 10
6.62009
 20
97.5829
 30
0.0
 11
6.62009
 21
91.7829
 31
0.0
  0
LINE
  8
0
 62
     0
 10
6.62009
 20
91.7829
 30
0.0
 11
5.81946
 21
91.7829
 31
0.0
  0
LINE
  8
0
 62
     0
 10
5.81946
 20
91.7829
 30
0.0
 11
5.81946
 21
88.6823
 31
0.0
  0
LINE
  8
0
 62
     0
 10
5.81946
 20
88.6823
 30
0.0
 11
6.62009
 21
88.6823
 31
0.0
  0
LINE
  8
0
 62
     0
 10
6.62009
 20
88.6823
 30
0.0
 11
6.62009
 21
87.6819
 31
0.0
  0
LINE
  8
0
 62
     0
 10
6.62009
 20
87.6819
 30
0.0
 11
20.621
 21
87.6819
 31
0.0
  0
LINE
  8
0
 62
     0
 10
20.621
 20
87.6819
 30
0.0
 11
20.621
 21
88.6823
 31
0.0
  0
LINE
  8
0
 62
     0
 10
20.621
 20
88.6823
 30
0.0
 11
21.4202
 21
88.6823
 31
0.0
  0
LINE
  8
0
 62
     0
 10
21.4202
 20
88.6823
 30
0.0
 11
21.4202
 21
91.7829
 31
0.0
  0
LINE
  8
0
 62
     0
 10
21.4202
 20
91.7829
 30
0.0
 11
20.621
 21
91.7829
 31
0.0
  0
LINE
  8
0
 62
     0
 10
20.621
 20
91.7829
 30
0.0
 11
20.621
 21
97.5829
 31
0.0
  0
LINE
  8
0
 62
     0
 10
20.621
 20
97.5829
 30
0.0
 11
21.4202
 21
97.5829
 31
0.0
  0
LINE
  8
0
 62
     0
 10
21.4202
 20
97.5829
 30
0.0
 11
21.4202
 21
100.683
 31
0.0
  0
LINE
  8
0
 62
     0
 10
21.4202
 20
100.683
 30
0.0
 11
20.621
 21
100.683
 31
0.0
  0
LINE
  8
0
 62
     0
 10
20.621
 20
100.683
 30
0.0
 11
20.621
 21
101.683
 31
0.0
  0
LINE
  8
0
 62
     0
 10
20.621
 20
101.683
 30
0.0
 11
6.62009
 21
101.683
 31
0.0
  0
ENDSEC
  0
EOF
