%TF.GenerationSoftware,KiCad,Pcbnew,(5.1.9)-1*%
%TF.CreationDate,2021-07-15T23:27:18-07:00*%
%TF.ProjectId,unsplit-keyboard,756e7370-6c69-4742-9d6b-6579626f6172,rev?*%
%TF.SameCoordinates,Original*%
%TF.FileFunction,Soldermask,Top*%
%TF.FilePolarity,Negative*%
%FSLAX46Y46*%
G04 Gerber Fmt 4.6, Leading zero omitted, Abs format (unit mm)*
G04 Created by KiCad (PCBNEW (5.1.9)-1) date 2021-07-15 23:27:18*
%MOMM*%
%LPD*%
G01*
G04 APERTURE LIST*
%ADD10C,0.750000*%
%ADD11O,1.100000X2.200000*%
%ADD12O,1.100000X1.700000*%
%ADD13C,1.750000*%
%ADD14C,3.987800*%
%ADD15C,3.048000*%
%ADD16C,2.000000*%
%ADD17R,3.200000X2.000000*%
%ADD18R,2.000000X2.000000*%
%ADD19C,1.397000*%
G04 APERTURE END LIST*
D10*
%TO.C,USB1*%
X40196250Y-19743750D03*
X34416250Y-19743750D03*
D11*
X32986250Y-20273750D03*
X41626250Y-20273750D03*
D12*
X32986250Y-16093750D03*
X41626250Y-16093750D03*
%TD*%
D13*
%TO.C,MX30*%
X306011580Y-44450000D03*
X316171580Y-44450000D03*
D14*
X311091580Y-44450000D03*
%TD*%
%TO.C,MX44*%
X304006250Y-63500000D03*
D13*
X309086250Y-63500000D03*
X298926250Y-63500000D03*
D15*
X315944250Y-70485000D03*
X292068250Y-70485000D03*
D14*
X315944250Y-55245000D03*
X292068250Y-55245000D03*
%TD*%
D16*
%TO.C,ENC1*%
X332718000Y-22990800D03*
X332718000Y-27990800D03*
D17*
X339718000Y-19890800D03*
X339718000Y-31090800D03*
D16*
X347218000Y-22990800D03*
X347218000Y-25490800D03*
D18*
X347218000Y-27990800D03*
%TD*%
D14*
%TO.C,MX2*%
X49212500Y-25400000D03*
D13*
X54292500Y-25400000D03*
X44132500Y-25400000D03*
%TD*%
D19*
%TO.C,OL1*%
X343408000Y-36195000D03*
X340868000Y-36195000D03*
X338328000Y-36195000D03*
X335788000Y-36195000D03*
%TD*%
D14*
%TO.C,MX69*%
X339725000Y-106362500D03*
D13*
X344805000Y-106362500D03*
X334645000Y-106362500D03*
%TD*%
D14*
%TO.C,MX68*%
X320675000Y-106362500D03*
D13*
X325755000Y-106362500D03*
X315595000Y-106362500D03*
%TD*%
D14*
%TO.C,MX67*%
X301625000Y-106362500D03*
D13*
X306705000Y-106362500D03*
X296545000Y-106362500D03*
%TD*%
D14*
%TO.C,MX66*%
X277812500Y-101600000D03*
D13*
X282892500Y-101600000D03*
X272732500Y-101600000D03*
%TD*%
D14*
%TO.C,MX65*%
X258762500Y-101600000D03*
D13*
X263842500Y-101600000D03*
X253682500Y-101600000D03*
%TD*%
D14*
%TO.C,MX64*%
X239712500Y-101600000D03*
D13*
X244792500Y-101600000D03*
X234632500Y-101600000D03*
%TD*%
D14*
%TO.C,MX63*%
X170688000Y-101600000D03*
D13*
X175768000Y-101600000D03*
X165608000Y-101600000D03*
D15*
X220687900Y-108585000D03*
X120688100Y-108585000D03*
D14*
X220687900Y-93345000D03*
X120688100Y-93345000D03*
%TD*%
%TO.C,MX62*%
X99218750Y-101600000D03*
D13*
X104298750Y-101600000D03*
X94138750Y-101600000D03*
%TD*%
D14*
%TO.C,MX61*%
X51593750Y-101600000D03*
D13*
X56673750Y-101600000D03*
X46513750Y-101600000D03*
%TD*%
D14*
%TO.C,MX60*%
X25400000Y-101600000D03*
D13*
X30480000Y-101600000D03*
X20320000Y-101600000D03*
%TD*%
D14*
%TO.C,MX59*%
X339725000Y-87312500D03*
D13*
X344805000Y-87312500D03*
X334645000Y-87312500D03*
%TD*%
D14*
%TO.C,MX58*%
X320675000Y-87312500D03*
D13*
X325755000Y-87312500D03*
X315595000Y-87312500D03*
%TD*%
D14*
%TO.C,MX57*%
X289718750Y-82550000D03*
D13*
X294798750Y-82550000D03*
X284638750Y-82550000D03*
%TD*%
D14*
%TO.C,MX56*%
X263525000Y-82550000D03*
D13*
X268605000Y-82550000D03*
X258445000Y-82550000D03*
%TD*%
D14*
%TO.C,MX55*%
X244475000Y-82550000D03*
D13*
X249555000Y-82550000D03*
X239395000Y-82550000D03*
%TD*%
D14*
%TO.C,MX54*%
X225425000Y-82550000D03*
D13*
X230505000Y-82550000D03*
X220345000Y-82550000D03*
%TD*%
D14*
%TO.C,MX53*%
X206375000Y-82550000D03*
D13*
X211455000Y-82550000D03*
X201295000Y-82550000D03*
%TD*%
D14*
%TO.C,MX52*%
X187325000Y-82550000D03*
D13*
X192405000Y-82550000D03*
X182245000Y-82550000D03*
%TD*%
D14*
%TO.C,MX51*%
X168275000Y-82550000D03*
D13*
X173355000Y-82550000D03*
X163195000Y-82550000D03*
%TD*%
D14*
%TO.C,MX50*%
X149225000Y-82550000D03*
D13*
X154305000Y-82550000D03*
X144145000Y-82550000D03*
%TD*%
D14*
%TO.C,MX49*%
X130175000Y-82550000D03*
D13*
X135255000Y-82550000D03*
X125095000Y-82550000D03*
%TD*%
D14*
%TO.C,MX48*%
X111125000Y-82550000D03*
D13*
X116205000Y-82550000D03*
X106045000Y-82550000D03*
%TD*%
D14*
%TO.C,MX47*%
X92075000Y-82550000D03*
D13*
X97155000Y-82550000D03*
X86995000Y-82550000D03*
%TD*%
D14*
%TO.C,MX46*%
X61118750Y-82550000D03*
D13*
X66198750Y-82550000D03*
X56038750Y-82550000D03*
D15*
X73056750Y-89535000D03*
X49180750Y-89535000D03*
D14*
X73056750Y-74295000D03*
X49180750Y-74295000D03*
%TD*%
%TO.C,MX45*%
X25400000Y-82550000D03*
D13*
X30480000Y-82550000D03*
X20320000Y-82550000D03*
%TD*%
D14*
%TO.C,MX43*%
X273050000Y-63500000D03*
D13*
X278130000Y-63500000D03*
X267970000Y-63500000D03*
%TD*%
D14*
%TO.C,MX42*%
X254000000Y-63500000D03*
D13*
X259080000Y-63500000D03*
X248920000Y-63500000D03*
%TD*%
D14*
%TO.C,MX41*%
X234950000Y-63500000D03*
D13*
X240030000Y-63500000D03*
X229870000Y-63500000D03*
%TD*%
D14*
%TO.C,MX40*%
X215900000Y-63500000D03*
D13*
X220980000Y-63500000D03*
X210820000Y-63500000D03*
%TD*%
D14*
%TO.C,MX39*%
X196850000Y-63500000D03*
D13*
X201930000Y-63500000D03*
X191770000Y-63500000D03*
%TD*%
D14*
%TO.C,MX38*%
X177800000Y-63500000D03*
D13*
X182880000Y-63500000D03*
X172720000Y-63500000D03*
%TD*%
D14*
%TO.C,MX37*%
X158750000Y-63500000D03*
D13*
X163830000Y-63500000D03*
X153670000Y-63500000D03*
%TD*%
D14*
%TO.C,MX36*%
X139700000Y-63500000D03*
D13*
X144780000Y-63500000D03*
X134620000Y-63500000D03*
%TD*%
D14*
%TO.C,MX35*%
X120650000Y-63500000D03*
D13*
X125730000Y-63500000D03*
X115570000Y-63500000D03*
%TD*%
D14*
%TO.C,MX34*%
X101600000Y-63500000D03*
D13*
X106680000Y-63500000D03*
X96520000Y-63500000D03*
%TD*%
D14*
%TO.C,MX33*%
X82550000Y-63500000D03*
D13*
X87630000Y-63500000D03*
X77470000Y-63500000D03*
%TD*%
D14*
%TO.C,MX32*%
X56356250Y-63500000D03*
D13*
X61436250Y-63500000D03*
X51276250Y-63500000D03*
%TD*%
D14*
%TO.C,MX31*%
X25400000Y-63500000D03*
D13*
X30480000Y-63500000D03*
X20320000Y-63500000D03*
%TD*%
D14*
%TO.C,MX29*%
X287274000Y-44450000D03*
D13*
X292354000Y-44450000D03*
X282194000Y-44450000D03*
%TD*%
D14*
%TO.C,MX28*%
X268224000Y-44450000D03*
D13*
X273304000Y-44450000D03*
X263144000Y-44450000D03*
%TD*%
D14*
%TO.C,MX27*%
X249174000Y-44450000D03*
D13*
X254254000Y-44450000D03*
X244094000Y-44450000D03*
%TD*%
D14*
%TO.C,MX26*%
X230124000Y-44450000D03*
D13*
X235204000Y-44450000D03*
X225044000Y-44450000D03*
%TD*%
D14*
%TO.C,MX25*%
X211074000Y-44450000D03*
D13*
X216154000Y-44450000D03*
X205994000Y-44450000D03*
%TD*%
D14*
%TO.C,MX24*%
X192024000Y-44450000D03*
D13*
X197104000Y-44450000D03*
X186944000Y-44450000D03*
%TD*%
D14*
%TO.C,MX23*%
X172974000Y-44450000D03*
D13*
X178054000Y-44450000D03*
X167894000Y-44450000D03*
%TD*%
D14*
%TO.C,MX22*%
X153924000Y-44450000D03*
D13*
X159004000Y-44450000D03*
X148844000Y-44450000D03*
%TD*%
D14*
%TO.C,MX21*%
X134874000Y-44450000D03*
D13*
X139954000Y-44450000D03*
X129794000Y-44450000D03*
%TD*%
D14*
%TO.C,MX20*%
X115824000Y-44450000D03*
D13*
X120904000Y-44450000D03*
X110744000Y-44450000D03*
%TD*%
D14*
%TO.C,MX19*%
X96774000Y-44450000D03*
D13*
X101854000Y-44450000D03*
X91694000Y-44450000D03*
%TD*%
D14*
%TO.C,MX18*%
X77724000Y-44450000D03*
D13*
X82804000Y-44450000D03*
X72644000Y-44450000D03*
%TD*%
D14*
%TO.C,MX17*%
X53975000Y-44450000D03*
D13*
X59055000Y-44450000D03*
X48895000Y-44450000D03*
%TD*%
D14*
%TO.C,MX16*%
X25405080Y-44450000D03*
D13*
X30485080Y-44450000D03*
X20325080Y-44450000D03*
%TD*%
D14*
%TO.C,MX15*%
X294452040Y-17152620D03*
X318328040Y-17152620D03*
D15*
X294452040Y-32392620D03*
X318328040Y-32392620D03*
D13*
X301310040Y-25407620D03*
X311470040Y-25407620D03*
D14*
X306390040Y-25407620D03*
%TD*%
%TO.C,MX14*%
X277812500Y-25400000D03*
D13*
X282892500Y-25400000D03*
X272732500Y-25400000D03*
%TD*%
D14*
%TO.C,MX13*%
X258762500Y-25400000D03*
D13*
X263842500Y-25400000D03*
X253682500Y-25400000D03*
%TD*%
D14*
%TO.C,MX12*%
X239712500Y-25400000D03*
D13*
X244792500Y-25400000D03*
X234632500Y-25400000D03*
%TD*%
D14*
%TO.C,MX11*%
X220662500Y-25400000D03*
D13*
X225742500Y-25400000D03*
X215582500Y-25400000D03*
%TD*%
D14*
%TO.C,MX10*%
X201612500Y-25400000D03*
D13*
X206692500Y-25400000D03*
X196532500Y-25400000D03*
%TD*%
D14*
%TO.C,MX9*%
X182562500Y-25400000D03*
D13*
X187642500Y-25400000D03*
X177482500Y-25400000D03*
%TD*%
D14*
%TO.C,MX8*%
X163512500Y-25400000D03*
D13*
X168592500Y-25400000D03*
X158432500Y-25400000D03*
%TD*%
D14*
%TO.C,MX7*%
X144462500Y-25400000D03*
D13*
X149542500Y-25400000D03*
X139382500Y-25400000D03*
%TD*%
D14*
%TO.C,MX6*%
X125412500Y-25400000D03*
D13*
X130492500Y-25400000D03*
X120332500Y-25400000D03*
%TD*%
D14*
%TO.C,MX5*%
X106362500Y-25400000D03*
D13*
X111442500Y-25400000D03*
X101282500Y-25400000D03*
%TD*%
D14*
%TO.C,MX4*%
X87312500Y-25400000D03*
D13*
X92392500Y-25400000D03*
X82232500Y-25400000D03*
%TD*%
D14*
%TO.C,MX3*%
X68262500Y-25400000D03*
D13*
X73342500Y-25400000D03*
X63182500Y-25400000D03*
%TD*%
D14*
%TO.C,MX1*%
X25400000Y-25400000D03*
D13*
X30480000Y-25400000D03*
X20320000Y-25400000D03*
%TD*%
M02*
