%TF.GenerationSoftware,KiCad,Pcbnew,(5.1.9)-1*%
%TF.CreationDate,2021-07-15T23:27:18-07:00*%
%TF.ProjectId,unsplit-keyboard,756e7370-6c69-4742-9d6b-6579626f6172,rev?*%
%TF.SameCoordinates,Original*%
%TF.FileFunction,Paste,Bot*%
%TF.FilePolarity,Positive*%
%FSLAX46Y46*%
G04 Gerber Fmt 4.6, Leading zero omitted, Abs format (unit mm)*
G04 Created by KiCad (PCBNEW (5.1.9)-1) date 2021-07-15 23:27:18*
%MOMM*%
%LPD*%
G01*
G04 APERTURE LIST*
%ADD10R,1.500000X0.500000*%
%ADD11R,0.500000X1.500000*%
%ADD12R,1.400000X1.200000*%
%ADD13R,1.800000X1.100000*%
G04 APERTURE END LIST*
%TO.C,USB1*%
G36*
G01*
X40181250Y-21913750D02*
X40181250Y-20463750D01*
G75*
G02*
X40231250Y-20413750I50000J0D01*
G01*
X40831250Y-20413750D01*
G75*
G02*
X40881250Y-20463750I0J-50000D01*
G01*
X40881250Y-21913750D01*
G75*
G02*
X40831250Y-21963750I-50000J0D01*
G01*
X40231250Y-21963750D01*
G75*
G02*
X40181250Y-21913750I0J50000D01*
G01*
G37*
G36*
G01*
X33731250Y-21913750D02*
X33731250Y-20463750D01*
G75*
G02*
X33781250Y-20413750I50000J0D01*
G01*
X34381250Y-20413750D01*
G75*
G02*
X34431250Y-20463750I0J-50000D01*
G01*
X34431250Y-21913750D01*
G75*
G02*
X34381250Y-21963750I-50000J0D01*
G01*
X33781250Y-21963750D01*
G75*
G02*
X33731250Y-21913750I0J50000D01*
G01*
G37*
G36*
G01*
X39406250Y-21913750D02*
X39406250Y-20463750D01*
G75*
G02*
X39456250Y-20413750I50000J0D01*
G01*
X40056250Y-20413750D01*
G75*
G02*
X40106250Y-20463750I0J-50000D01*
G01*
X40106250Y-21913750D01*
G75*
G02*
X40056250Y-21963750I-50000J0D01*
G01*
X39456250Y-21963750D01*
G75*
G02*
X39406250Y-21913750I0J50000D01*
G01*
G37*
G36*
G01*
X34506250Y-21913750D02*
X34506250Y-20463750D01*
G75*
G02*
X34556250Y-20413750I50000J0D01*
G01*
X35156250Y-20413750D01*
G75*
G02*
X35206250Y-20463750I0J-50000D01*
G01*
X35206250Y-21913750D01*
G75*
G02*
X35156250Y-21963750I-50000J0D01*
G01*
X34556250Y-21963750D01*
G75*
G02*
X34506250Y-21913750I0J50000D01*
G01*
G37*
G36*
G01*
X35356250Y-21913750D02*
X35356250Y-20463750D01*
G75*
G02*
X35406250Y-20413750I50000J0D01*
G01*
X35706250Y-20413750D01*
G75*
G02*
X35756250Y-20463750I0J-50000D01*
G01*
X35756250Y-21913750D01*
G75*
G02*
X35706250Y-21963750I-50000J0D01*
G01*
X35406250Y-21963750D01*
G75*
G02*
X35356250Y-21913750I0J50000D01*
G01*
G37*
G36*
G01*
X38856250Y-21913750D02*
X38856250Y-20463750D01*
G75*
G02*
X38906250Y-20413750I50000J0D01*
G01*
X39206250Y-20413750D01*
G75*
G02*
X39256250Y-20463750I0J-50000D01*
G01*
X39256250Y-21913750D01*
G75*
G02*
X39206250Y-21963750I-50000J0D01*
G01*
X38906250Y-21963750D01*
G75*
G02*
X38856250Y-21913750I0J50000D01*
G01*
G37*
G36*
G01*
X35856250Y-21913750D02*
X35856250Y-20463750D01*
G75*
G02*
X35906250Y-20413750I50000J0D01*
G01*
X36206250Y-20413750D01*
G75*
G02*
X36256250Y-20463750I0J-50000D01*
G01*
X36256250Y-21913750D01*
G75*
G02*
X36206250Y-21963750I-50000J0D01*
G01*
X35906250Y-21963750D01*
G75*
G02*
X35856250Y-21913750I0J50000D01*
G01*
G37*
G36*
G01*
X38356250Y-21913750D02*
X38356250Y-20463750D01*
G75*
G02*
X38406250Y-20413750I50000J0D01*
G01*
X38706250Y-20413750D01*
G75*
G02*
X38756250Y-20463750I0J-50000D01*
G01*
X38756250Y-21913750D01*
G75*
G02*
X38706250Y-21963750I-50000J0D01*
G01*
X38406250Y-21963750D01*
G75*
G02*
X38356250Y-21913750I0J50000D01*
G01*
G37*
G36*
G01*
X36356250Y-21913750D02*
X36356250Y-20463750D01*
G75*
G02*
X36406250Y-20413750I50000J0D01*
G01*
X36706250Y-20413750D01*
G75*
G02*
X36756250Y-20463750I0J-50000D01*
G01*
X36756250Y-21913750D01*
G75*
G02*
X36706250Y-21963750I-50000J0D01*
G01*
X36406250Y-21963750D01*
G75*
G02*
X36356250Y-21913750I0J50000D01*
G01*
G37*
G36*
G01*
X37856250Y-21913750D02*
X37856250Y-20463750D01*
G75*
G02*
X37906250Y-20413750I50000J0D01*
G01*
X38206250Y-20413750D01*
G75*
G02*
X38256250Y-20463750I0J-50000D01*
G01*
X38256250Y-21913750D01*
G75*
G02*
X38206250Y-21963750I-50000J0D01*
G01*
X37906250Y-21963750D01*
G75*
G02*
X37856250Y-21913750I0J50000D01*
G01*
G37*
G36*
G01*
X37356250Y-21913750D02*
X37356250Y-20463750D01*
G75*
G02*
X37406250Y-20413750I50000J0D01*
G01*
X37706250Y-20413750D01*
G75*
G02*
X37756250Y-20463750I0J-50000D01*
G01*
X37756250Y-21913750D01*
G75*
G02*
X37706250Y-21963750I-50000J0D01*
G01*
X37406250Y-21963750D01*
G75*
G02*
X37356250Y-21913750I0J50000D01*
G01*
G37*
G36*
G01*
X36856250Y-21913750D02*
X36856250Y-20463750D01*
G75*
G02*
X36906250Y-20413750I50000J0D01*
G01*
X37206250Y-20413750D01*
G75*
G02*
X37256250Y-20463750I0J-50000D01*
G01*
X37256250Y-21913750D01*
G75*
G02*
X37206250Y-21963750I-50000J0D01*
G01*
X36906250Y-21963750D01*
G75*
G02*
X36856250Y-21913750I0J50000D01*
G01*
G37*
%TD*%
D10*
%TO.C,U1*%
X346006000Y-52387000D03*
X346006000Y-51587000D03*
X346006000Y-50787000D03*
X346006000Y-49987000D03*
X346006000Y-49187000D03*
X346006000Y-48387000D03*
X346006000Y-47587000D03*
X346006000Y-46787000D03*
X346006000Y-45987000D03*
X346006000Y-45187000D03*
X346006000Y-44387000D03*
D11*
X344106000Y-42487000D03*
X343306000Y-42487000D03*
X342506000Y-42487000D03*
X341706000Y-42487000D03*
X340906000Y-42487000D03*
X340106000Y-42487000D03*
X339306000Y-42487000D03*
X338506000Y-42487000D03*
X337706000Y-42487000D03*
X336906000Y-42487000D03*
X336106000Y-42487000D03*
D10*
X334206000Y-44387000D03*
X334206000Y-45187000D03*
X334206000Y-45987000D03*
X334206000Y-46787000D03*
X334206000Y-47587000D03*
X334206000Y-48387000D03*
X334206000Y-49187000D03*
X334206000Y-49987000D03*
X334206000Y-50787000D03*
X334206000Y-51587000D03*
X334206000Y-52387000D03*
D11*
X336106000Y-54287000D03*
X336906000Y-54287000D03*
X337706000Y-54287000D03*
X338506000Y-54287000D03*
X339306000Y-54287000D03*
X340106000Y-54287000D03*
X340906000Y-54287000D03*
X341706000Y-54287000D03*
X342506000Y-54287000D03*
X343306000Y-54287000D03*
X344106000Y-54287000D03*
%TD*%
%TO.C,C3*%
G36*
G01*
X334678000Y-23873800D02*
X335628000Y-23873800D01*
G75*
G02*
X335878000Y-24123800I0J-250000D01*
G01*
X335878000Y-24623800D01*
G75*
G02*
X335628000Y-24873800I-250000J0D01*
G01*
X334678000Y-24873800D01*
G75*
G02*
X334428000Y-24623800I0J250000D01*
G01*
X334428000Y-24123800D01*
G75*
G02*
X334678000Y-23873800I250000J0D01*
G01*
G37*
G36*
G01*
X334678000Y-25773800D02*
X335628000Y-25773800D01*
G75*
G02*
X335878000Y-26023800I0J-250000D01*
G01*
X335878000Y-26523800D01*
G75*
G02*
X335628000Y-26773800I-250000J0D01*
G01*
X334678000Y-26773800D01*
G75*
G02*
X334428000Y-26523800I0J250000D01*
G01*
X334428000Y-26023800D01*
G75*
G02*
X334678000Y-25773800I250000J0D01*
G01*
G37*
%TD*%
%TO.C,C10*%
G36*
G01*
X342679000Y-22406550D02*
X343629000Y-22406550D01*
G75*
G02*
X343879000Y-22656550I0J-250000D01*
G01*
X343879000Y-23156550D01*
G75*
G02*
X343629000Y-23406550I-250000J0D01*
G01*
X342679000Y-23406550D01*
G75*
G02*
X342429000Y-23156550I0J250000D01*
G01*
X342429000Y-22656550D01*
G75*
G02*
X342679000Y-22406550I250000J0D01*
G01*
G37*
G36*
G01*
X342679000Y-24306550D02*
X343629000Y-24306550D01*
G75*
G02*
X343879000Y-24556550I0J-250000D01*
G01*
X343879000Y-25056550D01*
G75*
G02*
X343629000Y-25306550I-250000J0D01*
G01*
X342679000Y-25306550D01*
G75*
G02*
X342429000Y-25056550I0J250000D01*
G01*
X342429000Y-24556550D01*
G75*
G02*
X342679000Y-24306550I250000J0D01*
G01*
G37*
%TD*%
%TO.C,C9*%
G36*
G01*
X343629000Y-29059800D02*
X342679000Y-29059800D01*
G75*
G02*
X342429000Y-28809800I0J250000D01*
G01*
X342429000Y-28309800D01*
G75*
G02*
X342679000Y-28059800I250000J0D01*
G01*
X343629000Y-28059800D01*
G75*
G02*
X343879000Y-28309800I0J-250000D01*
G01*
X343879000Y-28809800D01*
G75*
G02*
X343629000Y-29059800I-250000J0D01*
G01*
G37*
G36*
G01*
X343629000Y-27159800D02*
X342679000Y-27159800D01*
G75*
G02*
X342429000Y-26909800I0J250000D01*
G01*
X342429000Y-26409800D01*
G75*
G02*
X342679000Y-26159800I250000J0D01*
G01*
X343629000Y-26159800D01*
G75*
G02*
X343879000Y-26409800I0J-250000D01*
G01*
X343879000Y-26909800D01*
G75*
G02*
X343629000Y-27159800I-250000J0D01*
G01*
G37*
%TD*%
%TO.C,R5*%
G36*
G01*
X340253748Y-26278300D02*
X341153752Y-26278300D01*
G75*
G02*
X341403750Y-26528298I0J-249998D01*
G01*
X341403750Y-27053302D01*
G75*
G02*
X341153752Y-27303300I-249998J0D01*
G01*
X340253748Y-27303300D01*
G75*
G02*
X340003750Y-27053302I0J249998D01*
G01*
X340003750Y-26528298D01*
G75*
G02*
X340253748Y-26278300I249998J0D01*
G01*
G37*
G36*
G01*
X340253748Y-28103300D02*
X341153752Y-28103300D01*
G75*
G02*
X341403750Y-28353298I0J-249998D01*
G01*
X341403750Y-28878302D01*
G75*
G02*
X341153752Y-29128300I-249998J0D01*
G01*
X340253748Y-29128300D01*
G75*
G02*
X340003750Y-28878302I0J249998D01*
G01*
X340003750Y-28353298D01*
G75*
G02*
X340253748Y-28103300I249998J0D01*
G01*
G37*
%TD*%
%TO.C,R6*%
G36*
G01*
X341191002Y-25224800D02*
X340290998Y-25224800D01*
G75*
G02*
X340041000Y-24974802I0J249998D01*
G01*
X340041000Y-24449798D01*
G75*
G02*
X340290998Y-24199800I249998J0D01*
G01*
X341191002Y-24199800D01*
G75*
G02*
X341441000Y-24449798I0J-249998D01*
G01*
X341441000Y-24974802D01*
G75*
G02*
X341191002Y-25224800I-249998J0D01*
G01*
G37*
G36*
G01*
X341191002Y-23399800D02*
X340290998Y-23399800D01*
G75*
G02*
X340041000Y-23149802I0J249998D01*
G01*
X340041000Y-22624798D01*
G75*
G02*
X340290998Y-22374800I249998J0D01*
G01*
X341191002Y-22374800D01*
G75*
G02*
X341441000Y-22624798I0J-249998D01*
G01*
X341441000Y-23149802D01*
G75*
G02*
X341191002Y-23399800I-249998J0D01*
G01*
G37*
%TD*%
%TO.C,R4*%
G36*
G01*
X336988998Y-23898800D02*
X337889002Y-23898800D01*
G75*
G02*
X338139000Y-24148798I0J-249998D01*
G01*
X338139000Y-24673802D01*
G75*
G02*
X337889002Y-24923800I-249998J0D01*
G01*
X336988998Y-24923800D01*
G75*
G02*
X336739000Y-24673802I0J249998D01*
G01*
X336739000Y-24148798D01*
G75*
G02*
X336988998Y-23898800I249998J0D01*
G01*
G37*
G36*
G01*
X336988998Y-25723800D02*
X337889002Y-25723800D01*
G75*
G02*
X338139000Y-25973798I0J-249998D01*
G01*
X338139000Y-26498802D01*
G75*
G02*
X337889002Y-26748800I-249998J0D01*
G01*
X336988998Y-26748800D01*
G75*
G02*
X336739000Y-26498802I0J249998D01*
G01*
X336739000Y-25973798D01*
G75*
G02*
X336988998Y-25723800I249998J0D01*
G01*
G37*
%TD*%
D12*
%TO.C,X1*%
X342663600Y-66358400D03*
X344863600Y-66358400D03*
X344863600Y-68058400D03*
X342663600Y-68058400D03*
%TD*%
D13*
%TO.C,SW1*%
X333170600Y-63580400D03*
X339370600Y-67280400D03*
X333170600Y-67280400D03*
X339370600Y-63580400D03*
%TD*%
%TO.C,R7*%
G36*
G01*
X345663098Y-39911600D02*
X346563102Y-39911600D01*
G75*
G02*
X346813100Y-40161598I0J-249998D01*
G01*
X346813100Y-40686602D01*
G75*
G02*
X346563102Y-40936600I-249998J0D01*
G01*
X345663098Y-40936600D01*
G75*
G02*
X345413100Y-40686602I0J249998D01*
G01*
X345413100Y-40161598D01*
G75*
G02*
X345663098Y-39911600I249998J0D01*
G01*
G37*
G36*
G01*
X345663098Y-41736600D02*
X346563102Y-41736600D01*
G75*
G02*
X346813100Y-41986598I0J-249998D01*
G01*
X346813100Y-42511602D01*
G75*
G02*
X346563102Y-42761600I-249998J0D01*
G01*
X345663098Y-42761600D01*
G75*
G02*
X345413100Y-42511602I0J249998D01*
G01*
X345413100Y-41986598D01*
G75*
G02*
X345663098Y-41736600I249998J0D01*
G01*
G37*
%TD*%
%TO.C,R3*%
G36*
G01*
X36645002Y-26825000D02*
X35744998Y-26825000D01*
G75*
G02*
X35495000Y-26575002I0J249998D01*
G01*
X35495000Y-26049998D01*
G75*
G02*
X35744998Y-25800000I249998J0D01*
G01*
X36645002Y-25800000D01*
G75*
G02*
X36895000Y-26049998I0J-249998D01*
G01*
X36895000Y-26575002D01*
G75*
G02*
X36645002Y-26825000I-249998J0D01*
G01*
G37*
G36*
G01*
X36645002Y-25000000D02*
X35744998Y-25000000D01*
G75*
G02*
X35495000Y-24750002I0J249998D01*
G01*
X35495000Y-24224998D01*
G75*
G02*
X35744998Y-23975000I249998J0D01*
G01*
X36645002Y-23975000D01*
G75*
G02*
X36895000Y-24224998I0J-249998D01*
G01*
X36895000Y-24750002D01*
G75*
G02*
X36645002Y-25000000I-249998J0D01*
G01*
G37*
%TD*%
%TO.C,R2*%
G36*
G01*
X38804002Y-26825000D02*
X37903998Y-26825000D01*
G75*
G02*
X37654000Y-26575002I0J249998D01*
G01*
X37654000Y-26049998D01*
G75*
G02*
X37903998Y-25800000I249998J0D01*
G01*
X38804002Y-25800000D01*
G75*
G02*
X39054000Y-26049998I0J-249998D01*
G01*
X39054000Y-26575002D01*
G75*
G02*
X38804002Y-26825000I-249998J0D01*
G01*
G37*
G36*
G01*
X38804002Y-25000000D02*
X37903998Y-25000000D01*
G75*
G02*
X37654000Y-24750002I0J249998D01*
G01*
X37654000Y-24224998D01*
G75*
G02*
X37903998Y-23975000I249998J0D01*
G01*
X38804002Y-23975000D01*
G75*
G02*
X39054000Y-24224998I0J-249998D01*
G01*
X39054000Y-24750002D01*
G75*
G02*
X38804002Y-25000000I-249998J0D01*
G01*
G37*
%TD*%
%TO.C,R1*%
G36*
G01*
X330105598Y-66719400D02*
X331005602Y-66719400D01*
G75*
G02*
X331255600Y-66969398I0J-249998D01*
G01*
X331255600Y-67494402D01*
G75*
G02*
X331005602Y-67744400I-249998J0D01*
G01*
X330105598Y-67744400D01*
G75*
G02*
X329855600Y-67494402I0J249998D01*
G01*
X329855600Y-66969398D01*
G75*
G02*
X330105598Y-66719400I249998J0D01*
G01*
G37*
G36*
G01*
X330105598Y-64894400D02*
X331005602Y-64894400D01*
G75*
G02*
X331255600Y-65144398I0J-249998D01*
G01*
X331255600Y-65669402D01*
G75*
G02*
X331005602Y-65919400I-249998J0D01*
G01*
X330105598Y-65919400D01*
G75*
G02*
X329855600Y-65669402I0J249998D01*
G01*
X329855600Y-65144398D01*
G75*
G02*
X330105598Y-64894400I249998J0D01*
G01*
G37*
%TD*%
%TO.C,D70*%
G36*
G01*
X317043750Y-61948000D02*
X317956250Y-61948000D01*
G75*
G02*
X318200000Y-62191750I0J-243750D01*
G01*
X318200000Y-62679250D01*
G75*
G02*
X317956250Y-62923000I-243750J0D01*
G01*
X317043750Y-62923000D01*
G75*
G02*
X316800000Y-62679250I0J243750D01*
G01*
X316800000Y-62191750D01*
G75*
G02*
X317043750Y-61948000I243750J0D01*
G01*
G37*
G36*
G01*
X317043750Y-63823000D02*
X317956250Y-63823000D01*
G75*
G02*
X318200000Y-64066750I0J-243750D01*
G01*
X318200000Y-64554250D01*
G75*
G02*
X317956250Y-64798000I-243750J0D01*
G01*
X317043750Y-64798000D01*
G75*
G02*
X316800000Y-64554250I0J243750D01*
G01*
X316800000Y-64066750D01*
G75*
G02*
X317043750Y-63823000I243750J0D01*
G01*
G37*
%TD*%
%TO.C,D69*%
G36*
G01*
X347206250Y-106812500D02*
X348118750Y-106812500D01*
G75*
G02*
X348362500Y-107056250I0J-243750D01*
G01*
X348362500Y-107543750D01*
G75*
G02*
X348118750Y-107787500I-243750J0D01*
G01*
X347206250Y-107787500D01*
G75*
G02*
X346962500Y-107543750I0J243750D01*
G01*
X346962500Y-107056250D01*
G75*
G02*
X347206250Y-106812500I243750J0D01*
G01*
G37*
G36*
G01*
X347206250Y-104937500D02*
X348118750Y-104937500D01*
G75*
G02*
X348362500Y-105181250I0J-243750D01*
G01*
X348362500Y-105668750D01*
G75*
G02*
X348118750Y-105912500I-243750J0D01*
G01*
X347206250Y-105912500D01*
G75*
G02*
X346962500Y-105668750I0J243750D01*
G01*
X346962500Y-105181250D01*
G75*
G02*
X347206250Y-104937500I243750J0D01*
G01*
G37*
%TD*%
%TO.C,D68*%
G36*
G01*
X328156250Y-106812500D02*
X329068750Y-106812500D01*
G75*
G02*
X329312500Y-107056250I0J-243750D01*
G01*
X329312500Y-107543750D01*
G75*
G02*
X329068750Y-107787500I-243750J0D01*
G01*
X328156250Y-107787500D01*
G75*
G02*
X327912500Y-107543750I0J243750D01*
G01*
X327912500Y-107056250D01*
G75*
G02*
X328156250Y-106812500I243750J0D01*
G01*
G37*
G36*
G01*
X328156250Y-104937500D02*
X329068750Y-104937500D01*
G75*
G02*
X329312500Y-105181250I0J-243750D01*
G01*
X329312500Y-105668750D01*
G75*
G02*
X329068750Y-105912500I-243750J0D01*
G01*
X328156250Y-105912500D01*
G75*
G02*
X327912500Y-105668750I0J243750D01*
G01*
X327912500Y-105181250D01*
G75*
G02*
X328156250Y-104937500I243750J0D01*
G01*
G37*
%TD*%
%TO.C,D67*%
G36*
G01*
X309106250Y-106812500D02*
X310018750Y-106812500D01*
G75*
G02*
X310262500Y-107056250I0J-243750D01*
G01*
X310262500Y-107543750D01*
G75*
G02*
X310018750Y-107787500I-243750J0D01*
G01*
X309106250Y-107787500D01*
G75*
G02*
X308862500Y-107543750I0J243750D01*
G01*
X308862500Y-107056250D01*
G75*
G02*
X309106250Y-106812500I243750J0D01*
G01*
G37*
G36*
G01*
X309106250Y-104937500D02*
X310018750Y-104937500D01*
G75*
G02*
X310262500Y-105181250I0J-243750D01*
G01*
X310262500Y-105668750D01*
G75*
G02*
X310018750Y-105912500I-243750J0D01*
G01*
X309106250Y-105912500D01*
G75*
G02*
X308862500Y-105668750I0J243750D01*
G01*
X308862500Y-105181250D01*
G75*
G02*
X309106250Y-104937500I243750J0D01*
G01*
G37*
%TD*%
%TO.C,D66*%
G36*
G01*
X285293750Y-102050000D02*
X286206250Y-102050000D01*
G75*
G02*
X286450000Y-102293750I0J-243750D01*
G01*
X286450000Y-102781250D01*
G75*
G02*
X286206250Y-103025000I-243750J0D01*
G01*
X285293750Y-103025000D01*
G75*
G02*
X285050000Y-102781250I0J243750D01*
G01*
X285050000Y-102293750D01*
G75*
G02*
X285293750Y-102050000I243750J0D01*
G01*
G37*
G36*
G01*
X285293750Y-100175000D02*
X286206250Y-100175000D01*
G75*
G02*
X286450000Y-100418750I0J-243750D01*
G01*
X286450000Y-100906250D01*
G75*
G02*
X286206250Y-101150000I-243750J0D01*
G01*
X285293750Y-101150000D01*
G75*
G02*
X285050000Y-100906250I0J243750D01*
G01*
X285050000Y-100418750D01*
G75*
G02*
X285293750Y-100175000I243750J0D01*
G01*
G37*
%TD*%
%TO.C,D65*%
G36*
G01*
X266243750Y-102050000D02*
X267156250Y-102050000D01*
G75*
G02*
X267400000Y-102293750I0J-243750D01*
G01*
X267400000Y-102781250D01*
G75*
G02*
X267156250Y-103025000I-243750J0D01*
G01*
X266243750Y-103025000D01*
G75*
G02*
X266000000Y-102781250I0J243750D01*
G01*
X266000000Y-102293750D01*
G75*
G02*
X266243750Y-102050000I243750J0D01*
G01*
G37*
G36*
G01*
X266243750Y-100175000D02*
X267156250Y-100175000D01*
G75*
G02*
X267400000Y-100418750I0J-243750D01*
G01*
X267400000Y-100906250D01*
G75*
G02*
X267156250Y-101150000I-243750J0D01*
G01*
X266243750Y-101150000D01*
G75*
G02*
X266000000Y-100906250I0J243750D01*
G01*
X266000000Y-100418750D01*
G75*
G02*
X266243750Y-100175000I243750J0D01*
G01*
G37*
%TD*%
%TO.C,D64*%
G36*
G01*
X247193750Y-102050000D02*
X248106250Y-102050000D01*
G75*
G02*
X248350000Y-102293750I0J-243750D01*
G01*
X248350000Y-102781250D01*
G75*
G02*
X248106250Y-103025000I-243750J0D01*
G01*
X247193750Y-103025000D01*
G75*
G02*
X246950000Y-102781250I0J243750D01*
G01*
X246950000Y-102293750D01*
G75*
G02*
X247193750Y-102050000I243750J0D01*
G01*
G37*
G36*
G01*
X247193750Y-100175000D02*
X248106250Y-100175000D01*
G75*
G02*
X248350000Y-100418750I0J-243750D01*
G01*
X248350000Y-100906250D01*
G75*
G02*
X248106250Y-101150000I-243750J0D01*
G01*
X247193750Y-101150000D01*
G75*
G02*
X246950000Y-100906250I0J243750D01*
G01*
X246950000Y-100418750D01*
G75*
G02*
X247193750Y-100175000I243750J0D01*
G01*
G37*
%TD*%
%TO.C,D63*%
G36*
G01*
X178137500Y-102050000D02*
X179050000Y-102050000D01*
G75*
G02*
X179293750Y-102293750I0J-243750D01*
G01*
X179293750Y-102781250D01*
G75*
G02*
X179050000Y-103025000I-243750J0D01*
G01*
X178137500Y-103025000D01*
G75*
G02*
X177893750Y-102781250I0J243750D01*
G01*
X177893750Y-102293750D01*
G75*
G02*
X178137500Y-102050000I243750J0D01*
G01*
G37*
G36*
G01*
X178137500Y-100175000D02*
X179050000Y-100175000D01*
G75*
G02*
X179293750Y-100418750I0J-243750D01*
G01*
X179293750Y-100906250D01*
G75*
G02*
X179050000Y-101150000I-243750J0D01*
G01*
X178137500Y-101150000D01*
G75*
G02*
X177893750Y-100906250I0J243750D01*
G01*
X177893750Y-100418750D01*
G75*
G02*
X178137500Y-100175000I243750J0D01*
G01*
G37*
%TD*%
%TO.C,D62*%
G36*
G01*
X106700000Y-100175000D02*
X107612500Y-100175000D01*
G75*
G02*
X107856250Y-100418750I0J-243750D01*
G01*
X107856250Y-100906250D01*
G75*
G02*
X107612500Y-101150000I-243750J0D01*
G01*
X106700000Y-101150000D01*
G75*
G02*
X106456250Y-100906250I0J243750D01*
G01*
X106456250Y-100418750D01*
G75*
G02*
X106700000Y-100175000I243750J0D01*
G01*
G37*
G36*
G01*
X106700000Y-102050000D02*
X107612500Y-102050000D01*
G75*
G02*
X107856250Y-102293750I0J-243750D01*
G01*
X107856250Y-102781250D01*
G75*
G02*
X107612500Y-103025000I-243750J0D01*
G01*
X106700000Y-103025000D01*
G75*
G02*
X106456250Y-102781250I0J243750D01*
G01*
X106456250Y-102293750D01*
G75*
G02*
X106700000Y-102050000I243750J0D01*
G01*
G37*
%TD*%
%TO.C,D61*%
G36*
G01*
X59075000Y-100175000D02*
X59987500Y-100175000D01*
G75*
G02*
X60231250Y-100418750I0J-243750D01*
G01*
X60231250Y-100906250D01*
G75*
G02*
X59987500Y-101150000I-243750J0D01*
G01*
X59075000Y-101150000D01*
G75*
G02*
X58831250Y-100906250I0J243750D01*
G01*
X58831250Y-100418750D01*
G75*
G02*
X59075000Y-100175000I243750J0D01*
G01*
G37*
G36*
G01*
X59075000Y-102050000D02*
X59987500Y-102050000D01*
G75*
G02*
X60231250Y-102293750I0J-243750D01*
G01*
X60231250Y-102781250D01*
G75*
G02*
X59987500Y-103025000I-243750J0D01*
G01*
X59075000Y-103025000D01*
G75*
G02*
X58831250Y-102781250I0J243750D01*
G01*
X58831250Y-102293750D01*
G75*
G02*
X59075000Y-102050000I243750J0D01*
G01*
G37*
%TD*%
%TO.C,D60*%
G36*
G01*
X32881250Y-100175000D02*
X33793750Y-100175000D01*
G75*
G02*
X34037500Y-100418750I0J-243750D01*
G01*
X34037500Y-100906250D01*
G75*
G02*
X33793750Y-101150000I-243750J0D01*
G01*
X32881250Y-101150000D01*
G75*
G02*
X32637500Y-100906250I0J243750D01*
G01*
X32637500Y-100418750D01*
G75*
G02*
X32881250Y-100175000I243750J0D01*
G01*
G37*
G36*
G01*
X32881250Y-102050000D02*
X33793750Y-102050000D01*
G75*
G02*
X34037500Y-102293750I0J-243750D01*
G01*
X34037500Y-102781250D01*
G75*
G02*
X33793750Y-103025000I-243750J0D01*
G01*
X32881250Y-103025000D01*
G75*
G02*
X32637500Y-102781250I0J243750D01*
G01*
X32637500Y-102293750D01*
G75*
G02*
X32881250Y-102050000I243750J0D01*
G01*
G37*
%TD*%
%TO.C,D59*%
G36*
G01*
X347206250Y-87762500D02*
X348118750Y-87762500D01*
G75*
G02*
X348362500Y-88006250I0J-243750D01*
G01*
X348362500Y-88493750D01*
G75*
G02*
X348118750Y-88737500I-243750J0D01*
G01*
X347206250Y-88737500D01*
G75*
G02*
X346962500Y-88493750I0J243750D01*
G01*
X346962500Y-88006250D01*
G75*
G02*
X347206250Y-87762500I243750J0D01*
G01*
G37*
G36*
G01*
X347206250Y-85887500D02*
X348118750Y-85887500D01*
G75*
G02*
X348362500Y-86131250I0J-243750D01*
G01*
X348362500Y-86618750D01*
G75*
G02*
X348118750Y-86862500I-243750J0D01*
G01*
X347206250Y-86862500D01*
G75*
G02*
X346962500Y-86618750I0J243750D01*
G01*
X346962500Y-86131250D01*
G75*
G02*
X347206250Y-85887500I243750J0D01*
G01*
G37*
%TD*%
%TO.C,D58*%
G36*
G01*
X328156250Y-87762500D02*
X329068750Y-87762500D01*
G75*
G02*
X329312500Y-88006250I0J-243750D01*
G01*
X329312500Y-88493750D01*
G75*
G02*
X329068750Y-88737500I-243750J0D01*
G01*
X328156250Y-88737500D01*
G75*
G02*
X327912500Y-88493750I0J243750D01*
G01*
X327912500Y-88006250D01*
G75*
G02*
X328156250Y-87762500I243750J0D01*
G01*
G37*
G36*
G01*
X328156250Y-85887500D02*
X329068750Y-85887500D01*
G75*
G02*
X329312500Y-86131250I0J-243750D01*
G01*
X329312500Y-86618750D01*
G75*
G02*
X329068750Y-86862500I-243750J0D01*
G01*
X328156250Y-86862500D01*
G75*
G02*
X327912500Y-86618750I0J243750D01*
G01*
X327912500Y-86131250D01*
G75*
G02*
X328156250Y-85887500I243750J0D01*
G01*
G37*
%TD*%
%TO.C,D57*%
G36*
G01*
X297200000Y-83000000D02*
X298112500Y-83000000D01*
G75*
G02*
X298356250Y-83243750I0J-243750D01*
G01*
X298356250Y-83731250D01*
G75*
G02*
X298112500Y-83975000I-243750J0D01*
G01*
X297200000Y-83975000D01*
G75*
G02*
X296956250Y-83731250I0J243750D01*
G01*
X296956250Y-83243750D01*
G75*
G02*
X297200000Y-83000000I243750J0D01*
G01*
G37*
G36*
G01*
X297200000Y-81125000D02*
X298112500Y-81125000D01*
G75*
G02*
X298356250Y-81368750I0J-243750D01*
G01*
X298356250Y-81856250D01*
G75*
G02*
X298112500Y-82100000I-243750J0D01*
G01*
X297200000Y-82100000D01*
G75*
G02*
X296956250Y-81856250I0J243750D01*
G01*
X296956250Y-81368750D01*
G75*
G02*
X297200000Y-81125000I243750J0D01*
G01*
G37*
%TD*%
%TO.C,D56*%
G36*
G01*
X271006250Y-83000000D02*
X271918750Y-83000000D01*
G75*
G02*
X272162500Y-83243750I0J-243750D01*
G01*
X272162500Y-83731250D01*
G75*
G02*
X271918750Y-83975000I-243750J0D01*
G01*
X271006250Y-83975000D01*
G75*
G02*
X270762500Y-83731250I0J243750D01*
G01*
X270762500Y-83243750D01*
G75*
G02*
X271006250Y-83000000I243750J0D01*
G01*
G37*
G36*
G01*
X271006250Y-81125000D02*
X271918750Y-81125000D01*
G75*
G02*
X272162500Y-81368750I0J-243750D01*
G01*
X272162500Y-81856250D01*
G75*
G02*
X271918750Y-82100000I-243750J0D01*
G01*
X271006250Y-82100000D01*
G75*
G02*
X270762500Y-81856250I0J243750D01*
G01*
X270762500Y-81368750D01*
G75*
G02*
X271006250Y-81125000I243750J0D01*
G01*
G37*
%TD*%
%TO.C,D55*%
G36*
G01*
X251956250Y-83000000D02*
X252868750Y-83000000D01*
G75*
G02*
X253112500Y-83243750I0J-243750D01*
G01*
X253112500Y-83731250D01*
G75*
G02*
X252868750Y-83975000I-243750J0D01*
G01*
X251956250Y-83975000D01*
G75*
G02*
X251712500Y-83731250I0J243750D01*
G01*
X251712500Y-83243750D01*
G75*
G02*
X251956250Y-83000000I243750J0D01*
G01*
G37*
G36*
G01*
X251956250Y-81125000D02*
X252868750Y-81125000D01*
G75*
G02*
X253112500Y-81368750I0J-243750D01*
G01*
X253112500Y-81856250D01*
G75*
G02*
X252868750Y-82100000I-243750J0D01*
G01*
X251956250Y-82100000D01*
G75*
G02*
X251712500Y-81856250I0J243750D01*
G01*
X251712500Y-81368750D01*
G75*
G02*
X251956250Y-81125000I243750J0D01*
G01*
G37*
%TD*%
%TO.C,D54*%
G36*
G01*
X232906250Y-83000000D02*
X233818750Y-83000000D01*
G75*
G02*
X234062500Y-83243750I0J-243750D01*
G01*
X234062500Y-83731250D01*
G75*
G02*
X233818750Y-83975000I-243750J0D01*
G01*
X232906250Y-83975000D01*
G75*
G02*
X232662500Y-83731250I0J243750D01*
G01*
X232662500Y-83243750D01*
G75*
G02*
X232906250Y-83000000I243750J0D01*
G01*
G37*
G36*
G01*
X232906250Y-81125000D02*
X233818750Y-81125000D01*
G75*
G02*
X234062500Y-81368750I0J-243750D01*
G01*
X234062500Y-81856250D01*
G75*
G02*
X233818750Y-82100000I-243750J0D01*
G01*
X232906250Y-82100000D01*
G75*
G02*
X232662500Y-81856250I0J243750D01*
G01*
X232662500Y-81368750D01*
G75*
G02*
X232906250Y-81125000I243750J0D01*
G01*
G37*
%TD*%
%TO.C,D53*%
G36*
G01*
X213856250Y-83000000D02*
X214768750Y-83000000D01*
G75*
G02*
X215012500Y-83243750I0J-243750D01*
G01*
X215012500Y-83731250D01*
G75*
G02*
X214768750Y-83975000I-243750J0D01*
G01*
X213856250Y-83975000D01*
G75*
G02*
X213612500Y-83731250I0J243750D01*
G01*
X213612500Y-83243750D01*
G75*
G02*
X213856250Y-83000000I243750J0D01*
G01*
G37*
G36*
G01*
X213856250Y-81125000D02*
X214768750Y-81125000D01*
G75*
G02*
X215012500Y-81368750I0J-243750D01*
G01*
X215012500Y-81856250D01*
G75*
G02*
X214768750Y-82100000I-243750J0D01*
G01*
X213856250Y-82100000D01*
G75*
G02*
X213612500Y-81856250I0J243750D01*
G01*
X213612500Y-81368750D01*
G75*
G02*
X213856250Y-81125000I243750J0D01*
G01*
G37*
%TD*%
%TO.C,D52*%
G36*
G01*
X194806250Y-83000000D02*
X195718750Y-83000000D01*
G75*
G02*
X195962500Y-83243750I0J-243750D01*
G01*
X195962500Y-83731250D01*
G75*
G02*
X195718750Y-83975000I-243750J0D01*
G01*
X194806250Y-83975000D01*
G75*
G02*
X194562500Y-83731250I0J243750D01*
G01*
X194562500Y-83243750D01*
G75*
G02*
X194806250Y-83000000I243750J0D01*
G01*
G37*
G36*
G01*
X194806250Y-81125000D02*
X195718750Y-81125000D01*
G75*
G02*
X195962500Y-81368750I0J-243750D01*
G01*
X195962500Y-81856250D01*
G75*
G02*
X195718750Y-82100000I-243750J0D01*
G01*
X194806250Y-82100000D01*
G75*
G02*
X194562500Y-81856250I0J243750D01*
G01*
X194562500Y-81368750D01*
G75*
G02*
X194806250Y-81125000I243750J0D01*
G01*
G37*
%TD*%
%TO.C,D51*%
G36*
G01*
X175756250Y-83000000D02*
X176668750Y-83000000D01*
G75*
G02*
X176912500Y-83243750I0J-243750D01*
G01*
X176912500Y-83731250D01*
G75*
G02*
X176668750Y-83975000I-243750J0D01*
G01*
X175756250Y-83975000D01*
G75*
G02*
X175512500Y-83731250I0J243750D01*
G01*
X175512500Y-83243750D01*
G75*
G02*
X175756250Y-83000000I243750J0D01*
G01*
G37*
G36*
G01*
X175756250Y-81125000D02*
X176668750Y-81125000D01*
G75*
G02*
X176912500Y-81368750I0J-243750D01*
G01*
X176912500Y-81856250D01*
G75*
G02*
X176668750Y-82100000I-243750J0D01*
G01*
X175756250Y-82100000D01*
G75*
G02*
X175512500Y-81856250I0J243750D01*
G01*
X175512500Y-81368750D01*
G75*
G02*
X175756250Y-81125000I243750J0D01*
G01*
G37*
%TD*%
%TO.C,D50*%
G36*
G01*
X156706250Y-83000000D02*
X157618750Y-83000000D01*
G75*
G02*
X157862500Y-83243750I0J-243750D01*
G01*
X157862500Y-83731250D01*
G75*
G02*
X157618750Y-83975000I-243750J0D01*
G01*
X156706250Y-83975000D01*
G75*
G02*
X156462500Y-83731250I0J243750D01*
G01*
X156462500Y-83243750D01*
G75*
G02*
X156706250Y-83000000I243750J0D01*
G01*
G37*
G36*
G01*
X156706250Y-81125000D02*
X157618750Y-81125000D01*
G75*
G02*
X157862500Y-81368750I0J-243750D01*
G01*
X157862500Y-81856250D01*
G75*
G02*
X157618750Y-82100000I-243750J0D01*
G01*
X156706250Y-82100000D01*
G75*
G02*
X156462500Y-81856250I0J243750D01*
G01*
X156462500Y-81368750D01*
G75*
G02*
X156706250Y-81125000I243750J0D01*
G01*
G37*
%TD*%
%TO.C,D49*%
G36*
G01*
X137656250Y-83000000D02*
X138568750Y-83000000D01*
G75*
G02*
X138812500Y-83243750I0J-243750D01*
G01*
X138812500Y-83731250D01*
G75*
G02*
X138568750Y-83975000I-243750J0D01*
G01*
X137656250Y-83975000D01*
G75*
G02*
X137412500Y-83731250I0J243750D01*
G01*
X137412500Y-83243750D01*
G75*
G02*
X137656250Y-83000000I243750J0D01*
G01*
G37*
G36*
G01*
X137656250Y-81125000D02*
X138568750Y-81125000D01*
G75*
G02*
X138812500Y-81368750I0J-243750D01*
G01*
X138812500Y-81856250D01*
G75*
G02*
X138568750Y-82100000I-243750J0D01*
G01*
X137656250Y-82100000D01*
G75*
G02*
X137412500Y-81856250I0J243750D01*
G01*
X137412500Y-81368750D01*
G75*
G02*
X137656250Y-81125000I243750J0D01*
G01*
G37*
%TD*%
%TO.C,D48*%
G36*
G01*
X118606250Y-83000000D02*
X119518750Y-83000000D01*
G75*
G02*
X119762500Y-83243750I0J-243750D01*
G01*
X119762500Y-83731250D01*
G75*
G02*
X119518750Y-83975000I-243750J0D01*
G01*
X118606250Y-83975000D01*
G75*
G02*
X118362500Y-83731250I0J243750D01*
G01*
X118362500Y-83243750D01*
G75*
G02*
X118606250Y-83000000I243750J0D01*
G01*
G37*
G36*
G01*
X118606250Y-81125000D02*
X119518750Y-81125000D01*
G75*
G02*
X119762500Y-81368750I0J-243750D01*
G01*
X119762500Y-81856250D01*
G75*
G02*
X119518750Y-82100000I-243750J0D01*
G01*
X118606250Y-82100000D01*
G75*
G02*
X118362500Y-81856250I0J243750D01*
G01*
X118362500Y-81368750D01*
G75*
G02*
X118606250Y-81125000I243750J0D01*
G01*
G37*
%TD*%
%TO.C,D47*%
G36*
G01*
X99556250Y-83000000D02*
X100468750Y-83000000D01*
G75*
G02*
X100712500Y-83243750I0J-243750D01*
G01*
X100712500Y-83731250D01*
G75*
G02*
X100468750Y-83975000I-243750J0D01*
G01*
X99556250Y-83975000D01*
G75*
G02*
X99312500Y-83731250I0J243750D01*
G01*
X99312500Y-83243750D01*
G75*
G02*
X99556250Y-83000000I243750J0D01*
G01*
G37*
G36*
G01*
X99556250Y-81125000D02*
X100468750Y-81125000D01*
G75*
G02*
X100712500Y-81368750I0J-243750D01*
G01*
X100712500Y-81856250D01*
G75*
G02*
X100468750Y-82100000I-243750J0D01*
G01*
X99556250Y-82100000D01*
G75*
G02*
X99312500Y-81856250I0J243750D01*
G01*
X99312500Y-81368750D01*
G75*
G02*
X99556250Y-81125000I243750J0D01*
G01*
G37*
%TD*%
%TO.C,D46*%
G36*
G01*
X68600000Y-83000000D02*
X69512500Y-83000000D01*
G75*
G02*
X69756250Y-83243750I0J-243750D01*
G01*
X69756250Y-83731250D01*
G75*
G02*
X69512500Y-83975000I-243750J0D01*
G01*
X68600000Y-83975000D01*
G75*
G02*
X68356250Y-83731250I0J243750D01*
G01*
X68356250Y-83243750D01*
G75*
G02*
X68600000Y-83000000I243750J0D01*
G01*
G37*
G36*
G01*
X68600000Y-81125000D02*
X69512500Y-81125000D01*
G75*
G02*
X69756250Y-81368750I0J-243750D01*
G01*
X69756250Y-81856250D01*
G75*
G02*
X69512500Y-82100000I-243750J0D01*
G01*
X68600000Y-82100000D01*
G75*
G02*
X68356250Y-81856250I0J243750D01*
G01*
X68356250Y-81368750D01*
G75*
G02*
X68600000Y-81125000I243750J0D01*
G01*
G37*
%TD*%
%TO.C,D45*%
G36*
G01*
X32881250Y-83000000D02*
X33793750Y-83000000D01*
G75*
G02*
X34037500Y-83243750I0J-243750D01*
G01*
X34037500Y-83731250D01*
G75*
G02*
X33793750Y-83975000I-243750J0D01*
G01*
X32881250Y-83975000D01*
G75*
G02*
X32637500Y-83731250I0J243750D01*
G01*
X32637500Y-83243750D01*
G75*
G02*
X32881250Y-83000000I243750J0D01*
G01*
G37*
G36*
G01*
X32881250Y-81125000D02*
X33793750Y-81125000D01*
G75*
G02*
X34037500Y-81368750I0J-243750D01*
G01*
X34037500Y-81856250D01*
G75*
G02*
X33793750Y-82100000I-243750J0D01*
G01*
X32881250Y-82100000D01*
G75*
G02*
X32637500Y-81856250I0J243750D01*
G01*
X32637500Y-81368750D01*
G75*
G02*
X32881250Y-81125000I243750J0D01*
G01*
G37*
%TD*%
%TO.C,D44*%
G36*
G01*
X311487500Y-63806250D02*
X312400000Y-63806250D01*
G75*
G02*
X312643750Y-64050000I0J-243750D01*
G01*
X312643750Y-64537500D01*
G75*
G02*
X312400000Y-64781250I-243750J0D01*
G01*
X311487500Y-64781250D01*
G75*
G02*
X311243750Y-64537500I0J243750D01*
G01*
X311243750Y-64050000D01*
G75*
G02*
X311487500Y-63806250I243750J0D01*
G01*
G37*
G36*
G01*
X311487500Y-61931250D02*
X312400000Y-61931250D01*
G75*
G02*
X312643750Y-62175000I0J-243750D01*
G01*
X312643750Y-62662500D01*
G75*
G02*
X312400000Y-62906250I-243750J0D01*
G01*
X311487500Y-62906250D01*
G75*
G02*
X311243750Y-62662500I0J243750D01*
G01*
X311243750Y-62175000D01*
G75*
G02*
X311487500Y-61931250I243750J0D01*
G01*
G37*
%TD*%
%TO.C,D43*%
G36*
G01*
X280531250Y-63950000D02*
X281443750Y-63950000D01*
G75*
G02*
X281687500Y-64193750I0J-243750D01*
G01*
X281687500Y-64681250D01*
G75*
G02*
X281443750Y-64925000I-243750J0D01*
G01*
X280531250Y-64925000D01*
G75*
G02*
X280287500Y-64681250I0J243750D01*
G01*
X280287500Y-64193750D01*
G75*
G02*
X280531250Y-63950000I243750J0D01*
G01*
G37*
G36*
G01*
X280531250Y-62075000D02*
X281443750Y-62075000D01*
G75*
G02*
X281687500Y-62318750I0J-243750D01*
G01*
X281687500Y-62806250D01*
G75*
G02*
X281443750Y-63050000I-243750J0D01*
G01*
X280531250Y-63050000D01*
G75*
G02*
X280287500Y-62806250I0J243750D01*
G01*
X280287500Y-62318750D01*
G75*
G02*
X280531250Y-62075000I243750J0D01*
G01*
G37*
%TD*%
%TO.C,D42*%
G36*
G01*
X261481250Y-63950000D02*
X262393750Y-63950000D01*
G75*
G02*
X262637500Y-64193750I0J-243750D01*
G01*
X262637500Y-64681250D01*
G75*
G02*
X262393750Y-64925000I-243750J0D01*
G01*
X261481250Y-64925000D01*
G75*
G02*
X261237500Y-64681250I0J243750D01*
G01*
X261237500Y-64193750D01*
G75*
G02*
X261481250Y-63950000I243750J0D01*
G01*
G37*
G36*
G01*
X261481250Y-62075000D02*
X262393750Y-62075000D01*
G75*
G02*
X262637500Y-62318750I0J-243750D01*
G01*
X262637500Y-62806250D01*
G75*
G02*
X262393750Y-63050000I-243750J0D01*
G01*
X261481250Y-63050000D01*
G75*
G02*
X261237500Y-62806250I0J243750D01*
G01*
X261237500Y-62318750D01*
G75*
G02*
X261481250Y-62075000I243750J0D01*
G01*
G37*
%TD*%
%TO.C,D41*%
G36*
G01*
X242431250Y-63950000D02*
X243343750Y-63950000D01*
G75*
G02*
X243587500Y-64193750I0J-243750D01*
G01*
X243587500Y-64681250D01*
G75*
G02*
X243343750Y-64925000I-243750J0D01*
G01*
X242431250Y-64925000D01*
G75*
G02*
X242187500Y-64681250I0J243750D01*
G01*
X242187500Y-64193750D01*
G75*
G02*
X242431250Y-63950000I243750J0D01*
G01*
G37*
G36*
G01*
X242431250Y-62075000D02*
X243343750Y-62075000D01*
G75*
G02*
X243587500Y-62318750I0J-243750D01*
G01*
X243587500Y-62806250D01*
G75*
G02*
X243343750Y-63050000I-243750J0D01*
G01*
X242431250Y-63050000D01*
G75*
G02*
X242187500Y-62806250I0J243750D01*
G01*
X242187500Y-62318750D01*
G75*
G02*
X242431250Y-62075000I243750J0D01*
G01*
G37*
%TD*%
%TO.C,D40*%
G36*
G01*
X223381250Y-63950000D02*
X224293750Y-63950000D01*
G75*
G02*
X224537500Y-64193750I0J-243750D01*
G01*
X224537500Y-64681250D01*
G75*
G02*
X224293750Y-64925000I-243750J0D01*
G01*
X223381250Y-64925000D01*
G75*
G02*
X223137500Y-64681250I0J243750D01*
G01*
X223137500Y-64193750D01*
G75*
G02*
X223381250Y-63950000I243750J0D01*
G01*
G37*
G36*
G01*
X223381250Y-62075000D02*
X224293750Y-62075000D01*
G75*
G02*
X224537500Y-62318750I0J-243750D01*
G01*
X224537500Y-62806250D01*
G75*
G02*
X224293750Y-63050000I-243750J0D01*
G01*
X223381250Y-63050000D01*
G75*
G02*
X223137500Y-62806250I0J243750D01*
G01*
X223137500Y-62318750D01*
G75*
G02*
X223381250Y-62075000I243750J0D01*
G01*
G37*
%TD*%
%TO.C,D39*%
G36*
G01*
X204331250Y-63950000D02*
X205243750Y-63950000D01*
G75*
G02*
X205487500Y-64193750I0J-243750D01*
G01*
X205487500Y-64681250D01*
G75*
G02*
X205243750Y-64925000I-243750J0D01*
G01*
X204331250Y-64925000D01*
G75*
G02*
X204087500Y-64681250I0J243750D01*
G01*
X204087500Y-64193750D01*
G75*
G02*
X204331250Y-63950000I243750J0D01*
G01*
G37*
G36*
G01*
X204331250Y-62075000D02*
X205243750Y-62075000D01*
G75*
G02*
X205487500Y-62318750I0J-243750D01*
G01*
X205487500Y-62806250D01*
G75*
G02*
X205243750Y-63050000I-243750J0D01*
G01*
X204331250Y-63050000D01*
G75*
G02*
X204087500Y-62806250I0J243750D01*
G01*
X204087500Y-62318750D01*
G75*
G02*
X204331250Y-62075000I243750J0D01*
G01*
G37*
%TD*%
%TO.C,D38*%
G36*
G01*
X185281250Y-63950000D02*
X186193750Y-63950000D01*
G75*
G02*
X186437500Y-64193750I0J-243750D01*
G01*
X186437500Y-64681250D01*
G75*
G02*
X186193750Y-64925000I-243750J0D01*
G01*
X185281250Y-64925000D01*
G75*
G02*
X185037500Y-64681250I0J243750D01*
G01*
X185037500Y-64193750D01*
G75*
G02*
X185281250Y-63950000I243750J0D01*
G01*
G37*
G36*
G01*
X185281250Y-62075000D02*
X186193750Y-62075000D01*
G75*
G02*
X186437500Y-62318750I0J-243750D01*
G01*
X186437500Y-62806250D01*
G75*
G02*
X186193750Y-63050000I-243750J0D01*
G01*
X185281250Y-63050000D01*
G75*
G02*
X185037500Y-62806250I0J243750D01*
G01*
X185037500Y-62318750D01*
G75*
G02*
X185281250Y-62075000I243750J0D01*
G01*
G37*
%TD*%
%TO.C,D37*%
G36*
G01*
X166231250Y-63950000D02*
X167143750Y-63950000D01*
G75*
G02*
X167387500Y-64193750I0J-243750D01*
G01*
X167387500Y-64681250D01*
G75*
G02*
X167143750Y-64925000I-243750J0D01*
G01*
X166231250Y-64925000D01*
G75*
G02*
X165987500Y-64681250I0J243750D01*
G01*
X165987500Y-64193750D01*
G75*
G02*
X166231250Y-63950000I243750J0D01*
G01*
G37*
G36*
G01*
X166231250Y-62075000D02*
X167143750Y-62075000D01*
G75*
G02*
X167387500Y-62318750I0J-243750D01*
G01*
X167387500Y-62806250D01*
G75*
G02*
X167143750Y-63050000I-243750J0D01*
G01*
X166231250Y-63050000D01*
G75*
G02*
X165987500Y-62806250I0J243750D01*
G01*
X165987500Y-62318750D01*
G75*
G02*
X166231250Y-62075000I243750J0D01*
G01*
G37*
%TD*%
%TO.C,D36*%
G36*
G01*
X147181250Y-63806250D02*
X148093750Y-63806250D01*
G75*
G02*
X148337500Y-64050000I0J-243750D01*
G01*
X148337500Y-64537500D01*
G75*
G02*
X148093750Y-64781250I-243750J0D01*
G01*
X147181250Y-64781250D01*
G75*
G02*
X146937500Y-64537500I0J243750D01*
G01*
X146937500Y-64050000D01*
G75*
G02*
X147181250Y-63806250I243750J0D01*
G01*
G37*
G36*
G01*
X147181250Y-61931250D02*
X148093750Y-61931250D01*
G75*
G02*
X148337500Y-62175000I0J-243750D01*
G01*
X148337500Y-62662500D01*
G75*
G02*
X148093750Y-62906250I-243750J0D01*
G01*
X147181250Y-62906250D01*
G75*
G02*
X146937500Y-62662500I0J243750D01*
G01*
X146937500Y-62175000D01*
G75*
G02*
X147181250Y-61931250I243750J0D01*
G01*
G37*
%TD*%
%TO.C,D35*%
G36*
G01*
X128131250Y-63950000D02*
X129043750Y-63950000D01*
G75*
G02*
X129287500Y-64193750I0J-243750D01*
G01*
X129287500Y-64681250D01*
G75*
G02*
X129043750Y-64925000I-243750J0D01*
G01*
X128131250Y-64925000D01*
G75*
G02*
X127887500Y-64681250I0J243750D01*
G01*
X127887500Y-64193750D01*
G75*
G02*
X128131250Y-63950000I243750J0D01*
G01*
G37*
G36*
G01*
X128131250Y-62075000D02*
X129043750Y-62075000D01*
G75*
G02*
X129287500Y-62318750I0J-243750D01*
G01*
X129287500Y-62806250D01*
G75*
G02*
X129043750Y-63050000I-243750J0D01*
G01*
X128131250Y-63050000D01*
G75*
G02*
X127887500Y-62806250I0J243750D01*
G01*
X127887500Y-62318750D01*
G75*
G02*
X128131250Y-62075000I243750J0D01*
G01*
G37*
%TD*%
%TO.C,D34*%
G36*
G01*
X109081250Y-63950000D02*
X109993750Y-63950000D01*
G75*
G02*
X110237500Y-64193750I0J-243750D01*
G01*
X110237500Y-64681250D01*
G75*
G02*
X109993750Y-64925000I-243750J0D01*
G01*
X109081250Y-64925000D01*
G75*
G02*
X108837500Y-64681250I0J243750D01*
G01*
X108837500Y-64193750D01*
G75*
G02*
X109081250Y-63950000I243750J0D01*
G01*
G37*
G36*
G01*
X109081250Y-62075000D02*
X109993750Y-62075000D01*
G75*
G02*
X110237500Y-62318750I0J-243750D01*
G01*
X110237500Y-62806250D01*
G75*
G02*
X109993750Y-63050000I-243750J0D01*
G01*
X109081250Y-63050000D01*
G75*
G02*
X108837500Y-62806250I0J243750D01*
G01*
X108837500Y-62318750D01*
G75*
G02*
X109081250Y-62075000I243750J0D01*
G01*
G37*
%TD*%
%TO.C,D33*%
G36*
G01*
X90031250Y-63950000D02*
X90943750Y-63950000D01*
G75*
G02*
X91187500Y-64193750I0J-243750D01*
G01*
X91187500Y-64681250D01*
G75*
G02*
X90943750Y-64925000I-243750J0D01*
G01*
X90031250Y-64925000D01*
G75*
G02*
X89787500Y-64681250I0J243750D01*
G01*
X89787500Y-64193750D01*
G75*
G02*
X90031250Y-63950000I243750J0D01*
G01*
G37*
G36*
G01*
X90031250Y-62075000D02*
X90943750Y-62075000D01*
G75*
G02*
X91187500Y-62318750I0J-243750D01*
G01*
X91187500Y-62806250D01*
G75*
G02*
X90943750Y-63050000I-243750J0D01*
G01*
X90031250Y-63050000D01*
G75*
G02*
X89787500Y-62806250I0J243750D01*
G01*
X89787500Y-62318750D01*
G75*
G02*
X90031250Y-62075000I243750J0D01*
G01*
G37*
%TD*%
%TO.C,D32*%
G36*
G01*
X63837500Y-63950000D02*
X64750000Y-63950000D01*
G75*
G02*
X64993750Y-64193750I0J-243750D01*
G01*
X64993750Y-64681250D01*
G75*
G02*
X64750000Y-64925000I-243750J0D01*
G01*
X63837500Y-64925000D01*
G75*
G02*
X63593750Y-64681250I0J243750D01*
G01*
X63593750Y-64193750D01*
G75*
G02*
X63837500Y-63950000I243750J0D01*
G01*
G37*
G36*
G01*
X63837500Y-62075000D02*
X64750000Y-62075000D01*
G75*
G02*
X64993750Y-62318750I0J-243750D01*
G01*
X64993750Y-62806250D01*
G75*
G02*
X64750000Y-63050000I-243750J0D01*
G01*
X63837500Y-63050000D01*
G75*
G02*
X63593750Y-62806250I0J243750D01*
G01*
X63593750Y-62318750D01*
G75*
G02*
X63837500Y-62075000I243750J0D01*
G01*
G37*
%TD*%
%TO.C,D31*%
G36*
G01*
X32881250Y-63950000D02*
X33793750Y-63950000D01*
G75*
G02*
X34037500Y-64193750I0J-243750D01*
G01*
X34037500Y-64681250D01*
G75*
G02*
X33793750Y-64925000I-243750J0D01*
G01*
X32881250Y-64925000D01*
G75*
G02*
X32637500Y-64681250I0J243750D01*
G01*
X32637500Y-64193750D01*
G75*
G02*
X32881250Y-63950000I243750J0D01*
G01*
G37*
G36*
G01*
X32881250Y-62075000D02*
X33793750Y-62075000D01*
G75*
G02*
X34037500Y-62318750I0J-243750D01*
G01*
X34037500Y-62806250D01*
G75*
G02*
X33793750Y-63050000I-243750J0D01*
G01*
X32881250Y-63050000D01*
G75*
G02*
X32637500Y-62806250I0J243750D01*
G01*
X32637500Y-62318750D01*
G75*
G02*
X32881250Y-62075000I243750J0D01*
G01*
G37*
%TD*%
%TO.C,D30*%
G36*
G01*
X318631250Y-44900000D02*
X319543750Y-44900000D01*
G75*
G02*
X319787500Y-45143750I0J-243750D01*
G01*
X319787500Y-45631250D01*
G75*
G02*
X319543750Y-45875000I-243750J0D01*
G01*
X318631250Y-45875000D01*
G75*
G02*
X318387500Y-45631250I0J243750D01*
G01*
X318387500Y-45143750D01*
G75*
G02*
X318631250Y-44900000I243750J0D01*
G01*
G37*
G36*
G01*
X318631250Y-43025000D02*
X319543750Y-43025000D01*
G75*
G02*
X319787500Y-43268750I0J-243750D01*
G01*
X319787500Y-43756250D01*
G75*
G02*
X319543750Y-44000000I-243750J0D01*
G01*
X318631250Y-44000000D01*
G75*
G02*
X318387500Y-43756250I0J243750D01*
G01*
X318387500Y-43268750D01*
G75*
G02*
X318631250Y-43025000I243750J0D01*
G01*
G37*
%TD*%
%TO.C,D29*%
G36*
G01*
X294818750Y-44900000D02*
X295731250Y-44900000D01*
G75*
G02*
X295975000Y-45143750I0J-243750D01*
G01*
X295975000Y-45631250D01*
G75*
G02*
X295731250Y-45875000I-243750J0D01*
G01*
X294818750Y-45875000D01*
G75*
G02*
X294575000Y-45631250I0J243750D01*
G01*
X294575000Y-45143750D01*
G75*
G02*
X294818750Y-44900000I243750J0D01*
G01*
G37*
G36*
G01*
X294818750Y-43025000D02*
X295731250Y-43025000D01*
G75*
G02*
X295975000Y-43268750I0J-243750D01*
G01*
X295975000Y-43756250D01*
G75*
G02*
X295731250Y-44000000I-243750J0D01*
G01*
X294818750Y-44000000D01*
G75*
G02*
X294575000Y-43756250I0J243750D01*
G01*
X294575000Y-43268750D01*
G75*
G02*
X294818750Y-43025000I243750J0D01*
G01*
G37*
%TD*%
%TO.C,D28*%
G36*
G01*
X275768750Y-44900000D02*
X276681250Y-44900000D01*
G75*
G02*
X276925000Y-45143750I0J-243750D01*
G01*
X276925000Y-45631250D01*
G75*
G02*
X276681250Y-45875000I-243750J0D01*
G01*
X275768750Y-45875000D01*
G75*
G02*
X275525000Y-45631250I0J243750D01*
G01*
X275525000Y-45143750D01*
G75*
G02*
X275768750Y-44900000I243750J0D01*
G01*
G37*
G36*
G01*
X275768750Y-43025000D02*
X276681250Y-43025000D01*
G75*
G02*
X276925000Y-43268750I0J-243750D01*
G01*
X276925000Y-43756250D01*
G75*
G02*
X276681250Y-44000000I-243750J0D01*
G01*
X275768750Y-44000000D01*
G75*
G02*
X275525000Y-43756250I0J243750D01*
G01*
X275525000Y-43268750D01*
G75*
G02*
X275768750Y-43025000I243750J0D01*
G01*
G37*
%TD*%
%TO.C,D27*%
G36*
G01*
X256718750Y-44900000D02*
X257631250Y-44900000D01*
G75*
G02*
X257875000Y-45143750I0J-243750D01*
G01*
X257875000Y-45631250D01*
G75*
G02*
X257631250Y-45875000I-243750J0D01*
G01*
X256718750Y-45875000D01*
G75*
G02*
X256475000Y-45631250I0J243750D01*
G01*
X256475000Y-45143750D01*
G75*
G02*
X256718750Y-44900000I243750J0D01*
G01*
G37*
G36*
G01*
X256718750Y-43025000D02*
X257631250Y-43025000D01*
G75*
G02*
X257875000Y-43268750I0J-243750D01*
G01*
X257875000Y-43756250D01*
G75*
G02*
X257631250Y-44000000I-243750J0D01*
G01*
X256718750Y-44000000D01*
G75*
G02*
X256475000Y-43756250I0J243750D01*
G01*
X256475000Y-43268750D01*
G75*
G02*
X256718750Y-43025000I243750J0D01*
G01*
G37*
%TD*%
%TO.C,D26*%
G36*
G01*
X237668750Y-44900000D02*
X238581250Y-44900000D01*
G75*
G02*
X238825000Y-45143750I0J-243750D01*
G01*
X238825000Y-45631250D01*
G75*
G02*
X238581250Y-45875000I-243750J0D01*
G01*
X237668750Y-45875000D01*
G75*
G02*
X237425000Y-45631250I0J243750D01*
G01*
X237425000Y-45143750D01*
G75*
G02*
X237668750Y-44900000I243750J0D01*
G01*
G37*
G36*
G01*
X237668750Y-43025000D02*
X238581250Y-43025000D01*
G75*
G02*
X238825000Y-43268750I0J-243750D01*
G01*
X238825000Y-43756250D01*
G75*
G02*
X238581250Y-44000000I-243750J0D01*
G01*
X237668750Y-44000000D01*
G75*
G02*
X237425000Y-43756250I0J243750D01*
G01*
X237425000Y-43268750D01*
G75*
G02*
X237668750Y-43025000I243750J0D01*
G01*
G37*
%TD*%
%TO.C,D25*%
G36*
G01*
X218618750Y-44900000D02*
X219531250Y-44900000D01*
G75*
G02*
X219775000Y-45143750I0J-243750D01*
G01*
X219775000Y-45631250D01*
G75*
G02*
X219531250Y-45875000I-243750J0D01*
G01*
X218618750Y-45875000D01*
G75*
G02*
X218375000Y-45631250I0J243750D01*
G01*
X218375000Y-45143750D01*
G75*
G02*
X218618750Y-44900000I243750J0D01*
G01*
G37*
G36*
G01*
X218618750Y-43025000D02*
X219531250Y-43025000D01*
G75*
G02*
X219775000Y-43268750I0J-243750D01*
G01*
X219775000Y-43756250D01*
G75*
G02*
X219531250Y-44000000I-243750J0D01*
G01*
X218618750Y-44000000D01*
G75*
G02*
X218375000Y-43756250I0J243750D01*
G01*
X218375000Y-43268750D01*
G75*
G02*
X218618750Y-43025000I243750J0D01*
G01*
G37*
%TD*%
%TO.C,D24*%
G36*
G01*
X199568750Y-44900000D02*
X200481250Y-44900000D01*
G75*
G02*
X200725000Y-45143750I0J-243750D01*
G01*
X200725000Y-45631250D01*
G75*
G02*
X200481250Y-45875000I-243750J0D01*
G01*
X199568750Y-45875000D01*
G75*
G02*
X199325000Y-45631250I0J243750D01*
G01*
X199325000Y-45143750D01*
G75*
G02*
X199568750Y-44900000I243750J0D01*
G01*
G37*
G36*
G01*
X199568750Y-43025000D02*
X200481250Y-43025000D01*
G75*
G02*
X200725000Y-43268750I0J-243750D01*
G01*
X200725000Y-43756250D01*
G75*
G02*
X200481250Y-44000000I-243750J0D01*
G01*
X199568750Y-44000000D01*
G75*
G02*
X199325000Y-43756250I0J243750D01*
G01*
X199325000Y-43268750D01*
G75*
G02*
X199568750Y-43025000I243750J0D01*
G01*
G37*
%TD*%
%TO.C,D23*%
G36*
G01*
X180518750Y-44900000D02*
X181431250Y-44900000D01*
G75*
G02*
X181675000Y-45143750I0J-243750D01*
G01*
X181675000Y-45631250D01*
G75*
G02*
X181431250Y-45875000I-243750J0D01*
G01*
X180518750Y-45875000D01*
G75*
G02*
X180275000Y-45631250I0J243750D01*
G01*
X180275000Y-45143750D01*
G75*
G02*
X180518750Y-44900000I243750J0D01*
G01*
G37*
G36*
G01*
X180518750Y-43025000D02*
X181431250Y-43025000D01*
G75*
G02*
X181675000Y-43268750I0J-243750D01*
G01*
X181675000Y-43756250D01*
G75*
G02*
X181431250Y-44000000I-243750J0D01*
G01*
X180518750Y-44000000D01*
G75*
G02*
X180275000Y-43756250I0J243750D01*
G01*
X180275000Y-43268750D01*
G75*
G02*
X180518750Y-43025000I243750J0D01*
G01*
G37*
%TD*%
%TO.C,D22*%
G36*
G01*
X161468750Y-44900000D02*
X162381250Y-44900000D01*
G75*
G02*
X162625000Y-45143750I0J-243750D01*
G01*
X162625000Y-45631250D01*
G75*
G02*
X162381250Y-45875000I-243750J0D01*
G01*
X161468750Y-45875000D01*
G75*
G02*
X161225000Y-45631250I0J243750D01*
G01*
X161225000Y-45143750D01*
G75*
G02*
X161468750Y-44900000I243750J0D01*
G01*
G37*
G36*
G01*
X161468750Y-43025000D02*
X162381250Y-43025000D01*
G75*
G02*
X162625000Y-43268750I0J-243750D01*
G01*
X162625000Y-43756250D01*
G75*
G02*
X162381250Y-44000000I-243750J0D01*
G01*
X161468750Y-44000000D01*
G75*
G02*
X161225000Y-43756250I0J243750D01*
G01*
X161225000Y-43268750D01*
G75*
G02*
X161468750Y-43025000I243750J0D01*
G01*
G37*
%TD*%
%TO.C,D21*%
G36*
G01*
X142418750Y-44900000D02*
X143331250Y-44900000D01*
G75*
G02*
X143575000Y-45143750I0J-243750D01*
G01*
X143575000Y-45631250D01*
G75*
G02*
X143331250Y-45875000I-243750J0D01*
G01*
X142418750Y-45875000D01*
G75*
G02*
X142175000Y-45631250I0J243750D01*
G01*
X142175000Y-45143750D01*
G75*
G02*
X142418750Y-44900000I243750J0D01*
G01*
G37*
G36*
G01*
X142418750Y-43025000D02*
X143331250Y-43025000D01*
G75*
G02*
X143575000Y-43268750I0J-243750D01*
G01*
X143575000Y-43756250D01*
G75*
G02*
X143331250Y-44000000I-243750J0D01*
G01*
X142418750Y-44000000D01*
G75*
G02*
X142175000Y-43756250I0J243750D01*
G01*
X142175000Y-43268750D01*
G75*
G02*
X142418750Y-43025000I243750J0D01*
G01*
G37*
%TD*%
%TO.C,D20*%
G36*
G01*
X123368750Y-44900000D02*
X124281250Y-44900000D01*
G75*
G02*
X124525000Y-45143750I0J-243750D01*
G01*
X124525000Y-45631250D01*
G75*
G02*
X124281250Y-45875000I-243750J0D01*
G01*
X123368750Y-45875000D01*
G75*
G02*
X123125000Y-45631250I0J243750D01*
G01*
X123125000Y-45143750D01*
G75*
G02*
X123368750Y-44900000I243750J0D01*
G01*
G37*
G36*
G01*
X123368750Y-43025000D02*
X124281250Y-43025000D01*
G75*
G02*
X124525000Y-43268750I0J-243750D01*
G01*
X124525000Y-43756250D01*
G75*
G02*
X124281250Y-44000000I-243750J0D01*
G01*
X123368750Y-44000000D01*
G75*
G02*
X123125000Y-43756250I0J243750D01*
G01*
X123125000Y-43268750D01*
G75*
G02*
X123368750Y-43025000I243750J0D01*
G01*
G37*
%TD*%
%TO.C,D19*%
G36*
G01*
X104318750Y-44900000D02*
X105231250Y-44900000D01*
G75*
G02*
X105475000Y-45143750I0J-243750D01*
G01*
X105475000Y-45631250D01*
G75*
G02*
X105231250Y-45875000I-243750J0D01*
G01*
X104318750Y-45875000D01*
G75*
G02*
X104075000Y-45631250I0J243750D01*
G01*
X104075000Y-45143750D01*
G75*
G02*
X104318750Y-44900000I243750J0D01*
G01*
G37*
G36*
G01*
X104318750Y-43025000D02*
X105231250Y-43025000D01*
G75*
G02*
X105475000Y-43268750I0J-243750D01*
G01*
X105475000Y-43756250D01*
G75*
G02*
X105231250Y-44000000I-243750J0D01*
G01*
X104318750Y-44000000D01*
G75*
G02*
X104075000Y-43756250I0J243750D01*
G01*
X104075000Y-43268750D01*
G75*
G02*
X104318750Y-43025000I243750J0D01*
G01*
G37*
%TD*%
%TO.C,D18*%
G36*
G01*
X85268750Y-44900000D02*
X86181250Y-44900000D01*
G75*
G02*
X86425000Y-45143750I0J-243750D01*
G01*
X86425000Y-45631250D01*
G75*
G02*
X86181250Y-45875000I-243750J0D01*
G01*
X85268750Y-45875000D01*
G75*
G02*
X85025000Y-45631250I0J243750D01*
G01*
X85025000Y-45143750D01*
G75*
G02*
X85268750Y-44900000I243750J0D01*
G01*
G37*
G36*
G01*
X85268750Y-43025000D02*
X86181250Y-43025000D01*
G75*
G02*
X86425000Y-43268750I0J-243750D01*
G01*
X86425000Y-43756250D01*
G75*
G02*
X86181250Y-44000000I-243750J0D01*
G01*
X85268750Y-44000000D01*
G75*
G02*
X85025000Y-43756250I0J243750D01*
G01*
X85025000Y-43268750D01*
G75*
G02*
X85268750Y-43025000I243750J0D01*
G01*
G37*
%TD*%
%TO.C,D17*%
G36*
G01*
X61456250Y-44900000D02*
X62368750Y-44900000D01*
G75*
G02*
X62612500Y-45143750I0J-243750D01*
G01*
X62612500Y-45631250D01*
G75*
G02*
X62368750Y-45875000I-243750J0D01*
G01*
X61456250Y-45875000D01*
G75*
G02*
X61212500Y-45631250I0J243750D01*
G01*
X61212500Y-45143750D01*
G75*
G02*
X61456250Y-44900000I243750J0D01*
G01*
G37*
G36*
G01*
X61456250Y-43025000D02*
X62368750Y-43025000D01*
G75*
G02*
X62612500Y-43268750I0J-243750D01*
G01*
X62612500Y-43756250D01*
G75*
G02*
X62368750Y-44000000I-243750J0D01*
G01*
X61456250Y-44000000D01*
G75*
G02*
X61212500Y-43756250I0J243750D01*
G01*
X61212500Y-43268750D01*
G75*
G02*
X61456250Y-43025000I243750J0D01*
G01*
G37*
%TD*%
%TO.C,D16*%
G36*
G01*
X32881250Y-44900000D02*
X33793750Y-44900000D01*
G75*
G02*
X34037500Y-45143750I0J-243750D01*
G01*
X34037500Y-45631250D01*
G75*
G02*
X33793750Y-45875000I-243750J0D01*
G01*
X32881250Y-45875000D01*
G75*
G02*
X32637500Y-45631250I0J243750D01*
G01*
X32637500Y-45143750D01*
G75*
G02*
X32881250Y-44900000I243750J0D01*
G01*
G37*
G36*
G01*
X32881250Y-43025000D02*
X33793750Y-43025000D01*
G75*
G02*
X34037500Y-43268750I0J-243750D01*
G01*
X34037500Y-43756250D01*
G75*
G02*
X33793750Y-44000000I-243750J0D01*
G01*
X32881250Y-44000000D01*
G75*
G02*
X32637500Y-43756250I0J243750D01*
G01*
X32637500Y-43268750D01*
G75*
G02*
X32881250Y-43025000I243750J0D01*
G01*
G37*
%TD*%
%TO.C,D15*%
G36*
G01*
X313868750Y-25850000D02*
X314781250Y-25850000D01*
G75*
G02*
X315025000Y-26093750I0J-243750D01*
G01*
X315025000Y-26581250D01*
G75*
G02*
X314781250Y-26825000I-243750J0D01*
G01*
X313868750Y-26825000D01*
G75*
G02*
X313625000Y-26581250I0J243750D01*
G01*
X313625000Y-26093750D01*
G75*
G02*
X313868750Y-25850000I243750J0D01*
G01*
G37*
G36*
G01*
X313868750Y-23975000D02*
X314781250Y-23975000D01*
G75*
G02*
X315025000Y-24218750I0J-243750D01*
G01*
X315025000Y-24706250D01*
G75*
G02*
X314781250Y-24950000I-243750J0D01*
G01*
X313868750Y-24950000D01*
G75*
G02*
X313625000Y-24706250I0J243750D01*
G01*
X313625000Y-24218750D01*
G75*
G02*
X313868750Y-23975000I243750J0D01*
G01*
G37*
%TD*%
%TO.C,D14*%
G36*
G01*
X285293750Y-25850000D02*
X286206250Y-25850000D01*
G75*
G02*
X286450000Y-26093750I0J-243750D01*
G01*
X286450000Y-26581250D01*
G75*
G02*
X286206250Y-26825000I-243750J0D01*
G01*
X285293750Y-26825000D01*
G75*
G02*
X285050000Y-26581250I0J243750D01*
G01*
X285050000Y-26093750D01*
G75*
G02*
X285293750Y-25850000I243750J0D01*
G01*
G37*
G36*
G01*
X285293750Y-23975000D02*
X286206250Y-23975000D01*
G75*
G02*
X286450000Y-24218750I0J-243750D01*
G01*
X286450000Y-24706250D01*
G75*
G02*
X286206250Y-24950000I-243750J0D01*
G01*
X285293750Y-24950000D01*
G75*
G02*
X285050000Y-24706250I0J243750D01*
G01*
X285050000Y-24218750D01*
G75*
G02*
X285293750Y-23975000I243750J0D01*
G01*
G37*
%TD*%
%TO.C,D13*%
G36*
G01*
X266243750Y-25850000D02*
X267156250Y-25850000D01*
G75*
G02*
X267400000Y-26093750I0J-243750D01*
G01*
X267400000Y-26581250D01*
G75*
G02*
X267156250Y-26825000I-243750J0D01*
G01*
X266243750Y-26825000D01*
G75*
G02*
X266000000Y-26581250I0J243750D01*
G01*
X266000000Y-26093750D01*
G75*
G02*
X266243750Y-25850000I243750J0D01*
G01*
G37*
G36*
G01*
X266243750Y-23975000D02*
X267156250Y-23975000D01*
G75*
G02*
X267400000Y-24218750I0J-243750D01*
G01*
X267400000Y-24706250D01*
G75*
G02*
X267156250Y-24950000I-243750J0D01*
G01*
X266243750Y-24950000D01*
G75*
G02*
X266000000Y-24706250I0J243750D01*
G01*
X266000000Y-24218750D01*
G75*
G02*
X266243750Y-23975000I243750J0D01*
G01*
G37*
%TD*%
%TO.C,D12*%
G36*
G01*
X247193750Y-25850000D02*
X248106250Y-25850000D01*
G75*
G02*
X248350000Y-26093750I0J-243750D01*
G01*
X248350000Y-26581250D01*
G75*
G02*
X248106250Y-26825000I-243750J0D01*
G01*
X247193750Y-26825000D01*
G75*
G02*
X246950000Y-26581250I0J243750D01*
G01*
X246950000Y-26093750D01*
G75*
G02*
X247193750Y-25850000I243750J0D01*
G01*
G37*
G36*
G01*
X247193750Y-23975000D02*
X248106250Y-23975000D01*
G75*
G02*
X248350000Y-24218750I0J-243750D01*
G01*
X248350000Y-24706250D01*
G75*
G02*
X248106250Y-24950000I-243750J0D01*
G01*
X247193750Y-24950000D01*
G75*
G02*
X246950000Y-24706250I0J243750D01*
G01*
X246950000Y-24218750D01*
G75*
G02*
X247193750Y-23975000I243750J0D01*
G01*
G37*
%TD*%
%TO.C,D11*%
G36*
G01*
X228143750Y-25850000D02*
X229056250Y-25850000D01*
G75*
G02*
X229300000Y-26093750I0J-243750D01*
G01*
X229300000Y-26581250D01*
G75*
G02*
X229056250Y-26825000I-243750J0D01*
G01*
X228143750Y-26825000D01*
G75*
G02*
X227900000Y-26581250I0J243750D01*
G01*
X227900000Y-26093750D01*
G75*
G02*
X228143750Y-25850000I243750J0D01*
G01*
G37*
G36*
G01*
X228143750Y-23975000D02*
X229056250Y-23975000D01*
G75*
G02*
X229300000Y-24218750I0J-243750D01*
G01*
X229300000Y-24706250D01*
G75*
G02*
X229056250Y-24950000I-243750J0D01*
G01*
X228143750Y-24950000D01*
G75*
G02*
X227900000Y-24706250I0J243750D01*
G01*
X227900000Y-24218750D01*
G75*
G02*
X228143750Y-23975000I243750J0D01*
G01*
G37*
%TD*%
%TO.C,D10*%
G36*
G01*
X209093750Y-25850000D02*
X210006250Y-25850000D01*
G75*
G02*
X210250000Y-26093750I0J-243750D01*
G01*
X210250000Y-26581250D01*
G75*
G02*
X210006250Y-26825000I-243750J0D01*
G01*
X209093750Y-26825000D01*
G75*
G02*
X208850000Y-26581250I0J243750D01*
G01*
X208850000Y-26093750D01*
G75*
G02*
X209093750Y-25850000I243750J0D01*
G01*
G37*
G36*
G01*
X209093750Y-23975000D02*
X210006250Y-23975000D01*
G75*
G02*
X210250000Y-24218750I0J-243750D01*
G01*
X210250000Y-24706250D01*
G75*
G02*
X210006250Y-24950000I-243750J0D01*
G01*
X209093750Y-24950000D01*
G75*
G02*
X208850000Y-24706250I0J243750D01*
G01*
X208850000Y-24218750D01*
G75*
G02*
X209093750Y-23975000I243750J0D01*
G01*
G37*
%TD*%
%TO.C,D9*%
G36*
G01*
X190043750Y-25850000D02*
X190956250Y-25850000D01*
G75*
G02*
X191200000Y-26093750I0J-243750D01*
G01*
X191200000Y-26581250D01*
G75*
G02*
X190956250Y-26825000I-243750J0D01*
G01*
X190043750Y-26825000D01*
G75*
G02*
X189800000Y-26581250I0J243750D01*
G01*
X189800000Y-26093750D01*
G75*
G02*
X190043750Y-25850000I243750J0D01*
G01*
G37*
G36*
G01*
X190043750Y-23975000D02*
X190956250Y-23975000D01*
G75*
G02*
X191200000Y-24218750I0J-243750D01*
G01*
X191200000Y-24706250D01*
G75*
G02*
X190956250Y-24950000I-243750J0D01*
G01*
X190043750Y-24950000D01*
G75*
G02*
X189800000Y-24706250I0J243750D01*
G01*
X189800000Y-24218750D01*
G75*
G02*
X190043750Y-23975000I243750J0D01*
G01*
G37*
%TD*%
%TO.C,D8*%
G36*
G01*
X170993750Y-25850000D02*
X171906250Y-25850000D01*
G75*
G02*
X172150000Y-26093750I0J-243750D01*
G01*
X172150000Y-26581250D01*
G75*
G02*
X171906250Y-26825000I-243750J0D01*
G01*
X170993750Y-26825000D01*
G75*
G02*
X170750000Y-26581250I0J243750D01*
G01*
X170750000Y-26093750D01*
G75*
G02*
X170993750Y-25850000I243750J0D01*
G01*
G37*
G36*
G01*
X170993750Y-23975000D02*
X171906250Y-23975000D01*
G75*
G02*
X172150000Y-24218750I0J-243750D01*
G01*
X172150000Y-24706250D01*
G75*
G02*
X171906250Y-24950000I-243750J0D01*
G01*
X170993750Y-24950000D01*
G75*
G02*
X170750000Y-24706250I0J243750D01*
G01*
X170750000Y-24218750D01*
G75*
G02*
X170993750Y-23975000I243750J0D01*
G01*
G37*
%TD*%
%TO.C,D7*%
G36*
G01*
X151943750Y-25850000D02*
X152856250Y-25850000D01*
G75*
G02*
X153100000Y-26093750I0J-243750D01*
G01*
X153100000Y-26581250D01*
G75*
G02*
X152856250Y-26825000I-243750J0D01*
G01*
X151943750Y-26825000D01*
G75*
G02*
X151700000Y-26581250I0J243750D01*
G01*
X151700000Y-26093750D01*
G75*
G02*
X151943750Y-25850000I243750J0D01*
G01*
G37*
G36*
G01*
X151943750Y-23975000D02*
X152856250Y-23975000D01*
G75*
G02*
X153100000Y-24218750I0J-243750D01*
G01*
X153100000Y-24706250D01*
G75*
G02*
X152856250Y-24950000I-243750J0D01*
G01*
X151943750Y-24950000D01*
G75*
G02*
X151700000Y-24706250I0J243750D01*
G01*
X151700000Y-24218750D01*
G75*
G02*
X151943750Y-23975000I243750J0D01*
G01*
G37*
%TD*%
%TO.C,D6*%
G36*
G01*
X132893750Y-25850000D02*
X133806250Y-25850000D01*
G75*
G02*
X134050000Y-26093750I0J-243750D01*
G01*
X134050000Y-26581250D01*
G75*
G02*
X133806250Y-26825000I-243750J0D01*
G01*
X132893750Y-26825000D01*
G75*
G02*
X132650000Y-26581250I0J243750D01*
G01*
X132650000Y-26093750D01*
G75*
G02*
X132893750Y-25850000I243750J0D01*
G01*
G37*
G36*
G01*
X132893750Y-23975000D02*
X133806250Y-23975000D01*
G75*
G02*
X134050000Y-24218750I0J-243750D01*
G01*
X134050000Y-24706250D01*
G75*
G02*
X133806250Y-24950000I-243750J0D01*
G01*
X132893750Y-24950000D01*
G75*
G02*
X132650000Y-24706250I0J243750D01*
G01*
X132650000Y-24218750D01*
G75*
G02*
X132893750Y-23975000I243750J0D01*
G01*
G37*
%TD*%
%TO.C,D5*%
G36*
G01*
X113843750Y-25850000D02*
X114756250Y-25850000D01*
G75*
G02*
X115000000Y-26093750I0J-243750D01*
G01*
X115000000Y-26581250D01*
G75*
G02*
X114756250Y-26825000I-243750J0D01*
G01*
X113843750Y-26825000D01*
G75*
G02*
X113600000Y-26581250I0J243750D01*
G01*
X113600000Y-26093750D01*
G75*
G02*
X113843750Y-25850000I243750J0D01*
G01*
G37*
G36*
G01*
X113843750Y-23975000D02*
X114756250Y-23975000D01*
G75*
G02*
X115000000Y-24218750I0J-243750D01*
G01*
X115000000Y-24706250D01*
G75*
G02*
X114756250Y-24950000I-243750J0D01*
G01*
X113843750Y-24950000D01*
G75*
G02*
X113600000Y-24706250I0J243750D01*
G01*
X113600000Y-24218750D01*
G75*
G02*
X113843750Y-23975000I243750J0D01*
G01*
G37*
%TD*%
%TO.C,D4*%
G36*
G01*
X94793750Y-25850000D02*
X95706250Y-25850000D01*
G75*
G02*
X95950000Y-26093750I0J-243750D01*
G01*
X95950000Y-26581250D01*
G75*
G02*
X95706250Y-26825000I-243750J0D01*
G01*
X94793750Y-26825000D01*
G75*
G02*
X94550000Y-26581250I0J243750D01*
G01*
X94550000Y-26093750D01*
G75*
G02*
X94793750Y-25850000I243750J0D01*
G01*
G37*
G36*
G01*
X94793750Y-23975000D02*
X95706250Y-23975000D01*
G75*
G02*
X95950000Y-24218750I0J-243750D01*
G01*
X95950000Y-24706250D01*
G75*
G02*
X95706250Y-24950000I-243750J0D01*
G01*
X94793750Y-24950000D01*
G75*
G02*
X94550000Y-24706250I0J243750D01*
G01*
X94550000Y-24218750D01*
G75*
G02*
X94793750Y-23975000I243750J0D01*
G01*
G37*
%TD*%
%TO.C,D3*%
G36*
G01*
X75743750Y-23975000D02*
X76656250Y-23975000D01*
G75*
G02*
X76900000Y-24218750I0J-243750D01*
G01*
X76900000Y-24706250D01*
G75*
G02*
X76656250Y-24950000I-243750J0D01*
G01*
X75743750Y-24950000D01*
G75*
G02*
X75500000Y-24706250I0J243750D01*
G01*
X75500000Y-24218750D01*
G75*
G02*
X75743750Y-23975000I243750J0D01*
G01*
G37*
G36*
G01*
X75743750Y-25850000D02*
X76656250Y-25850000D01*
G75*
G02*
X76900000Y-26093750I0J-243750D01*
G01*
X76900000Y-26581250D01*
G75*
G02*
X76656250Y-26825000I-243750J0D01*
G01*
X75743750Y-26825000D01*
G75*
G02*
X75500000Y-26581250I0J243750D01*
G01*
X75500000Y-26093750D01*
G75*
G02*
X75743750Y-25850000I243750J0D01*
G01*
G37*
%TD*%
%TO.C,D2*%
G36*
G01*
X56693750Y-23975000D02*
X57606250Y-23975000D01*
G75*
G02*
X57850000Y-24218750I0J-243750D01*
G01*
X57850000Y-24706250D01*
G75*
G02*
X57606250Y-24950000I-243750J0D01*
G01*
X56693750Y-24950000D01*
G75*
G02*
X56450000Y-24706250I0J243750D01*
G01*
X56450000Y-24218750D01*
G75*
G02*
X56693750Y-23975000I243750J0D01*
G01*
G37*
G36*
G01*
X56693750Y-25850000D02*
X57606250Y-25850000D01*
G75*
G02*
X57850000Y-26093750I0J-243750D01*
G01*
X57850000Y-26581250D01*
G75*
G02*
X57606250Y-26825000I-243750J0D01*
G01*
X56693750Y-26825000D01*
G75*
G02*
X56450000Y-26581250I0J243750D01*
G01*
X56450000Y-26093750D01*
G75*
G02*
X56693750Y-25850000I243750J0D01*
G01*
G37*
%TD*%
%TO.C,D1*%
G36*
G01*
X32881250Y-23975000D02*
X33793750Y-23975000D01*
G75*
G02*
X34037500Y-24218750I0J-243750D01*
G01*
X34037500Y-24706250D01*
G75*
G02*
X33793750Y-24950000I-243750J0D01*
G01*
X32881250Y-24950000D01*
G75*
G02*
X32637500Y-24706250I0J243750D01*
G01*
X32637500Y-24218750D01*
G75*
G02*
X32881250Y-23975000I243750J0D01*
G01*
G37*
G36*
G01*
X32881250Y-25850000D02*
X33793750Y-25850000D01*
G75*
G02*
X34037500Y-26093750I0J-243750D01*
G01*
X34037500Y-26581250D01*
G75*
G02*
X33793750Y-26825000I-243750J0D01*
G01*
X32881250Y-26825000D01*
G75*
G02*
X32637500Y-26581250I0J243750D01*
G01*
X32637500Y-26093750D01*
G75*
G02*
X32881250Y-25850000I243750J0D01*
G01*
G37*
%TD*%
%TO.C,C11*%
G36*
G01*
X342213900Y-58567300D02*
X342213900Y-59517300D01*
G75*
G02*
X341963900Y-59767300I-250000J0D01*
G01*
X341463900Y-59767300D01*
G75*
G02*
X341213900Y-59517300I0J250000D01*
G01*
X341213900Y-58567300D01*
G75*
G02*
X341463900Y-58317300I250000J0D01*
G01*
X341963900Y-58317300D01*
G75*
G02*
X342213900Y-58567300I0J-250000D01*
G01*
G37*
G36*
G01*
X340313900Y-58567300D02*
X340313900Y-59517300D01*
G75*
G02*
X340063900Y-59767300I-250000J0D01*
G01*
X339563900Y-59767300D01*
G75*
G02*
X339313900Y-59517300I0J250000D01*
G01*
X339313900Y-58567300D01*
G75*
G02*
X339563900Y-58317300I250000J0D01*
G01*
X340063900Y-58317300D01*
G75*
G02*
X340313900Y-58567300I0J-250000D01*
G01*
G37*
%TD*%
%TO.C,C8*%
G36*
G01*
X342841600Y-70949400D02*
X341891600Y-70949400D01*
G75*
G02*
X341641600Y-70699400I0J250000D01*
G01*
X341641600Y-70199400D01*
G75*
G02*
X341891600Y-69949400I250000J0D01*
G01*
X342841600Y-69949400D01*
G75*
G02*
X343091600Y-70199400I0J-250000D01*
G01*
X343091600Y-70699400D01*
G75*
G02*
X342841600Y-70949400I-250000J0D01*
G01*
G37*
G36*
G01*
X342841600Y-72849400D02*
X341891600Y-72849400D01*
G75*
G02*
X341641600Y-72599400I0J250000D01*
G01*
X341641600Y-72099400D01*
G75*
G02*
X341891600Y-71849400I250000J0D01*
G01*
X342841600Y-71849400D01*
G75*
G02*
X343091600Y-72099400I0J-250000D01*
G01*
X343091600Y-72599400D01*
G75*
G02*
X342841600Y-72849400I-250000J0D01*
G01*
G37*
%TD*%
%TO.C,C7*%
G36*
G01*
X332554600Y-70949400D02*
X331604600Y-70949400D01*
G75*
G02*
X331354600Y-70699400I0J250000D01*
G01*
X331354600Y-70199400D01*
G75*
G02*
X331604600Y-69949400I250000J0D01*
G01*
X332554600Y-69949400D01*
G75*
G02*
X332804600Y-70199400I0J-250000D01*
G01*
X332804600Y-70699400D01*
G75*
G02*
X332554600Y-70949400I-250000J0D01*
G01*
G37*
G36*
G01*
X332554600Y-72849400D02*
X331604600Y-72849400D01*
G75*
G02*
X331354600Y-72599400I0J250000D01*
G01*
X331354600Y-72099400D01*
G75*
G02*
X331604600Y-71849400I250000J0D01*
G01*
X332554600Y-71849400D01*
G75*
G02*
X332804600Y-72099400I0J-250000D01*
G01*
X332804600Y-72599400D01*
G75*
G02*
X332554600Y-72849400I-250000J0D01*
G01*
G37*
%TD*%
%TO.C,C6*%
G36*
G01*
X334967600Y-70949400D02*
X334017600Y-70949400D01*
G75*
G02*
X333767600Y-70699400I0J250000D01*
G01*
X333767600Y-70199400D01*
G75*
G02*
X334017600Y-69949400I250000J0D01*
G01*
X334967600Y-69949400D01*
G75*
G02*
X335217600Y-70199400I0J-250000D01*
G01*
X335217600Y-70699400D01*
G75*
G02*
X334967600Y-70949400I-250000J0D01*
G01*
G37*
G36*
G01*
X334967600Y-72849400D02*
X334017600Y-72849400D01*
G75*
G02*
X333767600Y-72599400I0J250000D01*
G01*
X333767600Y-72099400D01*
G75*
G02*
X334017600Y-71849400I250000J0D01*
G01*
X334967600Y-71849400D01*
G75*
G02*
X335217600Y-72099400I0J-250000D01*
G01*
X335217600Y-72599400D01*
G75*
G02*
X334967600Y-72849400I-250000J0D01*
G01*
G37*
%TD*%
%TO.C,C5*%
G36*
G01*
X337634600Y-70949400D02*
X336684600Y-70949400D01*
G75*
G02*
X336434600Y-70699400I0J250000D01*
G01*
X336434600Y-70199400D01*
G75*
G02*
X336684600Y-69949400I250000J0D01*
G01*
X337634600Y-69949400D01*
G75*
G02*
X337884600Y-70199400I0J-250000D01*
G01*
X337884600Y-70699400D01*
G75*
G02*
X337634600Y-70949400I-250000J0D01*
G01*
G37*
G36*
G01*
X337634600Y-72849400D02*
X336684600Y-72849400D01*
G75*
G02*
X336434600Y-72599400I0J250000D01*
G01*
X336434600Y-72099400D01*
G75*
G02*
X336684600Y-71849400I250000J0D01*
G01*
X337634600Y-71849400D01*
G75*
G02*
X337884600Y-72099400I0J-250000D01*
G01*
X337884600Y-72599400D01*
G75*
G02*
X337634600Y-72849400I-250000J0D01*
G01*
G37*
%TD*%
%TO.C,C4*%
G36*
G01*
X340428600Y-70949400D02*
X339478600Y-70949400D01*
G75*
G02*
X339228600Y-70699400I0J250000D01*
G01*
X339228600Y-70199400D01*
G75*
G02*
X339478600Y-69949400I250000J0D01*
G01*
X340428600Y-69949400D01*
G75*
G02*
X340678600Y-70199400I0J-250000D01*
G01*
X340678600Y-70699400D01*
G75*
G02*
X340428600Y-70949400I-250000J0D01*
G01*
G37*
G36*
G01*
X340428600Y-72849400D02*
X339478600Y-72849400D01*
G75*
G02*
X339228600Y-72599400I0J250000D01*
G01*
X339228600Y-72099400D01*
G75*
G02*
X339478600Y-71849400I250000J0D01*
G01*
X340428600Y-71849400D01*
G75*
G02*
X340678600Y-72099400I0J-250000D01*
G01*
X340678600Y-72599400D01*
G75*
G02*
X340428600Y-72849400I-250000J0D01*
G01*
G37*
%TD*%
%TO.C,C2*%
G36*
G01*
X345381600Y-62948400D02*
X344431600Y-62948400D01*
G75*
G02*
X344181600Y-62698400I0J250000D01*
G01*
X344181600Y-62198400D01*
G75*
G02*
X344431600Y-61948400I250000J0D01*
G01*
X345381600Y-61948400D01*
G75*
G02*
X345631600Y-62198400I0J-250000D01*
G01*
X345631600Y-62698400D01*
G75*
G02*
X345381600Y-62948400I-250000J0D01*
G01*
G37*
G36*
G01*
X345381600Y-64848400D02*
X344431600Y-64848400D01*
G75*
G02*
X344181600Y-64598400I0J250000D01*
G01*
X344181600Y-64098400D01*
G75*
G02*
X344431600Y-63848400I250000J0D01*
G01*
X345381600Y-63848400D01*
G75*
G02*
X345631600Y-64098400I0J-250000D01*
G01*
X345631600Y-64598400D01*
G75*
G02*
X345381600Y-64848400I-250000J0D01*
G01*
G37*
%TD*%
%TO.C,C1*%
G36*
G01*
X343095600Y-62948400D02*
X342145600Y-62948400D01*
G75*
G02*
X341895600Y-62698400I0J250000D01*
G01*
X341895600Y-62198400D01*
G75*
G02*
X342145600Y-61948400I250000J0D01*
G01*
X343095600Y-61948400D01*
G75*
G02*
X343345600Y-62198400I0J-250000D01*
G01*
X343345600Y-62698400D01*
G75*
G02*
X343095600Y-62948400I-250000J0D01*
G01*
G37*
G36*
G01*
X343095600Y-64848400D02*
X342145600Y-64848400D01*
G75*
G02*
X341895600Y-64598400I0J250000D01*
G01*
X341895600Y-64098400D01*
G75*
G02*
X342145600Y-63848400I250000J0D01*
G01*
X343095600Y-63848400D01*
G75*
G02*
X343345600Y-64098400I0J-250000D01*
G01*
X343345600Y-64598400D01*
G75*
G02*
X343095600Y-64848400I-250000J0D01*
G01*
G37*
%TD*%
M02*
