M48
; DRILL file {KiCad (5.1.9)-1} date 07/19/21 10:18:45
; FORMAT={-:-/ absolute / inch / decimal}
; #@! TF.CreationDate,2021-07-19T10:18:45-07:00
; #@! TF.GenerationSoftware,Kicad,Pcbnew,(5.1.9)-1
; #@! TF.FileFunction,NonPlated,1,2,NPTH
FMAT,2
INCH
T1C0.0256
T2C0.0689
T3C0.1200
T4C0.1570
%
G90
G05
T1
X13.1675Y-0.7774
X13.3951Y-0.7774
T2
X0.8Y-1.0
X0.8Y-2.5
X0.8Y-3.25
X0.8Y-4.0
X0.8002Y-1.75
X1.2Y-1.0
X1.2Y-2.5
X1.2Y-3.25
X1.2Y-4.0
X1.2002Y-1.75
X1.7375Y-1.0
X1.8313Y-4.0
X1.925Y-1.75
X2.0187Y-2.5
X2.1375Y-1.0
X2.2062Y-3.25
X2.2312Y-4.0
X2.325Y-1.75
X2.4187Y-2.5
X2.4875Y-1.0
X2.6062Y-3.25
X2.86Y-1.75
X2.8875Y-1.0
X3.05Y-2.5
X3.2375Y-1.0
X3.26Y-1.75
X3.425Y-3.25
X3.45Y-2.5
X3.61Y-1.75
X3.6375Y-1.0
X3.7062Y-4.0
X3.8Y-2.5
X3.825Y-3.25
X3.9875Y-1.0
X4.01Y-1.75
X4.1063Y-4.0
X4.175Y-3.25
X4.2Y-2.5
X4.36Y-1.75
X4.3875Y-1.0
X4.55Y-2.5
X4.575Y-3.25
X4.7375Y-1.0
X4.76Y-1.75
X4.925Y-3.25
X4.95Y-2.5
X5.11Y-1.75
X5.1375Y-1.0
X5.3Y-2.5
X5.325Y-3.25
X5.4875Y-1.0
X5.51Y-1.75
X5.675Y-3.25
X5.7Y-2.5
X5.86Y-1.75
X5.8875Y-1.0
X6.05Y-2.5
X6.075Y-3.25
X6.2375Y-1.0
X6.26Y-1.75
X6.425Y-3.25
X6.45Y-2.5
X6.52Y-4.0
X6.61Y-1.75
X6.6375Y-1.0
X6.8Y-2.5
X6.825Y-3.25
X6.92Y-4.0
X6.9875Y-1.0
X7.01Y-1.75
X7.175Y-3.25
X7.2Y-2.5
X7.36Y-1.75
X7.3875Y-1.0
X7.55Y-2.5
X7.575Y-3.25
X7.7375Y-1.0
X7.76Y-1.75
X7.925Y-3.25
X7.95Y-2.5
X8.11Y-1.75
X8.1375Y-1.0
X8.3Y-2.5
X8.325Y-3.25
X8.4875Y-1.0
X8.51Y-1.75
X8.675Y-3.25
X8.7Y-2.5
X8.86Y-1.75
X8.8875Y-1.0
X9.05Y-2.5
X9.075Y-3.25
X9.2375Y-1.0
X9.2375Y-4.0
X9.26Y-1.75
X9.425Y-3.25
X9.45Y-2.5
X9.61Y-1.75
X9.6375Y-1.0
X9.6375Y-4.0
X9.8Y-2.5
X9.825Y-3.25
X9.9875Y-1.0
X9.9875Y-4.0
X10.01Y-1.75
X10.175Y-3.25
X10.2Y-2.5
X10.36Y-1.75
X10.3875Y-1.0
X10.3875Y-4.0
X10.55Y-2.5
X10.575Y-3.25
X10.7375Y-1.0
X10.7375Y-4.0
X10.76Y-1.75
X10.95Y-2.5
X11.11Y-1.75
X11.1375Y-1.0
X11.1375Y-4.0
X11.2062Y-3.25
X11.51Y-1.75
X11.6062Y-3.25
X11.675Y-4.1875
X11.7687Y-2.5
X11.8626Y-1.0003
X12.0477Y-1.75
X12.075Y-4.1875
X12.1687Y-2.5
X12.2626Y-1.0003
X12.425Y-3.4375
X12.425Y-4.1875
X12.4477Y-1.75
X12.825Y-3.4375
X12.825Y-4.1875
X13.175Y-3.4375
X13.175Y-4.1875
X13.575Y-3.4375
X13.575Y-4.1875
T3
X1.9363Y-3.525
X2.8762Y-3.525
X4.7515Y-4.275
X8.6885Y-4.275
X11.4987Y-2.775
X11.5926Y-1.2753
X12.4387Y-2.775
X12.5326Y-1.2753
T4
X1.0Y-1.0
X1.0Y-2.5
X1.0Y-3.25
X1.0Y-4.0
X1.0002Y-1.75
X1.9363Y-2.925
X1.9375Y-1.0
X2.0312Y-4.0
X2.125Y-1.75
X2.2188Y-2.5
X2.4062Y-3.25
X2.6875Y-1.0
X2.8762Y-2.925
X3.06Y-1.75
X3.25Y-2.5
X3.4375Y-1.0
X3.625Y-3.25
X3.81Y-1.75
X3.9062Y-4.0
X4.0Y-2.5
X4.1875Y-1.0
X4.375Y-3.25
X4.56Y-1.75
X4.75Y-2.5
X4.7515Y-3.675
X4.9375Y-1.0
X5.125Y-3.25
X5.31Y-1.75
X5.5Y-2.5
X5.6875Y-1.0
X5.875Y-3.25
X6.06Y-1.75
X6.25Y-2.5
X6.4375Y-1.0
X6.625Y-3.25
X6.72Y-4.0
X6.81Y-1.75
X7.0Y-2.5
X7.1875Y-1.0
X7.375Y-3.25
X7.56Y-1.75
X7.75Y-2.5
X7.9375Y-1.0
X8.125Y-3.25
X8.31Y-1.75
X8.5Y-2.5
X8.6875Y-1.0
X8.6885Y-3.675
X8.875Y-3.25
X9.06Y-1.75
X9.25Y-2.5
X9.4375Y-1.0
X9.4375Y-4.0
X9.625Y-3.25
X9.81Y-1.75
X10.0Y-2.5
X10.1875Y-1.0
X10.1875Y-4.0
X10.375Y-3.25
X10.56Y-1.75
X10.75Y-2.5
X10.9375Y-1.0
X10.9375Y-4.0
X11.31Y-1.75
X11.4062Y-3.25
X11.4987Y-2.175
X11.5926Y-0.6753
X11.875Y-4.1875
X11.9688Y-2.5
X12.0626Y-1.0003
X12.2477Y-1.75
X12.4387Y-2.175
X12.5326Y-0.6753
X12.625Y-3.4375
X12.625Y-4.1875
X13.375Y-3.4375
X13.375Y-4.1875
T0
M30
