%TF.GenerationSoftware,KiCad,Pcbnew,(5.1.9)-1*%
%TF.CreationDate,2021-07-19T10:18:42-07:00*%
%TF.ProjectId,unsplit-keyboard,756e7370-6c69-4742-9d6b-6579626f6172,rev?*%
%TF.SameCoordinates,Original*%
%TF.FileFunction,Legend,Top*%
%TF.FilePolarity,Positive*%
%FSLAX46Y46*%
G04 Gerber Fmt 4.6, Leading zero omitted, Abs format (unit mm)*
G04 Created by KiCad (PCBNEW (5.1.9)-1) date 2021-07-19 10:18:42*
%MOMM*%
%LPD*%
G01*
G04 APERTURE LIST*
%ADD10C,0.150000*%
%ADD11C,0.300000*%
%ADD12C,0.010000*%
%ADD13C,0.120000*%
G04 APERTURE END LIST*
D10*
X127587952Y-104227380D02*
X127587952Y-104941666D01*
X127540333Y-105084523D01*
X127445095Y-105179761D01*
X127302238Y-105227380D01*
X127207000Y-105227380D01*
X128540333Y-105227380D02*
X128064142Y-105227380D01*
X128064142Y-104227380D01*
X129445095Y-105132142D02*
X129397476Y-105179761D01*
X129254619Y-105227380D01*
X129159380Y-105227380D01*
X129016523Y-105179761D01*
X128921285Y-105084523D01*
X128873666Y-104989285D01*
X128826047Y-104798809D01*
X128826047Y-104655952D01*
X128873666Y-104465476D01*
X128921285Y-104370238D01*
X129016523Y-104275000D01*
X129159380Y-104227380D01*
X129254619Y-104227380D01*
X129397476Y-104275000D01*
X129445095Y-104322619D01*
X130159380Y-104227380D02*
X130159380Y-104941666D01*
X130111761Y-105084523D01*
X130016523Y-105179761D01*
X129873666Y-105227380D01*
X129778428Y-105227380D01*
X131111761Y-105227380D02*
X130635571Y-105227380D01*
X130635571Y-104227380D01*
X132016523Y-105132142D02*
X131968904Y-105179761D01*
X131826047Y-105227380D01*
X131730809Y-105227380D01*
X131587952Y-105179761D01*
X131492714Y-105084523D01*
X131445095Y-104989285D01*
X131397476Y-104798809D01*
X131397476Y-104655952D01*
X131445095Y-104465476D01*
X131492714Y-104370238D01*
X131587952Y-104275000D01*
X131730809Y-104227380D01*
X131826047Y-104227380D01*
X131968904Y-104275000D01*
X132016523Y-104322619D01*
X132730809Y-104227380D02*
X132730809Y-104941666D01*
X132683190Y-105084523D01*
X132587952Y-105179761D01*
X132445095Y-105227380D01*
X132349857Y-105227380D01*
X133683190Y-105227380D02*
X133207000Y-105227380D01*
X133207000Y-104227380D01*
X134587952Y-105132142D02*
X134540333Y-105179761D01*
X134397476Y-105227380D01*
X134302238Y-105227380D01*
X134159380Y-105179761D01*
X134064142Y-105084523D01*
X134016523Y-104989285D01*
X133968904Y-104798809D01*
X133968904Y-104655952D01*
X134016523Y-104465476D01*
X134064142Y-104370238D01*
X134159380Y-104275000D01*
X134302238Y-104227380D01*
X134397476Y-104227380D01*
X134540333Y-104275000D01*
X134587952Y-104322619D01*
X135302238Y-104227380D02*
X135302238Y-104941666D01*
X135254619Y-105084523D01*
X135159380Y-105179761D01*
X135016523Y-105227380D01*
X134921285Y-105227380D01*
X136254619Y-105227380D02*
X135778428Y-105227380D01*
X135778428Y-104227380D01*
X137159380Y-105132142D02*
X137111761Y-105179761D01*
X136968904Y-105227380D01*
X136873666Y-105227380D01*
X136730809Y-105179761D01*
X136635571Y-105084523D01*
X136587952Y-104989285D01*
X136540333Y-104798809D01*
X136540333Y-104655952D01*
X136587952Y-104465476D01*
X136635571Y-104370238D01*
X136730809Y-104275000D01*
X136873666Y-104227380D01*
X136968904Y-104227380D01*
X137111761Y-104275000D01*
X137159380Y-104322619D01*
D11*
X127290190Y-96060761D02*
X127290190Y-97679809D01*
X127385428Y-97870285D01*
X127480666Y-97965523D01*
X127671142Y-98060761D01*
X128052095Y-98060761D01*
X128242571Y-97965523D01*
X128337809Y-97870285D01*
X128433047Y-97679809D01*
X128433047Y-96060761D01*
X129385428Y-97870285D02*
X129480666Y-97965523D01*
X129385428Y-98060761D01*
X129290190Y-97965523D01*
X129385428Y-97870285D01*
X129385428Y-98060761D01*
X130242571Y-97965523D02*
X130528285Y-98060761D01*
X131004476Y-98060761D01*
X131194952Y-97965523D01*
X131290190Y-97870285D01*
X131385428Y-97679809D01*
X131385428Y-97489333D01*
X131290190Y-97298857D01*
X131194952Y-97203619D01*
X131004476Y-97108380D01*
X130623523Y-97013142D01*
X130433047Y-96917904D01*
X130337809Y-96822666D01*
X130242571Y-96632190D01*
X130242571Y-96441714D01*
X130337809Y-96251238D01*
X130433047Y-96156000D01*
X130623523Y-96060761D01*
X131099714Y-96060761D01*
X131385428Y-96156000D01*
X132242571Y-97870285D02*
X132337809Y-97965523D01*
X132242571Y-98060761D01*
X132147333Y-97965523D01*
X132242571Y-97870285D01*
X132242571Y-98060761D01*
X133194952Y-98060761D02*
X133194952Y-96060761D01*
X134337809Y-98060761D02*
X133480666Y-96917904D01*
X134337809Y-96060761D02*
X133194952Y-97203619D01*
X135194952Y-97870285D02*
X135290190Y-97965523D01*
X135194952Y-98060761D01*
X135099714Y-97965523D01*
X135194952Y-97870285D01*
X135194952Y-98060761D01*
X136814000Y-97013142D02*
X137099714Y-97108380D01*
X137194952Y-97203619D01*
X137290190Y-97394095D01*
X137290190Y-97679809D01*
X137194952Y-97870285D01*
X137099714Y-97965523D01*
X136909238Y-98060761D01*
X136147333Y-98060761D01*
X136147333Y-96060761D01*
X136814000Y-96060761D01*
X137004476Y-96156000D01*
X137099714Y-96251238D01*
X137194952Y-96441714D01*
X137194952Y-96632190D01*
X137099714Y-96822666D01*
X137004476Y-96917904D01*
X136814000Y-97013142D01*
X136147333Y-97013142D01*
X127290190Y-101360761D02*
X127290190Y-99360761D01*
X127766380Y-99360761D01*
X128052095Y-99456000D01*
X128242571Y-99646476D01*
X128337809Y-99836952D01*
X128433047Y-100217904D01*
X128433047Y-100503619D01*
X128337809Y-100884571D01*
X128242571Y-101075047D01*
X128052095Y-101265523D01*
X127766380Y-101360761D01*
X127290190Y-101360761D01*
X130052095Y-101265523D02*
X129861619Y-101360761D01*
X129480666Y-101360761D01*
X129290190Y-101265523D01*
X129194952Y-101075047D01*
X129194952Y-100313142D01*
X129290190Y-100122666D01*
X129480666Y-100027428D01*
X129861619Y-100027428D01*
X130052095Y-100122666D01*
X130147333Y-100313142D01*
X130147333Y-100503619D01*
X129194952Y-100694095D01*
X130909238Y-101265523D02*
X131099714Y-101360761D01*
X131480666Y-101360761D01*
X131671142Y-101265523D01*
X131766380Y-101075047D01*
X131766380Y-100979809D01*
X131671142Y-100789333D01*
X131480666Y-100694095D01*
X131194952Y-100694095D01*
X131004476Y-100598857D01*
X130909238Y-100408380D01*
X130909238Y-100313142D01*
X131004476Y-100122666D01*
X131194952Y-100027428D01*
X131480666Y-100027428D01*
X131671142Y-100122666D01*
X132623523Y-101360761D02*
X132623523Y-100027428D01*
X132623523Y-99360761D02*
X132528285Y-99456000D01*
X132623523Y-99551238D01*
X132718761Y-99456000D01*
X132623523Y-99360761D01*
X132623523Y-99551238D01*
X134433047Y-100027428D02*
X134433047Y-101646476D01*
X134337809Y-101836952D01*
X134242571Y-101932190D01*
X134052095Y-102027428D01*
X133766380Y-102027428D01*
X133575904Y-101932190D01*
X134433047Y-101265523D02*
X134242571Y-101360761D01*
X133861619Y-101360761D01*
X133671142Y-101265523D01*
X133575904Y-101170285D01*
X133480666Y-100979809D01*
X133480666Y-100408380D01*
X133575904Y-100217904D01*
X133671142Y-100122666D01*
X133861619Y-100027428D01*
X134242571Y-100027428D01*
X134433047Y-100122666D01*
X135385428Y-100027428D02*
X135385428Y-101360761D01*
X135385428Y-100217904D02*
X135480666Y-100122666D01*
X135671142Y-100027428D01*
X135956857Y-100027428D01*
X136147333Y-100122666D01*
X136242571Y-100313142D01*
X136242571Y-101360761D01*
X137956857Y-101265523D02*
X137766380Y-101360761D01*
X137385428Y-101360761D01*
X137194952Y-101265523D01*
X137099714Y-101075047D01*
X137099714Y-100313142D01*
X137194952Y-100122666D01*
X137385428Y-100027428D01*
X137766380Y-100027428D01*
X137956857Y-100122666D01*
X138052095Y-100313142D01*
X138052095Y-100503619D01*
X137099714Y-100694095D01*
X139766380Y-101360761D02*
X139766380Y-99360761D01*
X139766380Y-101265523D02*
X139575904Y-101360761D01*
X139194952Y-101360761D01*
X139004476Y-101265523D01*
X138909238Y-101170285D01*
X138814000Y-100979809D01*
X138814000Y-100408380D01*
X138909238Y-100217904D01*
X139004476Y-100122666D01*
X139194952Y-100027428D01*
X139575904Y-100027428D01*
X139766380Y-100122666D01*
X142242571Y-101360761D02*
X142242571Y-99360761D01*
X142242571Y-100122666D02*
X142433047Y-100027428D01*
X142814000Y-100027428D01*
X143004476Y-100122666D01*
X143099714Y-100217904D01*
X143194952Y-100408380D01*
X143194952Y-100979809D01*
X143099714Y-101170285D01*
X143004476Y-101265523D01*
X142814000Y-101360761D01*
X142433047Y-101360761D01*
X142242571Y-101265523D01*
X143861619Y-100027428D02*
X144337809Y-101360761D01*
X144814000Y-100027428D02*
X144337809Y-101360761D01*
X144147333Y-101836952D01*
X144052095Y-101932190D01*
X143861619Y-102027428D01*
X146814000Y-99360761D02*
X147480666Y-101360761D01*
X148147333Y-99360761D01*
X148814000Y-101170285D02*
X148909238Y-101265523D01*
X148814000Y-101360761D01*
X148718761Y-101265523D01*
X148814000Y-101170285D01*
X148814000Y-101360761D01*
X149671142Y-101265523D02*
X149956857Y-101360761D01*
X150433047Y-101360761D01*
X150623523Y-101265523D01*
X150718761Y-101170285D01*
X150814000Y-100979809D01*
X150814000Y-100789333D01*
X150718761Y-100598857D01*
X150623523Y-100503619D01*
X150433047Y-100408380D01*
X150052095Y-100313142D01*
X149861619Y-100217904D01*
X149766380Y-100122666D01*
X149671142Y-99932190D01*
X149671142Y-99741714D01*
X149766380Y-99551238D01*
X149861619Y-99456000D01*
X150052095Y-99360761D01*
X150528285Y-99360761D01*
X150814000Y-99456000D01*
X151671142Y-101170285D02*
X151766380Y-101265523D01*
X151671142Y-101360761D01*
X151575904Y-101265523D01*
X151671142Y-101170285D01*
X151671142Y-101360761D01*
D12*
%TO.C,LOGO2*%
G36*
X198737866Y-102220880D02*
G01*
X198845212Y-102274824D01*
X198923894Y-102363228D01*
X198970325Y-102481207D01*
X198980922Y-102623874D01*
X198971319Y-102704866D01*
X198954628Y-102799147D01*
X198939076Y-102888715D01*
X198933094Y-102923941D01*
X198877004Y-103247927D01*
X198814356Y-103590555D01*
X198747902Y-103937687D01*
X198680396Y-104275182D01*
X198614589Y-104588901D01*
X198567090Y-104804117D01*
X198543588Y-104912577D01*
X198526219Y-105002154D01*
X198516793Y-105062805D01*
X198516527Y-105084288D01*
X198543676Y-105082782D01*
X198600228Y-105066830D01*
X198632124Y-105055576D01*
X198902058Y-104978298D01*
X199191553Y-104937842D01*
X199487087Y-104934645D01*
X199775133Y-104969146D01*
X199954308Y-105012701D01*
X200031654Y-105038765D01*
X200121847Y-105073424D01*
X200212753Y-105111430D01*
X200292240Y-105147535D01*
X200348176Y-105176492D01*
X200368216Y-105191726D01*
X200396475Y-105210044D01*
X200403753Y-105210679D01*
X200438237Y-105226407D01*
X200487644Y-105265085D01*
X200496493Y-105273335D01*
X200561892Y-105335991D01*
X200576297Y-105218010D01*
X200610381Y-105047348D01*
X200670740Y-104854577D01*
X200751191Y-104654530D01*
X200819184Y-104515828D01*
X201749274Y-104515828D01*
X201762030Y-104536079D01*
X201792304Y-104526300D01*
X201844152Y-104507757D01*
X201917522Y-104490198D01*
X201933688Y-104487241D01*
X202024182Y-104471474D01*
X202076091Y-104454962D01*
X202096148Y-104426336D01*
X202091084Y-104374231D01*
X202067631Y-104287277D01*
X202062650Y-104269470D01*
X202007909Y-104074677D01*
X201964923Y-103926238D01*
X201933294Y-103822855D01*
X201912625Y-103763229D01*
X201902517Y-103746061D01*
X201902392Y-103746169D01*
X201894815Y-103772051D01*
X201880210Y-103836178D01*
X201860586Y-103928456D01*
X201837950Y-104038790D01*
X201814311Y-104157085D01*
X201791678Y-104273248D01*
X201772058Y-104377184D01*
X201757459Y-104458798D01*
X201749891Y-104507996D01*
X201749274Y-104515828D01*
X200819184Y-104515828D01*
X200845551Y-104462042D01*
X200947637Y-104291947D01*
X200983438Y-104241270D01*
X201026817Y-104180531D01*
X201059364Y-104126131D01*
X201084936Y-104067260D01*
X201107390Y-103993111D01*
X201130583Y-103892877D01*
X201158372Y-103755748D01*
X201160419Y-103745352D01*
X201230494Y-103431743D01*
X201308781Y-103160525D01*
X201394696Y-102933131D01*
X201487658Y-102750991D01*
X201587085Y-102615536D01*
X201641186Y-102563993D01*
X201710230Y-102511131D01*
X201766622Y-102482846D01*
X201832096Y-102471501D01*
X201910116Y-102469473D01*
X202001826Y-102472332D01*
X202064971Y-102485686D01*
X202119976Y-102515773D01*
X202158775Y-102545425D01*
X202231510Y-102612706D01*
X202290554Y-102690075D01*
X202343460Y-102789741D01*
X202397785Y-102923912D01*
X202404740Y-102942860D01*
X202438649Y-103039952D01*
X202479708Y-103163567D01*
X202524694Y-103303323D01*
X202570390Y-103448837D01*
X202613574Y-103589728D01*
X202651027Y-103715614D01*
X202679529Y-103816114D01*
X202695860Y-103880844D01*
X202696287Y-103882895D01*
X202713181Y-103947508D01*
X202731025Y-103990953D01*
X202732817Y-103993544D01*
X202750146Y-104032899D01*
X202767326Y-104096317D01*
X202768960Y-104104193D01*
X202783592Y-104164448D01*
X202808992Y-104256804D01*
X202841013Y-104366501D01*
X202862186Y-104436138D01*
X202894333Y-104541224D01*
X202920925Y-104630147D01*
X202938599Y-104691546D01*
X202943887Y-104712191D01*
X202959695Y-104760316D01*
X202993039Y-104841166D01*
X203038769Y-104943834D01*
X203091733Y-105057414D01*
X203146780Y-105170997D01*
X203198760Y-105273679D01*
X203242521Y-105354552D01*
X203264140Y-105390290D01*
X203311301Y-105472315D01*
X203346826Y-105552940D01*
X203358336Y-105592508D01*
X203356118Y-105702540D01*
X203313253Y-105804470D01*
X203238266Y-105891007D01*
X203139682Y-105954862D01*
X203026023Y-105988745D01*
X202905815Y-105985365D01*
X202900329Y-105984207D01*
X202817645Y-105947782D01*
X202726457Y-105878903D01*
X202636165Y-105788542D01*
X202556168Y-105687676D01*
X202495865Y-105587278D01*
X202464656Y-105498323D01*
X202462343Y-105472810D01*
X202453934Y-105430228D01*
X202432457Y-105363528D01*
X202403540Y-105286780D01*
X202372809Y-105214054D01*
X202345889Y-105159419D01*
X202328408Y-105136944D01*
X202328019Y-105136913D01*
X202301979Y-105141173D01*
X202239516Y-105152508D01*
X202152506Y-105168750D01*
X202121835Y-105174550D01*
X202019717Y-105192589D01*
X201950484Y-105199776D01*
X201899040Y-105196049D01*
X201850291Y-105181348D01*
X201830539Y-105173377D01*
X201755084Y-105134651D01*
X201690671Y-105090060D01*
X201683240Y-105083450D01*
X201628830Y-105032334D01*
X201611896Y-105103065D01*
X201594034Y-105162612D01*
X201577784Y-105198384D01*
X201560115Y-105233052D01*
X201531540Y-105298321D01*
X201503928Y-105365897D01*
X201437500Y-105492682D01*
X201348234Y-105606199D01*
X201246859Y-105695283D01*
X201144103Y-105748769D01*
X201132836Y-105752091D01*
X200996259Y-105766847D01*
X200862080Y-105742134D01*
X200743671Y-105682177D01*
X200663188Y-105603690D01*
X200613700Y-105546901D01*
X200581736Y-105532911D01*
X200569145Y-105562415D01*
X200569022Y-105568193D01*
X200551885Y-105637042D01*
X200508611Y-105717486D01*
X200451406Y-105790324D01*
X200401596Y-105831540D01*
X200293186Y-105869237D01*
X200169666Y-105863284D01*
X200027916Y-105813464D01*
X200008931Y-105804227D01*
X199820650Y-105721093D01*
X199646239Y-105669795D01*
X199467010Y-105645317D01*
X199406115Y-105642344D01*
X199220571Y-105647307D01*
X199047645Y-105676565D01*
X198878433Y-105733578D01*
X198704032Y-105821807D01*
X198515539Y-105944709D01*
X198392352Y-106036243D01*
X198259224Y-106136607D01*
X198154790Y-106208383D01*
X198070539Y-106255138D01*
X197997959Y-106280443D01*
X197928538Y-106287866D01*
X197853764Y-106280975D01*
X197822144Y-106275340D01*
X197747504Y-106240256D01*
X197674663Y-106172397D01*
X197617489Y-106086660D01*
X197596515Y-106032977D01*
X197587755Y-105991308D01*
X197585591Y-105944879D01*
X197591263Y-105885221D01*
X197606014Y-105803865D01*
X197631085Y-105692342D01*
X197667717Y-105542182D01*
X197669558Y-105534779D01*
X197703337Y-105398615D01*
X197733273Y-105277165D01*
X197757190Y-105179322D01*
X197772911Y-105113979D01*
X197777904Y-105092185D01*
X197786090Y-105054853D01*
X197803125Y-104978830D01*
X197826925Y-104873372D01*
X197855402Y-104747733D01*
X197873133Y-104669730D01*
X197909393Y-104506348D01*
X197949133Y-104320258D01*
X197991182Y-104117575D01*
X198034371Y-103904413D01*
X198077531Y-103686886D01*
X198119492Y-103471106D01*
X198159085Y-103263190D01*
X198195139Y-103069249D01*
X198226487Y-102895399D01*
X198251957Y-102747754D01*
X198270381Y-102632426D01*
X198280589Y-102555531D01*
X198282285Y-102530751D01*
X198305052Y-102425667D01*
X198366103Y-102330291D01*
X198454557Y-102255548D01*
X198559536Y-102212360D01*
X198605439Y-102206281D01*
X198737866Y-102220880D01*
G37*
X198737866Y-102220880D02*
X198845212Y-102274824D01*
X198923894Y-102363228D01*
X198970325Y-102481207D01*
X198980922Y-102623874D01*
X198971319Y-102704866D01*
X198954628Y-102799147D01*
X198939076Y-102888715D01*
X198933094Y-102923941D01*
X198877004Y-103247927D01*
X198814356Y-103590555D01*
X198747902Y-103937687D01*
X198680396Y-104275182D01*
X198614589Y-104588901D01*
X198567090Y-104804117D01*
X198543588Y-104912577D01*
X198526219Y-105002154D01*
X198516793Y-105062805D01*
X198516527Y-105084288D01*
X198543676Y-105082782D01*
X198600228Y-105066830D01*
X198632124Y-105055576D01*
X198902058Y-104978298D01*
X199191553Y-104937842D01*
X199487087Y-104934645D01*
X199775133Y-104969146D01*
X199954308Y-105012701D01*
X200031654Y-105038765D01*
X200121847Y-105073424D01*
X200212753Y-105111430D01*
X200292240Y-105147535D01*
X200348176Y-105176492D01*
X200368216Y-105191726D01*
X200396475Y-105210044D01*
X200403753Y-105210679D01*
X200438237Y-105226407D01*
X200487644Y-105265085D01*
X200496493Y-105273335D01*
X200561892Y-105335991D01*
X200576297Y-105218010D01*
X200610381Y-105047348D01*
X200670740Y-104854577D01*
X200751191Y-104654530D01*
X200819184Y-104515828D01*
X201749274Y-104515828D01*
X201762030Y-104536079D01*
X201792304Y-104526300D01*
X201844152Y-104507757D01*
X201917522Y-104490198D01*
X201933688Y-104487241D01*
X202024182Y-104471474D01*
X202076091Y-104454962D01*
X202096148Y-104426336D01*
X202091084Y-104374231D01*
X202067631Y-104287277D01*
X202062650Y-104269470D01*
X202007909Y-104074677D01*
X201964923Y-103926238D01*
X201933294Y-103822855D01*
X201912625Y-103763229D01*
X201902517Y-103746061D01*
X201902392Y-103746169D01*
X201894815Y-103772051D01*
X201880210Y-103836178D01*
X201860586Y-103928456D01*
X201837950Y-104038790D01*
X201814311Y-104157085D01*
X201791678Y-104273248D01*
X201772058Y-104377184D01*
X201757459Y-104458798D01*
X201749891Y-104507996D01*
X201749274Y-104515828D01*
X200819184Y-104515828D01*
X200845551Y-104462042D01*
X200947637Y-104291947D01*
X200983438Y-104241270D01*
X201026817Y-104180531D01*
X201059364Y-104126131D01*
X201084936Y-104067260D01*
X201107390Y-103993111D01*
X201130583Y-103892877D01*
X201158372Y-103755748D01*
X201160419Y-103745352D01*
X201230494Y-103431743D01*
X201308781Y-103160525D01*
X201394696Y-102933131D01*
X201487658Y-102750991D01*
X201587085Y-102615536D01*
X201641186Y-102563993D01*
X201710230Y-102511131D01*
X201766622Y-102482846D01*
X201832096Y-102471501D01*
X201910116Y-102469473D01*
X202001826Y-102472332D01*
X202064971Y-102485686D01*
X202119976Y-102515773D01*
X202158775Y-102545425D01*
X202231510Y-102612706D01*
X202290554Y-102690075D01*
X202343460Y-102789741D01*
X202397785Y-102923912D01*
X202404740Y-102942860D01*
X202438649Y-103039952D01*
X202479708Y-103163567D01*
X202524694Y-103303323D01*
X202570390Y-103448837D01*
X202613574Y-103589728D01*
X202651027Y-103715614D01*
X202679529Y-103816114D01*
X202695860Y-103880844D01*
X202696287Y-103882895D01*
X202713181Y-103947508D01*
X202731025Y-103990953D01*
X202732817Y-103993544D01*
X202750146Y-104032899D01*
X202767326Y-104096317D01*
X202768960Y-104104193D01*
X202783592Y-104164448D01*
X202808992Y-104256804D01*
X202841013Y-104366501D01*
X202862186Y-104436138D01*
X202894333Y-104541224D01*
X202920925Y-104630147D01*
X202938599Y-104691546D01*
X202943887Y-104712191D01*
X202959695Y-104760316D01*
X202993039Y-104841166D01*
X203038769Y-104943834D01*
X203091733Y-105057414D01*
X203146780Y-105170997D01*
X203198760Y-105273679D01*
X203242521Y-105354552D01*
X203264140Y-105390290D01*
X203311301Y-105472315D01*
X203346826Y-105552940D01*
X203358336Y-105592508D01*
X203356118Y-105702540D01*
X203313253Y-105804470D01*
X203238266Y-105891007D01*
X203139682Y-105954862D01*
X203026023Y-105988745D01*
X202905815Y-105985365D01*
X202900329Y-105984207D01*
X202817645Y-105947782D01*
X202726457Y-105878903D01*
X202636165Y-105788542D01*
X202556168Y-105687676D01*
X202495865Y-105587278D01*
X202464656Y-105498323D01*
X202462343Y-105472810D01*
X202453934Y-105430228D01*
X202432457Y-105363528D01*
X202403540Y-105286780D01*
X202372809Y-105214054D01*
X202345889Y-105159419D01*
X202328408Y-105136944D01*
X202328019Y-105136913D01*
X202301979Y-105141173D01*
X202239516Y-105152508D01*
X202152506Y-105168750D01*
X202121835Y-105174550D01*
X202019717Y-105192589D01*
X201950484Y-105199776D01*
X201899040Y-105196049D01*
X201850291Y-105181348D01*
X201830539Y-105173377D01*
X201755084Y-105134651D01*
X201690671Y-105090060D01*
X201683240Y-105083450D01*
X201628830Y-105032334D01*
X201611896Y-105103065D01*
X201594034Y-105162612D01*
X201577784Y-105198384D01*
X201560115Y-105233052D01*
X201531540Y-105298321D01*
X201503928Y-105365897D01*
X201437500Y-105492682D01*
X201348234Y-105606199D01*
X201246859Y-105695283D01*
X201144103Y-105748769D01*
X201132836Y-105752091D01*
X200996259Y-105766847D01*
X200862080Y-105742134D01*
X200743671Y-105682177D01*
X200663188Y-105603690D01*
X200613700Y-105546901D01*
X200581736Y-105532911D01*
X200569145Y-105562415D01*
X200569022Y-105568193D01*
X200551885Y-105637042D01*
X200508611Y-105717486D01*
X200451406Y-105790324D01*
X200401596Y-105831540D01*
X200293186Y-105869237D01*
X200169666Y-105863284D01*
X200027916Y-105813464D01*
X200008931Y-105804227D01*
X199820650Y-105721093D01*
X199646239Y-105669795D01*
X199467010Y-105645317D01*
X199406115Y-105642344D01*
X199220571Y-105647307D01*
X199047645Y-105676565D01*
X198878433Y-105733578D01*
X198704032Y-105821807D01*
X198515539Y-105944709D01*
X198392352Y-106036243D01*
X198259224Y-106136607D01*
X198154790Y-106208383D01*
X198070539Y-106255138D01*
X197997959Y-106280443D01*
X197928538Y-106287866D01*
X197853764Y-106280975D01*
X197822144Y-106275340D01*
X197747504Y-106240256D01*
X197674663Y-106172397D01*
X197617489Y-106086660D01*
X197596515Y-106032977D01*
X197587755Y-105991308D01*
X197585591Y-105944879D01*
X197591263Y-105885221D01*
X197606014Y-105803865D01*
X197631085Y-105692342D01*
X197667717Y-105542182D01*
X197669558Y-105534779D01*
X197703337Y-105398615D01*
X197733273Y-105277165D01*
X197757190Y-105179322D01*
X197772911Y-105113979D01*
X197777904Y-105092185D01*
X197786090Y-105054853D01*
X197803125Y-104978830D01*
X197826925Y-104873372D01*
X197855402Y-104747733D01*
X197873133Y-104669730D01*
X197909393Y-104506348D01*
X197949133Y-104320258D01*
X197991182Y-104117575D01*
X198034371Y-103904413D01*
X198077531Y-103686886D01*
X198119492Y-103471106D01*
X198159085Y-103263190D01*
X198195139Y-103069249D01*
X198226487Y-102895399D01*
X198251957Y-102747754D01*
X198270381Y-102632426D01*
X198280589Y-102555531D01*
X198282285Y-102530751D01*
X198305052Y-102425667D01*
X198366103Y-102330291D01*
X198454557Y-102255548D01*
X198559536Y-102212360D01*
X198605439Y-102206281D01*
X198737866Y-102220880D01*
G36*
X203941822Y-102282521D02*
G01*
X204132457Y-102357406D01*
X204319429Y-102470121D01*
X204497779Y-102617316D01*
X204662547Y-102795640D01*
X204808772Y-103001744D01*
X204894304Y-103154507D01*
X204933270Y-103234097D01*
X204958689Y-103297449D01*
X204973449Y-103359131D01*
X204980438Y-103433713D01*
X204982546Y-103535763D01*
X204982672Y-103600187D01*
X204981486Y-103724786D01*
X204976466Y-103813877D01*
X204965416Y-103881102D01*
X204946143Y-103940101D01*
X204918185Y-104001020D01*
X204853699Y-104131318D01*
X205028834Y-104219160D01*
X205136397Y-104274124D01*
X205248608Y-104333058D01*
X205339206Y-104382125D01*
X205421132Y-104427340D01*
X205493618Y-104466846D01*
X205531369Y-104487021D01*
X205651045Y-104563703D01*
X205773745Y-104665815D01*
X205883139Y-104778318D01*
X205960526Y-104882214D01*
X206039963Y-105052820D01*
X206073201Y-105219762D01*
X206063215Y-105378976D01*
X206012981Y-105526395D01*
X205925476Y-105657952D01*
X205803676Y-105769583D01*
X205650556Y-105857219D01*
X205469093Y-105916796D01*
X205262263Y-105944247D01*
X205182324Y-105945484D01*
X205081969Y-105942872D01*
X204996027Y-105938522D01*
X204940165Y-105933278D01*
X204933495Y-105932093D01*
X204816200Y-105896968D01*
X204679494Y-105840423D01*
X204543137Y-105770776D01*
X204523915Y-105759701D01*
X204440927Y-105714464D01*
X204379024Y-105692485D01*
X204319082Y-105688711D01*
X204273273Y-105693465D01*
X204194398Y-105698278D01*
X204128089Y-105683231D01*
X204050261Y-105643424D01*
X204018491Y-105623801D01*
X203990215Y-105602051D01*
X203962453Y-105573181D01*
X203932226Y-105532197D01*
X203896551Y-105474106D01*
X203852449Y-105393915D01*
X203796941Y-105286629D01*
X203727044Y-105147256D01*
X203639779Y-104970803D01*
X203597105Y-104884174D01*
X203508581Y-104703260D01*
X204333980Y-104703260D01*
X204357101Y-104768123D01*
X204385151Y-104828898D01*
X204423543Y-104897779D01*
X204459085Y-104931126D01*
X204504087Y-104940187D01*
X204506937Y-104940204D01*
X204599997Y-104955129D01*
X204700522Y-105002799D01*
X204817497Y-105087562D01*
X204826002Y-105094557D01*
X204929601Y-105169776D01*
X205027393Y-105212478D01*
X205141272Y-105230779D01*
X205199871Y-105233154D01*
X205275478Y-105230223D01*
X205307915Y-105217007D01*
X205309135Y-105204531D01*
X205285140Y-105184057D01*
X205224206Y-105145685D01*
X205133395Y-105093479D01*
X205019771Y-105031499D01*
X204892313Y-104964793D01*
X204760649Y-104896534D01*
X204642278Y-104833875D01*
X204544942Y-104781018D01*
X204476385Y-104742164D01*
X204444957Y-104722043D01*
X204413553Y-104702578D01*
X204404840Y-104706613D01*
X204389712Y-104708824D01*
X204367957Y-104694318D01*
X204337575Y-104678472D01*
X204333980Y-104703260D01*
X203508581Y-104703260D01*
X203457948Y-104599785D01*
X203340005Y-104354144D01*
X203241524Y-104142514D01*
X203160753Y-103960157D01*
X203095941Y-103802336D01*
X203045334Y-103664314D01*
X203007182Y-103541353D01*
X202979732Y-103428716D01*
X202961232Y-103321666D01*
X202949931Y-103215466D01*
X202944577Y-103119678D01*
X202947788Y-103050674D01*
X203646923Y-103050674D01*
X203648436Y-103143094D01*
X203676346Y-103267254D01*
X203730296Y-103420139D01*
X203795148Y-103567863D01*
X203919309Y-103830662D01*
X204045279Y-103817439D01*
X204143864Y-103797718D01*
X204210801Y-103759360D01*
X204226573Y-103743830D01*
X204265218Y-103689021D01*
X204281882Y-103640351D01*
X204281897Y-103639308D01*
X204266256Y-103551950D01*
X204223694Y-103444718D01*
X204160759Y-103333772D01*
X204154122Y-103323867D01*
X204096309Y-103252343D01*
X204019029Y-103174652D01*
X203932751Y-103099339D01*
X203847938Y-103034950D01*
X203775057Y-102990028D01*
X203724574Y-102973118D01*
X203724520Y-102973118D01*
X203672165Y-102993010D01*
X203646923Y-103050674D01*
X202947788Y-103050674D01*
X202954913Y-102897566D01*
X203003041Y-102705642D01*
X203088155Y-102545016D01*
X203209449Y-102416798D01*
X203366116Y-102322098D01*
X203557350Y-102262025D01*
X203569408Y-102259642D01*
X203752486Y-102248816D01*
X203941822Y-102282521D01*
G37*
X203941822Y-102282521D02*
X204132457Y-102357406D01*
X204319429Y-102470121D01*
X204497779Y-102617316D01*
X204662547Y-102795640D01*
X204808772Y-103001744D01*
X204894304Y-103154507D01*
X204933270Y-103234097D01*
X204958689Y-103297449D01*
X204973449Y-103359131D01*
X204980438Y-103433713D01*
X204982546Y-103535763D01*
X204982672Y-103600187D01*
X204981486Y-103724786D01*
X204976466Y-103813877D01*
X204965416Y-103881102D01*
X204946143Y-103940101D01*
X204918185Y-104001020D01*
X204853699Y-104131318D01*
X205028834Y-104219160D01*
X205136397Y-104274124D01*
X205248608Y-104333058D01*
X205339206Y-104382125D01*
X205421132Y-104427340D01*
X205493618Y-104466846D01*
X205531369Y-104487021D01*
X205651045Y-104563703D01*
X205773745Y-104665815D01*
X205883139Y-104778318D01*
X205960526Y-104882214D01*
X206039963Y-105052820D01*
X206073201Y-105219762D01*
X206063215Y-105378976D01*
X206012981Y-105526395D01*
X205925476Y-105657952D01*
X205803676Y-105769583D01*
X205650556Y-105857219D01*
X205469093Y-105916796D01*
X205262263Y-105944247D01*
X205182324Y-105945484D01*
X205081969Y-105942872D01*
X204996027Y-105938522D01*
X204940165Y-105933278D01*
X204933495Y-105932093D01*
X204816200Y-105896968D01*
X204679494Y-105840423D01*
X204543137Y-105770776D01*
X204523915Y-105759701D01*
X204440927Y-105714464D01*
X204379024Y-105692485D01*
X204319082Y-105688711D01*
X204273273Y-105693465D01*
X204194398Y-105698278D01*
X204128089Y-105683231D01*
X204050261Y-105643424D01*
X204018491Y-105623801D01*
X203990215Y-105602051D01*
X203962453Y-105573181D01*
X203932226Y-105532197D01*
X203896551Y-105474106D01*
X203852449Y-105393915D01*
X203796941Y-105286629D01*
X203727044Y-105147256D01*
X203639779Y-104970803D01*
X203597105Y-104884174D01*
X203508581Y-104703260D01*
X204333980Y-104703260D01*
X204357101Y-104768123D01*
X204385151Y-104828898D01*
X204423543Y-104897779D01*
X204459085Y-104931126D01*
X204504087Y-104940187D01*
X204506937Y-104940204D01*
X204599997Y-104955129D01*
X204700522Y-105002799D01*
X204817497Y-105087562D01*
X204826002Y-105094557D01*
X204929601Y-105169776D01*
X205027393Y-105212478D01*
X205141272Y-105230779D01*
X205199871Y-105233154D01*
X205275478Y-105230223D01*
X205307915Y-105217007D01*
X205309135Y-105204531D01*
X205285140Y-105184057D01*
X205224206Y-105145685D01*
X205133395Y-105093479D01*
X205019771Y-105031499D01*
X204892313Y-104964793D01*
X204760649Y-104896534D01*
X204642278Y-104833875D01*
X204544942Y-104781018D01*
X204476385Y-104742164D01*
X204444957Y-104722043D01*
X204413553Y-104702578D01*
X204404840Y-104706613D01*
X204389712Y-104708824D01*
X204367957Y-104694318D01*
X204337575Y-104678472D01*
X204333980Y-104703260D01*
X203508581Y-104703260D01*
X203457948Y-104599785D01*
X203340005Y-104354144D01*
X203241524Y-104142514D01*
X203160753Y-103960157D01*
X203095941Y-103802336D01*
X203045334Y-103664314D01*
X203007182Y-103541353D01*
X202979732Y-103428716D01*
X202961232Y-103321666D01*
X202949931Y-103215466D01*
X202944577Y-103119678D01*
X202947788Y-103050674D01*
X203646923Y-103050674D01*
X203648436Y-103143094D01*
X203676346Y-103267254D01*
X203730296Y-103420139D01*
X203795148Y-103567863D01*
X203919309Y-103830662D01*
X204045279Y-103817439D01*
X204143864Y-103797718D01*
X204210801Y-103759360D01*
X204226573Y-103743830D01*
X204265218Y-103689021D01*
X204281882Y-103640351D01*
X204281897Y-103639308D01*
X204266256Y-103551950D01*
X204223694Y-103444718D01*
X204160759Y-103333772D01*
X204154122Y-103323867D01*
X204096309Y-103252343D01*
X204019029Y-103174652D01*
X203932751Y-103099339D01*
X203847938Y-103034950D01*
X203775057Y-102990028D01*
X203724574Y-102973118D01*
X203724520Y-102973118D01*
X203672165Y-102993010D01*
X203646923Y-103050674D01*
X202947788Y-103050674D01*
X202954913Y-102897566D01*
X203003041Y-102705642D01*
X203088155Y-102545016D01*
X203209449Y-102416798D01*
X203366116Y-102322098D01*
X203557350Y-102262025D01*
X203569408Y-102259642D01*
X203752486Y-102248816D01*
X203941822Y-102282521D01*
G36*
X206501826Y-102406707D02*
G01*
X206638833Y-102465268D01*
X206742560Y-102552460D01*
X206794330Y-102623171D01*
X206822404Y-102675326D01*
X206839575Y-102730598D01*
X206848361Y-102803050D01*
X206851279Y-102906746D01*
X206851388Y-102941939D01*
X206851404Y-103168941D01*
X206761978Y-103258399D01*
X206700174Y-103312853D01*
X206639435Y-103343387D01*
X206557706Y-103359913D01*
X206528387Y-103363344D01*
X206433658Y-103379987D01*
X206387454Y-103402929D01*
X206389935Y-103430014D01*
X206441263Y-103459087D01*
X206519458Y-103482786D01*
X206702866Y-103533449D01*
X206910923Y-103600203D01*
X207132362Y-103678657D01*
X207355916Y-103764421D01*
X207570321Y-103853104D01*
X207764309Y-103940315D01*
X207926614Y-104021664D01*
X207982478Y-104052941D01*
X208236217Y-104217293D01*
X208449899Y-104389667D01*
X208622136Y-104567977D01*
X208751542Y-104750133D01*
X208836728Y-104934047D01*
X208876306Y-105117632D01*
X208868890Y-105298800D01*
X208854047Y-105364475D01*
X208813470Y-105448250D01*
X208740498Y-105543440D01*
X208646361Y-105638762D01*
X208542290Y-105722931D01*
X208439514Y-105784664D01*
X208432670Y-105787848D01*
X208331617Y-105823870D01*
X208197327Y-105857994D01*
X208045733Y-105887348D01*
X207892764Y-105909061D01*
X207754353Y-105920263D01*
X207693827Y-105920990D01*
X207596266Y-105914562D01*
X207481035Y-105900895D01*
X207404647Y-105888572D01*
X207209876Y-105846024D01*
X207038084Y-105795821D01*
X206897219Y-105740753D01*
X206795229Y-105683616D01*
X206773850Y-105666877D01*
X206719461Y-105613718D01*
X206690565Y-105561855D01*
X206677061Y-105489877D01*
X206674054Y-105455330D01*
X206674109Y-105349401D01*
X206695651Y-105266648D01*
X206710963Y-105235267D01*
X206784852Y-105147984D01*
X206888210Y-105089725D01*
X207008179Y-105064485D01*
X207131896Y-105076260D01*
X207176045Y-105090797D01*
X207244251Y-105118380D01*
X207293998Y-105138694D01*
X207382403Y-105165507D01*
X207493600Y-105185095D01*
X207618440Y-105197531D01*
X207747769Y-105202888D01*
X207872437Y-105201240D01*
X207983291Y-105192660D01*
X208071181Y-105177220D01*
X208126954Y-105154994D01*
X208142304Y-105131917D01*
X208125400Y-105100875D01*
X208080954Y-105046850D01*
X208018361Y-104979321D01*
X207947018Y-104907767D01*
X207876323Y-104841668D01*
X207815672Y-104790504D01*
X207779812Y-104766233D01*
X207728199Y-104737461D01*
X207699710Y-104717601D01*
X207670796Y-104699422D01*
X207606454Y-104665757D01*
X207516190Y-104621106D01*
X207409509Y-104569968D01*
X207295916Y-104516842D01*
X207184918Y-104466227D01*
X207086018Y-104422624D01*
X207008830Y-104390572D01*
X206932172Y-104362722D01*
X206819444Y-104324670D01*
X206681771Y-104280033D01*
X206530281Y-104232424D01*
X206395233Y-104191200D01*
X206210564Y-104134026D01*
X206066688Y-104084692D01*
X205956624Y-104039390D01*
X205873386Y-103994310D01*
X205809993Y-103945645D01*
X205759461Y-103889585D01*
X205714806Y-103822324D01*
X205712890Y-103819087D01*
X205686155Y-103768531D01*
X205670309Y-103719053D01*
X205663429Y-103656952D01*
X205663589Y-103568528D01*
X205666601Y-103489478D01*
X205677209Y-103346526D01*
X205697352Y-103230808D01*
X205731237Y-103120671D01*
X205745392Y-103083767D01*
X205839829Y-102882651D01*
X205950958Y-102707793D01*
X206073692Y-102565397D01*
X206202942Y-102461669D01*
X206292823Y-102416055D01*
X206370037Y-102391904D01*
X206433847Y-102390438D01*
X206501826Y-102406707D01*
G37*
X206501826Y-102406707D02*
X206638833Y-102465268D01*
X206742560Y-102552460D01*
X206794330Y-102623171D01*
X206822404Y-102675326D01*
X206839575Y-102730598D01*
X206848361Y-102803050D01*
X206851279Y-102906746D01*
X206851388Y-102941939D01*
X206851404Y-103168941D01*
X206761978Y-103258399D01*
X206700174Y-103312853D01*
X206639435Y-103343387D01*
X206557706Y-103359913D01*
X206528387Y-103363344D01*
X206433658Y-103379987D01*
X206387454Y-103402929D01*
X206389935Y-103430014D01*
X206441263Y-103459087D01*
X206519458Y-103482786D01*
X206702866Y-103533449D01*
X206910923Y-103600203D01*
X207132362Y-103678657D01*
X207355916Y-103764421D01*
X207570321Y-103853104D01*
X207764309Y-103940315D01*
X207926614Y-104021664D01*
X207982478Y-104052941D01*
X208236217Y-104217293D01*
X208449899Y-104389667D01*
X208622136Y-104567977D01*
X208751542Y-104750133D01*
X208836728Y-104934047D01*
X208876306Y-105117632D01*
X208868890Y-105298800D01*
X208854047Y-105364475D01*
X208813470Y-105448250D01*
X208740498Y-105543440D01*
X208646361Y-105638762D01*
X208542290Y-105722931D01*
X208439514Y-105784664D01*
X208432670Y-105787848D01*
X208331617Y-105823870D01*
X208197327Y-105857994D01*
X208045733Y-105887348D01*
X207892764Y-105909061D01*
X207754353Y-105920263D01*
X207693827Y-105920990D01*
X207596266Y-105914562D01*
X207481035Y-105900895D01*
X207404647Y-105888572D01*
X207209876Y-105846024D01*
X207038084Y-105795821D01*
X206897219Y-105740753D01*
X206795229Y-105683616D01*
X206773850Y-105666877D01*
X206719461Y-105613718D01*
X206690565Y-105561855D01*
X206677061Y-105489877D01*
X206674054Y-105455330D01*
X206674109Y-105349401D01*
X206695651Y-105266648D01*
X206710963Y-105235267D01*
X206784852Y-105147984D01*
X206888210Y-105089725D01*
X207008179Y-105064485D01*
X207131896Y-105076260D01*
X207176045Y-105090797D01*
X207244251Y-105118380D01*
X207293998Y-105138694D01*
X207382403Y-105165507D01*
X207493600Y-105185095D01*
X207618440Y-105197531D01*
X207747769Y-105202888D01*
X207872437Y-105201240D01*
X207983291Y-105192660D01*
X208071181Y-105177220D01*
X208126954Y-105154994D01*
X208142304Y-105131917D01*
X208125400Y-105100875D01*
X208080954Y-105046850D01*
X208018361Y-104979321D01*
X207947018Y-104907767D01*
X207876323Y-104841668D01*
X207815672Y-104790504D01*
X207779812Y-104766233D01*
X207728199Y-104737461D01*
X207699710Y-104717601D01*
X207670796Y-104699422D01*
X207606454Y-104665757D01*
X207516190Y-104621106D01*
X207409509Y-104569968D01*
X207295916Y-104516842D01*
X207184918Y-104466227D01*
X207086018Y-104422624D01*
X207008830Y-104390572D01*
X206932172Y-104362722D01*
X206819444Y-104324670D01*
X206681771Y-104280033D01*
X206530281Y-104232424D01*
X206395233Y-104191200D01*
X206210564Y-104134026D01*
X206066688Y-104084692D01*
X205956624Y-104039390D01*
X205873386Y-103994310D01*
X205809993Y-103945645D01*
X205759461Y-103889585D01*
X205714806Y-103822324D01*
X205712890Y-103819087D01*
X205686155Y-103768531D01*
X205670309Y-103719053D01*
X205663429Y-103656952D01*
X205663589Y-103568528D01*
X205666601Y-103489478D01*
X205677209Y-103346526D01*
X205697352Y-103230808D01*
X205731237Y-103120671D01*
X205745392Y-103083767D01*
X205839829Y-102882651D01*
X205950958Y-102707793D01*
X206073692Y-102565397D01*
X206202942Y-102461669D01*
X206292823Y-102416055D01*
X206370037Y-102391904D01*
X206433847Y-102390438D01*
X206501826Y-102406707D01*
%TO.C,LOGO1*%
G36*
X200965802Y-94098516D02*
G01*
X201184321Y-94199260D01*
X201185297Y-94199755D01*
X201482667Y-94354566D01*
X201650121Y-94467596D01*
X201708800Y-94573580D01*
X201679846Y-94707251D01*
X201597689Y-94877286D01*
X201470204Y-95089618D01*
X201338981Y-95185320D01*
X201144565Y-95207666D01*
X201143798Y-95207666D01*
X200811145Y-95241402D01*
X200358540Y-95335263D01*
X199819695Y-95478233D01*
X199228320Y-95659296D01*
X198618127Y-95867435D01*
X198022827Y-96091634D01*
X197476133Y-96320875D01*
X197011755Y-96544142D01*
X196945250Y-96579716D01*
X196448908Y-96859733D01*
X196037839Y-97119086D01*
X195664708Y-97393008D01*
X195282179Y-97716734D01*
X194842918Y-98125496D01*
X194755020Y-98210006D01*
X194108250Y-98878649D01*
X193587285Y-99521615D01*
X193161522Y-100178110D01*
X193025231Y-100426124D01*
X192869876Y-100743174D01*
X192810839Y-100925002D01*
X192849264Y-100976444D01*
X192986296Y-100902336D01*
X193114083Y-100801493D01*
X193371652Y-100587118D01*
X193538682Y-100454534D01*
X193654221Y-100376535D01*
X193757318Y-100325914D01*
X193847544Y-100290470D01*
X194023791Y-100207475D01*
X194287514Y-100065239D01*
X194582498Y-99894116D01*
X194590620Y-99889228D01*
X194928838Y-99698349D01*
X195344539Y-99482026D01*
X195759250Y-99280786D01*
X195844583Y-99241646D01*
X196241036Y-99061233D01*
X196651462Y-98872875D01*
X197001239Y-98710855D01*
X197072250Y-98677644D01*
X197409583Y-98532095D01*
X197752950Y-98403805D01*
X197961250Y-98339235D01*
X198208036Y-98265685D01*
X198387178Y-98196664D01*
X198426917Y-98174084D01*
X198692668Y-98068751D01*
X198999146Y-98098018D01*
X199241263Y-98220721D01*
X199481995Y-98366276D01*
X199717953Y-98462090D01*
X199740329Y-98467570D01*
X199890598Y-98512668D01*
X199935803Y-98593154D01*
X199898708Y-98765449D01*
X199882318Y-98819471D01*
X199842129Y-98943305D01*
X199793544Y-99044271D01*
X199713985Y-99141936D01*
X199580874Y-99255866D01*
X199371637Y-99405626D01*
X199063694Y-99610782D01*
X198680917Y-99860637D01*
X197665437Y-100594752D01*
X196758782Y-101409501D01*
X195935305Y-102331413D01*
X195169360Y-103387017D01*
X194965835Y-103703581D01*
X194607328Y-104340065D01*
X194277667Y-105048884D01*
X193988978Y-105793074D01*
X193753388Y-106535673D01*
X193583022Y-107239715D01*
X193490007Y-107868238D01*
X193477334Y-108240888D01*
X193487469Y-108635580D01*
X193486797Y-108898035D01*
X193471423Y-109065207D01*
X193437454Y-109174051D01*
X193380999Y-109261521D01*
X193368083Y-109277929D01*
X193213929Y-109368410D01*
X193045639Y-109348106D01*
X192755205Y-109239971D01*
X192504104Y-109104786D01*
X192354450Y-108976075D01*
X192353380Y-108974492D01*
X192311245Y-108816427D01*
X192292409Y-108532177D01*
X192295589Y-108163093D01*
X192319507Y-107750531D01*
X192362883Y-107335843D01*
X192414104Y-107012524D01*
X192698608Y-105882213D01*
X193116186Y-104725397D01*
X193645781Y-103585693D01*
X194266336Y-102506718D01*
X194956791Y-101532088D01*
X195206186Y-101229370D01*
X195412489Y-100981601D01*
X195531758Y-100815470D01*
X195556166Y-100733217D01*
X195477886Y-100737083D01*
X195289088Y-100829308D01*
X194981946Y-101012132D01*
X194548631Y-101287795D01*
X194193583Y-101519149D01*
X193775829Y-101801401D01*
X193347415Y-102105259D01*
X192961606Y-102392172D01*
X192696351Y-102602769D01*
X192416152Y-102845057D01*
X192241210Y-103025912D01*
X192141935Y-103186322D01*
X192088735Y-103367271D01*
X192071695Y-103467975D01*
X192059834Y-103683549D01*
X192063979Y-104025735D01*
X192081469Y-104452845D01*
X192109647Y-104923188D01*
X192145851Y-105395075D01*
X192187422Y-105826817D01*
X192231701Y-106176725D01*
X192252299Y-106299000D01*
X192267756Y-106453748D01*
X192226683Y-106578927D01*
X192102314Y-106714398D01*
X191867888Y-106900023D01*
X191829466Y-106928773D01*
X191497349Y-107176582D01*
X191215633Y-106850685D01*
X191053073Y-106642179D01*
X190951292Y-106472279D01*
X190933917Y-106413945D01*
X190906153Y-106253469D01*
X190829877Y-105965990D01*
X190715614Y-105583214D01*
X190573888Y-105136845D01*
X190415221Y-104658590D01*
X190250140Y-104180154D01*
X190089166Y-103733243D01*
X189942825Y-103349563D01*
X189821640Y-103060819D01*
X189819012Y-103055065D01*
X189677972Y-102731428D01*
X189576342Y-102467340D01*
X189527143Y-102298524D01*
X189528339Y-102257689D01*
X189635311Y-102222434D01*
X189854394Y-102187266D01*
X190027174Y-102169453D01*
X190392533Y-102181285D01*
X190621392Y-102290237D01*
X190717349Y-102498317D01*
X190720974Y-102556686D01*
X190773745Y-102689947D01*
X190814954Y-102717224D01*
X190880912Y-102656742D01*
X190972121Y-102464940D01*
X191073567Y-102174974D01*
X191099209Y-102089512D01*
X191292599Y-101484075D01*
X191523149Y-100856993D01*
X191770546Y-100258192D01*
X192014475Y-99737597D01*
X192179835Y-99433691D01*
X192439967Y-99047889D01*
X192796821Y-98589937D01*
X193217396Y-98096525D01*
X193668688Y-97604340D01*
X194117698Y-97150070D01*
X194531421Y-96770403D01*
X194701583Y-96630294D01*
X195166495Y-96302597D01*
X195782611Y-95929469D01*
X196539793Y-95516887D01*
X196928442Y-95317630D01*
X197644242Y-94966282D01*
X198252381Y-94691308D01*
X198788926Y-94479553D01*
X199289946Y-94317863D01*
X199791509Y-94193081D01*
X200253963Y-94104719D01*
X200567565Y-94058076D01*
X200782530Y-94053731D01*
X200965802Y-94098516D01*
G37*
X200965802Y-94098516D02*
X201184321Y-94199260D01*
X201185297Y-94199755D01*
X201482667Y-94354566D01*
X201650121Y-94467596D01*
X201708800Y-94573580D01*
X201679846Y-94707251D01*
X201597689Y-94877286D01*
X201470204Y-95089618D01*
X201338981Y-95185320D01*
X201144565Y-95207666D01*
X201143798Y-95207666D01*
X200811145Y-95241402D01*
X200358540Y-95335263D01*
X199819695Y-95478233D01*
X199228320Y-95659296D01*
X198618127Y-95867435D01*
X198022827Y-96091634D01*
X197476133Y-96320875D01*
X197011755Y-96544142D01*
X196945250Y-96579716D01*
X196448908Y-96859733D01*
X196037839Y-97119086D01*
X195664708Y-97393008D01*
X195282179Y-97716734D01*
X194842918Y-98125496D01*
X194755020Y-98210006D01*
X194108250Y-98878649D01*
X193587285Y-99521615D01*
X193161522Y-100178110D01*
X193025231Y-100426124D01*
X192869876Y-100743174D01*
X192810839Y-100925002D01*
X192849264Y-100976444D01*
X192986296Y-100902336D01*
X193114083Y-100801493D01*
X193371652Y-100587118D01*
X193538682Y-100454534D01*
X193654221Y-100376535D01*
X193757318Y-100325914D01*
X193847544Y-100290470D01*
X194023791Y-100207475D01*
X194287514Y-100065239D01*
X194582498Y-99894116D01*
X194590620Y-99889228D01*
X194928838Y-99698349D01*
X195344539Y-99482026D01*
X195759250Y-99280786D01*
X195844583Y-99241646D01*
X196241036Y-99061233D01*
X196651462Y-98872875D01*
X197001239Y-98710855D01*
X197072250Y-98677644D01*
X197409583Y-98532095D01*
X197752950Y-98403805D01*
X197961250Y-98339235D01*
X198208036Y-98265685D01*
X198387178Y-98196664D01*
X198426917Y-98174084D01*
X198692668Y-98068751D01*
X198999146Y-98098018D01*
X199241263Y-98220721D01*
X199481995Y-98366276D01*
X199717953Y-98462090D01*
X199740329Y-98467570D01*
X199890598Y-98512668D01*
X199935803Y-98593154D01*
X199898708Y-98765449D01*
X199882318Y-98819471D01*
X199842129Y-98943305D01*
X199793544Y-99044271D01*
X199713985Y-99141936D01*
X199580874Y-99255866D01*
X199371637Y-99405626D01*
X199063694Y-99610782D01*
X198680917Y-99860637D01*
X197665437Y-100594752D01*
X196758782Y-101409501D01*
X195935305Y-102331413D01*
X195169360Y-103387017D01*
X194965835Y-103703581D01*
X194607328Y-104340065D01*
X194277667Y-105048884D01*
X193988978Y-105793074D01*
X193753388Y-106535673D01*
X193583022Y-107239715D01*
X193490007Y-107868238D01*
X193477334Y-108240888D01*
X193487469Y-108635580D01*
X193486797Y-108898035D01*
X193471423Y-109065207D01*
X193437454Y-109174051D01*
X193380999Y-109261521D01*
X193368083Y-109277929D01*
X193213929Y-109368410D01*
X193045639Y-109348106D01*
X192755205Y-109239971D01*
X192504104Y-109104786D01*
X192354450Y-108976075D01*
X192353380Y-108974492D01*
X192311245Y-108816427D01*
X192292409Y-108532177D01*
X192295589Y-108163093D01*
X192319507Y-107750531D01*
X192362883Y-107335843D01*
X192414104Y-107012524D01*
X192698608Y-105882213D01*
X193116186Y-104725397D01*
X193645781Y-103585693D01*
X194266336Y-102506718D01*
X194956791Y-101532088D01*
X195206186Y-101229370D01*
X195412489Y-100981601D01*
X195531758Y-100815470D01*
X195556166Y-100733217D01*
X195477886Y-100737083D01*
X195289088Y-100829308D01*
X194981946Y-101012132D01*
X194548631Y-101287795D01*
X194193583Y-101519149D01*
X193775829Y-101801401D01*
X193347415Y-102105259D01*
X192961606Y-102392172D01*
X192696351Y-102602769D01*
X192416152Y-102845057D01*
X192241210Y-103025912D01*
X192141935Y-103186322D01*
X192088735Y-103367271D01*
X192071695Y-103467975D01*
X192059834Y-103683549D01*
X192063979Y-104025735D01*
X192081469Y-104452845D01*
X192109647Y-104923188D01*
X192145851Y-105395075D01*
X192187422Y-105826817D01*
X192231701Y-106176725D01*
X192252299Y-106299000D01*
X192267756Y-106453748D01*
X192226683Y-106578927D01*
X192102314Y-106714398D01*
X191867888Y-106900023D01*
X191829466Y-106928773D01*
X191497349Y-107176582D01*
X191215633Y-106850685D01*
X191053073Y-106642179D01*
X190951292Y-106472279D01*
X190933917Y-106413945D01*
X190906153Y-106253469D01*
X190829877Y-105965990D01*
X190715614Y-105583214D01*
X190573888Y-105136845D01*
X190415221Y-104658590D01*
X190250140Y-104180154D01*
X190089166Y-103733243D01*
X189942825Y-103349563D01*
X189821640Y-103060819D01*
X189819012Y-103055065D01*
X189677972Y-102731428D01*
X189576342Y-102467340D01*
X189527143Y-102298524D01*
X189528339Y-102257689D01*
X189635311Y-102222434D01*
X189854394Y-102187266D01*
X190027174Y-102169453D01*
X190392533Y-102181285D01*
X190621392Y-102290237D01*
X190717349Y-102498317D01*
X190720974Y-102556686D01*
X190773745Y-102689947D01*
X190814954Y-102717224D01*
X190880912Y-102656742D01*
X190972121Y-102464940D01*
X191073567Y-102174974D01*
X191099209Y-102089512D01*
X191292599Y-101484075D01*
X191523149Y-100856993D01*
X191770546Y-100258192D01*
X192014475Y-99737597D01*
X192179835Y-99433691D01*
X192439967Y-99047889D01*
X192796821Y-98589937D01*
X193217396Y-98096525D01*
X193668688Y-97604340D01*
X194117698Y-97150070D01*
X194531421Y-96770403D01*
X194701583Y-96630294D01*
X195166495Y-96302597D01*
X195782611Y-95929469D01*
X196539793Y-95516887D01*
X196928442Y-95317630D01*
X197644242Y-94966282D01*
X198252381Y-94691308D01*
X198788926Y-94479553D01*
X199289946Y-94317863D01*
X199791509Y-94193081D01*
X200253963Y-94104719D01*
X200567565Y-94058076D01*
X200782530Y-94053731D01*
X200965802Y-94098516D01*
D13*
%TO.C,ENC1*%
X338700350Y-65908550D02*
X337700350Y-65908550D01*
X338200350Y-66408550D02*
X338200350Y-65408550D01*
X332100350Y-62408550D02*
X332100350Y-60008550D01*
X332100350Y-67208550D02*
X332100350Y-64608550D01*
X332100350Y-71808550D02*
X332100350Y-69408550D01*
X345400350Y-70008550D02*
X345700350Y-69708550D01*
X346000350Y-70008550D02*
X345400350Y-70008550D01*
X345700350Y-69708550D02*
X346000350Y-70008550D01*
X344300350Y-71808550D02*
X344300350Y-60008550D01*
X340200350Y-71808550D02*
X344300350Y-71808550D01*
X340200350Y-60008550D02*
X344300350Y-60008550D01*
X332100350Y-60008550D02*
X336200350Y-60008550D01*
X336200350Y-71808550D02*
X332100350Y-71808550D01*
X341200350Y-65908550D02*
G75*
G03*
X341200350Y-65908550I-3000000J0D01*
G01*
D10*
%TO.C,OL1*%
X343789000Y-54483000D02*
X343789000Y-57023000D01*
X333629000Y-57023000D02*
X333629000Y-54483000D01*
X343789000Y-57023000D02*
X333629000Y-57023000D01*
X343789000Y-54483000D02*
X333629000Y-54483000D01*
%TO.C,ENC1*%
X341186064Y-73037121D02*
X341519397Y-73037121D01*
X341662254Y-73560930D02*
X341186064Y-73560930D01*
X341186064Y-72560930D01*
X341662254Y-72560930D01*
X342090826Y-73560930D02*
X342090826Y-72560930D01*
X342662254Y-73560930D01*
X342662254Y-72560930D01*
X343709873Y-73465692D02*
X343662254Y-73513311D01*
X343519397Y-73560930D01*
X343424159Y-73560930D01*
X343281302Y-73513311D01*
X343186064Y-73418073D01*
X343138445Y-73322835D01*
X343090826Y-73132359D01*
X343090826Y-72989502D01*
X343138445Y-72799026D01*
X343186064Y-72703788D01*
X343281302Y-72608550D01*
X343424159Y-72560930D01*
X343519397Y-72560930D01*
X343662254Y-72608550D01*
X343709873Y-72656169D01*
X344662254Y-73560930D02*
X344090826Y-73560930D01*
X344376540Y-73560930D02*
X344376540Y-72560930D01*
X344281302Y-72703788D01*
X344186064Y-72799026D01*
X344090826Y-72846645D01*
%TO.C,OL1*%
X337266619Y-57305380D02*
X337457095Y-57305380D01*
X337552333Y-57353000D01*
X337647571Y-57448238D01*
X337695190Y-57638714D01*
X337695190Y-57972047D01*
X337647571Y-58162523D01*
X337552333Y-58257761D01*
X337457095Y-58305380D01*
X337266619Y-58305380D01*
X337171380Y-58257761D01*
X337076142Y-58162523D01*
X337028523Y-57972047D01*
X337028523Y-57638714D01*
X337076142Y-57448238D01*
X337171380Y-57353000D01*
X337266619Y-57305380D01*
X338599952Y-58305380D02*
X338123761Y-58305380D01*
X338123761Y-57305380D01*
X338933285Y-57781571D02*
X339266619Y-57781571D01*
X339409476Y-58305380D02*
X338933285Y-58305380D01*
X338933285Y-57305380D01*
X339409476Y-57305380D01*
X339838047Y-58305380D02*
X339838047Y-57305380D01*
X340076142Y-57305380D01*
X340219000Y-57353000D01*
X340314238Y-57448238D01*
X340361857Y-57543476D01*
X340409476Y-57733952D01*
X340409476Y-57876809D01*
X340361857Y-58067285D01*
X340314238Y-58162523D01*
X340219000Y-58257761D01*
X340076142Y-58305380D01*
X339838047Y-58305380D01*
%TD*%
M02*
