%TF.GenerationSoftware,KiCad,Pcbnew,(5.1.9)-1*%
%TF.CreationDate,2021-05-06T09:00:53-07:00*%
%TF.ProjectId,USKB Final,55534b42-2046-4696-9e61-6c2e6b696361,rev?*%
%TF.SameCoordinates,Original*%
%TF.FileFunction,Other,Fab,Top*%
%FSLAX46Y46*%
G04 Gerber Fmt 4.6, Leading zero omitted, Abs format (unit mm)*
G04 Created by KiCad (PCBNEW (5.1.9)-1) date 2021-05-06 09:00:53*
%MOMM*%
%LPD*%
G01*
G04 APERTURE LIST*
%TA.AperFunction,Profile*%
%ADD10C,0.050000*%
%TD*%
%ADD11C,0.120000*%
%ADD12C,0.150000*%
G04 APERTURE END LIST*
D10*
X19050000Y-25400000D02*
X400050000Y-25400000D01*
X19050000Y-127000000D02*
X19843750Y-127000000D01*
X19050000Y-127000000D02*
G75*
G02*
X16668750Y-124618750I0J2381250D01*
G01*
X16668750Y-27781250D02*
X16668750Y-124618750D01*
X16668750Y-27781250D02*
G75*
G02*
X19050000Y-25400000I2381250J0D01*
G01*
X400050000Y-127000000D02*
X19843750Y-127000000D01*
X402431250Y-124618750D02*
G75*
G02*
X400050000Y-127000000I-2381250J0D01*
G01*
X402431250Y-27781250D02*
X402431250Y-124618750D01*
X400050000Y-25400000D02*
G75*
G02*
X402431250Y-27781250I0J-2381250D01*
G01*
D11*
%TO.C,ENC1*%
X363687750Y-36631250D02*
X369687750Y-36631250D01*
X366687750Y-33631250D02*
X366687750Y-39631250D01*
X360687750Y-31931250D02*
X361687750Y-30831250D01*
X360687750Y-42431250D02*
X360687750Y-31931250D01*
X372687750Y-42431250D02*
X360687750Y-42431250D01*
X372687750Y-30831250D02*
X372687750Y-42431250D01*
X361687750Y-30831250D02*
X372687750Y-30831250D01*
X369687750Y-36631250D02*
G75*
G03*
X369687750Y-36631250I-3000000J0D01*
G01*
D12*
%TO.C,U1*%
X395078750Y-26943750D02*
X400218750Y-26943750D01*
X387568750Y-26943750D02*
X395068750Y-26943750D01*
X387568750Y-25643750D02*
X387568750Y-26944711D01*
X395068750Y-25643750D02*
X395068750Y-26943750D01*
X387568750Y-25643750D02*
X395068750Y-25643750D01*
X382418750Y-26943750D02*
X387568750Y-26943750D01*
X400218750Y-26943750D02*
X400218750Y-59993750D01*
X400218750Y-59993750D02*
X382418750Y-59993750D01*
X382418750Y-59993750D02*
X382418750Y-26943750D01*
%TO.C,L_U1*%
X31541250Y-26943750D02*
X36681250Y-26943750D01*
X24031250Y-26943750D02*
X31531250Y-26943750D01*
X24031250Y-25643750D02*
X24031250Y-26944711D01*
X31531250Y-25643750D02*
X31531250Y-26943750D01*
X24031250Y-25643750D02*
X31531250Y-25643750D01*
X18881250Y-26943750D02*
X24031250Y-26943750D01*
X36681250Y-26943750D02*
X36681250Y-59993750D01*
X36681250Y-59993750D02*
X18881250Y-59993750D01*
X18881250Y-59993750D02*
X18881250Y-26943750D01*
%TO.C,L_SW1*%
X23581250Y-111700000D02*
X31981250Y-111700000D01*
X31981250Y-111700000D02*
X31981250Y-113100000D01*
X31981250Y-113200000D02*
X30381250Y-113200000D01*
X30381250Y-113200000D02*
X30381250Y-115400000D01*
X30381250Y-115400000D02*
X31981250Y-115400000D01*
X31981250Y-115400000D02*
X31981250Y-116900000D01*
X31981250Y-116900000D02*
X23581250Y-116900000D01*
X23581250Y-116900000D02*
X23581250Y-115400000D01*
X23581250Y-115400000D02*
X25181250Y-115400000D01*
X25181250Y-115400000D02*
X25181250Y-113200000D01*
X25181250Y-113200000D02*
X23581250Y-113200000D01*
X23581250Y-113200000D02*
X23581250Y-111700000D01*
X28781250Y-114300000D02*
G75*
G03*
X28781250Y-114300000I-1000000J0D01*
G01*
X25181250Y-113200000D02*
X26681250Y-111700000D01*
X30381250Y-113200000D02*
X28881250Y-111700000D01*
X30381250Y-115400000D02*
X28881250Y-116900000D01*
X25181250Y-115400000D02*
X26681250Y-116900000D01*
%TO.C,SW1*%
X387118750Y-111700000D02*
X395518750Y-111700000D01*
X395518750Y-111700000D02*
X395518750Y-113100000D01*
X395518750Y-113200000D02*
X393918750Y-113200000D01*
X393918750Y-113200000D02*
X393918750Y-115400000D01*
X393918750Y-115400000D02*
X395518750Y-115400000D01*
X395518750Y-115400000D02*
X395518750Y-116900000D01*
X395518750Y-116900000D02*
X387118750Y-116900000D01*
X387118750Y-116900000D02*
X387118750Y-115400000D01*
X387118750Y-115400000D02*
X388718750Y-115400000D01*
X388718750Y-115400000D02*
X388718750Y-113200000D01*
X388718750Y-113200000D02*
X387118750Y-113200000D01*
X387118750Y-113200000D02*
X387118750Y-111700000D01*
X392318750Y-114300000D02*
G75*
G03*
X392318750Y-114300000I-1000000J0D01*
G01*
X388718750Y-113200000D02*
X390218750Y-111700000D01*
X393918750Y-113200000D02*
X392418750Y-111700000D01*
X393918750Y-115400000D02*
X392418750Y-116900000D01*
X388718750Y-115400000D02*
X390218750Y-116900000D01*
D11*
%TO.C,L_ENC1*%
X49331000Y-36536000D02*
X55331000Y-36536000D01*
X52331000Y-33536000D02*
X52331000Y-39536000D01*
X46331000Y-31836000D02*
X47331000Y-30736000D01*
X46331000Y-42336000D02*
X46331000Y-31836000D01*
X58331000Y-42336000D02*
X46331000Y-42336000D01*
X58331000Y-30736000D02*
X58331000Y-42336000D01*
X47331000Y-30736000D02*
X58331000Y-30736000D01*
X55331000Y-36536000D02*
G75*
G03*
X55331000Y-36536000I-3000000J0D01*
G01*
%TD*%
%TO.C,ENC1*%
D12*
X358973464Y-44983630D02*
X358640130Y-44507440D01*
X358402035Y-44983630D02*
X358402035Y-43983630D01*
X358782988Y-43983630D01*
X358878226Y-44031250D01*
X358925845Y-44078869D01*
X358973464Y-44174107D01*
X358973464Y-44316964D01*
X358925845Y-44412202D01*
X358878226Y-44459821D01*
X358782988Y-44507440D01*
X358402035Y-44507440D01*
X359544892Y-44983630D02*
X359449654Y-44936011D01*
X359402035Y-44888392D01*
X359354416Y-44793154D01*
X359354416Y-44507440D01*
X359402035Y-44412202D01*
X359449654Y-44364583D01*
X359544892Y-44316964D01*
X359687750Y-44316964D01*
X359782988Y-44364583D01*
X359830607Y-44412202D01*
X359878226Y-44507440D01*
X359878226Y-44793154D01*
X359830607Y-44888392D01*
X359782988Y-44936011D01*
X359687750Y-44983630D01*
X359544892Y-44983630D01*
X360163940Y-44316964D02*
X360544892Y-44316964D01*
X360306797Y-43983630D02*
X360306797Y-44840773D01*
X360354416Y-44936011D01*
X360449654Y-44983630D01*
X360544892Y-44983630D01*
X361306797Y-44983630D02*
X361306797Y-44459821D01*
X361259178Y-44364583D01*
X361163940Y-44316964D01*
X360973464Y-44316964D01*
X360878226Y-44364583D01*
X361306797Y-44936011D02*
X361211559Y-44983630D01*
X360973464Y-44983630D01*
X360878226Y-44936011D01*
X360830607Y-44840773D01*
X360830607Y-44745535D01*
X360878226Y-44650297D01*
X360973464Y-44602678D01*
X361211559Y-44602678D01*
X361306797Y-44555059D01*
X361782988Y-44983630D02*
X361782988Y-44316964D01*
X361782988Y-44507440D02*
X361830607Y-44412202D01*
X361878226Y-44364583D01*
X361973464Y-44316964D01*
X362068702Y-44316964D01*
X362306797Y-44316964D02*
X362544892Y-44983630D01*
X362782988Y-44316964D02*
X362544892Y-44983630D01*
X362449654Y-45221726D01*
X362402035Y-45269345D01*
X362306797Y-45316964D01*
X362925845Y-45078869D02*
X363687750Y-45078869D01*
X363925845Y-44459821D02*
X364259178Y-44459821D01*
X364402035Y-44983630D02*
X363925845Y-44983630D01*
X363925845Y-43983630D01*
X364402035Y-43983630D01*
X364830607Y-44316964D02*
X364830607Y-44983630D01*
X364830607Y-44412202D02*
X364878226Y-44364583D01*
X364973464Y-44316964D01*
X365116321Y-44316964D01*
X365211559Y-44364583D01*
X365259178Y-44459821D01*
X365259178Y-44983630D01*
X366163940Y-44936011D02*
X366068702Y-44983630D01*
X365878226Y-44983630D01*
X365782988Y-44936011D01*
X365735369Y-44888392D01*
X365687750Y-44793154D01*
X365687750Y-44507440D01*
X365735369Y-44412202D01*
X365782988Y-44364583D01*
X365878226Y-44316964D01*
X366068702Y-44316964D01*
X366163940Y-44364583D01*
X366735369Y-44983630D02*
X366640130Y-44936011D01*
X366592511Y-44888392D01*
X366544892Y-44793154D01*
X366544892Y-44507440D01*
X366592511Y-44412202D01*
X366640130Y-44364583D01*
X366735369Y-44316964D01*
X366878226Y-44316964D01*
X366973464Y-44364583D01*
X367021083Y-44412202D01*
X367068702Y-44507440D01*
X367068702Y-44793154D01*
X367021083Y-44888392D01*
X366973464Y-44936011D01*
X366878226Y-44983630D01*
X366735369Y-44983630D01*
X367925845Y-44983630D02*
X367925845Y-43983630D01*
X367925845Y-44936011D02*
X367830607Y-44983630D01*
X367640130Y-44983630D01*
X367544892Y-44936011D01*
X367497273Y-44888392D01*
X367449654Y-44793154D01*
X367449654Y-44507440D01*
X367497273Y-44412202D01*
X367544892Y-44364583D01*
X367640130Y-44316964D01*
X367830607Y-44316964D01*
X367925845Y-44364583D01*
X368782988Y-44936011D02*
X368687750Y-44983630D01*
X368497273Y-44983630D01*
X368402035Y-44936011D01*
X368354416Y-44840773D01*
X368354416Y-44459821D01*
X368402035Y-44364583D01*
X368497273Y-44316964D01*
X368687750Y-44316964D01*
X368782988Y-44364583D01*
X368830607Y-44459821D01*
X368830607Y-44555059D01*
X368354416Y-44650297D01*
X369259178Y-44983630D02*
X369259178Y-44316964D01*
X369259178Y-44507440D02*
X369306797Y-44412202D01*
X369354416Y-44364583D01*
X369449654Y-44316964D01*
X369544892Y-44316964D01*
X369640130Y-45078869D02*
X370402035Y-45078869D01*
X370592511Y-44936011D02*
X370735369Y-44983630D01*
X370973464Y-44983630D01*
X371068702Y-44936011D01*
X371116321Y-44888392D01*
X371163940Y-44793154D01*
X371163940Y-44697916D01*
X371116321Y-44602678D01*
X371068702Y-44555059D01*
X370973464Y-44507440D01*
X370782988Y-44459821D01*
X370687750Y-44412202D01*
X370640130Y-44364583D01*
X370592511Y-44269345D01*
X370592511Y-44174107D01*
X370640130Y-44078869D01*
X370687750Y-44031250D01*
X370782988Y-43983630D01*
X371021083Y-43983630D01*
X371163940Y-44031250D01*
X371497273Y-44316964D02*
X371687750Y-44983630D01*
X371878226Y-44507440D01*
X372068702Y-44983630D01*
X372259178Y-44316964D01*
X372640130Y-44983630D02*
X372640130Y-44316964D01*
X372640130Y-43983630D02*
X372592511Y-44031250D01*
X372640130Y-44078869D01*
X372687749Y-44031250D01*
X372640130Y-43983630D01*
X372640130Y-44078869D01*
X372973464Y-44316964D02*
X373354416Y-44316964D01*
X373116321Y-43983630D02*
X373116321Y-44840773D01*
X373163940Y-44936011D01*
X373259178Y-44983630D01*
X373354416Y-44983630D01*
X374116321Y-44936011D02*
X374021083Y-44983630D01*
X373830607Y-44983630D01*
X373735369Y-44936011D01*
X373687749Y-44888392D01*
X373640130Y-44793154D01*
X373640130Y-44507440D01*
X373687749Y-44412202D01*
X373735369Y-44364583D01*
X373830607Y-44316964D01*
X374021083Y-44316964D01*
X374116321Y-44364583D01*
X374544892Y-44983630D02*
X374544892Y-43983630D01*
X374973464Y-44983630D02*
X374973464Y-44459821D01*
X374925845Y-44364583D01*
X374830607Y-44316964D01*
X374687749Y-44316964D01*
X374592511Y-44364583D01*
X374544892Y-44412202D01*
X368573464Y-40359821D02*
X368906797Y-40359821D01*
X369049654Y-40883630D02*
X368573464Y-40883630D01*
X368573464Y-39883630D01*
X369049654Y-39883630D01*
X369478226Y-40883630D02*
X369478226Y-39883630D01*
X370049654Y-40883630D01*
X370049654Y-39883630D01*
X371097273Y-40788392D02*
X371049654Y-40836011D01*
X370906797Y-40883630D01*
X370811559Y-40883630D01*
X370668702Y-40836011D01*
X370573464Y-40740773D01*
X370525845Y-40645535D01*
X370478226Y-40455059D01*
X370478226Y-40312202D01*
X370525845Y-40121726D01*
X370573464Y-40026488D01*
X370668702Y-39931250D01*
X370811559Y-39883630D01*
X370906797Y-39883630D01*
X371049654Y-39931250D01*
X371097273Y-39978869D01*
X372049654Y-40883630D02*
X371478226Y-40883630D01*
X371763940Y-40883630D02*
X371763940Y-39883630D01*
X371668702Y-40026488D01*
X371573464Y-40121726D01*
X371478226Y-40169345D01*
%TO.C,U1*%
X391671130Y-48317559D02*
X390671130Y-48317559D01*
X390671130Y-47936607D01*
X390718750Y-47841369D01*
X390766369Y-47793750D01*
X390861607Y-47746130D01*
X391004464Y-47746130D01*
X391099702Y-47793750D01*
X391147321Y-47841369D01*
X391194940Y-47936607D01*
X391194940Y-48317559D01*
X391671130Y-47317559D02*
X391004464Y-47317559D01*
X391194940Y-47317559D02*
X391099702Y-47269940D01*
X391052083Y-47222321D01*
X391004464Y-47127083D01*
X391004464Y-47031845D01*
X391671130Y-46555654D02*
X391623511Y-46650892D01*
X391575892Y-46698511D01*
X391480654Y-46746130D01*
X391194940Y-46746130D01*
X391099702Y-46698511D01*
X391052083Y-46650892D01*
X391004464Y-46555654D01*
X391004464Y-46412797D01*
X391052083Y-46317559D01*
X391099702Y-46269940D01*
X391194940Y-46222321D01*
X391480654Y-46222321D01*
X391575892Y-46269940D01*
X391623511Y-46317559D01*
X391671130Y-46412797D01*
X391671130Y-46555654D01*
X391671130Y-45793750D02*
X390671130Y-45793750D01*
X391385416Y-45460416D01*
X390671130Y-45127083D01*
X391671130Y-45127083D01*
X391671130Y-44650892D02*
X391004464Y-44650892D01*
X390671130Y-44650892D02*
X390718750Y-44698511D01*
X390766369Y-44650892D01*
X390718750Y-44603273D01*
X390671130Y-44650892D01*
X390766369Y-44650892D01*
X391623511Y-43746130D02*
X391671130Y-43841369D01*
X391671130Y-44031845D01*
X391623511Y-44127083D01*
X391575892Y-44174702D01*
X391480654Y-44222321D01*
X391194940Y-44222321D01*
X391099702Y-44174702D01*
X391052083Y-44127083D01*
X391004464Y-44031845D01*
X391004464Y-43841369D01*
X391052083Y-43746130D01*
X391671130Y-43317559D02*
X391004464Y-43317559D01*
X391194940Y-43317559D02*
X391099702Y-43269940D01*
X391052083Y-43222321D01*
X391004464Y-43127083D01*
X391004464Y-43031845D01*
X391671130Y-42555654D02*
X391623511Y-42650892D01*
X391575892Y-42698511D01*
X391480654Y-42746130D01*
X391194940Y-42746130D01*
X391099702Y-42698511D01*
X391052083Y-42650892D01*
X391004464Y-42555654D01*
X391004464Y-42412797D01*
X391052083Y-42317559D01*
X391099702Y-42269940D01*
X391194940Y-42222321D01*
X391480654Y-42222321D01*
X391575892Y-42269940D01*
X391623511Y-42317559D01*
X391671130Y-42412797D01*
X391671130Y-42555654D01*
%TO.C,L_U1*%
X29149630Y-48317559D02*
X28149630Y-48317559D01*
X28149630Y-47936607D01*
X28197250Y-47841369D01*
X28244869Y-47793750D01*
X28340107Y-47746130D01*
X28482964Y-47746130D01*
X28578202Y-47793750D01*
X28625821Y-47841369D01*
X28673440Y-47936607D01*
X28673440Y-48317559D01*
X29149630Y-47317559D02*
X28482964Y-47317559D01*
X28673440Y-47317559D02*
X28578202Y-47269940D01*
X28530583Y-47222321D01*
X28482964Y-47127083D01*
X28482964Y-47031845D01*
X29149630Y-46555654D02*
X29102011Y-46650892D01*
X29054392Y-46698511D01*
X28959154Y-46746130D01*
X28673440Y-46746130D01*
X28578202Y-46698511D01*
X28530583Y-46650892D01*
X28482964Y-46555654D01*
X28482964Y-46412797D01*
X28530583Y-46317559D01*
X28578202Y-46269940D01*
X28673440Y-46222321D01*
X28959154Y-46222321D01*
X29054392Y-46269940D01*
X29102011Y-46317559D01*
X29149630Y-46412797D01*
X29149630Y-46555654D01*
X29149630Y-45793750D02*
X28149630Y-45793750D01*
X28863916Y-45460416D01*
X28149630Y-45127083D01*
X29149630Y-45127083D01*
X29149630Y-44650892D02*
X28482964Y-44650892D01*
X28149630Y-44650892D02*
X28197250Y-44698511D01*
X28244869Y-44650892D01*
X28197250Y-44603273D01*
X28149630Y-44650892D01*
X28244869Y-44650892D01*
X29102011Y-43746130D02*
X29149630Y-43841369D01*
X29149630Y-44031845D01*
X29102011Y-44127083D01*
X29054392Y-44174702D01*
X28959154Y-44222321D01*
X28673440Y-44222321D01*
X28578202Y-44174702D01*
X28530583Y-44127083D01*
X28482964Y-44031845D01*
X28482964Y-43841369D01*
X28530583Y-43746130D01*
X29149630Y-43317559D02*
X28482964Y-43317559D01*
X28673440Y-43317559D02*
X28578202Y-43269940D01*
X28530583Y-43222321D01*
X28482964Y-43127083D01*
X28482964Y-43031845D01*
X29149630Y-42555654D02*
X29102011Y-42650892D01*
X29054392Y-42698511D01*
X28959154Y-42746130D01*
X28673440Y-42746130D01*
X28578202Y-42698511D01*
X28530583Y-42650892D01*
X28482964Y-42555654D01*
X28482964Y-42412797D01*
X28530583Y-42317559D01*
X28578202Y-42269940D01*
X28673440Y-42222321D01*
X28959154Y-42222321D01*
X29054392Y-42269940D01*
X29102011Y-42317559D01*
X29149630Y-42412797D01*
X29149630Y-42555654D01*
%TO.C,L_SW1*%
X24519345Y-110640761D02*
X24662202Y-110688380D01*
X24900297Y-110688380D01*
X24995535Y-110640761D01*
X25043154Y-110593142D01*
X25090773Y-110497904D01*
X25090773Y-110402666D01*
X25043154Y-110307428D01*
X24995535Y-110259809D01*
X24900297Y-110212190D01*
X24709821Y-110164571D01*
X24614583Y-110116952D01*
X24566964Y-110069333D01*
X24519345Y-109974095D01*
X24519345Y-109878857D01*
X24566964Y-109783619D01*
X24614583Y-109736000D01*
X24709821Y-109688380D01*
X24947916Y-109688380D01*
X25090773Y-109736000D01*
X25424107Y-109688380D02*
X25662202Y-110688380D01*
X25852678Y-109974095D01*
X26043154Y-110688380D01*
X26281250Y-109688380D01*
X26424107Y-110783619D02*
X27186011Y-110783619D01*
X27424107Y-110688380D02*
X27424107Y-109688380D01*
X27805059Y-109688380D01*
X27900297Y-109736000D01*
X27947916Y-109783619D01*
X27995535Y-109878857D01*
X27995535Y-110021714D01*
X27947916Y-110116952D01*
X27900297Y-110164571D01*
X27805059Y-110212190D01*
X27424107Y-110212190D01*
X28424107Y-109688380D02*
X28424107Y-110497904D01*
X28471726Y-110593142D01*
X28519345Y-110640761D01*
X28614583Y-110688380D01*
X28805059Y-110688380D01*
X28900297Y-110640761D01*
X28947916Y-110593142D01*
X28995535Y-110497904D01*
X28995535Y-109688380D01*
X29424107Y-110640761D02*
X29566964Y-110688380D01*
X29805059Y-110688380D01*
X29900297Y-110640761D01*
X29947916Y-110593142D01*
X29995535Y-110497904D01*
X29995535Y-110402666D01*
X29947916Y-110307428D01*
X29900297Y-110259809D01*
X29805059Y-110212190D01*
X29614583Y-110164571D01*
X29519345Y-110116952D01*
X29471726Y-110069333D01*
X29424107Y-109974095D01*
X29424107Y-109878857D01*
X29471726Y-109783619D01*
X29519345Y-109736000D01*
X29614583Y-109688380D01*
X29852678Y-109688380D01*
X29995535Y-109736000D01*
X30424107Y-110688380D02*
X30424107Y-109688380D01*
X30424107Y-110164571D02*
X30995535Y-110164571D01*
X30995535Y-110688380D02*
X30995535Y-109688380D01*
%TO.C,SW1*%
X388056845Y-110640761D02*
X388199702Y-110688380D01*
X388437797Y-110688380D01*
X388533035Y-110640761D01*
X388580654Y-110593142D01*
X388628273Y-110497904D01*
X388628273Y-110402666D01*
X388580654Y-110307428D01*
X388533035Y-110259809D01*
X388437797Y-110212190D01*
X388247321Y-110164571D01*
X388152083Y-110116952D01*
X388104464Y-110069333D01*
X388056845Y-109974095D01*
X388056845Y-109878857D01*
X388104464Y-109783619D01*
X388152083Y-109736000D01*
X388247321Y-109688380D01*
X388485416Y-109688380D01*
X388628273Y-109736000D01*
X388961607Y-109688380D02*
X389199702Y-110688380D01*
X389390178Y-109974095D01*
X389580654Y-110688380D01*
X389818750Y-109688380D01*
X389961607Y-110783619D02*
X390723511Y-110783619D01*
X390961607Y-110688380D02*
X390961607Y-109688380D01*
X391342559Y-109688380D01*
X391437797Y-109736000D01*
X391485416Y-109783619D01*
X391533035Y-109878857D01*
X391533035Y-110021714D01*
X391485416Y-110116952D01*
X391437797Y-110164571D01*
X391342559Y-110212190D01*
X390961607Y-110212190D01*
X391961607Y-109688380D02*
X391961607Y-110497904D01*
X392009226Y-110593142D01*
X392056845Y-110640761D01*
X392152083Y-110688380D01*
X392342559Y-110688380D01*
X392437797Y-110640761D01*
X392485416Y-110593142D01*
X392533035Y-110497904D01*
X392533035Y-109688380D01*
X392961607Y-110640761D02*
X393104464Y-110688380D01*
X393342559Y-110688380D01*
X393437797Y-110640761D01*
X393485416Y-110593142D01*
X393533035Y-110497904D01*
X393533035Y-110402666D01*
X393485416Y-110307428D01*
X393437797Y-110259809D01*
X393342559Y-110212190D01*
X393152083Y-110164571D01*
X393056845Y-110116952D01*
X393009226Y-110069333D01*
X392961607Y-109974095D01*
X392961607Y-109878857D01*
X393009226Y-109783619D01*
X393056845Y-109736000D01*
X393152083Y-109688380D01*
X393390178Y-109688380D01*
X393533035Y-109736000D01*
X393961607Y-110688380D02*
X393961607Y-109688380D01*
X393961607Y-110164571D02*
X394533035Y-110164571D01*
X394533035Y-110688380D02*
X394533035Y-109688380D01*
%TO.C,OL1*%
X390794052Y-64129895D02*
X390948871Y-64129895D01*
X391026280Y-64168600D01*
X391103690Y-64246009D01*
X391142395Y-64400828D01*
X391142395Y-64671761D01*
X391103690Y-64826580D01*
X391026280Y-64903990D01*
X390948871Y-64942695D01*
X390794052Y-64942695D01*
X390716642Y-64903990D01*
X390639233Y-64826580D01*
X390600528Y-64671761D01*
X390600528Y-64400828D01*
X390639233Y-64246009D01*
X390716642Y-64168600D01*
X390794052Y-64129895D01*
X391877785Y-64942695D02*
X391490738Y-64942695D01*
X391490738Y-64129895D01*
X392574471Y-64942695D02*
X392110014Y-64942695D01*
X392342242Y-64942695D02*
X392342242Y-64129895D01*
X392264833Y-64246009D01*
X392187423Y-64323419D01*
X392110014Y-64362123D01*
%TO.C,L_OL1*%
X26850152Y-64942695D02*
X26463104Y-64942695D01*
X26463104Y-64129895D01*
X26927561Y-65020104D02*
X27546838Y-65020104D01*
X27895180Y-64129895D02*
X28050000Y-64129895D01*
X28127409Y-64168600D01*
X28204819Y-64246009D01*
X28243523Y-64400828D01*
X28243523Y-64671761D01*
X28204819Y-64826580D01*
X28127409Y-64903990D01*
X28050000Y-64942695D01*
X27895180Y-64942695D01*
X27817771Y-64903990D01*
X27740361Y-64826580D01*
X27701657Y-64671761D01*
X27701657Y-64400828D01*
X27740361Y-64246009D01*
X27817771Y-64168600D01*
X27895180Y-64129895D01*
X28978914Y-64942695D02*
X28591866Y-64942695D01*
X28591866Y-64129895D01*
X29675600Y-64942695D02*
X29211142Y-64942695D01*
X29443371Y-64942695D02*
X29443371Y-64129895D01*
X29365961Y-64246009D01*
X29288552Y-64323419D01*
X29211142Y-64362123D01*
%TO.C,L_ENC1*%
X44616714Y-44888380D02*
X44283380Y-44412190D01*
X44045285Y-44888380D02*
X44045285Y-43888380D01*
X44426238Y-43888380D01*
X44521476Y-43936000D01*
X44569095Y-43983619D01*
X44616714Y-44078857D01*
X44616714Y-44221714D01*
X44569095Y-44316952D01*
X44521476Y-44364571D01*
X44426238Y-44412190D01*
X44045285Y-44412190D01*
X45188142Y-44888380D02*
X45092904Y-44840761D01*
X45045285Y-44793142D01*
X44997666Y-44697904D01*
X44997666Y-44412190D01*
X45045285Y-44316952D01*
X45092904Y-44269333D01*
X45188142Y-44221714D01*
X45331000Y-44221714D01*
X45426238Y-44269333D01*
X45473857Y-44316952D01*
X45521476Y-44412190D01*
X45521476Y-44697904D01*
X45473857Y-44793142D01*
X45426238Y-44840761D01*
X45331000Y-44888380D01*
X45188142Y-44888380D01*
X45807190Y-44221714D02*
X46188142Y-44221714D01*
X45950047Y-43888380D02*
X45950047Y-44745523D01*
X45997666Y-44840761D01*
X46092904Y-44888380D01*
X46188142Y-44888380D01*
X46950047Y-44888380D02*
X46950047Y-44364571D01*
X46902428Y-44269333D01*
X46807190Y-44221714D01*
X46616714Y-44221714D01*
X46521476Y-44269333D01*
X46950047Y-44840761D02*
X46854809Y-44888380D01*
X46616714Y-44888380D01*
X46521476Y-44840761D01*
X46473857Y-44745523D01*
X46473857Y-44650285D01*
X46521476Y-44555047D01*
X46616714Y-44507428D01*
X46854809Y-44507428D01*
X46950047Y-44459809D01*
X47426238Y-44888380D02*
X47426238Y-44221714D01*
X47426238Y-44412190D02*
X47473857Y-44316952D01*
X47521476Y-44269333D01*
X47616714Y-44221714D01*
X47711952Y-44221714D01*
X47950047Y-44221714D02*
X48188142Y-44888380D01*
X48426238Y-44221714D02*
X48188142Y-44888380D01*
X48092904Y-45126476D01*
X48045285Y-45174095D01*
X47950047Y-45221714D01*
X48569095Y-44983619D02*
X49331000Y-44983619D01*
X49569095Y-44364571D02*
X49902428Y-44364571D01*
X50045285Y-44888380D02*
X49569095Y-44888380D01*
X49569095Y-43888380D01*
X50045285Y-43888380D01*
X50473857Y-44221714D02*
X50473857Y-44888380D01*
X50473857Y-44316952D02*
X50521476Y-44269333D01*
X50616714Y-44221714D01*
X50759571Y-44221714D01*
X50854809Y-44269333D01*
X50902428Y-44364571D01*
X50902428Y-44888380D01*
X51807190Y-44840761D02*
X51711952Y-44888380D01*
X51521476Y-44888380D01*
X51426238Y-44840761D01*
X51378619Y-44793142D01*
X51331000Y-44697904D01*
X51331000Y-44412190D01*
X51378619Y-44316952D01*
X51426238Y-44269333D01*
X51521476Y-44221714D01*
X51711952Y-44221714D01*
X51807190Y-44269333D01*
X52378619Y-44888380D02*
X52283380Y-44840761D01*
X52235761Y-44793142D01*
X52188142Y-44697904D01*
X52188142Y-44412190D01*
X52235761Y-44316952D01*
X52283380Y-44269333D01*
X52378619Y-44221714D01*
X52521476Y-44221714D01*
X52616714Y-44269333D01*
X52664333Y-44316952D01*
X52711952Y-44412190D01*
X52711952Y-44697904D01*
X52664333Y-44793142D01*
X52616714Y-44840761D01*
X52521476Y-44888380D01*
X52378619Y-44888380D01*
X53569095Y-44888380D02*
X53569095Y-43888380D01*
X53569095Y-44840761D02*
X53473857Y-44888380D01*
X53283380Y-44888380D01*
X53188142Y-44840761D01*
X53140523Y-44793142D01*
X53092904Y-44697904D01*
X53092904Y-44412190D01*
X53140523Y-44316952D01*
X53188142Y-44269333D01*
X53283380Y-44221714D01*
X53473857Y-44221714D01*
X53569095Y-44269333D01*
X54426238Y-44840761D02*
X54331000Y-44888380D01*
X54140523Y-44888380D01*
X54045285Y-44840761D01*
X53997666Y-44745523D01*
X53997666Y-44364571D01*
X54045285Y-44269333D01*
X54140523Y-44221714D01*
X54331000Y-44221714D01*
X54426238Y-44269333D01*
X54473857Y-44364571D01*
X54473857Y-44459809D01*
X53997666Y-44555047D01*
X54902428Y-44888380D02*
X54902428Y-44221714D01*
X54902428Y-44412190D02*
X54950047Y-44316952D01*
X54997666Y-44269333D01*
X55092904Y-44221714D01*
X55188142Y-44221714D01*
X55283380Y-44983619D02*
X56045285Y-44983619D01*
X56235761Y-44840761D02*
X56378619Y-44888380D01*
X56616714Y-44888380D01*
X56711952Y-44840761D01*
X56759571Y-44793142D01*
X56807190Y-44697904D01*
X56807190Y-44602666D01*
X56759571Y-44507428D01*
X56711952Y-44459809D01*
X56616714Y-44412190D01*
X56426238Y-44364571D01*
X56331000Y-44316952D01*
X56283380Y-44269333D01*
X56235761Y-44174095D01*
X56235761Y-44078857D01*
X56283380Y-43983619D01*
X56331000Y-43936000D01*
X56426238Y-43888380D01*
X56664333Y-43888380D01*
X56807190Y-43936000D01*
X57140523Y-44221714D02*
X57331000Y-44888380D01*
X57521476Y-44412190D01*
X57711952Y-44888380D01*
X57902428Y-44221714D01*
X58283380Y-44888380D02*
X58283380Y-44221714D01*
X58283380Y-43888380D02*
X58235761Y-43936000D01*
X58283380Y-43983619D01*
X58331000Y-43936000D01*
X58283380Y-43888380D01*
X58283380Y-43983619D01*
X58616714Y-44221714D02*
X58997666Y-44221714D01*
X58759571Y-43888380D02*
X58759571Y-44745523D01*
X58807190Y-44840761D01*
X58902428Y-44888380D01*
X58997666Y-44888380D01*
X59759571Y-44840761D02*
X59664333Y-44888380D01*
X59473857Y-44888380D01*
X59378619Y-44840761D01*
X59331000Y-44793142D01*
X59283380Y-44697904D01*
X59283380Y-44412190D01*
X59331000Y-44316952D01*
X59378619Y-44269333D01*
X59473857Y-44221714D01*
X59664333Y-44221714D01*
X59759571Y-44269333D01*
X60188142Y-44888380D02*
X60188142Y-43888380D01*
X60616714Y-44888380D02*
X60616714Y-44364571D01*
X60569095Y-44269333D01*
X60473857Y-44221714D01*
X60331000Y-44221714D01*
X60235761Y-44269333D01*
X60188142Y-44316952D01*
X53907190Y-40788380D02*
X53431000Y-40788380D01*
X53431000Y-39788380D01*
X54002428Y-40883619D02*
X54764333Y-40883619D01*
X55002428Y-40264571D02*
X55335761Y-40264571D01*
X55478619Y-40788380D02*
X55002428Y-40788380D01*
X55002428Y-39788380D01*
X55478619Y-39788380D01*
X55907190Y-40788380D02*
X55907190Y-39788380D01*
X56478619Y-40788380D01*
X56478619Y-39788380D01*
X57526238Y-40693142D02*
X57478619Y-40740761D01*
X57335761Y-40788380D01*
X57240523Y-40788380D01*
X57097666Y-40740761D01*
X57002428Y-40645523D01*
X56954809Y-40550285D01*
X56907190Y-40359809D01*
X56907190Y-40216952D01*
X56954809Y-40026476D01*
X57002428Y-39931238D01*
X57097666Y-39836000D01*
X57240523Y-39788380D01*
X57335761Y-39788380D01*
X57478619Y-39836000D01*
X57526238Y-39883619D01*
X58478619Y-40788380D02*
X57907190Y-40788380D01*
X58192904Y-40788380D02*
X58192904Y-39788380D01*
X58097666Y-39931238D01*
X58002428Y-40026476D01*
X57907190Y-40074095D01*
%TD*%
M02*
