  0
SECTION
  2
HEADER
  9
$ACADVER
  1
AC1009
  9
$EXTMIN
 10
0.0
 20
0.0
 30
0.0
  9
$EXTMAX
 10
1000.0
 20
1000.0
 30
0.0
  9
$FILLMODE
 70
 0
  9
$SPLFRAME
 70
 1
  0
ENDSEC
  0
SECTION
  2
TABLES
  0
TABLE
  2
LAYER
 70
1
  0
LAYER
  2
0
 70
     0
 62
     7
  6
CONTINUOUS
  0
ENDTAB
  0
ENDSEC
  0
SECTION
  2
ENTITIES
  0
LINE
  8
0
 62
     0
 10
205.595
 20
117.14
 30
0.0
 11
8.09597
 21
117.14
 31
0.0
  0
LINE
  8
0
 62
     0
 10
8.09597
 20
117.14
 30
0.0
 11
8.09597
 21
8.12768
 31
0.0
  0
LINE
  8
0
 62
     0
 10
8.09597
 20
8.12768
 30
0.0
 11
413.096
 21
8.12768
 31
0.0
  0
LINE
  8
0
 62
     0
 10
413.096
 20
8.12768
 30
0.0
 11
413.096
 21
117.14
 31
0.0
  0
LINE
  8
0
 62
     0
 10
413.096
 20
117.14
 30
0.0
 11
215.596
 21
117.14
 31
0.0
  0
LINE
  8
0
 62
     0
 10
215.596
 20
117.14
 30
0.0
 11
215.596
 21
125.141
 31
0.0
  0
LINE
  8
0
 62
     0
 10
215.596
 20
125.141
 30
0.0
 11
418.098
 21
125.141
 31
0.0
  0
LINE
  8
0
 62
     0
 10
418.098
 20
125.141
 30
0.0
 11
418.331
 21
125.131
 31
0.0
  0
LINE
  8
0
 62
     0
 10
418.331
 20
125.131
 30
0.0
 11
418.564
 21
125.105
 31
0.0
  0
LINE
  8
0
 62
     0
 10
418.564
 20
125.105
 30
0.0
 11
418.797
 21
125.058
 31
0.0
  0
LINE
  8
0
 62
     0
 10
418.797
 20
125.058
 30
0.0
 11
419.022
 21
124.995
 31
0.0
  0
LINE
  8
0
 62
     0
 10
419.022
 20
124.995
 30
0.0
 11
419.245
 21
124.912
 31
0.0
  0
LINE
  8
0
 62
     0
 10
419.245
 20
124.912
 30
0.0
 11
419.456
 21
124.815
 31
0.0
  0
LINE
  8
0
 62
     0
 10
419.456
 20
124.815
 30
0.0
 11
419.664
 21
124.699
 31
0.0
  0
LINE
  8
0
 62
     0
 10
419.664
 20
124.699
 30
0.0
 11
419.858
 21
124.569
 31
0.0
  0
LINE
  8
0
 62
     0
 10
419.858
 20
124.569
 30
0.0
 11
420.045
 21
124.423
 31
0.0
  0
LINE
  8
0
 62
     0
 10
420.045
 20
124.423
 30
0.0
 11
420.218
 21
124.263
 31
0.0
  0
LINE
  8
0
 62
     0
 10
420.218
 20
124.263
 30
0.0
 11
420.377
 21
124.09
 31
0.0
  0
LINE
  8
0
 62
     0
 10
420.377
 20
124.09
 30
0.0
 11
420.525
 21
123.905
 31
0.0
  0
LINE
  8
0
 62
     0
 10
420.525
 20
123.905
 30
0.0
 11
420.652
 21
123.709
 31
0.0
  0
LINE
  8
0
 62
     0
 10
420.652
 20
123.709
 30
0.0
 11
420.769
 21
123.503
 31
0.0
  0
LINE
  8
0
 62
     0
 10
420.769
 20
123.503
 30
0.0
 11
420.867
 21
123.289
 31
0.0
  0
LINE
  8
0
 62
     0
 10
420.867
 20
123.289
 30
0.0
 11
420.949
 21
123.068
 31
0.0
  0
LINE
  8
0
 62
     0
 10
420.949
 20
123.068
 30
0.0
 11
421.016
 21
122.841
 31
0.0
  0
LINE
  8
0
 62
     0
 10
421.016
 20
122.841
 30
0.0
 11
421.058
 21
122.611
 31
0.0
  0
LINE
  8
0
 62
     0
 10
421.058
 20
122.611
 30
0.0
 11
421.086
 21
122.377
 31
0.0
  0
LINE
  8
0
 62
     0
 10
421.086
 20
122.377
 30
0.0
 11
421.097
 21
122.141
 31
0.0
  0
LINE
  8
0
 62
     0
 10
421.097
 20
122.141
 30
0.0
 11
421.097
 21
3.12815
 31
0.0
  0
LINE
  8
0
 62
     0
 10
421.097
 20
3.12815
 30
0.0
 11
421.086
 21
2.8925
 31
0.0
  0
LINE
  8
0
 62
     0
 10
421.086
 20
2.8925
 30
0.0
 11
421.058
 21
2.65824
 31
0.0
  0
LINE
  8
0
 62
     0
 10
421.058
 20
2.65824
 30
0.0
 11
421.016
 21
2.4281
 31
0.0
  0
LINE
  8
0
 62
     0
 10
421.016
 20
2.4281
 30
0.0
 11
420.949
 21
2.20073
 31
0.0
  0
LINE
  8
0
 62
     0
 10
420.949
 20
2.20073
 30
0.0
 11
420.867
 21
1.98024
 31
0.0
  0
LINE
  8
0
 62
     0
 10
420.867
 20
1.98024
 30
0.0
 11
420.769
 21
1.76527
 31
0.0
  0
LINE
  8
0
 62
     0
 10
420.769
 20
1.76527
 30
0.0
 11
420.652
 21
1.55994
 31
0.0
  0
LINE
  8
0
 62
     0
 10
420.652
 20
1.55994
 30
0.0
 11
420.525
 21
1.36426
 31
0.0
  0
LINE
  8
0
 62
     0
 10
420.525
 20
1.36426
 30
0.0
 11
420.377
 21
1.1796
 31
0.0
  0
LINE
  8
0
 62
     0
 10
420.377
 20
1.1796
 30
0.0
 11
420.218
 21
1.00735
 31
0.0
  0
LINE
  8
0
 62
     0
 10
420.218
 20
1.00735
 30
0.0
 11
420.045
 21
0.846116
 31
0.0
  0
LINE
  8
0
 62
     0
 10
420.045
 20
0.846116
 30
0.0
 11
419.858
 21
0.700045
 31
0.0
  0
LINE
  8
0
 62
     0
 10
419.858
 20
0.700045
 30
0.0
 11
419.664
 21
0.569129
 31
0.0
  0
LINE
  8
0
 62
     0
 10
419.664
 20
0.569129
 30
0.0
 11
419.456
 21
0.454752
 31
0.0
  0
LINE
  8
0
 62
     0
 10
419.456
 20
0.454752
 30
0.0
 11
419.245
 21
0.355533
 31
0.0
  0
LINE
  8
0
 62
     0
 10
419.245
 20
0.355533
 30
0.0
 11
419.022
 21
0.27423
 31
0.0
  0
LINE
  8
0
 62
     0
 10
419.022
 20
0.27423
 30
0.0
 11
418.797
 21
0.21084
 31
0.0
  0
LINE
  8
0
 62
     0
 10
418.797
 20
0.21084
 30
0.0
 11
418.564
 21
0.163987
 31
0.0
  0
LINE
  8
0
 62
     0
 10
418.564
 20
0.163987
 30
0.0
 11
418.331
 21
0.139182
 31
0.0
  0
LINE
  8
0
 62
     0
 10
418.331
 20
0.139182
 30
0.0
 11
418.098
 21
0.128157
 31
0.0
  0
LINE
  8
0
 62
     0
 10
418.098
 20
0.128157
 30
0.0
 11
3.09507
 21
0.128157
 31
0.0
  0
LINE
  8
0
 62
     0
 10
3.09507
 20
0.128157
 30
0.0
 11
2.85943
 21
0.139182
 31
0.0
  0
LINE
  8
0
 62
     0
 10
2.85943
 20
0.139182
 30
0.0
 11
2.62516
 21
0.163987
 31
0.0
  0
LINE
  8
0
 62
     0
 10
2.62516
 20
0.163987
 30
0.0
 11
2.39503
 21
0.21084
 31
0.0
  0
LINE
  8
0
 62
     0
 10
2.39503
 20
0.21084
 30
0.0
 11
2.16765
 21
0.27423
 31
0.0
  0
LINE
  8
0
 62
     0
 10
2.16765
 20
0.27423
 30
0.0
 11
1.94717
 21
0.355533
 31
0.0
  0
LINE
  8
0
 62
     0
 10
1.94717
 20
0.355533
 30
0.0
 11
1.73357
 21
0.454752
 31
0.0
  0
LINE
  8
0
 62
     0
 10
1.73357
 20
0.454752
 30
0.0
 11
1.52687
 21
0.569129
 31
0.0
  0
LINE
  8
0
 62
     0
 10
1.52687
 20
0.569129
 30
0.0
 11
1.33119
 21
0.700045
 31
0.0
  0
LINE
  8
0
 62
     0
 10
1.33119
 20
0.700045
 30
0.0
 11
1.14653
 21
0.846116
 31
0.0
  0
LINE
  8
0
 62
     0
 10
1.14653
 20
0.846116
 30
0.0
 11
0.972894
 21
1.00735
 31
0.0
  0
LINE
  8
0
 62
     0
 10
0.972894
 20
1.00735
 30
0.0
 11
0.813043
 21
1.1796
 31
0.0
  0
LINE
  8
0
 62
     0
 10
0.813043
 20
1.1796
 30
0.0
 11
0.666972
 21
1.36426
 31
0.0
  0
LINE
  8
0
 62
     0
 10
0.666972
 20
1.36426
 30
0.0
 11
0.537436
 21
1.55994
 31
0.0
  0
LINE
  8
0
 62
     0
 10
0.537436
 20
1.55994
 30
0.0
 11
0.421679
 21
1.76527
 31
0.0
  0
LINE
  8
0
 62
     0
 10
0.421679
 20
1.76527
 30
0.0
 11
0.323839
 21
1.98024
 31
0.0
  0
LINE
  8
0
 62
     0
 10
0.323839
 20
1.98024
 30
0.0
 11
0.241157
 21
2.20073
 31
0.0
  0
LINE
  8
0
 62
     0
 10
0.241157
 20
2.20073
 30
0.0
 11
0.177767
 21
2.4281
 31
0.0
  0
LINE
  8
0
 62
     0
 10
0.177767
 20
2.4281
 30
0.0
 11
0.130914
 21
2.65824
 31
0.0
  0
LINE
  8
0
 62
     0
 10
0.130914
 20
2.65824
 30
0.0
 11
0.104731
 21
2.8925
 31
0.0
  0
LINE
  8
0
 62
     0
 10
0.104731
 20
2.8925
 30
0.0
 11
0.0950846
 21
3.12815
 31
0.0
  0
LINE
  8
0
 62
     0
 10
0.0950846
 20
3.12815
 30
0.0
 11
0.0950846
 21
122.141
 31
0.0
  0
LINE
  8
0
 62
     0
 10
0.0950846
 20
122.141
 30
0.0
 11
0.104731
 21
122.377
 31
0.0
  0
LINE
  8
0
 62
     0
 10
0.104731
 20
122.377
 30
0.0
 11
0.130914
 21
122.611
 31
0.0
  0
LINE
  8
0
 62
     0
 10
0.130914
 20
122.611
 30
0.0
 11
0.177767
 21
122.841
 31
0.0
  0
LINE
  8
0
 62
     0
 10
0.177767
 20
122.841
 30
0.0
 11
0.241157
 21
123.068
 31
0.0
  0
LINE
  8
0
 62
     0
 10
0.241157
 20
123.068
 30
0.0
 11
0.323839
 21
123.289
 31
0.0
  0
LINE
  8
0
 62
     0
 10
0.323839
 20
123.289
 30
0.0
 11
0.421679
 21
123.503
 31
0.0
  0
LINE
  8
0
 62
     0
 10
0.421679
 20
123.503
 30
0.0
 11
0.537436
 21
123.709
 31
0.0
  0
LINE
  8
0
 62
     0
 10
0.537436
 20
123.709
 30
0.0
 11
0.666972
 21
123.905
 31
0.0
  0
LINE
  8
0
 62
     0
 10
0.666972
 20
123.905
 30
0.0
 11
0.813043
 21
124.09
 31
0.0
  0
LINE
  8
0
 62
     0
 10
0.813043
 20
124.09
 30
0.0
 11
0.972894
 21
124.263
 31
0.0
  0
LINE
  8
0
 62
     0
 10
0.972894
 20
124.263
 30
0.0
 11
1.14653
 21
124.423
 31
0.0
  0
LINE
  8
0
 62
     0
 10
1.14653
 20
124.423
 30
0.0
 11
1.33119
 21
124.569
 31
0.0
  0
LINE
  8
0
 62
     0
 10
1.33119
 20
124.569
 30
0.0
 11
1.52687
 21
124.699
 31
0.0
  0
LINE
  8
0
 62
     0
 10
1.52687
 20
124.699
 30
0.0
 11
1.73357
 21
124.815
 31
0.0
  0
LINE
  8
0
 62
     0
 10
1.73357
 20
124.815
 30
0.0
 11
1.94717
 21
124.912
 31
0.0
  0
LINE
  8
0
 62
     0
 10
1.94717
 20
124.912
 30
0.0
 11
2.16765
 21
124.995
 31
0.0
  0
LINE
  8
0
 62
     0
 10
2.16765
 20
124.995
 30
0.0
 11
2.39503
 21
125.058
 31
0.0
  0
LINE
  8
0
 62
     0
 10
2.39503
 20
125.058
 30
0.0
 11
2.62516
 21
125.105
 31
0.0
  0
LINE
  8
0
 62
     0
 10
2.62516
 20
125.105
 30
0.0
 11
2.85943
 21
125.131
 31
0.0
  0
LINE
  8
0
 62
     0
 10
2.85943
 20
125.131
 30
0.0
 11
3.09507
 21
125.141
 31
0.0
  0
LINE
  8
0
 62
     0
 10
3.09507
 20
125.141
 30
0.0
 11
205.595
 21
125.141
 31
0.0
  0
LINE
  8
0
 62
     0
 10
205.595
 20
125.141
 30
0.0
 11
205.595
 21
117.14
 31
0.0
  0
LINE
  8
0
 62
     0
 10
3.47679
 20
6.03031
 30
0.0
 11
2.92006
 21
5.74506
 31
0.0
  0
LINE
  8
0
 62
     0
 10
2.92006
 20
5.74506
 30
0.0
 11
2.47633
 21
5.30408
 31
0.0
  0
LINE
  8
0
 62
     0
 10
2.47633
 20
5.30408
 30
0.0
 11
2.19246
 21
4.74595
 31
0.0
  0
LINE
  8
0
 62
     0
 10
2.19246
 20
4.74595
 30
0.0
 11
2.09462
 21
4.12722
 31
0.0
  0
LINE
  8
0
 62
     0
 10
2.09462
 20
4.12722
 30
0.0
 11
2.19246
 21
3.50986
 31
0.0
  0
LINE
  8
0
 62
     0
 10
2.19246
 20
3.50986
 30
0.0
 11
2.47633
 21
2.95176
 31
0.0
  0
LINE
  8
0
 62
     0
 10
2.47633
 20
2.95176
 30
0.0
 11
2.92006
 21
2.50941
 31
0.0
  0
LINE
  8
0
 62
     0
 10
2.92006
 20
2.50941
 30
0.0
 11
3.47679
 21
2.22553
 31
0.0
  0
LINE
  8
0
 62
     0
 10
3.47679
 20
2.22553
 30
0.0
 11
4.09416
 21
2.12769
 31
0.0
  0
LINE
  8
0
 62
     0
 10
4.09416
 20
2.12769
 30
0.0
 11
4.7129
 21
2.22553
 31
0.0
  0
LINE
  8
0
 62
     0
 10
4.7129
 20
2.22553
 30
0.0
 11
5.27099
 21
2.50941
 31
0.0
  0
LINE
  8
0
 62
     0
 10
5.27099
 20
2.50941
 30
0.0
 11
5.71334
 21
2.95176
 31
0.0
  0
LINE
  8
0
 62
     0
 10
5.71334
 20
2.95176
 30
0.0
 11
5.99722
 21
3.50986
 31
0.0
  0
LINE
  8
0
 62
     0
 10
5.99722
 20
3.50986
 30
0.0
 11
6.09505
 21
4.12722
 31
0.0
  0
LINE
  8
0
 62
     0
 10
6.09505
 20
4.12722
 30
0.0
 11
5.99722
 21
4.74595
 31
0.0
  0
LINE
  8
0
 62
     0
 10
5.99722
 20
4.74595
 30
0.0
 11
5.71334
 21
5.30408
 31
0.0
  0
LINE
  8
0
 62
     0
 10
5.71334
 20
5.30408
 30
0.0
 11
5.27099
 21
5.74506
 31
0.0
  0
LINE
  8
0
 62
     0
 10
5.27099
 20
5.74506
 30
0.0
 11
4.7129
 21
6.03031
 31
0.0
  0
LINE
  8
0
 62
     0
 10
4.7129
 20
6.03031
 30
0.0
 11
4.09416
 21
6.12814
 31
0.0
  0
LINE
  8
0
 62
     0
 10
4.09416
 20
6.12814
 30
0.0
 11
3.47679
 21
6.03031
 31
0.0
  0
LINE
  8
0
 62
     0
 10
106.728
 20
6.03031
 30
0.0
 11
106.17
 21
5.74506
 31
0.0
  0
LINE
  8
0
 62
     0
 10
106.17
 20
5.74506
 30
0.0
 11
105.727
 21
5.30408
 31
0.0
  0
LINE
  8
0
 62
     0
 10
105.727
 20
5.30408
 30
0.0
 11
105.444
 21
4.74595
 31
0.0
  0
LINE
  8
0
 62
     0
 10
105.444
 20
4.74595
 30
0.0
 11
105.345
 21
4.12722
 31
0.0
  0
LINE
  8
0
 62
     0
 10
105.345
 20
4.12722
 30
0.0
 11
105.444
 21
3.50986
 31
0.0
  0
LINE
  8
0
 62
     0
 10
105.444
 20
3.50986
 30
0.0
 11
105.727
 21
2.95176
 31
0.0
  0
LINE
  8
0
 62
     0
 10
105.727
 20
2.95176
 30
0.0
 11
106.17
 21
2.50941
 31
0.0
  0
LINE
  8
0
 62
     0
 10
106.17
 20
2.50941
 30
0.0
 11
106.728
 21
2.22553
 31
0.0
  0
LINE
  8
0
 62
     0
 10
106.728
 20
2.22553
 30
0.0
 11
107.345
 21
2.12769
 31
0.0
  0
LINE
  8
0
 62
     0
 10
107.345
 20
2.12769
 30
0.0
 11
107.964
 21
2.22553
 31
0.0
  0
LINE
  8
0
 62
     0
 10
107.964
 20
2.22553
 30
0.0
 11
108.52
 21
2.50941
 31
0.0
  0
LINE
  8
0
 62
     0
 10
108.52
 20
2.50941
 30
0.0
 11
108.963
 21
2.95176
 31
0.0
  0
LINE
  8
0
 62
     0
 10
108.963
 20
2.95176
 30
0.0
 11
109.248
 21
3.50986
 31
0.0
  0
LINE
  8
0
 62
     0
 10
109.248
 20
3.50986
 30
0.0
 11
109.346
 21
4.12722
 31
0.0
  0
LINE
  8
0
 62
     0
 10
109.346
 20
4.12722
 30
0.0
 11
109.248
 21
4.74595
 31
0.0
  0
LINE
  8
0
 62
     0
 10
109.248
 20
4.74595
 30
0.0
 11
108.963
 21
5.30408
 31
0.0
  0
LINE
  8
0
 62
     0
 10
108.963
 20
5.30408
 30
0.0
 11
108.52
 21
5.74506
 31
0.0
  0
LINE
  8
0
 62
     0
 10
108.52
 20
5.74506
 30
0.0
 11
107.964
 21
6.03031
 31
0.0
  0
LINE
  8
0
 62
     0
 10
107.964
 20
6.03031
 30
0.0
 11
107.345
 21
6.12814
 31
0.0
  0
LINE
  8
0
 62
     0
 10
107.345
 20
6.12814
 30
0.0
 11
106.728
 21
6.03031
 31
0.0
  0
LINE
  8
0
 62
     0
 10
209.977
 20
6.03031
 30
0.0
 11
209.419
 21
5.74506
 31
0.0
  0
LINE
  8
0
 62
     0
 10
209.419
 20
5.74506
 30
0.0
 11
208.978
 21
5.30408
 31
0.0
  0
LINE
  8
0
 62
     0
 10
208.978
 20
5.30408
 30
0.0
 11
208.693
 21
4.74595
 31
0.0
  0
LINE
  8
0
 62
     0
 10
208.693
 20
4.74595
 30
0.0
 11
208.595
 21
4.12722
 31
0.0
  0
LINE
  8
0
 62
     0
 10
208.595
 20
4.12722
 30
0.0
 11
208.693
 21
3.50986
 31
0.0
  0
LINE
  8
0
 62
     0
 10
208.693
 20
3.50986
 30
0.0
 11
208.978
 21
2.95176
 31
0.0
  0
LINE
  8
0
 62
     0
 10
208.978
 20
2.95176
 30
0.0
 11
209.419
 21
2.50941
 31
0.0
  0
LINE
  8
0
 62
     0
 10
209.419
 20
2.50941
 30
0.0
 11
209.977
 21
2.22553
 31
0.0
  0
LINE
  8
0
 62
     0
 10
209.977
 20
2.22553
 30
0.0
 11
210.596
 21
2.12769
 31
0.0
  0
LINE
  8
0
 62
     0
 10
210.596
 20
2.12769
 30
0.0
 11
211.213
 21
2.22553
 31
0.0
  0
LINE
  8
0
 62
     0
 10
211.213
 20
2.22553
 30
0.0
 11
211.771
 21
2.50941
 31
0.0
  0
LINE
  8
0
 62
     0
 10
211.771
 20
2.50941
 30
0.0
 11
212.214
 21
2.95176
 31
0.0
  0
LINE
  8
0
 62
     0
 10
212.214
 20
2.95176
 30
0.0
 11
212.497
 21
3.50986
 31
0.0
  0
LINE
  8
0
 62
     0
 10
212.497
 20
3.50986
 30
0.0
 11
212.596
 21
4.12722
 31
0.0
  0
LINE
  8
0
 62
     0
 10
212.596
 20
4.12722
 30
0.0
 11
212.497
 21
4.74595
 31
0.0
  0
LINE
  8
0
 62
     0
 10
212.497
 20
4.74595
 30
0.0
 11
212.214
 21
5.30408
 31
0.0
  0
LINE
  8
0
 62
     0
 10
212.214
 20
5.30408
 30
0.0
 11
211.771
 21
5.74506
 31
0.0
  0
LINE
  8
0
 62
     0
 10
211.771
 20
5.74506
 30
0.0
 11
211.213
 21
6.03031
 31
0.0
  0
LINE
  8
0
 62
     0
 10
211.213
 20
6.03031
 30
0.0
 11
210.596
 21
6.12814
 31
0.0
  0
LINE
  8
0
 62
     0
 10
210.596
 20
6.12814
 30
0.0
 11
209.977
 21
6.03031
 31
0.0
  0
LINE
  8
0
 62
     0
 10
313.228
 20
6.03031
 30
0.0
 11
312.67
 21
5.74506
 31
0.0
  0
LINE
  8
0
 62
     0
 10
312.67
 20
5.74506
 30
0.0
 11
312.228
 21
5.30408
 31
0.0
  0
LINE
  8
0
 62
     0
 10
312.228
 20
5.30408
 30
0.0
 11
311.944
 21
4.74595
 31
0.0
  0
LINE
  8
0
 62
     0
 10
311.944
 20
4.74595
 30
0.0
 11
311.846
 21
4.12722
 31
0.0
  0
LINE
  8
0
 62
     0
 10
311.846
 20
4.12722
 30
0.0
 11
311.944
 21
3.50986
 31
0.0
  0
LINE
  8
0
 62
     0
 10
311.944
 20
3.50986
 30
0.0
 11
312.228
 21
2.95176
 31
0.0
  0
LINE
  8
0
 62
     0
 10
312.228
 20
2.95176
 30
0.0
 11
312.67
 21
2.50941
 31
0.0
  0
LINE
  8
0
 62
     0
 10
312.67
 20
2.50941
 30
0.0
 11
313.228
 21
2.22553
 31
0.0
  0
LINE
  8
0
 62
     0
 10
313.228
 20
2.22553
 30
0.0
 11
313.846
 21
2.12769
 31
0.0
  0
LINE
  8
0
 62
     0
 10
313.846
 20
2.12769
 30
0.0
 11
314.464
 21
2.22553
 31
0.0
  0
LINE
  8
0
 62
     0
 10
314.464
 20
2.22553
 30
0.0
 11
315.021
 21
2.50941
 31
0.0
  0
LINE
  8
0
 62
     0
 10
315.021
 20
2.50941
 30
0.0
 11
315.463
 21
2.95176
 31
0.0
  0
LINE
  8
0
 62
     0
 10
315.463
 20
2.95176
 30
0.0
 11
315.747
 21
3.50986
 31
0.0
  0
LINE
  8
0
 62
     0
 10
315.747
 20
3.50986
 30
0.0
 11
315.845
 21
4.12722
 31
0.0
  0
LINE
  8
0
 62
     0
 10
315.845
 20
4.12722
 30
0.0
 11
315.747
 21
4.74595
 31
0.0
  0
LINE
  8
0
 62
     0
 10
315.747
 20
4.74595
 30
0.0
 11
315.463
 21
5.30408
 31
0.0
  0
LINE
  8
0
 62
     0
 10
315.463
 20
5.30408
 30
0.0
 11
315.021
 21
5.74506
 31
0.0
  0
LINE
  8
0
 62
     0
 10
315.021
 20
5.74506
 30
0.0
 11
314.464
 21
6.03031
 31
0.0
  0
LINE
  8
0
 62
     0
 10
314.464
 20
6.03031
 30
0.0
 11
313.846
 21
6.12814
 31
0.0
  0
LINE
  8
0
 62
     0
 10
313.846
 20
6.12814
 30
0.0
 11
313.228
 21
6.03031
 31
0.0
  0
LINE
  8
0
 62
     0
 10
416.479
 20
6.03031
 30
0.0
 11
415.921
 21
5.74506
 31
0.0
  0
LINE
  8
0
 62
     0
 10
415.921
 20
5.74506
 30
0.0
 11
415.477
 21
5.30408
 31
0.0
  0
LINE
  8
0
 62
     0
 10
415.477
 20
5.30408
 30
0.0
 11
415.195
 21
4.74595
 31
0.0
  0
LINE
  8
0
 62
     0
 10
415.195
 20
4.74595
 30
0.0
 11
415.096
 21
4.12722
 31
0.0
  0
LINE
  8
0
 62
     0
 10
415.096
 20
4.12722
 30
0.0
 11
415.195
 21
3.50986
 31
0.0
  0
LINE
  8
0
 62
     0
 10
415.195
 20
3.50986
 30
0.0
 11
415.477
 21
2.95176
 31
0.0
  0
LINE
  8
0
 62
     0
 10
415.477
 20
2.95176
 30
0.0
 11
415.921
 21
2.50941
 31
0.0
  0
LINE
  8
0
 62
     0
 10
415.921
 20
2.50941
 30
0.0
 11
416.479
 21
2.22553
 31
0.0
  0
LINE
  8
0
 62
     0
 10
416.479
 20
2.22553
 30
0.0
 11
417.096
 21
2.12769
 31
0.0
  0
LINE
  8
0
 62
     0
 10
417.096
 20
2.12769
 30
0.0
 11
417.714
 21
2.22553
 31
0.0
  0
LINE
  8
0
 62
     0
 10
417.714
 20
2.22553
 30
0.0
 11
418.271
 21
2.50941
 31
0.0
  0
LINE
  8
0
 62
     0
 10
418.271
 20
2.50941
 30
0.0
 11
418.715
 21
2.95176
 31
0.0
  0
LINE
  8
0
 62
     0
 10
418.715
 20
2.95176
 30
0.0
 11
418.998
 21
3.50986
 31
0.0
  0
LINE
  8
0
 62
     0
 10
418.998
 20
3.50986
 30
0.0
 11
419.096
 21
4.12722
 31
0.0
  0
LINE
  8
0
 62
     0
 10
419.096
 20
4.12722
 30
0.0
 11
418.998
 21
4.74595
 31
0.0
  0
LINE
  8
0
 62
     0
 10
418.998
 20
4.74595
 30
0.0
 11
418.715
 21
5.30408
 31
0.0
  0
LINE
  8
0
 62
     0
 10
418.715
 20
5.30408
 30
0.0
 11
418.271
 21
5.74506
 31
0.0
  0
LINE
  8
0
 62
     0
 10
418.271
 20
5.74506
 30
0.0
 11
417.714
 21
6.03031
 31
0.0
  0
LINE
  8
0
 62
     0
 10
417.714
 20
6.03031
 30
0.0
 11
417.096
 21
6.12814
 31
0.0
  0
LINE
  8
0
 62
     0
 10
417.096
 20
6.12814
 30
0.0
 11
416.479
 21
6.03031
 31
0.0
  0
LINE
  8
0
 62
     0
 10
3.47679
 20
64.5365
 30
0.0
 11
2.92006
 21
64.2525
 31
0.0
  0
LINE
  8
0
 62
     0
 10
2.92006
 20
64.2525
 30
0.0
 11
2.47633
 21
63.8101
 31
0.0
  0
LINE
  8
0
 62
     0
 10
2.47633
 20
63.8101
 30
0.0
 11
2.19246
 21
63.252
 31
0.0
  0
LINE
  8
0
 62
     0
 10
2.19246
 20
63.252
 30
0.0
 11
2.09462
 21
62.6346
 31
0.0
  0
LINE
  8
0
 62
     0
 10
2.09462
 20
62.6346
 30
0.0
 11
2.19246
 21
62.0173
 31
0.0
  0
LINE
  8
0
 62
     0
 10
2.19246
 20
62.0173
 30
0.0
 11
2.47633
 21
61.4592
 31
0.0
  0
LINE
  8
0
 62
     0
 10
2.47633
 20
61.4592
 30
0.0
 11
2.92006
 21
61.0168
 31
0.0
  0
LINE
  8
0
 62
     0
 10
2.92006
 20
61.0168
 30
0.0
 11
3.47679
 21
60.7328
 31
0.0
  0
LINE
  8
0
 62
     0
 10
3.47679
 20
60.7328
 30
0.0
 11
4.09416
 21
60.6351
 31
0.0
  0
LINE
  8
0
 62
     0
 10
4.09416
 20
60.6351
 30
0.0
 11
4.7129
 21
60.7328
 31
0.0
  0
LINE
  8
0
 62
     0
 10
4.7129
 20
60.7328
 30
0.0
 11
5.27099
 21
61.0168
 31
0.0
  0
LINE
  8
0
 62
     0
 10
5.27099
 20
61.0168
 30
0.0
 11
5.71334
 21
61.4592
 31
0.0
  0
LINE
  8
0
 62
     0
 10
5.71334
 20
61.4592
 30
0.0
 11
5.99722
 21
62.0173
 31
0.0
  0
LINE
  8
0
 62
     0
 10
5.99722
 20
62.0173
 30
0.0
 11
6.09505
 21
62.6346
 31
0.0
  0
LINE
  8
0
 62
     0
 10
6.09505
 20
62.6346
 30
0.0
 11
5.99722
 21
63.252
 31
0.0
  0
LINE
  8
0
 62
     0
 10
5.99722
 20
63.252
 30
0.0
 11
5.71334
 21
63.8101
 31
0.0
  0
LINE
  8
0
 62
     0
 10
5.71334
 20
63.8101
 30
0.0
 11
5.27099
 21
64.2525
 31
0.0
  0
LINE
  8
0
 62
     0
 10
5.27099
 20
64.2525
 30
0.0
 11
4.7129
 21
64.5365
 31
0.0
  0
LINE
  8
0
 62
     0
 10
4.7129
 20
64.5365
 30
0.0
 11
4.09416
 21
64.6342
 31
0.0
  0
LINE
  8
0
 62
     0
 10
4.09416
 20
64.6342
 30
0.0
 11
3.47679
 21
64.5365
 31
0.0
  0
LINE
  8
0
 62
     0
 10
416.479
 20
64.5365
 30
0.0
 11
415.921
 21
64.2525
 31
0.0
  0
LINE
  8
0
 62
     0
 10
415.921
 20
64.2525
 30
0.0
 11
415.477
 21
63.8101
 31
0.0
  0
LINE
  8
0
 62
     0
 10
415.477
 20
63.8101
 30
0.0
 11
415.195
 21
63.252
 31
0.0
  0
LINE
  8
0
 62
     0
 10
415.195
 20
63.252
 30
0.0
 11
415.096
 21
62.6346
 31
0.0
  0
LINE
  8
0
 62
     0
 10
415.096
 20
62.6346
 30
0.0
 11
415.195
 21
62.0173
 31
0.0
  0
LINE
  8
0
 62
     0
 10
415.195
 20
62.0173
 30
0.0
 11
415.477
 21
61.4592
 31
0.0
  0
LINE
  8
0
 62
     0
 10
415.477
 20
61.4592
 30
0.0
 11
415.921
 21
61.0168
 31
0.0
  0
LINE
  8
0
 62
     0
 10
415.921
 20
61.0168
 30
0.0
 11
416.479
 21
60.7328
 31
0.0
  0
LINE
  8
0
 62
     0
 10
416.479
 20
60.7328
 30
0.0
 11
417.096
 21
60.6351
 31
0.0
  0
LINE
  8
0
 62
     0
 10
417.096
 20
60.6351
 30
0.0
 11
417.714
 21
60.7328
 31
0.0
  0
LINE
  8
0
 62
     0
 10
417.714
 20
60.7328
 30
0.0
 11
418.271
 21
61.0168
 31
0.0
  0
LINE
  8
0
 62
     0
 10
418.271
 20
61.0168
 30
0.0
 11
418.715
 21
61.4592
 31
0.0
  0
LINE
  8
0
 62
     0
 10
418.715
 20
61.4592
 30
0.0
 11
418.998
 21
62.0173
 31
0.0
  0
LINE
  8
0
 62
     0
 10
418.998
 20
62.0173
 30
0.0
 11
419.096
 21
62.6346
 31
0.0
  0
LINE
  8
0
 62
     0
 10
419.096
 20
62.6346
 30
0.0
 11
418.998
 21
63.252
 31
0.0
  0
LINE
  8
0
 62
     0
 10
418.998
 20
63.252
 30
0.0
 11
418.715
 21
63.8101
 31
0.0
  0
LINE
  8
0
 62
     0
 10
418.715
 20
63.8101
 30
0.0
 11
418.271
 21
64.2525
 31
0.0
  0
LINE
  8
0
 62
     0
 10
418.271
 20
64.2525
 30
0.0
 11
417.714
 21
64.5365
 31
0.0
  0
LINE
  8
0
 62
     0
 10
417.714
 20
64.5365
 30
0.0
 11
417.096
 21
64.6342
 31
0.0
  0
LINE
  8
0
 62
     0
 10
417.096
 20
64.6342
 30
0.0
 11
416.479
 21
64.5365
 31
0.0
  0
LINE
  8
0
 62
     0
 10
3.47679
 20
123.044
 30
0.0
 11
2.92006
 21
122.76
 31
0.0
  0
LINE
  8
0
 62
     0
 10
2.92006
 20
122.76
 30
0.0
 11
2.47633
 21
122.316
 31
0.0
  0
LINE
  8
0
 62
     0
 10
2.47633
 20
122.316
 30
0.0
 11
2.19246
 21
121.759
 31
0.0
  0
LINE
  8
0
 62
     0
 10
2.19246
 20
121.759
 30
0.0
 11
2.09462
 21
121.141
 31
0.0
  0
LINE
  8
0
 62
     0
 10
2.09462
 20
121.141
 30
0.0
 11
2.19246
 21
120.523
 31
0.0
  0
LINE
  8
0
 62
     0
 10
2.19246
 20
120.523
 30
0.0
 11
2.47633
 21
119.965
 31
0.0
  0
LINE
  8
0
 62
     0
 10
2.47633
 20
119.965
 30
0.0
 11
2.92006
 21
119.523
 31
0.0
  0
LINE
  8
0
 62
     0
 10
2.92006
 20
119.523
 30
0.0
 11
3.47679
 21
119.239
 31
0.0
  0
LINE
  8
0
 62
     0
 10
3.47679
 20
119.239
 30
0.0
 11
4.09416
 21
119.141
 31
0.0
  0
LINE
  8
0
 62
     0
 10
4.09416
 20
119.141
 30
0.0
 11
4.7129
 21
119.239
 31
0.0
  0
LINE
  8
0
 62
     0
 10
4.7129
 20
119.239
 30
0.0
 11
5.27099
 21
119.523
 31
0.0
  0
LINE
  8
0
 62
     0
 10
5.27099
 20
119.523
 30
0.0
 11
5.71334
 21
119.965
 31
0.0
  0
LINE
  8
0
 62
     0
 10
5.71334
 20
119.965
 30
0.0
 11
5.99722
 21
120.523
 31
0.0
  0
LINE
  8
0
 62
     0
 10
5.99722
 20
120.523
 30
0.0
 11
6.09505
 21
121.141
 31
0.0
  0
LINE
  8
0
 62
     0
 10
6.09505
 20
121.141
 30
0.0
 11
5.99722
 21
121.759
 31
0.0
  0
LINE
  8
0
 62
     0
 10
5.99722
 20
121.759
 30
0.0
 11
5.71334
 21
122.316
 31
0.0
  0
LINE
  8
0
 62
     0
 10
5.71334
 20
122.316
 30
0.0
 11
5.27099
 21
122.76
 31
0.0
  0
LINE
  8
0
 62
     0
 10
5.27099
 20
122.76
 30
0.0
 11
4.7129
 21
123.044
 31
0.0
  0
LINE
  8
0
 62
     0
 10
4.7129
 20
123.044
 30
0.0
 11
4.09416
 21
123.14
 31
0.0
  0
LINE
  8
0
 62
     0
 10
4.09416
 20
123.14
 30
0.0
 11
3.47679
 21
123.044
 31
0.0
  0
LINE
  8
0
 62
     0
 10
416.479
 20
123.044
 30
0.0
 11
415.921
 21
122.76
 31
0.0
  0
LINE
  8
0
 62
     0
 10
415.921
 20
122.76
 30
0.0
 11
415.477
 21
122.316
 31
0.0
  0
LINE
  8
0
 62
     0
 10
415.477
 20
122.316
 30
0.0
 11
415.195
 21
121.759
 31
0.0
  0
LINE
  8
0
 62
     0
 10
415.195
 20
121.759
 30
0.0
 11
415.096
 21
121.141
 31
0.0
  0
LINE
  8
0
 62
     0
 10
415.096
 20
121.141
 30
0.0
 11
415.195
 21
120.523
 31
0.0
  0
LINE
  8
0
 62
     0
 10
415.195
 20
120.523
 30
0.0
 11
415.477
 21
119.965
 31
0.0
  0
LINE
  8
0
 62
     0
 10
415.477
 20
119.965
 30
0.0
 11
415.921
 21
119.523
 31
0.0
  0
LINE
  8
0
 62
     0
 10
415.921
 20
119.523
 30
0.0
 11
416.479
 21
119.239
 31
0.0
  0
LINE
  8
0
 62
     0
 10
416.479
 20
119.239
 30
0.0
 11
417.096
 21
119.141
 31
0.0
  0
LINE
  8
0
 62
     0
 10
417.096
 20
119.141
 30
0.0
 11
417.714
 21
119.239
 31
0.0
  0
LINE
  8
0
 62
     0
 10
417.714
 20
119.239
 30
0.0
 11
418.271
 21
119.523
 31
0.0
  0
LINE
  8
0
 62
     0
 10
418.271
 20
119.523
 30
0.0
 11
418.715
 21
119.965
 31
0.0
  0
LINE
  8
0
 62
     0
 10
418.715
 20
119.965
 30
0.0
 11
418.998
 21
120.523
 31
0.0
  0
LINE
  8
0
 62
     0
 10
418.998
 20
120.523
 30
0.0
 11
419.096
 21
121.141
 31
0.0
  0
LINE
  8
0
 62
     0
 10
419.096
 20
121.141
 30
0.0
 11
418.998
 21
121.759
 31
0.0
  0
LINE
  8
0
 62
     0
 10
418.998
 20
121.759
 30
0.0
 11
418.715
 21
122.316
 31
0.0
  0
LINE
  8
0
 62
     0
 10
418.715
 20
122.316
 30
0.0
 11
418.271
 21
122.76
 31
0.0
  0
LINE
  8
0
 62
     0
 10
418.271
 20
122.76
 30
0.0
 11
417.714
 21
123.044
 31
0.0
  0
LINE
  8
0
 62
     0
 10
417.714
 20
123.044
 30
0.0
 11
417.096
 21
123.14
 31
0.0
  0
LINE
  8
0
 62
     0
 10
417.096
 20
123.14
 30
0.0
 11
416.479
 21
123.044
 31
0.0
  0
LINE
  8
0
 62
     0
 10
313.228
 20
123.044
 30
0.0
 11
312.67
 21
122.76
 31
0.0
  0
LINE
  8
0
 62
     0
 10
312.67
 20
122.76
 30
0.0
 11
312.228
 21
122.316
 31
0.0
  0
LINE
  8
0
 62
     0
 10
312.228
 20
122.316
 30
0.0
 11
311.944
 21
121.759
 31
0.0
  0
LINE
  8
0
 62
     0
 10
311.944
 20
121.759
 30
0.0
 11
311.846
 21
121.141
 31
0.0
  0
LINE
  8
0
 62
     0
 10
311.846
 20
121.141
 30
0.0
 11
311.944
 21
120.523
 31
0.0
  0
LINE
  8
0
 62
     0
 10
311.944
 20
120.523
 30
0.0
 11
312.228
 21
119.965
 31
0.0
  0
LINE
  8
0
 62
     0
 10
312.228
 20
119.965
 30
0.0
 11
312.67
 21
119.523
 31
0.0
  0
LINE
  8
0
 62
     0
 10
312.67
 20
119.523
 30
0.0
 11
313.228
 21
119.239
 31
0.0
  0
LINE
  8
0
 62
     0
 10
313.228
 20
119.239
 30
0.0
 11
313.846
 21
119.141
 31
0.0
  0
LINE
  8
0
 62
     0
 10
313.846
 20
119.141
 30
0.0
 11
314.464
 21
119.239
 31
0.0
  0
LINE
  8
0
 62
     0
 10
314.464
 20
119.239
 30
0.0
 11
315.021
 21
119.523
 31
0.0
  0
LINE
  8
0
 62
     0
 10
315.021
 20
119.523
 30
0.0
 11
315.463
 21
119.965
 31
0.0
  0
LINE
  8
0
 62
     0
 10
315.463
 20
119.965
 30
0.0
 11
315.747
 21
120.523
 31
0.0
  0
LINE
  8
0
 62
     0
 10
315.747
 20
120.523
 30
0.0
 11
315.845
 21
121.141
 31
0.0
  0
LINE
  8
0
 62
     0
 10
315.845
 20
121.141
 30
0.0
 11
315.747
 21
121.759
 31
0.0
  0
LINE
  8
0
 62
     0
 10
315.747
 20
121.759
 30
0.0
 11
315.463
 21
122.316
 31
0.0
  0
LINE
  8
0
 62
     0
 10
315.463
 20
122.316
 30
0.0
 11
315.021
 21
122.76
 31
0.0
  0
LINE
  8
0
 62
     0
 10
315.021
 20
122.76
 30
0.0
 11
314.464
 21
123.044
 31
0.0
  0
LINE
  8
0
 62
     0
 10
314.464
 20
123.044
 30
0.0
 11
313.846
 21
123.14
 31
0.0
  0
LINE
  8
0
 62
     0
 10
313.846
 20
123.14
 30
0.0
 11
313.228
 21
123.044
 31
0.0
  0
LINE
  8
0
 62
     0
 10
106.728
 20
123.044
 30
0.0
 11
106.17
 21
122.76
 31
0.0
  0
LINE
  8
0
 62
     0
 10
106.17
 20
122.76
 30
0.0
 11
105.727
 21
122.316
 31
0.0
  0
LINE
  8
0
 62
     0
 10
105.727
 20
122.316
 30
0.0
 11
105.444
 21
121.759
 31
0.0
  0
LINE
  8
0
 62
     0
 10
105.444
 20
121.759
 30
0.0
 11
105.345
 21
121.141
 31
0.0
  0
LINE
  8
0
 62
     0
 10
105.345
 20
121.141
 30
0.0
 11
105.444
 21
120.523
 31
0.0
  0
LINE
  8
0
 62
     0
 10
105.444
 20
120.523
 30
0.0
 11
105.727
 21
119.965
 31
0.0
  0
LINE
  8
0
 62
     0
 10
105.727
 20
119.965
 30
0.0
 11
106.17
 21
119.523
 31
0.0
  0
LINE
  8
0
 62
     0
 10
106.17
 20
119.523
 30
0.0
 11
106.728
 21
119.239
 31
0.0
  0
LINE
  8
0
 62
     0
 10
106.728
 20
119.239
 30
0.0
 11
107.345
 21
119.141
 31
0.0
  0
LINE
  8
0
 62
     0
 10
107.345
 20
119.141
 30
0.0
 11
107.964
 21
119.239
 31
0.0
  0
LINE
  8
0
 62
     0
 10
107.964
 20
119.239
 30
0.0
 11
108.52
 21
119.523
 31
0.0
  0
LINE
  8
0
 62
     0
 10
108.52
 20
119.523
 30
0.0
 11
108.963
 21
119.965
 31
0.0
  0
LINE
  8
0
 62
     0
 10
108.963
 20
119.965
 30
0.0
 11
109.248
 21
120.523
 31
0.0
  0
LINE
  8
0
 62
     0
 10
109.248
 20
120.523
 30
0.0
 11
109.346
 21
121.141
 31
0.0
  0
LINE
  8
0
 62
     0
 10
109.346
 20
121.141
 30
0.0
 11
109.248
 21
121.759
 31
0.0
  0
LINE
  8
0
 62
     0
 10
109.248
 20
121.759
 30
0.0
 11
108.963
 21
122.316
 31
0.0
  0
LINE
  8
0
 62
     0
 10
108.963
 20
122.316
 30
0.0
 11
108.52
 21
122.76
 31
0.0
  0
LINE
  8
0
 62
     0
 10
108.52
 20
122.76
 30
0.0
 11
107.964
 21
123.044
 31
0.0
  0
LINE
  8
0
 62
     0
 10
107.964
 20
123.044
 30
0.0
 11
107.345
 21
123.14
 31
0.0
  0
LINE
  8
0
 62
     0
 10
107.345
 20
123.14
 30
0.0
 11
106.728
 21
123.044
 31
0.0
  0
ENDSEC
  0
EOF
