  0
SECTION
  2
HEADER
  9
$ACADVER
  1
AC1009
  9
$EXTMIN
 10
0.0
 20
0.0
 30
0.0
  9
$EXTMAX
 10
1000.0
 20
1000.0
 30
0.0
  9
$FILLMODE
 70
 0
  9
$SPLFRAME
 70
 1
  0
ENDSEC
  0
SECTION
  2
TABLES
  0
TABLE
  2
LAYER
 70
1
  0
LAYER
  2
0
 70
     0
 62
     7
  6
CONTINUOUS
  0
ENDTAB
  0
ENDSEC
  0
SECTION
  2
ENTITIES
  0
LINE
  8
0
 62
     0
 10
418.098
 20
125.141
 30
0.0
 11
418.331
 21
125.131
 31
0.0
  0
LINE
  8
0
 62
     0
 10
418.331
 20
125.131
 30
0.0
 11
418.564
 21
125.105
 31
0.0
  0
LINE
  8
0
 62
     0
 10
418.564
 20
125.105
 30
0.0
 11
418.797
 21
125.058
 31
0.0
  0
LINE
  8
0
 62
     0
 10
418.797
 20
125.058
 30
0.0
 11
419.022
 21
124.995
 31
0.0
  0
LINE
  8
0
 62
     0
 10
419.022
 20
124.995
 30
0.0
 11
419.245
 21
124.912
 31
0.0
  0
LINE
  8
0
 62
     0
 10
419.245
 20
124.912
 30
0.0
 11
419.456
 21
124.815
 31
0.0
  0
LINE
  8
0
 62
     0
 10
419.456
 20
124.815
 30
0.0
 11
419.664
 21
124.699
 31
0.0
  0
LINE
  8
0
 62
     0
 10
419.664
 20
124.699
 30
0.0
 11
419.858
 21
124.569
 31
0.0
  0
LINE
  8
0
 62
     0
 10
419.858
 20
124.569
 30
0.0
 11
420.045
 21
124.423
 31
0.0
  0
LINE
  8
0
 62
     0
 10
420.045
 20
124.423
 30
0.0
 11
420.218
 21
124.263
 31
0.0
  0
LINE
  8
0
 62
     0
 10
420.218
 20
124.263
 30
0.0
 11
420.377
 21
124.09
 31
0.0
  0
LINE
  8
0
 62
     0
 10
420.377
 20
124.09
 30
0.0
 11
420.525
 21
123.905
 31
0.0
  0
LINE
  8
0
 62
     0
 10
420.525
 20
123.905
 30
0.0
 11
420.652
 21
123.709
 31
0.0
  0
LINE
  8
0
 62
     0
 10
420.652
 20
123.709
 30
0.0
 11
420.769
 21
123.503
 31
0.0
  0
LINE
  8
0
 62
     0
 10
420.769
 20
123.503
 30
0.0
 11
420.867
 21
123.289
 31
0.0
  0
LINE
  8
0
 62
     0
 10
420.867
 20
123.289
 30
0.0
 11
420.949
 21
123.068
 31
0.0
  0
LINE
  8
0
 62
     0
 10
420.949
 20
123.068
 30
0.0
 11
421.016
 21
122.841
 31
0.0
  0
LINE
  8
0
 62
     0
 10
421.016
 20
122.841
 30
0.0
 11
421.058
 21
122.611
 31
0.0
  0
LINE
  8
0
 62
     0
 10
421.058
 20
122.611
 30
0.0
 11
421.086
 21
122.377
 31
0.0
  0
LINE
  8
0
 62
     0
 10
421.086
 20
122.377
 30
0.0
 11
421.097
 21
122.141
 31
0.0
  0
LINE
  8
0
 62
     0
 10
421.097
 20
122.141
 30
0.0
 11
421.097
 21
3.12815
 31
0.0
  0
LINE
  8
0
 62
     0
 10
421.097
 20
3.12815
 30
0.0
 11
421.086
 21
2.8925
 31
0.0
  0
LINE
  8
0
 62
     0
 10
421.086
 20
2.8925
 30
0.0
 11
421.058
 21
2.65824
 31
0.0
  0
LINE
  8
0
 62
     0
 10
421.058
 20
2.65824
 30
0.0
 11
421.016
 21
2.4281
 31
0.0
  0
LINE
  8
0
 62
     0
 10
421.016
 20
2.4281
 30
0.0
 11
420.949
 21
2.20073
 31
0.0
  0
LINE
  8
0
 62
     0
 10
420.949
 20
2.20073
 30
0.0
 11
420.867
 21
1.98024
 31
0.0
  0
LINE
  8
0
 62
     0
 10
420.867
 20
1.98024
 30
0.0
 11
420.769
 21
1.76527
 31
0.0
  0
LINE
  8
0
 62
     0
 10
420.769
 20
1.76527
 30
0.0
 11
420.652
 21
1.55994
 31
0.0
  0
LINE
  8
0
 62
     0
 10
420.652
 20
1.55994
 30
0.0
 11
420.525
 21
1.36426
 31
0.0
  0
LINE
  8
0
 62
     0
 10
420.525
 20
1.36426
 30
0.0
 11
420.377
 21
1.1796
 31
0.0
  0
LINE
  8
0
 62
     0
 10
420.377
 20
1.1796
 30
0.0
 11
420.218
 21
1.00735
 31
0.0
  0
LINE
  8
0
 62
     0
 10
420.218
 20
1.00735
 30
0.0
 11
420.045
 21
0.846116
 31
0.0
  0
LINE
  8
0
 62
     0
 10
420.045
 20
0.846116
 30
0.0
 11
419.858
 21
0.700045
 31
0.0
  0
LINE
  8
0
 62
     0
 10
419.858
 20
0.700045
 30
0.0
 11
419.664
 21
0.569129
 31
0.0
  0
LINE
  8
0
 62
     0
 10
419.664
 20
0.569129
 30
0.0
 11
419.456
 21
0.454752
 31
0.0
  0
LINE
  8
0
 62
     0
 10
419.456
 20
0.454752
 30
0.0
 11
419.245
 21
0.355533
 31
0.0
  0
LINE
  8
0
 62
     0
 10
419.245
 20
0.355533
 30
0.0
 11
419.022
 21
0.27423
 31
0.0
  0
LINE
  8
0
 62
     0
 10
419.022
 20
0.27423
 30
0.0
 11
418.797
 21
0.21084
 31
0.0
  0
LINE
  8
0
 62
     0
 10
418.797
 20
0.21084
 30
0.0
 11
418.564
 21
0.163987
 31
0.0
  0
LINE
  8
0
 62
     0
 10
418.564
 20
0.163987
 30
0.0
 11
418.331
 21
0.139182
 31
0.0
  0
LINE
  8
0
 62
     0
 10
418.331
 20
0.139182
 30
0.0
 11
418.098
 21
0.128157
 31
0.0
  0
LINE
  8
0
 62
     0
 10
418.098
 20
0.128157
 30
0.0
 11
3.09507
 21
0.128157
 31
0.0
  0
LINE
  8
0
 62
     0
 10
3.09507
 20
0.128157
 30
0.0
 11
2.85943
 21
0.139182
 31
0.0
  0
LINE
  8
0
 62
     0
 10
2.85943
 20
0.139182
 30
0.0
 11
2.62516
 21
0.163987
 31
0.0
  0
LINE
  8
0
 62
     0
 10
2.62516
 20
0.163987
 30
0.0
 11
2.39503
 21
0.21084
 31
0.0
  0
LINE
  8
0
 62
     0
 10
2.39503
 20
0.21084
 30
0.0
 11
2.16765
 21
0.27423
 31
0.0
  0
LINE
  8
0
 62
     0
 10
2.16765
 20
0.27423
 30
0.0
 11
1.94717
 21
0.355533
 31
0.0
  0
LINE
  8
0
 62
     0
 10
1.94717
 20
0.355533
 30
0.0
 11
1.73357
 21
0.454752
 31
0.0
  0
LINE
  8
0
 62
     0
 10
1.73357
 20
0.454752
 30
0.0
 11
1.52687
 21
0.569129
 31
0.0
  0
LINE
  8
0
 62
     0
 10
1.52687
 20
0.569129
 30
0.0
 11
1.33119
 21
0.700045
 31
0.0
  0
LINE
  8
0
 62
     0
 10
1.33119
 20
0.700045
 30
0.0
 11
1.14653
 21
0.846116
 31
0.0
  0
LINE
  8
0
 62
     0
 10
1.14653
 20
0.846116
 30
0.0
 11
0.972894
 21
1.00735
 31
0.0
  0
LINE
  8
0
 62
     0
 10
0.972894
 20
1.00735
 30
0.0
 11
0.813043
 21
1.1796
 31
0.0
  0
LINE
  8
0
 62
     0
 10
0.813043
 20
1.1796
 30
0.0
 11
0.666972
 21
1.36426
 31
0.0
  0
LINE
  8
0
 62
     0
 10
0.666972
 20
1.36426
 30
0.0
 11
0.537436
 21
1.55994
 31
0.0
  0
LINE
  8
0
 62
     0
 10
0.537436
 20
1.55994
 30
0.0
 11
0.421679
 21
1.76527
 31
0.0
  0
LINE
  8
0
 62
     0
 10
0.421679
 20
1.76527
 30
0.0
 11
0.323839
 21
1.98024
 31
0.0
  0
LINE
  8
0
 62
     0
 10
0.323839
 20
1.98024
 30
0.0
 11
0.241157
 21
2.20073
 31
0.0
  0
LINE
  8
0
 62
     0
 10
0.241157
 20
2.20073
 30
0.0
 11
0.177767
 21
2.4281
 31
0.0
  0
LINE
  8
0
 62
     0
 10
0.177767
 20
2.4281
 30
0.0
 11
0.130914
 21
2.65824
 31
0.0
  0
LINE
  8
0
 62
     0
 10
0.130914
 20
2.65824
 30
0.0
 11
0.104731
 21
2.8925
 31
0.0
  0
LINE
  8
0
 62
     0
 10
0.104731
 20
2.8925
 30
0.0
 11
0.0950846
 21
3.12815
 31
0.0
  0
LINE
  8
0
 62
     0
 10
0.0950846
 20
3.12815
 30
0.0
 11
0.0950846
 21
122.141
 31
0.0
  0
LINE
  8
0
 62
     0
 10
0.0950846
 20
122.141
 30
0.0
 11
0.104731
 21
122.377
 31
0.0
  0
LINE
  8
0
 62
     0
 10
0.104731
 20
122.377
 30
0.0
 11
0.130914
 21
122.611
 31
0.0
  0
LINE
  8
0
 62
     0
 10
0.130914
 20
122.611
 30
0.0
 11
0.177767
 21
122.841
 31
0.0
  0
LINE
  8
0
 62
     0
 10
0.177767
 20
122.841
 30
0.0
 11
0.241157
 21
123.068
 31
0.0
  0
LINE
  8
0
 62
     0
 10
0.241157
 20
123.068
 30
0.0
 11
0.323839
 21
123.289
 31
0.0
  0
LINE
  8
0
 62
     0
 10
0.323839
 20
123.289
 30
0.0
 11
0.421679
 21
123.503
 31
0.0
  0
LINE
  8
0
 62
     0
 10
0.421679
 20
123.503
 30
0.0
 11
0.537436
 21
123.709
 31
0.0
  0
LINE
  8
0
 62
     0
 10
0.537436
 20
123.709
 30
0.0
 11
0.666972
 21
123.905
 31
0.0
  0
LINE
  8
0
 62
     0
 10
0.666972
 20
123.905
 30
0.0
 11
0.813043
 21
124.09
 31
0.0
  0
LINE
  8
0
 62
     0
 10
0.813043
 20
124.09
 30
0.0
 11
0.972894
 21
124.263
 31
0.0
  0
LINE
  8
0
 62
     0
 10
0.972894
 20
124.263
 30
0.0
 11
1.14653
 21
124.423
 31
0.0
  0
LINE
  8
0
 62
     0
 10
1.14653
 20
124.423
 30
0.0
 11
1.33119
 21
124.569
 31
0.0
  0
LINE
  8
0
 62
     0
 10
1.33119
 20
124.569
 30
0.0
 11
1.52687
 21
124.699
 31
0.0
  0
LINE
  8
0
 62
     0
 10
1.52687
 20
124.699
 30
0.0
 11
1.73357
 21
124.815
 31
0.0
  0
LINE
  8
0
 62
     0
 10
1.73357
 20
124.815
 30
0.0
 11
1.94717
 21
124.912
 31
0.0
  0
LINE
  8
0
 62
     0
 10
1.94717
 20
124.912
 30
0.0
 11
2.16765
 21
124.995
 31
0.0
  0
LINE
  8
0
 62
     0
 10
2.16765
 20
124.995
 30
0.0
 11
2.39503
 21
125.058
 31
0.0
  0
LINE
  8
0
 62
     0
 10
2.39503
 20
125.058
 30
0.0
 11
2.62516
 21
125.105
 31
0.0
  0
LINE
  8
0
 62
     0
 10
2.62516
 20
125.105
 30
0.0
 11
2.85943
 21
125.131
 31
0.0
  0
LINE
  8
0
 62
     0
 10
2.85943
 20
125.131
 30
0.0
 11
3.09507
 21
125.141
 31
0.0
  0
LINE
  8
0
 62
     0
 10
3.09507
 20
125.141
 30
0.0
 11
418.098
 21
125.141
 31
0.0
  0
LINE
  8
0
 62
     0
 10
3.47679
 20
6.03031
 30
0.0
 11
2.92006
 21
5.74506
 31
0.0
  0
LINE
  8
0
 62
     0
 10
2.92006
 20
5.74506
 30
0.0
 11
2.47633
 21
5.30408
 31
0.0
  0
LINE
  8
0
 62
     0
 10
2.47633
 20
5.30408
 30
0.0
 11
2.19246
 21
4.74595
 31
0.0
  0
LINE
  8
0
 62
     0
 10
2.19246
 20
4.74595
 30
0.0
 11
2.09462
 21
4.12722
 31
0.0
  0
LINE
  8
0
 62
     0
 10
2.09462
 20
4.12722
 30
0.0
 11
2.19246
 21
3.50986
 31
0.0
  0
LINE
  8
0
 62
     0
 10
2.19246
 20
3.50986
 30
0.0
 11
2.47633
 21
2.95176
 31
0.0
  0
LINE
  8
0
 62
     0
 10
2.47633
 20
2.95176
 30
0.0
 11
2.92006
 21
2.50941
 31
0.0
  0
LINE
  8
0
 62
     0
 10
2.92006
 20
2.50941
 30
0.0
 11
3.47679
 21
2.22553
 31
0.0
  0
LINE
  8
0
 62
     0
 10
3.47679
 20
2.22553
 30
0.0
 11
4.09416
 21
2.12769
 31
0.0
  0
LINE
  8
0
 62
     0
 10
4.09416
 20
2.12769
 30
0.0
 11
4.7129
 21
2.22553
 31
0.0
  0
LINE
  8
0
 62
     0
 10
4.7129
 20
2.22553
 30
0.0
 11
5.27099
 21
2.50941
 31
0.0
  0
LINE
  8
0
 62
     0
 10
5.27099
 20
2.50941
 30
0.0
 11
5.71334
 21
2.95176
 31
0.0
  0
LINE
  8
0
 62
     0
 10
5.71334
 20
2.95176
 30
0.0
 11
5.99722
 21
3.50986
 31
0.0
  0
LINE
  8
0
 62
     0
 10
5.99722
 20
3.50986
 30
0.0
 11
6.09505
 21
4.12722
 31
0.0
  0
LINE
  8
0
 62
     0
 10
6.09505
 20
4.12722
 30
0.0
 11
5.99722
 21
4.74595
 31
0.0
  0
LINE
  8
0
 62
     0
 10
5.99722
 20
4.74595
 30
0.0
 11
5.71334
 21
5.30408
 31
0.0
  0
LINE
  8
0
 62
     0
 10
5.71334
 20
5.30408
 30
0.0
 11
5.27099
 21
5.74506
 31
0.0
  0
LINE
  8
0
 62
     0
 10
5.27099
 20
5.74506
 30
0.0
 11
4.7129
 21
6.03031
 31
0.0
  0
LINE
  8
0
 62
     0
 10
4.7129
 20
6.03031
 30
0.0
 11
4.09416
 21
6.12814
 31
0.0
  0
LINE
  8
0
 62
     0
 10
4.09416
 20
6.12814
 30
0.0
 11
3.47679
 21
6.03031
 31
0.0
  0
LINE
  8
0
 62
     0
 10
106.728
 20
6.03031
 30
0.0
 11
106.17
 21
5.74506
 31
0.0
  0
LINE
  8
0
 62
     0
 10
106.17
 20
5.74506
 30
0.0
 11
105.727
 21
5.30408
 31
0.0
  0
LINE
  8
0
 62
     0
 10
105.727
 20
5.30408
 30
0.0
 11
105.444
 21
4.74595
 31
0.0
  0
LINE
  8
0
 62
     0
 10
105.444
 20
4.74595
 30
0.0
 11
105.345
 21
4.12722
 31
0.0
  0
LINE
  8
0
 62
     0
 10
105.345
 20
4.12722
 30
0.0
 11
105.444
 21
3.50986
 31
0.0
  0
LINE
  8
0
 62
     0
 10
105.444
 20
3.50986
 30
0.0
 11
105.727
 21
2.95176
 31
0.0
  0
LINE
  8
0
 62
     0
 10
105.727
 20
2.95176
 30
0.0
 11
106.17
 21
2.50941
 31
0.0
  0
LINE
  8
0
 62
     0
 10
106.17
 20
2.50941
 30
0.0
 11
106.728
 21
2.22553
 31
0.0
  0
LINE
  8
0
 62
     0
 10
106.728
 20
2.22553
 30
0.0
 11
107.345
 21
2.12769
 31
0.0
  0
LINE
  8
0
 62
     0
 10
107.345
 20
2.12769
 30
0.0
 11
107.964
 21
2.22553
 31
0.0
  0
LINE
  8
0
 62
     0
 10
107.964
 20
2.22553
 30
0.0
 11
108.52
 21
2.50941
 31
0.0
  0
LINE
  8
0
 62
     0
 10
108.52
 20
2.50941
 30
0.0
 11
108.963
 21
2.95176
 31
0.0
  0
LINE
  8
0
 62
     0
 10
108.963
 20
2.95176
 30
0.0
 11
109.248
 21
3.50986
 31
0.0
  0
LINE
  8
0
 62
     0
 10
109.248
 20
3.50986
 30
0.0
 11
109.346
 21
4.12722
 31
0.0
  0
LINE
  8
0
 62
     0
 10
109.346
 20
4.12722
 30
0.0
 11
109.248
 21
4.74595
 31
0.0
  0
LINE
  8
0
 62
     0
 10
109.248
 20
4.74595
 30
0.0
 11
108.963
 21
5.30408
 31
0.0
  0
LINE
  8
0
 62
     0
 10
108.963
 20
5.30408
 30
0.0
 11
108.52
 21
5.74506
 31
0.0
  0
LINE
  8
0
 62
     0
 10
108.52
 20
5.74506
 30
0.0
 11
107.964
 21
6.03031
 31
0.0
  0
LINE
  8
0
 62
     0
 10
107.964
 20
6.03031
 30
0.0
 11
107.345
 21
6.12814
 31
0.0
  0
LINE
  8
0
 62
     0
 10
107.345
 20
6.12814
 30
0.0
 11
106.728
 21
6.03031
 31
0.0
  0
LINE
  8
0
 62
     0
 10
209.977
 20
6.03031
 30
0.0
 11
209.419
 21
5.74506
 31
0.0
  0
LINE
  8
0
 62
     0
 10
209.419
 20
5.74506
 30
0.0
 11
208.978
 21
5.30408
 31
0.0
  0
LINE
  8
0
 62
     0
 10
208.978
 20
5.30408
 30
0.0
 11
208.693
 21
4.74595
 31
0.0
  0
LINE
  8
0
 62
     0
 10
208.693
 20
4.74595
 30
0.0
 11
208.595
 21
4.12722
 31
0.0
  0
LINE
  8
0
 62
     0
 10
208.595
 20
4.12722
 30
0.0
 11
208.693
 21
3.50986
 31
0.0
  0
LINE
  8
0
 62
     0
 10
208.693
 20
3.50986
 30
0.0
 11
208.978
 21
2.95176
 31
0.0
  0
LINE
  8
0
 62
     0
 10
208.978
 20
2.95176
 30
0.0
 11
209.419
 21
2.50941
 31
0.0
  0
LINE
  8
0
 62
     0
 10
209.419
 20
2.50941
 30
0.0
 11
209.977
 21
2.22553
 31
0.0
  0
LINE
  8
0
 62
     0
 10
209.977
 20
2.22553
 30
0.0
 11
210.596
 21
2.12769
 31
0.0
  0
LINE
  8
0
 62
     0
 10
210.596
 20
2.12769
 30
0.0
 11
211.213
 21
2.22553
 31
0.0
  0
LINE
  8
0
 62
     0
 10
211.213
 20
2.22553
 30
0.0
 11
211.771
 21
2.50941
 31
0.0
  0
LINE
  8
0
 62
     0
 10
211.771
 20
2.50941
 30
0.0
 11
212.214
 21
2.95176
 31
0.0
  0
LINE
  8
0
 62
     0
 10
212.214
 20
2.95176
 30
0.0
 11
212.497
 21
3.50986
 31
0.0
  0
LINE
  8
0
 62
     0
 10
212.497
 20
3.50986
 30
0.0
 11
212.596
 21
4.12722
 31
0.0
  0
LINE
  8
0
 62
     0
 10
212.596
 20
4.12722
 30
0.0
 11
212.497
 21
4.74595
 31
0.0
  0
LINE
  8
0
 62
     0
 10
212.497
 20
4.74595
 30
0.0
 11
212.214
 21
5.30408
 31
0.0
  0
LINE
  8
0
 62
     0
 10
212.214
 20
5.30408
 30
0.0
 11
211.771
 21
5.74506
 31
0.0
  0
LINE
  8
0
 62
     0
 10
211.771
 20
5.74506
 30
0.0
 11
211.213
 21
6.03031
 31
0.0
  0
LINE
  8
0
 62
     0
 10
211.213
 20
6.03031
 30
0.0
 11
210.596
 21
6.12814
 31
0.0
  0
LINE
  8
0
 62
     0
 10
210.596
 20
6.12814
 30
0.0
 11
209.977
 21
6.03031
 31
0.0
  0
LINE
  8
0
 62
     0
 10
313.228
 20
6.03031
 30
0.0
 11
312.67
 21
5.74506
 31
0.0
  0
LINE
  8
0
 62
     0
 10
312.67
 20
5.74506
 30
0.0
 11
312.228
 21
5.30408
 31
0.0
  0
LINE
  8
0
 62
     0
 10
312.228
 20
5.30408
 30
0.0
 11
311.944
 21
4.74595
 31
0.0
  0
LINE
  8
0
 62
     0
 10
311.944
 20
4.74595
 30
0.0
 11
311.846
 21
4.12722
 31
0.0
  0
LINE
  8
0
 62
     0
 10
311.846
 20
4.12722
 30
0.0
 11
311.944
 21
3.50986
 31
0.0
  0
LINE
  8
0
 62
     0
 10
311.944
 20
3.50986
 30
0.0
 11
312.228
 21
2.95176
 31
0.0
  0
LINE
  8
0
 62
     0
 10
312.228
 20
2.95176
 30
0.0
 11
312.67
 21
2.50941
 31
0.0
  0
LINE
  8
0
 62
     0
 10
312.67
 20
2.50941
 30
0.0
 11
313.228
 21
2.22553
 31
0.0
  0
LINE
  8
0
 62
     0
 10
313.228
 20
2.22553
 30
0.0
 11
313.846
 21
2.12769
 31
0.0
  0
LINE
  8
0
 62
     0
 10
313.846
 20
2.12769
 30
0.0
 11
314.464
 21
2.22553
 31
0.0
  0
LINE
  8
0
 62
     0
 10
314.464
 20
2.22553
 30
0.0
 11
315.021
 21
2.50941
 31
0.0
  0
LINE
  8
0
 62
     0
 10
315.021
 20
2.50941
 30
0.0
 11
315.463
 21
2.95176
 31
0.0
  0
LINE
  8
0
 62
     0
 10
315.463
 20
2.95176
 30
0.0
 11
315.747
 21
3.50986
 31
0.0
  0
LINE
  8
0
 62
     0
 10
315.747
 20
3.50986
 30
0.0
 11
315.845
 21
4.12722
 31
0.0
  0
LINE
  8
0
 62
     0
 10
315.845
 20
4.12722
 30
0.0
 11
315.747
 21
4.74595
 31
0.0
  0
LINE
  8
0
 62
     0
 10
315.747
 20
4.74595
 30
0.0
 11
315.463
 21
5.30408
 31
0.0
  0
LINE
  8
0
 62
     0
 10
315.463
 20
5.30408
 30
0.0
 11
315.021
 21
5.74506
 31
0.0
  0
LINE
  8
0
 62
     0
 10
315.021
 20
5.74506
 30
0.0
 11
314.464
 21
6.03031
 31
0.0
  0
LINE
  8
0
 62
     0
 10
314.464
 20
6.03031
 30
0.0
 11
313.846
 21
6.12814
 31
0.0
  0
LINE
  8
0
 62
     0
 10
313.846
 20
6.12814
 30
0.0
 11
313.228
 21
6.03031
 31
0.0
  0
LINE
  8
0
 62
     0
 10
416.479
 20
6.03031
 30
0.0
 11
415.921
 21
5.74506
 31
0.0
  0
LINE
  8
0
 62
     0
 10
415.921
 20
5.74506
 30
0.0
 11
415.477
 21
5.30408
 31
0.0
  0
LINE
  8
0
 62
     0
 10
415.477
 20
5.30408
 30
0.0
 11
415.195
 21
4.74595
 31
0.0
  0
LINE
  8
0
 62
     0
 10
415.195
 20
4.74595
 30
0.0
 11
415.096
 21
4.12722
 31
0.0
  0
LINE
  8
0
 62
     0
 10
415.096
 20
4.12722
 30
0.0
 11
415.195
 21
3.50986
 31
0.0
  0
LINE
  8
0
 62
     0
 10
415.195
 20
3.50986
 30
0.0
 11
415.477
 21
2.95176
 31
0.0
  0
LINE
  8
0
 62
     0
 10
415.477
 20
2.95176
 30
0.0
 11
415.921
 21
2.50941
 31
0.0
  0
LINE
  8
0
 62
     0
 10
415.921
 20
2.50941
 30
0.0
 11
416.479
 21
2.22553
 31
0.0
  0
LINE
  8
0
 62
     0
 10
416.479
 20
2.22553
 30
0.0
 11
417.096
 21
2.12769
 31
0.0
  0
LINE
  8
0
 62
     0
 10
417.096
 20
2.12769
 30
0.0
 11
417.714
 21
2.22553
 31
0.0
  0
LINE
  8
0
 62
     0
 10
417.714
 20
2.22553
 30
0.0
 11
418.271
 21
2.50941
 31
0.0
  0
LINE
  8
0
 62
     0
 10
418.271
 20
2.50941
 30
0.0
 11
418.715
 21
2.95176
 31
0.0
  0
LINE
  8
0
 62
     0
 10
418.715
 20
2.95176
 30
0.0
 11
418.998
 21
3.50986
 31
0.0
  0
LINE
  8
0
 62
     0
 10
418.998
 20
3.50986
 30
0.0
 11
419.096
 21
4.12722
 31
0.0
  0
LINE
  8
0
 62
     0
 10
419.096
 20
4.12722
 30
0.0
 11
418.998
 21
4.74595
 31
0.0
  0
LINE
  8
0
 62
     0
 10
418.998
 20
4.74595
 30
0.0
 11
418.715
 21
5.30408
 31
0.0
  0
LINE
  8
0
 62
     0
 10
418.715
 20
5.30408
 30
0.0
 11
418.271
 21
5.74506
 31
0.0
  0
LINE
  8
0
 62
     0
 10
418.271
 20
5.74506
 30
0.0
 11
417.714
 21
6.03031
 31
0.0
  0
LINE
  8
0
 62
     0
 10
417.714
 20
6.03031
 30
0.0
 11
417.096
 21
6.12814
 31
0.0
  0
LINE
  8
0
 62
     0
 10
417.096
 20
6.12814
 30
0.0
 11
416.479
 21
6.03031
 31
0.0
  0
LINE
  8
0
 62
     0
 10
360.758
 20
26.654
 30
0.0
 11
374.756
 21
26.654
 31
0.0
  0
LINE
  8
0
 62
     0
 10
374.756
 20
26.654
 30
0.0
 11
374.756
 21
12.6532
 31
0.0
  0
LINE
  8
0
 62
     0
 10
374.756
 20
12.6532
 30
0.0
 11
360.758
 21
12.6532
 31
0.0
  0
LINE
  8
0
 62
     0
 10
360.758
 20
12.6532
 30
0.0
 11
360.758
 21
26.654
 31
0.0
  0
LINE
  8
0
 62
     0
 10
341.708
 20
26.654
 30
0.0
 11
355.706
 21
26.654
 31
0.0
  0
LINE
  8
0
 62
     0
 10
355.706
 20
26.654
 30
0.0
 11
355.706
 21
12.6532
 31
0.0
  0
LINE
  8
0
 62
     0
 10
355.706
 20
12.6532
 30
0.0
 11
341.708
 21
12.6532
 31
0.0
  0
LINE
  8
0
 62
     0
 10
341.708
 20
12.6532
 30
0.0
 11
341.708
 21
26.654
 31
0.0
  0
LINE
  8
0
 62
     0
 10
322.658
 20
26.654
 30
0.0
 11
336.658
 21
26.654
 31
0.0
  0
LINE
  8
0
 62
     0
 10
336.658
 20
26.654
 30
0.0
 11
336.658
 21
12.6532
 31
0.0
  0
LINE
  8
0
 62
     0
 10
336.658
 20
12.6532
 30
0.0
 11
322.658
 21
12.6532
 31
0.0
  0
LINE
  8
0
 62
     0
 10
322.658
 20
12.6532
 30
0.0
 11
322.658
 21
26.654
 31
0.0
  0
LINE
  8
0
 62
     0
 10
172.638
 20
31.4151
 30
0.0
 11
172.638
 21
26.716
 31
0.0
  0
LINE
  8
0
 62
     0
 10
172.638
 20
26.716
 30
0.0
 11
171.114
 21
26.716
 31
0.0
  0
LINE
  8
0
 62
     0
 10
171.114
 20
26.716
 30
0.0
 11
171.114
 21
29.9461
 31
0.0
  0
LINE
  8
0
 62
     0
 10
171.114
 20
29.9461
 30
0.0
 11
164.364
 21
29.9461
 31
0.0
  0
LINE
  8
0
 62
     0
 10
164.364
 20
29.9461
 30
0.0
 11
164.364
 21
26.716
 31
0.0
  0
LINE
  8
0
 62
     0
 10
164.364
 20
26.716
 30
0.0
 11
163.539
 21
26.716
 31
0.0
  0
LINE
  8
0
 62
     0
 10
163.539
 20
26.716
 30
0.0
 11
163.539
 21
23.9159
 31
0.0
  0
LINE
  8
0
 62
     0
 10
163.539
 20
23.9159
 30
0.0
 11
164.364
 21
23.9159
 31
0.0
  0
LINE
  8
0
 62
     0
 10
164.364
 20
23.9159
 30
0.0
 11
164.364
 21
17.6458
 31
0.0
  0
LINE
  8
0
 62
     0
 10
164.364
 20
17.6458
 30
0.0
 11
166.088
 21
17.6458
 31
0.0
  0
LINE
  8
0
 62
     0
 10
166.088
 20
17.6458
 30
0.0
 11
166.088
 21
16.4455
 31
0.0
  0
LINE
  8
0
 62
     0
 10
166.088
 20
16.4455
 30
0.0
 11
169.388
 21
16.4455
 31
0.0
  0
LINE
  8
0
 62
     0
 10
169.388
 20
16.4455
 30
0.0
 11
169.388
 21
17.6458
 31
0.0
  0
LINE
  8
0
 62
     0
 10
169.388
 20
17.6458
 30
0.0
 11
171.114
 21
17.6458
 31
0.0
  0
LINE
  8
0
 62
     0
 10
171.114
 20
17.6458
 30
0.0
 11
171.114
 21
22.1161
 31
0.0
  0
LINE
  8
0
 62
     0
 10
171.114
 20
22.1161
 30
0.0
 11
172.638
 21
22.1161
 31
0.0
  0
LINE
  8
0
 62
     0
 10
172.638
 20
22.1161
 30
0.0
 11
172.638
 21
17.4157
 31
0.0
  0
LINE
  8
0
 62
     0
 10
172.638
 20
17.4157
 30
0.0
 11
186.639
 21
17.4157
 31
0.0
  0
LINE
  8
0
 62
     0
 10
186.639
 20
17.4157
 30
0.0
 11
186.639
 21
22.1161
 31
0.0
  0
LINE
  8
0
 62
     0
 10
186.639
 20
22.1161
 30
0.0
 11
188.163
 21
22.1161
 31
0.0
  0
LINE
  8
0
 62
     0
 10
188.163
 20
22.1161
 30
0.0
 11
188.163
 21
17.6458
 31
0.0
  0
LINE
  8
0
 62
     0
 10
188.163
 20
17.6458
 30
0.0
 11
189.888
 21
17.6458
 31
0.0
  0
LINE
  8
0
 62
     0
 10
189.888
 20
17.6458
 30
0.0
 11
189.888
 21
16.4455
 31
0.0
  0
LINE
  8
0
 62
     0
 10
189.888
 20
16.4455
 30
0.0
 11
193.189
 21
16.4455
 31
0.0
  0
LINE
  8
0
 62
     0
 10
193.189
 20
16.4455
 30
0.0
 11
193.189
 21
17.6458
 31
0.0
  0
LINE
  8
0
 62
     0
 10
193.189
 20
17.6458
 30
0.0
 11
194.914
 21
17.6458
 31
0.0
  0
LINE
  8
0
 62
     0
 10
194.914
 20
17.6458
 30
0.0
 11
194.914
 21
23.9159
 31
0.0
  0
LINE
  8
0
 62
     0
 10
194.914
 20
23.9159
 30
0.0
 11
195.738
 21
23.9159
 31
0.0
  0
LINE
  8
0
 62
     0
 10
195.738
 20
23.9159
 30
0.0
 11
195.738
 21
26.716
 31
0.0
  0
LINE
  8
0
 62
     0
 10
195.738
 20
26.716
 30
0.0
 11
194.914
 21
26.716
 31
0.0
  0
LINE
  8
0
 62
     0
 10
194.914
 20
26.716
 30
0.0
 11
194.914
 21
29.9461
 31
0.0
  0
LINE
  8
0
 62
     0
 10
194.914
 20
29.9461
 30
0.0
 11
188.163
 21
29.9461
 31
0.0
  0
LINE
  8
0
 62
     0
 10
188.163
 20
29.9461
 30
0.0
 11
188.163
 21
26.716
 31
0.0
  0
LINE
  8
0
 62
     0
 10
188.163
 20
26.716
 30
0.0
 11
186.639
 21
26.716
 31
0.0
  0
LINE
  8
0
 62
     0
 10
186.639
 20
26.716
 30
0.0
 11
186.639
 21
31.4151
 31
0.0
  0
LINE
  8
0
 62
     0
 10
186.639
 20
31.4151
 30
0.0
 11
172.638
 21
31.4151
 31
0.0
  0
LINE
  8
0
 62
     0
 10
298.845
 20
31.4151
 30
0.0
 11
312.845
 21
31.4151
 31
0.0
  0
LINE
  8
0
 62
     0
 10
312.845
 20
31.4151
 30
0.0
 11
312.845
 21
17.4157
 31
0.0
  0
LINE
  8
0
 62
     0
 10
312.845
 20
17.4157
 30
0.0
 11
298.845
 21
17.4157
 31
0.0
  0
LINE
  8
0
 62
     0
 10
298.845
 20
17.4157
 30
0.0
 11
298.845
 21
31.4151
 31
0.0
  0
LINE
  8
0
 62
     0
 10
279.795
 20
31.4151
 30
0.0
 11
293.795
 21
31.4151
 31
0.0
  0
LINE
  8
0
 62
     0
 10
293.795
 20
31.4151
 30
0.0
 11
293.795
 21
17.4157
 31
0.0
  0
LINE
  8
0
 62
     0
 10
293.795
 20
17.4157
 30
0.0
 11
279.795
 21
17.4157
 31
0.0
  0
LINE
  8
0
 62
     0
 10
279.795
 20
17.4157
 30
0.0
 11
279.795
 21
31.4151
 31
0.0
  0
LINE
  8
0
 62
     0
 10
260.745
 20
31.4151
 30
0.0
 11
274.745
 21
31.4151
 31
0.0
  0
LINE
  8
0
 62
     0
 10
274.745
 20
31.4151
 30
0.0
 11
274.745
 21
17.4157
 31
0.0
  0
LINE
  8
0
 62
     0
 10
274.745
 20
17.4157
 30
0.0
 11
260.745
 21
17.4157
 31
0.0
  0
LINE
  8
0
 62
     0
 10
260.745
 20
17.4157
 30
0.0
 11
260.745
 21
31.4151
 31
0.0
  0
LINE
  8
0
 62
     0
 10
239.313
 20
31.4151
 30
0.0
 11
253.314
 21
31.4151
 31
0.0
  0
LINE
  8
0
 62
     0
 10
253.314
 20
31.4151
 30
0.0
 11
253.314
 21
17.4157
 31
0.0
  0
LINE
  8
0
 62
     0
 10
253.314
 20
17.4157
 30
0.0
 11
239.313
 21
17.4157
 31
0.0
  0
LINE
  8
0
 62
     0
 10
239.313
 20
17.4157
 30
0.0
 11
239.313
 21
31.4151
 31
0.0
  0
LINE
  8
0
 62
     0
 10
210.738
 20
31.4151
 30
0.0
 11
224.739
 21
31.4151
 31
0.0
  0
LINE
  8
0
 62
     0
 10
224.739
 20
31.4151
 30
0.0
 11
224.739
 21
17.4157
 31
0.0
  0
LINE
  8
0
 62
     0
 10
224.739
 20
17.4157
 30
0.0
 11
210.738
 21
17.4157
 31
0.0
  0
LINE
  8
0
 62
     0
 10
210.738
 20
17.4157
 30
0.0
 11
210.738
 21
31.4151
 31
0.0
  0
LINE
  8
0
 62
     0
 10
141.683
 20
31.4151
 30
0.0
 11
155.683
 21
31.4151
 31
0.0
  0
LINE
  8
0
 62
     0
 10
155.683
 20
31.4151
 30
0.0
 11
155.683
 21
17.4157
 31
0.0
  0
LINE
  8
0
 62
     0
 10
155.683
 20
17.4157
 30
0.0
 11
141.683
 21
17.4157
 31
0.0
  0
LINE
  8
0
 62
     0
 10
141.683
 20
17.4157
 30
0.0
 11
141.683
 21
31.4151
 31
0.0
  0
LINE
  8
0
 62
     0
 10
120.252
 20
31.4151
 30
0.0
 11
134.251
 21
31.4151
 31
0.0
  0
LINE
  8
0
 62
     0
 10
134.251
 20
31.4151
 30
0.0
 11
134.251
 21
17.4157
 31
0.0
  0
LINE
  8
0
 62
     0
 10
134.251
 20
17.4157
 30
0.0
 11
120.252
 21
17.4157
 31
0.0
  0
LINE
  8
0
 62
     0
 10
120.252
 20
17.4157
 30
0.0
 11
120.252
 21
31.4151
 31
0.0
  0
LINE
  8
0
 62
     0
 10
72.6267
 20
31.4151
 30
0.0
 11
86.6263
 21
31.4151
 31
0.0
  0
LINE
  8
0
 62
     0
 10
86.6263
 20
31.4151
 30
0.0
 11
86.6263
 21
17.4157
 31
0.0
  0
LINE
  8
0
 62
     0
 10
86.6263
 20
17.4157
 30
0.0
 11
72.6267
 21
17.4157
 31
0.0
  0
LINE
  8
0
 62
     0
 10
72.6267
 20
17.4157
 30
0.0
 11
72.6267
 21
31.4151
 31
0.0
  0
LINE
  8
0
 62
     0
 10
46.433
 20
31.4151
 30
0.0
 11
60.4326
 21
31.4151
 31
0.0
  0
LINE
  8
0
 62
     0
 10
60.4326
 20
31.4151
 30
0.0
 11
60.4326
 21
17.4157
 31
0.0
  0
LINE
  8
0
 62
     0
 10
60.4326
 20
17.4157
 30
0.0
 11
46.433
 21
17.4157
 31
0.0
  0
LINE
  8
0
 62
     0
 10
46.433
 20
17.4157
 30
0.0
 11
46.433
 21
31.4151
 31
0.0
  0
LINE
  8
0
 62
     0
 10
360.758
 20
45.7041
 30
0.0
 11
374.756
 21
45.7041
 31
0.0
  0
LINE
  8
0
 62
     0
 10
374.756
 20
45.7041
 30
0.0
 11
374.756
 21
31.7032
 31
0.0
  0
LINE
  8
0
 62
     0
 10
374.756
 20
31.7032
 30
0.0
 11
360.758
 21
31.7032
 31
0.0
  0
LINE
  8
0
 62
     0
 10
360.758
 20
31.7032
 30
0.0
 11
360.758
 21
45.7041
 31
0.0
  0
LINE
  8
0
 62
     0
 10
341.708
 20
45.7041
 30
0.0
 11
355.706
 21
45.7041
 31
0.0
  0
LINE
  8
0
 62
     0
 10
355.706
 20
45.7041
 30
0.0
 11
355.706
 21
31.7032
 31
0.0
  0
LINE
  8
0
 62
     0
 10
355.706
 20
31.7032
 30
0.0
 11
341.708
 21
31.7032
 31
0.0
  0
LINE
  8
0
 62
     0
 10
341.708
 20
31.7032
 30
0.0
 11
341.708
 21
45.7041
 31
0.0
  0
LINE
  8
0
 62
     0
 10
391.068
 20
64.3283
 30
0.0
 11
391.068
 21
63.5042
 31
0.0
  0
LINE
  8
0
 62
     0
 10
391.068
 20
63.5042
 30
0.0
 11
384.799
 21
63.5042
 31
0.0
  0
LINE
  8
0
 62
     0
 10
384.799
 20
63.5042
 30
0.0
 11
384.799
 21
61.7788
 31
0.0
  0
LINE
  8
0
 62
     0
 10
384.799
 20
61.7788
 30
0.0
 11
383.6
 21
61.7788
 31
0.0
  0
LINE
  8
0
 62
     0
 10
383.6
 20
61.7788
 30
0.0
 11
383.6
 21
58.4786
 31
0.0
  0
LINE
  8
0
 62
     0
 10
383.6
 20
58.4786
 30
0.0
 11
384.799
 21
58.4786
 31
0.0
  0
LINE
  8
0
 62
     0
 10
384.799
 20
58.4786
 30
0.0
 11
384.799
 21
56.7531
 31
0.0
  0
LINE
  8
0
 62
     0
 10
384.799
 20
56.7531
 30
0.0
 11
389.269
 21
56.7531
 31
0.0
  0
LINE
  8
0
 62
     0
 10
389.269
 20
56.7531
 30
0.0
 11
389.269
 21
55.2291
 31
0.0
  0
LINE
  8
0
 62
     0
 10
389.269
 20
55.2291
 30
0.0
 11
384.57
 21
55.2291
 31
0.0
  0
LINE
  8
0
 62
     0
 10
384.57
 20
55.2291
 30
0.0
 11
384.57
 21
41.2281
 31
0.0
  0
LINE
  8
0
 62
     0
 10
384.57
 20
41.2281
 30
0.0
 11
389.269
 21
41.2281
 31
0.0
  0
LINE
  8
0
 62
     0
 10
389.269
 20
41.2281
 30
0.0
 11
389.269
 21
39.7041
 31
0.0
  0
LINE
  8
0
 62
     0
 10
389.269
 20
39.7041
 30
0.0
 11
384.799
 21
39.7041
 31
0.0
  0
LINE
  8
0
 62
     0
 10
384.799
 20
39.7041
 30
0.0
 11
384.799
 21
37.9786
 31
0.0
  0
LINE
  8
0
 62
     0
 10
384.799
 20
37.9786
 30
0.0
 11
383.6
 21
37.9786
 31
0.0
  0
LINE
  8
0
 62
     0
 10
383.6
 20
37.9786
 30
0.0
 11
383.6
 21
34.6783
 31
0.0
  0
LINE
  8
0
 62
     0
 10
383.6
 20
34.6783
 30
0.0
 11
384.799
 21
34.6783
 31
0.0
  0
LINE
  8
0
 62
     0
 10
384.799
 20
34.6783
 30
0.0
 11
384.799
 21
32.953
 31
0.0
  0
LINE
  8
0
 62
     0
 10
384.799
 20
32.953
 30
0.0
 11
391.068
 21
32.953
 31
0.0
  0
LINE
  8
0
 62
     0
 10
391.068
 20
32.953
 30
0.0
 11
391.068
 21
32.129
 31
0.0
  0
LINE
  8
0
 62
     0
 10
391.068
 20
32.129
 30
0.0
 11
393.869
 21
32.129
 31
0.0
  0
LINE
  8
0
 62
     0
 10
393.869
 20
32.129
 30
0.0
 11
393.869
 21
32.953
 31
0.0
  0
LINE
  8
0
 62
     0
 10
393.869
 20
32.953
 30
0.0
 11
397.101
 21
32.953
 31
0.0
  0
LINE
  8
0
 62
     0
 10
397.101
 20
32.953
 30
0.0
 11
397.101
 21
39.7041
 31
0.0
  0
LINE
  8
0
 62
     0
 10
397.101
 20
39.7041
 30
0.0
 11
393.869
 21
39.7041
 31
0.0
  0
LINE
  8
0
 62
     0
 10
393.869
 20
39.7041
 30
0.0
 11
393.869
 21
41.2281
 31
0.0
  0
LINE
  8
0
 62
     0
 10
393.869
 20
41.2281
 30
0.0
 11
398.568
 21
41.2281
 31
0.0
  0
LINE
  8
0
 62
     0
 10
398.568
 20
41.2281
 30
0.0
 11
398.568
 21
55.2291
 31
0.0
  0
LINE
  8
0
 62
     0
 10
398.568
 20
55.2291
 30
0.0
 11
393.869
 21
55.2291
 31
0.0
  0
LINE
  8
0
 62
     0
 10
393.869
 20
55.2291
 30
0.0
 11
393.869
 21
56.7531
 31
0.0
  0
LINE
  8
0
 62
     0
 10
393.869
 20
56.7531
 30
0.0
 11
397.101
 21
56.7531
 31
0.0
  0
LINE
  8
0
 62
     0
 10
397.101
 20
56.7531
 30
0.0
 11
397.101
 21
63.5042
 31
0.0
  0
LINE
  8
0
 62
     0
 10
397.101
 20
63.5042
 30
0.0
 11
393.869
 21
63.5042
 31
0.0
  0
LINE
  8
0
 62
     0
 10
393.869
 20
63.5042
 30
0.0
 11
393.869
 21
64.3283
 31
0.0
  0
LINE
  8
0
 62
     0
 10
393.869
 20
64.3283
 30
0.0
 11
391.068
 21
64.3283
 31
0.0
  0
LINE
  8
0
 62
     0
 10
29.1207
 20
64.3283
 30
0.0
 11
29.1207
 21
63.5042
 31
0.0
  0
LINE
  8
0
 62
     0
 10
29.1207
 20
63.5042
 30
0.0
 11
22.8506
 21
63.5042
 31
0.0
  0
LINE
  8
0
 62
     0
 10
22.8506
 20
63.5042
 30
0.0
 11
22.8506
 21
61.7788
 31
0.0
  0
LINE
  8
0
 62
     0
 10
22.8506
 20
61.7788
 30
0.0
 11
21.6504
 21
61.7788
 31
0.0
  0
LINE
  8
0
 62
     0
 10
21.6504
 20
61.7788
 30
0.0
 11
21.6504
 21
58.4786
 31
0.0
  0
LINE
  8
0
 62
     0
 10
21.6504
 20
58.4786
 30
0.0
 11
22.8506
 21
58.4786
 31
0.0
  0
LINE
  8
0
 62
     0
 10
22.8506
 20
58.4786
 30
0.0
 11
22.8506
 21
56.7531
 31
0.0
  0
LINE
  8
0
 62
     0
 10
22.8506
 20
56.7531
 30
0.0
 11
27.321
 21
56.7531
 31
0.0
  0
LINE
  8
0
 62
     0
 10
27.321
 20
56.7531
 30
0.0
 11
27.321
 21
55.2291
 31
0.0
  0
LINE
  8
0
 62
     0
 10
27.321
 20
55.2291
 30
0.0
 11
22.6205
 21
55.2291
 31
0.0
  0
LINE
  8
0
 62
     0
 10
22.6205
 20
55.2291
 30
0.0
 11
22.6205
 21
41.2281
 31
0.0
  0
LINE
  8
0
 62
     0
 10
22.6205
 20
41.2281
 30
0.0
 11
27.321
 21
41.2281
 31
0.0
  0
LINE
  8
0
 62
     0
 10
27.321
 20
41.2281
 30
0.0
 11
27.321
 21
39.7041
 31
0.0
  0
LINE
  8
0
 62
     0
 10
27.321
 20
39.7041
 30
0.0
 11
22.8506
 21
39.7041
 31
0.0
  0
LINE
  8
0
 62
     0
 10
22.8506
 20
39.7041
 30
0.0
 11
22.8506
 21
37.9786
 31
0.0
  0
LINE
  8
0
 62
     0
 10
22.8506
 20
37.9786
 30
0.0
 11
21.6504
 21
37.9786
 31
0.0
  0
LINE
  8
0
 62
     0
 10
21.6504
 20
37.9786
 30
0.0
 11
21.6504
 21
34.6783
 31
0.0
  0
LINE
  8
0
 62
     0
 10
21.6504
 20
34.6783
 30
0.0
 11
22.8506
 21
34.6783
 31
0.0
  0
LINE
  8
0
 62
     0
 10
22.8506
 20
34.6783
 30
0.0
 11
22.8506
 21
32.953
 31
0.0
  0
LINE
  8
0
 62
     0
 10
22.8506
 20
32.953
 30
0.0
 11
29.1207
 21
32.953
 31
0.0
  0
LINE
  8
0
 62
     0
 10
29.1207
 20
32.953
 30
0.0
 11
29.1207
 21
32.129
 31
0.0
  0
LINE
  8
0
 62
     0
 10
29.1207
 20
32.129
 30
0.0
 11
31.9209
 21
32.129
 31
0.0
  0
LINE
  8
0
 62
     0
 10
31.9209
 20
32.129
 30
0.0
 11
31.9209
 21
32.953
 31
0.0
  0
LINE
  8
0
 62
     0
 10
31.9209
 20
32.953
 30
0.0
 11
35.151
 21
32.953
 31
0.0
  0
LINE
  8
0
 62
     0
 10
35.151
 20
32.953
 30
0.0
 11
35.151
 21
39.7041
 31
0.0
  0
LINE
  8
0
 62
     0
 10
35.151
 20
39.7041
 30
0.0
 11
31.9195
 21
39.7041
 31
0.0
  0
LINE
  8
0
 62
     0
 10
31.9195
 20
39.7041
 30
0.0
 11
31.9195
 21
41.2281
 31
0.0
  0
LINE
  8
0
 62
     0
 10
31.9195
 20
41.2281
 30
0.0
 11
36.6201
 21
41.2281
 31
0.0
  0
LINE
  8
0
 62
     0
 10
36.6201
 20
41.2281
 30
0.0
 11
36.6201
 21
55.2291
 31
0.0
  0
LINE
  8
0
 62
     0
 10
36.6201
 20
55.2291
 30
0.0
 11
31.9195
 21
55.2291
 31
0.0
  0
LINE
  8
0
 62
     0
 10
31.9195
 20
55.2291
 30
0.0
 11
31.9195
 21
56.7531
 31
0.0
  0
LINE
  8
0
 62
     0
 10
31.9195
 20
56.7531
 30
0.0
 11
35.151
 21
56.7531
 31
0.0
  0
LINE
  8
0
 62
     0
 10
35.151
 20
56.7531
 30
0.0
 11
35.151
 21
63.5042
 31
0.0
  0
LINE
  8
0
 62
     0
 10
35.151
 20
63.5042
 30
0.0
 11
31.9195
 21
63.5042
 31
0.0
  0
LINE
  8
0
 62
     0
 10
31.9195
 20
63.5042
 30
0.0
 11
31.9195
 21
64.3283
 31
0.0
  0
LINE
  8
0
 62
     0
 10
31.9195
 20
64.3283
 30
0.0
 11
29.1207
 21
64.3283
 31
0.0
  0
LINE
  8
0
 62
     0
 10
82.1517
 20
50.4652
 30
0.0
 11
82.1517
 21
45.7659
 31
0.0
  0
LINE
  8
0
 62
     0
 10
82.1517
 20
45.7659
 30
0.0
 11
80.6263
 21
45.7659
 31
0.0
  0
LINE
  8
0
 62
     0
 10
80.6263
 20
45.7659
 30
0.0
 11
80.6263
 21
48.9962
 31
0.0
  0
LINE
  8
0
 62
     0
 10
80.6263
 20
48.9962
 30
0.0
 11
73.8766
 21
48.9962
 31
0.0
  0
LINE
  8
0
 62
     0
 10
73.8766
 20
48.9962
 30
0.0
 11
73.8766
 21
45.7659
 31
0.0
  0
LINE
  8
0
 62
     0
 10
73.8766
 20
45.7659
 30
0.0
 11
73.0511
 21
45.7659
 31
0.0
  0
LINE
  8
0
 62
     0
 10
73.0511
 20
45.7659
 30
0.0
 11
73.0511
 21
42.9659
 31
0.0
  0
LINE
  8
0
 62
     0
 10
73.0511
 20
42.9659
 30
0.0
 11
73.8766
 21
42.9659
 31
0.0
  0
LINE
  8
0
 62
     0
 10
73.8766
 20
42.9659
 30
0.0
 11
73.8766
 21
36.6959
 31
0.0
  0
LINE
  8
0
 62
     0
 10
73.8766
 20
36.6959
 30
0.0
 11
75.602
 21
36.6959
 31
0.0
  0
LINE
  8
0
 62
     0
 10
75.602
 20
36.6959
 30
0.0
 11
75.602
 21
35.4954
 31
0.0
  0
LINE
  8
0
 62
     0
 10
75.602
 20
35.4954
 30
0.0
 11
78.9009
 21
35.4954
 31
0.0
  0
LINE
  8
0
 62
     0
 10
78.9009
 20
35.4954
 30
0.0
 11
78.9009
 21
36.6959
 31
0.0
  0
LINE
  8
0
 62
     0
 10
78.9009
 20
36.6959
 30
0.0
 11
80.6263
 21
36.6959
 31
0.0
  0
LINE
  8
0
 62
     0
 10
80.6263
 20
36.6959
 30
0.0
 11
80.6263
 21
41.166
 31
0.0
  0
LINE
  8
0
 62
     0
 10
80.6263
 20
41.166
 30
0.0
 11
82.1517
 21
41.166
 31
0.0
  0
LINE
  8
0
 62
     0
 10
82.1517
 20
41.166
 30
0.0
 11
82.1517
 21
36.4656
 31
0.0
  0
LINE
  8
0
 62
     0
 10
82.1517
 20
36.4656
 30
0.0
 11
96.1513
 21
36.4656
 31
0.0
  0
LINE
  8
0
 62
     0
 10
96.1513
 20
36.4656
 30
0.0
 11
96.1513
 21
41.166
 31
0.0
  0
LINE
  8
0
 62
     0
 10
96.1513
 20
41.166
 30
0.0
 11
97.6768
 21
41.166
 31
0.0
  0
LINE
  8
0
 62
     0
 10
97.6768
 20
41.166
 30
0.0
 11
97.6768
 21
36.6959
 31
0.0
  0
LINE
  8
0
 62
     0
 10
97.6768
 20
36.6959
 30
0.0
 11
99.4022
 21
36.6959
 31
0.0
  0
LINE
  8
0
 62
     0
 10
99.4022
 20
36.6959
 30
0.0
 11
99.4022
 21
35.4954
 31
0.0
  0
LINE
  8
0
 62
     0
 10
99.4022
 20
35.4954
 30
0.0
 11
102.701
 21
35.4954
 31
0.0
  0
LINE
  8
0
 62
     0
 10
102.701
 20
35.4954
 30
0.0
 11
102.701
 21
36.6959
 31
0.0
  0
LINE
  8
0
 62
     0
 10
102.701
 20
36.6959
 30
0.0
 11
104.426
 21
36.6959
 31
0.0
  0
LINE
  8
0
 62
     0
 10
104.426
 20
36.6959
 30
0.0
 11
104.426
 21
42.9659
 31
0.0
  0
LINE
  8
0
 62
     0
 10
104.426
 20
42.9659
 30
0.0
 11
105.252
 21
42.9659
 31
0.0
  0
LINE
  8
0
 62
     0
 10
105.252
 20
42.9659
 30
0.0
 11
105.252
 21
45.7659
 31
0.0
  0
LINE
  8
0
 62
     0
 10
105.252
 20
45.7659
 30
0.0
 11
104.426
 21
45.7659
 31
0.0
  0
LINE
  8
0
 62
     0
 10
104.426
 20
45.7659
 30
0.0
 11
104.426
 21
48.9962
 31
0.0
  0
LINE
  8
0
 62
     0
 10
104.426
 20
48.9962
 30
0.0
 11
97.6768
 21
48.9962
 31
0.0
  0
LINE
  8
0
 62
     0
 10
97.6768
 20
48.9962
 30
0.0
 11
97.6768
 21
45.7659
 31
0.0
  0
LINE
  8
0
 62
     0
 10
97.6768
 20
45.7659
 30
0.0
 11
96.1513
 21
45.7659
 31
0.0
  0
LINE
  8
0
 62
     0
 10
96.1513
 20
45.7659
 30
0.0
 11
96.1513
 21
50.4652
 31
0.0
  0
LINE
  8
0
 62
     0
 10
96.1513
 20
50.4652
 30
0.0
 11
82.1517
 21
50.4652
 31
0.0
  0
LINE
  8
0
 62
     0
 10
310.752
 20
50.4652
 30
0.0
 11
324.751
 21
50.4652
 31
0.0
  0
LINE
  8
0
 62
     0
 10
324.751
 20
50.4652
 30
0.0
 11
324.751
 21
36.4656
 31
0.0
  0
LINE
  8
0
 62
     0
 10
324.751
 20
36.4656
 30
0.0
 11
310.752
 21
36.4656
 31
0.0
  0
LINE
  8
0
 62
     0
 10
310.752
 20
36.4656
 30
0.0
 11
310.752
 21
50.4652
 31
0.0
  0
LINE
  8
0
 62
     0
 10
284.558
 20
50.4652
 30
0.0
 11
298.558
 21
50.4652
 31
0.0
  0
LINE
  8
0
 62
     0
 10
298.558
 20
50.4652
 30
0.0
 11
298.558
 21
36.4656
 31
0.0
  0
LINE
  8
0
 62
     0
 10
298.558
 20
36.4656
 30
0.0
 11
284.558
 21
36.4656
 31
0.0
  0
LINE
  8
0
 62
     0
 10
284.558
 20
36.4656
 30
0.0
 11
284.558
 21
50.4652
 31
0.0
  0
LINE
  8
0
 62
     0
 10
265.508
 20
50.4652
 30
0.0
 11
279.508
 21
50.4652
 31
0.0
  0
LINE
  8
0
 62
     0
 10
279.508
 20
50.4652
 30
0.0
 11
279.508
 21
36.4656
 31
0.0
  0
LINE
  8
0
 62
     0
 10
279.508
 20
36.4656
 30
0.0
 11
265.508
 21
36.4656
 31
0.0
  0
LINE
  8
0
 62
     0
 10
265.508
 20
36.4656
 30
0.0
 11
265.508
 21
50.4652
 31
0.0
  0
LINE
  8
0
 62
     0
 10
246.458
 20
50.4652
 30
0.0
 11
260.458
 21
50.4652
 31
0.0
  0
LINE
  8
0
 62
     0
 10
260.458
 20
50.4652
 30
0.0
 11
260.458
 21
36.4656
 31
0.0
  0
LINE
  8
0
 62
     0
 10
260.458
 20
36.4656
 30
0.0
 11
246.458
 21
36.4656
 31
0.0
  0
LINE
  8
0
 62
     0
 10
246.458
 20
36.4656
 30
0.0
 11
246.458
 21
50.4652
 31
0.0
  0
LINE
  8
0
 62
     0
 10
227.408
 20
50.4652
 30
0.0
 11
241.408
 21
50.4652
 31
0.0
  0
LINE
  8
0
 62
     0
 10
241.408
 20
50.4652
 30
0.0
 11
241.408
 21
36.4656
 31
0.0
  0
LINE
  8
0
 62
     0
 10
241.408
 20
36.4656
 30
0.0
 11
227.408
 21
36.4656
 31
0.0
  0
LINE
  8
0
 62
     0
 10
227.408
 20
36.4656
 30
0.0
 11
227.408
 21
50.4652
 31
0.0
  0
LINE
  8
0
 62
     0
 10
208.358
 20
50.4652
 30
0.0
 11
222.358
 21
50.4652
 31
0.0
  0
LINE
  8
0
 62
     0
 10
222.358
 20
50.4652
 30
0.0
 11
222.358
 21
36.4656
 31
0.0
  0
LINE
  8
0
 62
     0
 10
222.358
 20
36.4656
 30
0.0
 11
208.358
 21
36.4656
 31
0.0
  0
LINE
  8
0
 62
     0
 10
208.358
 20
36.4656
 30
0.0
 11
208.358
 21
50.4652
 31
0.0
  0
LINE
  8
0
 62
     0
 10
189.308
 20
50.4652
 30
0.0
 11
203.308
 21
50.4652
 31
0.0
  0
LINE
  8
0
 62
     0
 10
203.308
 20
50.4652
 30
0.0
 11
203.308
 21
36.4656
 31
0.0
  0
LINE
  8
0
 62
     0
 10
203.308
 20
36.4656
 30
0.0
 11
189.308
 21
36.4656
 31
0.0
  0
LINE
  8
0
 62
     0
 10
189.308
 20
36.4656
 30
0.0
 11
189.308
 21
50.4652
 31
0.0
  0
LINE
  8
0
 62
     0
 10
170.258
 20
50.4652
 30
0.0
 11
184.258
 21
50.4652
 31
0.0
  0
LINE
  8
0
 62
     0
 10
184.258
 20
50.4652
 30
0.0
 11
184.258
 21
36.4656
 31
0.0
  0
LINE
  8
0
 62
     0
 10
184.258
 20
36.4656
 30
0.0
 11
170.258
 21
36.4656
 31
0.0
  0
LINE
  8
0
 62
     0
 10
170.258
 20
36.4656
 30
0.0
 11
170.258
 21
50.4652
 31
0.0
  0
LINE
  8
0
 62
     0
 10
151.208
 20
50.4652
 30
0.0
 11
165.208
 21
50.4652
 31
0.0
  0
LINE
  8
0
 62
     0
 10
165.208
 20
50.4652
 30
0.0
 11
165.208
 21
36.4656
 31
0.0
  0
LINE
  8
0
 62
     0
 10
165.208
 20
36.4656
 30
0.0
 11
151.208
 21
36.4656
 31
0.0
  0
LINE
  8
0
 62
     0
 10
151.208
 20
36.4656
 30
0.0
 11
151.208
 21
50.4652
 31
0.0
  0
LINE
  8
0
 62
     0
 10
132.158
 20
50.4652
 30
0.0
 11
146.158
 21
50.4652
 31
0.0
  0
LINE
  8
0
 62
     0
 10
146.158
 20
50.4652
 30
0.0
 11
146.158
 21
36.4656
 31
0.0
  0
LINE
  8
0
 62
     0
 10
146.158
 20
36.4656
 30
0.0
 11
132.158
 21
36.4656
 31
0.0
  0
LINE
  8
0
 62
     0
 10
132.158
 20
36.4656
 30
0.0
 11
132.158
 21
50.4652
 31
0.0
  0
LINE
  8
0
 62
     0
 10
113.108
 20
50.4652
 30
0.0
 11
127.108
 21
50.4652
 31
0.0
  0
LINE
  8
0
 62
     0
 10
127.108
 20
50.4652
 30
0.0
 11
127.108
 21
36.4656
 31
0.0
  0
LINE
  8
0
 62
     0
 10
127.108
 20
36.4656
 30
0.0
 11
113.108
 21
36.4656
 31
0.0
  0
LINE
  8
0
 62
     0
 10
113.108
 20
36.4656
 30
0.0
 11
113.108
 21
50.4652
 31
0.0
  0
LINE
  8
0
 62
     0
 10
46.433
 20
50.4652
 30
0.0
 11
60.4326
 21
50.4652
 31
0.0
  0
LINE
  8
0
 62
     0
 10
60.4326
 20
50.4652
 30
0.0
 11
60.4326
 21
36.4656
 31
0.0
  0
LINE
  8
0
 62
     0
 10
60.4326
 20
36.4656
 30
0.0
 11
46.433
 21
36.4656
 31
0.0
  0
LINE
  8
0
 62
     0
 10
46.433
 20
36.4656
 30
0.0
 11
46.433
 21
50.4652
 31
0.0
  0
LINE
  8
0
 62
     0
 10
325.038
 20
69.5152
 30
0.0
 11
325.038
 21
64.8159
 31
0.0
  0
LINE
  8
0
 62
     0
 10
325.038
 20
64.8159
 30
0.0
 11
323.514
 21
64.8159
 31
0.0
  0
LINE
  8
0
 62
     0
 10
323.514
 20
64.8159
 30
0.0
 11
323.514
 21
68.0462
 31
0.0
  0
LINE
  8
0
 62
     0
 10
323.514
 20
68.0462
 30
0.0
 11
316.764
 21
68.0462
 31
0.0
  0
LINE
  8
0
 62
     0
 10
316.764
 20
68.0462
 30
0.0
 11
316.764
 21
64.8159
 31
0.0
  0
LINE
  8
0
 62
     0
 10
316.764
 20
64.8159
 30
0.0
 11
315.939
 21
64.8159
 31
0.0
  0
LINE
  8
0
 62
     0
 10
315.939
 20
64.8159
 30
0.0
 11
315.939
 21
62.0159
 31
0.0
  0
LINE
  8
0
 62
     0
 10
315.939
 20
62.0159
 30
0.0
 11
316.764
 21
62.0159
 31
0.0
  0
LINE
  8
0
 62
     0
 10
316.764
 20
62.0159
 30
0.0
 11
316.764
 21
55.7459
 31
0.0
  0
LINE
  8
0
 62
     0
 10
316.764
 20
55.7459
 30
0.0
 11
318.488
 21
55.7459
 31
0.0
  0
LINE
  8
0
 62
     0
 10
318.488
 20
55.7459
 30
0.0
 11
318.488
 21
54.5454
 31
0.0
  0
LINE
  8
0
 62
     0
 10
318.488
 20
54.5454
 30
0.0
 11
321.788
 21
54.5454
 31
0.0
  0
LINE
  8
0
 62
     0
 10
321.788
 20
54.5454
 30
0.0
 11
321.788
 21
55.7459
 31
0.0
  0
LINE
  8
0
 62
     0
 10
321.788
 20
55.7459
 30
0.0
 11
323.514
 21
55.7459
 31
0.0
  0
LINE
  8
0
 62
     0
 10
323.514
 20
55.7459
 30
0.0
 11
323.514
 21
60.216
 31
0.0
  0
LINE
  8
0
 62
     0
 10
323.514
 20
60.216
 30
0.0
 11
325.038
 21
60.216
 31
0.0
  0
LINE
  8
0
 62
     0
 10
325.038
 20
60.216
 30
0.0
 11
325.038
 21
55.5156
 31
0.0
  0
LINE
  8
0
 62
     0
 10
325.038
 20
55.5156
 30
0.0
 11
339.039
 21
55.5156
 31
0.0
  0
LINE
  8
0
 62
     0
 10
339.039
 20
55.5156
 30
0.0
 11
339.039
 21
60.216
 31
0.0
  0
LINE
  8
0
 62
     0
 10
339.039
 20
60.216
 30
0.0
 11
340.563
 21
60.216
 31
0.0
  0
LINE
  8
0
 62
     0
 10
340.563
 20
60.216
 30
0.0
 11
340.563
 21
55.7459
 31
0.0
  0
LINE
  8
0
 62
     0
 10
340.563
 20
55.7459
 30
0.0
 11
342.288
 21
55.7459
 31
0.0
  0
LINE
  8
0
 62
     0
 10
342.288
 20
55.7459
 30
0.0
 11
342.288
 21
54.5454
 31
0.0
  0
LINE
  8
0
 62
     0
 10
342.288
 20
54.5454
 30
0.0
 11
345.589
 21
54.5454
 31
0.0
  0
LINE
  8
0
 62
     0
 10
345.589
 20
54.5454
 30
0.0
 11
345.589
 21
55.7459
 31
0.0
  0
LINE
  8
0
 62
     0
 10
345.589
 20
55.7459
 30
0.0
 11
347.314
 21
55.7459
 31
0.0
  0
LINE
  8
0
 62
     0
 10
347.314
 20
55.7459
 30
0.0
 11
347.314
 21
62.0159
 31
0.0
  0
LINE
  8
0
 62
     0
 10
347.314
 20
62.0159
 30
0.0
 11
348.138
 21
62.0159
 31
0.0
  0
LINE
  8
0
 62
     0
 10
348.138
 20
62.0159
 30
0.0
 11
348.138
 21
64.8159
 31
0.0
  0
LINE
  8
0
 62
     0
 10
348.138
 20
64.8159
 30
0.0
 11
347.314
 21
64.8159
 31
0.0
  0
LINE
  8
0
 62
     0
 10
347.314
 20
64.8159
 30
0.0
 11
347.314
 21
68.0462
 31
0.0
  0
LINE
  8
0
 62
     0
 10
347.314
 20
68.0462
 30
0.0
 11
340.563
 21
68.0462
 31
0.0
  0
LINE
  8
0
 62
     0
 10
340.563
 20
68.0462
 30
0.0
 11
340.563
 21
64.8159
 31
0.0
  0
LINE
  8
0
 62
     0
 10
340.563
 20
64.8159
 30
0.0
 11
339.039
 21
64.8159
 31
0.0
  0
LINE
  8
0
 62
     0
 10
339.039
 20
64.8159
 30
0.0
 11
339.039
 21
69.5152
 31
0.0
  0
LINE
  8
0
 62
     0
 10
339.039
 20
69.5152
 30
0.0
 11
325.038
 21
69.5152
 31
0.0
  0
LINE
  8
0
 62
     0
 10
360.758
 20
69.5152
 30
0.0
 11
374.756
 21
69.5152
 31
0.0
  0
LINE
  8
0
 62
     0
 10
374.756
 20
69.5152
 30
0.0
 11
374.756
 21
55.5156
 31
0.0
  0
LINE
  8
0
 62
     0
 10
374.756
 20
55.5156
 30
0.0
 11
360.758
 21
55.5156
 31
0.0
  0
LINE
  8
0
 62
     0
 10
360.758
 20
55.5156
 30
0.0
 11
360.758
 21
69.5152
 31
0.0
  0
LINE
  8
0
 62
     0
 10
294.083
 20
69.5152
 30
0.0
 11
308.083
 21
69.5152
 31
0.0
  0
LINE
  8
0
 62
     0
 10
308.083
 20
69.5152
 30
0.0
 11
308.083
 21
55.5156
 31
0.0
  0
LINE
  8
0
 62
     0
 10
308.083
 20
55.5156
 30
0.0
 11
294.083
 21
55.5156
 31
0.0
  0
LINE
  8
0
 62
     0
 10
294.083
 20
55.5156
 30
0.0
 11
294.083
 21
69.5152
 31
0.0
  0
LINE
  8
0
 62
     0
 10
275.033
 20
69.5152
 30
0.0
 11
289.033
 21
69.5152
 31
0.0
  0
LINE
  8
0
 62
     0
 10
289.033
 20
69.5152
 30
0.0
 11
289.033
 21
55.5156
 31
0.0
  0
LINE
  8
0
 62
     0
 10
289.033
 20
55.5156
 30
0.0
 11
275.033
 21
55.5156
 31
0.0
  0
LINE
  8
0
 62
     0
 10
275.033
 20
55.5156
 30
0.0
 11
275.033
 21
69.5152
 31
0.0
  0
LINE
  8
0
 62
     0
 10
255.983
 20
69.5152
 30
0.0
 11
269.983
 21
69.5152
 31
0.0
  0
LINE
  8
0
 62
     0
 10
269.983
 20
69.5152
 30
0.0
 11
269.983
 21
55.5156
 31
0.0
  0
LINE
  8
0
 62
     0
 10
269.983
 20
55.5156
 30
0.0
 11
255.983
 21
55.5156
 31
0.0
  0
LINE
  8
0
 62
     0
 10
255.983
 20
55.5156
 30
0.0
 11
255.983
 21
69.5152
 31
0.0
  0
LINE
  8
0
 62
     0
 10
236.933
 20
69.5152
 30
0.0
 11
250.933
 21
69.5152
 31
0.0
  0
LINE
  8
0
 62
     0
 10
250.933
 20
69.5152
 30
0.0
 11
250.933
 21
55.5156
 31
0.0
  0
LINE
  8
0
 62
     0
 10
250.933
 20
55.5156
 30
0.0
 11
236.933
 21
55.5156
 31
0.0
  0
LINE
  8
0
 62
     0
 10
236.933
 20
55.5156
 30
0.0
 11
236.933
 21
69.5152
 31
0.0
  0
LINE
  8
0
 62
     0
 10
217.883
 20
69.5152
 30
0.0
 11
231.883
 21
69.5152
 31
0.0
  0
LINE
  8
0
 62
     0
 10
231.883
 20
69.5152
 30
0.0
 11
231.883
 21
55.5156
 31
0.0
  0
LINE
  8
0
 62
     0
 10
231.883
 20
55.5156
 30
0.0
 11
217.883
 21
55.5156
 31
0.0
  0
LINE
  8
0
 62
     0
 10
217.883
 20
55.5156
 30
0.0
 11
217.883
 21
69.5152
 31
0.0
  0
LINE
  8
0
 62
     0
 10
198.833
 20
69.5152
 30
0.0
 11
212.833
 21
69.5152
 31
0.0
  0
LINE
  8
0
 62
     0
 10
212.833
 20
69.5152
 30
0.0
 11
212.833
 21
55.5156
 31
0.0
  0
LINE
  8
0
 62
     0
 10
212.833
 20
55.5156
 30
0.0
 11
198.833
 21
55.5156
 31
0.0
  0
LINE
  8
0
 62
     0
 10
198.833
 20
55.5156
 30
0.0
 11
198.833
 21
69.5152
 31
0.0
  0
LINE
  8
0
 62
     0
 10
179.783
 20
69.5152
 30
0.0
 11
193.783
 21
69.5152
 31
0.0
  0
LINE
  8
0
 62
     0
 10
193.783
 20
69.5152
 30
0.0
 11
193.783
 21
55.5156
 31
0.0
  0
LINE
  8
0
 62
     0
 10
193.783
 20
55.5156
 30
0.0
 11
179.783
 21
55.5156
 31
0.0
  0
LINE
  8
0
 62
     0
 10
179.783
 20
55.5156
 30
0.0
 11
179.783
 21
69.5152
 31
0.0
  0
LINE
  8
0
 62
     0
 10
160.733
 20
69.5152
 30
0.0
 11
174.733
 21
69.5152
 31
0.0
  0
LINE
  8
0
 62
     0
 10
174.733
 20
69.5152
 30
0.0
 11
174.733
 21
55.5156
 31
0.0
  0
LINE
  8
0
 62
     0
 10
174.733
 20
55.5156
 30
0.0
 11
160.733
 21
55.5156
 31
0.0
  0
LINE
  8
0
 62
     0
 10
160.733
 20
55.5156
 30
0.0
 11
160.733
 21
69.5152
 31
0.0
  0
LINE
  8
0
 62
     0
 10
141.683
 20
69.5152
 30
0.0
 11
155.683
 21
69.5152
 31
0.0
  0
LINE
  8
0
 62
     0
 10
155.683
 20
69.5152
 30
0.0
 11
155.683
 21
55.5156
 31
0.0
  0
LINE
  8
0
 62
     0
 10
155.683
 20
55.5156
 30
0.0
 11
141.683
 21
55.5156
 31
0.0
  0
LINE
  8
0
 62
     0
 10
141.683
 20
55.5156
 30
0.0
 11
141.683
 21
69.5152
 31
0.0
  0
LINE
  8
0
 62
     0
 10
122.633
 20
69.5152
 30
0.0
 11
136.633
 21
69.5152
 31
0.0
  0
LINE
  8
0
 62
     0
 10
136.633
 20
69.5152
 30
0.0
 11
136.633
 21
55.5156
 31
0.0
  0
LINE
  8
0
 62
     0
 10
136.633
 20
55.5156
 30
0.0
 11
122.633
 21
55.5156
 31
0.0
  0
LINE
  8
0
 62
     0
 10
122.633
 20
55.5156
 30
0.0
 11
122.633
 21
69.5152
 31
0.0
  0
LINE
  8
0
 62
     0
 10
103.583
 20
69.5152
 30
0.0
 11
117.583
 21
69.5152
 31
0.0
  0
LINE
  8
0
 62
     0
 10
117.583
 20
69.5152
 30
0.0
 11
117.583
 21
55.5156
 31
0.0
  0
LINE
  8
0
 62
     0
 10
117.583
 20
55.5156
 30
0.0
 11
103.583
 21
55.5156
 31
0.0
  0
LINE
  8
0
 62
     0
 10
103.583
 20
55.5156
 30
0.0
 11
103.583
 21
69.5152
 31
0.0
  0
LINE
  8
0
 62
     0
 10
77.3878
 20
69.5152
 30
0.0
 11
91.3888
 21
69.5152
 31
0.0
  0
LINE
  8
0
 62
     0
 10
91.3888
 20
69.5152
 30
0.0
 11
91.3888
 21
55.5156
 31
0.0
  0
LINE
  8
0
 62
     0
 10
91.3888
 20
55.5156
 30
0.0
 11
77.3878
 21
55.5156
 31
0.0
  0
LINE
  8
0
 62
     0
 10
77.3878
 20
55.5156
 30
0.0
 11
77.3878
 21
69.5152
 31
0.0
  0
LINE
  8
0
 62
     0
 10
46.433
 20
69.5152
 30
0.0
 11
60.4326
 21
69.5152
 31
0.0
  0
LINE
  8
0
 62
     0
 10
60.4326
 20
69.5152
 30
0.0
 11
60.4326
 21
55.5156
 31
0.0
  0
LINE
  8
0
 62
     0
 10
60.4326
 20
55.5156
 30
0.0
 11
46.433
 21
55.5156
 31
0.0
  0
LINE
  8
0
 62
     0
 10
46.433
 20
55.5156
 30
0.0
 11
46.433
 21
69.5152
 31
0.0
  0
LINE
  8
0
 62
     0
 10
3.47679
 20
64.5365
 30
0.0
 11
2.92006
 21
64.2525
 31
0.0
  0
LINE
  8
0
 62
     0
 10
2.92006
 20
64.2525
 30
0.0
 11
2.47633
 21
63.8101
 31
0.0
  0
LINE
  8
0
 62
     0
 10
2.47633
 20
63.8101
 30
0.0
 11
2.19246
 21
63.252
 31
0.0
  0
LINE
  8
0
 62
     0
 10
2.19246
 20
63.252
 30
0.0
 11
2.09462
 21
62.6346
 31
0.0
  0
LINE
  8
0
 62
     0
 10
2.09462
 20
62.6346
 30
0.0
 11
2.19246
 21
62.0173
 31
0.0
  0
LINE
  8
0
 62
     0
 10
2.19246
 20
62.0173
 30
0.0
 11
2.47633
 21
61.4592
 31
0.0
  0
LINE
  8
0
 62
     0
 10
2.47633
 20
61.4592
 30
0.0
 11
2.92006
 21
61.0168
 31
0.0
  0
LINE
  8
0
 62
     0
 10
2.92006
 20
61.0168
 30
0.0
 11
3.47679
 21
60.7328
 31
0.0
  0
LINE
  8
0
 62
     0
 10
3.47679
 20
60.7328
 30
0.0
 11
4.09416
 21
60.6351
 31
0.0
  0
LINE
  8
0
 62
     0
 10
4.09416
 20
60.6351
 30
0.0
 11
4.7129
 21
60.7328
 31
0.0
  0
LINE
  8
0
 62
     0
 10
4.7129
 20
60.7328
 30
0.0
 11
5.27099
 21
61.0168
 31
0.0
  0
LINE
  8
0
 62
     0
 10
5.27099
 20
61.0168
 30
0.0
 11
5.71334
 21
61.4592
 31
0.0
  0
LINE
  8
0
 62
     0
 10
5.71334
 20
61.4592
 30
0.0
 11
5.99722
 21
62.0173
 31
0.0
  0
LINE
  8
0
 62
     0
 10
5.99722
 20
62.0173
 30
0.0
 11
6.09505
 21
62.6346
 31
0.0
  0
LINE
  8
0
 62
     0
 10
6.09505
 20
62.6346
 30
0.0
 11
5.99722
 21
63.252
 31
0.0
  0
LINE
  8
0
 62
     0
 10
5.99722
 20
63.252
 30
0.0
 11
5.71334
 21
63.8101
 31
0.0
  0
LINE
  8
0
 62
     0
 10
5.71334
 20
63.8101
 30
0.0
 11
5.27099
 21
64.2525
 31
0.0
  0
LINE
  8
0
 62
     0
 10
5.27099
 20
64.2525
 30
0.0
 11
4.7129
 21
64.5365
 31
0.0
  0
LINE
  8
0
 62
     0
 10
4.7129
 20
64.5365
 30
0.0
 11
4.09416
 21
64.6342
 31
0.0
  0
LINE
  8
0
 62
     0
 10
4.09416
 20
64.6342
 30
0.0
 11
3.47679
 21
64.5365
 31
0.0
  0
LINE
  8
0
 62
     0
 10
416.479
 20
64.5365
 30
0.0
 11
415.921
 21
64.2525
 31
0.0
  0
LINE
  8
0
 62
     0
 10
415.921
 20
64.2525
 30
0.0
 11
415.477
 21
63.8101
 31
0.0
  0
LINE
  8
0
 62
     0
 10
415.477
 20
63.8101
 30
0.0
 11
415.195
 21
63.252
 31
0.0
  0
LINE
  8
0
 62
     0
 10
415.195
 20
63.252
 30
0.0
 11
415.096
 21
62.6346
 31
0.0
  0
LINE
  8
0
 62
     0
 10
415.096
 20
62.6346
 30
0.0
 11
415.195
 21
62.0173
 31
0.0
  0
LINE
  8
0
 62
     0
 10
415.195
 20
62.0173
 30
0.0
 11
415.477
 21
61.4592
 31
0.0
  0
LINE
  8
0
 62
     0
 10
415.477
 20
61.4592
 30
0.0
 11
415.921
 21
61.0168
 31
0.0
  0
LINE
  8
0
 62
     0
 10
415.921
 20
61.0168
 30
0.0
 11
416.479
 21
60.7328
 31
0.0
  0
LINE
  8
0
 62
     0
 10
416.479
 20
60.7328
 30
0.0
 11
417.096
 21
60.6351
 31
0.0
  0
LINE
  8
0
 62
     0
 10
417.096
 20
60.6351
 30
0.0
 11
417.714
 21
60.7328
 31
0.0
  0
LINE
  8
0
 62
     0
 10
417.714
 20
60.7328
 30
0.0
 11
418.271
 21
61.0168
 31
0.0
  0
LINE
  8
0
 62
     0
 10
418.271
 20
61.0168
 30
0.0
 11
418.715
 21
61.4592
 31
0.0
  0
LINE
  8
0
 62
     0
 10
418.715
 20
61.4592
 30
0.0
 11
418.998
 21
62.0173
 31
0.0
  0
LINE
  8
0
 62
     0
 10
418.998
 20
62.0173
 30
0.0
 11
419.096
 21
62.6346
 31
0.0
  0
LINE
  8
0
 62
     0
 10
419.096
 20
62.6346
 30
0.0
 11
418.998
 21
63.252
 31
0.0
  0
LINE
  8
0
 62
     0
 10
418.998
 20
63.252
 30
0.0
 11
418.715
 21
63.8101
 31
0.0
  0
LINE
  8
0
 62
     0
 10
418.715
 20
63.8101
 30
0.0
 11
418.271
 21
64.2525
 31
0.0
  0
LINE
  8
0
 62
     0
 10
418.271
 20
64.2525
 30
0.0
 11
417.714
 21
64.5365
 31
0.0
  0
LINE
  8
0
 62
     0
 10
417.714
 20
64.5365
 30
0.0
 11
417.096
 21
64.6342
 31
0.0
  0
LINE
  8
0
 62
     0
 10
417.096
 20
64.6342
 30
0.0
 11
416.479
 21
64.5365
 31
0.0
  0
LINE
  8
0
 62
     0
 10
360.758
 20
88.5666
 30
0.0
 11
374.756
 21
88.5666
 31
0.0
  0
LINE
  8
0
 62
     0
 10
374.756
 20
88.5666
 30
0.0
 11
374.756
 21
74.567
 31
0.0
  0
LINE
  8
0
 62
     0
 10
374.756
 20
74.567
 30
0.0
 11
360.758
 21
74.567
 31
0.0
  0
LINE
  8
0
 62
     0
 10
360.758
 20
74.567
 30
0.0
 11
360.758
 21
88.5666
 31
0.0
  0
LINE
  8
0
 62
     0
 10
332.183
 20
88.5666
 30
0.0
 11
346.183
 21
88.5666
 31
0.0
  0
LINE
  8
0
 62
     0
 10
346.183
 20
88.5666
 30
0.0
 11
346.183
 21
74.567
 31
0.0
  0
LINE
  8
0
 62
     0
 10
346.183
 20
74.567
 30
0.0
 11
332.183
 21
74.567
 31
0.0
  0
LINE
  8
0
 62
     0
 10
332.183
 20
74.567
 30
0.0
 11
332.183
 21
88.5666
 31
0.0
  0
LINE
  8
0
 62
     0
 10
308.37
 20
88.5666
 30
0.0
 11
322.37
 21
88.5666
 31
0.0
  0
LINE
  8
0
 62
     0
 10
322.37
 20
88.5666
 30
0.0
 11
322.37
 21
74.567
 31
0.0
  0
LINE
  8
0
 62
     0
 10
322.37
 20
74.567
 30
0.0
 11
308.37
 21
74.567
 31
0.0
  0
LINE
  8
0
 62
     0
 10
308.37
 20
74.567
 30
0.0
 11
308.37
 21
88.5666
 31
0.0
  0
LINE
  8
0
 62
     0
 10
289.32
 20
88.5666
 30
0.0
 11
303.32
 21
88.5666
 31
0.0
  0
LINE
  8
0
 62
     0
 10
303.32
 20
88.5666
 30
0.0
 11
303.32
 21
74.567
 31
0.0
  0
LINE
  8
0
 62
     0
 10
303.32
 20
74.567
 30
0.0
 11
289.32
 21
74.567
 31
0.0
  0
LINE
  8
0
 62
     0
 10
289.32
 20
74.567
 30
0.0
 11
289.32
 21
88.5666
 31
0.0
  0
LINE
  8
0
 62
     0
 10
270.27
 20
88.5666
 30
0.0
 11
284.27
 21
88.5666
 31
0.0
  0
LINE
  8
0
 62
     0
 10
284.27
 20
88.5666
 30
0.0
 11
284.27
 21
74.567
 31
0.0
  0
LINE
  8
0
 62
     0
 10
284.27
 20
74.567
 30
0.0
 11
270.27
 21
74.567
 31
0.0
  0
LINE
  8
0
 62
     0
 10
270.27
 20
74.567
 30
0.0
 11
270.27
 21
88.5666
 31
0.0
  0
LINE
  8
0
 62
     0
 10
251.22
 20
88.5666
 30
0.0
 11
265.22
 21
88.5666
 31
0.0
  0
LINE
  8
0
 62
     0
 10
265.22
 20
88.5666
 30
0.0
 11
265.22
 21
74.567
 31
0.0
  0
LINE
  8
0
 62
     0
 10
265.22
 20
74.567
 30
0.0
 11
251.22
 21
74.567
 31
0.0
  0
LINE
  8
0
 62
     0
 10
251.22
 20
74.567
 30
0.0
 11
251.22
 21
88.5666
 31
0.0
  0
LINE
  8
0
 62
     0
 10
232.17
 20
88.5666
 30
0.0
 11
246.17
 21
88.5666
 31
0.0
  0
LINE
  8
0
 62
     0
 10
246.17
 20
88.5666
 30
0.0
 11
246.17
 21
74.567
 31
0.0
  0
LINE
  8
0
 62
     0
 10
246.17
 20
74.567
 30
0.0
 11
232.17
 21
74.567
 31
0.0
  0
LINE
  8
0
 62
     0
 10
232.17
 20
74.567
 30
0.0
 11
232.17
 21
88.5666
 31
0.0
  0
LINE
  8
0
 62
     0
 10
213.12
 20
88.5666
 30
0.0
 11
227.12
 21
88.5666
 31
0.0
  0
LINE
  8
0
 62
     0
 10
227.12
 20
88.5666
 30
0.0
 11
227.12
 21
74.567
 31
0.0
  0
LINE
  8
0
 62
     0
 10
227.12
 20
74.567
 30
0.0
 11
213.12
 21
74.567
 31
0.0
  0
LINE
  8
0
 62
     0
 10
213.12
 20
74.567
 30
0.0
 11
213.12
 21
88.5666
 31
0.0
  0
LINE
  8
0
 62
     0
 10
194.07
 20
88.5666
 30
0.0
 11
208.07
 21
88.5666
 31
0.0
  0
LINE
  8
0
 62
     0
 10
208.07
 20
88.5666
 30
0.0
 11
208.07
 21
74.567
 31
0.0
  0
LINE
  8
0
 62
     0
 10
208.07
 20
74.567
 30
0.0
 11
194.07
 21
74.567
 31
0.0
  0
LINE
  8
0
 62
     0
 10
194.07
 20
74.567
 30
0.0
 11
194.07
 21
88.5666
 31
0.0
  0
LINE
  8
0
 62
     0
 10
175.02
 20
88.5666
 30
0.0
 11
189.02
 21
88.5666
 31
0.0
  0
LINE
  8
0
 62
     0
 10
189.02
 20
88.5666
 30
0.0
 11
189.02
 21
74.567
 31
0.0
  0
LINE
  8
0
 62
     0
 10
189.02
 20
74.567
 30
0.0
 11
175.02
 21
74.567
 31
0.0
  0
LINE
  8
0
 62
     0
 10
175.02
 20
74.567
 30
0.0
 11
175.02
 21
88.5666
 31
0.0
  0
LINE
  8
0
 62
     0
 10
155.97
 20
88.5666
 30
0.0
 11
169.97
 21
88.5666
 31
0.0
  0
LINE
  8
0
 62
     0
 10
169.97
 20
88.5666
 30
0.0
 11
169.97
 21
74.567
 31
0.0
  0
LINE
  8
0
 62
     0
 10
169.97
 20
74.567
 30
0.0
 11
155.97
 21
74.567
 31
0.0
  0
LINE
  8
0
 62
     0
 10
155.97
 20
74.567
 30
0.0
 11
155.97
 21
88.5666
 31
0.0
  0
LINE
  8
0
 62
     0
 10
136.92
 20
88.5666
 30
0.0
 11
150.92
 21
88.5666
 31
0.0
  0
LINE
  8
0
 62
     0
 10
150.92
 20
88.5666
 30
0.0
 11
150.92
 21
74.567
 31
0.0
  0
LINE
  8
0
 62
     0
 10
150.92
 20
74.567
 30
0.0
 11
136.92
 21
74.567
 31
0.0
  0
LINE
  8
0
 62
     0
 10
136.92
 20
74.567
 30
0.0
 11
136.92
 21
88.5666
 31
0.0
  0
LINE
  8
0
 62
     0
 10
117.87
 20
88.5666
 30
0.0
 11
131.87
 21
88.5666
 31
0.0
  0
LINE
  8
0
 62
     0
 10
131.87
 20
88.5666
 30
0.0
 11
131.87
 21
74.567
 31
0.0
  0
LINE
  8
0
 62
     0
 10
131.87
 20
74.567
 30
0.0
 11
117.87
 21
74.567
 31
0.0
  0
LINE
  8
0
 62
     0
 10
117.87
 20
74.567
 30
0.0
 11
117.87
 21
88.5666
 31
0.0
  0
LINE
  8
0
 62
     0
 10
98.8205
 20
88.5666
 30
0.0
 11
112.82
 21
88.5666
 31
0.0
  0
LINE
  8
0
 62
     0
 10
112.82
 20
88.5666
 30
0.0
 11
112.82
 21
74.567
 31
0.0
  0
LINE
  8
0
 62
     0
 10
112.82
 20
74.567
 30
0.0
 11
98.8205
 21
74.567
 31
0.0
  0
LINE
  8
0
 62
     0
 10
98.8205
 20
74.567
 30
0.0
 11
98.8205
 21
88.5666
 31
0.0
  0
LINE
  8
0
 62
     0
 10
75.008
 20
88.5666
 30
0.0
 11
89.0076
 21
88.5666
 31
0.0
  0
LINE
  8
0
 62
     0
 10
89.0076
 20
88.5666
 30
0.0
 11
89.0076
 21
74.567
 31
0.0
  0
LINE
  8
0
 62
     0
 10
89.0076
 20
74.567
 30
0.0
 11
75.008
 21
74.567
 31
0.0
  0
LINE
  8
0
 62
     0
 10
75.008
 20
74.567
 30
0.0
 11
75.008
 21
88.5666
 31
0.0
  0
LINE
  8
0
 62
     0
 10
46.433
 20
88.5666
 30
0.0
 11
60.4326
 21
88.5666
 31
0.0
  0
LINE
  8
0
 62
     0
 10
60.4326
 20
88.5666
 30
0.0
 11
60.4326
 21
74.567
 31
0.0
  0
LINE
  8
0
 62
     0
 10
60.4326
 20
74.567
 30
0.0
 11
46.433
 21
74.567
 31
0.0
  0
LINE
  8
0
 62
     0
 10
46.433
 20
74.567
 30
0.0
 11
46.433
 21
88.5666
 31
0.0
  0
LINE
  8
0
 62
     0
 10
391.072
 20
107.192
 30
0.0
 11
391.072
 21
106.365
 31
0.0
  0
LINE
  8
0
 62
     0
 10
391.072
 20
106.365
 30
0.0
 11
384.799
 21
106.365
 31
0.0
  0
LINE
  8
0
 62
     0
 10
384.799
 20
106.365
 30
0.0
 11
384.799
 21
104.641
 31
0.0
  0
LINE
  8
0
 62
     0
 10
384.799
 20
104.641
 30
0.0
 11
383.6
 21
104.641
 31
0.0
  0
LINE
  8
0
 62
     0
 10
383.6
 20
104.641
 30
0.0
 11
383.6
 21
101.342
 31
0.0
  0
LINE
  8
0
 62
     0
 10
383.6
 20
101.342
 30
0.0
 11
384.799
 21
101.342
 31
0.0
  0
LINE
  8
0
 62
     0
 10
384.799
 20
101.342
 30
0.0
 11
384.799
 21
99.6156
 31
0.0
  0
LINE
  8
0
 62
     0
 10
384.799
 20
99.6156
 30
0.0
 11
389.273
 21
99.6156
 31
0.0
  0
LINE
  8
0
 62
     0
 10
389.273
 20
99.6156
 30
0.0
 11
389.273
 21
98.0916
 31
0.0
  0
LINE
  8
0
 62
     0
 10
389.273
 20
98.0916
 30
0.0
 11
384.57
 21
98.0916
 31
0.0
  0
LINE
  8
0
 62
     0
 10
384.57
 20
98.0916
 30
0.0
 11
384.57
 21
84.0906
 31
0.0
  0
LINE
  8
0
 62
     0
 10
384.57
 20
84.0906
 30
0.0
 11
389.273
 21
84.0906
 31
0.0
  0
LINE
  8
0
 62
     0
 10
389.273
 20
84.0906
 30
0.0
 11
389.273
 21
82.5666
 31
0.0
  0
LINE
  8
0
 62
     0
 10
389.273
 20
82.5666
 30
0.0
 11
384.799
 21
82.5666
 31
0.0
  0
LINE
  8
0
 62
     0
 10
384.799
 20
82.5666
 30
0.0
 11
384.799
 21
80.8411
 31
0.0
  0
LINE
  8
0
 62
     0
 10
384.799
 20
80.8411
 30
0.0
 11
383.6
 21
80.8411
 31
0.0
  0
LINE
  8
0
 62
     0
 10
383.6
 20
80.8411
 30
0.0
 11
383.6
 21
77.5423
 31
0.0
  0
LINE
  8
0
 62
     0
 10
383.6
 20
77.5423
 30
0.0
 11
384.799
 21
77.5423
 31
0.0
  0
LINE
  8
0
 62
     0
 10
384.799
 20
77.5423
 30
0.0
 11
384.799
 21
75.8169
 31
0.0
  0
LINE
  8
0
 62
     0
 10
384.799
 20
75.8169
 30
0.0
 11
391.072
 21
75.8169
 31
0.0
  0
LINE
  8
0
 62
     0
 10
391.072
 20
75.8169
 30
0.0
 11
391.072
 21
74.99
 31
0.0
  0
LINE
  8
0
 62
     0
 10
391.072
 20
74.99
 30
0.0
 11
393.869
 21
74.99
 31
0.0
  0
LINE
  8
0
 62
     0
 10
393.869
 20
74.99
 30
0.0
 11
393.869
 21
75.8169
 31
0.0
  0
LINE
  8
0
 62
     0
 10
393.869
 20
75.8169
 30
0.0
 11
397.101
 21
75.8169
 31
0.0
  0
LINE
  8
0
 62
     0
 10
397.101
 20
75.8169
 30
0.0
 11
397.101
 21
82.5666
 31
0.0
  0
LINE
  8
0
 62
     0
 10
397.101
 20
82.5666
 30
0.0
 11
393.869
 21
82.5666
 31
0.0
  0
LINE
  8
0
 62
     0
 10
393.869
 20
82.5666
 30
0.0
 11
393.869
 21
84.0906
 31
0.0
  0
LINE
  8
0
 62
     0
 10
393.869
 20
84.0906
 30
0.0
 11
398.568
 21
84.0906
 31
0.0
  0
LINE
  8
0
 62
     0
 10
398.568
 20
84.0906
 30
0.0
 11
398.568
 21
98.0916
 31
0.0
  0
LINE
  8
0
 62
     0
 10
398.568
 20
98.0916
 30
0.0
 11
393.869
 21
98.0916
 31
0.0
  0
LINE
  8
0
 62
     0
 10
393.869
 20
98.0916
 30
0.0
 11
393.869
 21
99.6156
 31
0.0
  0
LINE
  8
0
 62
     0
 10
393.869
 20
99.6156
 30
0.0
 11
397.101
 21
99.6156
 31
0.0
  0
LINE
  8
0
 62
     0
 10
397.101
 20
99.6156
 30
0.0
 11
397.101
 21
106.365
 31
0.0
  0
LINE
  8
0
 62
     0
 10
397.101
 20
106.365
 30
0.0
 11
393.869
 21
106.365
 31
0.0
  0
LINE
  8
0
 62
     0
 10
393.869
 20
106.365
 30
0.0
 11
393.869
 21
107.192
 31
0.0
  0
LINE
  8
0
 62
     0
 10
393.869
 20
107.192
 30
0.0
 11
391.072
 21
107.192
 31
0.0
  0
LINE
  8
0
 62
     0
 10
29.1207
 20
107.192
 30
0.0
 11
29.1207
 21
106.365
 31
0.0
  0
LINE
  8
0
 62
     0
 10
29.1207
 20
106.365
 30
0.0
 11
22.8506
 21
106.365
 31
0.0
  0
LINE
  8
0
 62
     0
 10
22.8506
 20
106.365
 30
0.0
 11
22.8506
 21
104.641
 31
0.0
  0
LINE
  8
0
 62
     0
 10
22.8506
 20
104.641
 30
0.0
 11
21.6504
 21
104.641
 31
0.0
  0
LINE
  8
0
 62
     0
 10
21.6504
 20
104.641
 30
0.0
 11
21.6504
 21
101.342
 31
0.0
  0
LINE
  8
0
 62
     0
 10
21.6504
 20
101.342
 30
0.0
 11
22.8506
 21
101.342
 31
0.0
  0
LINE
  8
0
 62
     0
 10
22.8506
 20
101.342
 30
0.0
 11
22.8506
 21
99.6156
 31
0.0
  0
LINE
  8
0
 62
     0
 10
22.8506
 20
99.6156
 30
0.0
 11
27.321
 21
99.6156
 31
0.0
  0
LINE
  8
0
 62
     0
 10
27.321
 20
99.6156
 30
0.0
 11
27.321
 21
98.0916
 31
0.0
  0
LINE
  8
0
 62
     0
 10
27.321
 20
98.0916
 30
0.0
 11
22.6205
 21
98.0916
 31
0.0
  0
LINE
  8
0
 62
     0
 10
22.6205
 20
98.0916
 30
0.0
 11
22.6205
 21
84.0906
 31
0.0
  0
LINE
  8
0
 62
     0
 10
22.6205
 20
84.0906
 30
0.0
 11
27.321
 21
84.0906
 31
0.0
  0
LINE
  8
0
 62
     0
 10
27.321
 20
84.0906
 30
0.0
 11
27.321
 21
82.5666
 31
0.0
  0
LINE
  8
0
 62
     0
 10
27.321
 20
82.5666
 30
0.0
 11
22.8506
 21
82.5666
 31
0.0
  0
LINE
  8
0
 62
     0
 10
22.8506
 20
82.5666
 30
0.0
 11
22.8506
 21
80.8411
 31
0.0
  0
LINE
  8
0
 62
     0
 10
22.8506
 20
80.8411
 30
0.0
 11
21.6504
 21
80.8411
 31
0.0
  0
LINE
  8
0
 62
     0
 10
21.6504
 20
80.8411
 30
0.0
 11
21.6504
 21
77.5423
 31
0.0
  0
LINE
  8
0
 62
     0
 10
21.6504
 20
77.5423
 30
0.0
 11
22.8506
 21
77.5423
 31
0.0
  0
LINE
  8
0
 62
     0
 10
22.8506
 20
77.5423
 30
0.0
 11
22.8506
 21
75.8169
 31
0.0
  0
LINE
  8
0
 62
     0
 10
22.8506
 20
75.8169
 30
0.0
 11
29.1207
 21
75.8169
 31
0.0
  0
LINE
  8
0
 62
     0
 10
29.1207
 20
75.8169
 30
0.0
 11
29.1207
 21
74.99
 31
0.0
  0
LINE
  8
0
 62
     0
 10
29.1207
 20
74.99
 30
0.0
 11
31.9209
 21
74.99
 31
0.0
  0
LINE
  8
0
 62
     0
 10
31.9209
 20
74.99
 30
0.0
 11
31.9209
 21
75.8169
 31
0.0
  0
LINE
  8
0
 62
     0
 10
31.9209
 20
75.8169
 30
0.0
 11
35.151
 21
75.8169
 31
0.0
  0
LINE
  8
0
 62
     0
 10
35.151
 20
75.8169
 30
0.0
 11
35.151
 21
82.5666
 31
0.0
  0
LINE
  8
0
 62
     0
 10
35.151
 20
82.5666
 30
0.0
 11
31.9195
 21
82.5666
 31
0.0
  0
LINE
  8
0
 62
     0
 10
31.9195
 20
82.5666
 30
0.0
 11
31.9195
 21
84.0906
 31
0.0
  0
LINE
  8
0
 62
     0
 10
31.9195
 20
84.0906
 30
0.0
 11
36.6201
 21
84.0906
 31
0.0
  0
LINE
  8
0
 62
     0
 10
36.6201
 20
84.0906
 30
0.0
 11
36.6201
 21
98.0916
 31
0.0
  0
LINE
  8
0
 62
     0
 10
36.6201
 20
98.0916
 30
0.0
 11
31.9195
 21
98.0916
 31
0.0
  0
LINE
  8
0
 62
     0
 10
31.9195
 20
98.0916
 30
0.0
 11
31.9195
 21
99.6156
 31
0.0
  0
LINE
  8
0
 62
     0
 10
31.9195
 20
99.6156
 30
0.0
 11
35.151
 21
99.6156
 31
0.0
  0
LINE
  8
0
 62
     0
 10
35.151
 20
99.6156
 30
0.0
 11
35.151
 21
106.365
 31
0.0
  0
LINE
  8
0
 62
     0
 10
35.151
 20
106.365
 30
0.0
 11
31.9195
 21
106.365
 31
0.0
  0
LINE
  8
0
 62
     0
 10
31.9195
 20
106.365
 30
0.0
 11
31.9195
 21
107.192
 31
0.0
  0
LINE
  8
0
 62
     0
 10
31.9195
 20
107.192
 30
0.0
 11
29.1207
 21
107.192
 31
0.0
  0
LINE
  8
0
 62
     0
 10
327.42
 20
107.615
 30
0.0
 11
327.42
 21
102.916
 31
0.0
  0
LINE
  8
0
 62
     0
 10
327.42
 20
102.916
 30
0.0
 11
325.895
 21
102.916
 31
0.0
  0
LINE
  8
0
 62
     0
 10
325.895
 20
102.916
 30
0.0
 11
325.895
 21
106.146
 31
0.0
  0
LINE
  8
0
 62
     0
 10
325.895
 20
106.146
 30
0.0
 11
319.145
 21
106.146
 31
0.0
  0
LINE
  8
0
 62
     0
 10
319.145
 20
106.146
 30
0.0
 11
319.145
 21
102.916
 31
0.0
  0
LINE
  8
0
 62
     0
 10
319.145
 20
102.916
 30
0.0
 11
318.32
 21
102.916
 31
0.0
  0
LINE
  8
0
 62
     0
 10
318.32
 20
102.916
 30
0.0
 11
318.32
 21
100.116
 31
0.0
  0
LINE
  8
0
 62
     0
 10
318.32
 20
100.116
 30
0.0
 11
319.145
 21
100.116
 31
0.0
  0
LINE
  8
0
 62
     0
 10
319.145
 20
100.116
 30
0.0
 11
319.145
 21
93.8459
 31
0.0
  0
LINE
  8
0
 62
     0
 10
319.145
 20
93.8459
 30
0.0
 11
320.871
 21
93.8459
 31
0.0
  0
LINE
  8
0
 62
     0
 10
320.871
 20
93.8459
 30
0.0
 11
320.871
 21
92.6454
 31
0.0
  0
LINE
  8
0
 62
     0
 10
320.871
 20
92.6454
 30
0.0
 11
324.171
 21
92.6454
 31
0.0
  0
LINE
  8
0
 62
     0
 10
324.171
 20
92.6454
 30
0.0
 11
324.171
 21
93.8459
 31
0.0
  0
LINE
  8
0
 62
     0
 10
324.171
 20
93.8459
 30
0.0
 11
325.895
 21
93.8459
 31
0.0
  0
LINE
  8
0
 62
     0
 10
325.895
 20
93.8459
 30
0.0
 11
325.895
 21
98.316
 31
0.0
  0
LINE
  8
0
 62
     0
 10
325.895
 20
98.316
 30
0.0
 11
327.42
 21
98.316
 31
0.0
  0
LINE
  8
0
 62
     0
 10
327.42
 20
98.316
 30
0.0
 11
327.42
 21
93.6156
 31
0.0
  0
LINE
  8
0
 62
     0
 10
327.42
 20
93.6156
 30
0.0
 11
341.42
 21
93.6156
 31
0.0
  0
LINE
  8
0
 62
     0
 10
341.42
 20
93.6156
 30
0.0
 11
341.42
 21
98.316
 31
0.0
  0
LINE
  8
0
 62
     0
 10
341.42
 20
98.316
 30
0.0
 11
342.946
 21
98.316
 31
0.0
  0
LINE
  8
0
 62
     0
 10
342.946
 20
98.316
 30
0.0
 11
342.946
 21
93.8459
 31
0.0
  0
LINE
  8
0
 62
     0
 10
342.946
 20
93.8459
 30
0.0
 11
344.671
 21
93.8459
 31
0.0
  0
LINE
  8
0
 62
     0
 10
344.671
 20
93.8459
 30
0.0
 11
344.671
 21
92.6454
 31
0.0
  0
LINE
  8
0
 62
     0
 10
344.671
 20
92.6454
 30
0.0
 11
347.971
 21
92.6454
 31
0.0
  0
LINE
  8
0
 62
     0
 10
347.971
 20
92.6454
 30
0.0
 11
347.971
 21
93.8459
 31
0.0
  0
LINE
  8
0
 62
     0
 10
347.971
 20
93.8459
 30
0.0
 11
349.695
 21
93.8459
 31
0.0
  0
LINE
  8
0
 62
     0
 10
349.695
 20
93.8459
 30
0.0
 11
349.695
 21
100.116
 31
0.0
  0
LINE
  8
0
 62
     0
 10
349.695
 20
100.116
 30
0.0
 11
350.521
 21
100.116
 31
0.0
  0
LINE
  8
0
 62
     0
 10
350.521
 20
100.116
 30
0.0
 11
350.521
 21
102.916
 31
0.0
  0
LINE
  8
0
 62
     0
 10
350.521
 20
102.916
 30
0.0
 11
349.695
 21
102.916
 31
0.0
  0
LINE
  8
0
 62
     0
 10
349.695
 20
102.916
 30
0.0
 11
349.695
 21
106.146
 31
0.0
  0
LINE
  8
0
 62
     0
 10
349.695
 20
106.146
 30
0.0
 11
342.946
 21
106.146
 31
0.0
  0
LINE
  8
0
 62
     0
 10
342.946
 20
106.146
 30
0.0
 11
342.946
 21
102.916
 31
0.0
  0
LINE
  8
0
 62
     0
 10
342.946
 20
102.916
 30
0.0
 11
341.42
 21
102.916
 31
0.0
  0
LINE
  8
0
 62
     0
 10
341.42
 20
102.916
 30
0.0
 11
341.42
 21
107.615
 31
0.0
  0
LINE
  8
0
 62
     0
 10
341.42
 20
107.615
 30
0.0
 11
327.42
 21
107.615
 31
0.0
  0
LINE
  8
0
 62
     0
 10
360.758
 20
107.615
 30
0.0
 11
374.756
 21
107.615
 31
0.0
  0
LINE
  8
0
 62
     0
 10
374.756
 20
107.615
 30
0.0
 11
374.756
 21
93.6156
 31
0.0
  0
LINE
  8
0
 62
     0
 10
374.756
 20
93.6156
 30
0.0
 11
360.758
 21
93.6156
 31
0.0
  0
LINE
  8
0
 62
     0
 10
360.758
 20
93.6156
 30
0.0
 11
360.758
 21
107.615
 31
0.0
  0
LINE
  8
0
 62
     0
 10
298.845
 20
107.615
 30
0.0
 11
312.845
 21
107.615
 31
0.0
  0
LINE
  8
0
 62
     0
 10
312.845
 20
107.615
 30
0.0
 11
312.845
 21
93.6156
 31
0.0
  0
LINE
  8
0
 62
     0
 10
312.845
 20
93.6156
 30
0.0
 11
298.845
 21
93.6156
 31
0.0
  0
LINE
  8
0
 62
     0
 10
298.845
 20
93.6156
 30
0.0
 11
298.845
 21
107.615
 31
0.0
  0
LINE
  8
0
 62
     0
 10
279.795
 20
107.615
 30
0.0
 11
293.795
 21
107.615
 31
0.0
  0
LINE
  8
0
 62
     0
 10
293.795
 20
107.615
 30
0.0
 11
293.795
 21
93.6156
 31
0.0
  0
LINE
  8
0
 62
     0
 10
293.795
 20
93.6156
 30
0.0
 11
279.795
 21
93.6156
 31
0.0
  0
LINE
  8
0
 62
     0
 10
279.795
 20
93.6156
 30
0.0
 11
279.795
 21
107.615
 31
0.0
  0
LINE
  8
0
 62
     0
 10
260.745
 20
107.615
 30
0.0
 11
274.745
 21
107.615
 31
0.0
  0
LINE
  8
0
 62
     0
 10
274.745
 20
107.615
 30
0.0
 11
274.745
 21
93.6156
 31
0.0
  0
LINE
  8
0
 62
     0
 10
274.745
 20
93.6156
 30
0.0
 11
260.745
 21
93.6156
 31
0.0
  0
LINE
  8
0
 62
     0
 10
260.745
 20
93.6156
 30
0.0
 11
260.745
 21
107.615
 31
0.0
  0
LINE
  8
0
 62
     0
 10
241.695
 20
107.615
 30
0.0
 11
255.695
 21
107.615
 31
0.0
  0
LINE
  8
0
 62
     0
 10
255.695
 20
107.615
 30
0.0
 11
255.695
 21
93.6156
 31
0.0
  0
LINE
  8
0
 62
     0
 10
255.695
 20
93.6156
 30
0.0
 11
241.695
 21
93.6156
 31
0.0
  0
LINE
  8
0
 62
     0
 10
241.695
 20
93.6156
 30
0.0
 11
241.695
 21
107.615
 31
0.0
  0
LINE
  8
0
 62
     0
 10
222.645
 20
107.615
 30
0.0
 11
236.645
 21
107.615
 31
0.0
  0
LINE
  8
0
 62
     0
 10
236.645
 20
107.615
 30
0.0
 11
236.645
 21
93.6156
 31
0.0
  0
LINE
  8
0
 62
     0
 10
236.645
 20
93.6156
 30
0.0
 11
222.645
 21
93.6156
 31
0.0
  0
LINE
  8
0
 62
     0
 10
222.645
 20
93.6156
 30
0.0
 11
222.645
 21
107.615
 31
0.0
  0
LINE
  8
0
 62
     0
 10
203.595
 20
107.615
 30
0.0
 11
217.595
 21
107.615
 31
0.0
  0
LINE
  8
0
 62
     0
 10
217.595
 20
107.615
 30
0.0
 11
217.595
 21
93.6156
 31
0.0
  0
LINE
  8
0
 62
     0
 10
217.595
 20
93.6156
 30
0.0
 11
203.595
 21
93.6156
 31
0.0
  0
LINE
  8
0
 62
     0
 10
203.595
 20
93.6156
 30
0.0
 11
203.595
 21
107.615
 31
0.0
  0
LINE
  8
0
 62
     0
 10
184.545
 20
107.615
 30
0.0
 11
198.545
 21
107.615
 31
0.0
  0
LINE
  8
0
 62
     0
 10
198.545
 20
107.615
 30
0.0
 11
198.545
 21
93.6156
 31
0.0
  0
LINE
  8
0
 62
     0
 10
198.545
 20
93.6156
 30
0.0
 11
184.545
 21
93.6156
 31
0.0
  0
LINE
  8
0
 62
     0
 10
184.545
 20
93.6156
 30
0.0
 11
184.545
 21
107.615
 31
0.0
  0
LINE
  8
0
 62
     0
 10
165.495
 20
107.615
 30
0.0
 11
179.495
 21
107.615
 31
0.0
  0
LINE
  8
0
 62
     0
 10
179.495
 20
107.615
 30
0.0
 11
179.495
 21
93.6156
 31
0.0
  0
LINE
  8
0
 62
     0
 10
179.495
 20
93.6156
 30
0.0
 11
165.495
 21
93.6156
 31
0.0
  0
LINE
  8
0
 62
     0
 10
165.495
 20
93.6156
 30
0.0
 11
165.495
 21
107.615
 31
0.0
  0
LINE
  8
0
 62
     0
 10
146.445
 20
107.615
 30
0.0
 11
160.445
 21
107.615
 31
0.0
  0
LINE
  8
0
 62
     0
 10
160.445
 20
107.615
 30
0.0
 11
160.445
 21
93.6156
 31
0.0
  0
LINE
  8
0
 62
     0
 10
160.445
 20
93.6156
 30
0.0
 11
146.445
 21
93.6156
 31
0.0
  0
LINE
  8
0
 62
     0
 10
146.445
 20
93.6156
 30
0.0
 11
146.445
 21
107.615
 31
0.0
  0
LINE
  8
0
 62
     0
 10
127.395
 20
107.615
 30
0.0
 11
141.395
 21
107.615
 31
0.0
  0
LINE
  8
0
 62
     0
 10
141.395
 20
107.615
 30
0.0
 11
141.395
 21
93.6156
 31
0.0
  0
LINE
  8
0
 62
     0
 10
141.395
 20
93.6156
 30
0.0
 11
127.395
 21
93.6156
 31
0.0
  0
LINE
  8
0
 62
     0
 10
127.395
 20
93.6156
 30
0.0
 11
127.395
 21
107.615
 31
0.0
  0
LINE
  8
0
 62
     0
 10
108.345
 20
107.615
 30
0.0
 11
122.345
 21
107.615
 31
0.0
  0
LINE
  8
0
 62
     0
 10
122.345
 20
107.615
 30
0.0
 11
122.345
 21
93.6156
 31
0.0
  0
LINE
  8
0
 62
     0
 10
122.345
 20
93.6156
 30
0.0
 11
108.345
 21
93.6156
 31
0.0
  0
LINE
  8
0
 62
     0
 10
108.345
 20
93.6156
 30
0.0
 11
108.345
 21
107.615
 31
0.0
  0
LINE
  8
0
 62
     0
 10
89.2955
 20
107.615
 30
0.0
 11
103.295
 21
107.615
 31
0.0
  0
LINE
  8
0
 62
     0
 10
103.295
 20
107.615
 30
0.0
 11
103.295
 21
93.6156
 31
0.0
  0
LINE
  8
0
 62
     0
 10
103.295
 20
93.6156
 30
0.0
 11
89.2955
 21
93.6156
 31
0.0
  0
LINE
  8
0
 62
     0
 10
89.2955
 20
93.6156
 30
0.0
 11
89.2955
 21
107.615
 31
0.0
  0
LINE
  8
0
 62
     0
 10
70.2455
 20
107.615
 30
0.0
 11
84.2451
 21
107.615
 31
0.0
  0
LINE
  8
0
 62
     0
 10
84.2451
 20
107.615
 30
0.0
 11
84.2451
 21
93.6156
 31
0.0
  0
LINE
  8
0
 62
     0
 10
84.2451
 20
93.6156
 30
0.0
 11
70.2455
 21
93.6156
 31
0.0
  0
LINE
  8
0
 62
     0
 10
70.2455
 20
93.6156
 30
0.0
 11
70.2455
 21
107.615
 31
0.0
  0
LINE
  8
0
 62
     0
 10
46.433
 20
107.615
 30
0.0
 11
60.4326
 21
107.615
 31
0.0
  0
LINE
  8
0
 62
     0
 10
60.4326
 20
107.615
 30
0.0
 11
60.4326
 21
93.6156
 31
0.0
  0
LINE
  8
0
 62
     0
 10
60.4326
 20
93.6156
 30
0.0
 11
46.433
 21
93.6156
 31
0.0
  0
LINE
  8
0
 62
     0
 10
46.433
 20
93.6156
 30
0.0
 11
46.433
 21
107.615
 31
0.0
  0
LINE
  8
0
 62
     0
 10
3.47679
 20
123.044
 30
0.0
 11
2.92006
 21
122.76
 31
0.0
  0
LINE
  8
0
 62
     0
 10
2.92006
 20
122.76
 30
0.0
 11
2.47633
 21
122.316
 31
0.0
  0
LINE
  8
0
 62
     0
 10
2.47633
 20
122.316
 30
0.0
 11
2.19246
 21
121.759
 31
0.0
  0
LINE
  8
0
 62
     0
 10
2.19246
 20
121.759
 30
0.0
 11
2.09462
 21
121.141
 31
0.0
  0
LINE
  8
0
 62
     0
 10
2.09462
 20
121.141
 30
0.0
 11
2.19246
 21
120.523
 31
0.0
  0
LINE
  8
0
 62
     0
 10
2.19246
 20
120.523
 30
0.0
 11
2.47633
 21
119.965
 31
0.0
  0
LINE
  8
0
 62
     0
 10
2.47633
 20
119.965
 30
0.0
 11
2.92006
 21
119.523
 31
0.0
  0
LINE
  8
0
 62
     0
 10
2.92006
 20
119.523
 30
0.0
 11
3.47679
 21
119.239
 31
0.0
  0
LINE
  8
0
 62
     0
 10
3.47679
 20
119.239
 30
0.0
 11
4.09416
 21
119.141
 31
0.0
  0
LINE
  8
0
 62
     0
 10
4.09416
 20
119.141
 30
0.0
 11
4.7129
 21
119.239
 31
0.0
  0
LINE
  8
0
 62
     0
 10
4.7129
 20
119.239
 30
0.0
 11
5.27099
 21
119.523
 31
0.0
  0
LINE
  8
0
 62
     0
 10
5.27099
 20
119.523
 30
0.0
 11
5.71334
 21
119.965
 31
0.0
  0
LINE
  8
0
 62
     0
 10
5.71334
 20
119.965
 30
0.0
 11
5.99722
 21
120.523
 31
0.0
  0
LINE
  8
0
 62
     0
 10
5.99722
 20
120.523
 30
0.0
 11
6.09505
 21
121.141
 31
0.0
  0
LINE
  8
0
 62
     0
 10
6.09505
 20
121.141
 30
0.0
 11
5.99722
 21
121.759
 31
0.0
  0
LINE
  8
0
 62
     0
 10
5.99722
 20
121.759
 30
0.0
 11
5.71334
 21
122.316
 31
0.0
  0
LINE
  8
0
 62
     0
 10
5.71334
 20
122.316
 30
0.0
 11
5.27099
 21
122.76
 31
0.0
  0
LINE
  8
0
 62
     0
 10
5.27099
 20
122.76
 30
0.0
 11
4.7129
 21
123.044
 31
0.0
  0
LINE
  8
0
 62
     0
 10
4.7129
 20
123.044
 30
0.0
 11
4.09416
 21
123.14
 31
0.0
  0
LINE
  8
0
 62
     0
 10
4.09416
 20
123.14
 30
0.0
 11
3.47679
 21
123.044
 31
0.0
  0
LINE
  8
0
 62
     0
 10
416.479
 20
123.044
 30
0.0
 11
415.921
 21
122.76
 31
0.0
  0
LINE
  8
0
 62
     0
 10
415.921
 20
122.76
 30
0.0
 11
415.477
 21
122.316
 31
0.0
  0
LINE
  8
0
 62
     0
 10
415.477
 20
122.316
 30
0.0
 11
415.195
 21
121.759
 31
0.0
  0
LINE
  8
0
 62
     0
 10
415.195
 20
121.759
 30
0.0
 11
415.096
 21
121.141
 31
0.0
  0
LINE
  8
0
 62
     0
 10
415.096
 20
121.141
 30
0.0
 11
415.195
 21
120.523
 31
0.0
  0
LINE
  8
0
 62
     0
 10
415.195
 20
120.523
 30
0.0
 11
415.477
 21
119.965
 31
0.0
  0
LINE
  8
0
 62
     0
 10
415.477
 20
119.965
 30
0.0
 11
415.921
 21
119.523
 31
0.0
  0
LINE
  8
0
 62
     0
 10
415.921
 20
119.523
 30
0.0
 11
416.479
 21
119.239
 31
0.0
  0
LINE
  8
0
 62
     0
 10
416.479
 20
119.239
 30
0.0
 11
417.096
 21
119.141
 31
0.0
  0
LINE
  8
0
 62
     0
 10
417.096
 20
119.141
 30
0.0
 11
417.714
 21
119.239
 31
0.0
  0
LINE
  8
0
 62
     0
 10
417.714
 20
119.239
 30
0.0
 11
418.271
 21
119.523
 31
0.0
  0
LINE
  8
0
 62
     0
 10
418.271
 20
119.523
 30
0.0
 11
418.715
 21
119.965
 31
0.0
  0
LINE
  8
0
 62
     0
 10
418.715
 20
119.965
 30
0.0
 11
418.998
 21
120.523
 31
0.0
  0
LINE
  8
0
 62
     0
 10
418.998
 20
120.523
 30
0.0
 11
419.096
 21
121.141
 31
0.0
  0
LINE
  8
0
 62
     0
 10
419.096
 20
121.141
 30
0.0
 11
418.998
 21
121.759
 31
0.0
  0
LINE
  8
0
 62
     0
 10
418.998
 20
121.759
 30
0.0
 11
418.715
 21
122.316
 31
0.0
  0
LINE
  8
0
 62
     0
 10
418.715
 20
122.316
 30
0.0
 11
418.271
 21
122.76
 31
0.0
  0
LINE
  8
0
 62
     0
 10
418.271
 20
122.76
 30
0.0
 11
417.714
 21
123.044
 31
0.0
  0
LINE
  8
0
 62
     0
 10
417.714
 20
123.044
 30
0.0
 11
417.096
 21
123.14
 31
0.0
  0
LINE
  8
0
 62
     0
 10
417.096
 20
123.14
 30
0.0
 11
416.479
 21
123.044
 31
0.0
  0
LINE
  8
0
 62
     0
 10
313.228
 20
123.044
 30
0.0
 11
312.67
 21
122.76
 31
0.0
  0
LINE
  8
0
 62
     0
 10
312.67
 20
122.76
 30
0.0
 11
312.228
 21
122.316
 31
0.0
  0
LINE
  8
0
 62
     0
 10
312.228
 20
122.316
 30
0.0
 11
311.944
 21
121.759
 31
0.0
  0
LINE
  8
0
 62
     0
 10
311.944
 20
121.759
 30
0.0
 11
311.846
 21
121.141
 31
0.0
  0
LINE
  8
0
 62
     0
 10
311.846
 20
121.141
 30
0.0
 11
311.944
 21
120.523
 31
0.0
  0
LINE
  8
0
 62
     0
 10
311.944
 20
120.523
 30
0.0
 11
312.228
 21
119.965
 31
0.0
  0
LINE
  8
0
 62
     0
 10
312.228
 20
119.965
 30
0.0
 11
312.67
 21
119.523
 31
0.0
  0
LINE
  8
0
 62
     0
 10
312.67
 20
119.523
 30
0.0
 11
313.228
 21
119.239
 31
0.0
  0
LINE
  8
0
 62
     0
 10
313.228
 20
119.239
 30
0.0
 11
313.846
 21
119.141
 31
0.0
  0
LINE
  8
0
 62
     0
 10
313.846
 20
119.141
 30
0.0
 11
314.464
 21
119.239
 31
0.0
  0
LINE
  8
0
 62
     0
 10
314.464
 20
119.239
 30
0.0
 11
315.021
 21
119.523
 31
0.0
  0
LINE
  8
0
 62
     0
 10
315.021
 20
119.523
 30
0.0
 11
315.463
 21
119.965
 31
0.0
  0
LINE
  8
0
 62
     0
 10
315.463
 20
119.965
 30
0.0
 11
315.747
 21
120.523
 31
0.0
  0
LINE
  8
0
 62
     0
 10
315.747
 20
120.523
 30
0.0
 11
315.845
 21
121.141
 31
0.0
  0
LINE
  8
0
 62
     0
 10
315.845
 20
121.141
 30
0.0
 11
315.747
 21
121.759
 31
0.0
  0
LINE
  8
0
 62
     0
 10
315.747
 20
121.759
 30
0.0
 11
315.463
 21
122.316
 31
0.0
  0
LINE
  8
0
 62
     0
 10
315.463
 20
122.316
 30
0.0
 11
315.021
 21
122.76
 31
0.0
  0
LINE
  8
0
 62
     0
 10
315.021
 20
122.76
 30
0.0
 11
314.464
 21
123.044
 31
0.0
  0
LINE
  8
0
 62
     0
 10
314.464
 20
123.044
 30
0.0
 11
313.846
 21
123.14
 31
0.0
  0
LINE
  8
0
 62
     0
 10
313.846
 20
123.14
 30
0.0
 11
313.228
 21
123.044
 31
0.0
  0
LINE
  8
0
 62
     0
 10
209.977
 20
123.044
 30
0.0
 11
209.419
 21
122.76
 31
0.0
  0
LINE
  8
0
 62
     0
 10
209.419
 20
122.76
 30
0.0
 11
208.978
 21
122.316
 31
0.0
  0
LINE
  8
0
 62
     0
 10
208.978
 20
122.316
 30
0.0
 11
208.693
 21
121.759
 31
0.0
  0
LINE
  8
0
 62
     0
 10
208.693
 20
121.759
 30
0.0
 11
208.595
 21
121.141
 31
0.0
  0
LINE
  8
0
 62
     0
 10
208.595
 20
121.141
 30
0.0
 11
208.693
 21
120.523
 31
0.0
  0
LINE
  8
0
 62
     0
 10
208.693
 20
120.523
 30
0.0
 11
208.978
 21
119.965
 31
0.0
  0
LINE
  8
0
 62
     0
 10
208.978
 20
119.965
 30
0.0
 11
209.419
 21
119.523
 31
0.0
  0
LINE
  8
0
 62
     0
 10
209.419
 20
119.523
 30
0.0
 11
209.977
 21
119.239
 31
0.0
  0
LINE
  8
0
 62
     0
 10
209.977
 20
119.239
 30
0.0
 11
210.596
 21
119.141
 31
0.0
  0
LINE
  8
0
 62
     0
 10
210.596
 20
119.141
 30
0.0
 11
211.213
 21
119.239
 31
0.0
  0
LINE
  8
0
 62
     0
 10
211.213
 20
119.239
 30
0.0
 11
211.771
 21
119.523
 31
0.0
  0
LINE
  8
0
 62
     0
 10
211.771
 20
119.523
 30
0.0
 11
212.214
 21
119.965
 31
0.0
  0
LINE
  8
0
 62
     0
 10
212.214
 20
119.965
 30
0.0
 11
212.497
 21
120.523
 31
0.0
  0
LINE
  8
0
 62
     0
 10
212.497
 20
120.523
 30
0.0
 11
212.596
 21
121.141
 31
0.0
  0
LINE
  8
0
 62
     0
 10
212.596
 20
121.141
 30
0.0
 11
212.497
 21
121.759
 31
0.0
  0
LINE
  8
0
 62
     0
 10
212.497
 20
121.759
 30
0.0
 11
212.214
 21
122.316
 31
0.0
  0
LINE
  8
0
 62
     0
 10
212.214
 20
122.316
 30
0.0
 11
211.771
 21
122.76
 31
0.0
  0
LINE
  8
0
 62
     0
 10
211.771
 20
122.76
 30
0.0
 11
211.213
 21
123.044
 31
0.0
  0
LINE
  8
0
 62
     0
 10
211.213
 20
123.044
 30
0.0
 11
210.596
 21
123.14
 31
0.0
  0
LINE
  8
0
 62
     0
 10
210.596
 20
123.14
 30
0.0
 11
209.977
 21
123.044
 31
0.0
  0
LINE
  8
0
 62
     0
 10
106.728
 20
123.044
 30
0.0
 11
106.17
 21
122.76
 31
0.0
  0
LINE
  8
0
 62
     0
 10
106.17
 20
122.76
 30
0.0
 11
105.727
 21
122.316
 31
0.0
  0
LINE
  8
0
 62
     0
 10
105.727
 20
122.316
 30
0.0
 11
105.444
 21
121.759
 31
0.0
  0
LINE
  8
0
 62
     0
 10
105.444
 20
121.759
 30
0.0
 11
105.345
 21
121.141
 31
0.0
  0
LINE
  8
0
 62
     0
 10
105.345
 20
121.141
 30
0.0
 11
105.444
 21
120.523
 31
0.0
  0
LINE
  8
0
 62
     0
 10
105.444
 20
120.523
 30
0.0
 11
105.727
 21
119.965
 31
0.0
  0
LINE
  8
0
 62
     0
 10
105.727
 20
119.965
 30
0.0
 11
106.17
 21
119.523
 31
0.0
  0
LINE
  8
0
 62
     0
 10
106.17
 20
119.523
 30
0.0
 11
106.728
 21
119.239
 31
0.0
  0
LINE
  8
0
 62
     0
 10
106.728
 20
119.239
 30
0.0
 11
107.345
 21
119.141
 31
0.0
  0
LINE
  8
0
 62
     0
 10
107.345
 20
119.141
 30
0.0
 11
107.964
 21
119.239
 31
0.0
  0
LINE
  8
0
 62
     0
 10
107.964
 20
119.239
 30
0.0
 11
108.52
 21
119.523
 31
0.0
  0
LINE
  8
0
 62
     0
 10
108.52
 20
119.523
 30
0.0
 11
108.963
 21
119.965
 31
0.0
  0
LINE
  8
0
 62
     0
 10
108.963
 20
119.965
 30
0.0
 11
109.248
 21
120.523
 31
0.0
  0
LINE
  8
0
 62
     0
 10
109.248
 20
120.523
 30
0.0
 11
109.346
 21
121.141
 31
0.0
  0
LINE
  8
0
 62
     0
 10
109.346
 20
121.141
 30
0.0
 11
109.248
 21
121.759
 31
0.0
  0
LINE
  8
0
 62
     0
 10
109.248
 20
121.759
 30
0.0
 11
108.963
 21
122.316
 31
0.0
  0
LINE
  8
0
 62
     0
 10
108.963
 20
122.316
 30
0.0
 11
108.52
 21
122.76
 31
0.0
  0
LINE
  8
0
 62
     0
 10
108.52
 20
122.76
 30
0.0
 11
107.964
 21
123.044
 31
0.0
  0
LINE
  8
0
 62
     0
 10
107.964
 20
123.044
 30
0.0
 11
107.345
 21
123.14
 31
0.0
  0
LINE
  8
0
 62
     0
 10
107.345
 20
123.14
 30
0.0
 11
106.728
 21
123.044
 31
0.0
  0
ENDSEC
  0
EOF
