%TF.GenerationSoftware,KiCad,Pcbnew,(5.1.9)-1*%
%TF.CreationDate,2021-07-17T21:13:41-07:00*%
%TF.ProjectId,unsplit-keyboard,756e7370-6c69-4742-9d6b-6579626f6172,rev?*%
%TF.SameCoordinates,Original*%
%TF.FileFunction,Paste,Bot*%
%TF.FilePolarity,Positive*%
%FSLAX46Y46*%
G04 Gerber Fmt 4.6, Leading zero omitted, Abs format (unit mm)*
G04 Created by KiCad (PCBNEW (5.1.9)-1) date 2021-07-17 21:13:41*
%MOMM*%
%LPD*%
G01*
G04 APERTURE LIST*
%ADD10R,1.100000X1.800000*%
%ADD11R,1.200000X1.400000*%
%ADD12R,0.500000X1.500000*%
%ADD13R,1.500000X0.500000*%
G04 APERTURE END LIST*
%TO.C,R9*%
G36*
G01*
X340048001Y-25000000D02*
X339147999Y-25000000D01*
G75*
G02*
X338898000Y-24750001I0J249999D01*
G01*
X338898000Y-24224999D01*
G75*
G02*
X339147999Y-23975000I249999J0D01*
G01*
X340048001Y-23975000D01*
G75*
G02*
X340298000Y-24224999I0J-249999D01*
G01*
X340298000Y-24750001D01*
G75*
G02*
X340048001Y-25000000I-249999J0D01*
G01*
G37*
G36*
G01*
X340048001Y-26825000D02*
X339147999Y-26825000D01*
G75*
G02*
X338898000Y-26575001I0J249999D01*
G01*
X338898000Y-26049999D01*
G75*
G02*
X339147999Y-25800000I249999J0D01*
G01*
X340048001Y-25800000D01*
G75*
G02*
X340298000Y-26049999I0J-249999D01*
G01*
X340298000Y-26575001D01*
G75*
G02*
X340048001Y-26825000I-249999J0D01*
G01*
G37*
%TD*%
%TO.C,R8*%
G36*
G01*
X330638999Y-25800000D02*
X331539001Y-25800000D01*
G75*
G02*
X331789000Y-26049999I0J-249999D01*
G01*
X331789000Y-26575001D01*
G75*
G02*
X331539001Y-26825000I-249999J0D01*
G01*
X330638999Y-26825000D01*
G75*
G02*
X330389000Y-26575001I0J249999D01*
G01*
X330389000Y-26049999D01*
G75*
G02*
X330638999Y-25800000I249999J0D01*
G01*
G37*
G36*
G01*
X330638999Y-23975000D02*
X331539001Y-23975000D01*
G75*
G02*
X331789000Y-24224999I0J-249999D01*
G01*
X331789000Y-24750001D01*
G75*
G02*
X331539001Y-25000000I-249999J0D01*
G01*
X330638999Y-25000000D01*
G75*
G02*
X330389000Y-24750001I0J249999D01*
G01*
X330389000Y-24224999D01*
G75*
G02*
X330638999Y-23975000I249999J0D01*
G01*
G37*
%TD*%
%TO.C,USB1*%
G36*
G01*
X340220020Y-21915020D02*
X340220020Y-20465020D01*
G75*
G02*
X340270020Y-20415020I50000J0D01*
G01*
X340870020Y-20415020D01*
G75*
G02*
X340920020Y-20465020I0J-50000D01*
G01*
X340920020Y-21915020D01*
G75*
G02*
X340870020Y-21965020I-50000J0D01*
G01*
X340270020Y-21965020D01*
G75*
G02*
X340220020Y-21915020I0J50000D01*
G01*
G37*
G36*
G01*
X333770020Y-21915020D02*
X333770020Y-20465020D01*
G75*
G02*
X333820020Y-20415020I50000J0D01*
G01*
X334420020Y-20415020D01*
G75*
G02*
X334470020Y-20465020I0J-50000D01*
G01*
X334470020Y-21915020D01*
G75*
G02*
X334420020Y-21965020I-50000J0D01*
G01*
X333820020Y-21965020D01*
G75*
G02*
X333770020Y-21915020I0J50000D01*
G01*
G37*
G36*
G01*
X339445020Y-21915020D02*
X339445020Y-20465020D01*
G75*
G02*
X339495020Y-20415020I50000J0D01*
G01*
X340095020Y-20415020D01*
G75*
G02*
X340145020Y-20465020I0J-50000D01*
G01*
X340145020Y-21915020D01*
G75*
G02*
X340095020Y-21965020I-50000J0D01*
G01*
X339495020Y-21965020D01*
G75*
G02*
X339445020Y-21915020I0J50000D01*
G01*
G37*
G36*
G01*
X334545020Y-21915020D02*
X334545020Y-20465020D01*
G75*
G02*
X334595020Y-20415020I50000J0D01*
G01*
X335195020Y-20415020D01*
G75*
G02*
X335245020Y-20465020I0J-50000D01*
G01*
X335245020Y-21915020D01*
G75*
G02*
X335195020Y-21965020I-50000J0D01*
G01*
X334595020Y-21965020D01*
G75*
G02*
X334545020Y-21915020I0J50000D01*
G01*
G37*
G36*
G01*
X335395020Y-21915020D02*
X335395020Y-20465020D01*
G75*
G02*
X335445020Y-20415020I50000J0D01*
G01*
X335745020Y-20415020D01*
G75*
G02*
X335795020Y-20465020I0J-50000D01*
G01*
X335795020Y-21915020D01*
G75*
G02*
X335745020Y-21965020I-50000J0D01*
G01*
X335445020Y-21965020D01*
G75*
G02*
X335395020Y-21915020I0J50000D01*
G01*
G37*
G36*
G01*
X338895020Y-21915020D02*
X338895020Y-20465020D01*
G75*
G02*
X338945020Y-20415020I50000J0D01*
G01*
X339245020Y-20415020D01*
G75*
G02*
X339295020Y-20465020I0J-50000D01*
G01*
X339295020Y-21915020D01*
G75*
G02*
X339245020Y-21965020I-50000J0D01*
G01*
X338945020Y-21965020D01*
G75*
G02*
X338895020Y-21915020I0J50000D01*
G01*
G37*
G36*
G01*
X335895020Y-21915020D02*
X335895020Y-20465020D01*
G75*
G02*
X335945020Y-20415020I50000J0D01*
G01*
X336245020Y-20415020D01*
G75*
G02*
X336295020Y-20465020I0J-50000D01*
G01*
X336295020Y-21915020D01*
G75*
G02*
X336245020Y-21965020I-50000J0D01*
G01*
X335945020Y-21965020D01*
G75*
G02*
X335895020Y-21915020I0J50000D01*
G01*
G37*
G36*
G01*
X338395020Y-21915020D02*
X338395020Y-20465020D01*
G75*
G02*
X338445020Y-20415020I50000J0D01*
G01*
X338745020Y-20415020D01*
G75*
G02*
X338795020Y-20465020I0J-50000D01*
G01*
X338795020Y-21915020D01*
G75*
G02*
X338745020Y-21965020I-50000J0D01*
G01*
X338445020Y-21965020D01*
G75*
G02*
X338395020Y-21915020I0J50000D01*
G01*
G37*
G36*
G01*
X336395020Y-21915020D02*
X336395020Y-20465020D01*
G75*
G02*
X336445020Y-20415020I50000J0D01*
G01*
X336745020Y-20415020D01*
G75*
G02*
X336795020Y-20465020I0J-50000D01*
G01*
X336795020Y-21915020D01*
G75*
G02*
X336745020Y-21965020I-50000J0D01*
G01*
X336445020Y-21965020D01*
G75*
G02*
X336395020Y-21915020I0J50000D01*
G01*
G37*
G36*
G01*
X337895020Y-21915020D02*
X337895020Y-20465020D01*
G75*
G02*
X337945020Y-20415020I50000J0D01*
G01*
X338245020Y-20415020D01*
G75*
G02*
X338295020Y-20465020I0J-50000D01*
G01*
X338295020Y-21915020D01*
G75*
G02*
X338245020Y-21965020I-50000J0D01*
G01*
X337945020Y-21965020D01*
G75*
G02*
X337895020Y-21915020I0J50000D01*
G01*
G37*
G36*
G01*
X337395020Y-21915020D02*
X337395020Y-20465020D01*
G75*
G02*
X337445020Y-20415020I50000J0D01*
G01*
X337745020Y-20415020D01*
G75*
G02*
X337795020Y-20465020I0J-50000D01*
G01*
X337795020Y-21915020D01*
G75*
G02*
X337745020Y-21965020I-50000J0D01*
G01*
X337445020Y-21965020D01*
G75*
G02*
X337395020Y-21915020I0J50000D01*
G01*
G37*
G36*
G01*
X336895020Y-21915020D02*
X336895020Y-20465020D01*
G75*
G02*
X336945020Y-20415020I50000J0D01*
G01*
X337245020Y-20415020D01*
G75*
G02*
X337295020Y-20465020I0J-50000D01*
G01*
X337295020Y-21915020D01*
G75*
G02*
X337245020Y-21965020I-50000J0D01*
G01*
X336945020Y-21965020D01*
G75*
G02*
X336895020Y-21915020I0J50000D01*
G01*
G37*
%TD*%
D10*
%TO.C,SW1*%
X345495000Y-24182000D03*
X349195000Y-17982000D03*
X349195000Y-24182000D03*
X345495000Y-17982000D03*
%TD*%
%TO.C,R1*%
G36*
G01*
X348087900Y-26954902D02*
X348087900Y-26054898D01*
G75*
G02*
X348337898Y-25804900I249998J0D01*
G01*
X348862902Y-25804900D01*
G75*
G02*
X349112900Y-26054898I0J-249998D01*
G01*
X349112900Y-26954902D01*
G75*
G02*
X348862902Y-27204900I-249998J0D01*
G01*
X348337898Y-27204900D01*
G75*
G02*
X348087900Y-26954902I0J249998D01*
G01*
G37*
G36*
G01*
X346262900Y-26954902D02*
X346262900Y-26054898D01*
G75*
G02*
X346512898Y-25804900I249998J0D01*
G01*
X347037902Y-25804900D01*
G75*
G02*
X347287900Y-26054898I0J-249998D01*
G01*
X347287900Y-26954902D01*
G75*
G02*
X347037902Y-27204900I-249998J0D01*
G01*
X346512898Y-27204900D01*
G75*
G02*
X346262900Y-26954902I0J249998D01*
G01*
G37*
%TD*%
D11*
%TO.C,X1*%
X348139650Y-34367650D03*
X348139650Y-32167650D03*
X349839650Y-32167650D03*
X349839650Y-34367650D03*
%TD*%
%TO.C,C7*%
G36*
G01*
X345180900Y-75799100D02*
X346130900Y-75799100D01*
G75*
G02*
X346380900Y-76049100I0J-250000D01*
G01*
X346380900Y-76549100D01*
G75*
G02*
X346130900Y-76799100I-250000J0D01*
G01*
X345180900Y-76799100D01*
G75*
G02*
X344930900Y-76549100I0J250000D01*
G01*
X344930900Y-76049100D01*
G75*
G02*
X345180900Y-75799100I250000J0D01*
G01*
G37*
G36*
G01*
X345180900Y-73899100D02*
X346130900Y-73899100D01*
G75*
G02*
X346380900Y-74149100I0J-250000D01*
G01*
X346380900Y-74649100D01*
G75*
G02*
X346130900Y-74899100I-250000J0D01*
G01*
X345180900Y-74899100D01*
G75*
G02*
X344930900Y-74649100I0J250000D01*
G01*
X344930900Y-74149100D01*
G75*
G02*
X345180900Y-73899100I250000J0D01*
G01*
G37*
%TD*%
%TO.C,C4*%
G36*
G01*
X337306900Y-75799100D02*
X338256900Y-75799100D01*
G75*
G02*
X338506900Y-76049100I0J-250000D01*
G01*
X338506900Y-76549100D01*
G75*
G02*
X338256900Y-76799100I-250000J0D01*
G01*
X337306900Y-76799100D01*
G75*
G02*
X337056900Y-76549100I0J250000D01*
G01*
X337056900Y-76049100D01*
G75*
G02*
X337306900Y-75799100I250000J0D01*
G01*
G37*
G36*
G01*
X337306900Y-73899100D02*
X338256900Y-73899100D01*
G75*
G02*
X338506900Y-74149100I0J-250000D01*
G01*
X338506900Y-74649100D01*
G75*
G02*
X338256900Y-74899100I-250000J0D01*
G01*
X337306900Y-74899100D01*
G75*
G02*
X337056900Y-74649100I0J250000D01*
G01*
X337056900Y-74149100D01*
G75*
G02*
X337306900Y-73899100I250000J0D01*
G01*
G37*
%TD*%
%TO.C,C6*%
G36*
G01*
X342767900Y-75799100D02*
X343717900Y-75799100D01*
G75*
G02*
X343967900Y-76049100I0J-250000D01*
G01*
X343967900Y-76549100D01*
G75*
G02*
X343717900Y-76799100I-250000J0D01*
G01*
X342767900Y-76799100D01*
G75*
G02*
X342517900Y-76549100I0J250000D01*
G01*
X342517900Y-76049100D01*
G75*
G02*
X342767900Y-75799100I250000J0D01*
G01*
G37*
G36*
G01*
X342767900Y-73899100D02*
X343717900Y-73899100D01*
G75*
G02*
X343967900Y-74149100I0J-250000D01*
G01*
X343967900Y-74649100D01*
G75*
G02*
X343717900Y-74899100I-250000J0D01*
G01*
X342767900Y-74899100D01*
G75*
G02*
X342517900Y-74649100I0J250000D01*
G01*
X342517900Y-74149100D01*
G75*
G02*
X342767900Y-73899100I250000J0D01*
G01*
G37*
%TD*%
%TO.C,C5*%
G36*
G01*
X340100900Y-75799100D02*
X341050900Y-75799100D01*
G75*
G02*
X341300900Y-76049100I0J-250000D01*
G01*
X341300900Y-76549100D01*
G75*
G02*
X341050900Y-76799100I-250000J0D01*
G01*
X340100900Y-76799100D01*
G75*
G02*
X339850900Y-76549100I0J250000D01*
G01*
X339850900Y-76049100D01*
G75*
G02*
X340100900Y-75799100I250000J0D01*
G01*
G37*
G36*
G01*
X340100900Y-73899100D02*
X341050900Y-73899100D01*
G75*
G02*
X341300900Y-74149100I0J-250000D01*
G01*
X341300900Y-74649100D01*
G75*
G02*
X341050900Y-74899100I-250000J0D01*
G01*
X340100900Y-74899100D01*
G75*
G02*
X339850900Y-74649100I0J250000D01*
G01*
X339850900Y-74149100D01*
G75*
G02*
X340100900Y-73899100I250000J0D01*
G01*
G37*
%TD*%
%TO.C,C2*%
G36*
G01*
X349350750Y-30478750D02*
X349350750Y-29528750D01*
G75*
G02*
X349600750Y-29278750I250000J0D01*
G01*
X350100750Y-29278750D01*
G75*
G02*
X350350750Y-29528750I0J-250000D01*
G01*
X350350750Y-30478750D01*
G75*
G02*
X350100750Y-30728750I-250000J0D01*
G01*
X349600750Y-30728750D01*
G75*
G02*
X349350750Y-30478750I0J250000D01*
G01*
G37*
G36*
G01*
X347450750Y-30478750D02*
X347450750Y-29528750D01*
G75*
G02*
X347700750Y-29278750I250000J0D01*
G01*
X348200750Y-29278750D01*
G75*
G02*
X348450750Y-29528750I0J-250000D01*
G01*
X348450750Y-30478750D01*
G75*
G02*
X348200750Y-30728750I-250000J0D01*
G01*
X347700750Y-30728750D01*
G75*
G02*
X347450750Y-30478750I0J250000D01*
G01*
G37*
%TD*%
%TO.C,C8*%
G36*
G01*
X334893900Y-75799100D02*
X335843900Y-75799100D01*
G75*
G02*
X336093900Y-76049100I0J-250000D01*
G01*
X336093900Y-76549100D01*
G75*
G02*
X335843900Y-76799100I-250000J0D01*
G01*
X334893900Y-76799100D01*
G75*
G02*
X334643900Y-76549100I0J250000D01*
G01*
X334643900Y-76049100D01*
G75*
G02*
X334893900Y-75799100I250000J0D01*
G01*
G37*
G36*
G01*
X334893900Y-73899100D02*
X335843900Y-73899100D01*
G75*
G02*
X336093900Y-74149100I0J-250000D01*
G01*
X336093900Y-74649100D01*
G75*
G02*
X335843900Y-74899100I-250000J0D01*
G01*
X334893900Y-74899100D01*
G75*
G02*
X334643900Y-74649100I0J250000D01*
G01*
X334643900Y-74149100D01*
G75*
G02*
X334893900Y-73899100I250000J0D01*
G01*
G37*
%TD*%
%TO.C,C1*%
G36*
G01*
X349416750Y-36955750D02*
X349416750Y-36005750D01*
G75*
G02*
X349666750Y-35755750I250000J0D01*
G01*
X350166750Y-35755750D01*
G75*
G02*
X350416750Y-36005750I0J-250000D01*
G01*
X350416750Y-36955750D01*
G75*
G02*
X350166750Y-37205750I-250000J0D01*
G01*
X349666750Y-37205750D01*
G75*
G02*
X349416750Y-36955750I0J250000D01*
G01*
G37*
G36*
G01*
X347516750Y-36955750D02*
X347516750Y-36005750D01*
G75*
G02*
X347766750Y-35755750I250000J0D01*
G01*
X348266750Y-35755750D01*
G75*
G02*
X348516750Y-36005750I0J-250000D01*
G01*
X348516750Y-36955750D01*
G75*
G02*
X348266750Y-37205750I-250000J0D01*
G01*
X347766750Y-37205750D01*
G75*
G02*
X347516750Y-36955750I0J250000D01*
G01*
G37*
%TD*%
D12*
%TO.C,U1*%
X334539240Y-29364090D03*
X335339240Y-29364090D03*
X336139240Y-29364090D03*
X336939240Y-29364090D03*
X337739240Y-29364090D03*
X338539240Y-29364090D03*
X339339240Y-29364090D03*
X340139240Y-29364090D03*
X340939240Y-29364090D03*
X341739240Y-29364090D03*
X342539240Y-29364090D03*
D13*
X344439240Y-31264090D03*
X344439240Y-32064090D03*
X344439240Y-32864090D03*
X344439240Y-33664090D03*
X344439240Y-34464090D03*
X344439240Y-35264090D03*
X344439240Y-36064090D03*
X344439240Y-36864090D03*
X344439240Y-37664090D03*
X344439240Y-38464090D03*
X344439240Y-39264090D03*
D12*
X342539240Y-41164090D03*
X341739240Y-41164090D03*
X340939240Y-41164090D03*
X340139240Y-41164090D03*
X339339240Y-41164090D03*
X338539240Y-41164090D03*
X337739240Y-41164090D03*
X336939240Y-41164090D03*
X336139240Y-41164090D03*
X335339240Y-41164090D03*
X334539240Y-41164090D03*
D13*
X332639240Y-39264090D03*
X332639240Y-38464090D03*
X332639240Y-37664090D03*
X332639240Y-36864090D03*
X332639240Y-36064090D03*
X332639240Y-35264090D03*
X332639240Y-34464090D03*
X332639240Y-33664090D03*
X332639240Y-32864090D03*
X332639240Y-32064090D03*
X332639240Y-31264090D03*
%TD*%
%TO.C,C3*%
G36*
G01*
X333160350Y-64291550D02*
X334110350Y-64291550D01*
G75*
G02*
X334360350Y-64541550I0J-250000D01*
G01*
X334360350Y-65041550D01*
G75*
G02*
X334110350Y-65291550I-250000J0D01*
G01*
X333160350Y-65291550D01*
G75*
G02*
X332910350Y-65041550I0J250000D01*
G01*
X332910350Y-64541550D01*
G75*
G02*
X333160350Y-64291550I250000J0D01*
G01*
G37*
G36*
G01*
X333160350Y-66191550D02*
X334110350Y-66191550D01*
G75*
G02*
X334360350Y-66441550I0J-250000D01*
G01*
X334360350Y-66941550D01*
G75*
G02*
X334110350Y-67191550I-250000J0D01*
G01*
X333160350Y-67191550D01*
G75*
G02*
X332910350Y-66941550I0J250000D01*
G01*
X332910350Y-66441550D01*
G75*
G02*
X333160350Y-66191550I250000J0D01*
G01*
G37*
%TD*%
%TO.C,C10*%
G36*
G01*
X341161350Y-62824300D02*
X342111350Y-62824300D01*
G75*
G02*
X342361350Y-63074300I0J-250000D01*
G01*
X342361350Y-63574300D01*
G75*
G02*
X342111350Y-63824300I-250000J0D01*
G01*
X341161350Y-63824300D01*
G75*
G02*
X340911350Y-63574300I0J250000D01*
G01*
X340911350Y-63074300D01*
G75*
G02*
X341161350Y-62824300I250000J0D01*
G01*
G37*
G36*
G01*
X341161350Y-64724300D02*
X342111350Y-64724300D01*
G75*
G02*
X342361350Y-64974300I0J-250000D01*
G01*
X342361350Y-65474300D01*
G75*
G02*
X342111350Y-65724300I-250000J0D01*
G01*
X341161350Y-65724300D01*
G75*
G02*
X340911350Y-65474300I0J250000D01*
G01*
X340911350Y-64974300D01*
G75*
G02*
X341161350Y-64724300I250000J0D01*
G01*
G37*
%TD*%
%TO.C,C9*%
G36*
G01*
X342111350Y-69477550D02*
X341161350Y-69477550D01*
G75*
G02*
X340911350Y-69227550I0J250000D01*
G01*
X340911350Y-68727550D01*
G75*
G02*
X341161350Y-68477550I250000J0D01*
G01*
X342111350Y-68477550D01*
G75*
G02*
X342361350Y-68727550I0J-250000D01*
G01*
X342361350Y-69227550D01*
G75*
G02*
X342111350Y-69477550I-250000J0D01*
G01*
G37*
G36*
G01*
X342111350Y-67577550D02*
X341161350Y-67577550D01*
G75*
G02*
X340911350Y-67327550I0J250000D01*
G01*
X340911350Y-66827550D01*
G75*
G02*
X341161350Y-66577550I250000J0D01*
G01*
X342111350Y-66577550D01*
G75*
G02*
X342361350Y-66827550I0J-250000D01*
G01*
X342361350Y-67327550D01*
G75*
G02*
X342111350Y-67577550I-250000J0D01*
G01*
G37*
%TD*%
%TO.C,R5*%
G36*
G01*
X338736098Y-66696050D02*
X339636102Y-66696050D01*
G75*
G02*
X339886100Y-66946048I0J-249998D01*
G01*
X339886100Y-67471052D01*
G75*
G02*
X339636102Y-67721050I-249998J0D01*
G01*
X338736098Y-67721050D01*
G75*
G02*
X338486100Y-67471052I0J249998D01*
G01*
X338486100Y-66946048D01*
G75*
G02*
X338736098Y-66696050I249998J0D01*
G01*
G37*
G36*
G01*
X338736098Y-68521050D02*
X339636102Y-68521050D01*
G75*
G02*
X339886100Y-68771048I0J-249998D01*
G01*
X339886100Y-69296052D01*
G75*
G02*
X339636102Y-69546050I-249998J0D01*
G01*
X338736098Y-69546050D01*
G75*
G02*
X338486100Y-69296052I0J249998D01*
G01*
X338486100Y-68771048D01*
G75*
G02*
X338736098Y-68521050I249998J0D01*
G01*
G37*
%TD*%
%TO.C,R6*%
G36*
G01*
X339673352Y-65642550D02*
X338773348Y-65642550D01*
G75*
G02*
X338523350Y-65392552I0J249998D01*
G01*
X338523350Y-64867548D01*
G75*
G02*
X338773348Y-64617550I249998J0D01*
G01*
X339673352Y-64617550D01*
G75*
G02*
X339923350Y-64867548I0J-249998D01*
G01*
X339923350Y-65392552D01*
G75*
G02*
X339673352Y-65642550I-249998J0D01*
G01*
G37*
G36*
G01*
X339673352Y-63817550D02*
X338773348Y-63817550D01*
G75*
G02*
X338523350Y-63567552I0J249998D01*
G01*
X338523350Y-63042548D01*
G75*
G02*
X338773348Y-62792550I249998J0D01*
G01*
X339673352Y-62792550D01*
G75*
G02*
X339923350Y-63042548I0J-249998D01*
G01*
X339923350Y-63567552D01*
G75*
G02*
X339673352Y-63817550I-249998J0D01*
G01*
G37*
%TD*%
%TO.C,R4*%
G36*
G01*
X335471348Y-64316550D02*
X336371352Y-64316550D01*
G75*
G02*
X336621350Y-64566548I0J-249998D01*
G01*
X336621350Y-65091552D01*
G75*
G02*
X336371352Y-65341550I-249998J0D01*
G01*
X335471348Y-65341550D01*
G75*
G02*
X335221350Y-65091552I0J249998D01*
G01*
X335221350Y-64566548D01*
G75*
G02*
X335471348Y-64316550I249998J0D01*
G01*
G37*
G36*
G01*
X335471348Y-66141550D02*
X336371352Y-66141550D01*
G75*
G02*
X336621350Y-66391548I0J-249998D01*
G01*
X336621350Y-66916552D01*
G75*
G02*
X336371352Y-67166550I-249998J0D01*
G01*
X335471348Y-67166550D01*
G75*
G02*
X335221350Y-66916552I0J249998D01*
G01*
X335221350Y-66391548D01*
G75*
G02*
X335471348Y-66141550I249998J0D01*
G01*
G37*
%TD*%
%TO.C,R7*%
G36*
G01*
X332750740Y-43969092D02*
X332750740Y-43069088D01*
G75*
G02*
X333000738Y-42819090I249998J0D01*
G01*
X333525742Y-42819090D01*
G75*
G02*
X333775740Y-43069088I0J-249998D01*
G01*
X333775740Y-43969092D01*
G75*
G02*
X333525742Y-44219090I-249998J0D01*
G01*
X333000738Y-44219090D01*
G75*
G02*
X332750740Y-43969092I0J249998D01*
G01*
G37*
G36*
G01*
X330925740Y-43969092D02*
X330925740Y-43069088D01*
G75*
G02*
X331175738Y-42819090I249998J0D01*
G01*
X331700742Y-42819090D01*
G75*
G02*
X331950740Y-43069088I0J-249998D01*
G01*
X331950740Y-43969092D01*
G75*
G02*
X331700742Y-44219090I-249998J0D01*
G01*
X331175738Y-44219090D01*
G75*
G02*
X330925740Y-43969092I0J249998D01*
G01*
G37*
%TD*%
%TO.C,R3*%
G36*
G01*
X335731272Y-26826270D02*
X334831268Y-26826270D01*
G75*
G02*
X334581270Y-26576272I0J249998D01*
G01*
X334581270Y-26051268D01*
G75*
G02*
X334831268Y-25801270I249998J0D01*
G01*
X335731272Y-25801270D01*
G75*
G02*
X335981270Y-26051268I0J-249998D01*
G01*
X335981270Y-26576272D01*
G75*
G02*
X335731272Y-26826270I-249998J0D01*
G01*
G37*
G36*
G01*
X335731272Y-25001270D02*
X334831268Y-25001270D01*
G75*
G02*
X334581270Y-24751272I0J249998D01*
G01*
X334581270Y-24226268D01*
G75*
G02*
X334831268Y-23976270I249998J0D01*
G01*
X335731272Y-23976270D01*
G75*
G02*
X335981270Y-24226268I0J-249998D01*
G01*
X335981270Y-24751272D01*
G75*
G02*
X335731272Y-25001270I-249998J0D01*
G01*
G37*
%TD*%
%TO.C,R2*%
G36*
G01*
X333666252Y-26826270D02*
X332766248Y-26826270D01*
G75*
G02*
X332516250Y-26576272I0J249998D01*
G01*
X332516250Y-26051268D01*
G75*
G02*
X332766248Y-25801270I249998J0D01*
G01*
X333666252Y-25801270D01*
G75*
G02*
X333916250Y-26051268I0J-249998D01*
G01*
X333916250Y-26576272D01*
G75*
G02*
X333666252Y-26826270I-249998J0D01*
G01*
G37*
G36*
G01*
X333666252Y-25001270D02*
X332766248Y-25001270D01*
G75*
G02*
X332516250Y-24751272I0J249998D01*
G01*
X332516250Y-24226268D01*
G75*
G02*
X332766248Y-23976270I249998J0D01*
G01*
X333666252Y-23976270D01*
G75*
G02*
X333916250Y-24226268I0J-249998D01*
G01*
X333916250Y-24751272D01*
G75*
G02*
X333666252Y-25001270I-249998J0D01*
G01*
G37*
%TD*%
%TO.C,D70*%
G36*
G01*
X317043750Y-61948000D02*
X317956250Y-61948000D01*
G75*
G02*
X318200000Y-62191750I0J-243750D01*
G01*
X318200000Y-62679250D01*
G75*
G02*
X317956250Y-62923000I-243750J0D01*
G01*
X317043750Y-62923000D01*
G75*
G02*
X316800000Y-62679250I0J243750D01*
G01*
X316800000Y-62191750D01*
G75*
G02*
X317043750Y-61948000I243750J0D01*
G01*
G37*
G36*
G01*
X317043750Y-63823000D02*
X317956250Y-63823000D01*
G75*
G02*
X318200000Y-64066750I0J-243750D01*
G01*
X318200000Y-64554250D01*
G75*
G02*
X317956250Y-64798000I-243750J0D01*
G01*
X317043750Y-64798000D01*
G75*
G02*
X316800000Y-64554250I0J243750D01*
G01*
X316800000Y-64066750D01*
G75*
G02*
X317043750Y-63823000I243750J0D01*
G01*
G37*
%TD*%
%TO.C,D69*%
G36*
G01*
X347206250Y-106812500D02*
X348118750Y-106812500D01*
G75*
G02*
X348362500Y-107056250I0J-243750D01*
G01*
X348362500Y-107543750D01*
G75*
G02*
X348118750Y-107787500I-243750J0D01*
G01*
X347206250Y-107787500D01*
G75*
G02*
X346962500Y-107543750I0J243750D01*
G01*
X346962500Y-107056250D01*
G75*
G02*
X347206250Y-106812500I243750J0D01*
G01*
G37*
G36*
G01*
X347206250Y-104937500D02*
X348118750Y-104937500D01*
G75*
G02*
X348362500Y-105181250I0J-243750D01*
G01*
X348362500Y-105668750D01*
G75*
G02*
X348118750Y-105912500I-243750J0D01*
G01*
X347206250Y-105912500D01*
G75*
G02*
X346962500Y-105668750I0J243750D01*
G01*
X346962500Y-105181250D01*
G75*
G02*
X347206250Y-104937500I243750J0D01*
G01*
G37*
%TD*%
%TO.C,D68*%
G36*
G01*
X328156250Y-106812500D02*
X329068750Y-106812500D01*
G75*
G02*
X329312500Y-107056250I0J-243750D01*
G01*
X329312500Y-107543750D01*
G75*
G02*
X329068750Y-107787500I-243750J0D01*
G01*
X328156250Y-107787500D01*
G75*
G02*
X327912500Y-107543750I0J243750D01*
G01*
X327912500Y-107056250D01*
G75*
G02*
X328156250Y-106812500I243750J0D01*
G01*
G37*
G36*
G01*
X328156250Y-104937500D02*
X329068750Y-104937500D01*
G75*
G02*
X329312500Y-105181250I0J-243750D01*
G01*
X329312500Y-105668750D01*
G75*
G02*
X329068750Y-105912500I-243750J0D01*
G01*
X328156250Y-105912500D01*
G75*
G02*
X327912500Y-105668750I0J243750D01*
G01*
X327912500Y-105181250D01*
G75*
G02*
X328156250Y-104937500I243750J0D01*
G01*
G37*
%TD*%
%TO.C,D67*%
G36*
G01*
X309106250Y-106812500D02*
X310018750Y-106812500D01*
G75*
G02*
X310262500Y-107056250I0J-243750D01*
G01*
X310262500Y-107543750D01*
G75*
G02*
X310018750Y-107787500I-243750J0D01*
G01*
X309106250Y-107787500D01*
G75*
G02*
X308862500Y-107543750I0J243750D01*
G01*
X308862500Y-107056250D01*
G75*
G02*
X309106250Y-106812500I243750J0D01*
G01*
G37*
G36*
G01*
X309106250Y-104937500D02*
X310018750Y-104937500D01*
G75*
G02*
X310262500Y-105181250I0J-243750D01*
G01*
X310262500Y-105668750D01*
G75*
G02*
X310018750Y-105912500I-243750J0D01*
G01*
X309106250Y-105912500D01*
G75*
G02*
X308862500Y-105668750I0J243750D01*
G01*
X308862500Y-105181250D01*
G75*
G02*
X309106250Y-104937500I243750J0D01*
G01*
G37*
%TD*%
%TO.C,D66*%
G36*
G01*
X285293750Y-102050000D02*
X286206250Y-102050000D01*
G75*
G02*
X286450000Y-102293750I0J-243750D01*
G01*
X286450000Y-102781250D01*
G75*
G02*
X286206250Y-103025000I-243750J0D01*
G01*
X285293750Y-103025000D01*
G75*
G02*
X285050000Y-102781250I0J243750D01*
G01*
X285050000Y-102293750D01*
G75*
G02*
X285293750Y-102050000I243750J0D01*
G01*
G37*
G36*
G01*
X285293750Y-100175000D02*
X286206250Y-100175000D01*
G75*
G02*
X286450000Y-100418750I0J-243750D01*
G01*
X286450000Y-100906250D01*
G75*
G02*
X286206250Y-101150000I-243750J0D01*
G01*
X285293750Y-101150000D01*
G75*
G02*
X285050000Y-100906250I0J243750D01*
G01*
X285050000Y-100418750D01*
G75*
G02*
X285293750Y-100175000I243750J0D01*
G01*
G37*
%TD*%
%TO.C,D65*%
G36*
G01*
X266243750Y-102050000D02*
X267156250Y-102050000D01*
G75*
G02*
X267400000Y-102293750I0J-243750D01*
G01*
X267400000Y-102781250D01*
G75*
G02*
X267156250Y-103025000I-243750J0D01*
G01*
X266243750Y-103025000D01*
G75*
G02*
X266000000Y-102781250I0J243750D01*
G01*
X266000000Y-102293750D01*
G75*
G02*
X266243750Y-102050000I243750J0D01*
G01*
G37*
G36*
G01*
X266243750Y-100175000D02*
X267156250Y-100175000D01*
G75*
G02*
X267400000Y-100418750I0J-243750D01*
G01*
X267400000Y-100906250D01*
G75*
G02*
X267156250Y-101150000I-243750J0D01*
G01*
X266243750Y-101150000D01*
G75*
G02*
X266000000Y-100906250I0J243750D01*
G01*
X266000000Y-100418750D01*
G75*
G02*
X266243750Y-100175000I243750J0D01*
G01*
G37*
%TD*%
%TO.C,D64*%
G36*
G01*
X247193750Y-102050000D02*
X248106250Y-102050000D01*
G75*
G02*
X248350000Y-102293750I0J-243750D01*
G01*
X248350000Y-102781250D01*
G75*
G02*
X248106250Y-103025000I-243750J0D01*
G01*
X247193750Y-103025000D01*
G75*
G02*
X246950000Y-102781250I0J243750D01*
G01*
X246950000Y-102293750D01*
G75*
G02*
X247193750Y-102050000I243750J0D01*
G01*
G37*
G36*
G01*
X247193750Y-100175000D02*
X248106250Y-100175000D01*
G75*
G02*
X248350000Y-100418750I0J-243750D01*
G01*
X248350000Y-100906250D01*
G75*
G02*
X248106250Y-101150000I-243750J0D01*
G01*
X247193750Y-101150000D01*
G75*
G02*
X246950000Y-100906250I0J243750D01*
G01*
X246950000Y-100418750D01*
G75*
G02*
X247193750Y-100175000I243750J0D01*
G01*
G37*
%TD*%
%TO.C,D63*%
G36*
G01*
X178137500Y-102050000D02*
X179050000Y-102050000D01*
G75*
G02*
X179293750Y-102293750I0J-243750D01*
G01*
X179293750Y-102781250D01*
G75*
G02*
X179050000Y-103025000I-243750J0D01*
G01*
X178137500Y-103025000D01*
G75*
G02*
X177893750Y-102781250I0J243750D01*
G01*
X177893750Y-102293750D01*
G75*
G02*
X178137500Y-102050000I243750J0D01*
G01*
G37*
G36*
G01*
X178137500Y-100175000D02*
X179050000Y-100175000D01*
G75*
G02*
X179293750Y-100418750I0J-243750D01*
G01*
X179293750Y-100906250D01*
G75*
G02*
X179050000Y-101150000I-243750J0D01*
G01*
X178137500Y-101150000D01*
G75*
G02*
X177893750Y-100906250I0J243750D01*
G01*
X177893750Y-100418750D01*
G75*
G02*
X178137500Y-100175000I243750J0D01*
G01*
G37*
%TD*%
%TO.C,D62*%
G36*
G01*
X106700000Y-100175000D02*
X107612500Y-100175000D01*
G75*
G02*
X107856250Y-100418750I0J-243750D01*
G01*
X107856250Y-100906250D01*
G75*
G02*
X107612500Y-101150000I-243750J0D01*
G01*
X106700000Y-101150000D01*
G75*
G02*
X106456250Y-100906250I0J243750D01*
G01*
X106456250Y-100418750D01*
G75*
G02*
X106700000Y-100175000I243750J0D01*
G01*
G37*
G36*
G01*
X106700000Y-102050000D02*
X107612500Y-102050000D01*
G75*
G02*
X107856250Y-102293750I0J-243750D01*
G01*
X107856250Y-102781250D01*
G75*
G02*
X107612500Y-103025000I-243750J0D01*
G01*
X106700000Y-103025000D01*
G75*
G02*
X106456250Y-102781250I0J243750D01*
G01*
X106456250Y-102293750D01*
G75*
G02*
X106700000Y-102050000I243750J0D01*
G01*
G37*
%TD*%
%TO.C,D61*%
G36*
G01*
X59075000Y-100175000D02*
X59987500Y-100175000D01*
G75*
G02*
X60231250Y-100418750I0J-243750D01*
G01*
X60231250Y-100906250D01*
G75*
G02*
X59987500Y-101150000I-243750J0D01*
G01*
X59075000Y-101150000D01*
G75*
G02*
X58831250Y-100906250I0J243750D01*
G01*
X58831250Y-100418750D01*
G75*
G02*
X59075000Y-100175000I243750J0D01*
G01*
G37*
G36*
G01*
X59075000Y-102050000D02*
X59987500Y-102050000D01*
G75*
G02*
X60231250Y-102293750I0J-243750D01*
G01*
X60231250Y-102781250D01*
G75*
G02*
X59987500Y-103025000I-243750J0D01*
G01*
X59075000Y-103025000D01*
G75*
G02*
X58831250Y-102781250I0J243750D01*
G01*
X58831250Y-102293750D01*
G75*
G02*
X59075000Y-102050000I243750J0D01*
G01*
G37*
%TD*%
%TO.C,D60*%
G36*
G01*
X32881250Y-100175000D02*
X33793750Y-100175000D01*
G75*
G02*
X34037500Y-100418750I0J-243750D01*
G01*
X34037500Y-100906250D01*
G75*
G02*
X33793750Y-101150000I-243750J0D01*
G01*
X32881250Y-101150000D01*
G75*
G02*
X32637500Y-100906250I0J243750D01*
G01*
X32637500Y-100418750D01*
G75*
G02*
X32881250Y-100175000I243750J0D01*
G01*
G37*
G36*
G01*
X32881250Y-102050000D02*
X33793750Y-102050000D01*
G75*
G02*
X34037500Y-102293750I0J-243750D01*
G01*
X34037500Y-102781250D01*
G75*
G02*
X33793750Y-103025000I-243750J0D01*
G01*
X32881250Y-103025000D01*
G75*
G02*
X32637500Y-102781250I0J243750D01*
G01*
X32637500Y-102293750D01*
G75*
G02*
X32881250Y-102050000I243750J0D01*
G01*
G37*
%TD*%
%TO.C,D59*%
G36*
G01*
X347206250Y-87762500D02*
X348118750Y-87762500D01*
G75*
G02*
X348362500Y-88006250I0J-243750D01*
G01*
X348362500Y-88493750D01*
G75*
G02*
X348118750Y-88737500I-243750J0D01*
G01*
X347206250Y-88737500D01*
G75*
G02*
X346962500Y-88493750I0J243750D01*
G01*
X346962500Y-88006250D01*
G75*
G02*
X347206250Y-87762500I243750J0D01*
G01*
G37*
G36*
G01*
X347206250Y-85887500D02*
X348118750Y-85887500D01*
G75*
G02*
X348362500Y-86131250I0J-243750D01*
G01*
X348362500Y-86618750D01*
G75*
G02*
X348118750Y-86862500I-243750J0D01*
G01*
X347206250Y-86862500D01*
G75*
G02*
X346962500Y-86618750I0J243750D01*
G01*
X346962500Y-86131250D01*
G75*
G02*
X347206250Y-85887500I243750J0D01*
G01*
G37*
%TD*%
%TO.C,D58*%
G36*
G01*
X328156250Y-87762500D02*
X329068750Y-87762500D01*
G75*
G02*
X329312500Y-88006250I0J-243750D01*
G01*
X329312500Y-88493750D01*
G75*
G02*
X329068750Y-88737500I-243750J0D01*
G01*
X328156250Y-88737500D01*
G75*
G02*
X327912500Y-88493750I0J243750D01*
G01*
X327912500Y-88006250D01*
G75*
G02*
X328156250Y-87762500I243750J0D01*
G01*
G37*
G36*
G01*
X328156250Y-85887500D02*
X329068750Y-85887500D01*
G75*
G02*
X329312500Y-86131250I0J-243750D01*
G01*
X329312500Y-86618750D01*
G75*
G02*
X329068750Y-86862500I-243750J0D01*
G01*
X328156250Y-86862500D01*
G75*
G02*
X327912500Y-86618750I0J243750D01*
G01*
X327912500Y-86131250D01*
G75*
G02*
X328156250Y-85887500I243750J0D01*
G01*
G37*
%TD*%
%TO.C,D57*%
G36*
G01*
X297200000Y-83000000D02*
X298112500Y-83000000D01*
G75*
G02*
X298356250Y-83243750I0J-243750D01*
G01*
X298356250Y-83731250D01*
G75*
G02*
X298112500Y-83975000I-243750J0D01*
G01*
X297200000Y-83975000D01*
G75*
G02*
X296956250Y-83731250I0J243750D01*
G01*
X296956250Y-83243750D01*
G75*
G02*
X297200000Y-83000000I243750J0D01*
G01*
G37*
G36*
G01*
X297200000Y-81125000D02*
X298112500Y-81125000D01*
G75*
G02*
X298356250Y-81368750I0J-243750D01*
G01*
X298356250Y-81856250D01*
G75*
G02*
X298112500Y-82100000I-243750J0D01*
G01*
X297200000Y-82100000D01*
G75*
G02*
X296956250Y-81856250I0J243750D01*
G01*
X296956250Y-81368750D01*
G75*
G02*
X297200000Y-81125000I243750J0D01*
G01*
G37*
%TD*%
%TO.C,D56*%
G36*
G01*
X271006250Y-83000000D02*
X271918750Y-83000000D01*
G75*
G02*
X272162500Y-83243750I0J-243750D01*
G01*
X272162500Y-83731250D01*
G75*
G02*
X271918750Y-83975000I-243750J0D01*
G01*
X271006250Y-83975000D01*
G75*
G02*
X270762500Y-83731250I0J243750D01*
G01*
X270762500Y-83243750D01*
G75*
G02*
X271006250Y-83000000I243750J0D01*
G01*
G37*
G36*
G01*
X271006250Y-81125000D02*
X271918750Y-81125000D01*
G75*
G02*
X272162500Y-81368750I0J-243750D01*
G01*
X272162500Y-81856250D01*
G75*
G02*
X271918750Y-82100000I-243750J0D01*
G01*
X271006250Y-82100000D01*
G75*
G02*
X270762500Y-81856250I0J243750D01*
G01*
X270762500Y-81368750D01*
G75*
G02*
X271006250Y-81125000I243750J0D01*
G01*
G37*
%TD*%
%TO.C,D55*%
G36*
G01*
X251956250Y-83000000D02*
X252868750Y-83000000D01*
G75*
G02*
X253112500Y-83243750I0J-243750D01*
G01*
X253112500Y-83731250D01*
G75*
G02*
X252868750Y-83975000I-243750J0D01*
G01*
X251956250Y-83975000D01*
G75*
G02*
X251712500Y-83731250I0J243750D01*
G01*
X251712500Y-83243750D01*
G75*
G02*
X251956250Y-83000000I243750J0D01*
G01*
G37*
G36*
G01*
X251956250Y-81125000D02*
X252868750Y-81125000D01*
G75*
G02*
X253112500Y-81368750I0J-243750D01*
G01*
X253112500Y-81856250D01*
G75*
G02*
X252868750Y-82100000I-243750J0D01*
G01*
X251956250Y-82100000D01*
G75*
G02*
X251712500Y-81856250I0J243750D01*
G01*
X251712500Y-81368750D01*
G75*
G02*
X251956250Y-81125000I243750J0D01*
G01*
G37*
%TD*%
%TO.C,D54*%
G36*
G01*
X232906250Y-83000000D02*
X233818750Y-83000000D01*
G75*
G02*
X234062500Y-83243750I0J-243750D01*
G01*
X234062500Y-83731250D01*
G75*
G02*
X233818750Y-83975000I-243750J0D01*
G01*
X232906250Y-83975000D01*
G75*
G02*
X232662500Y-83731250I0J243750D01*
G01*
X232662500Y-83243750D01*
G75*
G02*
X232906250Y-83000000I243750J0D01*
G01*
G37*
G36*
G01*
X232906250Y-81125000D02*
X233818750Y-81125000D01*
G75*
G02*
X234062500Y-81368750I0J-243750D01*
G01*
X234062500Y-81856250D01*
G75*
G02*
X233818750Y-82100000I-243750J0D01*
G01*
X232906250Y-82100000D01*
G75*
G02*
X232662500Y-81856250I0J243750D01*
G01*
X232662500Y-81368750D01*
G75*
G02*
X232906250Y-81125000I243750J0D01*
G01*
G37*
%TD*%
%TO.C,D53*%
G36*
G01*
X213856250Y-83000000D02*
X214768750Y-83000000D01*
G75*
G02*
X215012500Y-83243750I0J-243750D01*
G01*
X215012500Y-83731250D01*
G75*
G02*
X214768750Y-83975000I-243750J0D01*
G01*
X213856250Y-83975000D01*
G75*
G02*
X213612500Y-83731250I0J243750D01*
G01*
X213612500Y-83243750D01*
G75*
G02*
X213856250Y-83000000I243750J0D01*
G01*
G37*
G36*
G01*
X213856250Y-81125000D02*
X214768750Y-81125000D01*
G75*
G02*
X215012500Y-81368750I0J-243750D01*
G01*
X215012500Y-81856250D01*
G75*
G02*
X214768750Y-82100000I-243750J0D01*
G01*
X213856250Y-82100000D01*
G75*
G02*
X213612500Y-81856250I0J243750D01*
G01*
X213612500Y-81368750D01*
G75*
G02*
X213856250Y-81125000I243750J0D01*
G01*
G37*
%TD*%
%TO.C,D52*%
G36*
G01*
X194806250Y-83000000D02*
X195718750Y-83000000D01*
G75*
G02*
X195962500Y-83243750I0J-243750D01*
G01*
X195962500Y-83731250D01*
G75*
G02*
X195718750Y-83975000I-243750J0D01*
G01*
X194806250Y-83975000D01*
G75*
G02*
X194562500Y-83731250I0J243750D01*
G01*
X194562500Y-83243750D01*
G75*
G02*
X194806250Y-83000000I243750J0D01*
G01*
G37*
G36*
G01*
X194806250Y-81125000D02*
X195718750Y-81125000D01*
G75*
G02*
X195962500Y-81368750I0J-243750D01*
G01*
X195962500Y-81856250D01*
G75*
G02*
X195718750Y-82100000I-243750J0D01*
G01*
X194806250Y-82100000D01*
G75*
G02*
X194562500Y-81856250I0J243750D01*
G01*
X194562500Y-81368750D01*
G75*
G02*
X194806250Y-81125000I243750J0D01*
G01*
G37*
%TD*%
%TO.C,D51*%
G36*
G01*
X175756250Y-83000000D02*
X176668750Y-83000000D01*
G75*
G02*
X176912500Y-83243750I0J-243750D01*
G01*
X176912500Y-83731250D01*
G75*
G02*
X176668750Y-83975000I-243750J0D01*
G01*
X175756250Y-83975000D01*
G75*
G02*
X175512500Y-83731250I0J243750D01*
G01*
X175512500Y-83243750D01*
G75*
G02*
X175756250Y-83000000I243750J0D01*
G01*
G37*
G36*
G01*
X175756250Y-81125000D02*
X176668750Y-81125000D01*
G75*
G02*
X176912500Y-81368750I0J-243750D01*
G01*
X176912500Y-81856250D01*
G75*
G02*
X176668750Y-82100000I-243750J0D01*
G01*
X175756250Y-82100000D01*
G75*
G02*
X175512500Y-81856250I0J243750D01*
G01*
X175512500Y-81368750D01*
G75*
G02*
X175756250Y-81125000I243750J0D01*
G01*
G37*
%TD*%
%TO.C,D50*%
G36*
G01*
X156706250Y-83000000D02*
X157618750Y-83000000D01*
G75*
G02*
X157862500Y-83243750I0J-243750D01*
G01*
X157862500Y-83731250D01*
G75*
G02*
X157618750Y-83975000I-243750J0D01*
G01*
X156706250Y-83975000D01*
G75*
G02*
X156462500Y-83731250I0J243750D01*
G01*
X156462500Y-83243750D01*
G75*
G02*
X156706250Y-83000000I243750J0D01*
G01*
G37*
G36*
G01*
X156706250Y-81125000D02*
X157618750Y-81125000D01*
G75*
G02*
X157862500Y-81368750I0J-243750D01*
G01*
X157862500Y-81856250D01*
G75*
G02*
X157618750Y-82100000I-243750J0D01*
G01*
X156706250Y-82100000D01*
G75*
G02*
X156462500Y-81856250I0J243750D01*
G01*
X156462500Y-81368750D01*
G75*
G02*
X156706250Y-81125000I243750J0D01*
G01*
G37*
%TD*%
%TO.C,D49*%
G36*
G01*
X137656250Y-83000000D02*
X138568750Y-83000000D01*
G75*
G02*
X138812500Y-83243750I0J-243750D01*
G01*
X138812500Y-83731250D01*
G75*
G02*
X138568750Y-83975000I-243750J0D01*
G01*
X137656250Y-83975000D01*
G75*
G02*
X137412500Y-83731250I0J243750D01*
G01*
X137412500Y-83243750D01*
G75*
G02*
X137656250Y-83000000I243750J0D01*
G01*
G37*
G36*
G01*
X137656250Y-81125000D02*
X138568750Y-81125000D01*
G75*
G02*
X138812500Y-81368750I0J-243750D01*
G01*
X138812500Y-81856250D01*
G75*
G02*
X138568750Y-82100000I-243750J0D01*
G01*
X137656250Y-82100000D01*
G75*
G02*
X137412500Y-81856250I0J243750D01*
G01*
X137412500Y-81368750D01*
G75*
G02*
X137656250Y-81125000I243750J0D01*
G01*
G37*
%TD*%
%TO.C,D48*%
G36*
G01*
X118606250Y-83000000D02*
X119518750Y-83000000D01*
G75*
G02*
X119762500Y-83243750I0J-243750D01*
G01*
X119762500Y-83731250D01*
G75*
G02*
X119518750Y-83975000I-243750J0D01*
G01*
X118606250Y-83975000D01*
G75*
G02*
X118362500Y-83731250I0J243750D01*
G01*
X118362500Y-83243750D01*
G75*
G02*
X118606250Y-83000000I243750J0D01*
G01*
G37*
G36*
G01*
X118606250Y-81125000D02*
X119518750Y-81125000D01*
G75*
G02*
X119762500Y-81368750I0J-243750D01*
G01*
X119762500Y-81856250D01*
G75*
G02*
X119518750Y-82100000I-243750J0D01*
G01*
X118606250Y-82100000D01*
G75*
G02*
X118362500Y-81856250I0J243750D01*
G01*
X118362500Y-81368750D01*
G75*
G02*
X118606250Y-81125000I243750J0D01*
G01*
G37*
%TD*%
%TO.C,D47*%
G36*
G01*
X99556250Y-83000000D02*
X100468750Y-83000000D01*
G75*
G02*
X100712500Y-83243750I0J-243750D01*
G01*
X100712500Y-83731250D01*
G75*
G02*
X100468750Y-83975000I-243750J0D01*
G01*
X99556250Y-83975000D01*
G75*
G02*
X99312500Y-83731250I0J243750D01*
G01*
X99312500Y-83243750D01*
G75*
G02*
X99556250Y-83000000I243750J0D01*
G01*
G37*
G36*
G01*
X99556250Y-81125000D02*
X100468750Y-81125000D01*
G75*
G02*
X100712500Y-81368750I0J-243750D01*
G01*
X100712500Y-81856250D01*
G75*
G02*
X100468750Y-82100000I-243750J0D01*
G01*
X99556250Y-82100000D01*
G75*
G02*
X99312500Y-81856250I0J243750D01*
G01*
X99312500Y-81368750D01*
G75*
G02*
X99556250Y-81125000I243750J0D01*
G01*
G37*
%TD*%
%TO.C,D46*%
G36*
G01*
X68600000Y-83000000D02*
X69512500Y-83000000D01*
G75*
G02*
X69756250Y-83243750I0J-243750D01*
G01*
X69756250Y-83731250D01*
G75*
G02*
X69512500Y-83975000I-243750J0D01*
G01*
X68600000Y-83975000D01*
G75*
G02*
X68356250Y-83731250I0J243750D01*
G01*
X68356250Y-83243750D01*
G75*
G02*
X68600000Y-83000000I243750J0D01*
G01*
G37*
G36*
G01*
X68600000Y-81125000D02*
X69512500Y-81125000D01*
G75*
G02*
X69756250Y-81368750I0J-243750D01*
G01*
X69756250Y-81856250D01*
G75*
G02*
X69512500Y-82100000I-243750J0D01*
G01*
X68600000Y-82100000D01*
G75*
G02*
X68356250Y-81856250I0J243750D01*
G01*
X68356250Y-81368750D01*
G75*
G02*
X68600000Y-81125000I243750J0D01*
G01*
G37*
%TD*%
%TO.C,D45*%
G36*
G01*
X32881250Y-83000000D02*
X33793750Y-83000000D01*
G75*
G02*
X34037500Y-83243750I0J-243750D01*
G01*
X34037500Y-83731250D01*
G75*
G02*
X33793750Y-83975000I-243750J0D01*
G01*
X32881250Y-83975000D01*
G75*
G02*
X32637500Y-83731250I0J243750D01*
G01*
X32637500Y-83243750D01*
G75*
G02*
X32881250Y-83000000I243750J0D01*
G01*
G37*
G36*
G01*
X32881250Y-81125000D02*
X33793750Y-81125000D01*
G75*
G02*
X34037500Y-81368750I0J-243750D01*
G01*
X34037500Y-81856250D01*
G75*
G02*
X33793750Y-82100000I-243750J0D01*
G01*
X32881250Y-82100000D01*
G75*
G02*
X32637500Y-81856250I0J243750D01*
G01*
X32637500Y-81368750D01*
G75*
G02*
X32881250Y-81125000I243750J0D01*
G01*
G37*
%TD*%
%TO.C,D44*%
G36*
G01*
X311487500Y-63806250D02*
X312400000Y-63806250D01*
G75*
G02*
X312643750Y-64050000I0J-243750D01*
G01*
X312643750Y-64537500D01*
G75*
G02*
X312400000Y-64781250I-243750J0D01*
G01*
X311487500Y-64781250D01*
G75*
G02*
X311243750Y-64537500I0J243750D01*
G01*
X311243750Y-64050000D01*
G75*
G02*
X311487500Y-63806250I243750J0D01*
G01*
G37*
G36*
G01*
X311487500Y-61931250D02*
X312400000Y-61931250D01*
G75*
G02*
X312643750Y-62175000I0J-243750D01*
G01*
X312643750Y-62662500D01*
G75*
G02*
X312400000Y-62906250I-243750J0D01*
G01*
X311487500Y-62906250D01*
G75*
G02*
X311243750Y-62662500I0J243750D01*
G01*
X311243750Y-62175000D01*
G75*
G02*
X311487500Y-61931250I243750J0D01*
G01*
G37*
%TD*%
%TO.C,D43*%
G36*
G01*
X280531250Y-63950000D02*
X281443750Y-63950000D01*
G75*
G02*
X281687500Y-64193750I0J-243750D01*
G01*
X281687500Y-64681250D01*
G75*
G02*
X281443750Y-64925000I-243750J0D01*
G01*
X280531250Y-64925000D01*
G75*
G02*
X280287500Y-64681250I0J243750D01*
G01*
X280287500Y-64193750D01*
G75*
G02*
X280531250Y-63950000I243750J0D01*
G01*
G37*
G36*
G01*
X280531250Y-62075000D02*
X281443750Y-62075000D01*
G75*
G02*
X281687500Y-62318750I0J-243750D01*
G01*
X281687500Y-62806250D01*
G75*
G02*
X281443750Y-63050000I-243750J0D01*
G01*
X280531250Y-63050000D01*
G75*
G02*
X280287500Y-62806250I0J243750D01*
G01*
X280287500Y-62318750D01*
G75*
G02*
X280531250Y-62075000I243750J0D01*
G01*
G37*
%TD*%
%TO.C,D42*%
G36*
G01*
X261481250Y-63950000D02*
X262393750Y-63950000D01*
G75*
G02*
X262637500Y-64193750I0J-243750D01*
G01*
X262637500Y-64681250D01*
G75*
G02*
X262393750Y-64925000I-243750J0D01*
G01*
X261481250Y-64925000D01*
G75*
G02*
X261237500Y-64681250I0J243750D01*
G01*
X261237500Y-64193750D01*
G75*
G02*
X261481250Y-63950000I243750J0D01*
G01*
G37*
G36*
G01*
X261481250Y-62075000D02*
X262393750Y-62075000D01*
G75*
G02*
X262637500Y-62318750I0J-243750D01*
G01*
X262637500Y-62806250D01*
G75*
G02*
X262393750Y-63050000I-243750J0D01*
G01*
X261481250Y-63050000D01*
G75*
G02*
X261237500Y-62806250I0J243750D01*
G01*
X261237500Y-62318750D01*
G75*
G02*
X261481250Y-62075000I243750J0D01*
G01*
G37*
%TD*%
%TO.C,D41*%
G36*
G01*
X242431250Y-63950000D02*
X243343750Y-63950000D01*
G75*
G02*
X243587500Y-64193750I0J-243750D01*
G01*
X243587500Y-64681250D01*
G75*
G02*
X243343750Y-64925000I-243750J0D01*
G01*
X242431250Y-64925000D01*
G75*
G02*
X242187500Y-64681250I0J243750D01*
G01*
X242187500Y-64193750D01*
G75*
G02*
X242431250Y-63950000I243750J0D01*
G01*
G37*
G36*
G01*
X242431250Y-62075000D02*
X243343750Y-62075000D01*
G75*
G02*
X243587500Y-62318750I0J-243750D01*
G01*
X243587500Y-62806250D01*
G75*
G02*
X243343750Y-63050000I-243750J0D01*
G01*
X242431250Y-63050000D01*
G75*
G02*
X242187500Y-62806250I0J243750D01*
G01*
X242187500Y-62318750D01*
G75*
G02*
X242431250Y-62075000I243750J0D01*
G01*
G37*
%TD*%
%TO.C,D40*%
G36*
G01*
X223381250Y-63950000D02*
X224293750Y-63950000D01*
G75*
G02*
X224537500Y-64193750I0J-243750D01*
G01*
X224537500Y-64681250D01*
G75*
G02*
X224293750Y-64925000I-243750J0D01*
G01*
X223381250Y-64925000D01*
G75*
G02*
X223137500Y-64681250I0J243750D01*
G01*
X223137500Y-64193750D01*
G75*
G02*
X223381250Y-63950000I243750J0D01*
G01*
G37*
G36*
G01*
X223381250Y-62075000D02*
X224293750Y-62075000D01*
G75*
G02*
X224537500Y-62318750I0J-243750D01*
G01*
X224537500Y-62806250D01*
G75*
G02*
X224293750Y-63050000I-243750J0D01*
G01*
X223381250Y-63050000D01*
G75*
G02*
X223137500Y-62806250I0J243750D01*
G01*
X223137500Y-62318750D01*
G75*
G02*
X223381250Y-62075000I243750J0D01*
G01*
G37*
%TD*%
%TO.C,D39*%
G36*
G01*
X204331250Y-63950000D02*
X205243750Y-63950000D01*
G75*
G02*
X205487500Y-64193750I0J-243750D01*
G01*
X205487500Y-64681250D01*
G75*
G02*
X205243750Y-64925000I-243750J0D01*
G01*
X204331250Y-64925000D01*
G75*
G02*
X204087500Y-64681250I0J243750D01*
G01*
X204087500Y-64193750D01*
G75*
G02*
X204331250Y-63950000I243750J0D01*
G01*
G37*
G36*
G01*
X204331250Y-62075000D02*
X205243750Y-62075000D01*
G75*
G02*
X205487500Y-62318750I0J-243750D01*
G01*
X205487500Y-62806250D01*
G75*
G02*
X205243750Y-63050000I-243750J0D01*
G01*
X204331250Y-63050000D01*
G75*
G02*
X204087500Y-62806250I0J243750D01*
G01*
X204087500Y-62318750D01*
G75*
G02*
X204331250Y-62075000I243750J0D01*
G01*
G37*
%TD*%
%TO.C,D38*%
G36*
G01*
X185281250Y-63950000D02*
X186193750Y-63950000D01*
G75*
G02*
X186437500Y-64193750I0J-243750D01*
G01*
X186437500Y-64681250D01*
G75*
G02*
X186193750Y-64925000I-243750J0D01*
G01*
X185281250Y-64925000D01*
G75*
G02*
X185037500Y-64681250I0J243750D01*
G01*
X185037500Y-64193750D01*
G75*
G02*
X185281250Y-63950000I243750J0D01*
G01*
G37*
G36*
G01*
X185281250Y-62075000D02*
X186193750Y-62075000D01*
G75*
G02*
X186437500Y-62318750I0J-243750D01*
G01*
X186437500Y-62806250D01*
G75*
G02*
X186193750Y-63050000I-243750J0D01*
G01*
X185281250Y-63050000D01*
G75*
G02*
X185037500Y-62806250I0J243750D01*
G01*
X185037500Y-62318750D01*
G75*
G02*
X185281250Y-62075000I243750J0D01*
G01*
G37*
%TD*%
%TO.C,D37*%
G36*
G01*
X166231250Y-63950000D02*
X167143750Y-63950000D01*
G75*
G02*
X167387500Y-64193750I0J-243750D01*
G01*
X167387500Y-64681250D01*
G75*
G02*
X167143750Y-64925000I-243750J0D01*
G01*
X166231250Y-64925000D01*
G75*
G02*
X165987500Y-64681250I0J243750D01*
G01*
X165987500Y-64193750D01*
G75*
G02*
X166231250Y-63950000I243750J0D01*
G01*
G37*
G36*
G01*
X166231250Y-62075000D02*
X167143750Y-62075000D01*
G75*
G02*
X167387500Y-62318750I0J-243750D01*
G01*
X167387500Y-62806250D01*
G75*
G02*
X167143750Y-63050000I-243750J0D01*
G01*
X166231250Y-63050000D01*
G75*
G02*
X165987500Y-62806250I0J243750D01*
G01*
X165987500Y-62318750D01*
G75*
G02*
X166231250Y-62075000I243750J0D01*
G01*
G37*
%TD*%
%TO.C,D36*%
G36*
G01*
X147181250Y-63806250D02*
X148093750Y-63806250D01*
G75*
G02*
X148337500Y-64050000I0J-243750D01*
G01*
X148337500Y-64537500D01*
G75*
G02*
X148093750Y-64781250I-243750J0D01*
G01*
X147181250Y-64781250D01*
G75*
G02*
X146937500Y-64537500I0J243750D01*
G01*
X146937500Y-64050000D01*
G75*
G02*
X147181250Y-63806250I243750J0D01*
G01*
G37*
G36*
G01*
X147181250Y-61931250D02*
X148093750Y-61931250D01*
G75*
G02*
X148337500Y-62175000I0J-243750D01*
G01*
X148337500Y-62662500D01*
G75*
G02*
X148093750Y-62906250I-243750J0D01*
G01*
X147181250Y-62906250D01*
G75*
G02*
X146937500Y-62662500I0J243750D01*
G01*
X146937500Y-62175000D01*
G75*
G02*
X147181250Y-61931250I243750J0D01*
G01*
G37*
%TD*%
%TO.C,D35*%
G36*
G01*
X128131250Y-63950000D02*
X129043750Y-63950000D01*
G75*
G02*
X129287500Y-64193750I0J-243750D01*
G01*
X129287500Y-64681250D01*
G75*
G02*
X129043750Y-64925000I-243750J0D01*
G01*
X128131250Y-64925000D01*
G75*
G02*
X127887500Y-64681250I0J243750D01*
G01*
X127887500Y-64193750D01*
G75*
G02*
X128131250Y-63950000I243750J0D01*
G01*
G37*
G36*
G01*
X128131250Y-62075000D02*
X129043750Y-62075000D01*
G75*
G02*
X129287500Y-62318750I0J-243750D01*
G01*
X129287500Y-62806250D01*
G75*
G02*
X129043750Y-63050000I-243750J0D01*
G01*
X128131250Y-63050000D01*
G75*
G02*
X127887500Y-62806250I0J243750D01*
G01*
X127887500Y-62318750D01*
G75*
G02*
X128131250Y-62075000I243750J0D01*
G01*
G37*
%TD*%
%TO.C,D34*%
G36*
G01*
X109081250Y-63950000D02*
X109993750Y-63950000D01*
G75*
G02*
X110237500Y-64193750I0J-243750D01*
G01*
X110237500Y-64681250D01*
G75*
G02*
X109993750Y-64925000I-243750J0D01*
G01*
X109081250Y-64925000D01*
G75*
G02*
X108837500Y-64681250I0J243750D01*
G01*
X108837500Y-64193750D01*
G75*
G02*
X109081250Y-63950000I243750J0D01*
G01*
G37*
G36*
G01*
X109081250Y-62075000D02*
X109993750Y-62075000D01*
G75*
G02*
X110237500Y-62318750I0J-243750D01*
G01*
X110237500Y-62806250D01*
G75*
G02*
X109993750Y-63050000I-243750J0D01*
G01*
X109081250Y-63050000D01*
G75*
G02*
X108837500Y-62806250I0J243750D01*
G01*
X108837500Y-62318750D01*
G75*
G02*
X109081250Y-62075000I243750J0D01*
G01*
G37*
%TD*%
%TO.C,D33*%
G36*
G01*
X90031250Y-63950000D02*
X90943750Y-63950000D01*
G75*
G02*
X91187500Y-64193750I0J-243750D01*
G01*
X91187500Y-64681250D01*
G75*
G02*
X90943750Y-64925000I-243750J0D01*
G01*
X90031250Y-64925000D01*
G75*
G02*
X89787500Y-64681250I0J243750D01*
G01*
X89787500Y-64193750D01*
G75*
G02*
X90031250Y-63950000I243750J0D01*
G01*
G37*
G36*
G01*
X90031250Y-62075000D02*
X90943750Y-62075000D01*
G75*
G02*
X91187500Y-62318750I0J-243750D01*
G01*
X91187500Y-62806250D01*
G75*
G02*
X90943750Y-63050000I-243750J0D01*
G01*
X90031250Y-63050000D01*
G75*
G02*
X89787500Y-62806250I0J243750D01*
G01*
X89787500Y-62318750D01*
G75*
G02*
X90031250Y-62075000I243750J0D01*
G01*
G37*
%TD*%
%TO.C,D32*%
G36*
G01*
X63837500Y-63950000D02*
X64750000Y-63950000D01*
G75*
G02*
X64993750Y-64193750I0J-243750D01*
G01*
X64993750Y-64681250D01*
G75*
G02*
X64750000Y-64925000I-243750J0D01*
G01*
X63837500Y-64925000D01*
G75*
G02*
X63593750Y-64681250I0J243750D01*
G01*
X63593750Y-64193750D01*
G75*
G02*
X63837500Y-63950000I243750J0D01*
G01*
G37*
G36*
G01*
X63837500Y-62075000D02*
X64750000Y-62075000D01*
G75*
G02*
X64993750Y-62318750I0J-243750D01*
G01*
X64993750Y-62806250D01*
G75*
G02*
X64750000Y-63050000I-243750J0D01*
G01*
X63837500Y-63050000D01*
G75*
G02*
X63593750Y-62806250I0J243750D01*
G01*
X63593750Y-62318750D01*
G75*
G02*
X63837500Y-62075000I243750J0D01*
G01*
G37*
%TD*%
%TO.C,D31*%
G36*
G01*
X32881250Y-63950000D02*
X33793750Y-63950000D01*
G75*
G02*
X34037500Y-64193750I0J-243750D01*
G01*
X34037500Y-64681250D01*
G75*
G02*
X33793750Y-64925000I-243750J0D01*
G01*
X32881250Y-64925000D01*
G75*
G02*
X32637500Y-64681250I0J243750D01*
G01*
X32637500Y-64193750D01*
G75*
G02*
X32881250Y-63950000I243750J0D01*
G01*
G37*
G36*
G01*
X32881250Y-62075000D02*
X33793750Y-62075000D01*
G75*
G02*
X34037500Y-62318750I0J-243750D01*
G01*
X34037500Y-62806250D01*
G75*
G02*
X33793750Y-63050000I-243750J0D01*
G01*
X32881250Y-63050000D01*
G75*
G02*
X32637500Y-62806250I0J243750D01*
G01*
X32637500Y-62318750D01*
G75*
G02*
X32881250Y-62075000I243750J0D01*
G01*
G37*
%TD*%
%TO.C,D30*%
G36*
G01*
X318631250Y-44900000D02*
X319543750Y-44900000D01*
G75*
G02*
X319787500Y-45143750I0J-243750D01*
G01*
X319787500Y-45631250D01*
G75*
G02*
X319543750Y-45875000I-243750J0D01*
G01*
X318631250Y-45875000D01*
G75*
G02*
X318387500Y-45631250I0J243750D01*
G01*
X318387500Y-45143750D01*
G75*
G02*
X318631250Y-44900000I243750J0D01*
G01*
G37*
G36*
G01*
X318631250Y-43025000D02*
X319543750Y-43025000D01*
G75*
G02*
X319787500Y-43268750I0J-243750D01*
G01*
X319787500Y-43756250D01*
G75*
G02*
X319543750Y-44000000I-243750J0D01*
G01*
X318631250Y-44000000D01*
G75*
G02*
X318387500Y-43756250I0J243750D01*
G01*
X318387500Y-43268750D01*
G75*
G02*
X318631250Y-43025000I243750J0D01*
G01*
G37*
%TD*%
%TO.C,D29*%
G36*
G01*
X294818750Y-44900000D02*
X295731250Y-44900000D01*
G75*
G02*
X295975000Y-45143750I0J-243750D01*
G01*
X295975000Y-45631250D01*
G75*
G02*
X295731250Y-45875000I-243750J0D01*
G01*
X294818750Y-45875000D01*
G75*
G02*
X294575000Y-45631250I0J243750D01*
G01*
X294575000Y-45143750D01*
G75*
G02*
X294818750Y-44900000I243750J0D01*
G01*
G37*
G36*
G01*
X294818750Y-43025000D02*
X295731250Y-43025000D01*
G75*
G02*
X295975000Y-43268750I0J-243750D01*
G01*
X295975000Y-43756250D01*
G75*
G02*
X295731250Y-44000000I-243750J0D01*
G01*
X294818750Y-44000000D01*
G75*
G02*
X294575000Y-43756250I0J243750D01*
G01*
X294575000Y-43268750D01*
G75*
G02*
X294818750Y-43025000I243750J0D01*
G01*
G37*
%TD*%
%TO.C,D28*%
G36*
G01*
X275768750Y-44900000D02*
X276681250Y-44900000D01*
G75*
G02*
X276925000Y-45143750I0J-243750D01*
G01*
X276925000Y-45631250D01*
G75*
G02*
X276681250Y-45875000I-243750J0D01*
G01*
X275768750Y-45875000D01*
G75*
G02*
X275525000Y-45631250I0J243750D01*
G01*
X275525000Y-45143750D01*
G75*
G02*
X275768750Y-44900000I243750J0D01*
G01*
G37*
G36*
G01*
X275768750Y-43025000D02*
X276681250Y-43025000D01*
G75*
G02*
X276925000Y-43268750I0J-243750D01*
G01*
X276925000Y-43756250D01*
G75*
G02*
X276681250Y-44000000I-243750J0D01*
G01*
X275768750Y-44000000D01*
G75*
G02*
X275525000Y-43756250I0J243750D01*
G01*
X275525000Y-43268750D01*
G75*
G02*
X275768750Y-43025000I243750J0D01*
G01*
G37*
%TD*%
%TO.C,D27*%
G36*
G01*
X256718750Y-44900000D02*
X257631250Y-44900000D01*
G75*
G02*
X257875000Y-45143750I0J-243750D01*
G01*
X257875000Y-45631250D01*
G75*
G02*
X257631250Y-45875000I-243750J0D01*
G01*
X256718750Y-45875000D01*
G75*
G02*
X256475000Y-45631250I0J243750D01*
G01*
X256475000Y-45143750D01*
G75*
G02*
X256718750Y-44900000I243750J0D01*
G01*
G37*
G36*
G01*
X256718750Y-43025000D02*
X257631250Y-43025000D01*
G75*
G02*
X257875000Y-43268750I0J-243750D01*
G01*
X257875000Y-43756250D01*
G75*
G02*
X257631250Y-44000000I-243750J0D01*
G01*
X256718750Y-44000000D01*
G75*
G02*
X256475000Y-43756250I0J243750D01*
G01*
X256475000Y-43268750D01*
G75*
G02*
X256718750Y-43025000I243750J0D01*
G01*
G37*
%TD*%
%TO.C,D26*%
G36*
G01*
X237668750Y-44900000D02*
X238581250Y-44900000D01*
G75*
G02*
X238825000Y-45143750I0J-243750D01*
G01*
X238825000Y-45631250D01*
G75*
G02*
X238581250Y-45875000I-243750J0D01*
G01*
X237668750Y-45875000D01*
G75*
G02*
X237425000Y-45631250I0J243750D01*
G01*
X237425000Y-45143750D01*
G75*
G02*
X237668750Y-44900000I243750J0D01*
G01*
G37*
G36*
G01*
X237668750Y-43025000D02*
X238581250Y-43025000D01*
G75*
G02*
X238825000Y-43268750I0J-243750D01*
G01*
X238825000Y-43756250D01*
G75*
G02*
X238581250Y-44000000I-243750J0D01*
G01*
X237668750Y-44000000D01*
G75*
G02*
X237425000Y-43756250I0J243750D01*
G01*
X237425000Y-43268750D01*
G75*
G02*
X237668750Y-43025000I243750J0D01*
G01*
G37*
%TD*%
%TO.C,D25*%
G36*
G01*
X218618750Y-44900000D02*
X219531250Y-44900000D01*
G75*
G02*
X219775000Y-45143750I0J-243750D01*
G01*
X219775000Y-45631250D01*
G75*
G02*
X219531250Y-45875000I-243750J0D01*
G01*
X218618750Y-45875000D01*
G75*
G02*
X218375000Y-45631250I0J243750D01*
G01*
X218375000Y-45143750D01*
G75*
G02*
X218618750Y-44900000I243750J0D01*
G01*
G37*
G36*
G01*
X218618750Y-43025000D02*
X219531250Y-43025000D01*
G75*
G02*
X219775000Y-43268750I0J-243750D01*
G01*
X219775000Y-43756250D01*
G75*
G02*
X219531250Y-44000000I-243750J0D01*
G01*
X218618750Y-44000000D01*
G75*
G02*
X218375000Y-43756250I0J243750D01*
G01*
X218375000Y-43268750D01*
G75*
G02*
X218618750Y-43025000I243750J0D01*
G01*
G37*
%TD*%
%TO.C,D24*%
G36*
G01*
X199568750Y-44900000D02*
X200481250Y-44900000D01*
G75*
G02*
X200725000Y-45143750I0J-243750D01*
G01*
X200725000Y-45631250D01*
G75*
G02*
X200481250Y-45875000I-243750J0D01*
G01*
X199568750Y-45875000D01*
G75*
G02*
X199325000Y-45631250I0J243750D01*
G01*
X199325000Y-45143750D01*
G75*
G02*
X199568750Y-44900000I243750J0D01*
G01*
G37*
G36*
G01*
X199568750Y-43025000D02*
X200481250Y-43025000D01*
G75*
G02*
X200725000Y-43268750I0J-243750D01*
G01*
X200725000Y-43756250D01*
G75*
G02*
X200481250Y-44000000I-243750J0D01*
G01*
X199568750Y-44000000D01*
G75*
G02*
X199325000Y-43756250I0J243750D01*
G01*
X199325000Y-43268750D01*
G75*
G02*
X199568750Y-43025000I243750J0D01*
G01*
G37*
%TD*%
%TO.C,D23*%
G36*
G01*
X180518750Y-44900000D02*
X181431250Y-44900000D01*
G75*
G02*
X181675000Y-45143750I0J-243750D01*
G01*
X181675000Y-45631250D01*
G75*
G02*
X181431250Y-45875000I-243750J0D01*
G01*
X180518750Y-45875000D01*
G75*
G02*
X180275000Y-45631250I0J243750D01*
G01*
X180275000Y-45143750D01*
G75*
G02*
X180518750Y-44900000I243750J0D01*
G01*
G37*
G36*
G01*
X180518750Y-43025000D02*
X181431250Y-43025000D01*
G75*
G02*
X181675000Y-43268750I0J-243750D01*
G01*
X181675000Y-43756250D01*
G75*
G02*
X181431250Y-44000000I-243750J0D01*
G01*
X180518750Y-44000000D01*
G75*
G02*
X180275000Y-43756250I0J243750D01*
G01*
X180275000Y-43268750D01*
G75*
G02*
X180518750Y-43025000I243750J0D01*
G01*
G37*
%TD*%
%TO.C,D22*%
G36*
G01*
X161468750Y-44900000D02*
X162381250Y-44900000D01*
G75*
G02*
X162625000Y-45143750I0J-243750D01*
G01*
X162625000Y-45631250D01*
G75*
G02*
X162381250Y-45875000I-243750J0D01*
G01*
X161468750Y-45875000D01*
G75*
G02*
X161225000Y-45631250I0J243750D01*
G01*
X161225000Y-45143750D01*
G75*
G02*
X161468750Y-44900000I243750J0D01*
G01*
G37*
G36*
G01*
X161468750Y-43025000D02*
X162381250Y-43025000D01*
G75*
G02*
X162625000Y-43268750I0J-243750D01*
G01*
X162625000Y-43756250D01*
G75*
G02*
X162381250Y-44000000I-243750J0D01*
G01*
X161468750Y-44000000D01*
G75*
G02*
X161225000Y-43756250I0J243750D01*
G01*
X161225000Y-43268750D01*
G75*
G02*
X161468750Y-43025000I243750J0D01*
G01*
G37*
%TD*%
%TO.C,D21*%
G36*
G01*
X142418750Y-44900000D02*
X143331250Y-44900000D01*
G75*
G02*
X143575000Y-45143750I0J-243750D01*
G01*
X143575000Y-45631250D01*
G75*
G02*
X143331250Y-45875000I-243750J0D01*
G01*
X142418750Y-45875000D01*
G75*
G02*
X142175000Y-45631250I0J243750D01*
G01*
X142175000Y-45143750D01*
G75*
G02*
X142418750Y-44900000I243750J0D01*
G01*
G37*
G36*
G01*
X142418750Y-43025000D02*
X143331250Y-43025000D01*
G75*
G02*
X143575000Y-43268750I0J-243750D01*
G01*
X143575000Y-43756250D01*
G75*
G02*
X143331250Y-44000000I-243750J0D01*
G01*
X142418750Y-44000000D01*
G75*
G02*
X142175000Y-43756250I0J243750D01*
G01*
X142175000Y-43268750D01*
G75*
G02*
X142418750Y-43025000I243750J0D01*
G01*
G37*
%TD*%
%TO.C,D20*%
G36*
G01*
X123368750Y-44900000D02*
X124281250Y-44900000D01*
G75*
G02*
X124525000Y-45143750I0J-243750D01*
G01*
X124525000Y-45631250D01*
G75*
G02*
X124281250Y-45875000I-243750J0D01*
G01*
X123368750Y-45875000D01*
G75*
G02*
X123125000Y-45631250I0J243750D01*
G01*
X123125000Y-45143750D01*
G75*
G02*
X123368750Y-44900000I243750J0D01*
G01*
G37*
G36*
G01*
X123368750Y-43025000D02*
X124281250Y-43025000D01*
G75*
G02*
X124525000Y-43268750I0J-243750D01*
G01*
X124525000Y-43756250D01*
G75*
G02*
X124281250Y-44000000I-243750J0D01*
G01*
X123368750Y-44000000D01*
G75*
G02*
X123125000Y-43756250I0J243750D01*
G01*
X123125000Y-43268750D01*
G75*
G02*
X123368750Y-43025000I243750J0D01*
G01*
G37*
%TD*%
%TO.C,D19*%
G36*
G01*
X104318750Y-44900000D02*
X105231250Y-44900000D01*
G75*
G02*
X105475000Y-45143750I0J-243750D01*
G01*
X105475000Y-45631250D01*
G75*
G02*
X105231250Y-45875000I-243750J0D01*
G01*
X104318750Y-45875000D01*
G75*
G02*
X104075000Y-45631250I0J243750D01*
G01*
X104075000Y-45143750D01*
G75*
G02*
X104318750Y-44900000I243750J0D01*
G01*
G37*
G36*
G01*
X104318750Y-43025000D02*
X105231250Y-43025000D01*
G75*
G02*
X105475000Y-43268750I0J-243750D01*
G01*
X105475000Y-43756250D01*
G75*
G02*
X105231250Y-44000000I-243750J0D01*
G01*
X104318750Y-44000000D01*
G75*
G02*
X104075000Y-43756250I0J243750D01*
G01*
X104075000Y-43268750D01*
G75*
G02*
X104318750Y-43025000I243750J0D01*
G01*
G37*
%TD*%
%TO.C,D18*%
G36*
G01*
X85268750Y-44900000D02*
X86181250Y-44900000D01*
G75*
G02*
X86425000Y-45143750I0J-243750D01*
G01*
X86425000Y-45631250D01*
G75*
G02*
X86181250Y-45875000I-243750J0D01*
G01*
X85268750Y-45875000D01*
G75*
G02*
X85025000Y-45631250I0J243750D01*
G01*
X85025000Y-45143750D01*
G75*
G02*
X85268750Y-44900000I243750J0D01*
G01*
G37*
G36*
G01*
X85268750Y-43025000D02*
X86181250Y-43025000D01*
G75*
G02*
X86425000Y-43268750I0J-243750D01*
G01*
X86425000Y-43756250D01*
G75*
G02*
X86181250Y-44000000I-243750J0D01*
G01*
X85268750Y-44000000D01*
G75*
G02*
X85025000Y-43756250I0J243750D01*
G01*
X85025000Y-43268750D01*
G75*
G02*
X85268750Y-43025000I243750J0D01*
G01*
G37*
%TD*%
%TO.C,D17*%
G36*
G01*
X61456250Y-44900000D02*
X62368750Y-44900000D01*
G75*
G02*
X62612500Y-45143750I0J-243750D01*
G01*
X62612500Y-45631250D01*
G75*
G02*
X62368750Y-45875000I-243750J0D01*
G01*
X61456250Y-45875000D01*
G75*
G02*
X61212500Y-45631250I0J243750D01*
G01*
X61212500Y-45143750D01*
G75*
G02*
X61456250Y-44900000I243750J0D01*
G01*
G37*
G36*
G01*
X61456250Y-43025000D02*
X62368750Y-43025000D01*
G75*
G02*
X62612500Y-43268750I0J-243750D01*
G01*
X62612500Y-43756250D01*
G75*
G02*
X62368750Y-44000000I-243750J0D01*
G01*
X61456250Y-44000000D01*
G75*
G02*
X61212500Y-43756250I0J243750D01*
G01*
X61212500Y-43268750D01*
G75*
G02*
X61456250Y-43025000I243750J0D01*
G01*
G37*
%TD*%
%TO.C,D16*%
G36*
G01*
X32881250Y-44900000D02*
X33793750Y-44900000D01*
G75*
G02*
X34037500Y-45143750I0J-243750D01*
G01*
X34037500Y-45631250D01*
G75*
G02*
X33793750Y-45875000I-243750J0D01*
G01*
X32881250Y-45875000D01*
G75*
G02*
X32637500Y-45631250I0J243750D01*
G01*
X32637500Y-45143750D01*
G75*
G02*
X32881250Y-44900000I243750J0D01*
G01*
G37*
G36*
G01*
X32881250Y-43025000D02*
X33793750Y-43025000D01*
G75*
G02*
X34037500Y-43268750I0J-243750D01*
G01*
X34037500Y-43756250D01*
G75*
G02*
X33793750Y-44000000I-243750J0D01*
G01*
X32881250Y-44000000D01*
G75*
G02*
X32637500Y-43756250I0J243750D01*
G01*
X32637500Y-43268750D01*
G75*
G02*
X32881250Y-43025000I243750J0D01*
G01*
G37*
%TD*%
%TO.C,D15*%
G36*
G01*
X313868750Y-25850000D02*
X314781250Y-25850000D01*
G75*
G02*
X315025000Y-26093750I0J-243750D01*
G01*
X315025000Y-26581250D01*
G75*
G02*
X314781250Y-26825000I-243750J0D01*
G01*
X313868750Y-26825000D01*
G75*
G02*
X313625000Y-26581250I0J243750D01*
G01*
X313625000Y-26093750D01*
G75*
G02*
X313868750Y-25850000I243750J0D01*
G01*
G37*
G36*
G01*
X313868750Y-23975000D02*
X314781250Y-23975000D01*
G75*
G02*
X315025000Y-24218750I0J-243750D01*
G01*
X315025000Y-24706250D01*
G75*
G02*
X314781250Y-24950000I-243750J0D01*
G01*
X313868750Y-24950000D01*
G75*
G02*
X313625000Y-24706250I0J243750D01*
G01*
X313625000Y-24218750D01*
G75*
G02*
X313868750Y-23975000I243750J0D01*
G01*
G37*
%TD*%
%TO.C,D14*%
G36*
G01*
X285293750Y-25850000D02*
X286206250Y-25850000D01*
G75*
G02*
X286450000Y-26093750I0J-243750D01*
G01*
X286450000Y-26581250D01*
G75*
G02*
X286206250Y-26825000I-243750J0D01*
G01*
X285293750Y-26825000D01*
G75*
G02*
X285050000Y-26581250I0J243750D01*
G01*
X285050000Y-26093750D01*
G75*
G02*
X285293750Y-25850000I243750J0D01*
G01*
G37*
G36*
G01*
X285293750Y-23975000D02*
X286206250Y-23975000D01*
G75*
G02*
X286450000Y-24218750I0J-243750D01*
G01*
X286450000Y-24706250D01*
G75*
G02*
X286206250Y-24950000I-243750J0D01*
G01*
X285293750Y-24950000D01*
G75*
G02*
X285050000Y-24706250I0J243750D01*
G01*
X285050000Y-24218750D01*
G75*
G02*
X285293750Y-23975000I243750J0D01*
G01*
G37*
%TD*%
%TO.C,D13*%
G36*
G01*
X266243750Y-25850000D02*
X267156250Y-25850000D01*
G75*
G02*
X267400000Y-26093750I0J-243750D01*
G01*
X267400000Y-26581250D01*
G75*
G02*
X267156250Y-26825000I-243750J0D01*
G01*
X266243750Y-26825000D01*
G75*
G02*
X266000000Y-26581250I0J243750D01*
G01*
X266000000Y-26093750D01*
G75*
G02*
X266243750Y-25850000I243750J0D01*
G01*
G37*
G36*
G01*
X266243750Y-23975000D02*
X267156250Y-23975000D01*
G75*
G02*
X267400000Y-24218750I0J-243750D01*
G01*
X267400000Y-24706250D01*
G75*
G02*
X267156250Y-24950000I-243750J0D01*
G01*
X266243750Y-24950000D01*
G75*
G02*
X266000000Y-24706250I0J243750D01*
G01*
X266000000Y-24218750D01*
G75*
G02*
X266243750Y-23975000I243750J0D01*
G01*
G37*
%TD*%
%TO.C,D12*%
G36*
G01*
X247193750Y-25850000D02*
X248106250Y-25850000D01*
G75*
G02*
X248350000Y-26093750I0J-243750D01*
G01*
X248350000Y-26581250D01*
G75*
G02*
X248106250Y-26825000I-243750J0D01*
G01*
X247193750Y-26825000D01*
G75*
G02*
X246950000Y-26581250I0J243750D01*
G01*
X246950000Y-26093750D01*
G75*
G02*
X247193750Y-25850000I243750J0D01*
G01*
G37*
G36*
G01*
X247193750Y-23975000D02*
X248106250Y-23975000D01*
G75*
G02*
X248350000Y-24218750I0J-243750D01*
G01*
X248350000Y-24706250D01*
G75*
G02*
X248106250Y-24950000I-243750J0D01*
G01*
X247193750Y-24950000D01*
G75*
G02*
X246950000Y-24706250I0J243750D01*
G01*
X246950000Y-24218750D01*
G75*
G02*
X247193750Y-23975000I243750J0D01*
G01*
G37*
%TD*%
%TO.C,D11*%
G36*
G01*
X228143750Y-25850000D02*
X229056250Y-25850000D01*
G75*
G02*
X229300000Y-26093750I0J-243750D01*
G01*
X229300000Y-26581250D01*
G75*
G02*
X229056250Y-26825000I-243750J0D01*
G01*
X228143750Y-26825000D01*
G75*
G02*
X227900000Y-26581250I0J243750D01*
G01*
X227900000Y-26093750D01*
G75*
G02*
X228143750Y-25850000I243750J0D01*
G01*
G37*
G36*
G01*
X228143750Y-23975000D02*
X229056250Y-23975000D01*
G75*
G02*
X229300000Y-24218750I0J-243750D01*
G01*
X229300000Y-24706250D01*
G75*
G02*
X229056250Y-24950000I-243750J0D01*
G01*
X228143750Y-24950000D01*
G75*
G02*
X227900000Y-24706250I0J243750D01*
G01*
X227900000Y-24218750D01*
G75*
G02*
X228143750Y-23975000I243750J0D01*
G01*
G37*
%TD*%
%TO.C,D10*%
G36*
G01*
X209093750Y-25850000D02*
X210006250Y-25850000D01*
G75*
G02*
X210250000Y-26093750I0J-243750D01*
G01*
X210250000Y-26581250D01*
G75*
G02*
X210006250Y-26825000I-243750J0D01*
G01*
X209093750Y-26825000D01*
G75*
G02*
X208850000Y-26581250I0J243750D01*
G01*
X208850000Y-26093750D01*
G75*
G02*
X209093750Y-25850000I243750J0D01*
G01*
G37*
G36*
G01*
X209093750Y-23975000D02*
X210006250Y-23975000D01*
G75*
G02*
X210250000Y-24218750I0J-243750D01*
G01*
X210250000Y-24706250D01*
G75*
G02*
X210006250Y-24950000I-243750J0D01*
G01*
X209093750Y-24950000D01*
G75*
G02*
X208850000Y-24706250I0J243750D01*
G01*
X208850000Y-24218750D01*
G75*
G02*
X209093750Y-23975000I243750J0D01*
G01*
G37*
%TD*%
%TO.C,D9*%
G36*
G01*
X190043750Y-25850000D02*
X190956250Y-25850000D01*
G75*
G02*
X191200000Y-26093750I0J-243750D01*
G01*
X191200000Y-26581250D01*
G75*
G02*
X190956250Y-26825000I-243750J0D01*
G01*
X190043750Y-26825000D01*
G75*
G02*
X189800000Y-26581250I0J243750D01*
G01*
X189800000Y-26093750D01*
G75*
G02*
X190043750Y-25850000I243750J0D01*
G01*
G37*
G36*
G01*
X190043750Y-23975000D02*
X190956250Y-23975000D01*
G75*
G02*
X191200000Y-24218750I0J-243750D01*
G01*
X191200000Y-24706250D01*
G75*
G02*
X190956250Y-24950000I-243750J0D01*
G01*
X190043750Y-24950000D01*
G75*
G02*
X189800000Y-24706250I0J243750D01*
G01*
X189800000Y-24218750D01*
G75*
G02*
X190043750Y-23975000I243750J0D01*
G01*
G37*
%TD*%
%TO.C,D8*%
G36*
G01*
X170993750Y-25850000D02*
X171906250Y-25850000D01*
G75*
G02*
X172150000Y-26093750I0J-243750D01*
G01*
X172150000Y-26581250D01*
G75*
G02*
X171906250Y-26825000I-243750J0D01*
G01*
X170993750Y-26825000D01*
G75*
G02*
X170750000Y-26581250I0J243750D01*
G01*
X170750000Y-26093750D01*
G75*
G02*
X170993750Y-25850000I243750J0D01*
G01*
G37*
G36*
G01*
X170993750Y-23975000D02*
X171906250Y-23975000D01*
G75*
G02*
X172150000Y-24218750I0J-243750D01*
G01*
X172150000Y-24706250D01*
G75*
G02*
X171906250Y-24950000I-243750J0D01*
G01*
X170993750Y-24950000D01*
G75*
G02*
X170750000Y-24706250I0J243750D01*
G01*
X170750000Y-24218750D01*
G75*
G02*
X170993750Y-23975000I243750J0D01*
G01*
G37*
%TD*%
%TO.C,D7*%
G36*
G01*
X151943750Y-25850000D02*
X152856250Y-25850000D01*
G75*
G02*
X153100000Y-26093750I0J-243750D01*
G01*
X153100000Y-26581250D01*
G75*
G02*
X152856250Y-26825000I-243750J0D01*
G01*
X151943750Y-26825000D01*
G75*
G02*
X151700000Y-26581250I0J243750D01*
G01*
X151700000Y-26093750D01*
G75*
G02*
X151943750Y-25850000I243750J0D01*
G01*
G37*
G36*
G01*
X151943750Y-23975000D02*
X152856250Y-23975000D01*
G75*
G02*
X153100000Y-24218750I0J-243750D01*
G01*
X153100000Y-24706250D01*
G75*
G02*
X152856250Y-24950000I-243750J0D01*
G01*
X151943750Y-24950000D01*
G75*
G02*
X151700000Y-24706250I0J243750D01*
G01*
X151700000Y-24218750D01*
G75*
G02*
X151943750Y-23975000I243750J0D01*
G01*
G37*
%TD*%
%TO.C,D6*%
G36*
G01*
X132893750Y-25850000D02*
X133806250Y-25850000D01*
G75*
G02*
X134050000Y-26093750I0J-243750D01*
G01*
X134050000Y-26581250D01*
G75*
G02*
X133806250Y-26825000I-243750J0D01*
G01*
X132893750Y-26825000D01*
G75*
G02*
X132650000Y-26581250I0J243750D01*
G01*
X132650000Y-26093750D01*
G75*
G02*
X132893750Y-25850000I243750J0D01*
G01*
G37*
G36*
G01*
X132893750Y-23975000D02*
X133806250Y-23975000D01*
G75*
G02*
X134050000Y-24218750I0J-243750D01*
G01*
X134050000Y-24706250D01*
G75*
G02*
X133806250Y-24950000I-243750J0D01*
G01*
X132893750Y-24950000D01*
G75*
G02*
X132650000Y-24706250I0J243750D01*
G01*
X132650000Y-24218750D01*
G75*
G02*
X132893750Y-23975000I243750J0D01*
G01*
G37*
%TD*%
%TO.C,D5*%
G36*
G01*
X113843750Y-25850000D02*
X114756250Y-25850000D01*
G75*
G02*
X115000000Y-26093750I0J-243750D01*
G01*
X115000000Y-26581250D01*
G75*
G02*
X114756250Y-26825000I-243750J0D01*
G01*
X113843750Y-26825000D01*
G75*
G02*
X113600000Y-26581250I0J243750D01*
G01*
X113600000Y-26093750D01*
G75*
G02*
X113843750Y-25850000I243750J0D01*
G01*
G37*
G36*
G01*
X113843750Y-23975000D02*
X114756250Y-23975000D01*
G75*
G02*
X115000000Y-24218750I0J-243750D01*
G01*
X115000000Y-24706250D01*
G75*
G02*
X114756250Y-24950000I-243750J0D01*
G01*
X113843750Y-24950000D01*
G75*
G02*
X113600000Y-24706250I0J243750D01*
G01*
X113600000Y-24218750D01*
G75*
G02*
X113843750Y-23975000I243750J0D01*
G01*
G37*
%TD*%
%TO.C,D4*%
G36*
G01*
X94793750Y-25850000D02*
X95706250Y-25850000D01*
G75*
G02*
X95950000Y-26093750I0J-243750D01*
G01*
X95950000Y-26581250D01*
G75*
G02*
X95706250Y-26825000I-243750J0D01*
G01*
X94793750Y-26825000D01*
G75*
G02*
X94550000Y-26581250I0J243750D01*
G01*
X94550000Y-26093750D01*
G75*
G02*
X94793750Y-25850000I243750J0D01*
G01*
G37*
G36*
G01*
X94793750Y-23975000D02*
X95706250Y-23975000D01*
G75*
G02*
X95950000Y-24218750I0J-243750D01*
G01*
X95950000Y-24706250D01*
G75*
G02*
X95706250Y-24950000I-243750J0D01*
G01*
X94793750Y-24950000D01*
G75*
G02*
X94550000Y-24706250I0J243750D01*
G01*
X94550000Y-24218750D01*
G75*
G02*
X94793750Y-23975000I243750J0D01*
G01*
G37*
%TD*%
%TO.C,D3*%
G36*
G01*
X75743750Y-23975000D02*
X76656250Y-23975000D01*
G75*
G02*
X76900000Y-24218750I0J-243750D01*
G01*
X76900000Y-24706250D01*
G75*
G02*
X76656250Y-24950000I-243750J0D01*
G01*
X75743750Y-24950000D01*
G75*
G02*
X75500000Y-24706250I0J243750D01*
G01*
X75500000Y-24218750D01*
G75*
G02*
X75743750Y-23975000I243750J0D01*
G01*
G37*
G36*
G01*
X75743750Y-25850000D02*
X76656250Y-25850000D01*
G75*
G02*
X76900000Y-26093750I0J-243750D01*
G01*
X76900000Y-26581250D01*
G75*
G02*
X76656250Y-26825000I-243750J0D01*
G01*
X75743750Y-26825000D01*
G75*
G02*
X75500000Y-26581250I0J243750D01*
G01*
X75500000Y-26093750D01*
G75*
G02*
X75743750Y-25850000I243750J0D01*
G01*
G37*
%TD*%
%TO.C,D2*%
G36*
G01*
X56693750Y-23975000D02*
X57606250Y-23975000D01*
G75*
G02*
X57850000Y-24218750I0J-243750D01*
G01*
X57850000Y-24706250D01*
G75*
G02*
X57606250Y-24950000I-243750J0D01*
G01*
X56693750Y-24950000D01*
G75*
G02*
X56450000Y-24706250I0J243750D01*
G01*
X56450000Y-24218750D01*
G75*
G02*
X56693750Y-23975000I243750J0D01*
G01*
G37*
G36*
G01*
X56693750Y-25850000D02*
X57606250Y-25850000D01*
G75*
G02*
X57850000Y-26093750I0J-243750D01*
G01*
X57850000Y-26581250D01*
G75*
G02*
X57606250Y-26825000I-243750J0D01*
G01*
X56693750Y-26825000D01*
G75*
G02*
X56450000Y-26581250I0J243750D01*
G01*
X56450000Y-26093750D01*
G75*
G02*
X56693750Y-25850000I243750J0D01*
G01*
G37*
%TD*%
%TO.C,D1*%
G36*
G01*
X32881250Y-23975000D02*
X33793750Y-23975000D01*
G75*
G02*
X34037500Y-24218750I0J-243750D01*
G01*
X34037500Y-24706250D01*
G75*
G02*
X33793750Y-24950000I-243750J0D01*
G01*
X32881250Y-24950000D01*
G75*
G02*
X32637500Y-24706250I0J243750D01*
G01*
X32637500Y-24218750D01*
G75*
G02*
X32881250Y-23975000I243750J0D01*
G01*
G37*
G36*
G01*
X32881250Y-25850000D02*
X33793750Y-25850000D01*
G75*
G02*
X34037500Y-26093750I0J-243750D01*
G01*
X34037500Y-26581250D01*
G75*
G02*
X33793750Y-26825000I-243750J0D01*
G01*
X32881250Y-26825000D01*
G75*
G02*
X32637500Y-26581250I0J243750D01*
G01*
X32637500Y-26093750D01*
G75*
G02*
X32881250Y-25850000I243750J0D01*
G01*
G37*
%TD*%
%TO.C,C11*%
G36*
G01*
X336964000Y-23950000D02*
X337914000Y-23950000D01*
G75*
G02*
X338164000Y-24200000I0J-250000D01*
G01*
X338164000Y-24700000D01*
G75*
G02*
X337914000Y-24950000I-250000J0D01*
G01*
X336964000Y-24950000D01*
G75*
G02*
X336714000Y-24700000I0J250000D01*
G01*
X336714000Y-24200000D01*
G75*
G02*
X336964000Y-23950000I250000J0D01*
G01*
G37*
G36*
G01*
X336964000Y-25850000D02*
X337914000Y-25850000D01*
G75*
G02*
X338164000Y-26100000I0J-250000D01*
G01*
X338164000Y-26600000D01*
G75*
G02*
X337914000Y-26850000I-250000J0D01*
G01*
X336964000Y-26850000D01*
G75*
G02*
X336714000Y-26600000I0J250000D01*
G01*
X336714000Y-26100000D01*
G75*
G02*
X336964000Y-25850000I250000J0D01*
G01*
G37*
%TD*%
M02*
