%TF.GenerationSoftware,KiCad,Pcbnew,(5.1.9)-1*%
%TF.CreationDate,2021-07-17T21:13:41-07:00*%
%TF.ProjectId,unsplit-keyboard,756e7370-6c69-4742-9d6b-6579626f6172,rev?*%
%TF.SameCoordinates,Original*%
%TF.FileFunction,Legend,Bot*%
%TF.FilePolarity,Positive*%
%FSLAX46Y46*%
G04 Gerber Fmt 4.6, Leading zero omitted, Abs format (unit mm)*
G04 Created by KiCad (PCBNEW (5.1.9)-1) date 2021-07-17 21:13:41*
%MOMM*%
%LPD*%
G01*
G04 APERTURE LIST*
%ADD10C,0.120000*%
%ADD11C,0.150000*%
%ADD12C,0.254000*%
%ADD13C,0.203200*%
%ADD14C,0.050000*%
G04 APERTURE END LIST*
D10*
%TO.C,R9*%
X340333000Y-25627064D02*
X340333000Y-25172936D01*
X338863000Y-25627064D02*
X338863000Y-25172936D01*
%TO.C,R8*%
X330354000Y-25172936D02*
X330354000Y-25627064D01*
X331824000Y-25172936D02*
X331824000Y-25627064D01*
D11*
%TO.C,SW1*%
X349945000Y-23682000D02*
X349945000Y-18482000D01*
X349945000Y-18482000D02*
X344745000Y-18482000D01*
X344745000Y-18482000D02*
X344745000Y-23682000D01*
X344745000Y-23682000D02*
X349945000Y-23682000D01*
X348345000Y-21082000D02*
G75*
G03*
X348345000Y-21082000I-1000000J0D01*
G01*
D10*
%TO.C,R1*%
X347460836Y-27239900D02*
X347914964Y-27239900D01*
X347460836Y-25769900D02*
X347914964Y-25769900D01*
%TO.C,X1*%
X350639650Y-35267650D02*
X347339650Y-35267650D01*
X347339650Y-35267650D02*
X347339650Y-31267650D01*
%TO.C,C7*%
X344920900Y-75087848D02*
X344920900Y-75610352D01*
X346390900Y-75087848D02*
X346390900Y-75610352D01*
%TO.C,C4*%
X337046900Y-75087848D02*
X337046900Y-75610352D01*
X338516900Y-75087848D02*
X338516900Y-75610352D01*
%TO.C,C6*%
X342507900Y-75087848D02*
X342507900Y-75610352D01*
X343977900Y-75087848D02*
X343977900Y-75610352D01*
%TO.C,C5*%
X339840900Y-75087848D02*
X339840900Y-75610352D01*
X341310900Y-75087848D02*
X341310900Y-75610352D01*
%TO.C,C2*%
X348639498Y-30738750D02*
X349162002Y-30738750D01*
X348639498Y-29268750D02*
X349162002Y-29268750D01*
%TO.C,C8*%
X334633900Y-75087848D02*
X334633900Y-75610352D01*
X336103900Y-75087848D02*
X336103900Y-75610352D01*
%TO.C,C1*%
X348705498Y-37215750D02*
X349228002Y-37215750D01*
X348705498Y-35745750D02*
X349228002Y-35745750D01*
D12*
%TO.C,U1*%
X334821940Y-31264090D02*
G75*
G03*
X334821940Y-31264090I-282700J0D01*
G01*
D13*
X343339240Y-30464090D02*
X333739240Y-30464090D01*
X343339240Y-40064090D02*
X343339240Y-30464090D01*
X333739240Y-40064090D02*
X343339240Y-40064090D01*
X333739240Y-30464090D02*
X333739240Y-40064090D01*
D10*
%TO.C,C3*%
X334370350Y-65480298D02*
X334370350Y-66002802D01*
X332900350Y-65480298D02*
X332900350Y-66002802D01*
%TO.C,C10*%
X342371350Y-64013048D02*
X342371350Y-64535552D01*
X340901350Y-64013048D02*
X340901350Y-64535552D01*
%TO.C,C9*%
X340901350Y-68288802D02*
X340901350Y-67766298D01*
X342371350Y-68288802D02*
X342371350Y-67766298D01*
%TO.C,R5*%
X339921100Y-67893986D02*
X339921100Y-68348114D01*
X338451100Y-67893986D02*
X338451100Y-68348114D01*
%TO.C,R6*%
X338488350Y-64444614D02*
X338488350Y-63990486D01*
X339958350Y-64444614D02*
X339958350Y-63990486D01*
%TO.C,R4*%
X336656350Y-65514486D02*
X336656350Y-65968614D01*
X335186350Y-65514486D02*
X335186350Y-65968614D01*
%TO.C,R7*%
X332123676Y-44254090D02*
X332577804Y-44254090D01*
X332123676Y-42784090D02*
X332577804Y-42784090D01*
%TO.C,R3*%
X334546270Y-25628334D02*
X334546270Y-25174206D01*
X336016270Y-25628334D02*
X336016270Y-25174206D01*
%TO.C,R2*%
X332481250Y-25628334D02*
X332481250Y-25174206D01*
X333951250Y-25628334D02*
X333951250Y-25174206D01*
D11*
%TO.C,OL1*%
X343789000Y-57023000D02*
X333629000Y-57023000D01*
X333629000Y-57023000D02*
X333629000Y-54483000D01*
X333629000Y-54483000D02*
X343789000Y-54483000D01*
X343789000Y-54483000D02*
X343789000Y-57023000D01*
D10*
%TO.C,D70*%
X318460000Y-61688000D02*
X318460000Y-64373000D01*
X316540000Y-61688000D02*
X318460000Y-61688000D01*
X316540000Y-64373000D02*
X316540000Y-61688000D01*
%TO.C,D69*%
X346702500Y-107362500D02*
X346702500Y-104677500D01*
X346702500Y-104677500D02*
X348622500Y-104677500D01*
X348622500Y-104677500D02*
X348622500Y-107362500D01*
%TO.C,D68*%
X327652500Y-107362500D02*
X327652500Y-104677500D01*
X327652500Y-104677500D02*
X329572500Y-104677500D01*
X329572500Y-104677500D02*
X329572500Y-107362500D01*
%TO.C,D67*%
X308602500Y-107362500D02*
X308602500Y-104677500D01*
X308602500Y-104677500D02*
X310522500Y-104677500D01*
X310522500Y-104677500D02*
X310522500Y-107362500D01*
%TO.C,D66*%
X284790000Y-102600000D02*
X284790000Y-99915000D01*
X284790000Y-99915000D02*
X286710000Y-99915000D01*
X286710000Y-99915000D02*
X286710000Y-102600000D01*
%TO.C,D65*%
X265740000Y-102600000D02*
X265740000Y-99915000D01*
X265740000Y-99915000D02*
X267660000Y-99915000D01*
X267660000Y-99915000D02*
X267660000Y-102600000D01*
%TO.C,D64*%
X246690000Y-102600000D02*
X246690000Y-99915000D01*
X246690000Y-99915000D02*
X248610000Y-99915000D01*
X248610000Y-99915000D02*
X248610000Y-102600000D01*
%TO.C,D63*%
X177633750Y-102600000D02*
X177633750Y-99915000D01*
X177633750Y-99915000D02*
X179553750Y-99915000D01*
X179553750Y-99915000D02*
X179553750Y-102600000D01*
%TO.C,D62*%
X108116250Y-99915000D02*
X108116250Y-102600000D01*
X106196250Y-99915000D02*
X108116250Y-99915000D01*
X106196250Y-102600000D02*
X106196250Y-99915000D01*
%TO.C,D61*%
X60491250Y-99915000D02*
X60491250Y-102600000D01*
X58571250Y-99915000D02*
X60491250Y-99915000D01*
X58571250Y-102600000D02*
X58571250Y-99915000D01*
%TO.C,D60*%
X34297500Y-99915000D02*
X34297500Y-102600000D01*
X32377500Y-99915000D02*
X34297500Y-99915000D01*
X32377500Y-102600000D02*
X32377500Y-99915000D01*
%TO.C,D59*%
X346702500Y-88312500D02*
X346702500Y-85627500D01*
X346702500Y-85627500D02*
X348622500Y-85627500D01*
X348622500Y-85627500D02*
X348622500Y-88312500D01*
%TO.C,D58*%
X327652500Y-88312500D02*
X327652500Y-85627500D01*
X327652500Y-85627500D02*
X329572500Y-85627500D01*
X329572500Y-85627500D02*
X329572500Y-88312500D01*
%TO.C,D57*%
X296696250Y-83550000D02*
X296696250Y-80865000D01*
X296696250Y-80865000D02*
X298616250Y-80865000D01*
X298616250Y-80865000D02*
X298616250Y-83550000D01*
%TO.C,D56*%
X270502500Y-83550000D02*
X270502500Y-80865000D01*
X270502500Y-80865000D02*
X272422500Y-80865000D01*
X272422500Y-80865000D02*
X272422500Y-83550000D01*
%TO.C,D55*%
X251452500Y-83550000D02*
X251452500Y-80865000D01*
X251452500Y-80865000D02*
X253372500Y-80865000D01*
X253372500Y-80865000D02*
X253372500Y-83550000D01*
%TO.C,D54*%
X232402500Y-83550000D02*
X232402500Y-80865000D01*
X232402500Y-80865000D02*
X234322500Y-80865000D01*
X234322500Y-80865000D02*
X234322500Y-83550000D01*
%TO.C,D53*%
X213352500Y-83550000D02*
X213352500Y-80865000D01*
X213352500Y-80865000D02*
X215272500Y-80865000D01*
X215272500Y-80865000D02*
X215272500Y-83550000D01*
%TO.C,D52*%
X194302500Y-83550000D02*
X194302500Y-80865000D01*
X194302500Y-80865000D02*
X196222500Y-80865000D01*
X196222500Y-80865000D02*
X196222500Y-83550000D01*
%TO.C,D51*%
X175252500Y-83550000D02*
X175252500Y-80865000D01*
X175252500Y-80865000D02*
X177172500Y-80865000D01*
X177172500Y-80865000D02*
X177172500Y-83550000D01*
%TO.C,D50*%
X156202500Y-83550000D02*
X156202500Y-80865000D01*
X156202500Y-80865000D02*
X158122500Y-80865000D01*
X158122500Y-80865000D02*
X158122500Y-83550000D01*
%TO.C,D49*%
X137152500Y-83550000D02*
X137152500Y-80865000D01*
X137152500Y-80865000D02*
X139072500Y-80865000D01*
X139072500Y-80865000D02*
X139072500Y-83550000D01*
%TO.C,D48*%
X118102500Y-83550000D02*
X118102500Y-80865000D01*
X118102500Y-80865000D02*
X120022500Y-80865000D01*
X120022500Y-80865000D02*
X120022500Y-83550000D01*
%TO.C,D47*%
X99052500Y-83550000D02*
X99052500Y-80865000D01*
X99052500Y-80865000D02*
X100972500Y-80865000D01*
X100972500Y-80865000D02*
X100972500Y-83550000D01*
%TO.C,D46*%
X68096250Y-83550000D02*
X68096250Y-80865000D01*
X68096250Y-80865000D02*
X70016250Y-80865000D01*
X70016250Y-80865000D02*
X70016250Y-83550000D01*
%TO.C,D45*%
X32377500Y-83550000D02*
X32377500Y-80865000D01*
X32377500Y-80865000D02*
X34297500Y-80865000D01*
X34297500Y-80865000D02*
X34297500Y-83550000D01*
%TO.C,D44*%
X310983750Y-64356250D02*
X310983750Y-61671250D01*
X310983750Y-61671250D02*
X312903750Y-61671250D01*
X312903750Y-61671250D02*
X312903750Y-64356250D01*
%TO.C,D43*%
X280027500Y-64500000D02*
X280027500Y-61815000D01*
X280027500Y-61815000D02*
X281947500Y-61815000D01*
X281947500Y-61815000D02*
X281947500Y-64500000D01*
%TO.C,D42*%
X260977500Y-64500000D02*
X260977500Y-61815000D01*
X260977500Y-61815000D02*
X262897500Y-61815000D01*
X262897500Y-61815000D02*
X262897500Y-64500000D01*
%TO.C,D41*%
X241927500Y-64500000D02*
X241927500Y-61815000D01*
X241927500Y-61815000D02*
X243847500Y-61815000D01*
X243847500Y-61815000D02*
X243847500Y-64500000D01*
%TO.C,D40*%
X222877500Y-64500000D02*
X222877500Y-61815000D01*
X222877500Y-61815000D02*
X224797500Y-61815000D01*
X224797500Y-61815000D02*
X224797500Y-64500000D01*
%TO.C,D39*%
X203827500Y-64500000D02*
X203827500Y-61815000D01*
X203827500Y-61815000D02*
X205747500Y-61815000D01*
X205747500Y-61815000D02*
X205747500Y-64500000D01*
%TO.C,D38*%
X184777500Y-64500000D02*
X184777500Y-61815000D01*
X184777500Y-61815000D02*
X186697500Y-61815000D01*
X186697500Y-61815000D02*
X186697500Y-64500000D01*
%TO.C,D37*%
X165727500Y-64500000D02*
X165727500Y-61815000D01*
X165727500Y-61815000D02*
X167647500Y-61815000D01*
X167647500Y-61815000D02*
X167647500Y-64500000D01*
%TO.C,D36*%
X146677500Y-64356250D02*
X146677500Y-61671250D01*
X146677500Y-61671250D02*
X148597500Y-61671250D01*
X148597500Y-61671250D02*
X148597500Y-64356250D01*
%TO.C,D35*%
X127627500Y-64500000D02*
X127627500Y-61815000D01*
X127627500Y-61815000D02*
X129547500Y-61815000D01*
X129547500Y-61815000D02*
X129547500Y-64500000D01*
%TO.C,D34*%
X108577500Y-64500000D02*
X108577500Y-61815000D01*
X108577500Y-61815000D02*
X110497500Y-61815000D01*
X110497500Y-61815000D02*
X110497500Y-64500000D01*
%TO.C,D33*%
X89527500Y-64500000D02*
X89527500Y-61815000D01*
X89527500Y-61815000D02*
X91447500Y-61815000D01*
X91447500Y-61815000D02*
X91447500Y-64500000D01*
%TO.C,D32*%
X63333750Y-64500000D02*
X63333750Y-61815000D01*
X63333750Y-61815000D02*
X65253750Y-61815000D01*
X65253750Y-61815000D02*
X65253750Y-64500000D01*
%TO.C,D31*%
X32377500Y-64500000D02*
X32377500Y-61815000D01*
X32377500Y-61815000D02*
X34297500Y-61815000D01*
X34297500Y-61815000D02*
X34297500Y-64500000D01*
%TO.C,D30*%
X318127500Y-45450000D02*
X318127500Y-42765000D01*
X318127500Y-42765000D02*
X320047500Y-42765000D01*
X320047500Y-42765000D02*
X320047500Y-45450000D01*
%TO.C,D29*%
X294315000Y-45450000D02*
X294315000Y-42765000D01*
X294315000Y-42765000D02*
X296235000Y-42765000D01*
X296235000Y-42765000D02*
X296235000Y-45450000D01*
%TO.C,D28*%
X275265000Y-45450000D02*
X275265000Y-42765000D01*
X275265000Y-42765000D02*
X277185000Y-42765000D01*
X277185000Y-42765000D02*
X277185000Y-45450000D01*
%TO.C,D27*%
X256215000Y-45450000D02*
X256215000Y-42765000D01*
X256215000Y-42765000D02*
X258135000Y-42765000D01*
X258135000Y-42765000D02*
X258135000Y-45450000D01*
%TO.C,D26*%
X237165000Y-45450000D02*
X237165000Y-42765000D01*
X237165000Y-42765000D02*
X239085000Y-42765000D01*
X239085000Y-42765000D02*
X239085000Y-45450000D01*
%TO.C,D25*%
X218115000Y-45450000D02*
X218115000Y-42765000D01*
X218115000Y-42765000D02*
X220035000Y-42765000D01*
X220035000Y-42765000D02*
X220035000Y-45450000D01*
%TO.C,D24*%
X199065000Y-45450000D02*
X199065000Y-42765000D01*
X199065000Y-42765000D02*
X200985000Y-42765000D01*
X200985000Y-42765000D02*
X200985000Y-45450000D01*
%TO.C,D23*%
X180015000Y-45450000D02*
X180015000Y-42765000D01*
X180015000Y-42765000D02*
X181935000Y-42765000D01*
X181935000Y-42765000D02*
X181935000Y-45450000D01*
%TO.C,D22*%
X160965000Y-45450000D02*
X160965000Y-42765000D01*
X160965000Y-42765000D02*
X162885000Y-42765000D01*
X162885000Y-42765000D02*
X162885000Y-45450000D01*
%TO.C,D21*%
X141915000Y-45450000D02*
X141915000Y-42765000D01*
X141915000Y-42765000D02*
X143835000Y-42765000D01*
X143835000Y-42765000D02*
X143835000Y-45450000D01*
%TO.C,D20*%
X122865000Y-45450000D02*
X122865000Y-42765000D01*
X122865000Y-42765000D02*
X124785000Y-42765000D01*
X124785000Y-42765000D02*
X124785000Y-45450000D01*
%TO.C,D19*%
X103815000Y-45450000D02*
X103815000Y-42765000D01*
X103815000Y-42765000D02*
X105735000Y-42765000D01*
X105735000Y-42765000D02*
X105735000Y-45450000D01*
%TO.C,D18*%
X84765000Y-45450000D02*
X84765000Y-42765000D01*
X84765000Y-42765000D02*
X86685000Y-42765000D01*
X86685000Y-42765000D02*
X86685000Y-45450000D01*
%TO.C,D17*%
X60952500Y-45450000D02*
X60952500Y-42765000D01*
X60952500Y-42765000D02*
X62872500Y-42765000D01*
X62872500Y-42765000D02*
X62872500Y-45450000D01*
%TO.C,D16*%
X32377500Y-45450000D02*
X32377500Y-42765000D01*
X32377500Y-42765000D02*
X34297500Y-42765000D01*
X34297500Y-42765000D02*
X34297500Y-45450000D01*
%TO.C,D15*%
X313365000Y-26400000D02*
X313365000Y-23715000D01*
X313365000Y-23715000D02*
X315285000Y-23715000D01*
X315285000Y-23715000D02*
X315285000Y-26400000D01*
%TO.C,D14*%
X284790000Y-26400000D02*
X284790000Y-23715000D01*
X284790000Y-23715000D02*
X286710000Y-23715000D01*
X286710000Y-23715000D02*
X286710000Y-26400000D01*
%TO.C,D13*%
X265740000Y-26400000D02*
X265740000Y-23715000D01*
X265740000Y-23715000D02*
X267660000Y-23715000D01*
X267660000Y-23715000D02*
X267660000Y-26400000D01*
%TO.C,D12*%
X246690000Y-26400000D02*
X246690000Y-23715000D01*
X246690000Y-23715000D02*
X248610000Y-23715000D01*
X248610000Y-23715000D02*
X248610000Y-26400000D01*
%TO.C,D11*%
X227640000Y-26400000D02*
X227640000Y-23715000D01*
X227640000Y-23715000D02*
X229560000Y-23715000D01*
X229560000Y-23715000D02*
X229560000Y-26400000D01*
%TO.C,D10*%
X208590000Y-26400000D02*
X208590000Y-23715000D01*
X208590000Y-23715000D02*
X210510000Y-23715000D01*
X210510000Y-23715000D02*
X210510000Y-26400000D01*
%TO.C,D9*%
X189540000Y-26400000D02*
X189540000Y-23715000D01*
X189540000Y-23715000D02*
X191460000Y-23715000D01*
X191460000Y-23715000D02*
X191460000Y-26400000D01*
%TO.C,D8*%
X170490000Y-26400000D02*
X170490000Y-23715000D01*
X170490000Y-23715000D02*
X172410000Y-23715000D01*
X172410000Y-23715000D02*
X172410000Y-26400000D01*
%TO.C,D7*%
X151440000Y-26400000D02*
X151440000Y-23715000D01*
X151440000Y-23715000D02*
X153360000Y-23715000D01*
X153360000Y-23715000D02*
X153360000Y-26400000D01*
%TO.C,D6*%
X132390000Y-26400000D02*
X132390000Y-23715000D01*
X132390000Y-23715000D02*
X134310000Y-23715000D01*
X134310000Y-23715000D02*
X134310000Y-26400000D01*
%TO.C,D5*%
X113340000Y-26400000D02*
X113340000Y-23715000D01*
X113340000Y-23715000D02*
X115260000Y-23715000D01*
X115260000Y-23715000D02*
X115260000Y-26400000D01*
%TO.C,D4*%
X94290000Y-26400000D02*
X94290000Y-23715000D01*
X94290000Y-23715000D02*
X96210000Y-23715000D01*
X96210000Y-23715000D02*
X96210000Y-26400000D01*
%TO.C,D3*%
X77160000Y-23715000D02*
X77160000Y-26400000D01*
X75240000Y-23715000D02*
X77160000Y-23715000D01*
X75240000Y-26400000D02*
X75240000Y-23715000D01*
%TO.C,D2*%
X58110000Y-23715000D02*
X58110000Y-26400000D01*
X56190000Y-23715000D02*
X58110000Y-23715000D01*
X56190000Y-26400000D02*
X56190000Y-23715000D01*
%TO.C,D1*%
X34297500Y-23715000D02*
X34297500Y-26400000D01*
X32377500Y-23715000D02*
X34297500Y-23715000D01*
X32377500Y-26400000D02*
X32377500Y-23715000D01*
%TO.C,C11*%
X338174000Y-25138748D02*
X338174000Y-25661252D01*
X336704000Y-25138748D02*
X336704000Y-25661252D01*
%TO.C,R9*%
D11*
X341700380Y-25233333D02*
X341224190Y-24900000D01*
X341700380Y-24661904D02*
X340700380Y-24661904D01*
X340700380Y-25042857D01*
X340748000Y-25138095D01*
X340795619Y-25185714D01*
X340890857Y-25233333D01*
X341033714Y-25233333D01*
X341128952Y-25185714D01*
X341176571Y-25138095D01*
X341224190Y-25042857D01*
X341224190Y-24661904D01*
X341700380Y-25709523D02*
X341700380Y-25900000D01*
X341652761Y-25995238D01*
X341605142Y-26042857D01*
X341462285Y-26138095D01*
X341271809Y-26185714D01*
X340890857Y-26185714D01*
X340795619Y-26138095D01*
X340748000Y-26090476D01*
X340700380Y-25995238D01*
X340700380Y-25804761D01*
X340748000Y-25709523D01*
X340795619Y-25661904D01*
X340890857Y-25614285D01*
X341128952Y-25614285D01*
X341224190Y-25661904D01*
X341271809Y-25709523D01*
X341319428Y-25804761D01*
X341319428Y-25995238D01*
X341271809Y-26090476D01*
X341224190Y-26138095D01*
X341128952Y-26185714D01*
%TO.C,R8*%
X329891380Y-25233333D02*
X329415190Y-24900000D01*
X329891380Y-24661904D02*
X328891380Y-24661904D01*
X328891380Y-25042857D01*
X328939000Y-25138095D01*
X328986619Y-25185714D01*
X329081857Y-25233333D01*
X329224714Y-25233333D01*
X329319952Y-25185714D01*
X329367571Y-25138095D01*
X329415190Y-25042857D01*
X329415190Y-24661904D01*
X329319952Y-25804761D02*
X329272333Y-25709523D01*
X329224714Y-25661904D01*
X329129476Y-25614285D01*
X329081857Y-25614285D01*
X328986619Y-25661904D01*
X328939000Y-25709523D01*
X328891380Y-25804761D01*
X328891380Y-25995238D01*
X328939000Y-26090476D01*
X328986619Y-26138095D01*
X329081857Y-26185714D01*
X329129476Y-26185714D01*
X329224714Y-26138095D01*
X329272333Y-26090476D01*
X329319952Y-25995238D01*
X329319952Y-25804761D01*
X329367571Y-25709523D01*
X329415190Y-25661904D01*
X329510428Y-25614285D01*
X329700904Y-25614285D01*
X329796142Y-25661904D01*
X329843761Y-25709523D01*
X329891380Y-25804761D01*
X329891380Y-25995238D01*
X329843761Y-26090476D01*
X329796142Y-26138095D01*
X329700904Y-26185714D01*
X329510428Y-26185714D01*
X329415190Y-26138095D01*
X329367571Y-26090476D01*
X329319952Y-25995238D01*
%TO.C,USB1*%
X338561686Y-13905436D02*
X338561686Y-14472103D01*
X338528353Y-14538770D01*
X338495020Y-14572103D01*
X338428353Y-14605436D01*
X338295020Y-14605436D01*
X338228353Y-14572103D01*
X338195020Y-14538770D01*
X338161686Y-14472103D01*
X338161686Y-13905436D01*
X337861686Y-14572103D02*
X337761686Y-14605436D01*
X337595020Y-14605436D01*
X337528353Y-14572103D01*
X337495020Y-14538770D01*
X337461686Y-14472103D01*
X337461686Y-14405436D01*
X337495020Y-14338770D01*
X337528353Y-14305436D01*
X337595020Y-14272103D01*
X337728353Y-14238770D01*
X337795020Y-14205436D01*
X337828353Y-14172103D01*
X337861686Y-14105436D01*
X337861686Y-14038770D01*
X337828353Y-13972103D01*
X337795020Y-13938770D01*
X337728353Y-13905436D01*
X337561686Y-13905436D01*
X337461686Y-13938770D01*
X336928353Y-14238770D02*
X336828353Y-14272103D01*
X336795020Y-14305436D01*
X336761686Y-14372103D01*
X336761686Y-14472103D01*
X336795020Y-14538770D01*
X336828353Y-14572103D01*
X336895020Y-14605436D01*
X337161686Y-14605436D01*
X337161686Y-13905436D01*
X336928353Y-13905436D01*
X336861686Y-13938770D01*
X336828353Y-13972103D01*
X336795020Y-14038770D01*
X336795020Y-14105436D01*
X336828353Y-14172103D01*
X336861686Y-14205436D01*
X336928353Y-14238770D01*
X337161686Y-14238770D01*
X336095020Y-14605436D02*
X336495020Y-14605436D01*
X336295020Y-14605436D02*
X336295020Y-13905436D01*
X336361686Y-14005436D01*
X336428353Y-14072103D01*
X336495020Y-14105436D01*
%TO.C,SW1*%
X343685761Y-19748666D02*
X343733380Y-19891523D01*
X343733380Y-20129619D01*
X343685761Y-20224857D01*
X343638142Y-20272476D01*
X343542904Y-20320095D01*
X343447666Y-20320095D01*
X343352428Y-20272476D01*
X343304809Y-20224857D01*
X343257190Y-20129619D01*
X343209571Y-19939142D01*
X343161952Y-19843904D01*
X343114333Y-19796285D01*
X343019095Y-19748666D01*
X342923857Y-19748666D01*
X342828619Y-19796285D01*
X342781000Y-19843904D01*
X342733380Y-19939142D01*
X342733380Y-20177238D01*
X342781000Y-20320095D01*
X342733380Y-20653428D02*
X343733380Y-20891523D01*
X343019095Y-21082000D01*
X343733380Y-21272476D01*
X342733380Y-21510571D01*
X343733380Y-22415333D02*
X343733380Y-21843904D01*
X343733380Y-22129619D02*
X342733380Y-22129619D01*
X342876238Y-22034380D01*
X342971476Y-21939142D01*
X343019095Y-21843904D01*
%TO.C,R1*%
X347854566Y-28607280D02*
X348187900Y-28131090D01*
X348425995Y-28607280D02*
X348425995Y-27607280D01*
X348045042Y-27607280D01*
X347949804Y-27654900D01*
X347902185Y-27702519D01*
X347854566Y-27797757D01*
X347854566Y-27940614D01*
X347902185Y-28035852D01*
X347949804Y-28083471D01*
X348045042Y-28131090D01*
X348425995Y-28131090D01*
X346902185Y-28607280D02*
X347473614Y-28607280D01*
X347187900Y-28607280D02*
X347187900Y-27607280D01*
X347283138Y-27750138D01*
X347378376Y-27845376D01*
X347473614Y-27892995D01*
%TO.C,X1*%
X351001554Y-32620030D02*
X351801554Y-33153364D01*
X351001554Y-33153364D02*
X351801554Y-32620030D01*
X351801554Y-33877173D02*
X351801554Y-33420030D01*
X351801554Y-33648602D02*
X351001554Y-33648602D01*
X351115840Y-33572411D01*
X351192030Y-33496221D01*
X351230126Y-33420030D01*
%TO.C,C7*%
X344333042Y-75182433D02*
X344380661Y-75134814D01*
X344428280Y-74991957D01*
X344428280Y-74896719D01*
X344380661Y-74753861D01*
X344285423Y-74658623D01*
X344190185Y-74611004D01*
X343999709Y-74563385D01*
X343856852Y-74563385D01*
X343666376Y-74611004D01*
X343571138Y-74658623D01*
X343475900Y-74753861D01*
X343428280Y-74896719D01*
X343428280Y-74991957D01*
X343475900Y-75134814D01*
X343523519Y-75182433D01*
X343428280Y-75515766D02*
X343428280Y-76182433D01*
X344428280Y-75753861D01*
%TO.C,C4*%
X336459042Y-75182433D02*
X336506661Y-75134814D01*
X336554280Y-74991957D01*
X336554280Y-74896719D01*
X336506661Y-74753861D01*
X336411423Y-74658623D01*
X336316185Y-74611004D01*
X336125709Y-74563385D01*
X335982852Y-74563385D01*
X335792376Y-74611004D01*
X335697138Y-74658623D01*
X335601900Y-74753861D01*
X335554280Y-74896719D01*
X335554280Y-74991957D01*
X335601900Y-75134814D01*
X335649519Y-75182433D01*
X335887614Y-76039576D02*
X336554280Y-76039576D01*
X335506661Y-75801480D02*
X336220947Y-75563385D01*
X336220947Y-76182433D01*
%TO.C,C6*%
X341920042Y-75182433D02*
X341967661Y-75134814D01*
X342015280Y-74991957D01*
X342015280Y-74896719D01*
X341967661Y-74753861D01*
X341872423Y-74658623D01*
X341777185Y-74611004D01*
X341586709Y-74563385D01*
X341443852Y-74563385D01*
X341253376Y-74611004D01*
X341158138Y-74658623D01*
X341062900Y-74753861D01*
X341015280Y-74896719D01*
X341015280Y-74991957D01*
X341062900Y-75134814D01*
X341110519Y-75182433D01*
X341015280Y-76039576D02*
X341015280Y-75849100D01*
X341062900Y-75753861D01*
X341110519Y-75706242D01*
X341253376Y-75611004D01*
X341443852Y-75563385D01*
X341824804Y-75563385D01*
X341920042Y-75611004D01*
X341967661Y-75658623D01*
X342015280Y-75753861D01*
X342015280Y-75944338D01*
X341967661Y-76039576D01*
X341920042Y-76087195D01*
X341824804Y-76134814D01*
X341586709Y-76134814D01*
X341491471Y-76087195D01*
X341443852Y-76039576D01*
X341396233Y-75944338D01*
X341396233Y-75753861D01*
X341443852Y-75658623D01*
X341491471Y-75611004D01*
X341586709Y-75563385D01*
%TO.C,C5*%
X339253042Y-75182433D02*
X339300661Y-75134814D01*
X339348280Y-74991957D01*
X339348280Y-74896719D01*
X339300661Y-74753861D01*
X339205423Y-74658623D01*
X339110185Y-74611004D01*
X338919709Y-74563385D01*
X338776852Y-74563385D01*
X338586376Y-74611004D01*
X338491138Y-74658623D01*
X338395900Y-74753861D01*
X338348280Y-74896719D01*
X338348280Y-74991957D01*
X338395900Y-75134814D01*
X338443519Y-75182433D01*
X338348280Y-76087195D02*
X338348280Y-75611004D01*
X338824471Y-75563385D01*
X338776852Y-75611004D01*
X338729233Y-75706242D01*
X338729233Y-75944338D01*
X338776852Y-76039576D01*
X338824471Y-76087195D01*
X338919709Y-76134814D01*
X339157804Y-76134814D01*
X339253042Y-76087195D01*
X339300661Y-76039576D01*
X339348280Y-75944338D01*
X339348280Y-75706242D01*
X339300661Y-75611004D01*
X339253042Y-75563385D01*
%TO.C,C2*%
X349067416Y-32040892D02*
X349115035Y-32088511D01*
X349257892Y-32136130D01*
X349353130Y-32136130D01*
X349495988Y-32088511D01*
X349591226Y-31993273D01*
X349638845Y-31898035D01*
X349686464Y-31707559D01*
X349686464Y-31564702D01*
X349638845Y-31374226D01*
X349591226Y-31278988D01*
X349495988Y-31183750D01*
X349353130Y-31136130D01*
X349257892Y-31136130D01*
X349115035Y-31183750D01*
X349067416Y-31231369D01*
X348686464Y-31231369D02*
X348638845Y-31183750D01*
X348543607Y-31136130D01*
X348305511Y-31136130D01*
X348210273Y-31183750D01*
X348162654Y-31231369D01*
X348115035Y-31326607D01*
X348115035Y-31421845D01*
X348162654Y-31564702D01*
X348734083Y-32136130D01*
X348115035Y-32136130D01*
%TO.C,C8*%
X334046042Y-75182433D02*
X334093661Y-75134814D01*
X334141280Y-74991957D01*
X334141280Y-74896719D01*
X334093661Y-74753861D01*
X333998423Y-74658623D01*
X333903185Y-74611004D01*
X333712709Y-74563385D01*
X333569852Y-74563385D01*
X333379376Y-74611004D01*
X333284138Y-74658623D01*
X333188900Y-74753861D01*
X333141280Y-74896719D01*
X333141280Y-74991957D01*
X333188900Y-75134814D01*
X333236519Y-75182433D01*
X333569852Y-75753861D02*
X333522233Y-75658623D01*
X333474614Y-75611004D01*
X333379376Y-75563385D01*
X333331757Y-75563385D01*
X333236519Y-75611004D01*
X333188900Y-75658623D01*
X333141280Y-75753861D01*
X333141280Y-75944338D01*
X333188900Y-76039576D01*
X333236519Y-76087195D01*
X333331757Y-76134814D01*
X333379376Y-76134814D01*
X333474614Y-76087195D01*
X333522233Y-76039576D01*
X333569852Y-75944338D01*
X333569852Y-75753861D01*
X333617471Y-75658623D01*
X333665090Y-75611004D01*
X333760328Y-75563385D01*
X333950804Y-75563385D01*
X334046042Y-75611004D01*
X334093661Y-75658623D01*
X334141280Y-75753861D01*
X334141280Y-75944338D01*
X334093661Y-76039576D01*
X334046042Y-76087195D01*
X333950804Y-76134814D01*
X333760328Y-76134814D01*
X333665090Y-76087195D01*
X333617471Y-76039576D01*
X333569852Y-75944338D01*
%TO.C,C1*%
X349133416Y-38517892D02*
X349181035Y-38565511D01*
X349323892Y-38613130D01*
X349419130Y-38613130D01*
X349561988Y-38565511D01*
X349657226Y-38470273D01*
X349704845Y-38375035D01*
X349752464Y-38184559D01*
X349752464Y-38041702D01*
X349704845Y-37851226D01*
X349657226Y-37755988D01*
X349561988Y-37660750D01*
X349419130Y-37613130D01*
X349323892Y-37613130D01*
X349181035Y-37660750D01*
X349133416Y-37708369D01*
X348181035Y-38613130D02*
X348752464Y-38613130D01*
X348466750Y-38613130D02*
X348466750Y-37613130D01*
X348561988Y-37755988D01*
X348657226Y-37851226D01*
X348752464Y-37898845D01*
%TO.C,U1*%
D14*
X329758573Y-30723423D02*
X330891906Y-30723423D01*
X331025240Y-30790090D01*
X331091906Y-30856756D01*
X331158573Y-30990090D01*
X331158573Y-31256756D01*
X331091906Y-31390090D01*
X331025240Y-31456756D01*
X330891906Y-31523423D01*
X329758573Y-31523423D01*
X331158573Y-32923423D02*
X331158573Y-32123423D01*
X331158573Y-32523423D02*
X329758573Y-32523423D01*
X329958573Y-32390090D01*
X330091906Y-32256756D01*
X330158573Y-32123423D01*
X346898673Y-24114090D02*
X346898673Y-24780756D01*
X347298673Y-23980756D02*
X345898673Y-24447423D01*
X347298673Y-24914090D01*
X345898673Y-25180756D02*
X345898673Y-25980756D01*
X347298673Y-25580756D02*
X345898673Y-25580756D01*
X347298673Y-26447423D02*
X346365340Y-26447423D01*
X346498673Y-26447423D02*
X346432006Y-26514090D01*
X346365340Y-26647423D01*
X346365340Y-26847423D01*
X346432006Y-26980756D01*
X346565340Y-27047423D01*
X347298673Y-27047423D01*
X346565340Y-27047423D02*
X346432006Y-27114090D01*
X346365340Y-27247423D01*
X346365340Y-27447423D01*
X346432006Y-27580756D01*
X346565340Y-27647423D01*
X347298673Y-27647423D01*
X347232006Y-28847423D02*
X347298673Y-28714090D01*
X347298673Y-28447423D01*
X347232006Y-28314090D01*
X347098673Y-28247423D01*
X346565340Y-28247423D01*
X346432006Y-28314090D01*
X346365340Y-28447423D01*
X346365340Y-28714090D01*
X346432006Y-28847423D01*
X346565340Y-28914090D01*
X346698673Y-28914090D01*
X346832006Y-28247423D01*
X346365340Y-30114090D02*
X347498673Y-30114090D01*
X347632006Y-30047423D01*
X347698673Y-29980756D01*
X347765340Y-29847423D01*
X347765340Y-29647423D01*
X347698673Y-29514090D01*
X347232006Y-30114090D02*
X347298673Y-29980756D01*
X347298673Y-29714090D01*
X347232006Y-29580756D01*
X347165340Y-29514090D01*
X347032006Y-29447423D01*
X346632006Y-29447423D01*
X346498673Y-29514090D01*
X346432006Y-29580756D01*
X346365340Y-29714090D01*
X346365340Y-29980756D01*
X346432006Y-30114090D01*
X347298673Y-31380756D02*
X346565340Y-31380756D01*
X346432006Y-31314090D01*
X346365340Y-31180756D01*
X346365340Y-30914090D01*
X346432006Y-30780756D01*
X347232006Y-31380756D02*
X347298673Y-31247423D01*
X347298673Y-30914090D01*
X347232006Y-30780756D01*
X347098673Y-30714090D01*
X346965340Y-30714090D01*
X346832006Y-30780756D01*
X346765340Y-30914090D01*
X346765340Y-31247423D01*
X346698673Y-31380756D01*
X345898673Y-31914090D02*
X345898673Y-32780756D01*
X346432006Y-32314090D01*
X346432006Y-32514090D01*
X346498673Y-32647423D01*
X346565340Y-32714090D01*
X346698673Y-32780756D01*
X347032006Y-32780756D01*
X347165340Y-32714090D01*
X347232006Y-32647423D01*
X347298673Y-32514090D01*
X347298673Y-32114090D01*
X347232006Y-31980756D01*
X347165340Y-31914090D01*
X346032006Y-33314090D02*
X345965340Y-33380756D01*
X345898673Y-33514090D01*
X345898673Y-33847423D01*
X345965340Y-33980756D01*
X346032006Y-34047423D01*
X346165340Y-34114090D01*
X346298673Y-34114090D01*
X346498673Y-34047423D01*
X347298673Y-33247423D01*
X347298673Y-34114090D01*
X345898673Y-34714090D02*
X347032006Y-34714090D01*
X347165340Y-34780756D01*
X347232006Y-34847423D01*
X347298673Y-34980756D01*
X347298673Y-35247423D01*
X347232006Y-35380756D01*
X347165340Y-35447423D01*
X347032006Y-35514090D01*
X345898673Y-35514090D01*
X346365340Y-36780756D02*
X347298673Y-36780756D01*
X345832006Y-36447423D02*
X346832006Y-36114090D01*
X346832006Y-36980756D01*
X346765340Y-37514090D02*
X346765340Y-38580756D01*
X346898673Y-39180756D02*
X346898673Y-39847423D01*
X347298673Y-39047423D02*
X345898673Y-39514090D01*
X347298673Y-39980756D01*
X345898673Y-40447423D02*
X347032006Y-40447423D01*
X347165340Y-40514090D01*
X347232006Y-40580756D01*
X347298673Y-40714090D01*
X347298673Y-40980756D01*
X347232006Y-41114090D01*
X347165340Y-41180756D01*
X347032006Y-41247423D01*
X345898673Y-41247423D01*
%TO.C,C3*%
D11*
X332312492Y-65574883D02*
X332360111Y-65527264D01*
X332407730Y-65384407D01*
X332407730Y-65289169D01*
X332360111Y-65146311D01*
X332264873Y-65051073D01*
X332169635Y-65003454D01*
X331979159Y-64955835D01*
X331836302Y-64955835D01*
X331645826Y-65003454D01*
X331550588Y-65051073D01*
X331455350Y-65146311D01*
X331407730Y-65289169D01*
X331407730Y-65384407D01*
X331455350Y-65527264D01*
X331502969Y-65574883D01*
X331407730Y-65908216D02*
X331407730Y-66527264D01*
X331788683Y-66193930D01*
X331788683Y-66336788D01*
X331836302Y-66432026D01*
X331883921Y-66479645D01*
X331979159Y-66527264D01*
X332217254Y-66527264D01*
X332312492Y-66479645D01*
X332360111Y-66432026D01*
X332407730Y-66336788D01*
X332407730Y-66051073D01*
X332360111Y-65955835D01*
X332312492Y-65908216D01*
%TO.C,C10*%
X340313492Y-63631442D02*
X340361111Y-63583823D01*
X340408730Y-63440966D01*
X340408730Y-63345728D01*
X340361111Y-63202871D01*
X340265873Y-63107633D01*
X340170635Y-63060014D01*
X339980159Y-63012395D01*
X339837302Y-63012395D01*
X339646826Y-63060014D01*
X339551588Y-63107633D01*
X339456350Y-63202871D01*
X339408730Y-63345728D01*
X339408730Y-63440966D01*
X339456350Y-63583823D01*
X339503969Y-63631442D01*
X340408730Y-64583823D02*
X340408730Y-64012395D01*
X340408730Y-64298109D02*
X339408730Y-64298109D01*
X339551588Y-64202871D01*
X339646826Y-64107633D01*
X339694445Y-64012395D01*
X339408730Y-65202871D02*
X339408730Y-65298109D01*
X339456350Y-65393347D01*
X339503969Y-65440966D01*
X339599207Y-65488585D01*
X339789683Y-65536204D01*
X340027778Y-65536204D01*
X340218254Y-65488585D01*
X340313492Y-65440966D01*
X340361111Y-65393347D01*
X340408730Y-65298109D01*
X340408730Y-65202871D01*
X340361111Y-65107633D01*
X340313492Y-65060014D01*
X340218254Y-65012395D01*
X340027778Y-64964776D01*
X339789683Y-64964776D01*
X339599207Y-65012395D01*
X339503969Y-65060014D01*
X339456350Y-65107633D01*
X339408730Y-65202871D01*
%TO.C,C9*%
X343673492Y-67860883D02*
X343721111Y-67813264D01*
X343768730Y-67670407D01*
X343768730Y-67575169D01*
X343721111Y-67432311D01*
X343625873Y-67337073D01*
X343530635Y-67289454D01*
X343340159Y-67241835D01*
X343197302Y-67241835D01*
X343006826Y-67289454D01*
X342911588Y-67337073D01*
X342816350Y-67432311D01*
X342768730Y-67575169D01*
X342768730Y-67670407D01*
X342816350Y-67813264D01*
X342863969Y-67860883D01*
X343768730Y-68337073D02*
X343768730Y-68527550D01*
X343721111Y-68622788D01*
X343673492Y-68670407D01*
X343530635Y-68765645D01*
X343340159Y-68813264D01*
X342959207Y-68813264D01*
X342863969Y-68765645D01*
X342816350Y-68718026D01*
X342768730Y-68622788D01*
X342768730Y-68432311D01*
X342816350Y-68337073D01*
X342863969Y-68289454D01*
X342959207Y-68241835D01*
X343197302Y-68241835D01*
X343292540Y-68289454D01*
X343340159Y-68337073D01*
X343387778Y-68432311D01*
X343387778Y-68622788D01*
X343340159Y-68718026D01*
X343292540Y-68765645D01*
X343197302Y-68813264D01*
%TO.C,R5*%
X337988480Y-67954383D02*
X337512290Y-67621050D01*
X337988480Y-67382954D02*
X336988480Y-67382954D01*
X336988480Y-67763907D01*
X337036100Y-67859145D01*
X337083719Y-67906764D01*
X337178957Y-67954383D01*
X337321814Y-67954383D01*
X337417052Y-67906764D01*
X337464671Y-67859145D01*
X337512290Y-67763907D01*
X337512290Y-67382954D01*
X336988480Y-68859145D02*
X336988480Y-68382954D01*
X337464671Y-68335335D01*
X337417052Y-68382954D01*
X337369433Y-68478192D01*
X337369433Y-68716288D01*
X337417052Y-68811526D01*
X337464671Y-68859145D01*
X337559909Y-68906764D01*
X337798004Y-68906764D01*
X337893242Y-68859145D01*
X337940861Y-68811526D01*
X337988480Y-68716288D01*
X337988480Y-68478192D01*
X337940861Y-68382954D01*
X337893242Y-68335335D01*
%TO.C,R6*%
X341325730Y-64050883D02*
X340849540Y-63717550D01*
X341325730Y-63479454D02*
X340325730Y-63479454D01*
X340325730Y-63860407D01*
X340373350Y-63955645D01*
X340420969Y-64003264D01*
X340516207Y-64050883D01*
X340659064Y-64050883D01*
X340754302Y-64003264D01*
X340801921Y-63955645D01*
X340849540Y-63860407D01*
X340849540Y-63479454D01*
X340325730Y-64908026D02*
X340325730Y-64717550D01*
X340373350Y-64622311D01*
X340420969Y-64574692D01*
X340563826Y-64479454D01*
X340754302Y-64431835D01*
X341135254Y-64431835D01*
X341230492Y-64479454D01*
X341278111Y-64527073D01*
X341325730Y-64622311D01*
X341325730Y-64812788D01*
X341278111Y-64908026D01*
X341230492Y-64955645D01*
X341135254Y-65003264D01*
X340897159Y-65003264D01*
X340801921Y-64955645D01*
X340754302Y-64908026D01*
X340706683Y-64812788D01*
X340706683Y-64622311D01*
X340754302Y-64527073D01*
X340801921Y-64479454D01*
X340897159Y-64431835D01*
%TO.C,R4*%
X334723730Y-65574883D02*
X334247540Y-65241550D01*
X334723730Y-65003454D02*
X333723730Y-65003454D01*
X333723730Y-65384407D01*
X333771350Y-65479645D01*
X333818969Y-65527264D01*
X333914207Y-65574883D01*
X334057064Y-65574883D01*
X334152302Y-65527264D01*
X334199921Y-65479645D01*
X334247540Y-65384407D01*
X334247540Y-65003454D01*
X334057064Y-66432026D02*
X334723730Y-66432026D01*
X333676111Y-66193930D02*
X334390397Y-65955835D01*
X334390397Y-66574883D01*
%TO.C,R7*%
X332517406Y-45621470D02*
X332850740Y-45145280D01*
X333088835Y-45621470D02*
X333088835Y-44621470D01*
X332707882Y-44621470D01*
X332612644Y-44669090D01*
X332565025Y-44716709D01*
X332517406Y-44811947D01*
X332517406Y-44954804D01*
X332565025Y-45050042D01*
X332612644Y-45097661D01*
X332707882Y-45145280D01*
X333088835Y-45145280D01*
X332184073Y-44621470D02*
X331517406Y-44621470D01*
X331945978Y-45621470D01*
%TO.C,R3*%
X337383650Y-25234603D02*
X336907460Y-24901270D01*
X337383650Y-24663174D02*
X336383650Y-24663174D01*
X336383650Y-25044127D01*
X336431270Y-25139365D01*
X336478889Y-25186984D01*
X336574127Y-25234603D01*
X336716984Y-25234603D01*
X336812222Y-25186984D01*
X336859841Y-25139365D01*
X336907460Y-25044127D01*
X336907460Y-24663174D01*
X336383650Y-25567936D02*
X336383650Y-26186984D01*
X336764603Y-25853650D01*
X336764603Y-25996508D01*
X336812222Y-26091746D01*
X336859841Y-26139365D01*
X336955079Y-26186984D01*
X337193174Y-26186984D01*
X337288412Y-26139365D01*
X337336031Y-26091746D01*
X337383650Y-25996508D01*
X337383650Y-25710793D01*
X337336031Y-25615555D01*
X337288412Y-25567936D01*
%TO.C,R2*%
X335318630Y-25234603D02*
X334842440Y-24901270D01*
X335318630Y-24663174D02*
X334318630Y-24663174D01*
X334318630Y-25044127D01*
X334366250Y-25139365D01*
X334413869Y-25186984D01*
X334509107Y-25234603D01*
X334651964Y-25234603D01*
X334747202Y-25186984D01*
X334794821Y-25139365D01*
X334842440Y-25044127D01*
X334842440Y-24663174D01*
X334413869Y-25615555D02*
X334366250Y-25663174D01*
X334318630Y-25758412D01*
X334318630Y-25996508D01*
X334366250Y-26091746D01*
X334413869Y-26139365D01*
X334509107Y-26186984D01*
X334604345Y-26186984D01*
X334747202Y-26139365D01*
X335318630Y-25567936D01*
X335318630Y-26186984D01*
%TO.C,OL1*%
X340221380Y-57305380D02*
X340030904Y-57305380D01*
X339935666Y-57353000D01*
X339840428Y-57448238D01*
X339792809Y-57638714D01*
X339792809Y-57972047D01*
X339840428Y-58162523D01*
X339935666Y-58257761D01*
X340030904Y-58305380D01*
X340221380Y-58305380D01*
X340316619Y-58257761D01*
X340411857Y-58162523D01*
X340459476Y-57972047D01*
X340459476Y-57638714D01*
X340411857Y-57448238D01*
X340316619Y-57353000D01*
X340221380Y-57305380D01*
X338888047Y-58305380D02*
X339364238Y-58305380D01*
X339364238Y-57305380D01*
X338554714Y-57781571D02*
X338221380Y-57781571D01*
X338078523Y-58305380D02*
X338554714Y-58305380D01*
X338554714Y-57305380D01*
X338078523Y-57305380D01*
X337649952Y-58305380D02*
X337649952Y-57305380D01*
X337411857Y-57305380D01*
X337269000Y-57353000D01*
X337173761Y-57448238D01*
X337126142Y-57543476D01*
X337078523Y-57733952D01*
X337078523Y-57876809D01*
X337126142Y-58067285D01*
X337173761Y-58162523D01*
X337269000Y-58257761D01*
X337411857Y-58305380D01*
X337649952Y-58305380D01*
%TO.C,D70*%
X316302380Y-62158714D02*
X315302380Y-62158714D01*
X315302380Y-62396809D01*
X315350000Y-62539666D01*
X315445238Y-62634904D01*
X315540476Y-62682523D01*
X315730952Y-62730142D01*
X315873809Y-62730142D01*
X316064285Y-62682523D01*
X316159523Y-62634904D01*
X316254761Y-62539666D01*
X316302380Y-62396809D01*
X316302380Y-62158714D01*
X315302380Y-63063476D02*
X315302380Y-63730142D01*
X316302380Y-63301571D01*
X315302380Y-64301571D02*
X315302380Y-64396809D01*
X315350000Y-64492047D01*
X315397619Y-64539666D01*
X315492857Y-64587285D01*
X315683333Y-64634904D01*
X315921428Y-64634904D01*
X316111904Y-64587285D01*
X316207142Y-64539666D01*
X316254761Y-64492047D01*
X316302380Y-64396809D01*
X316302380Y-64301571D01*
X316254761Y-64206333D01*
X316207142Y-64158714D01*
X316111904Y-64111095D01*
X315921428Y-64063476D01*
X315683333Y-64063476D01*
X315492857Y-64111095D01*
X315397619Y-64158714D01*
X315350000Y-64206333D01*
X315302380Y-64301571D01*
%TO.C,D69*%
X346464880Y-105148214D02*
X345464880Y-105148214D01*
X345464880Y-105386309D01*
X345512500Y-105529166D01*
X345607738Y-105624404D01*
X345702976Y-105672023D01*
X345893452Y-105719642D01*
X346036309Y-105719642D01*
X346226785Y-105672023D01*
X346322023Y-105624404D01*
X346417261Y-105529166D01*
X346464880Y-105386309D01*
X346464880Y-105148214D01*
X345464880Y-106576785D02*
X345464880Y-106386309D01*
X345512500Y-106291071D01*
X345560119Y-106243452D01*
X345702976Y-106148214D01*
X345893452Y-106100595D01*
X346274404Y-106100595D01*
X346369642Y-106148214D01*
X346417261Y-106195833D01*
X346464880Y-106291071D01*
X346464880Y-106481547D01*
X346417261Y-106576785D01*
X346369642Y-106624404D01*
X346274404Y-106672023D01*
X346036309Y-106672023D01*
X345941071Y-106624404D01*
X345893452Y-106576785D01*
X345845833Y-106481547D01*
X345845833Y-106291071D01*
X345893452Y-106195833D01*
X345941071Y-106148214D01*
X346036309Y-106100595D01*
X346464880Y-107148214D02*
X346464880Y-107338690D01*
X346417261Y-107433928D01*
X346369642Y-107481547D01*
X346226785Y-107576785D01*
X346036309Y-107624404D01*
X345655357Y-107624404D01*
X345560119Y-107576785D01*
X345512500Y-107529166D01*
X345464880Y-107433928D01*
X345464880Y-107243452D01*
X345512500Y-107148214D01*
X345560119Y-107100595D01*
X345655357Y-107052976D01*
X345893452Y-107052976D01*
X345988690Y-107100595D01*
X346036309Y-107148214D01*
X346083928Y-107243452D01*
X346083928Y-107433928D01*
X346036309Y-107529166D01*
X345988690Y-107576785D01*
X345893452Y-107624404D01*
%TO.C,D68*%
X327414880Y-105148214D02*
X326414880Y-105148214D01*
X326414880Y-105386309D01*
X326462500Y-105529166D01*
X326557738Y-105624404D01*
X326652976Y-105672023D01*
X326843452Y-105719642D01*
X326986309Y-105719642D01*
X327176785Y-105672023D01*
X327272023Y-105624404D01*
X327367261Y-105529166D01*
X327414880Y-105386309D01*
X327414880Y-105148214D01*
X326414880Y-106576785D02*
X326414880Y-106386309D01*
X326462500Y-106291071D01*
X326510119Y-106243452D01*
X326652976Y-106148214D01*
X326843452Y-106100595D01*
X327224404Y-106100595D01*
X327319642Y-106148214D01*
X327367261Y-106195833D01*
X327414880Y-106291071D01*
X327414880Y-106481547D01*
X327367261Y-106576785D01*
X327319642Y-106624404D01*
X327224404Y-106672023D01*
X326986309Y-106672023D01*
X326891071Y-106624404D01*
X326843452Y-106576785D01*
X326795833Y-106481547D01*
X326795833Y-106291071D01*
X326843452Y-106195833D01*
X326891071Y-106148214D01*
X326986309Y-106100595D01*
X326843452Y-107243452D02*
X326795833Y-107148214D01*
X326748214Y-107100595D01*
X326652976Y-107052976D01*
X326605357Y-107052976D01*
X326510119Y-107100595D01*
X326462500Y-107148214D01*
X326414880Y-107243452D01*
X326414880Y-107433928D01*
X326462500Y-107529166D01*
X326510119Y-107576785D01*
X326605357Y-107624404D01*
X326652976Y-107624404D01*
X326748214Y-107576785D01*
X326795833Y-107529166D01*
X326843452Y-107433928D01*
X326843452Y-107243452D01*
X326891071Y-107148214D01*
X326938690Y-107100595D01*
X327033928Y-107052976D01*
X327224404Y-107052976D01*
X327319642Y-107100595D01*
X327367261Y-107148214D01*
X327414880Y-107243452D01*
X327414880Y-107433928D01*
X327367261Y-107529166D01*
X327319642Y-107576785D01*
X327224404Y-107624404D01*
X327033928Y-107624404D01*
X326938690Y-107576785D01*
X326891071Y-107529166D01*
X326843452Y-107433928D01*
%TO.C,D67*%
X308364880Y-105148214D02*
X307364880Y-105148214D01*
X307364880Y-105386309D01*
X307412500Y-105529166D01*
X307507738Y-105624404D01*
X307602976Y-105672023D01*
X307793452Y-105719642D01*
X307936309Y-105719642D01*
X308126785Y-105672023D01*
X308222023Y-105624404D01*
X308317261Y-105529166D01*
X308364880Y-105386309D01*
X308364880Y-105148214D01*
X307364880Y-106576785D02*
X307364880Y-106386309D01*
X307412500Y-106291071D01*
X307460119Y-106243452D01*
X307602976Y-106148214D01*
X307793452Y-106100595D01*
X308174404Y-106100595D01*
X308269642Y-106148214D01*
X308317261Y-106195833D01*
X308364880Y-106291071D01*
X308364880Y-106481547D01*
X308317261Y-106576785D01*
X308269642Y-106624404D01*
X308174404Y-106672023D01*
X307936309Y-106672023D01*
X307841071Y-106624404D01*
X307793452Y-106576785D01*
X307745833Y-106481547D01*
X307745833Y-106291071D01*
X307793452Y-106195833D01*
X307841071Y-106148214D01*
X307936309Y-106100595D01*
X307364880Y-107005357D02*
X307364880Y-107672023D01*
X308364880Y-107243452D01*
%TO.C,D66*%
X284552380Y-100385714D02*
X283552380Y-100385714D01*
X283552380Y-100623809D01*
X283600000Y-100766666D01*
X283695238Y-100861904D01*
X283790476Y-100909523D01*
X283980952Y-100957142D01*
X284123809Y-100957142D01*
X284314285Y-100909523D01*
X284409523Y-100861904D01*
X284504761Y-100766666D01*
X284552380Y-100623809D01*
X284552380Y-100385714D01*
X283552380Y-101814285D02*
X283552380Y-101623809D01*
X283600000Y-101528571D01*
X283647619Y-101480952D01*
X283790476Y-101385714D01*
X283980952Y-101338095D01*
X284361904Y-101338095D01*
X284457142Y-101385714D01*
X284504761Y-101433333D01*
X284552380Y-101528571D01*
X284552380Y-101719047D01*
X284504761Y-101814285D01*
X284457142Y-101861904D01*
X284361904Y-101909523D01*
X284123809Y-101909523D01*
X284028571Y-101861904D01*
X283980952Y-101814285D01*
X283933333Y-101719047D01*
X283933333Y-101528571D01*
X283980952Y-101433333D01*
X284028571Y-101385714D01*
X284123809Y-101338095D01*
X283552380Y-102766666D02*
X283552380Y-102576190D01*
X283600000Y-102480952D01*
X283647619Y-102433333D01*
X283790476Y-102338095D01*
X283980952Y-102290476D01*
X284361904Y-102290476D01*
X284457142Y-102338095D01*
X284504761Y-102385714D01*
X284552380Y-102480952D01*
X284552380Y-102671428D01*
X284504761Y-102766666D01*
X284457142Y-102814285D01*
X284361904Y-102861904D01*
X284123809Y-102861904D01*
X284028571Y-102814285D01*
X283980952Y-102766666D01*
X283933333Y-102671428D01*
X283933333Y-102480952D01*
X283980952Y-102385714D01*
X284028571Y-102338095D01*
X284123809Y-102290476D01*
%TO.C,D65*%
X265502380Y-100385714D02*
X264502380Y-100385714D01*
X264502380Y-100623809D01*
X264550000Y-100766666D01*
X264645238Y-100861904D01*
X264740476Y-100909523D01*
X264930952Y-100957142D01*
X265073809Y-100957142D01*
X265264285Y-100909523D01*
X265359523Y-100861904D01*
X265454761Y-100766666D01*
X265502380Y-100623809D01*
X265502380Y-100385714D01*
X264502380Y-101814285D02*
X264502380Y-101623809D01*
X264550000Y-101528571D01*
X264597619Y-101480952D01*
X264740476Y-101385714D01*
X264930952Y-101338095D01*
X265311904Y-101338095D01*
X265407142Y-101385714D01*
X265454761Y-101433333D01*
X265502380Y-101528571D01*
X265502380Y-101719047D01*
X265454761Y-101814285D01*
X265407142Y-101861904D01*
X265311904Y-101909523D01*
X265073809Y-101909523D01*
X264978571Y-101861904D01*
X264930952Y-101814285D01*
X264883333Y-101719047D01*
X264883333Y-101528571D01*
X264930952Y-101433333D01*
X264978571Y-101385714D01*
X265073809Y-101338095D01*
X264502380Y-102814285D02*
X264502380Y-102338095D01*
X264978571Y-102290476D01*
X264930952Y-102338095D01*
X264883333Y-102433333D01*
X264883333Y-102671428D01*
X264930952Y-102766666D01*
X264978571Y-102814285D01*
X265073809Y-102861904D01*
X265311904Y-102861904D01*
X265407142Y-102814285D01*
X265454761Y-102766666D01*
X265502380Y-102671428D01*
X265502380Y-102433333D01*
X265454761Y-102338095D01*
X265407142Y-102290476D01*
%TO.C,D64*%
X246452380Y-100385714D02*
X245452380Y-100385714D01*
X245452380Y-100623809D01*
X245500000Y-100766666D01*
X245595238Y-100861904D01*
X245690476Y-100909523D01*
X245880952Y-100957142D01*
X246023809Y-100957142D01*
X246214285Y-100909523D01*
X246309523Y-100861904D01*
X246404761Y-100766666D01*
X246452380Y-100623809D01*
X246452380Y-100385714D01*
X245452380Y-101814285D02*
X245452380Y-101623809D01*
X245500000Y-101528571D01*
X245547619Y-101480952D01*
X245690476Y-101385714D01*
X245880952Y-101338095D01*
X246261904Y-101338095D01*
X246357142Y-101385714D01*
X246404761Y-101433333D01*
X246452380Y-101528571D01*
X246452380Y-101719047D01*
X246404761Y-101814285D01*
X246357142Y-101861904D01*
X246261904Y-101909523D01*
X246023809Y-101909523D01*
X245928571Y-101861904D01*
X245880952Y-101814285D01*
X245833333Y-101719047D01*
X245833333Y-101528571D01*
X245880952Y-101433333D01*
X245928571Y-101385714D01*
X246023809Y-101338095D01*
X245785714Y-102766666D02*
X246452380Y-102766666D01*
X245404761Y-102528571D02*
X246119047Y-102290476D01*
X246119047Y-102909523D01*
%TO.C,D63*%
X177396130Y-100385714D02*
X176396130Y-100385714D01*
X176396130Y-100623809D01*
X176443750Y-100766666D01*
X176538988Y-100861904D01*
X176634226Y-100909523D01*
X176824702Y-100957142D01*
X176967559Y-100957142D01*
X177158035Y-100909523D01*
X177253273Y-100861904D01*
X177348511Y-100766666D01*
X177396130Y-100623809D01*
X177396130Y-100385714D01*
X176396130Y-101814285D02*
X176396130Y-101623809D01*
X176443750Y-101528571D01*
X176491369Y-101480952D01*
X176634226Y-101385714D01*
X176824702Y-101338095D01*
X177205654Y-101338095D01*
X177300892Y-101385714D01*
X177348511Y-101433333D01*
X177396130Y-101528571D01*
X177396130Y-101719047D01*
X177348511Y-101814285D01*
X177300892Y-101861904D01*
X177205654Y-101909523D01*
X176967559Y-101909523D01*
X176872321Y-101861904D01*
X176824702Y-101814285D01*
X176777083Y-101719047D01*
X176777083Y-101528571D01*
X176824702Y-101433333D01*
X176872321Y-101385714D01*
X176967559Y-101338095D01*
X176396130Y-102242857D02*
X176396130Y-102861904D01*
X176777083Y-102528571D01*
X176777083Y-102671428D01*
X176824702Y-102766666D01*
X176872321Y-102814285D01*
X176967559Y-102861904D01*
X177205654Y-102861904D01*
X177300892Y-102814285D01*
X177348511Y-102766666D01*
X177396130Y-102671428D01*
X177396130Y-102385714D01*
X177348511Y-102290476D01*
X177300892Y-102242857D01*
%TO.C,D62*%
X105958630Y-100385714D02*
X104958630Y-100385714D01*
X104958630Y-100623809D01*
X105006250Y-100766666D01*
X105101488Y-100861904D01*
X105196726Y-100909523D01*
X105387202Y-100957142D01*
X105530059Y-100957142D01*
X105720535Y-100909523D01*
X105815773Y-100861904D01*
X105911011Y-100766666D01*
X105958630Y-100623809D01*
X105958630Y-100385714D01*
X104958630Y-101814285D02*
X104958630Y-101623809D01*
X105006250Y-101528571D01*
X105053869Y-101480952D01*
X105196726Y-101385714D01*
X105387202Y-101338095D01*
X105768154Y-101338095D01*
X105863392Y-101385714D01*
X105911011Y-101433333D01*
X105958630Y-101528571D01*
X105958630Y-101719047D01*
X105911011Y-101814285D01*
X105863392Y-101861904D01*
X105768154Y-101909523D01*
X105530059Y-101909523D01*
X105434821Y-101861904D01*
X105387202Y-101814285D01*
X105339583Y-101719047D01*
X105339583Y-101528571D01*
X105387202Y-101433333D01*
X105434821Y-101385714D01*
X105530059Y-101338095D01*
X105053869Y-102290476D02*
X105006250Y-102338095D01*
X104958630Y-102433333D01*
X104958630Y-102671428D01*
X105006250Y-102766666D01*
X105053869Y-102814285D01*
X105149107Y-102861904D01*
X105244345Y-102861904D01*
X105387202Y-102814285D01*
X105958630Y-102242857D01*
X105958630Y-102861904D01*
%TO.C,D61*%
X58333630Y-100385714D02*
X57333630Y-100385714D01*
X57333630Y-100623809D01*
X57381250Y-100766666D01*
X57476488Y-100861904D01*
X57571726Y-100909523D01*
X57762202Y-100957142D01*
X57905059Y-100957142D01*
X58095535Y-100909523D01*
X58190773Y-100861904D01*
X58286011Y-100766666D01*
X58333630Y-100623809D01*
X58333630Y-100385714D01*
X57333630Y-101814285D02*
X57333630Y-101623809D01*
X57381250Y-101528571D01*
X57428869Y-101480952D01*
X57571726Y-101385714D01*
X57762202Y-101338095D01*
X58143154Y-101338095D01*
X58238392Y-101385714D01*
X58286011Y-101433333D01*
X58333630Y-101528571D01*
X58333630Y-101719047D01*
X58286011Y-101814285D01*
X58238392Y-101861904D01*
X58143154Y-101909523D01*
X57905059Y-101909523D01*
X57809821Y-101861904D01*
X57762202Y-101814285D01*
X57714583Y-101719047D01*
X57714583Y-101528571D01*
X57762202Y-101433333D01*
X57809821Y-101385714D01*
X57905059Y-101338095D01*
X58333630Y-102861904D02*
X58333630Y-102290476D01*
X58333630Y-102576190D02*
X57333630Y-102576190D01*
X57476488Y-102480952D01*
X57571726Y-102385714D01*
X57619345Y-102290476D01*
%TO.C,D60*%
X32139880Y-100385714D02*
X31139880Y-100385714D01*
X31139880Y-100623809D01*
X31187500Y-100766666D01*
X31282738Y-100861904D01*
X31377976Y-100909523D01*
X31568452Y-100957142D01*
X31711309Y-100957142D01*
X31901785Y-100909523D01*
X31997023Y-100861904D01*
X32092261Y-100766666D01*
X32139880Y-100623809D01*
X32139880Y-100385714D01*
X31139880Y-101814285D02*
X31139880Y-101623809D01*
X31187500Y-101528571D01*
X31235119Y-101480952D01*
X31377976Y-101385714D01*
X31568452Y-101338095D01*
X31949404Y-101338095D01*
X32044642Y-101385714D01*
X32092261Y-101433333D01*
X32139880Y-101528571D01*
X32139880Y-101719047D01*
X32092261Y-101814285D01*
X32044642Y-101861904D01*
X31949404Y-101909523D01*
X31711309Y-101909523D01*
X31616071Y-101861904D01*
X31568452Y-101814285D01*
X31520833Y-101719047D01*
X31520833Y-101528571D01*
X31568452Y-101433333D01*
X31616071Y-101385714D01*
X31711309Y-101338095D01*
X31139880Y-102528571D02*
X31139880Y-102623809D01*
X31187500Y-102719047D01*
X31235119Y-102766666D01*
X31330357Y-102814285D01*
X31520833Y-102861904D01*
X31758928Y-102861904D01*
X31949404Y-102814285D01*
X32044642Y-102766666D01*
X32092261Y-102719047D01*
X32139880Y-102623809D01*
X32139880Y-102528571D01*
X32092261Y-102433333D01*
X32044642Y-102385714D01*
X31949404Y-102338095D01*
X31758928Y-102290476D01*
X31520833Y-102290476D01*
X31330357Y-102338095D01*
X31235119Y-102385714D01*
X31187500Y-102433333D01*
X31139880Y-102528571D01*
%TO.C,D59*%
X346464880Y-86098214D02*
X345464880Y-86098214D01*
X345464880Y-86336309D01*
X345512500Y-86479166D01*
X345607738Y-86574404D01*
X345702976Y-86622023D01*
X345893452Y-86669642D01*
X346036309Y-86669642D01*
X346226785Y-86622023D01*
X346322023Y-86574404D01*
X346417261Y-86479166D01*
X346464880Y-86336309D01*
X346464880Y-86098214D01*
X345464880Y-87574404D02*
X345464880Y-87098214D01*
X345941071Y-87050595D01*
X345893452Y-87098214D01*
X345845833Y-87193452D01*
X345845833Y-87431547D01*
X345893452Y-87526785D01*
X345941071Y-87574404D01*
X346036309Y-87622023D01*
X346274404Y-87622023D01*
X346369642Y-87574404D01*
X346417261Y-87526785D01*
X346464880Y-87431547D01*
X346464880Y-87193452D01*
X346417261Y-87098214D01*
X346369642Y-87050595D01*
X346464880Y-88098214D02*
X346464880Y-88288690D01*
X346417261Y-88383928D01*
X346369642Y-88431547D01*
X346226785Y-88526785D01*
X346036309Y-88574404D01*
X345655357Y-88574404D01*
X345560119Y-88526785D01*
X345512500Y-88479166D01*
X345464880Y-88383928D01*
X345464880Y-88193452D01*
X345512500Y-88098214D01*
X345560119Y-88050595D01*
X345655357Y-88002976D01*
X345893452Y-88002976D01*
X345988690Y-88050595D01*
X346036309Y-88098214D01*
X346083928Y-88193452D01*
X346083928Y-88383928D01*
X346036309Y-88479166D01*
X345988690Y-88526785D01*
X345893452Y-88574404D01*
%TO.C,D58*%
X327414880Y-86098214D02*
X326414880Y-86098214D01*
X326414880Y-86336309D01*
X326462500Y-86479166D01*
X326557738Y-86574404D01*
X326652976Y-86622023D01*
X326843452Y-86669642D01*
X326986309Y-86669642D01*
X327176785Y-86622023D01*
X327272023Y-86574404D01*
X327367261Y-86479166D01*
X327414880Y-86336309D01*
X327414880Y-86098214D01*
X326414880Y-87574404D02*
X326414880Y-87098214D01*
X326891071Y-87050595D01*
X326843452Y-87098214D01*
X326795833Y-87193452D01*
X326795833Y-87431547D01*
X326843452Y-87526785D01*
X326891071Y-87574404D01*
X326986309Y-87622023D01*
X327224404Y-87622023D01*
X327319642Y-87574404D01*
X327367261Y-87526785D01*
X327414880Y-87431547D01*
X327414880Y-87193452D01*
X327367261Y-87098214D01*
X327319642Y-87050595D01*
X326843452Y-88193452D02*
X326795833Y-88098214D01*
X326748214Y-88050595D01*
X326652976Y-88002976D01*
X326605357Y-88002976D01*
X326510119Y-88050595D01*
X326462500Y-88098214D01*
X326414880Y-88193452D01*
X326414880Y-88383928D01*
X326462500Y-88479166D01*
X326510119Y-88526785D01*
X326605357Y-88574404D01*
X326652976Y-88574404D01*
X326748214Y-88526785D01*
X326795833Y-88479166D01*
X326843452Y-88383928D01*
X326843452Y-88193452D01*
X326891071Y-88098214D01*
X326938690Y-88050595D01*
X327033928Y-88002976D01*
X327224404Y-88002976D01*
X327319642Y-88050595D01*
X327367261Y-88098214D01*
X327414880Y-88193452D01*
X327414880Y-88383928D01*
X327367261Y-88479166D01*
X327319642Y-88526785D01*
X327224404Y-88574404D01*
X327033928Y-88574404D01*
X326938690Y-88526785D01*
X326891071Y-88479166D01*
X326843452Y-88383928D01*
%TO.C,D57*%
X296458630Y-81335714D02*
X295458630Y-81335714D01*
X295458630Y-81573809D01*
X295506250Y-81716666D01*
X295601488Y-81811904D01*
X295696726Y-81859523D01*
X295887202Y-81907142D01*
X296030059Y-81907142D01*
X296220535Y-81859523D01*
X296315773Y-81811904D01*
X296411011Y-81716666D01*
X296458630Y-81573809D01*
X296458630Y-81335714D01*
X295458630Y-82811904D02*
X295458630Y-82335714D01*
X295934821Y-82288095D01*
X295887202Y-82335714D01*
X295839583Y-82430952D01*
X295839583Y-82669047D01*
X295887202Y-82764285D01*
X295934821Y-82811904D01*
X296030059Y-82859523D01*
X296268154Y-82859523D01*
X296363392Y-82811904D01*
X296411011Y-82764285D01*
X296458630Y-82669047D01*
X296458630Y-82430952D01*
X296411011Y-82335714D01*
X296363392Y-82288095D01*
X295458630Y-83192857D02*
X295458630Y-83859523D01*
X296458630Y-83430952D01*
%TO.C,D56*%
X270264880Y-81335714D02*
X269264880Y-81335714D01*
X269264880Y-81573809D01*
X269312500Y-81716666D01*
X269407738Y-81811904D01*
X269502976Y-81859523D01*
X269693452Y-81907142D01*
X269836309Y-81907142D01*
X270026785Y-81859523D01*
X270122023Y-81811904D01*
X270217261Y-81716666D01*
X270264880Y-81573809D01*
X270264880Y-81335714D01*
X269264880Y-82811904D02*
X269264880Y-82335714D01*
X269741071Y-82288095D01*
X269693452Y-82335714D01*
X269645833Y-82430952D01*
X269645833Y-82669047D01*
X269693452Y-82764285D01*
X269741071Y-82811904D01*
X269836309Y-82859523D01*
X270074404Y-82859523D01*
X270169642Y-82811904D01*
X270217261Y-82764285D01*
X270264880Y-82669047D01*
X270264880Y-82430952D01*
X270217261Y-82335714D01*
X270169642Y-82288095D01*
X269264880Y-83716666D02*
X269264880Y-83526190D01*
X269312500Y-83430952D01*
X269360119Y-83383333D01*
X269502976Y-83288095D01*
X269693452Y-83240476D01*
X270074404Y-83240476D01*
X270169642Y-83288095D01*
X270217261Y-83335714D01*
X270264880Y-83430952D01*
X270264880Y-83621428D01*
X270217261Y-83716666D01*
X270169642Y-83764285D01*
X270074404Y-83811904D01*
X269836309Y-83811904D01*
X269741071Y-83764285D01*
X269693452Y-83716666D01*
X269645833Y-83621428D01*
X269645833Y-83430952D01*
X269693452Y-83335714D01*
X269741071Y-83288095D01*
X269836309Y-83240476D01*
%TO.C,D55*%
X251214880Y-81335714D02*
X250214880Y-81335714D01*
X250214880Y-81573809D01*
X250262500Y-81716666D01*
X250357738Y-81811904D01*
X250452976Y-81859523D01*
X250643452Y-81907142D01*
X250786309Y-81907142D01*
X250976785Y-81859523D01*
X251072023Y-81811904D01*
X251167261Y-81716666D01*
X251214880Y-81573809D01*
X251214880Y-81335714D01*
X250214880Y-82811904D02*
X250214880Y-82335714D01*
X250691071Y-82288095D01*
X250643452Y-82335714D01*
X250595833Y-82430952D01*
X250595833Y-82669047D01*
X250643452Y-82764285D01*
X250691071Y-82811904D01*
X250786309Y-82859523D01*
X251024404Y-82859523D01*
X251119642Y-82811904D01*
X251167261Y-82764285D01*
X251214880Y-82669047D01*
X251214880Y-82430952D01*
X251167261Y-82335714D01*
X251119642Y-82288095D01*
X250214880Y-83764285D02*
X250214880Y-83288095D01*
X250691071Y-83240476D01*
X250643452Y-83288095D01*
X250595833Y-83383333D01*
X250595833Y-83621428D01*
X250643452Y-83716666D01*
X250691071Y-83764285D01*
X250786309Y-83811904D01*
X251024404Y-83811904D01*
X251119642Y-83764285D01*
X251167261Y-83716666D01*
X251214880Y-83621428D01*
X251214880Y-83383333D01*
X251167261Y-83288095D01*
X251119642Y-83240476D01*
%TO.C,D54*%
X232164880Y-81335714D02*
X231164880Y-81335714D01*
X231164880Y-81573809D01*
X231212500Y-81716666D01*
X231307738Y-81811904D01*
X231402976Y-81859523D01*
X231593452Y-81907142D01*
X231736309Y-81907142D01*
X231926785Y-81859523D01*
X232022023Y-81811904D01*
X232117261Y-81716666D01*
X232164880Y-81573809D01*
X232164880Y-81335714D01*
X231164880Y-82811904D02*
X231164880Y-82335714D01*
X231641071Y-82288095D01*
X231593452Y-82335714D01*
X231545833Y-82430952D01*
X231545833Y-82669047D01*
X231593452Y-82764285D01*
X231641071Y-82811904D01*
X231736309Y-82859523D01*
X231974404Y-82859523D01*
X232069642Y-82811904D01*
X232117261Y-82764285D01*
X232164880Y-82669047D01*
X232164880Y-82430952D01*
X232117261Y-82335714D01*
X232069642Y-82288095D01*
X231498214Y-83716666D02*
X232164880Y-83716666D01*
X231117261Y-83478571D02*
X231831547Y-83240476D01*
X231831547Y-83859523D01*
%TO.C,D53*%
X213114880Y-81335714D02*
X212114880Y-81335714D01*
X212114880Y-81573809D01*
X212162500Y-81716666D01*
X212257738Y-81811904D01*
X212352976Y-81859523D01*
X212543452Y-81907142D01*
X212686309Y-81907142D01*
X212876785Y-81859523D01*
X212972023Y-81811904D01*
X213067261Y-81716666D01*
X213114880Y-81573809D01*
X213114880Y-81335714D01*
X212114880Y-82811904D02*
X212114880Y-82335714D01*
X212591071Y-82288095D01*
X212543452Y-82335714D01*
X212495833Y-82430952D01*
X212495833Y-82669047D01*
X212543452Y-82764285D01*
X212591071Y-82811904D01*
X212686309Y-82859523D01*
X212924404Y-82859523D01*
X213019642Y-82811904D01*
X213067261Y-82764285D01*
X213114880Y-82669047D01*
X213114880Y-82430952D01*
X213067261Y-82335714D01*
X213019642Y-82288095D01*
X212114880Y-83192857D02*
X212114880Y-83811904D01*
X212495833Y-83478571D01*
X212495833Y-83621428D01*
X212543452Y-83716666D01*
X212591071Y-83764285D01*
X212686309Y-83811904D01*
X212924404Y-83811904D01*
X213019642Y-83764285D01*
X213067261Y-83716666D01*
X213114880Y-83621428D01*
X213114880Y-83335714D01*
X213067261Y-83240476D01*
X213019642Y-83192857D01*
%TO.C,D52*%
X194064880Y-81335714D02*
X193064880Y-81335714D01*
X193064880Y-81573809D01*
X193112500Y-81716666D01*
X193207738Y-81811904D01*
X193302976Y-81859523D01*
X193493452Y-81907142D01*
X193636309Y-81907142D01*
X193826785Y-81859523D01*
X193922023Y-81811904D01*
X194017261Y-81716666D01*
X194064880Y-81573809D01*
X194064880Y-81335714D01*
X193064880Y-82811904D02*
X193064880Y-82335714D01*
X193541071Y-82288095D01*
X193493452Y-82335714D01*
X193445833Y-82430952D01*
X193445833Y-82669047D01*
X193493452Y-82764285D01*
X193541071Y-82811904D01*
X193636309Y-82859523D01*
X193874404Y-82859523D01*
X193969642Y-82811904D01*
X194017261Y-82764285D01*
X194064880Y-82669047D01*
X194064880Y-82430952D01*
X194017261Y-82335714D01*
X193969642Y-82288095D01*
X193160119Y-83240476D02*
X193112500Y-83288095D01*
X193064880Y-83383333D01*
X193064880Y-83621428D01*
X193112500Y-83716666D01*
X193160119Y-83764285D01*
X193255357Y-83811904D01*
X193350595Y-83811904D01*
X193493452Y-83764285D01*
X194064880Y-83192857D01*
X194064880Y-83811904D01*
%TO.C,D51*%
X175014880Y-81335714D02*
X174014880Y-81335714D01*
X174014880Y-81573809D01*
X174062500Y-81716666D01*
X174157738Y-81811904D01*
X174252976Y-81859523D01*
X174443452Y-81907142D01*
X174586309Y-81907142D01*
X174776785Y-81859523D01*
X174872023Y-81811904D01*
X174967261Y-81716666D01*
X175014880Y-81573809D01*
X175014880Y-81335714D01*
X174014880Y-82811904D02*
X174014880Y-82335714D01*
X174491071Y-82288095D01*
X174443452Y-82335714D01*
X174395833Y-82430952D01*
X174395833Y-82669047D01*
X174443452Y-82764285D01*
X174491071Y-82811904D01*
X174586309Y-82859523D01*
X174824404Y-82859523D01*
X174919642Y-82811904D01*
X174967261Y-82764285D01*
X175014880Y-82669047D01*
X175014880Y-82430952D01*
X174967261Y-82335714D01*
X174919642Y-82288095D01*
X175014880Y-83811904D02*
X175014880Y-83240476D01*
X175014880Y-83526190D02*
X174014880Y-83526190D01*
X174157738Y-83430952D01*
X174252976Y-83335714D01*
X174300595Y-83240476D01*
%TO.C,D50*%
X155964880Y-81335714D02*
X154964880Y-81335714D01*
X154964880Y-81573809D01*
X155012500Y-81716666D01*
X155107738Y-81811904D01*
X155202976Y-81859523D01*
X155393452Y-81907142D01*
X155536309Y-81907142D01*
X155726785Y-81859523D01*
X155822023Y-81811904D01*
X155917261Y-81716666D01*
X155964880Y-81573809D01*
X155964880Y-81335714D01*
X154964880Y-82811904D02*
X154964880Y-82335714D01*
X155441071Y-82288095D01*
X155393452Y-82335714D01*
X155345833Y-82430952D01*
X155345833Y-82669047D01*
X155393452Y-82764285D01*
X155441071Y-82811904D01*
X155536309Y-82859523D01*
X155774404Y-82859523D01*
X155869642Y-82811904D01*
X155917261Y-82764285D01*
X155964880Y-82669047D01*
X155964880Y-82430952D01*
X155917261Y-82335714D01*
X155869642Y-82288095D01*
X154964880Y-83478571D02*
X154964880Y-83573809D01*
X155012500Y-83669047D01*
X155060119Y-83716666D01*
X155155357Y-83764285D01*
X155345833Y-83811904D01*
X155583928Y-83811904D01*
X155774404Y-83764285D01*
X155869642Y-83716666D01*
X155917261Y-83669047D01*
X155964880Y-83573809D01*
X155964880Y-83478571D01*
X155917261Y-83383333D01*
X155869642Y-83335714D01*
X155774404Y-83288095D01*
X155583928Y-83240476D01*
X155345833Y-83240476D01*
X155155357Y-83288095D01*
X155060119Y-83335714D01*
X155012500Y-83383333D01*
X154964880Y-83478571D01*
%TO.C,D49*%
X136914880Y-81335714D02*
X135914880Y-81335714D01*
X135914880Y-81573809D01*
X135962500Y-81716666D01*
X136057738Y-81811904D01*
X136152976Y-81859523D01*
X136343452Y-81907142D01*
X136486309Y-81907142D01*
X136676785Y-81859523D01*
X136772023Y-81811904D01*
X136867261Y-81716666D01*
X136914880Y-81573809D01*
X136914880Y-81335714D01*
X136248214Y-82764285D02*
X136914880Y-82764285D01*
X135867261Y-82526190D02*
X136581547Y-82288095D01*
X136581547Y-82907142D01*
X136914880Y-83335714D02*
X136914880Y-83526190D01*
X136867261Y-83621428D01*
X136819642Y-83669047D01*
X136676785Y-83764285D01*
X136486309Y-83811904D01*
X136105357Y-83811904D01*
X136010119Y-83764285D01*
X135962500Y-83716666D01*
X135914880Y-83621428D01*
X135914880Y-83430952D01*
X135962500Y-83335714D01*
X136010119Y-83288095D01*
X136105357Y-83240476D01*
X136343452Y-83240476D01*
X136438690Y-83288095D01*
X136486309Y-83335714D01*
X136533928Y-83430952D01*
X136533928Y-83621428D01*
X136486309Y-83716666D01*
X136438690Y-83764285D01*
X136343452Y-83811904D01*
%TO.C,D48*%
X117864880Y-81335714D02*
X116864880Y-81335714D01*
X116864880Y-81573809D01*
X116912500Y-81716666D01*
X117007738Y-81811904D01*
X117102976Y-81859523D01*
X117293452Y-81907142D01*
X117436309Y-81907142D01*
X117626785Y-81859523D01*
X117722023Y-81811904D01*
X117817261Y-81716666D01*
X117864880Y-81573809D01*
X117864880Y-81335714D01*
X117198214Y-82764285D02*
X117864880Y-82764285D01*
X116817261Y-82526190D02*
X117531547Y-82288095D01*
X117531547Y-82907142D01*
X117293452Y-83430952D02*
X117245833Y-83335714D01*
X117198214Y-83288095D01*
X117102976Y-83240476D01*
X117055357Y-83240476D01*
X116960119Y-83288095D01*
X116912500Y-83335714D01*
X116864880Y-83430952D01*
X116864880Y-83621428D01*
X116912500Y-83716666D01*
X116960119Y-83764285D01*
X117055357Y-83811904D01*
X117102976Y-83811904D01*
X117198214Y-83764285D01*
X117245833Y-83716666D01*
X117293452Y-83621428D01*
X117293452Y-83430952D01*
X117341071Y-83335714D01*
X117388690Y-83288095D01*
X117483928Y-83240476D01*
X117674404Y-83240476D01*
X117769642Y-83288095D01*
X117817261Y-83335714D01*
X117864880Y-83430952D01*
X117864880Y-83621428D01*
X117817261Y-83716666D01*
X117769642Y-83764285D01*
X117674404Y-83811904D01*
X117483928Y-83811904D01*
X117388690Y-83764285D01*
X117341071Y-83716666D01*
X117293452Y-83621428D01*
%TO.C,D47*%
X98814880Y-81335714D02*
X97814880Y-81335714D01*
X97814880Y-81573809D01*
X97862500Y-81716666D01*
X97957738Y-81811904D01*
X98052976Y-81859523D01*
X98243452Y-81907142D01*
X98386309Y-81907142D01*
X98576785Y-81859523D01*
X98672023Y-81811904D01*
X98767261Y-81716666D01*
X98814880Y-81573809D01*
X98814880Y-81335714D01*
X98148214Y-82764285D02*
X98814880Y-82764285D01*
X97767261Y-82526190D02*
X98481547Y-82288095D01*
X98481547Y-82907142D01*
X97814880Y-83192857D02*
X97814880Y-83859523D01*
X98814880Y-83430952D01*
%TO.C,D46*%
X67858630Y-81335714D02*
X66858630Y-81335714D01*
X66858630Y-81573809D01*
X66906250Y-81716666D01*
X67001488Y-81811904D01*
X67096726Y-81859523D01*
X67287202Y-81907142D01*
X67430059Y-81907142D01*
X67620535Y-81859523D01*
X67715773Y-81811904D01*
X67811011Y-81716666D01*
X67858630Y-81573809D01*
X67858630Y-81335714D01*
X67191964Y-82764285D02*
X67858630Y-82764285D01*
X66811011Y-82526190D02*
X67525297Y-82288095D01*
X67525297Y-82907142D01*
X66858630Y-83716666D02*
X66858630Y-83526190D01*
X66906250Y-83430952D01*
X66953869Y-83383333D01*
X67096726Y-83288095D01*
X67287202Y-83240476D01*
X67668154Y-83240476D01*
X67763392Y-83288095D01*
X67811011Y-83335714D01*
X67858630Y-83430952D01*
X67858630Y-83621428D01*
X67811011Y-83716666D01*
X67763392Y-83764285D01*
X67668154Y-83811904D01*
X67430059Y-83811904D01*
X67334821Y-83764285D01*
X67287202Y-83716666D01*
X67239583Y-83621428D01*
X67239583Y-83430952D01*
X67287202Y-83335714D01*
X67334821Y-83288095D01*
X67430059Y-83240476D01*
%TO.C,D45*%
X32139880Y-81335714D02*
X31139880Y-81335714D01*
X31139880Y-81573809D01*
X31187500Y-81716666D01*
X31282738Y-81811904D01*
X31377976Y-81859523D01*
X31568452Y-81907142D01*
X31711309Y-81907142D01*
X31901785Y-81859523D01*
X31997023Y-81811904D01*
X32092261Y-81716666D01*
X32139880Y-81573809D01*
X32139880Y-81335714D01*
X31473214Y-82764285D02*
X32139880Y-82764285D01*
X31092261Y-82526190D02*
X31806547Y-82288095D01*
X31806547Y-82907142D01*
X31139880Y-83764285D02*
X31139880Y-83288095D01*
X31616071Y-83240476D01*
X31568452Y-83288095D01*
X31520833Y-83383333D01*
X31520833Y-83621428D01*
X31568452Y-83716666D01*
X31616071Y-83764285D01*
X31711309Y-83811904D01*
X31949404Y-83811904D01*
X32044642Y-83764285D01*
X32092261Y-83716666D01*
X32139880Y-83621428D01*
X32139880Y-83383333D01*
X32092261Y-83288095D01*
X32044642Y-83240476D01*
%TO.C,D44*%
X310746130Y-62141964D02*
X309746130Y-62141964D01*
X309746130Y-62380059D01*
X309793750Y-62522916D01*
X309888988Y-62618154D01*
X309984226Y-62665773D01*
X310174702Y-62713392D01*
X310317559Y-62713392D01*
X310508035Y-62665773D01*
X310603273Y-62618154D01*
X310698511Y-62522916D01*
X310746130Y-62380059D01*
X310746130Y-62141964D01*
X310079464Y-63570535D02*
X310746130Y-63570535D01*
X309698511Y-63332440D02*
X310412797Y-63094345D01*
X310412797Y-63713392D01*
X310079464Y-64522916D02*
X310746130Y-64522916D01*
X309698511Y-64284821D02*
X310412797Y-64046726D01*
X310412797Y-64665773D01*
%TO.C,D43*%
X279789880Y-62285714D02*
X278789880Y-62285714D01*
X278789880Y-62523809D01*
X278837500Y-62666666D01*
X278932738Y-62761904D01*
X279027976Y-62809523D01*
X279218452Y-62857142D01*
X279361309Y-62857142D01*
X279551785Y-62809523D01*
X279647023Y-62761904D01*
X279742261Y-62666666D01*
X279789880Y-62523809D01*
X279789880Y-62285714D01*
X279123214Y-63714285D02*
X279789880Y-63714285D01*
X278742261Y-63476190D02*
X279456547Y-63238095D01*
X279456547Y-63857142D01*
X278789880Y-64142857D02*
X278789880Y-64761904D01*
X279170833Y-64428571D01*
X279170833Y-64571428D01*
X279218452Y-64666666D01*
X279266071Y-64714285D01*
X279361309Y-64761904D01*
X279599404Y-64761904D01*
X279694642Y-64714285D01*
X279742261Y-64666666D01*
X279789880Y-64571428D01*
X279789880Y-64285714D01*
X279742261Y-64190476D01*
X279694642Y-64142857D01*
%TO.C,D42*%
X260739880Y-62285714D02*
X259739880Y-62285714D01*
X259739880Y-62523809D01*
X259787500Y-62666666D01*
X259882738Y-62761904D01*
X259977976Y-62809523D01*
X260168452Y-62857142D01*
X260311309Y-62857142D01*
X260501785Y-62809523D01*
X260597023Y-62761904D01*
X260692261Y-62666666D01*
X260739880Y-62523809D01*
X260739880Y-62285714D01*
X260073214Y-63714285D02*
X260739880Y-63714285D01*
X259692261Y-63476190D02*
X260406547Y-63238095D01*
X260406547Y-63857142D01*
X259835119Y-64190476D02*
X259787500Y-64238095D01*
X259739880Y-64333333D01*
X259739880Y-64571428D01*
X259787500Y-64666666D01*
X259835119Y-64714285D01*
X259930357Y-64761904D01*
X260025595Y-64761904D01*
X260168452Y-64714285D01*
X260739880Y-64142857D01*
X260739880Y-64761904D01*
%TO.C,D41*%
X241689880Y-62285714D02*
X240689880Y-62285714D01*
X240689880Y-62523809D01*
X240737500Y-62666666D01*
X240832738Y-62761904D01*
X240927976Y-62809523D01*
X241118452Y-62857142D01*
X241261309Y-62857142D01*
X241451785Y-62809523D01*
X241547023Y-62761904D01*
X241642261Y-62666666D01*
X241689880Y-62523809D01*
X241689880Y-62285714D01*
X241023214Y-63714285D02*
X241689880Y-63714285D01*
X240642261Y-63476190D02*
X241356547Y-63238095D01*
X241356547Y-63857142D01*
X241689880Y-64761904D02*
X241689880Y-64190476D01*
X241689880Y-64476190D02*
X240689880Y-64476190D01*
X240832738Y-64380952D01*
X240927976Y-64285714D01*
X240975595Y-64190476D01*
%TO.C,D40*%
X222639880Y-62285714D02*
X221639880Y-62285714D01*
X221639880Y-62523809D01*
X221687500Y-62666666D01*
X221782738Y-62761904D01*
X221877976Y-62809523D01*
X222068452Y-62857142D01*
X222211309Y-62857142D01*
X222401785Y-62809523D01*
X222497023Y-62761904D01*
X222592261Y-62666666D01*
X222639880Y-62523809D01*
X222639880Y-62285714D01*
X221973214Y-63714285D02*
X222639880Y-63714285D01*
X221592261Y-63476190D02*
X222306547Y-63238095D01*
X222306547Y-63857142D01*
X221639880Y-64428571D02*
X221639880Y-64523809D01*
X221687500Y-64619047D01*
X221735119Y-64666666D01*
X221830357Y-64714285D01*
X222020833Y-64761904D01*
X222258928Y-64761904D01*
X222449404Y-64714285D01*
X222544642Y-64666666D01*
X222592261Y-64619047D01*
X222639880Y-64523809D01*
X222639880Y-64428571D01*
X222592261Y-64333333D01*
X222544642Y-64285714D01*
X222449404Y-64238095D01*
X222258928Y-64190476D01*
X222020833Y-64190476D01*
X221830357Y-64238095D01*
X221735119Y-64285714D01*
X221687500Y-64333333D01*
X221639880Y-64428571D01*
%TO.C,D39*%
X203589880Y-62285714D02*
X202589880Y-62285714D01*
X202589880Y-62523809D01*
X202637500Y-62666666D01*
X202732738Y-62761904D01*
X202827976Y-62809523D01*
X203018452Y-62857142D01*
X203161309Y-62857142D01*
X203351785Y-62809523D01*
X203447023Y-62761904D01*
X203542261Y-62666666D01*
X203589880Y-62523809D01*
X203589880Y-62285714D01*
X202589880Y-63190476D02*
X202589880Y-63809523D01*
X202970833Y-63476190D01*
X202970833Y-63619047D01*
X203018452Y-63714285D01*
X203066071Y-63761904D01*
X203161309Y-63809523D01*
X203399404Y-63809523D01*
X203494642Y-63761904D01*
X203542261Y-63714285D01*
X203589880Y-63619047D01*
X203589880Y-63333333D01*
X203542261Y-63238095D01*
X203494642Y-63190476D01*
X203589880Y-64285714D02*
X203589880Y-64476190D01*
X203542261Y-64571428D01*
X203494642Y-64619047D01*
X203351785Y-64714285D01*
X203161309Y-64761904D01*
X202780357Y-64761904D01*
X202685119Y-64714285D01*
X202637500Y-64666666D01*
X202589880Y-64571428D01*
X202589880Y-64380952D01*
X202637500Y-64285714D01*
X202685119Y-64238095D01*
X202780357Y-64190476D01*
X203018452Y-64190476D01*
X203113690Y-64238095D01*
X203161309Y-64285714D01*
X203208928Y-64380952D01*
X203208928Y-64571428D01*
X203161309Y-64666666D01*
X203113690Y-64714285D01*
X203018452Y-64761904D01*
%TO.C,D38*%
X184539880Y-62285714D02*
X183539880Y-62285714D01*
X183539880Y-62523809D01*
X183587500Y-62666666D01*
X183682738Y-62761904D01*
X183777976Y-62809523D01*
X183968452Y-62857142D01*
X184111309Y-62857142D01*
X184301785Y-62809523D01*
X184397023Y-62761904D01*
X184492261Y-62666666D01*
X184539880Y-62523809D01*
X184539880Y-62285714D01*
X183539880Y-63190476D02*
X183539880Y-63809523D01*
X183920833Y-63476190D01*
X183920833Y-63619047D01*
X183968452Y-63714285D01*
X184016071Y-63761904D01*
X184111309Y-63809523D01*
X184349404Y-63809523D01*
X184444642Y-63761904D01*
X184492261Y-63714285D01*
X184539880Y-63619047D01*
X184539880Y-63333333D01*
X184492261Y-63238095D01*
X184444642Y-63190476D01*
X183968452Y-64380952D02*
X183920833Y-64285714D01*
X183873214Y-64238095D01*
X183777976Y-64190476D01*
X183730357Y-64190476D01*
X183635119Y-64238095D01*
X183587500Y-64285714D01*
X183539880Y-64380952D01*
X183539880Y-64571428D01*
X183587500Y-64666666D01*
X183635119Y-64714285D01*
X183730357Y-64761904D01*
X183777976Y-64761904D01*
X183873214Y-64714285D01*
X183920833Y-64666666D01*
X183968452Y-64571428D01*
X183968452Y-64380952D01*
X184016071Y-64285714D01*
X184063690Y-64238095D01*
X184158928Y-64190476D01*
X184349404Y-64190476D01*
X184444642Y-64238095D01*
X184492261Y-64285714D01*
X184539880Y-64380952D01*
X184539880Y-64571428D01*
X184492261Y-64666666D01*
X184444642Y-64714285D01*
X184349404Y-64761904D01*
X184158928Y-64761904D01*
X184063690Y-64714285D01*
X184016071Y-64666666D01*
X183968452Y-64571428D01*
%TO.C,D37*%
X165489880Y-62285714D02*
X164489880Y-62285714D01*
X164489880Y-62523809D01*
X164537500Y-62666666D01*
X164632738Y-62761904D01*
X164727976Y-62809523D01*
X164918452Y-62857142D01*
X165061309Y-62857142D01*
X165251785Y-62809523D01*
X165347023Y-62761904D01*
X165442261Y-62666666D01*
X165489880Y-62523809D01*
X165489880Y-62285714D01*
X164489880Y-63190476D02*
X164489880Y-63809523D01*
X164870833Y-63476190D01*
X164870833Y-63619047D01*
X164918452Y-63714285D01*
X164966071Y-63761904D01*
X165061309Y-63809523D01*
X165299404Y-63809523D01*
X165394642Y-63761904D01*
X165442261Y-63714285D01*
X165489880Y-63619047D01*
X165489880Y-63333333D01*
X165442261Y-63238095D01*
X165394642Y-63190476D01*
X164489880Y-64142857D02*
X164489880Y-64809523D01*
X165489880Y-64380952D01*
%TO.C,D36*%
X146439880Y-62141964D02*
X145439880Y-62141964D01*
X145439880Y-62380059D01*
X145487500Y-62522916D01*
X145582738Y-62618154D01*
X145677976Y-62665773D01*
X145868452Y-62713392D01*
X146011309Y-62713392D01*
X146201785Y-62665773D01*
X146297023Y-62618154D01*
X146392261Y-62522916D01*
X146439880Y-62380059D01*
X146439880Y-62141964D01*
X145439880Y-63046726D02*
X145439880Y-63665773D01*
X145820833Y-63332440D01*
X145820833Y-63475297D01*
X145868452Y-63570535D01*
X145916071Y-63618154D01*
X146011309Y-63665773D01*
X146249404Y-63665773D01*
X146344642Y-63618154D01*
X146392261Y-63570535D01*
X146439880Y-63475297D01*
X146439880Y-63189583D01*
X146392261Y-63094345D01*
X146344642Y-63046726D01*
X145439880Y-64522916D02*
X145439880Y-64332440D01*
X145487500Y-64237202D01*
X145535119Y-64189583D01*
X145677976Y-64094345D01*
X145868452Y-64046726D01*
X146249404Y-64046726D01*
X146344642Y-64094345D01*
X146392261Y-64141964D01*
X146439880Y-64237202D01*
X146439880Y-64427678D01*
X146392261Y-64522916D01*
X146344642Y-64570535D01*
X146249404Y-64618154D01*
X146011309Y-64618154D01*
X145916071Y-64570535D01*
X145868452Y-64522916D01*
X145820833Y-64427678D01*
X145820833Y-64237202D01*
X145868452Y-64141964D01*
X145916071Y-64094345D01*
X146011309Y-64046726D01*
%TO.C,D35*%
X127389880Y-62285714D02*
X126389880Y-62285714D01*
X126389880Y-62523809D01*
X126437500Y-62666666D01*
X126532738Y-62761904D01*
X126627976Y-62809523D01*
X126818452Y-62857142D01*
X126961309Y-62857142D01*
X127151785Y-62809523D01*
X127247023Y-62761904D01*
X127342261Y-62666666D01*
X127389880Y-62523809D01*
X127389880Y-62285714D01*
X126389880Y-63190476D02*
X126389880Y-63809523D01*
X126770833Y-63476190D01*
X126770833Y-63619047D01*
X126818452Y-63714285D01*
X126866071Y-63761904D01*
X126961309Y-63809523D01*
X127199404Y-63809523D01*
X127294642Y-63761904D01*
X127342261Y-63714285D01*
X127389880Y-63619047D01*
X127389880Y-63333333D01*
X127342261Y-63238095D01*
X127294642Y-63190476D01*
X126389880Y-64714285D02*
X126389880Y-64238095D01*
X126866071Y-64190476D01*
X126818452Y-64238095D01*
X126770833Y-64333333D01*
X126770833Y-64571428D01*
X126818452Y-64666666D01*
X126866071Y-64714285D01*
X126961309Y-64761904D01*
X127199404Y-64761904D01*
X127294642Y-64714285D01*
X127342261Y-64666666D01*
X127389880Y-64571428D01*
X127389880Y-64333333D01*
X127342261Y-64238095D01*
X127294642Y-64190476D01*
%TO.C,D34*%
X108339880Y-62285714D02*
X107339880Y-62285714D01*
X107339880Y-62523809D01*
X107387500Y-62666666D01*
X107482738Y-62761904D01*
X107577976Y-62809523D01*
X107768452Y-62857142D01*
X107911309Y-62857142D01*
X108101785Y-62809523D01*
X108197023Y-62761904D01*
X108292261Y-62666666D01*
X108339880Y-62523809D01*
X108339880Y-62285714D01*
X107339880Y-63190476D02*
X107339880Y-63809523D01*
X107720833Y-63476190D01*
X107720833Y-63619047D01*
X107768452Y-63714285D01*
X107816071Y-63761904D01*
X107911309Y-63809523D01*
X108149404Y-63809523D01*
X108244642Y-63761904D01*
X108292261Y-63714285D01*
X108339880Y-63619047D01*
X108339880Y-63333333D01*
X108292261Y-63238095D01*
X108244642Y-63190476D01*
X107673214Y-64666666D02*
X108339880Y-64666666D01*
X107292261Y-64428571D02*
X108006547Y-64190476D01*
X108006547Y-64809523D01*
%TO.C,D33*%
X89289880Y-62285714D02*
X88289880Y-62285714D01*
X88289880Y-62523809D01*
X88337500Y-62666666D01*
X88432738Y-62761904D01*
X88527976Y-62809523D01*
X88718452Y-62857142D01*
X88861309Y-62857142D01*
X89051785Y-62809523D01*
X89147023Y-62761904D01*
X89242261Y-62666666D01*
X89289880Y-62523809D01*
X89289880Y-62285714D01*
X88289880Y-63190476D02*
X88289880Y-63809523D01*
X88670833Y-63476190D01*
X88670833Y-63619047D01*
X88718452Y-63714285D01*
X88766071Y-63761904D01*
X88861309Y-63809523D01*
X89099404Y-63809523D01*
X89194642Y-63761904D01*
X89242261Y-63714285D01*
X89289880Y-63619047D01*
X89289880Y-63333333D01*
X89242261Y-63238095D01*
X89194642Y-63190476D01*
X88289880Y-64142857D02*
X88289880Y-64761904D01*
X88670833Y-64428571D01*
X88670833Y-64571428D01*
X88718452Y-64666666D01*
X88766071Y-64714285D01*
X88861309Y-64761904D01*
X89099404Y-64761904D01*
X89194642Y-64714285D01*
X89242261Y-64666666D01*
X89289880Y-64571428D01*
X89289880Y-64285714D01*
X89242261Y-64190476D01*
X89194642Y-64142857D01*
%TO.C,D32*%
X63096130Y-62285714D02*
X62096130Y-62285714D01*
X62096130Y-62523809D01*
X62143750Y-62666666D01*
X62238988Y-62761904D01*
X62334226Y-62809523D01*
X62524702Y-62857142D01*
X62667559Y-62857142D01*
X62858035Y-62809523D01*
X62953273Y-62761904D01*
X63048511Y-62666666D01*
X63096130Y-62523809D01*
X63096130Y-62285714D01*
X62096130Y-63190476D02*
X62096130Y-63809523D01*
X62477083Y-63476190D01*
X62477083Y-63619047D01*
X62524702Y-63714285D01*
X62572321Y-63761904D01*
X62667559Y-63809523D01*
X62905654Y-63809523D01*
X63000892Y-63761904D01*
X63048511Y-63714285D01*
X63096130Y-63619047D01*
X63096130Y-63333333D01*
X63048511Y-63238095D01*
X63000892Y-63190476D01*
X62191369Y-64190476D02*
X62143750Y-64238095D01*
X62096130Y-64333333D01*
X62096130Y-64571428D01*
X62143750Y-64666666D01*
X62191369Y-64714285D01*
X62286607Y-64761904D01*
X62381845Y-64761904D01*
X62524702Y-64714285D01*
X63096130Y-64142857D01*
X63096130Y-64761904D01*
%TO.C,D31*%
X32139880Y-62285714D02*
X31139880Y-62285714D01*
X31139880Y-62523809D01*
X31187500Y-62666666D01*
X31282738Y-62761904D01*
X31377976Y-62809523D01*
X31568452Y-62857142D01*
X31711309Y-62857142D01*
X31901785Y-62809523D01*
X31997023Y-62761904D01*
X32092261Y-62666666D01*
X32139880Y-62523809D01*
X32139880Y-62285714D01*
X31139880Y-63190476D02*
X31139880Y-63809523D01*
X31520833Y-63476190D01*
X31520833Y-63619047D01*
X31568452Y-63714285D01*
X31616071Y-63761904D01*
X31711309Y-63809523D01*
X31949404Y-63809523D01*
X32044642Y-63761904D01*
X32092261Y-63714285D01*
X32139880Y-63619047D01*
X32139880Y-63333333D01*
X32092261Y-63238095D01*
X32044642Y-63190476D01*
X32139880Y-64761904D02*
X32139880Y-64190476D01*
X32139880Y-64476190D02*
X31139880Y-64476190D01*
X31282738Y-64380952D01*
X31377976Y-64285714D01*
X31425595Y-64190476D01*
%TO.C,D30*%
X317889880Y-43235714D02*
X316889880Y-43235714D01*
X316889880Y-43473809D01*
X316937500Y-43616666D01*
X317032738Y-43711904D01*
X317127976Y-43759523D01*
X317318452Y-43807142D01*
X317461309Y-43807142D01*
X317651785Y-43759523D01*
X317747023Y-43711904D01*
X317842261Y-43616666D01*
X317889880Y-43473809D01*
X317889880Y-43235714D01*
X316889880Y-44140476D02*
X316889880Y-44759523D01*
X317270833Y-44426190D01*
X317270833Y-44569047D01*
X317318452Y-44664285D01*
X317366071Y-44711904D01*
X317461309Y-44759523D01*
X317699404Y-44759523D01*
X317794642Y-44711904D01*
X317842261Y-44664285D01*
X317889880Y-44569047D01*
X317889880Y-44283333D01*
X317842261Y-44188095D01*
X317794642Y-44140476D01*
X316889880Y-45378571D02*
X316889880Y-45473809D01*
X316937500Y-45569047D01*
X316985119Y-45616666D01*
X317080357Y-45664285D01*
X317270833Y-45711904D01*
X317508928Y-45711904D01*
X317699404Y-45664285D01*
X317794642Y-45616666D01*
X317842261Y-45569047D01*
X317889880Y-45473809D01*
X317889880Y-45378571D01*
X317842261Y-45283333D01*
X317794642Y-45235714D01*
X317699404Y-45188095D01*
X317508928Y-45140476D01*
X317270833Y-45140476D01*
X317080357Y-45188095D01*
X316985119Y-45235714D01*
X316937500Y-45283333D01*
X316889880Y-45378571D01*
%TO.C,D29*%
X294077380Y-43235714D02*
X293077380Y-43235714D01*
X293077380Y-43473809D01*
X293125000Y-43616666D01*
X293220238Y-43711904D01*
X293315476Y-43759523D01*
X293505952Y-43807142D01*
X293648809Y-43807142D01*
X293839285Y-43759523D01*
X293934523Y-43711904D01*
X294029761Y-43616666D01*
X294077380Y-43473809D01*
X294077380Y-43235714D01*
X293172619Y-44188095D02*
X293125000Y-44235714D01*
X293077380Y-44330952D01*
X293077380Y-44569047D01*
X293125000Y-44664285D01*
X293172619Y-44711904D01*
X293267857Y-44759523D01*
X293363095Y-44759523D01*
X293505952Y-44711904D01*
X294077380Y-44140476D01*
X294077380Y-44759523D01*
X294077380Y-45235714D02*
X294077380Y-45426190D01*
X294029761Y-45521428D01*
X293982142Y-45569047D01*
X293839285Y-45664285D01*
X293648809Y-45711904D01*
X293267857Y-45711904D01*
X293172619Y-45664285D01*
X293125000Y-45616666D01*
X293077380Y-45521428D01*
X293077380Y-45330952D01*
X293125000Y-45235714D01*
X293172619Y-45188095D01*
X293267857Y-45140476D01*
X293505952Y-45140476D01*
X293601190Y-45188095D01*
X293648809Y-45235714D01*
X293696428Y-45330952D01*
X293696428Y-45521428D01*
X293648809Y-45616666D01*
X293601190Y-45664285D01*
X293505952Y-45711904D01*
%TO.C,D28*%
X275027380Y-43235714D02*
X274027380Y-43235714D01*
X274027380Y-43473809D01*
X274075000Y-43616666D01*
X274170238Y-43711904D01*
X274265476Y-43759523D01*
X274455952Y-43807142D01*
X274598809Y-43807142D01*
X274789285Y-43759523D01*
X274884523Y-43711904D01*
X274979761Y-43616666D01*
X275027380Y-43473809D01*
X275027380Y-43235714D01*
X274122619Y-44188095D02*
X274075000Y-44235714D01*
X274027380Y-44330952D01*
X274027380Y-44569047D01*
X274075000Y-44664285D01*
X274122619Y-44711904D01*
X274217857Y-44759523D01*
X274313095Y-44759523D01*
X274455952Y-44711904D01*
X275027380Y-44140476D01*
X275027380Y-44759523D01*
X274455952Y-45330952D02*
X274408333Y-45235714D01*
X274360714Y-45188095D01*
X274265476Y-45140476D01*
X274217857Y-45140476D01*
X274122619Y-45188095D01*
X274075000Y-45235714D01*
X274027380Y-45330952D01*
X274027380Y-45521428D01*
X274075000Y-45616666D01*
X274122619Y-45664285D01*
X274217857Y-45711904D01*
X274265476Y-45711904D01*
X274360714Y-45664285D01*
X274408333Y-45616666D01*
X274455952Y-45521428D01*
X274455952Y-45330952D01*
X274503571Y-45235714D01*
X274551190Y-45188095D01*
X274646428Y-45140476D01*
X274836904Y-45140476D01*
X274932142Y-45188095D01*
X274979761Y-45235714D01*
X275027380Y-45330952D01*
X275027380Y-45521428D01*
X274979761Y-45616666D01*
X274932142Y-45664285D01*
X274836904Y-45711904D01*
X274646428Y-45711904D01*
X274551190Y-45664285D01*
X274503571Y-45616666D01*
X274455952Y-45521428D01*
%TO.C,D27*%
X255977380Y-43235714D02*
X254977380Y-43235714D01*
X254977380Y-43473809D01*
X255025000Y-43616666D01*
X255120238Y-43711904D01*
X255215476Y-43759523D01*
X255405952Y-43807142D01*
X255548809Y-43807142D01*
X255739285Y-43759523D01*
X255834523Y-43711904D01*
X255929761Y-43616666D01*
X255977380Y-43473809D01*
X255977380Y-43235714D01*
X255072619Y-44188095D02*
X255025000Y-44235714D01*
X254977380Y-44330952D01*
X254977380Y-44569047D01*
X255025000Y-44664285D01*
X255072619Y-44711904D01*
X255167857Y-44759523D01*
X255263095Y-44759523D01*
X255405952Y-44711904D01*
X255977380Y-44140476D01*
X255977380Y-44759523D01*
X254977380Y-45092857D02*
X254977380Y-45759523D01*
X255977380Y-45330952D01*
%TO.C,D26*%
X236927380Y-43235714D02*
X235927380Y-43235714D01*
X235927380Y-43473809D01*
X235975000Y-43616666D01*
X236070238Y-43711904D01*
X236165476Y-43759523D01*
X236355952Y-43807142D01*
X236498809Y-43807142D01*
X236689285Y-43759523D01*
X236784523Y-43711904D01*
X236879761Y-43616666D01*
X236927380Y-43473809D01*
X236927380Y-43235714D01*
X236022619Y-44188095D02*
X235975000Y-44235714D01*
X235927380Y-44330952D01*
X235927380Y-44569047D01*
X235975000Y-44664285D01*
X236022619Y-44711904D01*
X236117857Y-44759523D01*
X236213095Y-44759523D01*
X236355952Y-44711904D01*
X236927380Y-44140476D01*
X236927380Y-44759523D01*
X235927380Y-45616666D02*
X235927380Y-45426190D01*
X235975000Y-45330952D01*
X236022619Y-45283333D01*
X236165476Y-45188095D01*
X236355952Y-45140476D01*
X236736904Y-45140476D01*
X236832142Y-45188095D01*
X236879761Y-45235714D01*
X236927380Y-45330952D01*
X236927380Y-45521428D01*
X236879761Y-45616666D01*
X236832142Y-45664285D01*
X236736904Y-45711904D01*
X236498809Y-45711904D01*
X236403571Y-45664285D01*
X236355952Y-45616666D01*
X236308333Y-45521428D01*
X236308333Y-45330952D01*
X236355952Y-45235714D01*
X236403571Y-45188095D01*
X236498809Y-45140476D01*
%TO.C,D25*%
X217877380Y-43235714D02*
X216877380Y-43235714D01*
X216877380Y-43473809D01*
X216925000Y-43616666D01*
X217020238Y-43711904D01*
X217115476Y-43759523D01*
X217305952Y-43807142D01*
X217448809Y-43807142D01*
X217639285Y-43759523D01*
X217734523Y-43711904D01*
X217829761Y-43616666D01*
X217877380Y-43473809D01*
X217877380Y-43235714D01*
X216972619Y-44188095D02*
X216925000Y-44235714D01*
X216877380Y-44330952D01*
X216877380Y-44569047D01*
X216925000Y-44664285D01*
X216972619Y-44711904D01*
X217067857Y-44759523D01*
X217163095Y-44759523D01*
X217305952Y-44711904D01*
X217877380Y-44140476D01*
X217877380Y-44759523D01*
X216877380Y-45664285D02*
X216877380Y-45188095D01*
X217353571Y-45140476D01*
X217305952Y-45188095D01*
X217258333Y-45283333D01*
X217258333Y-45521428D01*
X217305952Y-45616666D01*
X217353571Y-45664285D01*
X217448809Y-45711904D01*
X217686904Y-45711904D01*
X217782142Y-45664285D01*
X217829761Y-45616666D01*
X217877380Y-45521428D01*
X217877380Y-45283333D01*
X217829761Y-45188095D01*
X217782142Y-45140476D01*
%TO.C,D24*%
X198827380Y-43235714D02*
X197827380Y-43235714D01*
X197827380Y-43473809D01*
X197875000Y-43616666D01*
X197970238Y-43711904D01*
X198065476Y-43759523D01*
X198255952Y-43807142D01*
X198398809Y-43807142D01*
X198589285Y-43759523D01*
X198684523Y-43711904D01*
X198779761Y-43616666D01*
X198827380Y-43473809D01*
X198827380Y-43235714D01*
X197922619Y-44188095D02*
X197875000Y-44235714D01*
X197827380Y-44330952D01*
X197827380Y-44569047D01*
X197875000Y-44664285D01*
X197922619Y-44711904D01*
X198017857Y-44759523D01*
X198113095Y-44759523D01*
X198255952Y-44711904D01*
X198827380Y-44140476D01*
X198827380Y-44759523D01*
X198160714Y-45616666D02*
X198827380Y-45616666D01*
X197779761Y-45378571D02*
X198494047Y-45140476D01*
X198494047Y-45759523D01*
%TO.C,D23*%
X179777380Y-43235714D02*
X178777380Y-43235714D01*
X178777380Y-43473809D01*
X178825000Y-43616666D01*
X178920238Y-43711904D01*
X179015476Y-43759523D01*
X179205952Y-43807142D01*
X179348809Y-43807142D01*
X179539285Y-43759523D01*
X179634523Y-43711904D01*
X179729761Y-43616666D01*
X179777380Y-43473809D01*
X179777380Y-43235714D01*
X178872619Y-44188095D02*
X178825000Y-44235714D01*
X178777380Y-44330952D01*
X178777380Y-44569047D01*
X178825000Y-44664285D01*
X178872619Y-44711904D01*
X178967857Y-44759523D01*
X179063095Y-44759523D01*
X179205952Y-44711904D01*
X179777380Y-44140476D01*
X179777380Y-44759523D01*
X178777380Y-45092857D02*
X178777380Y-45711904D01*
X179158333Y-45378571D01*
X179158333Y-45521428D01*
X179205952Y-45616666D01*
X179253571Y-45664285D01*
X179348809Y-45711904D01*
X179586904Y-45711904D01*
X179682142Y-45664285D01*
X179729761Y-45616666D01*
X179777380Y-45521428D01*
X179777380Y-45235714D01*
X179729761Y-45140476D01*
X179682142Y-45092857D01*
%TO.C,D22*%
X160727380Y-43235714D02*
X159727380Y-43235714D01*
X159727380Y-43473809D01*
X159775000Y-43616666D01*
X159870238Y-43711904D01*
X159965476Y-43759523D01*
X160155952Y-43807142D01*
X160298809Y-43807142D01*
X160489285Y-43759523D01*
X160584523Y-43711904D01*
X160679761Y-43616666D01*
X160727380Y-43473809D01*
X160727380Y-43235714D01*
X159822619Y-44188095D02*
X159775000Y-44235714D01*
X159727380Y-44330952D01*
X159727380Y-44569047D01*
X159775000Y-44664285D01*
X159822619Y-44711904D01*
X159917857Y-44759523D01*
X160013095Y-44759523D01*
X160155952Y-44711904D01*
X160727380Y-44140476D01*
X160727380Y-44759523D01*
X159822619Y-45140476D02*
X159775000Y-45188095D01*
X159727380Y-45283333D01*
X159727380Y-45521428D01*
X159775000Y-45616666D01*
X159822619Y-45664285D01*
X159917857Y-45711904D01*
X160013095Y-45711904D01*
X160155952Y-45664285D01*
X160727380Y-45092857D01*
X160727380Y-45711904D01*
%TO.C,D21*%
X141677380Y-43235714D02*
X140677380Y-43235714D01*
X140677380Y-43473809D01*
X140725000Y-43616666D01*
X140820238Y-43711904D01*
X140915476Y-43759523D01*
X141105952Y-43807142D01*
X141248809Y-43807142D01*
X141439285Y-43759523D01*
X141534523Y-43711904D01*
X141629761Y-43616666D01*
X141677380Y-43473809D01*
X141677380Y-43235714D01*
X140772619Y-44188095D02*
X140725000Y-44235714D01*
X140677380Y-44330952D01*
X140677380Y-44569047D01*
X140725000Y-44664285D01*
X140772619Y-44711904D01*
X140867857Y-44759523D01*
X140963095Y-44759523D01*
X141105952Y-44711904D01*
X141677380Y-44140476D01*
X141677380Y-44759523D01*
X141677380Y-45711904D02*
X141677380Y-45140476D01*
X141677380Y-45426190D02*
X140677380Y-45426190D01*
X140820238Y-45330952D01*
X140915476Y-45235714D01*
X140963095Y-45140476D01*
%TO.C,D20*%
X122627380Y-43235714D02*
X121627380Y-43235714D01*
X121627380Y-43473809D01*
X121675000Y-43616666D01*
X121770238Y-43711904D01*
X121865476Y-43759523D01*
X122055952Y-43807142D01*
X122198809Y-43807142D01*
X122389285Y-43759523D01*
X122484523Y-43711904D01*
X122579761Y-43616666D01*
X122627380Y-43473809D01*
X122627380Y-43235714D01*
X121722619Y-44188095D02*
X121675000Y-44235714D01*
X121627380Y-44330952D01*
X121627380Y-44569047D01*
X121675000Y-44664285D01*
X121722619Y-44711904D01*
X121817857Y-44759523D01*
X121913095Y-44759523D01*
X122055952Y-44711904D01*
X122627380Y-44140476D01*
X122627380Y-44759523D01*
X121627380Y-45378571D02*
X121627380Y-45473809D01*
X121675000Y-45569047D01*
X121722619Y-45616666D01*
X121817857Y-45664285D01*
X122008333Y-45711904D01*
X122246428Y-45711904D01*
X122436904Y-45664285D01*
X122532142Y-45616666D01*
X122579761Y-45569047D01*
X122627380Y-45473809D01*
X122627380Y-45378571D01*
X122579761Y-45283333D01*
X122532142Y-45235714D01*
X122436904Y-45188095D01*
X122246428Y-45140476D01*
X122008333Y-45140476D01*
X121817857Y-45188095D01*
X121722619Y-45235714D01*
X121675000Y-45283333D01*
X121627380Y-45378571D01*
%TO.C,D19*%
X103577380Y-43235714D02*
X102577380Y-43235714D01*
X102577380Y-43473809D01*
X102625000Y-43616666D01*
X102720238Y-43711904D01*
X102815476Y-43759523D01*
X103005952Y-43807142D01*
X103148809Y-43807142D01*
X103339285Y-43759523D01*
X103434523Y-43711904D01*
X103529761Y-43616666D01*
X103577380Y-43473809D01*
X103577380Y-43235714D01*
X103577380Y-44759523D02*
X103577380Y-44188095D01*
X103577380Y-44473809D02*
X102577380Y-44473809D01*
X102720238Y-44378571D01*
X102815476Y-44283333D01*
X102863095Y-44188095D01*
X103577380Y-45235714D02*
X103577380Y-45426190D01*
X103529761Y-45521428D01*
X103482142Y-45569047D01*
X103339285Y-45664285D01*
X103148809Y-45711904D01*
X102767857Y-45711904D01*
X102672619Y-45664285D01*
X102625000Y-45616666D01*
X102577380Y-45521428D01*
X102577380Y-45330952D01*
X102625000Y-45235714D01*
X102672619Y-45188095D01*
X102767857Y-45140476D01*
X103005952Y-45140476D01*
X103101190Y-45188095D01*
X103148809Y-45235714D01*
X103196428Y-45330952D01*
X103196428Y-45521428D01*
X103148809Y-45616666D01*
X103101190Y-45664285D01*
X103005952Y-45711904D01*
%TO.C,D18*%
X84527380Y-43235714D02*
X83527380Y-43235714D01*
X83527380Y-43473809D01*
X83575000Y-43616666D01*
X83670238Y-43711904D01*
X83765476Y-43759523D01*
X83955952Y-43807142D01*
X84098809Y-43807142D01*
X84289285Y-43759523D01*
X84384523Y-43711904D01*
X84479761Y-43616666D01*
X84527380Y-43473809D01*
X84527380Y-43235714D01*
X84527380Y-44759523D02*
X84527380Y-44188095D01*
X84527380Y-44473809D02*
X83527380Y-44473809D01*
X83670238Y-44378571D01*
X83765476Y-44283333D01*
X83813095Y-44188095D01*
X83955952Y-45330952D02*
X83908333Y-45235714D01*
X83860714Y-45188095D01*
X83765476Y-45140476D01*
X83717857Y-45140476D01*
X83622619Y-45188095D01*
X83575000Y-45235714D01*
X83527380Y-45330952D01*
X83527380Y-45521428D01*
X83575000Y-45616666D01*
X83622619Y-45664285D01*
X83717857Y-45711904D01*
X83765476Y-45711904D01*
X83860714Y-45664285D01*
X83908333Y-45616666D01*
X83955952Y-45521428D01*
X83955952Y-45330952D01*
X84003571Y-45235714D01*
X84051190Y-45188095D01*
X84146428Y-45140476D01*
X84336904Y-45140476D01*
X84432142Y-45188095D01*
X84479761Y-45235714D01*
X84527380Y-45330952D01*
X84527380Y-45521428D01*
X84479761Y-45616666D01*
X84432142Y-45664285D01*
X84336904Y-45711904D01*
X84146428Y-45711904D01*
X84051190Y-45664285D01*
X84003571Y-45616666D01*
X83955952Y-45521428D01*
%TO.C,D17*%
X60714880Y-43235714D02*
X59714880Y-43235714D01*
X59714880Y-43473809D01*
X59762500Y-43616666D01*
X59857738Y-43711904D01*
X59952976Y-43759523D01*
X60143452Y-43807142D01*
X60286309Y-43807142D01*
X60476785Y-43759523D01*
X60572023Y-43711904D01*
X60667261Y-43616666D01*
X60714880Y-43473809D01*
X60714880Y-43235714D01*
X60714880Y-44759523D02*
X60714880Y-44188095D01*
X60714880Y-44473809D02*
X59714880Y-44473809D01*
X59857738Y-44378571D01*
X59952976Y-44283333D01*
X60000595Y-44188095D01*
X59714880Y-45092857D02*
X59714880Y-45759523D01*
X60714880Y-45330952D01*
%TO.C,D16*%
X32139880Y-43235714D02*
X31139880Y-43235714D01*
X31139880Y-43473809D01*
X31187500Y-43616666D01*
X31282738Y-43711904D01*
X31377976Y-43759523D01*
X31568452Y-43807142D01*
X31711309Y-43807142D01*
X31901785Y-43759523D01*
X31997023Y-43711904D01*
X32092261Y-43616666D01*
X32139880Y-43473809D01*
X32139880Y-43235714D01*
X32139880Y-44759523D02*
X32139880Y-44188095D01*
X32139880Y-44473809D02*
X31139880Y-44473809D01*
X31282738Y-44378571D01*
X31377976Y-44283333D01*
X31425595Y-44188095D01*
X31139880Y-45616666D02*
X31139880Y-45426190D01*
X31187500Y-45330952D01*
X31235119Y-45283333D01*
X31377976Y-45188095D01*
X31568452Y-45140476D01*
X31949404Y-45140476D01*
X32044642Y-45188095D01*
X32092261Y-45235714D01*
X32139880Y-45330952D01*
X32139880Y-45521428D01*
X32092261Y-45616666D01*
X32044642Y-45664285D01*
X31949404Y-45711904D01*
X31711309Y-45711904D01*
X31616071Y-45664285D01*
X31568452Y-45616666D01*
X31520833Y-45521428D01*
X31520833Y-45330952D01*
X31568452Y-45235714D01*
X31616071Y-45188095D01*
X31711309Y-45140476D01*
%TO.C,D15*%
X313127380Y-24185714D02*
X312127380Y-24185714D01*
X312127380Y-24423809D01*
X312175000Y-24566666D01*
X312270238Y-24661904D01*
X312365476Y-24709523D01*
X312555952Y-24757142D01*
X312698809Y-24757142D01*
X312889285Y-24709523D01*
X312984523Y-24661904D01*
X313079761Y-24566666D01*
X313127380Y-24423809D01*
X313127380Y-24185714D01*
X313127380Y-25709523D02*
X313127380Y-25138095D01*
X313127380Y-25423809D02*
X312127380Y-25423809D01*
X312270238Y-25328571D01*
X312365476Y-25233333D01*
X312413095Y-25138095D01*
X312127380Y-26614285D02*
X312127380Y-26138095D01*
X312603571Y-26090476D01*
X312555952Y-26138095D01*
X312508333Y-26233333D01*
X312508333Y-26471428D01*
X312555952Y-26566666D01*
X312603571Y-26614285D01*
X312698809Y-26661904D01*
X312936904Y-26661904D01*
X313032142Y-26614285D01*
X313079761Y-26566666D01*
X313127380Y-26471428D01*
X313127380Y-26233333D01*
X313079761Y-26138095D01*
X313032142Y-26090476D01*
%TO.C,D14*%
X284552380Y-24185714D02*
X283552380Y-24185714D01*
X283552380Y-24423809D01*
X283600000Y-24566666D01*
X283695238Y-24661904D01*
X283790476Y-24709523D01*
X283980952Y-24757142D01*
X284123809Y-24757142D01*
X284314285Y-24709523D01*
X284409523Y-24661904D01*
X284504761Y-24566666D01*
X284552380Y-24423809D01*
X284552380Y-24185714D01*
X284552380Y-25709523D02*
X284552380Y-25138095D01*
X284552380Y-25423809D02*
X283552380Y-25423809D01*
X283695238Y-25328571D01*
X283790476Y-25233333D01*
X283838095Y-25138095D01*
X283885714Y-26566666D02*
X284552380Y-26566666D01*
X283504761Y-26328571D02*
X284219047Y-26090476D01*
X284219047Y-26709523D01*
%TO.C,D13*%
X265502380Y-24185714D02*
X264502380Y-24185714D01*
X264502380Y-24423809D01*
X264550000Y-24566666D01*
X264645238Y-24661904D01*
X264740476Y-24709523D01*
X264930952Y-24757142D01*
X265073809Y-24757142D01*
X265264285Y-24709523D01*
X265359523Y-24661904D01*
X265454761Y-24566666D01*
X265502380Y-24423809D01*
X265502380Y-24185714D01*
X265502380Y-25709523D02*
X265502380Y-25138095D01*
X265502380Y-25423809D02*
X264502380Y-25423809D01*
X264645238Y-25328571D01*
X264740476Y-25233333D01*
X264788095Y-25138095D01*
X264502380Y-26042857D02*
X264502380Y-26661904D01*
X264883333Y-26328571D01*
X264883333Y-26471428D01*
X264930952Y-26566666D01*
X264978571Y-26614285D01*
X265073809Y-26661904D01*
X265311904Y-26661904D01*
X265407142Y-26614285D01*
X265454761Y-26566666D01*
X265502380Y-26471428D01*
X265502380Y-26185714D01*
X265454761Y-26090476D01*
X265407142Y-26042857D01*
%TO.C,D12*%
X246452380Y-24185714D02*
X245452380Y-24185714D01*
X245452380Y-24423809D01*
X245500000Y-24566666D01*
X245595238Y-24661904D01*
X245690476Y-24709523D01*
X245880952Y-24757142D01*
X246023809Y-24757142D01*
X246214285Y-24709523D01*
X246309523Y-24661904D01*
X246404761Y-24566666D01*
X246452380Y-24423809D01*
X246452380Y-24185714D01*
X246452380Y-25709523D02*
X246452380Y-25138095D01*
X246452380Y-25423809D02*
X245452380Y-25423809D01*
X245595238Y-25328571D01*
X245690476Y-25233333D01*
X245738095Y-25138095D01*
X245547619Y-26090476D02*
X245500000Y-26138095D01*
X245452380Y-26233333D01*
X245452380Y-26471428D01*
X245500000Y-26566666D01*
X245547619Y-26614285D01*
X245642857Y-26661904D01*
X245738095Y-26661904D01*
X245880952Y-26614285D01*
X246452380Y-26042857D01*
X246452380Y-26661904D01*
%TO.C,D11*%
X227402380Y-24185714D02*
X226402380Y-24185714D01*
X226402380Y-24423809D01*
X226450000Y-24566666D01*
X226545238Y-24661904D01*
X226640476Y-24709523D01*
X226830952Y-24757142D01*
X226973809Y-24757142D01*
X227164285Y-24709523D01*
X227259523Y-24661904D01*
X227354761Y-24566666D01*
X227402380Y-24423809D01*
X227402380Y-24185714D01*
X227402380Y-25709523D02*
X227402380Y-25138095D01*
X227402380Y-25423809D02*
X226402380Y-25423809D01*
X226545238Y-25328571D01*
X226640476Y-25233333D01*
X226688095Y-25138095D01*
X227402380Y-26661904D02*
X227402380Y-26090476D01*
X227402380Y-26376190D02*
X226402380Y-26376190D01*
X226545238Y-26280952D01*
X226640476Y-26185714D01*
X226688095Y-26090476D01*
%TO.C,D10*%
X208352380Y-24185714D02*
X207352380Y-24185714D01*
X207352380Y-24423809D01*
X207400000Y-24566666D01*
X207495238Y-24661904D01*
X207590476Y-24709523D01*
X207780952Y-24757142D01*
X207923809Y-24757142D01*
X208114285Y-24709523D01*
X208209523Y-24661904D01*
X208304761Y-24566666D01*
X208352380Y-24423809D01*
X208352380Y-24185714D01*
X208352380Y-25709523D02*
X208352380Y-25138095D01*
X208352380Y-25423809D02*
X207352380Y-25423809D01*
X207495238Y-25328571D01*
X207590476Y-25233333D01*
X207638095Y-25138095D01*
X207352380Y-26328571D02*
X207352380Y-26423809D01*
X207400000Y-26519047D01*
X207447619Y-26566666D01*
X207542857Y-26614285D01*
X207733333Y-26661904D01*
X207971428Y-26661904D01*
X208161904Y-26614285D01*
X208257142Y-26566666D01*
X208304761Y-26519047D01*
X208352380Y-26423809D01*
X208352380Y-26328571D01*
X208304761Y-26233333D01*
X208257142Y-26185714D01*
X208161904Y-26138095D01*
X207971428Y-26090476D01*
X207733333Y-26090476D01*
X207542857Y-26138095D01*
X207447619Y-26185714D01*
X207400000Y-26233333D01*
X207352380Y-26328571D01*
%TO.C,D9*%
X189302380Y-24661904D02*
X188302380Y-24661904D01*
X188302380Y-24900000D01*
X188350000Y-25042857D01*
X188445238Y-25138095D01*
X188540476Y-25185714D01*
X188730952Y-25233333D01*
X188873809Y-25233333D01*
X189064285Y-25185714D01*
X189159523Y-25138095D01*
X189254761Y-25042857D01*
X189302380Y-24900000D01*
X189302380Y-24661904D01*
X189302380Y-25709523D02*
X189302380Y-25900000D01*
X189254761Y-25995238D01*
X189207142Y-26042857D01*
X189064285Y-26138095D01*
X188873809Y-26185714D01*
X188492857Y-26185714D01*
X188397619Y-26138095D01*
X188350000Y-26090476D01*
X188302380Y-25995238D01*
X188302380Y-25804761D01*
X188350000Y-25709523D01*
X188397619Y-25661904D01*
X188492857Y-25614285D01*
X188730952Y-25614285D01*
X188826190Y-25661904D01*
X188873809Y-25709523D01*
X188921428Y-25804761D01*
X188921428Y-25995238D01*
X188873809Y-26090476D01*
X188826190Y-26138095D01*
X188730952Y-26185714D01*
%TO.C,D8*%
X170252380Y-24661904D02*
X169252380Y-24661904D01*
X169252380Y-24900000D01*
X169300000Y-25042857D01*
X169395238Y-25138095D01*
X169490476Y-25185714D01*
X169680952Y-25233333D01*
X169823809Y-25233333D01*
X170014285Y-25185714D01*
X170109523Y-25138095D01*
X170204761Y-25042857D01*
X170252380Y-24900000D01*
X170252380Y-24661904D01*
X169680952Y-25804761D02*
X169633333Y-25709523D01*
X169585714Y-25661904D01*
X169490476Y-25614285D01*
X169442857Y-25614285D01*
X169347619Y-25661904D01*
X169300000Y-25709523D01*
X169252380Y-25804761D01*
X169252380Y-25995238D01*
X169300000Y-26090476D01*
X169347619Y-26138095D01*
X169442857Y-26185714D01*
X169490476Y-26185714D01*
X169585714Y-26138095D01*
X169633333Y-26090476D01*
X169680952Y-25995238D01*
X169680952Y-25804761D01*
X169728571Y-25709523D01*
X169776190Y-25661904D01*
X169871428Y-25614285D01*
X170061904Y-25614285D01*
X170157142Y-25661904D01*
X170204761Y-25709523D01*
X170252380Y-25804761D01*
X170252380Y-25995238D01*
X170204761Y-26090476D01*
X170157142Y-26138095D01*
X170061904Y-26185714D01*
X169871428Y-26185714D01*
X169776190Y-26138095D01*
X169728571Y-26090476D01*
X169680952Y-25995238D01*
%TO.C,D7*%
X151202380Y-24661904D02*
X150202380Y-24661904D01*
X150202380Y-24900000D01*
X150250000Y-25042857D01*
X150345238Y-25138095D01*
X150440476Y-25185714D01*
X150630952Y-25233333D01*
X150773809Y-25233333D01*
X150964285Y-25185714D01*
X151059523Y-25138095D01*
X151154761Y-25042857D01*
X151202380Y-24900000D01*
X151202380Y-24661904D01*
X150202380Y-25566666D02*
X150202380Y-26233333D01*
X151202380Y-25804761D01*
%TO.C,D6*%
X132152380Y-24661904D02*
X131152380Y-24661904D01*
X131152380Y-24900000D01*
X131200000Y-25042857D01*
X131295238Y-25138095D01*
X131390476Y-25185714D01*
X131580952Y-25233333D01*
X131723809Y-25233333D01*
X131914285Y-25185714D01*
X132009523Y-25138095D01*
X132104761Y-25042857D01*
X132152380Y-24900000D01*
X132152380Y-24661904D01*
X131152380Y-26090476D02*
X131152380Y-25900000D01*
X131200000Y-25804761D01*
X131247619Y-25757142D01*
X131390476Y-25661904D01*
X131580952Y-25614285D01*
X131961904Y-25614285D01*
X132057142Y-25661904D01*
X132104761Y-25709523D01*
X132152380Y-25804761D01*
X132152380Y-25995238D01*
X132104761Y-26090476D01*
X132057142Y-26138095D01*
X131961904Y-26185714D01*
X131723809Y-26185714D01*
X131628571Y-26138095D01*
X131580952Y-26090476D01*
X131533333Y-25995238D01*
X131533333Y-25804761D01*
X131580952Y-25709523D01*
X131628571Y-25661904D01*
X131723809Y-25614285D01*
%TO.C,D5*%
X113102380Y-24661904D02*
X112102380Y-24661904D01*
X112102380Y-24900000D01*
X112150000Y-25042857D01*
X112245238Y-25138095D01*
X112340476Y-25185714D01*
X112530952Y-25233333D01*
X112673809Y-25233333D01*
X112864285Y-25185714D01*
X112959523Y-25138095D01*
X113054761Y-25042857D01*
X113102380Y-24900000D01*
X113102380Y-24661904D01*
X112102380Y-26138095D02*
X112102380Y-25661904D01*
X112578571Y-25614285D01*
X112530952Y-25661904D01*
X112483333Y-25757142D01*
X112483333Y-25995238D01*
X112530952Y-26090476D01*
X112578571Y-26138095D01*
X112673809Y-26185714D01*
X112911904Y-26185714D01*
X113007142Y-26138095D01*
X113054761Y-26090476D01*
X113102380Y-25995238D01*
X113102380Y-25757142D01*
X113054761Y-25661904D01*
X113007142Y-25614285D01*
%TO.C,D4*%
X94052380Y-24661904D02*
X93052380Y-24661904D01*
X93052380Y-24900000D01*
X93100000Y-25042857D01*
X93195238Y-25138095D01*
X93290476Y-25185714D01*
X93480952Y-25233333D01*
X93623809Y-25233333D01*
X93814285Y-25185714D01*
X93909523Y-25138095D01*
X94004761Y-25042857D01*
X94052380Y-24900000D01*
X94052380Y-24661904D01*
X93385714Y-26090476D02*
X94052380Y-26090476D01*
X93004761Y-25852380D02*
X93719047Y-25614285D01*
X93719047Y-26233333D01*
%TO.C,D3*%
X75002380Y-24661904D02*
X74002380Y-24661904D01*
X74002380Y-24900000D01*
X74050000Y-25042857D01*
X74145238Y-25138095D01*
X74240476Y-25185714D01*
X74430952Y-25233333D01*
X74573809Y-25233333D01*
X74764285Y-25185714D01*
X74859523Y-25138095D01*
X74954761Y-25042857D01*
X75002380Y-24900000D01*
X75002380Y-24661904D01*
X74002380Y-25566666D02*
X74002380Y-26185714D01*
X74383333Y-25852380D01*
X74383333Y-25995238D01*
X74430952Y-26090476D01*
X74478571Y-26138095D01*
X74573809Y-26185714D01*
X74811904Y-26185714D01*
X74907142Y-26138095D01*
X74954761Y-26090476D01*
X75002380Y-25995238D01*
X75002380Y-25709523D01*
X74954761Y-25614285D01*
X74907142Y-25566666D01*
%TO.C,D2*%
X55952380Y-24661904D02*
X54952380Y-24661904D01*
X54952380Y-24900000D01*
X55000000Y-25042857D01*
X55095238Y-25138095D01*
X55190476Y-25185714D01*
X55380952Y-25233333D01*
X55523809Y-25233333D01*
X55714285Y-25185714D01*
X55809523Y-25138095D01*
X55904761Y-25042857D01*
X55952380Y-24900000D01*
X55952380Y-24661904D01*
X55047619Y-25614285D02*
X55000000Y-25661904D01*
X54952380Y-25757142D01*
X54952380Y-25995238D01*
X55000000Y-26090476D01*
X55047619Y-26138095D01*
X55142857Y-26185714D01*
X55238095Y-26185714D01*
X55380952Y-26138095D01*
X55952380Y-25566666D01*
X55952380Y-26185714D01*
%TO.C,D1*%
X32139880Y-24661904D02*
X31139880Y-24661904D01*
X31139880Y-24900000D01*
X31187500Y-25042857D01*
X31282738Y-25138095D01*
X31377976Y-25185714D01*
X31568452Y-25233333D01*
X31711309Y-25233333D01*
X31901785Y-25185714D01*
X31997023Y-25138095D01*
X32092261Y-25042857D01*
X32139880Y-24900000D01*
X32139880Y-24661904D01*
X32139880Y-26185714D02*
X32139880Y-25614285D01*
X32139880Y-25900000D02*
X31139880Y-25900000D01*
X31282738Y-25804761D01*
X31377976Y-25709523D01*
X31425595Y-25614285D01*
%TO.C,C11*%
X336116142Y-24757142D02*
X336163761Y-24709523D01*
X336211380Y-24566666D01*
X336211380Y-24471428D01*
X336163761Y-24328571D01*
X336068523Y-24233333D01*
X335973285Y-24185714D01*
X335782809Y-24138095D01*
X335639952Y-24138095D01*
X335449476Y-24185714D01*
X335354238Y-24233333D01*
X335259000Y-24328571D01*
X335211380Y-24471428D01*
X335211380Y-24566666D01*
X335259000Y-24709523D01*
X335306619Y-24757142D01*
X336211380Y-25709523D02*
X336211380Y-25138095D01*
X336211380Y-25423809D02*
X335211380Y-25423809D01*
X335354238Y-25328571D01*
X335449476Y-25233333D01*
X335497095Y-25138095D01*
X336211380Y-26661904D02*
X336211380Y-26090476D01*
X336211380Y-26376190D02*
X335211380Y-26376190D01*
X335354238Y-26280952D01*
X335449476Y-26185714D01*
X335497095Y-26090476D01*
%TD*%
M02*
