%TF.GenerationSoftware,KiCad,Pcbnew,(5.1.9)-1*%
%TF.CreationDate,2021-05-06T09:00:53-07:00*%
%TF.ProjectId,USKB Final,55534b42-2046-4696-9e61-6c2e6b696361,rev?*%
%TF.SameCoordinates,Original*%
%TF.FileFunction,Soldermask,Bot*%
%TF.FilePolarity,Negative*%
%FSLAX46Y46*%
G04 Gerber Fmt 4.6, Leading zero omitted, Abs format (unit mm)*
G04 Created by KiCad (PCBNEW (5.1.9)-1) date 2021-05-06 09:00:53*
%MOMM*%
%LPD*%
G01*
G04 APERTURE LIST*
%TA.AperFunction,Profile*%
%ADD10C,0.050000*%
%TD*%
%ADD11C,3.987800*%
%ADD12C,3.048000*%
%ADD13C,1.750000*%
%ADD14R,1.905000X1.905000*%
%ADD15C,1.905000*%
%ADD16C,2.250000*%
%ADD17R,2.000000X2.000000*%
%ADD18C,2.000000*%
%ADD19R,3.200000X2.000000*%
%ADD20C,1.524000*%
%ADD21C,1.397000*%
%ADD22R,1.200000X0.900000*%
G04 APERTURE END LIST*
D10*
X19050000Y-25400000D02*
X400050000Y-25400000D01*
X19050000Y-127000000D02*
X19843750Y-127000000D01*
X19050000Y-127000000D02*
G75*
G02*
X16668750Y-124618750I0J2381250D01*
G01*
X16668750Y-27781250D02*
X16668750Y-124618750D01*
X16668750Y-27781250D02*
G75*
G02*
X19050000Y-25400000I2381250J0D01*
G01*
X400050000Y-127000000D02*
X19843750Y-127000000D01*
X402431250Y-124618750D02*
G75*
G02*
X400050000Y-127000000I-2381250J0D01*
G01*
X402431250Y-27781250D02*
X402431250Y-124618750D01*
X400050000Y-25400000D02*
G75*
G02*
X402431250Y-27781250I0J-2381250D01*
G01*
D11*
%TO.C,K_Backspace1*%
X321437000Y-28257500D03*
X345313000Y-28257500D03*
D12*
X321437000Y-43497500D03*
X345313000Y-43497500D03*
D13*
X328295000Y-36512500D03*
X338455000Y-36512500D03*
D14*
X332105000Y-31432500D03*
D15*
X334645000Y-31432500D03*
D16*
X335875000Y-40512500D03*
D11*
X333375000Y-36512500D03*
G36*
G01*
X337937772Y-38216462D02*
X337936317Y-38215155D01*
G75*
G02*
X338022345Y-39803817I-751317J-837345D01*
G01*
X336712343Y-41263817D01*
G75*
G02*
X335123681Y-41349845I-837345J751317D01*
G01*
X335123681Y-41349845D01*
G75*
G02*
X335037653Y-39761183I751317J837345D01*
G01*
X336347655Y-38301183D01*
G75*
G02*
X337936317Y-38215155I837345J-751317D01*
G01*
G37*
D16*
X330835000Y-41592500D03*
G36*
G01*
X330953476Y-39890240D02*
X330952403Y-39890166D01*
G75*
G02*
X331997334Y-41089903I-77403J-1122334D01*
G01*
X331957334Y-41669903D01*
G75*
G02*
X330757597Y-42714834I-1122334J77403D01*
G01*
X330757597Y-42714834D01*
G75*
G02*
X329712666Y-41515097I77403J1122334D01*
G01*
X329752666Y-40935097D01*
G75*
G02*
X330952403Y-39890166I1122334J-77403D01*
G01*
G37*
%TD*%
D11*
%TO.C,K_Space_2*%
X171418250Y-104457500D03*
X195294250Y-104457500D03*
D12*
X171418250Y-119697500D03*
X195294250Y-119697500D03*
D13*
X178276250Y-112712500D03*
X188436250Y-112712500D03*
D14*
X182086250Y-107632500D03*
D15*
X184626250Y-107632500D03*
D16*
X185856250Y-116712500D03*
D11*
X183356250Y-112712500D03*
G36*
G01*
X187919022Y-114416462D02*
X187917567Y-114415155D01*
G75*
G02*
X188003595Y-116003817I-751317J-837345D01*
G01*
X186693593Y-117463817D01*
G75*
G02*
X185104931Y-117549845I-837345J751317D01*
G01*
X185104931Y-117549845D01*
G75*
G02*
X185018903Y-115961183I751317J837345D01*
G01*
X186328905Y-114501183D01*
G75*
G02*
X187917567Y-114415155I837345J-751317D01*
G01*
G37*
D16*
X180816250Y-117792500D03*
G36*
G01*
X180934726Y-116090240D02*
X180933653Y-116090166D01*
G75*
G02*
X181978584Y-117289903I-77403J-1122334D01*
G01*
X181938584Y-117869903D01*
G75*
G02*
X180738847Y-118914834I-1122334J77403D01*
G01*
X180738847Y-118914834D01*
G75*
G02*
X179693916Y-117715097I77403J1122334D01*
G01*
X179733916Y-117135097D01*
G75*
G02*
X180933653Y-116090166I1122334J-77403D01*
G01*
G37*
%TD*%
D13*
%TO.C,K_Space_3*%
X216376250Y-112712500D03*
X226536250Y-112712500D03*
D14*
X220186250Y-107632500D03*
D15*
X222726250Y-107632500D03*
D16*
X223956250Y-116712500D03*
D11*
X221456250Y-112712500D03*
G36*
G01*
X226019022Y-114416462D02*
X226017567Y-114415155D01*
G75*
G02*
X226103595Y-116003817I-751317J-837345D01*
G01*
X224793593Y-117463817D01*
G75*
G02*
X223204931Y-117549845I-837345J751317D01*
G01*
X223204931Y-117549845D01*
G75*
G02*
X223118903Y-115961183I751317J837345D01*
G01*
X224428905Y-114501183D01*
G75*
G02*
X226017567Y-114415155I837345J-751317D01*
G01*
G37*
D16*
X218916250Y-117792500D03*
G36*
G01*
X219034726Y-116090240D02*
X219033653Y-116090166D01*
G75*
G02*
X220078584Y-117289903I-77403J-1122334D01*
G01*
X220038584Y-117869903D01*
G75*
G02*
X218838847Y-118914834I-1122334J77403D01*
G01*
X218838847Y-118914834D01*
G75*
G02*
X217793916Y-117715097I77403J1122334D01*
G01*
X217833916Y-117135097D01*
G75*
G02*
X219033653Y-116090166I1122334J-77403D01*
G01*
G37*
%TD*%
%TO.C,R1*%
G36*
G01*
X363912998Y-35039250D02*
X364813002Y-35039250D01*
G75*
G02*
X365063000Y-35289248I0J-249998D01*
G01*
X365063000Y-35814252D01*
G75*
G02*
X364813002Y-36064250I-249998J0D01*
G01*
X363912998Y-36064250D01*
G75*
G02*
X363663000Y-35814252I0J249998D01*
G01*
X363663000Y-35289248D01*
G75*
G02*
X363912998Y-35039250I249998J0D01*
G01*
G37*
G36*
G01*
X363912998Y-33214250D02*
X364813002Y-33214250D01*
G75*
G02*
X365063000Y-33464248I0J-249998D01*
G01*
X365063000Y-33989252D01*
G75*
G02*
X364813002Y-34239250I-249998J0D01*
G01*
X363912998Y-34239250D01*
G75*
G02*
X363663000Y-33989252I0J249998D01*
G01*
X363663000Y-33464248D01*
G75*
G02*
X363912998Y-33214250I249998J0D01*
G01*
G37*
%TD*%
%TO.C,R2*%
G36*
G01*
X364813002Y-38303250D02*
X363912998Y-38303250D01*
G75*
G02*
X363663000Y-38053252I0J249998D01*
G01*
X363663000Y-37528248D01*
G75*
G02*
X363912998Y-37278250I249998J0D01*
G01*
X364813002Y-37278250D01*
G75*
G02*
X365063000Y-37528248I0J-249998D01*
G01*
X365063000Y-38053252D01*
G75*
G02*
X364813002Y-38303250I-249998J0D01*
G01*
G37*
G36*
G01*
X364813002Y-40128250D02*
X363912998Y-40128250D01*
G75*
G02*
X363663000Y-39878252I0J249998D01*
G01*
X363663000Y-39353248D01*
G75*
G02*
X363912998Y-39103250I249998J0D01*
G01*
X364813002Y-39103250D01*
G75*
G02*
X365063000Y-39353248I0J-249998D01*
G01*
X365063000Y-39878252D01*
G75*
G02*
X364813002Y-40128250I-249998J0D01*
G01*
G37*
%TD*%
%TO.C,R3*%
G36*
G01*
X368611998Y-37094750D02*
X369512002Y-37094750D01*
G75*
G02*
X369762000Y-37344748I0J-249998D01*
G01*
X369762000Y-37869752D01*
G75*
G02*
X369512002Y-38119750I-249998J0D01*
G01*
X368611998Y-38119750D01*
G75*
G02*
X368362000Y-37869752I0J249998D01*
G01*
X368362000Y-37344748D01*
G75*
G02*
X368611998Y-37094750I249998J0D01*
G01*
G37*
G36*
G01*
X368611998Y-35269750D02*
X369512002Y-35269750D01*
G75*
G02*
X369762000Y-35519748I0J-249998D01*
G01*
X369762000Y-36044752D01*
G75*
G02*
X369512002Y-36294750I-249998J0D01*
G01*
X368611998Y-36294750D01*
G75*
G02*
X368362000Y-36044752I0J249998D01*
G01*
X368362000Y-35519748D01*
G75*
G02*
X368611998Y-35269750I249998J0D01*
G01*
G37*
%TD*%
%TO.C,C3*%
G36*
G01*
X371823000Y-36287250D02*
X370873000Y-36287250D01*
G75*
G02*
X370623000Y-36037250I0J250000D01*
G01*
X370623000Y-35537250D01*
G75*
G02*
X370873000Y-35287250I250000J0D01*
G01*
X371823000Y-35287250D01*
G75*
G02*
X372073000Y-35537250I0J-250000D01*
G01*
X372073000Y-36037250D01*
G75*
G02*
X371823000Y-36287250I-250000J0D01*
G01*
G37*
G36*
G01*
X371823000Y-38187250D02*
X370873000Y-38187250D01*
G75*
G02*
X370623000Y-37937250I0J250000D01*
G01*
X370623000Y-37437250D01*
G75*
G02*
X370873000Y-37187250I250000J0D01*
G01*
X371823000Y-37187250D01*
G75*
G02*
X372073000Y-37437250I0J-250000D01*
G01*
X372073000Y-37937250D01*
G75*
G02*
X371823000Y-38187250I-250000J0D01*
G01*
G37*
%TD*%
%TO.C,C2*%
G36*
G01*
X361475000Y-39153250D02*
X362425000Y-39153250D01*
G75*
G02*
X362675000Y-39403250I0J-250000D01*
G01*
X362675000Y-39903250D01*
G75*
G02*
X362425000Y-40153250I-250000J0D01*
G01*
X361475000Y-40153250D01*
G75*
G02*
X361225000Y-39903250I0J250000D01*
G01*
X361225000Y-39403250D01*
G75*
G02*
X361475000Y-39153250I250000J0D01*
G01*
G37*
G36*
G01*
X361475000Y-37253250D02*
X362425000Y-37253250D01*
G75*
G02*
X362675000Y-37503250I0J-250000D01*
G01*
X362675000Y-38003250D01*
G75*
G02*
X362425000Y-38253250I-250000J0D01*
G01*
X361475000Y-38253250D01*
G75*
G02*
X361225000Y-38003250I0J250000D01*
G01*
X361225000Y-37503250D01*
G75*
G02*
X361475000Y-37253250I250000J0D01*
G01*
G37*
%TD*%
%TO.C,C1*%
G36*
G01*
X362425000Y-34189250D02*
X361475000Y-34189250D01*
G75*
G02*
X361225000Y-33939250I0J250000D01*
G01*
X361225000Y-33439250D01*
G75*
G02*
X361475000Y-33189250I250000J0D01*
G01*
X362425000Y-33189250D01*
G75*
G02*
X362675000Y-33439250I0J-250000D01*
G01*
X362675000Y-33939250D01*
G75*
G02*
X362425000Y-34189250I-250000J0D01*
G01*
G37*
G36*
G01*
X362425000Y-36089250D02*
X361475000Y-36089250D01*
G75*
G02*
X361225000Y-35839250I0J250000D01*
G01*
X361225000Y-35339250D01*
G75*
G02*
X361475000Y-35089250I250000J0D01*
G01*
X362425000Y-35089250D01*
G75*
G02*
X362675000Y-35339250I0J-250000D01*
G01*
X362675000Y-35839250D01*
G75*
G02*
X362425000Y-36089250I-250000J0D01*
G01*
G37*
%TD*%
D17*
%TO.C,ENC1*%
X359187750Y-34131250D03*
D18*
X359187750Y-36631250D03*
X359187750Y-39131250D03*
D19*
X366687750Y-31031250D03*
X366687750Y-42231250D03*
D18*
X373687750Y-34131250D03*
X373687750Y-39131250D03*
%TD*%
D13*
%TO.C,K_Space_4*%
X240188750Y-112712500D03*
X250348750Y-112712500D03*
D14*
X243998750Y-107632500D03*
D15*
X246538750Y-107632500D03*
D16*
X247768750Y-116712500D03*
D11*
X245268750Y-112712500D03*
G36*
G01*
X249831522Y-114416462D02*
X249830067Y-114415155D01*
G75*
G02*
X249916095Y-116003817I-751317J-837345D01*
G01*
X248606093Y-117463817D01*
G75*
G02*
X247017431Y-117549845I-837345J751317D01*
G01*
X247017431Y-117549845D01*
G75*
G02*
X246931403Y-115961183I751317J837345D01*
G01*
X248241405Y-114501183D01*
G75*
G02*
X249830067Y-114415155I837345J-751317D01*
G01*
G37*
D16*
X242728750Y-117792500D03*
G36*
G01*
X242847226Y-116090240D02*
X242846153Y-116090166D01*
G75*
G02*
X243891084Y-117289903I-77403J-1122334D01*
G01*
X243851084Y-117869903D01*
G75*
G02*
X242651347Y-118914834I-1122334J77403D01*
G01*
X242651347Y-118914834D01*
G75*
G02*
X241606416Y-117715097I77403J1122334D01*
G01*
X241646416Y-117135097D01*
G75*
G02*
X242846153Y-116090166I1122334J-77403D01*
G01*
G37*
%TD*%
D13*
%TO.C,K_Space1*%
X142557500Y-112712500D03*
X152717500Y-112712500D03*
D14*
X146367500Y-107632500D03*
D15*
X148907500Y-107632500D03*
D16*
X150137500Y-116712500D03*
D11*
X147637500Y-112712500D03*
G36*
G01*
X152200272Y-114416462D02*
X152198817Y-114415155D01*
G75*
G02*
X152284845Y-116003817I-751317J-837345D01*
G01*
X150974843Y-117463817D01*
G75*
G02*
X149386181Y-117549845I-837345J751317D01*
G01*
X149386181Y-117549845D01*
G75*
G02*
X149300153Y-115961183I751317J837345D01*
G01*
X150610155Y-114501183D01*
G75*
G02*
X152198817Y-114415155I837345J-751317D01*
G01*
G37*
D16*
X145097500Y-117792500D03*
G36*
G01*
X145215976Y-116090240D02*
X145214903Y-116090166D01*
G75*
G02*
X146259834Y-117289903I-77403J-1122334D01*
G01*
X146219834Y-117869903D01*
G75*
G02*
X145020097Y-118914834I-1122334J77403D01*
G01*
X145020097Y-118914834D01*
G75*
G02*
X143975166Y-117715097I77403J1122334D01*
G01*
X144015166Y-117135097D01*
G75*
G02*
X145214903Y-116090166I1122334J-77403D01*
G01*
G37*
%TD*%
D20*
%TO.C,U1*%
X383710150Y-30765750D03*
X383710150Y-33305750D03*
X383710150Y-35845750D03*
X383710150Y-38385750D03*
X383710150Y-40925750D03*
X383710150Y-43465750D03*
X383710150Y-46005750D03*
X383710150Y-48545750D03*
X383710150Y-51085750D03*
X383710150Y-53625750D03*
X383710150Y-56165750D03*
X383710150Y-58705750D03*
X398930150Y-58705750D03*
X398930150Y-56165750D03*
X398930150Y-53625750D03*
X398930150Y-51085750D03*
X398930150Y-48545750D03*
X398930150Y-46005750D03*
X398930150Y-43465750D03*
X398930150Y-40925750D03*
X398930150Y-38385750D03*
X398930150Y-35845750D03*
X398930150Y-33305750D03*
X398930150Y-30765750D03*
%TD*%
%TO.C,L_U1*%
X35412650Y-30765750D03*
X35412650Y-33305750D03*
X35412650Y-35845750D03*
X35412650Y-38385750D03*
X35412650Y-40925750D03*
X35412650Y-43465750D03*
X35412650Y-46005750D03*
X35412650Y-48545750D03*
X35412650Y-51085750D03*
X35412650Y-53625750D03*
X35412650Y-56165750D03*
X35412650Y-58705750D03*
X20152650Y-58705750D03*
X20152650Y-56165750D03*
X20152650Y-53625750D03*
X20152650Y-51085750D03*
X20152650Y-48545750D03*
X20152650Y-46005750D03*
X20152650Y-43465750D03*
X20152650Y-40925750D03*
X20152650Y-38385750D03*
X20152650Y-35845750D03*
X20152650Y-33305750D03*
X20152650Y-30765750D03*
%TD*%
D13*
%TO.C,K_Caps1*%
X78263750Y-74612500D03*
X88423750Y-74612500D03*
D14*
X82073750Y-69532500D03*
D15*
X84613750Y-69532500D03*
D16*
X85843750Y-78612500D03*
D11*
X83343750Y-74612500D03*
G36*
G01*
X87906522Y-76316462D02*
X87905067Y-76315155D01*
G75*
G02*
X87991095Y-77903817I-751317J-837345D01*
G01*
X86681093Y-79363817D01*
G75*
G02*
X85092431Y-79449845I-837345J751317D01*
G01*
X85092431Y-79449845D01*
G75*
G02*
X85006403Y-77861183I751317J837345D01*
G01*
X86316405Y-76401183D01*
G75*
G02*
X87905067Y-76315155I837345J-751317D01*
G01*
G37*
D16*
X80803750Y-79692500D03*
G36*
G01*
X80922226Y-77990240D02*
X80921153Y-77990166D01*
G75*
G02*
X81966084Y-79189903I-77403J-1122334D01*
G01*
X81926084Y-79769903D01*
G75*
G02*
X80726347Y-80814834I-1122334J77403D01*
G01*
X80726347Y-80814834D01*
G75*
G02*
X79681416Y-79615097I77403J1122334D01*
G01*
X79721416Y-79035097D01*
G75*
G02*
X80921153Y-77990166I1122334J-77403D01*
G01*
G37*
%TD*%
D13*
%TO.C,K_Shift2*%
X311626250Y-93662500D03*
X321786250Y-93662500D03*
D14*
X315436250Y-88582500D03*
D15*
X317976250Y-88582500D03*
D16*
X319206250Y-97662500D03*
D11*
X316706250Y-93662500D03*
G36*
G01*
X321269022Y-95366462D02*
X321267567Y-95365155D01*
G75*
G02*
X321353595Y-96953817I-751317J-837345D01*
G01*
X320043593Y-98413817D01*
G75*
G02*
X318454931Y-98499845I-837345J751317D01*
G01*
X318454931Y-98499845D01*
G75*
G02*
X318368903Y-96911183I751317J837345D01*
G01*
X319678905Y-95451183D01*
G75*
G02*
X321267567Y-95365155I837345J-751317D01*
G01*
G37*
D16*
X314166250Y-98742500D03*
G36*
G01*
X314284726Y-97040240D02*
X314283653Y-97040166D01*
G75*
G02*
X315328584Y-98239903I-77403J-1122334D01*
G01*
X315288584Y-98819903D01*
G75*
G02*
X314088847Y-99864834I-1122334J77403D01*
G01*
X314088847Y-99864834D01*
G75*
G02*
X313043916Y-98665097I77403J1122334D01*
G01*
X313083916Y-98085097D01*
G75*
G02*
X314283653Y-97040166I1122334J-77403D01*
G01*
G37*
%TD*%
%TO.C,R6*%
G36*
G01*
X53905998Y-37579250D02*
X54806002Y-37579250D01*
G75*
G02*
X55056000Y-37829248I0J-249998D01*
G01*
X55056000Y-38354252D01*
G75*
G02*
X54806002Y-38604250I-249998J0D01*
G01*
X53905998Y-38604250D01*
G75*
G02*
X53656000Y-38354252I0J249998D01*
G01*
X53656000Y-37829248D01*
G75*
G02*
X53905998Y-37579250I249998J0D01*
G01*
G37*
G36*
G01*
X53905998Y-35754250D02*
X54806002Y-35754250D01*
G75*
G02*
X55056000Y-36004248I0J-249998D01*
G01*
X55056000Y-36529252D01*
G75*
G02*
X54806002Y-36779250I-249998J0D01*
G01*
X53905998Y-36779250D01*
G75*
G02*
X53656000Y-36529252I0J249998D01*
G01*
X53656000Y-36004248D01*
G75*
G02*
X53905998Y-35754250I249998J0D01*
G01*
G37*
%TD*%
%TO.C,R5*%
G36*
G01*
X50101922Y-38044170D02*
X49201918Y-38044170D01*
G75*
G02*
X48951920Y-37794172I0J249998D01*
G01*
X48951920Y-37269168D01*
G75*
G02*
X49201918Y-37019170I249998J0D01*
G01*
X50101922Y-37019170D01*
G75*
G02*
X50351920Y-37269168I0J-249998D01*
G01*
X50351920Y-37794172D01*
G75*
G02*
X50101922Y-38044170I-249998J0D01*
G01*
G37*
G36*
G01*
X50101922Y-39869170D02*
X49201918Y-39869170D01*
G75*
G02*
X48951920Y-39619172I0J249998D01*
G01*
X48951920Y-39094168D01*
G75*
G02*
X49201918Y-38844170I249998J0D01*
G01*
X50101922Y-38844170D01*
G75*
G02*
X50351920Y-39094168I0J-249998D01*
G01*
X50351920Y-39619172D01*
G75*
G02*
X50101922Y-39869170I-249998J0D01*
G01*
G37*
%TD*%
%TO.C,R4*%
G36*
G01*
X49201918Y-35267850D02*
X50101922Y-35267850D01*
G75*
G02*
X50351920Y-35517848I0J-249998D01*
G01*
X50351920Y-36042852D01*
G75*
G02*
X50101922Y-36292850I-249998J0D01*
G01*
X49201918Y-36292850D01*
G75*
G02*
X48951920Y-36042852I0J249998D01*
G01*
X48951920Y-35517848D01*
G75*
G02*
X49201918Y-35267850I249998J0D01*
G01*
G37*
G36*
G01*
X49201918Y-33442850D02*
X50101922Y-33442850D01*
G75*
G02*
X50351920Y-33692848I0J-249998D01*
G01*
X50351920Y-34217852D01*
G75*
G02*
X50101922Y-34467850I-249998J0D01*
G01*
X49201918Y-34467850D01*
G75*
G02*
X48951920Y-34217852I0J249998D01*
G01*
X48951920Y-33692848D01*
G75*
G02*
X49201918Y-33442850I249998J0D01*
G01*
G37*
%TD*%
D21*
%TO.C,OL1*%
X387667500Y-66675000D03*
X390207500Y-66675000D03*
X392747500Y-66675000D03*
X395287500Y-66675000D03*
%TD*%
%TO.C,L_OL1*%
X24130000Y-66675000D03*
X26670000Y-66675000D03*
X29210000Y-66675000D03*
X31750000Y-66675000D03*
%TD*%
D17*
%TO.C,L_ENC1*%
X44831000Y-34036000D03*
D18*
X44831000Y-36536000D03*
X44831000Y-39036000D03*
D19*
X52331000Y-30936000D03*
X52331000Y-42136000D03*
D18*
X59331000Y-34036000D03*
X59331000Y-39036000D03*
%TD*%
D13*
%TO.C,K_Z1*%
X113982500Y-93662500D03*
X124142500Y-93662500D03*
D14*
X117792500Y-88582500D03*
D15*
X120332500Y-88582500D03*
D16*
X121562500Y-97662500D03*
D11*
X119062500Y-93662500D03*
G36*
G01*
X123625272Y-95366462D02*
X123623817Y-95365155D01*
G75*
G02*
X123709845Y-96953817I-751317J-837345D01*
G01*
X122399843Y-98413817D01*
G75*
G02*
X120811181Y-98499845I-837345J751317D01*
G01*
X120811181Y-98499845D01*
G75*
G02*
X120725153Y-96911183I751317J837345D01*
G01*
X122035155Y-95451183D01*
G75*
G02*
X123623817Y-95365155I837345J-751317D01*
G01*
G37*
D16*
X116522500Y-98742500D03*
G36*
G01*
X116640976Y-97040240D02*
X116639903Y-97040166D01*
G75*
G02*
X117684834Y-98239903I-77403J-1122334D01*
G01*
X117644834Y-98819903D01*
G75*
G02*
X116445097Y-99864834I-1122334J77403D01*
G01*
X116445097Y-99864834D01*
G75*
G02*
X115400166Y-98665097I77403J1122334D01*
G01*
X115440166Y-98085097D01*
G75*
G02*
X116639903Y-97040166I1122334J-77403D01*
G01*
G37*
%TD*%
D13*
%TO.C,K_Y1*%
X194945000Y-55562500D03*
X205105000Y-55562500D03*
D14*
X198755000Y-50482500D03*
D15*
X201295000Y-50482500D03*
D16*
X202525000Y-59562500D03*
D11*
X200025000Y-55562500D03*
G36*
G01*
X204587772Y-57266462D02*
X204586317Y-57265155D01*
G75*
G02*
X204672345Y-58853817I-751317J-837345D01*
G01*
X203362343Y-60313817D01*
G75*
G02*
X201773681Y-60399845I-837345J751317D01*
G01*
X201773681Y-60399845D01*
G75*
G02*
X201687653Y-58811183I751317J837345D01*
G01*
X202997655Y-57351183D01*
G75*
G02*
X204586317Y-57265155I837345J-751317D01*
G01*
G37*
D16*
X197485000Y-60642500D03*
G36*
G01*
X197603476Y-58940240D02*
X197602403Y-58940166D01*
G75*
G02*
X198647334Y-60139903I-77403J-1122334D01*
G01*
X198607334Y-60719903D01*
G75*
G02*
X197407597Y-61764834I-1122334J77403D01*
G01*
X197407597Y-61764834D01*
G75*
G02*
X196362666Y-60565097I77403J1122334D01*
G01*
X196402666Y-59985097D01*
G75*
G02*
X197602403Y-58940166I1122334J-77403D01*
G01*
G37*
%TD*%
D13*
%TO.C,K_X1*%
X133032500Y-93662500D03*
X143192500Y-93662500D03*
D14*
X136842500Y-88582500D03*
D15*
X139382500Y-88582500D03*
D16*
X140612500Y-97662500D03*
D11*
X138112500Y-93662500D03*
G36*
G01*
X142675272Y-95366462D02*
X142673817Y-95365155D01*
G75*
G02*
X142759845Y-96953817I-751317J-837345D01*
G01*
X141449843Y-98413817D01*
G75*
G02*
X139861181Y-98499845I-837345J751317D01*
G01*
X139861181Y-98499845D01*
G75*
G02*
X139775153Y-96911183I751317J837345D01*
G01*
X141085155Y-95451183D01*
G75*
G02*
X142673817Y-95365155I837345J-751317D01*
G01*
G37*
D16*
X135572500Y-98742500D03*
G36*
G01*
X135690976Y-97040240D02*
X135689903Y-97040166D01*
G75*
G02*
X136734834Y-98239903I-77403J-1122334D01*
G01*
X136694834Y-98819903D01*
G75*
G02*
X135495097Y-99864834I-1122334J77403D01*
G01*
X135495097Y-99864834D01*
G75*
G02*
X134450166Y-98665097I77403J1122334D01*
G01*
X134490166Y-98085097D01*
G75*
G02*
X135689903Y-97040166I1122334J-77403D01*
G01*
G37*
%TD*%
D13*
%TO.C,K_Win1*%
X361632500Y-98425000D03*
X371792500Y-98425000D03*
D14*
X365442500Y-93345000D03*
D15*
X367982500Y-93345000D03*
D16*
X369212500Y-102425000D03*
D11*
X366712500Y-98425000D03*
G36*
G01*
X371275272Y-100128962D02*
X371273817Y-100127655D01*
G75*
G02*
X371359845Y-101716317I-751317J-837345D01*
G01*
X370049843Y-103176317D01*
G75*
G02*
X368461181Y-103262345I-837345J751317D01*
G01*
X368461181Y-103262345D01*
G75*
G02*
X368375153Y-101673683I751317J837345D01*
G01*
X369685155Y-100213683D01*
G75*
G02*
X371273817Y-100127655I837345J-751317D01*
G01*
G37*
D16*
X364172500Y-103505000D03*
G36*
G01*
X364290976Y-101802740D02*
X364289903Y-101802666D01*
G75*
G02*
X365334834Y-103002403I-77403J-1122334D01*
G01*
X365294834Y-103582403D01*
G75*
G02*
X364095097Y-104627334I-1122334J77403D01*
G01*
X364095097Y-104627334D01*
G75*
G02*
X363050166Y-103427597I77403J1122334D01*
G01*
X363090166Y-102847597D01*
G75*
G02*
X364289903Y-101802666I1122334J-77403D01*
G01*
G37*
%TD*%
D13*
%TO.C,K_W1*%
X118745000Y-55562500D03*
X128905000Y-55562500D03*
D14*
X122555000Y-50482500D03*
D15*
X125095000Y-50482500D03*
D16*
X126325000Y-59562500D03*
D11*
X123825000Y-55562500D03*
G36*
G01*
X128387772Y-57266462D02*
X128386317Y-57265155D01*
G75*
G02*
X128472345Y-58853817I-751317J-837345D01*
G01*
X127162343Y-60313817D01*
G75*
G02*
X125573681Y-60399845I-837345J751317D01*
G01*
X125573681Y-60399845D01*
G75*
G02*
X125487653Y-58811183I751317J837345D01*
G01*
X126797655Y-57351183D01*
G75*
G02*
X128386317Y-57265155I837345J-751317D01*
G01*
G37*
D16*
X121285000Y-60642500D03*
G36*
G01*
X121403476Y-58940240D02*
X121402403Y-58940166D01*
G75*
G02*
X122447334Y-60139903I-77403J-1122334D01*
G01*
X122407334Y-60719903D01*
G75*
G02*
X121207597Y-61764834I-1122334J77403D01*
G01*
X121207597Y-61764834D01*
G75*
G02*
X120162666Y-60565097I77403J1122334D01*
G01*
X120202666Y-59985097D01*
G75*
G02*
X121402403Y-58940166I1122334J-77403D01*
G01*
G37*
%TD*%
D13*
%TO.C,K_V1*%
X171132500Y-93662500D03*
X181292500Y-93662500D03*
D14*
X174942500Y-88582500D03*
D15*
X177482500Y-88582500D03*
D16*
X178712500Y-97662500D03*
D11*
X176212500Y-93662500D03*
G36*
G01*
X180775272Y-95366462D02*
X180773817Y-95365155D01*
G75*
G02*
X180859845Y-96953817I-751317J-837345D01*
G01*
X179549843Y-98413817D01*
G75*
G02*
X177961181Y-98499845I-837345J751317D01*
G01*
X177961181Y-98499845D01*
G75*
G02*
X177875153Y-96911183I751317J837345D01*
G01*
X179185155Y-95451183D01*
G75*
G02*
X180773817Y-95365155I837345J-751317D01*
G01*
G37*
D16*
X173672500Y-98742500D03*
G36*
G01*
X173790976Y-97040240D02*
X173789903Y-97040166D01*
G75*
G02*
X174834834Y-98239903I-77403J-1122334D01*
G01*
X174794834Y-98819903D01*
G75*
G02*
X173595097Y-99864834I-1122334J77403D01*
G01*
X173595097Y-99864834D01*
G75*
G02*
X172550166Y-98665097I77403J1122334D01*
G01*
X172590166Y-98085097D01*
G75*
G02*
X173789903Y-97040166I1122334J-77403D01*
G01*
G37*
%TD*%
D13*
%TO.C,K_UArrow1*%
X342582500Y-98425000D03*
X352742500Y-98425000D03*
D14*
X346392500Y-93345000D03*
D15*
X348932500Y-93345000D03*
D16*
X350162500Y-102425000D03*
D11*
X347662500Y-98425000D03*
G36*
G01*
X352225272Y-100128962D02*
X352223817Y-100127655D01*
G75*
G02*
X352309845Y-101716317I-751317J-837345D01*
G01*
X350999843Y-103176317D01*
G75*
G02*
X349411181Y-103262345I-837345J751317D01*
G01*
X349411181Y-103262345D01*
G75*
G02*
X349325153Y-101673683I751317J837345D01*
G01*
X350635155Y-100213683D01*
G75*
G02*
X352223817Y-100127655I837345J-751317D01*
G01*
G37*
D16*
X345122500Y-103505000D03*
G36*
G01*
X345240976Y-101802740D02*
X345239903Y-101802666D01*
G75*
G02*
X346284834Y-103002403I-77403J-1122334D01*
G01*
X346244834Y-103582403D01*
G75*
G02*
X345045097Y-104627334I-1122334J77403D01*
G01*
X345045097Y-104627334D01*
G75*
G02*
X344000166Y-103427597I77403J1122334D01*
G01*
X344040166Y-102847597D01*
G75*
G02*
X345239903Y-101802666I1122334J-77403D01*
G01*
G37*
%TD*%
D13*
%TO.C,K_U1*%
X213995000Y-55562500D03*
X224155000Y-55562500D03*
D14*
X217805000Y-50482500D03*
D15*
X220345000Y-50482500D03*
D16*
X221575000Y-59562500D03*
D11*
X219075000Y-55562500D03*
G36*
G01*
X223637772Y-57266462D02*
X223636317Y-57265155D01*
G75*
G02*
X223722345Y-58853817I-751317J-837345D01*
G01*
X222412343Y-60313817D01*
G75*
G02*
X220823681Y-60399845I-837345J751317D01*
G01*
X220823681Y-60399845D01*
G75*
G02*
X220737653Y-58811183I751317J837345D01*
G01*
X222047655Y-57351183D01*
G75*
G02*
X223636317Y-57265155I837345J-751317D01*
G01*
G37*
D16*
X216535000Y-60642500D03*
G36*
G01*
X216653476Y-58940240D02*
X216652403Y-58940166D01*
G75*
G02*
X217697334Y-60139903I-77403J-1122334D01*
G01*
X217657334Y-60719903D01*
G75*
G02*
X216457597Y-61764834I-1122334J77403D01*
G01*
X216457597Y-61764834D01*
G75*
G02*
X215412666Y-60565097I77403J1122334D01*
G01*
X215452666Y-59985097D01*
G75*
G02*
X216652403Y-58940166I1122334J-77403D01*
G01*
G37*
%TD*%
D13*
%TO.C,K_Tab1*%
X75882500Y-55562500D03*
X86042500Y-55562500D03*
D14*
X79692500Y-50482500D03*
D15*
X82232500Y-50482500D03*
D16*
X83462500Y-59562500D03*
D11*
X80962500Y-55562500D03*
G36*
G01*
X85525272Y-57266462D02*
X85523817Y-57265155D01*
G75*
G02*
X85609845Y-58853817I-751317J-837345D01*
G01*
X84299843Y-60313817D01*
G75*
G02*
X82711181Y-60399845I-837345J751317D01*
G01*
X82711181Y-60399845D01*
G75*
G02*
X82625153Y-58811183I751317J837345D01*
G01*
X83935155Y-57351183D01*
G75*
G02*
X85523817Y-57265155I837345J-751317D01*
G01*
G37*
D16*
X78422500Y-60642500D03*
G36*
G01*
X78540976Y-58940240D02*
X78539903Y-58940166D01*
G75*
G02*
X79584834Y-60139903I-77403J-1122334D01*
G01*
X79544834Y-60719903D01*
G75*
G02*
X78345097Y-61764834I-1122334J77403D01*
G01*
X78345097Y-61764834D01*
G75*
G02*
X77300166Y-60565097I77403J1122334D01*
G01*
X77340166Y-59985097D01*
G75*
G02*
X78539903Y-58940166I1122334J-77403D01*
G01*
G37*
%TD*%
D13*
%TO.C,K_T1*%
X175895000Y-55562500D03*
X186055000Y-55562500D03*
D14*
X179705000Y-50482500D03*
D15*
X182245000Y-50482500D03*
D16*
X183475000Y-59562500D03*
D11*
X180975000Y-55562500D03*
G36*
G01*
X185537772Y-57266462D02*
X185536317Y-57265155D01*
G75*
G02*
X185622345Y-58853817I-751317J-837345D01*
G01*
X184312343Y-60313817D01*
G75*
G02*
X182723681Y-60399845I-837345J751317D01*
G01*
X182723681Y-60399845D01*
G75*
G02*
X182637653Y-58811183I751317J837345D01*
G01*
X183947655Y-57351183D01*
G75*
G02*
X185536317Y-57265155I837345J-751317D01*
G01*
G37*
D16*
X178435000Y-60642500D03*
G36*
G01*
X178553476Y-58940240D02*
X178552403Y-58940166D01*
G75*
G02*
X179597334Y-60139903I-77403J-1122334D01*
G01*
X179557334Y-60719903D01*
G75*
G02*
X178357597Y-61764834I-1122334J77403D01*
G01*
X178357597Y-61764834D01*
G75*
G02*
X177312666Y-60565097I77403J1122334D01*
G01*
X177352666Y-59985097D01*
G75*
G02*
X178552403Y-58940166I1122334J-77403D01*
G01*
G37*
%TD*%
D13*
%TO.C,K_Slash1*%
X285432500Y-93662500D03*
X295592500Y-93662500D03*
D14*
X289242500Y-88582500D03*
D15*
X291782500Y-88582500D03*
D16*
X293012500Y-97662500D03*
D11*
X290512500Y-93662500D03*
G36*
G01*
X295075272Y-95366462D02*
X295073817Y-95365155D01*
G75*
G02*
X295159845Y-96953817I-751317J-837345D01*
G01*
X293849843Y-98413817D01*
G75*
G02*
X292261181Y-98499845I-837345J751317D01*
G01*
X292261181Y-98499845D01*
G75*
G02*
X292175153Y-96911183I751317J837345D01*
G01*
X293485155Y-95451183D01*
G75*
G02*
X295073817Y-95365155I837345J-751317D01*
G01*
G37*
D16*
X287972500Y-98742500D03*
G36*
G01*
X288090976Y-97040240D02*
X288089903Y-97040166D01*
G75*
G02*
X289134834Y-98239903I-77403J-1122334D01*
G01*
X289094834Y-98819903D01*
G75*
G02*
X287895097Y-99864834I-1122334J77403D01*
G01*
X287895097Y-99864834D01*
G75*
G02*
X286850166Y-98665097I77403J1122334D01*
G01*
X286890166Y-98085097D01*
G75*
G02*
X288089903Y-97040166I1122334J-77403D01*
G01*
G37*
%TD*%
D11*
%TO.C,K_Shift1*%
X76168250Y-85407500D03*
X100044250Y-85407500D03*
D12*
X76168250Y-100647500D03*
X100044250Y-100647500D03*
D13*
X83026250Y-93662500D03*
X93186250Y-93662500D03*
D14*
X86836250Y-88582500D03*
D15*
X89376250Y-88582500D03*
D16*
X90606250Y-97662500D03*
D11*
X88106250Y-93662500D03*
G36*
G01*
X92669022Y-95366462D02*
X92667567Y-95365155D01*
G75*
G02*
X92753595Y-96953817I-751317J-837345D01*
G01*
X91443593Y-98413817D01*
G75*
G02*
X89854931Y-98499845I-837345J751317D01*
G01*
X89854931Y-98499845D01*
G75*
G02*
X89768903Y-96911183I751317J837345D01*
G01*
X91078905Y-95451183D01*
G75*
G02*
X92667567Y-95365155I837345J-751317D01*
G01*
G37*
D16*
X85566250Y-98742500D03*
G36*
G01*
X85684726Y-97040240D02*
X85683653Y-97040166D01*
G75*
G02*
X86728584Y-98239903I-77403J-1122334D01*
G01*
X86688584Y-98819903D01*
G75*
G02*
X85488847Y-99864834I-1122334J77403D01*
G01*
X85488847Y-99864834D01*
G75*
G02*
X84443916Y-98665097I77403J1122334D01*
G01*
X84483916Y-98085097D01*
G75*
G02*
X85683653Y-97040166I1122334J-77403D01*
G01*
G37*
%TD*%
D13*
%TO.C,K_S1*%
X123507500Y-74612500D03*
X133667500Y-74612500D03*
D14*
X127317500Y-69532500D03*
D15*
X129857500Y-69532500D03*
D16*
X131087500Y-78612500D03*
D11*
X128587500Y-74612500D03*
G36*
G01*
X133150272Y-76316462D02*
X133148817Y-76315155D01*
G75*
G02*
X133234845Y-77903817I-751317J-837345D01*
G01*
X131924843Y-79363817D01*
G75*
G02*
X130336181Y-79449845I-837345J751317D01*
G01*
X130336181Y-79449845D01*
G75*
G02*
X130250153Y-77861183I751317J837345D01*
G01*
X131560155Y-76401183D01*
G75*
G02*
X133148817Y-76315155I837345J-751317D01*
G01*
G37*
D16*
X126047500Y-79692500D03*
G36*
G01*
X126165976Y-77990240D02*
X126164903Y-77990166D01*
G75*
G02*
X127209834Y-79189903I-77403J-1122334D01*
G01*
X127169834Y-79769903D01*
G75*
G02*
X125970097Y-80814834I-1122334J77403D01*
G01*
X125970097Y-80814834D01*
G75*
G02*
X124925166Y-79615097I77403J1122334D01*
G01*
X124965166Y-79035097D01*
G75*
G02*
X126164903Y-77990166I1122334J-77403D01*
G01*
G37*
%TD*%
D13*
%TO.C,K_RThan1*%
X266382500Y-93662500D03*
X276542500Y-93662500D03*
D14*
X270192500Y-88582500D03*
D15*
X272732500Y-88582500D03*
D16*
X273962500Y-97662500D03*
D11*
X271462500Y-93662500D03*
G36*
G01*
X276025272Y-95366462D02*
X276023817Y-95365155D01*
G75*
G02*
X276109845Y-96953817I-751317J-837345D01*
G01*
X274799843Y-98413817D01*
G75*
G02*
X273211181Y-98499845I-837345J751317D01*
G01*
X273211181Y-98499845D01*
G75*
G02*
X273125153Y-96911183I751317J837345D01*
G01*
X274435155Y-95451183D01*
G75*
G02*
X276023817Y-95365155I837345J-751317D01*
G01*
G37*
D16*
X268922500Y-98742500D03*
G36*
G01*
X269040976Y-97040240D02*
X269039903Y-97040166D01*
G75*
G02*
X270084834Y-98239903I-77403J-1122334D01*
G01*
X270044834Y-98819903D01*
G75*
G02*
X268845097Y-99864834I-1122334J77403D01*
G01*
X268845097Y-99864834D01*
G75*
G02*
X267800166Y-98665097I77403J1122334D01*
G01*
X267840166Y-98085097D01*
G75*
G02*
X269039903Y-97040166I1122334J-77403D01*
G01*
G37*
%TD*%
D13*
%TO.C,K_RBrace1*%
X309245000Y-55562500D03*
X319405000Y-55562500D03*
D14*
X313055000Y-50482500D03*
D15*
X315595000Y-50482500D03*
D16*
X316825000Y-59562500D03*
D11*
X314325000Y-55562500D03*
G36*
G01*
X318887772Y-57266462D02*
X318886317Y-57265155D01*
G75*
G02*
X318972345Y-58853817I-751317J-837345D01*
G01*
X317662343Y-60313817D01*
G75*
G02*
X316073681Y-60399845I-837345J751317D01*
G01*
X316073681Y-60399845D01*
G75*
G02*
X315987653Y-58811183I751317J837345D01*
G01*
X317297655Y-57351183D01*
G75*
G02*
X318886317Y-57265155I837345J-751317D01*
G01*
G37*
D16*
X311785000Y-60642500D03*
G36*
G01*
X311903476Y-58940240D02*
X311902403Y-58940166D01*
G75*
G02*
X312947334Y-60139903I-77403J-1122334D01*
G01*
X312907334Y-60719903D01*
G75*
G02*
X311707597Y-61764834I-1122334J77403D01*
G01*
X311707597Y-61764834D01*
G75*
G02*
X310662666Y-60565097I77403J1122334D01*
G01*
X310702666Y-59985097D01*
G75*
G02*
X311902403Y-58940166I1122334J-77403D01*
G01*
G37*
%TD*%
D13*
%TO.C,K_RArrow1*%
X361632500Y-117475000D03*
X371792500Y-117475000D03*
D14*
X365442500Y-112395000D03*
D15*
X367982500Y-112395000D03*
D16*
X369212500Y-121475000D03*
D11*
X366712500Y-117475000D03*
G36*
G01*
X371275272Y-119178962D02*
X371273817Y-119177655D01*
G75*
G02*
X371359845Y-120766317I-751317J-837345D01*
G01*
X370049843Y-122226317D01*
G75*
G02*
X368461181Y-122312345I-837345J751317D01*
G01*
X368461181Y-122312345D01*
G75*
G02*
X368375153Y-120723683I751317J837345D01*
G01*
X369685155Y-119263683D01*
G75*
G02*
X371273817Y-119177655I837345J-751317D01*
G01*
G37*
D16*
X364172500Y-122555000D03*
G36*
G01*
X364290976Y-120852740D02*
X364289903Y-120852666D01*
G75*
G02*
X365334834Y-122052403I-77403J-1122334D01*
G01*
X365294834Y-122632403D01*
G75*
G02*
X364095097Y-123677334I-1122334J77403D01*
G01*
X364095097Y-123677334D01*
G75*
G02*
X363050166Y-122477597I77403J1122334D01*
G01*
X363090166Y-121897597D01*
G75*
G02*
X364289903Y-120852666I1122334J-77403D01*
G01*
G37*
%TD*%
D13*
%TO.C,K_R1*%
X156845000Y-55562500D03*
X167005000Y-55562500D03*
D14*
X160655000Y-50482500D03*
D15*
X163195000Y-50482500D03*
D16*
X164425000Y-59562500D03*
D11*
X161925000Y-55562500D03*
G36*
G01*
X166487772Y-57266462D02*
X166486317Y-57265155D01*
G75*
G02*
X166572345Y-58853817I-751317J-837345D01*
G01*
X165262343Y-60313817D01*
G75*
G02*
X163673681Y-60399845I-837345J751317D01*
G01*
X163673681Y-60399845D01*
G75*
G02*
X163587653Y-58811183I751317J837345D01*
G01*
X164897655Y-57351183D01*
G75*
G02*
X166486317Y-57265155I837345J-751317D01*
G01*
G37*
D16*
X159385000Y-60642500D03*
G36*
G01*
X159503476Y-58940240D02*
X159502403Y-58940166D01*
G75*
G02*
X160547334Y-60139903I-77403J-1122334D01*
G01*
X160507334Y-60719903D01*
G75*
G02*
X159307597Y-61764834I-1122334J77403D01*
G01*
X159307597Y-61764834D01*
G75*
G02*
X158262666Y-60565097I77403J1122334D01*
G01*
X158302666Y-59985097D01*
G75*
G02*
X159502403Y-58940166I1122334J-77403D01*
G01*
G37*
%TD*%
D13*
%TO.C,K_Q1*%
X99695000Y-55562500D03*
X109855000Y-55562500D03*
D14*
X103505000Y-50482500D03*
D15*
X106045000Y-50482500D03*
D16*
X107275000Y-59562500D03*
D11*
X104775000Y-55562500D03*
G36*
G01*
X109337772Y-57266462D02*
X109336317Y-57265155D01*
G75*
G02*
X109422345Y-58853817I-751317J-837345D01*
G01*
X108112343Y-60313817D01*
G75*
G02*
X106523681Y-60399845I-837345J751317D01*
G01*
X106523681Y-60399845D01*
G75*
G02*
X106437653Y-58811183I751317J837345D01*
G01*
X107747655Y-57351183D01*
G75*
G02*
X109336317Y-57265155I837345J-751317D01*
G01*
G37*
D16*
X102235000Y-60642500D03*
G36*
G01*
X102353476Y-58940240D02*
X102352403Y-58940166D01*
G75*
G02*
X103397334Y-60139903I-77403J-1122334D01*
G01*
X103357334Y-60719903D01*
G75*
G02*
X102157597Y-61764834I-1122334J77403D01*
G01*
X102157597Y-61764834D01*
G75*
G02*
X101112666Y-60565097I77403J1122334D01*
G01*
X101152666Y-59985097D01*
G75*
G02*
X102352403Y-58940166I1122334J-77403D01*
G01*
G37*
%TD*%
D13*
%TO.C,K_Plus1*%
X299720000Y-36512500D03*
X309880000Y-36512500D03*
D14*
X303530000Y-31432500D03*
D15*
X306070000Y-31432500D03*
D16*
X307300000Y-40512500D03*
D11*
X304800000Y-36512500D03*
G36*
G01*
X309362772Y-38216462D02*
X309361317Y-38215155D01*
G75*
G02*
X309447345Y-39803817I-751317J-837345D01*
G01*
X308137343Y-41263817D01*
G75*
G02*
X306548681Y-41349845I-837345J751317D01*
G01*
X306548681Y-41349845D01*
G75*
G02*
X306462653Y-39761183I751317J837345D01*
G01*
X307772655Y-38301183D01*
G75*
G02*
X309361317Y-38215155I837345J-751317D01*
G01*
G37*
D16*
X302260000Y-41592500D03*
G36*
G01*
X302378476Y-39890240D02*
X302377403Y-39890166D01*
G75*
G02*
X303422334Y-41089903I-77403J-1122334D01*
G01*
X303382334Y-41669903D01*
G75*
G02*
X302182597Y-42714834I-1122334J77403D01*
G01*
X302182597Y-42714834D01*
G75*
G02*
X301137666Y-41515097I77403J1122334D01*
G01*
X301177666Y-40935097D01*
G75*
G02*
X302377403Y-39890166I1122334J-77403D01*
G01*
G37*
%TD*%
D13*
%TO.C,K_P1*%
X271145000Y-55562500D03*
X281305000Y-55562500D03*
D14*
X274955000Y-50482500D03*
D15*
X277495000Y-50482500D03*
D16*
X278725000Y-59562500D03*
D11*
X276225000Y-55562500D03*
G36*
G01*
X280787772Y-57266462D02*
X280786317Y-57265155D01*
G75*
G02*
X280872345Y-58853817I-751317J-837345D01*
G01*
X279562343Y-60313817D01*
G75*
G02*
X277973681Y-60399845I-837345J751317D01*
G01*
X277973681Y-60399845D01*
G75*
G02*
X277887653Y-58811183I751317J837345D01*
G01*
X279197655Y-57351183D01*
G75*
G02*
X280786317Y-57265155I837345J-751317D01*
G01*
G37*
D16*
X273685000Y-60642500D03*
G36*
G01*
X273803476Y-58940240D02*
X273802403Y-58940166D01*
G75*
G02*
X274847334Y-60139903I-77403J-1122334D01*
G01*
X274807334Y-60719903D01*
G75*
G02*
X273607597Y-61764834I-1122334J77403D01*
G01*
X273607597Y-61764834D01*
G75*
G02*
X272562666Y-60565097I77403J1122334D01*
G01*
X272602666Y-59985097D01*
G75*
G02*
X273802403Y-58940166I1122334J-77403D01*
G01*
G37*
%TD*%
D13*
%TO.C,K_O1*%
X252095000Y-55562500D03*
X262255000Y-55562500D03*
D14*
X255905000Y-50482500D03*
D15*
X258445000Y-50482500D03*
D16*
X259675000Y-59562500D03*
D11*
X257175000Y-55562500D03*
G36*
G01*
X261737772Y-57266462D02*
X261736317Y-57265155D01*
G75*
G02*
X261822345Y-58853817I-751317J-837345D01*
G01*
X260512343Y-60313817D01*
G75*
G02*
X258923681Y-60399845I-837345J751317D01*
G01*
X258923681Y-60399845D01*
G75*
G02*
X258837653Y-58811183I751317J837345D01*
G01*
X260147655Y-57351183D01*
G75*
G02*
X261736317Y-57265155I837345J-751317D01*
G01*
G37*
D16*
X254635000Y-60642500D03*
G36*
G01*
X254753476Y-58940240D02*
X254752403Y-58940166D01*
G75*
G02*
X255797334Y-60139903I-77403J-1122334D01*
G01*
X255757334Y-60719903D01*
G75*
G02*
X254557597Y-61764834I-1122334J77403D01*
G01*
X254557597Y-61764834D01*
G75*
G02*
X253512666Y-60565097I77403J1122334D01*
G01*
X253552666Y-59985097D01*
G75*
G02*
X254752403Y-58940166I1122334J-77403D01*
G01*
G37*
%TD*%
D13*
%TO.C,K_Num9*%
X242570000Y-36512500D03*
X252730000Y-36512500D03*
D14*
X246380000Y-31432500D03*
D15*
X248920000Y-31432500D03*
D16*
X250150000Y-40512500D03*
D11*
X247650000Y-36512500D03*
G36*
G01*
X252212772Y-38216462D02*
X252211317Y-38215155D01*
G75*
G02*
X252297345Y-39803817I-751317J-837345D01*
G01*
X250987343Y-41263817D01*
G75*
G02*
X249398681Y-41349845I-837345J751317D01*
G01*
X249398681Y-41349845D01*
G75*
G02*
X249312653Y-39761183I751317J837345D01*
G01*
X250622655Y-38301183D01*
G75*
G02*
X252211317Y-38215155I837345J-751317D01*
G01*
G37*
D16*
X245110000Y-41592500D03*
G36*
G01*
X245228476Y-39890240D02*
X245227403Y-39890166D01*
G75*
G02*
X246272334Y-41089903I-77403J-1122334D01*
G01*
X246232334Y-41669903D01*
G75*
G02*
X245032597Y-42714834I-1122334J77403D01*
G01*
X245032597Y-42714834D01*
G75*
G02*
X243987666Y-41515097I77403J1122334D01*
G01*
X244027666Y-40935097D01*
G75*
G02*
X245227403Y-39890166I1122334J-77403D01*
G01*
G37*
%TD*%
D13*
%TO.C,K_Num8*%
X223520000Y-36512500D03*
X233680000Y-36512500D03*
D14*
X227330000Y-31432500D03*
D15*
X229870000Y-31432500D03*
D16*
X231100000Y-40512500D03*
D11*
X228600000Y-36512500D03*
G36*
G01*
X233162772Y-38216462D02*
X233161317Y-38215155D01*
G75*
G02*
X233247345Y-39803817I-751317J-837345D01*
G01*
X231937343Y-41263817D01*
G75*
G02*
X230348681Y-41349845I-837345J751317D01*
G01*
X230348681Y-41349845D01*
G75*
G02*
X230262653Y-39761183I751317J837345D01*
G01*
X231572655Y-38301183D01*
G75*
G02*
X233161317Y-38215155I837345J-751317D01*
G01*
G37*
D16*
X226060000Y-41592500D03*
G36*
G01*
X226178476Y-39890240D02*
X226177403Y-39890166D01*
G75*
G02*
X227222334Y-41089903I-77403J-1122334D01*
G01*
X227182334Y-41669903D01*
G75*
G02*
X225982597Y-42714834I-1122334J77403D01*
G01*
X225982597Y-42714834D01*
G75*
G02*
X224937666Y-41515097I77403J1122334D01*
G01*
X224977666Y-40935097D01*
G75*
G02*
X226177403Y-39890166I1122334J-77403D01*
G01*
G37*
%TD*%
D13*
%TO.C,K_Num7*%
X204470000Y-36512500D03*
X214630000Y-36512500D03*
D14*
X208280000Y-31432500D03*
D15*
X210820000Y-31432500D03*
D16*
X212050000Y-40512500D03*
D11*
X209550000Y-36512500D03*
G36*
G01*
X214112772Y-38216462D02*
X214111317Y-38215155D01*
G75*
G02*
X214197345Y-39803817I-751317J-837345D01*
G01*
X212887343Y-41263817D01*
G75*
G02*
X211298681Y-41349845I-837345J751317D01*
G01*
X211298681Y-41349845D01*
G75*
G02*
X211212653Y-39761183I751317J837345D01*
G01*
X212522655Y-38301183D01*
G75*
G02*
X214111317Y-38215155I837345J-751317D01*
G01*
G37*
D16*
X207010000Y-41592500D03*
G36*
G01*
X207128476Y-39890240D02*
X207127403Y-39890166D01*
G75*
G02*
X208172334Y-41089903I-77403J-1122334D01*
G01*
X208132334Y-41669903D01*
G75*
G02*
X206932597Y-42714834I-1122334J77403D01*
G01*
X206932597Y-42714834D01*
G75*
G02*
X205887666Y-41515097I77403J1122334D01*
G01*
X205927666Y-40935097D01*
G75*
G02*
X207127403Y-39890166I1122334J-77403D01*
G01*
G37*
%TD*%
D13*
%TO.C,K_Num6*%
X185420000Y-36512500D03*
X195580000Y-36512500D03*
D14*
X189230000Y-31432500D03*
D15*
X191770000Y-31432500D03*
D16*
X193000000Y-40512500D03*
D11*
X190500000Y-36512500D03*
G36*
G01*
X195062772Y-38216462D02*
X195061317Y-38215155D01*
G75*
G02*
X195147345Y-39803817I-751317J-837345D01*
G01*
X193837343Y-41263817D01*
G75*
G02*
X192248681Y-41349845I-837345J751317D01*
G01*
X192248681Y-41349845D01*
G75*
G02*
X192162653Y-39761183I751317J837345D01*
G01*
X193472655Y-38301183D01*
G75*
G02*
X195061317Y-38215155I837345J-751317D01*
G01*
G37*
D16*
X187960000Y-41592500D03*
G36*
G01*
X188078476Y-39890240D02*
X188077403Y-39890166D01*
G75*
G02*
X189122334Y-41089903I-77403J-1122334D01*
G01*
X189082334Y-41669903D01*
G75*
G02*
X187882597Y-42714834I-1122334J77403D01*
G01*
X187882597Y-42714834D01*
G75*
G02*
X186837666Y-41515097I77403J1122334D01*
G01*
X186877666Y-40935097D01*
G75*
G02*
X188077403Y-39890166I1122334J-77403D01*
G01*
G37*
%TD*%
D13*
%TO.C,K_Num5*%
X166370000Y-36512500D03*
X176530000Y-36512500D03*
D14*
X170180000Y-31432500D03*
D15*
X172720000Y-31432500D03*
D16*
X173950000Y-40512500D03*
D11*
X171450000Y-36512500D03*
G36*
G01*
X176012772Y-38216462D02*
X176011317Y-38215155D01*
G75*
G02*
X176097345Y-39803817I-751317J-837345D01*
G01*
X174787343Y-41263817D01*
G75*
G02*
X173198681Y-41349845I-837345J751317D01*
G01*
X173198681Y-41349845D01*
G75*
G02*
X173112653Y-39761183I751317J837345D01*
G01*
X174422655Y-38301183D01*
G75*
G02*
X176011317Y-38215155I837345J-751317D01*
G01*
G37*
D16*
X168910000Y-41592500D03*
G36*
G01*
X169028476Y-39890240D02*
X169027403Y-39890166D01*
G75*
G02*
X170072334Y-41089903I-77403J-1122334D01*
G01*
X170032334Y-41669903D01*
G75*
G02*
X168832597Y-42714834I-1122334J77403D01*
G01*
X168832597Y-42714834D01*
G75*
G02*
X167787666Y-41515097I77403J1122334D01*
G01*
X167827666Y-40935097D01*
G75*
G02*
X169027403Y-39890166I1122334J-77403D01*
G01*
G37*
%TD*%
D13*
%TO.C,K_Num4*%
X147320000Y-36512500D03*
X157480000Y-36512500D03*
D14*
X151130000Y-31432500D03*
D15*
X153670000Y-31432500D03*
D16*
X154900000Y-40512500D03*
D11*
X152400000Y-36512500D03*
G36*
G01*
X156962772Y-38216462D02*
X156961317Y-38215155D01*
G75*
G02*
X157047345Y-39803817I-751317J-837345D01*
G01*
X155737343Y-41263817D01*
G75*
G02*
X154148681Y-41349845I-837345J751317D01*
G01*
X154148681Y-41349845D01*
G75*
G02*
X154062653Y-39761183I751317J837345D01*
G01*
X155372655Y-38301183D01*
G75*
G02*
X156961317Y-38215155I837345J-751317D01*
G01*
G37*
D16*
X149860000Y-41592500D03*
G36*
G01*
X149978476Y-39890240D02*
X149977403Y-39890166D01*
G75*
G02*
X151022334Y-41089903I-77403J-1122334D01*
G01*
X150982334Y-41669903D01*
G75*
G02*
X149782597Y-42714834I-1122334J77403D01*
G01*
X149782597Y-42714834D01*
G75*
G02*
X148737666Y-41515097I77403J1122334D01*
G01*
X148777666Y-40935097D01*
G75*
G02*
X149977403Y-39890166I1122334J-77403D01*
G01*
G37*
%TD*%
D13*
%TO.C,K_Num3*%
X128270000Y-36512500D03*
X138430000Y-36512500D03*
D14*
X132080000Y-31432500D03*
D15*
X134620000Y-31432500D03*
D16*
X135850000Y-40512500D03*
D11*
X133350000Y-36512500D03*
G36*
G01*
X137912772Y-38216462D02*
X137911317Y-38215155D01*
G75*
G02*
X137997345Y-39803817I-751317J-837345D01*
G01*
X136687343Y-41263817D01*
G75*
G02*
X135098681Y-41349845I-837345J751317D01*
G01*
X135098681Y-41349845D01*
G75*
G02*
X135012653Y-39761183I751317J837345D01*
G01*
X136322655Y-38301183D01*
G75*
G02*
X137911317Y-38215155I837345J-751317D01*
G01*
G37*
D16*
X130810000Y-41592500D03*
G36*
G01*
X130928476Y-39890240D02*
X130927403Y-39890166D01*
G75*
G02*
X131972334Y-41089903I-77403J-1122334D01*
G01*
X131932334Y-41669903D01*
G75*
G02*
X130732597Y-42714834I-1122334J77403D01*
G01*
X130732597Y-42714834D01*
G75*
G02*
X129687666Y-41515097I77403J1122334D01*
G01*
X129727666Y-40935097D01*
G75*
G02*
X130927403Y-39890166I1122334J-77403D01*
G01*
G37*
%TD*%
D13*
%TO.C,K_Num2*%
X109220000Y-36512500D03*
X119380000Y-36512500D03*
D14*
X113030000Y-31432500D03*
D15*
X115570000Y-31432500D03*
D16*
X116800000Y-40512500D03*
D11*
X114300000Y-36512500D03*
G36*
G01*
X118862772Y-38216462D02*
X118861317Y-38215155D01*
G75*
G02*
X118947345Y-39803817I-751317J-837345D01*
G01*
X117637343Y-41263817D01*
G75*
G02*
X116048681Y-41349845I-837345J751317D01*
G01*
X116048681Y-41349845D01*
G75*
G02*
X115962653Y-39761183I751317J837345D01*
G01*
X117272655Y-38301183D01*
G75*
G02*
X118861317Y-38215155I837345J-751317D01*
G01*
G37*
D16*
X111760000Y-41592500D03*
G36*
G01*
X111878476Y-39890240D02*
X111877403Y-39890166D01*
G75*
G02*
X112922334Y-41089903I-77403J-1122334D01*
G01*
X112882334Y-41669903D01*
G75*
G02*
X111682597Y-42714834I-1122334J77403D01*
G01*
X111682597Y-42714834D01*
G75*
G02*
X110637666Y-41515097I77403J1122334D01*
G01*
X110677666Y-40935097D01*
G75*
G02*
X111877403Y-39890166I1122334J-77403D01*
G01*
G37*
%TD*%
D13*
%TO.C,K_Num1*%
X90201750Y-36512500D03*
X100361750Y-36512500D03*
D14*
X94011750Y-31432500D03*
D15*
X96551750Y-31432500D03*
D16*
X97781750Y-40512500D03*
D11*
X95281750Y-36512500D03*
G36*
G01*
X99844522Y-38216462D02*
X99843067Y-38215155D01*
G75*
G02*
X99929095Y-39803817I-751317J-837345D01*
G01*
X98619093Y-41263817D01*
G75*
G02*
X97030431Y-41349845I-837345J751317D01*
G01*
X97030431Y-41349845D01*
G75*
G02*
X96944403Y-39761183I751317J837345D01*
G01*
X98254405Y-38301183D01*
G75*
G02*
X99843067Y-38215155I837345J-751317D01*
G01*
G37*
D16*
X92741750Y-41592500D03*
G36*
G01*
X92860226Y-39890240D02*
X92859153Y-39890166D01*
G75*
G02*
X93904084Y-41089903I-77403J-1122334D01*
G01*
X93864084Y-41669903D01*
G75*
G02*
X92664347Y-42714834I-1122334J77403D01*
G01*
X92664347Y-42714834D01*
G75*
G02*
X91619416Y-41515097I77403J1122334D01*
G01*
X91659416Y-40935097D01*
G75*
G02*
X92859153Y-39890166I1122334J-77403D01*
G01*
G37*
%TD*%
D13*
%TO.C,K_Num0*%
X261620000Y-36512500D03*
X271780000Y-36512500D03*
D14*
X265430000Y-31432500D03*
D15*
X267970000Y-31432500D03*
D16*
X269200000Y-40512500D03*
D11*
X266700000Y-36512500D03*
G36*
G01*
X271262772Y-38216462D02*
X271261317Y-38215155D01*
G75*
G02*
X271347345Y-39803817I-751317J-837345D01*
G01*
X270037343Y-41263817D01*
G75*
G02*
X268448681Y-41349845I-837345J751317D01*
G01*
X268448681Y-41349845D01*
G75*
G02*
X268362653Y-39761183I751317J837345D01*
G01*
X269672655Y-38301183D01*
G75*
G02*
X271261317Y-38215155I837345J-751317D01*
G01*
G37*
D16*
X264160000Y-41592500D03*
G36*
G01*
X264278476Y-39890240D02*
X264277403Y-39890166D01*
G75*
G02*
X265322334Y-41089903I-77403J-1122334D01*
G01*
X265282334Y-41669903D01*
G75*
G02*
X264082597Y-42714834I-1122334J77403D01*
G01*
X264082597Y-42714834D01*
G75*
G02*
X263037666Y-41515097I77403J1122334D01*
G01*
X263077666Y-40935097D01*
G75*
G02*
X264277403Y-39890166I1122334J-77403D01*
G01*
G37*
%TD*%
D13*
%TO.C,K_N1*%
X209232500Y-93662500D03*
X219392500Y-93662500D03*
D14*
X213042500Y-88582500D03*
D15*
X215582500Y-88582500D03*
D16*
X216812500Y-97662500D03*
D11*
X214312500Y-93662500D03*
G36*
G01*
X218875272Y-95366462D02*
X218873817Y-95365155D01*
G75*
G02*
X218959845Y-96953817I-751317J-837345D01*
G01*
X217649843Y-98413817D01*
G75*
G02*
X216061181Y-98499845I-837345J751317D01*
G01*
X216061181Y-98499845D01*
G75*
G02*
X215975153Y-96911183I751317J837345D01*
G01*
X217285155Y-95451183D01*
G75*
G02*
X218873817Y-95365155I837345J-751317D01*
G01*
G37*
D16*
X211772500Y-98742500D03*
G36*
G01*
X211890976Y-97040240D02*
X211889903Y-97040166D01*
G75*
G02*
X212934834Y-98239903I-77403J-1122334D01*
G01*
X212894834Y-98819903D01*
G75*
G02*
X211695097Y-99864834I-1122334J77403D01*
G01*
X211695097Y-99864834D01*
G75*
G02*
X210650166Y-98665097I77403J1122334D01*
G01*
X210690166Y-98085097D01*
G75*
G02*
X211889903Y-97040166I1122334J-77403D01*
G01*
G37*
%TD*%
D13*
%TO.C,K_Minus1*%
X280670000Y-36512500D03*
X290830000Y-36512500D03*
D14*
X284480000Y-31432500D03*
D15*
X287020000Y-31432500D03*
D16*
X288250000Y-40512500D03*
D11*
X285750000Y-36512500D03*
G36*
G01*
X290312772Y-38216462D02*
X290311317Y-38215155D01*
G75*
G02*
X290397345Y-39803817I-751317J-837345D01*
G01*
X289087343Y-41263817D01*
G75*
G02*
X287498681Y-41349845I-837345J751317D01*
G01*
X287498681Y-41349845D01*
G75*
G02*
X287412653Y-39761183I751317J837345D01*
G01*
X288722655Y-38301183D01*
G75*
G02*
X290311317Y-38215155I837345J-751317D01*
G01*
G37*
D16*
X283210000Y-41592500D03*
G36*
G01*
X283328476Y-39890240D02*
X283327403Y-39890166D01*
G75*
G02*
X284372334Y-41089903I-77403J-1122334D01*
G01*
X284332334Y-41669903D01*
G75*
G02*
X283132597Y-42714834I-1122334J77403D01*
G01*
X283132597Y-42714834D01*
G75*
G02*
X282087666Y-41515097I77403J1122334D01*
G01*
X282127666Y-40935097D01*
G75*
G02*
X283327403Y-39890166I1122334J-77403D01*
G01*
G37*
%TD*%
D13*
%TO.C,K_M1*%
X228282500Y-93662500D03*
X238442500Y-93662500D03*
D14*
X232092500Y-88582500D03*
D15*
X234632500Y-88582500D03*
D16*
X235862500Y-97662500D03*
D11*
X233362500Y-93662500D03*
G36*
G01*
X237925272Y-95366462D02*
X237923817Y-95365155D01*
G75*
G02*
X238009845Y-96953817I-751317J-837345D01*
G01*
X236699843Y-98413817D01*
G75*
G02*
X235111181Y-98499845I-837345J751317D01*
G01*
X235111181Y-98499845D01*
G75*
G02*
X235025153Y-96911183I751317J837345D01*
G01*
X236335155Y-95451183D01*
G75*
G02*
X237923817Y-95365155I837345J-751317D01*
G01*
G37*
D16*
X230822500Y-98742500D03*
G36*
G01*
X230940976Y-97040240D02*
X230939903Y-97040166D01*
G75*
G02*
X231984834Y-98239903I-77403J-1122334D01*
G01*
X231944834Y-98819903D01*
G75*
G02*
X230745097Y-99864834I-1122334J77403D01*
G01*
X230745097Y-99864834D01*
G75*
G02*
X229700166Y-98665097I77403J1122334D01*
G01*
X229740166Y-98085097D01*
G75*
G02*
X230939903Y-97040166I1122334J-77403D01*
G01*
G37*
%TD*%
D13*
%TO.C,K_LThan1*%
X247332500Y-93662500D03*
X257492500Y-93662500D03*
D14*
X251142500Y-88582500D03*
D15*
X253682500Y-88582500D03*
D16*
X254912500Y-97662500D03*
D11*
X252412500Y-93662500D03*
G36*
G01*
X256975272Y-95366462D02*
X256973817Y-95365155D01*
G75*
G02*
X257059845Y-96953817I-751317J-837345D01*
G01*
X255749843Y-98413817D01*
G75*
G02*
X254161181Y-98499845I-837345J751317D01*
G01*
X254161181Y-98499845D01*
G75*
G02*
X254075153Y-96911183I751317J837345D01*
G01*
X255385155Y-95451183D01*
G75*
G02*
X256973817Y-95365155I837345J-751317D01*
G01*
G37*
D16*
X249872500Y-98742500D03*
G36*
G01*
X249990976Y-97040240D02*
X249989903Y-97040166D01*
G75*
G02*
X251034834Y-98239903I-77403J-1122334D01*
G01*
X250994834Y-98819903D01*
G75*
G02*
X249795097Y-99864834I-1122334J77403D01*
G01*
X249795097Y-99864834D01*
G75*
G02*
X248750166Y-98665097I77403J1122334D01*
G01*
X248790166Y-98085097D01*
G75*
G02*
X249989903Y-97040166I1122334J-77403D01*
G01*
G37*
%TD*%
D13*
%TO.C,K_LBrace1*%
X290195000Y-55562500D03*
X300355000Y-55562500D03*
D14*
X294005000Y-50482500D03*
D15*
X296545000Y-50482500D03*
D16*
X297775000Y-59562500D03*
D11*
X295275000Y-55562500D03*
G36*
G01*
X299837772Y-57266462D02*
X299836317Y-57265155D01*
G75*
G02*
X299922345Y-58853817I-751317J-837345D01*
G01*
X298612343Y-60313817D01*
G75*
G02*
X297023681Y-60399845I-837345J751317D01*
G01*
X297023681Y-60399845D01*
G75*
G02*
X296937653Y-58811183I751317J837345D01*
G01*
X298247655Y-57351183D01*
G75*
G02*
X299836317Y-57265155I837345J-751317D01*
G01*
G37*
D16*
X292735000Y-60642500D03*
G36*
G01*
X292853476Y-58940240D02*
X292852403Y-58940166D01*
G75*
G02*
X293897334Y-60139903I-77403J-1122334D01*
G01*
X293857334Y-60719903D01*
G75*
G02*
X292657597Y-61764834I-1122334J77403D01*
G01*
X292657597Y-61764834D01*
G75*
G02*
X291612666Y-60565097I77403J1122334D01*
G01*
X291652666Y-59985097D01*
G75*
G02*
X292852403Y-58940166I1122334J-77403D01*
G01*
G37*
%TD*%
D13*
%TO.C,K_LArrow1*%
X323532500Y-117475000D03*
X333692500Y-117475000D03*
D14*
X327342500Y-112395000D03*
D15*
X329882500Y-112395000D03*
D16*
X331112500Y-121475000D03*
D11*
X328612500Y-117475000D03*
G36*
G01*
X333175272Y-119178962D02*
X333173817Y-119177655D01*
G75*
G02*
X333259845Y-120766317I-751317J-837345D01*
G01*
X331949843Y-122226317D01*
G75*
G02*
X330361181Y-122312345I-837345J751317D01*
G01*
X330361181Y-122312345D01*
G75*
G02*
X330275153Y-120723683I751317J837345D01*
G01*
X331585155Y-119263683D01*
G75*
G02*
X333173817Y-119177655I837345J-751317D01*
G01*
G37*
D16*
X326072500Y-122555000D03*
G36*
G01*
X326190976Y-120852740D02*
X326189903Y-120852666D01*
G75*
G02*
X327234834Y-122052403I-77403J-1122334D01*
G01*
X327194834Y-122632403D01*
G75*
G02*
X325995097Y-123677334I-1122334J77403D01*
G01*
X325995097Y-123677334D01*
G75*
G02*
X324950166Y-122477597I77403J1122334D01*
G01*
X324990166Y-121897597D01*
G75*
G02*
X326189903Y-120852666I1122334J-77403D01*
G01*
G37*
%TD*%
D13*
%TO.C,K_L1*%
X256857500Y-74612500D03*
X267017500Y-74612500D03*
D14*
X260667500Y-69532500D03*
D15*
X263207500Y-69532500D03*
D16*
X264437500Y-78612500D03*
D11*
X261937500Y-74612500D03*
G36*
G01*
X266500272Y-76316462D02*
X266498817Y-76315155D01*
G75*
G02*
X266584845Y-77903817I-751317J-837345D01*
G01*
X265274843Y-79363817D01*
G75*
G02*
X263686181Y-79449845I-837345J751317D01*
G01*
X263686181Y-79449845D01*
G75*
G02*
X263600153Y-77861183I751317J837345D01*
G01*
X264910155Y-76401183D01*
G75*
G02*
X266498817Y-76315155I837345J-751317D01*
G01*
G37*
D16*
X259397500Y-79692500D03*
G36*
G01*
X259515976Y-77990240D02*
X259514903Y-77990166D01*
G75*
G02*
X260559834Y-79189903I-77403J-1122334D01*
G01*
X260519834Y-79769903D01*
G75*
G02*
X259320097Y-80814834I-1122334J77403D01*
G01*
X259320097Y-80814834D01*
G75*
G02*
X258275166Y-79615097I77403J1122334D01*
G01*
X258315166Y-79035097D01*
G75*
G02*
X259514903Y-77990166I1122334J-77403D01*
G01*
G37*
%TD*%
D13*
%TO.C,K_K1*%
X237807500Y-74612500D03*
X247967500Y-74612500D03*
D14*
X241617500Y-69532500D03*
D15*
X244157500Y-69532500D03*
D16*
X245387500Y-78612500D03*
D11*
X242887500Y-74612500D03*
G36*
G01*
X247450272Y-76316462D02*
X247448817Y-76315155D01*
G75*
G02*
X247534845Y-77903817I-751317J-837345D01*
G01*
X246224843Y-79363817D01*
G75*
G02*
X244636181Y-79449845I-837345J751317D01*
G01*
X244636181Y-79449845D01*
G75*
G02*
X244550153Y-77861183I751317J837345D01*
G01*
X245860155Y-76401183D01*
G75*
G02*
X247448817Y-76315155I837345J-751317D01*
G01*
G37*
D16*
X240347500Y-79692500D03*
G36*
G01*
X240465976Y-77990240D02*
X240464903Y-77990166D01*
G75*
G02*
X241509834Y-79189903I-77403J-1122334D01*
G01*
X241469834Y-79769903D01*
G75*
G02*
X240270097Y-80814834I-1122334J77403D01*
G01*
X240270097Y-80814834D01*
G75*
G02*
X239225166Y-79615097I77403J1122334D01*
G01*
X239265166Y-79035097D01*
G75*
G02*
X240464903Y-77990166I1122334J-77403D01*
G01*
G37*
%TD*%
D13*
%TO.C,K_J1*%
X218757500Y-74612500D03*
X228917500Y-74612500D03*
D14*
X222567500Y-69532500D03*
D15*
X225107500Y-69532500D03*
D16*
X226337500Y-78612500D03*
D11*
X223837500Y-74612500D03*
G36*
G01*
X228400272Y-76316462D02*
X228398817Y-76315155D01*
G75*
G02*
X228484845Y-77903817I-751317J-837345D01*
G01*
X227174843Y-79363817D01*
G75*
G02*
X225586181Y-79449845I-837345J751317D01*
G01*
X225586181Y-79449845D01*
G75*
G02*
X225500153Y-77861183I751317J837345D01*
G01*
X226810155Y-76401183D01*
G75*
G02*
X228398817Y-76315155I837345J-751317D01*
G01*
G37*
D16*
X221297500Y-79692500D03*
G36*
G01*
X221415976Y-77990240D02*
X221414903Y-77990166D01*
G75*
G02*
X222459834Y-79189903I-77403J-1122334D01*
G01*
X222419834Y-79769903D01*
G75*
G02*
X221220097Y-80814834I-1122334J77403D01*
G01*
X221220097Y-80814834D01*
G75*
G02*
X220175166Y-79615097I77403J1122334D01*
G01*
X220215166Y-79035097D01*
G75*
G02*
X221414903Y-77990166I1122334J-77403D01*
G01*
G37*
%TD*%
D13*
%TO.C,K_I1*%
X233045000Y-55562500D03*
X243205000Y-55562500D03*
D14*
X236855000Y-50482500D03*
D15*
X239395000Y-50482500D03*
D16*
X240625000Y-59562500D03*
D11*
X238125000Y-55562500D03*
G36*
G01*
X242687772Y-57266462D02*
X242686317Y-57265155D01*
G75*
G02*
X242772345Y-58853817I-751317J-837345D01*
G01*
X241462343Y-60313817D01*
G75*
G02*
X239873681Y-60399845I-837345J751317D01*
G01*
X239873681Y-60399845D01*
G75*
G02*
X239787653Y-58811183I751317J837345D01*
G01*
X241097655Y-57351183D01*
G75*
G02*
X242686317Y-57265155I837345J-751317D01*
G01*
G37*
D16*
X235585000Y-60642500D03*
G36*
G01*
X235703476Y-58940240D02*
X235702403Y-58940166D01*
G75*
G02*
X236747334Y-60139903I-77403J-1122334D01*
G01*
X236707334Y-60719903D01*
G75*
G02*
X235507597Y-61764834I-1122334J77403D01*
G01*
X235507597Y-61764834D01*
G75*
G02*
X234462666Y-60565097I77403J1122334D01*
G01*
X234502666Y-59985097D01*
G75*
G02*
X235702403Y-58940166I1122334J-77403D01*
G01*
G37*
%TD*%
D13*
%TO.C,K_H1*%
X199707500Y-74612500D03*
X209867500Y-74612500D03*
D14*
X203517500Y-69532500D03*
D15*
X206057500Y-69532500D03*
D16*
X207287500Y-78612500D03*
D11*
X204787500Y-74612500D03*
G36*
G01*
X209350272Y-76316462D02*
X209348817Y-76315155D01*
G75*
G02*
X209434845Y-77903817I-751317J-837345D01*
G01*
X208124843Y-79363817D01*
G75*
G02*
X206536181Y-79449845I-837345J751317D01*
G01*
X206536181Y-79449845D01*
G75*
G02*
X206450153Y-77861183I751317J837345D01*
G01*
X207760155Y-76401183D01*
G75*
G02*
X209348817Y-76315155I837345J-751317D01*
G01*
G37*
D16*
X202247500Y-79692500D03*
G36*
G01*
X202365976Y-77990240D02*
X202364903Y-77990166D01*
G75*
G02*
X203409834Y-79189903I-77403J-1122334D01*
G01*
X203369834Y-79769903D01*
G75*
G02*
X202170097Y-80814834I-1122334J77403D01*
G01*
X202170097Y-80814834D01*
G75*
G02*
X201125166Y-79615097I77403J1122334D01*
G01*
X201165166Y-79035097D01*
G75*
G02*
X202364903Y-77990166I1122334J-77403D01*
G01*
G37*
%TD*%
D13*
%TO.C,K_G1*%
X180657500Y-74612500D03*
X190817500Y-74612500D03*
D14*
X184467500Y-69532500D03*
D15*
X187007500Y-69532500D03*
D16*
X188237500Y-78612500D03*
D11*
X185737500Y-74612500D03*
G36*
G01*
X190300272Y-76316462D02*
X190298817Y-76315155D01*
G75*
G02*
X190384845Y-77903817I-751317J-837345D01*
G01*
X189074843Y-79363817D01*
G75*
G02*
X187486181Y-79449845I-837345J751317D01*
G01*
X187486181Y-79449845D01*
G75*
G02*
X187400153Y-77861183I751317J837345D01*
G01*
X188710155Y-76401183D01*
G75*
G02*
X190298817Y-76315155I837345J-751317D01*
G01*
G37*
D16*
X183197500Y-79692500D03*
G36*
G01*
X183315976Y-77990240D02*
X183314903Y-77990166D01*
G75*
G02*
X184359834Y-79189903I-77403J-1122334D01*
G01*
X184319834Y-79769903D01*
G75*
G02*
X183120097Y-80814834I-1122334J77403D01*
G01*
X183120097Y-80814834D01*
G75*
G02*
X182075166Y-79615097I77403J1122334D01*
G01*
X182115166Y-79035097D01*
G75*
G02*
X183314903Y-77990166I1122334J-77403D01*
G01*
G37*
%TD*%
D13*
%TO.C,K_Fn1*%
X280670000Y-112712500D03*
X290830000Y-112712500D03*
D14*
X284480000Y-107632500D03*
D15*
X287020000Y-107632500D03*
D16*
X288250000Y-116712500D03*
D11*
X285750000Y-112712500D03*
G36*
G01*
X290312772Y-114416462D02*
X290311317Y-114415155D01*
G75*
G02*
X290397345Y-116003817I-751317J-837345D01*
G01*
X289087343Y-117463817D01*
G75*
G02*
X287498681Y-117549845I-837345J751317D01*
G01*
X287498681Y-117549845D01*
G75*
G02*
X287412653Y-115961183I751317J837345D01*
G01*
X288722655Y-114501183D01*
G75*
G02*
X290311317Y-114415155I837345J-751317D01*
G01*
G37*
D16*
X283210000Y-117792500D03*
G36*
G01*
X283328476Y-116090240D02*
X283327403Y-116090166D01*
G75*
G02*
X284372334Y-117289903I-77403J-1122334D01*
G01*
X284332334Y-117869903D01*
G75*
G02*
X283132597Y-118914834I-1122334J77403D01*
G01*
X283132597Y-118914834D01*
G75*
G02*
X282087666Y-117715097I77403J1122334D01*
G01*
X282127666Y-117135097D01*
G75*
G02*
X283327403Y-116090166I1122334J-77403D01*
G01*
G37*
%TD*%
%TO.C,K_F18*%
G36*
G01*
X364290976Y-77990240D02*
X364289903Y-77990166D01*
G75*
G02*
X365334834Y-79189903I-77403J-1122334D01*
G01*
X365294834Y-79769903D01*
G75*
G02*
X364095097Y-80814834I-1122334J77403D01*
G01*
X364095097Y-80814834D01*
G75*
G02*
X363050166Y-79615097I77403J1122334D01*
G01*
X363090166Y-79035097D01*
G75*
G02*
X364289903Y-77990166I1122334J-77403D01*
G01*
G37*
X364172500Y-79692500D03*
G36*
G01*
X371275272Y-76316462D02*
X371273817Y-76315155D01*
G75*
G02*
X371359845Y-77903817I-751317J-837345D01*
G01*
X370049843Y-79363817D01*
G75*
G02*
X368461181Y-79449845I-837345J751317D01*
G01*
X368461181Y-79449845D01*
G75*
G02*
X368375153Y-77861183I751317J837345D01*
G01*
X369685155Y-76401183D01*
G75*
G02*
X371273817Y-76315155I837345J-751317D01*
G01*
G37*
D11*
X366712500Y-74612500D03*
D16*
X369212500Y-78612500D03*
D15*
X367982500Y-69532500D03*
D14*
X365442500Y-69532500D03*
D13*
X371792500Y-74612500D03*
X361632500Y-74612500D03*
%TD*%
%TO.C,K_F17*%
X361632500Y-55562500D03*
X371792500Y-55562500D03*
D14*
X365442500Y-50482500D03*
D15*
X367982500Y-50482500D03*
D16*
X369212500Y-59562500D03*
D11*
X366712500Y-55562500D03*
G36*
G01*
X371275272Y-57266462D02*
X371273817Y-57265155D01*
G75*
G02*
X371359845Y-58853817I-751317J-837345D01*
G01*
X370049843Y-60313817D01*
G75*
G02*
X368461181Y-60399845I-837345J751317D01*
G01*
X368461181Y-60399845D01*
G75*
G02*
X368375153Y-58811183I751317J837345D01*
G01*
X369685155Y-57351183D01*
G75*
G02*
X371273817Y-57265155I837345J-751317D01*
G01*
G37*
D16*
X364172500Y-60642500D03*
G36*
G01*
X364290976Y-58940240D02*
X364289903Y-58940166D01*
G75*
G02*
X365334834Y-60139903I-77403J-1122334D01*
G01*
X365294834Y-60719903D01*
G75*
G02*
X364095097Y-61764834I-1122334J77403D01*
G01*
X364095097Y-61764834D01*
G75*
G02*
X363050166Y-60565097I77403J1122334D01*
G01*
X363090166Y-59985097D01*
G75*
G02*
X364289903Y-58940166I1122334J-77403D01*
G01*
G37*
%TD*%
D13*
%TO.C,K_F16*%
X47275750Y-112712500D03*
X57435750Y-112712500D03*
D14*
X51085750Y-107632500D03*
D15*
X53625750Y-107632500D03*
D16*
X54855750Y-116712500D03*
D11*
X52355750Y-112712500D03*
G36*
G01*
X56918522Y-114416462D02*
X56917067Y-114415155D01*
G75*
G02*
X57003095Y-116003817I-751317J-837345D01*
G01*
X55693093Y-117463817D01*
G75*
G02*
X54104431Y-117549845I-837345J751317D01*
G01*
X54104431Y-117549845D01*
G75*
G02*
X54018403Y-115961183I751317J837345D01*
G01*
X55328405Y-114501183D01*
G75*
G02*
X56917067Y-114415155I837345J-751317D01*
G01*
G37*
D16*
X49815750Y-117792500D03*
G36*
G01*
X49934226Y-116090240D02*
X49933153Y-116090166D01*
G75*
G02*
X50978084Y-117289903I-77403J-1122334D01*
G01*
X50938084Y-117869903D01*
G75*
G02*
X49738347Y-118914834I-1122334J77403D01*
G01*
X49738347Y-118914834D01*
G75*
G02*
X48693416Y-117715097I77403J1122334D01*
G01*
X48733416Y-117135097D01*
G75*
G02*
X49933153Y-116090166I1122334J-77403D01*
G01*
G37*
%TD*%
D13*
%TO.C,K_F15*%
X47275750Y-93662500D03*
X57435750Y-93662500D03*
D14*
X51085750Y-88582500D03*
D15*
X53625750Y-88582500D03*
D16*
X54855750Y-97662500D03*
D11*
X52355750Y-93662500D03*
G36*
G01*
X56918522Y-95366462D02*
X56917067Y-95365155D01*
G75*
G02*
X57003095Y-96953817I-751317J-837345D01*
G01*
X55693093Y-98413817D01*
G75*
G02*
X54104431Y-98499845I-837345J751317D01*
G01*
X54104431Y-98499845D01*
G75*
G02*
X54018403Y-96911183I751317J837345D01*
G01*
X55328405Y-95451183D01*
G75*
G02*
X56917067Y-95365155I837345J-751317D01*
G01*
G37*
D16*
X49815750Y-98742500D03*
G36*
G01*
X49934226Y-97040240D02*
X49933153Y-97040166D01*
G75*
G02*
X50978084Y-98239903I-77403J-1122334D01*
G01*
X50938084Y-98819903D01*
G75*
G02*
X49738347Y-99864834I-1122334J77403D01*
G01*
X49738347Y-99864834D01*
G75*
G02*
X48693416Y-98665097I77403J1122334D01*
G01*
X48733416Y-98085097D01*
G75*
G02*
X49933153Y-97040166I1122334J-77403D01*
G01*
G37*
%TD*%
D13*
%TO.C,K_F14*%
X47307500Y-74612500D03*
X57467500Y-74612500D03*
D14*
X51117500Y-69532500D03*
D15*
X53657500Y-69532500D03*
D16*
X54887500Y-78612500D03*
D11*
X52387500Y-74612500D03*
G36*
G01*
X56950272Y-76316462D02*
X56948817Y-76315155D01*
G75*
G02*
X57034845Y-77903817I-751317J-837345D01*
G01*
X55724843Y-79363817D01*
G75*
G02*
X54136181Y-79449845I-837345J751317D01*
G01*
X54136181Y-79449845D01*
G75*
G02*
X54050153Y-77861183I751317J837345D01*
G01*
X55360155Y-76401183D01*
G75*
G02*
X56948817Y-76315155I837345J-751317D01*
G01*
G37*
D16*
X49847500Y-79692500D03*
G36*
G01*
X49965976Y-77990240D02*
X49964903Y-77990166D01*
G75*
G02*
X51009834Y-79189903I-77403J-1122334D01*
G01*
X50969834Y-79769903D01*
G75*
G02*
X49770097Y-80814834I-1122334J77403D01*
G01*
X49770097Y-80814834D01*
G75*
G02*
X48725166Y-79615097I77403J1122334D01*
G01*
X48765166Y-79035097D01*
G75*
G02*
X49964903Y-77990166I1122334J-77403D01*
G01*
G37*
%TD*%
D13*
%TO.C,K_F13*%
X47275750Y-55562500D03*
X57435750Y-55562500D03*
D14*
X51085750Y-50482500D03*
D15*
X53625750Y-50482500D03*
D16*
X54855750Y-59562500D03*
D11*
X52355750Y-55562500D03*
G36*
G01*
X56918522Y-57266462D02*
X56917067Y-57265155D01*
G75*
G02*
X57003095Y-58853817I-751317J-837345D01*
G01*
X55693093Y-60313817D01*
G75*
G02*
X54104431Y-60399845I-837345J751317D01*
G01*
X54104431Y-60399845D01*
G75*
G02*
X54018403Y-58811183I751317J837345D01*
G01*
X55328405Y-57351183D01*
G75*
G02*
X56917067Y-57265155I837345J-751317D01*
G01*
G37*
D16*
X49815750Y-60642500D03*
G36*
G01*
X49934226Y-58940240D02*
X49933153Y-58940166D01*
G75*
G02*
X50978084Y-60139903I-77403J-1122334D01*
G01*
X50938084Y-60719903D01*
G75*
G02*
X49738347Y-61764834I-1122334J77403D01*
G01*
X49738347Y-61764834D01*
G75*
G02*
X48693416Y-60565097I77403J1122334D01*
G01*
X48733416Y-59985097D01*
G75*
G02*
X49933153Y-58940166I1122334J-77403D01*
G01*
G37*
%TD*%
D13*
%TO.C,K_F1*%
X161607500Y-74612500D03*
X171767500Y-74612500D03*
D14*
X165417500Y-69532500D03*
D15*
X167957500Y-69532500D03*
D16*
X169187500Y-78612500D03*
D11*
X166687500Y-74612500D03*
G36*
G01*
X171250272Y-76316462D02*
X171248817Y-76315155D01*
G75*
G02*
X171334845Y-77903817I-751317J-837345D01*
G01*
X170024843Y-79363817D01*
G75*
G02*
X168436181Y-79449845I-837345J751317D01*
G01*
X168436181Y-79449845D01*
G75*
G02*
X168350153Y-77861183I751317J837345D01*
G01*
X169660155Y-76401183D01*
G75*
G02*
X171248817Y-76315155I837345J-751317D01*
G01*
G37*
D16*
X164147500Y-79692500D03*
G36*
G01*
X164265976Y-77990240D02*
X164264903Y-77990166D01*
G75*
G02*
X165309834Y-79189903I-77403J-1122334D01*
G01*
X165269834Y-79769903D01*
G75*
G02*
X164070097Y-80814834I-1122334J77403D01*
G01*
X164070097Y-80814834D01*
G75*
G02*
X163025166Y-79615097I77403J1122334D01*
G01*
X163065166Y-79035097D01*
G75*
G02*
X164264903Y-77990166I1122334J-77403D01*
G01*
G37*
%TD*%
D13*
%TO.C,K_Esc1*%
X71120000Y-36512500D03*
X81280000Y-36512500D03*
D14*
X74930000Y-31432500D03*
D15*
X77470000Y-31432500D03*
D16*
X78700000Y-40512500D03*
D11*
X76200000Y-36512500D03*
G36*
G01*
X80762772Y-38216462D02*
X80761317Y-38215155D01*
G75*
G02*
X80847345Y-39803817I-751317J-837345D01*
G01*
X79537343Y-41263817D01*
G75*
G02*
X77948681Y-41349845I-837345J751317D01*
G01*
X77948681Y-41349845D01*
G75*
G02*
X77862653Y-39761183I751317J837345D01*
G01*
X79172655Y-38301183D01*
G75*
G02*
X80761317Y-38215155I837345J-751317D01*
G01*
G37*
D16*
X73660000Y-41592500D03*
G36*
G01*
X73778476Y-39890240D02*
X73777403Y-39890166D01*
G75*
G02*
X74822334Y-41089903I-77403J-1122334D01*
G01*
X74782334Y-41669903D01*
G75*
G02*
X73582597Y-42714834I-1122334J77403D01*
G01*
X73582597Y-42714834D01*
G75*
G02*
X72537666Y-41515097I77403J1122334D01*
G01*
X72577666Y-40935097D01*
G75*
G02*
X73777403Y-39890166I1122334J-77403D01*
G01*
G37*
%TD*%
D11*
%TO.C,K_Enter1*%
X319055750Y-66357500D03*
X342931750Y-66357500D03*
D12*
X319055750Y-81597500D03*
X342931750Y-81597500D03*
D13*
X325913750Y-74612500D03*
X336073750Y-74612500D03*
D14*
X329723750Y-69532500D03*
D15*
X332263750Y-69532500D03*
D16*
X333493750Y-78612500D03*
D11*
X330993750Y-74612500D03*
G36*
G01*
X335556522Y-76316462D02*
X335555067Y-76315155D01*
G75*
G02*
X335641095Y-77903817I-751317J-837345D01*
G01*
X334331093Y-79363817D01*
G75*
G02*
X332742431Y-79449845I-837345J751317D01*
G01*
X332742431Y-79449845D01*
G75*
G02*
X332656403Y-77861183I751317J837345D01*
G01*
X333966405Y-76401183D01*
G75*
G02*
X335555067Y-76315155I837345J-751317D01*
G01*
G37*
D16*
X328453750Y-79692500D03*
G36*
G01*
X328572226Y-77990240D02*
X328571153Y-77990166D01*
G75*
G02*
X329616084Y-79189903I-77403J-1122334D01*
G01*
X329576084Y-79769903D01*
G75*
G02*
X328376347Y-80814834I-1122334J77403D01*
G01*
X328376347Y-80814834D01*
G75*
G02*
X327331416Y-79615097I77403J1122334D01*
G01*
X327371416Y-79035097D01*
G75*
G02*
X328571153Y-77990166I1122334J-77403D01*
G01*
G37*
%TD*%
D13*
%TO.C,K_E1*%
X137795000Y-55562500D03*
X147955000Y-55562500D03*
D14*
X141605000Y-50482500D03*
D15*
X144145000Y-50482500D03*
D16*
X145375000Y-59562500D03*
D11*
X142875000Y-55562500D03*
G36*
G01*
X147437772Y-57266462D02*
X147436317Y-57265155D01*
G75*
G02*
X147522345Y-58853817I-751317J-837345D01*
G01*
X146212343Y-60313817D01*
G75*
G02*
X144623681Y-60399845I-837345J751317D01*
G01*
X144623681Y-60399845D01*
G75*
G02*
X144537653Y-58811183I751317J837345D01*
G01*
X145847655Y-57351183D01*
G75*
G02*
X147436317Y-57265155I837345J-751317D01*
G01*
G37*
D16*
X140335000Y-60642500D03*
G36*
G01*
X140453476Y-58940240D02*
X140452403Y-58940166D01*
G75*
G02*
X141497334Y-60139903I-77403J-1122334D01*
G01*
X141457334Y-60719903D01*
G75*
G02*
X140257597Y-61764834I-1122334J77403D01*
G01*
X140257597Y-61764834D01*
G75*
G02*
X139212666Y-60565097I77403J1122334D01*
G01*
X139252666Y-59985097D01*
G75*
G02*
X140452403Y-58940166I1122334J-77403D01*
G01*
G37*
%TD*%
D13*
%TO.C,K_DArrow1*%
X342582500Y-117475000D03*
X352742500Y-117475000D03*
D14*
X346392500Y-112395000D03*
D15*
X348932500Y-112395000D03*
D16*
X350162500Y-121475000D03*
D11*
X347662500Y-117475000D03*
G36*
G01*
X352225272Y-119178962D02*
X352223817Y-119177655D01*
G75*
G02*
X352309845Y-120766317I-751317J-837345D01*
G01*
X350999843Y-122226317D01*
G75*
G02*
X349411181Y-122312345I-837345J751317D01*
G01*
X349411181Y-122312345D01*
G75*
G02*
X349325153Y-120723683I751317J837345D01*
G01*
X350635155Y-119263683D01*
G75*
G02*
X352223817Y-119177655I837345J-751317D01*
G01*
G37*
D16*
X345122500Y-122555000D03*
G36*
G01*
X345240976Y-120852740D02*
X345239903Y-120852666D01*
G75*
G02*
X346284834Y-122052403I-77403J-1122334D01*
G01*
X346244834Y-122632403D01*
G75*
G02*
X345045097Y-123677334I-1122334J77403D01*
G01*
X345045097Y-123677334D01*
G75*
G02*
X344000166Y-122477597I77403J1122334D01*
G01*
X344040166Y-121897597D01*
G75*
G02*
X345239903Y-120852666I1122334J-77403D01*
G01*
G37*
%TD*%
D13*
%TO.C,K_D1*%
X142557500Y-74612500D03*
X152717500Y-74612500D03*
D14*
X146367500Y-69532500D03*
D15*
X148907500Y-69532500D03*
D16*
X150137500Y-78612500D03*
D11*
X147637500Y-74612500D03*
G36*
G01*
X152200272Y-76316462D02*
X152198817Y-76315155D01*
G75*
G02*
X152284845Y-77903817I-751317J-837345D01*
G01*
X150974843Y-79363817D01*
G75*
G02*
X149386181Y-79449845I-837345J751317D01*
G01*
X149386181Y-79449845D01*
G75*
G02*
X149300153Y-77861183I751317J837345D01*
G01*
X150610155Y-76401183D01*
G75*
G02*
X152198817Y-76315155I837345J-751317D01*
G01*
G37*
D16*
X145097500Y-79692500D03*
G36*
G01*
X145215976Y-77990240D02*
X145214903Y-77990166D01*
G75*
G02*
X146259834Y-79189903I-77403J-1122334D01*
G01*
X146219834Y-79769903D01*
G75*
G02*
X145020097Y-80814834I-1122334J77403D01*
G01*
X145020097Y-80814834D01*
G75*
G02*
X143975166Y-79615097I77403J1122334D01*
G01*
X144015166Y-79035097D01*
G75*
G02*
X145214903Y-77990166I1122334J-77403D01*
G01*
G37*
%TD*%
D13*
%TO.C,K_Ctrl2*%
X299720000Y-112712500D03*
X309880000Y-112712500D03*
D14*
X303530000Y-107632500D03*
D15*
X306070000Y-107632500D03*
D16*
X307300000Y-116712500D03*
D11*
X304800000Y-112712500D03*
G36*
G01*
X309362772Y-114416462D02*
X309361317Y-114415155D01*
G75*
G02*
X309447345Y-116003817I-751317J-837345D01*
G01*
X308137343Y-117463817D01*
G75*
G02*
X306548681Y-117549845I-837345J751317D01*
G01*
X306548681Y-117549845D01*
G75*
G02*
X306462653Y-115961183I751317J837345D01*
G01*
X307772655Y-114501183D01*
G75*
G02*
X309361317Y-114415155I837345J-751317D01*
G01*
G37*
D16*
X302260000Y-117792500D03*
G36*
G01*
X302378476Y-116090240D02*
X302377403Y-116090166D01*
G75*
G02*
X303422334Y-117289903I-77403J-1122334D01*
G01*
X303382334Y-117869903D01*
G75*
G02*
X302182597Y-118914834I-1122334J77403D01*
G01*
X302182597Y-118914834D01*
G75*
G02*
X301137666Y-117715097I77403J1122334D01*
G01*
X301177666Y-117135097D01*
G75*
G02*
X302377403Y-116090166I1122334J-77403D01*
G01*
G37*
%TD*%
D13*
%TO.C,K_Ctrl1*%
X73501250Y-112712500D03*
X83661250Y-112712500D03*
D14*
X77311250Y-107632500D03*
D15*
X79851250Y-107632500D03*
D16*
X81081250Y-116712500D03*
D11*
X78581250Y-112712500D03*
G36*
G01*
X83144022Y-114416462D02*
X83142567Y-114415155D01*
G75*
G02*
X83228595Y-116003817I-751317J-837345D01*
G01*
X81918593Y-117463817D01*
G75*
G02*
X80329931Y-117549845I-837345J751317D01*
G01*
X80329931Y-117549845D01*
G75*
G02*
X80243903Y-115961183I751317J837345D01*
G01*
X81553905Y-114501183D01*
G75*
G02*
X83142567Y-114415155I837345J-751317D01*
G01*
G37*
D16*
X76041250Y-117792500D03*
G36*
G01*
X76159726Y-116090240D02*
X76158653Y-116090166D01*
G75*
G02*
X77203584Y-117289903I-77403J-1122334D01*
G01*
X77163584Y-117869903D01*
G75*
G02*
X75963847Y-118914834I-1122334J77403D01*
G01*
X75963847Y-118914834D01*
G75*
G02*
X74918916Y-117715097I77403J1122334D01*
G01*
X74958916Y-117135097D01*
G75*
G02*
X76158653Y-116090166I1122334J-77403D01*
G01*
G37*
%TD*%
D13*
%TO.C,K_Colon1*%
X275907500Y-74612500D03*
X286067500Y-74612500D03*
D14*
X279717500Y-69532500D03*
D15*
X282257500Y-69532500D03*
D16*
X283487500Y-78612500D03*
D11*
X280987500Y-74612500D03*
G36*
G01*
X285550272Y-76316462D02*
X285548817Y-76315155D01*
G75*
G02*
X285634845Y-77903817I-751317J-837345D01*
G01*
X284324843Y-79363817D01*
G75*
G02*
X282736181Y-79449845I-837345J751317D01*
G01*
X282736181Y-79449845D01*
G75*
G02*
X282650153Y-77861183I751317J837345D01*
G01*
X283960155Y-76401183D01*
G75*
G02*
X285548817Y-76315155I837345J-751317D01*
G01*
G37*
D16*
X278447500Y-79692500D03*
G36*
G01*
X278565976Y-77990240D02*
X278564903Y-77990166D01*
G75*
G02*
X279609834Y-79189903I-77403J-1122334D01*
G01*
X279569834Y-79769903D01*
G75*
G02*
X278370097Y-80814834I-1122334J77403D01*
G01*
X278370097Y-80814834D01*
G75*
G02*
X277325166Y-79615097I77403J1122334D01*
G01*
X277365166Y-79035097D01*
G75*
G02*
X278564903Y-77990166I1122334J-77403D01*
G01*
G37*
%TD*%
D13*
%TO.C,K_C1*%
X152082500Y-93662500D03*
X162242500Y-93662500D03*
D14*
X155892500Y-88582500D03*
D15*
X158432500Y-88582500D03*
D16*
X159662500Y-97662500D03*
D11*
X157162500Y-93662500D03*
G36*
G01*
X161725272Y-95366462D02*
X161723817Y-95365155D01*
G75*
G02*
X161809845Y-96953817I-751317J-837345D01*
G01*
X160499843Y-98413817D01*
G75*
G02*
X158911181Y-98499845I-837345J751317D01*
G01*
X158911181Y-98499845D01*
G75*
G02*
X158825153Y-96911183I751317J837345D01*
G01*
X160135155Y-95451183D01*
G75*
G02*
X161723817Y-95365155I837345J-751317D01*
G01*
G37*
D16*
X154622500Y-98742500D03*
G36*
G01*
X154740976Y-97040240D02*
X154739903Y-97040166D01*
G75*
G02*
X155784834Y-98239903I-77403J-1122334D01*
G01*
X155744834Y-98819903D01*
G75*
G02*
X154545097Y-99864834I-1122334J77403D01*
G01*
X154545097Y-99864834D01*
G75*
G02*
X153500166Y-98665097I77403J1122334D01*
G01*
X153540166Y-98085097D01*
G75*
G02*
X154739903Y-97040166I1122334J-77403D01*
G01*
G37*
%TD*%
D13*
%TO.C,K_BSlash1*%
X333057500Y-55562500D03*
X343217500Y-55562500D03*
D14*
X336867500Y-50482500D03*
D15*
X339407500Y-50482500D03*
D16*
X340637500Y-59562500D03*
D11*
X338137500Y-55562500D03*
G36*
G01*
X342700272Y-57266462D02*
X342698817Y-57265155D01*
G75*
G02*
X342784845Y-58853817I-751317J-837345D01*
G01*
X341474843Y-60313817D01*
G75*
G02*
X339886181Y-60399845I-837345J751317D01*
G01*
X339886181Y-60399845D01*
G75*
G02*
X339800153Y-58811183I751317J837345D01*
G01*
X341110155Y-57351183D01*
G75*
G02*
X342698817Y-57265155I837345J-751317D01*
G01*
G37*
D16*
X335597500Y-60642500D03*
G36*
G01*
X335715976Y-58940240D02*
X335714903Y-58940166D01*
G75*
G02*
X336759834Y-60139903I-77403J-1122334D01*
G01*
X336719834Y-60719903D01*
G75*
G02*
X335520097Y-61764834I-1122334J77403D01*
G01*
X335520097Y-61764834D01*
G75*
G02*
X334475166Y-60565097I77403J1122334D01*
G01*
X334515166Y-59985097D01*
G75*
G02*
X335714903Y-58940166I1122334J-77403D01*
G01*
G37*
%TD*%
D13*
%TO.C,K_B1*%
X190182500Y-93662500D03*
X200342500Y-93662500D03*
D14*
X193992500Y-88582500D03*
D15*
X196532500Y-88582500D03*
D16*
X197762500Y-97662500D03*
D11*
X195262500Y-93662500D03*
G36*
G01*
X199825272Y-95366462D02*
X199823817Y-95365155D01*
G75*
G02*
X199909845Y-96953817I-751317J-837345D01*
G01*
X198599843Y-98413817D01*
G75*
G02*
X197011181Y-98499845I-837345J751317D01*
G01*
X197011181Y-98499845D01*
G75*
G02*
X196925153Y-96911183I751317J837345D01*
G01*
X198235155Y-95451183D01*
G75*
G02*
X199823817Y-95365155I837345J-751317D01*
G01*
G37*
D16*
X192722500Y-98742500D03*
G36*
G01*
X192840976Y-97040240D02*
X192839903Y-97040166D01*
G75*
G02*
X193884834Y-98239903I-77403J-1122334D01*
G01*
X193844834Y-98819903D01*
G75*
G02*
X192645097Y-99864834I-1122334J77403D01*
G01*
X192645097Y-99864834D01*
G75*
G02*
X191600166Y-98665097I77403J1122334D01*
G01*
X191640166Y-98085097D01*
G75*
G02*
X192839903Y-97040166I1122334J-77403D01*
G01*
G37*
%TD*%
D13*
%TO.C,K_Apostrophe1*%
X294957500Y-74612500D03*
X305117500Y-74612500D03*
D14*
X298767500Y-69532500D03*
D15*
X301307500Y-69532500D03*
D16*
X302537500Y-78612500D03*
D11*
X300037500Y-74612500D03*
G36*
G01*
X304600272Y-76316462D02*
X304598817Y-76315155D01*
G75*
G02*
X304684845Y-77903817I-751317J-837345D01*
G01*
X303374843Y-79363817D01*
G75*
G02*
X301786181Y-79449845I-837345J751317D01*
G01*
X301786181Y-79449845D01*
G75*
G02*
X301700153Y-77861183I751317J837345D01*
G01*
X303010155Y-76401183D01*
G75*
G02*
X304598817Y-76315155I837345J-751317D01*
G01*
G37*
D16*
X297497500Y-79692500D03*
G36*
G01*
X297615976Y-77990240D02*
X297614903Y-77990166D01*
G75*
G02*
X298659834Y-79189903I-77403J-1122334D01*
G01*
X298619834Y-79769903D01*
G75*
G02*
X297420097Y-80814834I-1122334J77403D01*
G01*
X297420097Y-80814834D01*
G75*
G02*
X296375166Y-79615097I77403J1122334D01*
G01*
X296415166Y-79035097D01*
G75*
G02*
X297614903Y-77990166I1122334J-77403D01*
G01*
G37*
%TD*%
D13*
%TO.C,K_Alt2*%
X261620000Y-112712500D03*
X271780000Y-112712500D03*
D14*
X265430000Y-107632500D03*
D15*
X267970000Y-107632500D03*
D16*
X269200000Y-116712500D03*
D11*
X266700000Y-112712500D03*
G36*
G01*
X271262772Y-114416462D02*
X271261317Y-114415155D01*
G75*
G02*
X271347345Y-116003817I-751317J-837345D01*
G01*
X270037343Y-117463817D01*
G75*
G02*
X268448681Y-117549845I-837345J751317D01*
G01*
X268448681Y-117549845D01*
G75*
G02*
X268362653Y-115961183I751317J837345D01*
G01*
X269672655Y-114501183D01*
G75*
G02*
X271261317Y-114415155I837345J-751317D01*
G01*
G37*
D16*
X264160000Y-117792500D03*
G36*
G01*
X264278476Y-116090240D02*
X264277403Y-116090166D01*
G75*
G02*
X265322334Y-117289903I-77403J-1122334D01*
G01*
X265282334Y-117869903D01*
G75*
G02*
X264082597Y-118914834I-1122334J77403D01*
G01*
X264082597Y-118914834D01*
G75*
G02*
X263037666Y-117715097I77403J1122334D01*
G01*
X263077666Y-117135097D01*
G75*
G02*
X264277403Y-116090166I1122334J-77403D01*
G01*
G37*
%TD*%
D13*
%TO.C,K_Alt1*%
X121126250Y-112712500D03*
X131286250Y-112712500D03*
D14*
X124936250Y-107632500D03*
D15*
X127476250Y-107632500D03*
D16*
X128706250Y-116712500D03*
D11*
X126206250Y-112712500D03*
G36*
G01*
X130769022Y-114416462D02*
X130767567Y-114415155D01*
G75*
G02*
X130853595Y-116003817I-751317J-837345D01*
G01*
X129543593Y-117463817D01*
G75*
G02*
X127954931Y-117549845I-837345J751317D01*
G01*
X127954931Y-117549845D01*
G75*
G02*
X127868903Y-115961183I751317J837345D01*
G01*
X129178905Y-114501183D01*
G75*
G02*
X130767567Y-114415155I837345J-751317D01*
G01*
G37*
D16*
X123666250Y-117792500D03*
G36*
G01*
X123784726Y-116090240D02*
X123783653Y-116090166D01*
G75*
G02*
X124828584Y-117289903I-77403J-1122334D01*
G01*
X124788584Y-117869903D01*
G75*
G02*
X123588847Y-118914834I-1122334J77403D01*
G01*
X123588847Y-118914834D01*
G75*
G02*
X122543916Y-117715097I77403J1122334D01*
G01*
X122583916Y-117135097D01*
G75*
G02*
X123783653Y-116090166I1122334J-77403D01*
G01*
G37*
%TD*%
D13*
%TO.C,K_A1*%
X104457500Y-74612500D03*
X114617500Y-74612500D03*
D14*
X108267500Y-69532500D03*
D15*
X110807500Y-69532500D03*
D16*
X112037500Y-78612500D03*
D11*
X109537500Y-74612500D03*
G36*
G01*
X114100272Y-76316462D02*
X114098817Y-76315155D01*
G75*
G02*
X114184845Y-77903817I-751317J-837345D01*
G01*
X112874843Y-79363817D01*
G75*
G02*
X111286181Y-79449845I-837345J751317D01*
G01*
X111286181Y-79449845D01*
G75*
G02*
X111200153Y-77861183I751317J837345D01*
G01*
X112510155Y-76401183D01*
G75*
G02*
X114098817Y-76315155I837345J-751317D01*
G01*
G37*
D16*
X106997500Y-79692500D03*
G36*
G01*
X107115976Y-77990240D02*
X107114903Y-77990166D01*
G75*
G02*
X108159834Y-79189903I-77403J-1122334D01*
G01*
X108119834Y-79769903D01*
G75*
G02*
X106920097Y-80814834I-1122334J77403D01*
G01*
X106920097Y-80814834D01*
G75*
G02*
X105875166Y-79615097I77403J1122334D01*
G01*
X105915166Y-79035097D01*
G75*
G02*
X107114903Y-77990166I1122334J-77403D01*
G01*
G37*
%TD*%
D22*
%TO.C,D_Z1*%
X127000000Y-92012500D03*
X127000000Y-95312500D03*
%TD*%
%TO.C,D_Y1*%
X207962500Y-53912500D03*
X207962500Y-57212500D03*
%TD*%
%TO.C,D_X1*%
X146050000Y-92012500D03*
X146050000Y-95312500D03*
%TD*%
%TO.C,D_Win1*%
X374650000Y-96775000D03*
X374650000Y-100075000D03*
%TD*%
%TO.C,D_W1*%
X131762500Y-53912500D03*
X131762500Y-57212500D03*
%TD*%
%TO.C,D_V1*%
X184150000Y-92012500D03*
X184150000Y-95312500D03*
%TD*%
%TO.C,D_UArrow1*%
X355600000Y-96775000D03*
X355600000Y-100075000D03*
%TD*%
%TO.C,D_U1*%
X227012500Y-53912500D03*
X227012500Y-57212500D03*
%TD*%
%TO.C,D_Tab1*%
X88900000Y-53912500D03*
X88900000Y-57212500D03*
%TD*%
%TO.C,D_T1*%
X188912500Y-53912500D03*
X188912500Y-57212500D03*
%TD*%
%TO.C,D_Space_4*%
X253206250Y-111062500D03*
X253206250Y-114362500D03*
%TD*%
%TO.C,D_Space_3*%
X230187500Y-111062500D03*
X230187500Y-114362500D03*
%TD*%
%TO.C,D_Space_2*%
X192087500Y-111062500D03*
X192087500Y-114362500D03*
%TD*%
%TO.C,D_Space1*%
X155575000Y-111062500D03*
X155575000Y-114362500D03*
%TD*%
%TO.C,D_Slash1*%
X298450000Y-92012500D03*
X298450000Y-95312500D03*
%TD*%
%TO.C,D_Shift2*%
X324643750Y-92012500D03*
X324643750Y-95312500D03*
%TD*%
%TO.C,D_Shift1*%
X96043750Y-92012500D03*
X96043750Y-95312500D03*
%TD*%
%TO.C,D_S1*%
X136525000Y-72962500D03*
X136525000Y-76262500D03*
%TD*%
%TO.C,D_RThan1*%
X279400000Y-92012500D03*
X279400000Y-95312500D03*
%TD*%
%TO.C,D_RBrace1*%
X322262500Y-53912500D03*
X322262500Y-57212500D03*
%TD*%
%TO.C,D_RArrow1*%
X374650000Y-115825000D03*
X374650000Y-119125000D03*
%TD*%
%TO.C,D_R1*%
X169862500Y-53912500D03*
X169862500Y-57212500D03*
%TD*%
%TO.C,D_Q1*%
X112712500Y-53912500D03*
X112712500Y-57212500D03*
%TD*%
%TO.C,D_Plus1*%
X312737500Y-34862500D03*
X312737500Y-38162500D03*
%TD*%
%TO.C,D_P1*%
X284162500Y-53912500D03*
X284162500Y-57212500D03*
%TD*%
%TO.C,D_O1*%
X265112500Y-53912500D03*
X265112500Y-57212500D03*
%TD*%
%TO.C,D_Num9*%
X255587500Y-34862500D03*
X255587500Y-38162500D03*
%TD*%
%TO.C,D_Num8*%
X236537500Y-34862500D03*
X236537500Y-38162500D03*
%TD*%
%TO.C,D_Num7*%
X217487500Y-34862500D03*
X217487500Y-38162500D03*
%TD*%
%TO.C,D_Num6*%
X198437500Y-34862500D03*
X198437500Y-38162500D03*
%TD*%
%TO.C,D_Num5*%
X179387500Y-34862500D03*
X179387500Y-38162500D03*
%TD*%
%TO.C,D_Num4*%
X160337500Y-34862500D03*
X160337500Y-38162500D03*
%TD*%
%TO.C,D_Num3*%
X141287500Y-34862500D03*
X141287500Y-38162500D03*
%TD*%
%TO.C,D_Num2*%
X122237500Y-34862500D03*
X122237500Y-38162500D03*
%TD*%
%TO.C,D_Num1*%
X103187500Y-34862500D03*
X103187500Y-38162500D03*
%TD*%
%TO.C,D_Num0*%
X274637500Y-34862500D03*
X274637500Y-38162500D03*
%TD*%
%TO.C,D_N1*%
X222250000Y-92012500D03*
X222250000Y-95312500D03*
%TD*%
%TO.C,D_Minus1*%
X293687500Y-34862500D03*
X293687500Y-38162500D03*
%TD*%
%TO.C,D_M1*%
X241300000Y-92012500D03*
X241300000Y-95312500D03*
%TD*%
%TO.C,D_LThan1*%
X260350000Y-92012500D03*
X260350000Y-95312500D03*
%TD*%
%TO.C,D_LBrace1*%
X303212500Y-53912500D03*
X303212500Y-57212500D03*
%TD*%
%TO.C,D_LArrow1*%
X336550000Y-115825000D03*
X336550000Y-119125000D03*
%TD*%
%TO.C,D_L1*%
X269875000Y-72962500D03*
X269875000Y-76262500D03*
%TD*%
%TO.C,D_K1*%
X250825000Y-72962500D03*
X250825000Y-76262500D03*
%TD*%
%TO.C,D_J1*%
X231775000Y-72962500D03*
X231775000Y-76262500D03*
%TD*%
%TO.C,D_I1*%
X246062500Y-53912500D03*
X246062500Y-57212500D03*
%TD*%
%TO.C,D_H1*%
X212725000Y-72962500D03*
X212725000Y-76262500D03*
%TD*%
%TO.C,D_G1*%
X193675000Y-72962500D03*
X193675000Y-76262500D03*
%TD*%
%TO.C,D_Fn1*%
X293687500Y-111062500D03*
X293687500Y-114362500D03*
%TD*%
%TO.C,D_F18*%
X374650000Y-72962500D03*
X374650000Y-76262500D03*
%TD*%
%TO.C,D_F17*%
X374650000Y-53912500D03*
X374650000Y-57212500D03*
%TD*%
%TO.C,D_F16*%
X60325000Y-111062500D03*
X60325000Y-114362500D03*
%TD*%
%TO.C,D_F15*%
X60325000Y-92012500D03*
X60325000Y-95312500D03*
%TD*%
%TO.C,D_F14*%
X60325000Y-72962500D03*
X60325000Y-76262500D03*
%TD*%
%TO.C,D_F13*%
X60325000Y-53912500D03*
X60325000Y-57212500D03*
%TD*%
%TO.C,D_F1*%
X174625000Y-72962500D03*
X174625000Y-76262500D03*
%TD*%
%TO.C,D_Esc1*%
X84137500Y-34862500D03*
X84137500Y-38162500D03*
%TD*%
%TO.C,D_Enter1*%
X338931250Y-72962500D03*
X338931250Y-76262500D03*
%TD*%
%TO.C,D_E1*%
X150812500Y-53912500D03*
X150812500Y-57212500D03*
%TD*%
%TO.C,D_DArrow1*%
X355600000Y-115825000D03*
X355600000Y-119125000D03*
%TD*%
%TO.C,D_D1*%
X155575000Y-72962500D03*
X155575000Y-76262500D03*
%TD*%
%TO.C,D_Ctrl2*%
X312737500Y-111062500D03*
X312737500Y-114362500D03*
%TD*%
%TO.C,D_Ctrl1*%
X86518750Y-111062500D03*
X86518750Y-114362500D03*
%TD*%
%TO.C,D_Colon1*%
X288925000Y-72962500D03*
X288925000Y-76262500D03*
%TD*%
%TO.C,D_Caps1*%
X91281250Y-72962500D03*
X91281250Y-76262500D03*
%TD*%
%TO.C,D_C1*%
X165100000Y-92012500D03*
X165100000Y-95312500D03*
%TD*%
%TO.C,D_BSlash1*%
X346075000Y-53912500D03*
X346075000Y-57212500D03*
%TD*%
%TO.C,D_Backspace1*%
X341312500Y-34862500D03*
X341312500Y-38162500D03*
%TD*%
%TO.C,D_B1*%
X203200000Y-92012500D03*
X203200000Y-95312500D03*
%TD*%
%TO.C,D_Apostrophe1*%
X307975000Y-72962500D03*
X307975000Y-76262500D03*
%TD*%
%TO.C,D_Alt2*%
X274637500Y-111062500D03*
X274637500Y-114362500D03*
%TD*%
%TO.C,D_Alt1*%
X134143750Y-111062500D03*
X134143750Y-114362500D03*
%TD*%
%TO.C,D_A1*%
X117475000Y-72962500D03*
X117475000Y-76262500D03*
%TD*%
%TO.C,C6*%
G36*
G01*
X57117000Y-36729250D02*
X56167000Y-36729250D01*
G75*
G02*
X55917000Y-36479250I0J250000D01*
G01*
X55917000Y-35979250D01*
G75*
G02*
X56167000Y-35729250I250000J0D01*
G01*
X57117000Y-35729250D01*
G75*
G02*
X57367000Y-35979250I0J-250000D01*
G01*
X57367000Y-36479250D01*
G75*
G02*
X57117000Y-36729250I-250000J0D01*
G01*
G37*
G36*
G01*
X57117000Y-38629250D02*
X56167000Y-38629250D01*
G75*
G02*
X55917000Y-38379250I0J250000D01*
G01*
X55917000Y-37879250D01*
G75*
G02*
X56167000Y-37629250I250000J0D01*
G01*
X57117000Y-37629250D01*
G75*
G02*
X57367000Y-37879250I0J-250000D01*
G01*
X57367000Y-38379250D01*
G75*
G02*
X57117000Y-38629250I-250000J0D01*
G01*
G37*
%TD*%
%TO.C,C5*%
G36*
G01*
X47028080Y-38873850D02*
X47978080Y-38873850D01*
G75*
G02*
X48228080Y-39123850I0J-250000D01*
G01*
X48228080Y-39623850D01*
G75*
G02*
X47978080Y-39873850I-250000J0D01*
G01*
X47028080Y-39873850D01*
G75*
G02*
X46778080Y-39623850I0J250000D01*
G01*
X46778080Y-39123850D01*
G75*
G02*
X47028080Y-38873850I250000J0D01*
G01*
G37*
G36*
G01*
X47028080Y-36973850D02*
X47978080Y-36973850D01*
G75*
G02*
X48228080Y-37223850I0J-250000D01*
G01*
X48228080Y-37723850D01*
G75*
G02*
X47978080Y-37973850I-250000J0D01*
G01*
X47028080Y-37973850D01*
G75*
G02*
X46778080Y-37723850I0J250000D01*
G01*
X46778080Y-37223850D01*
G75*
G02*
X47028080Y-36973850I250000J0D01*
G01*
G37*
%TD*%
%TO.C,C4*%
G36*
G01*
X47978080Y-34397530D02*
X47028080Y-34397530D01*
G75*
G02*
X46778080Y-34147530I0J250000D01*
G01*
X46778080Y-33647530D01*
G75*
G02*
X47028080Y-33397530I250000J0D01*
G01*
X47978080Y-33397530D01*
G75*
G02*
X48228080Y-33647530I0J-250000D01*
G01*
X48228080Y-34147530D01*
G75*
G02*
X47978080Y-34397530I-250000J0D01*
G01*
G37*
G36*
G01*
X47978080Y-36297530D02*
X47028080Y-36297530D01*
G75*
G02*
X46778080Y-36047530I0J250000D01*
G01*
X46778080Y-35547530D01*
G75*
G02*
X47028080Y-35297530I250000J0D01*
G01*
X47978080Y-35297530D01*
G75*
G02*
X48228080Y-35547530I0J-250000D01*
G01*
X48228080Y-36047530D01*
G75*
G02*
X47978080Y-36297530I-250000J0D01*
G01*
G37*
%TD*%
M02*
