%TF.GenerationSoftware,KiCad,Pcbnew,(5.1.9)-1*%
%TF.CreationDate,2021-05-03T17:40:34-07:00*%
%TF.ProjectId,USKB Final,55534b42-2046-4696-9e61-6c2e6b696361,rev?*%
%TF.SameCoordinates,Original*%
%TF.FileFunction,Other,User*%
%FSLAX46Y46*%
G04 Gerber Fmt 4.6, Leading zero omitted, Abs format (unit mm)*
G04 Created by KiCad (PCBNEW (5.1.9)-1) date 2021-05-03 17:40:34*
%MOMM*%
%LPD*%
G01*
G04 APERTURE LIST*
%TA.AperFunction,Profile*%
%ADD10C,0.050000*%
%TD*%
%ADD11C,0.050000*%
G04 APERTURE END LIST*
D10*
X19050000Y-25400000D02*
X400050000Y-25400000D01*
X19050000Y-127000000D02*
X19843750Y-127000000D01*
X19050000Y-127000000D02*
G75*
G02*
X16668750Y-124618750I0J2381250D01*
G01*
X16668750Y-27781250D02*
X16668750Y-124618750D01*
X16668750Y-27781250D02*
G75*
G02*
X19050000Y-25400000I2381250J0D01*
G01*
X400050000Y-127000000D02*
X19843750Y-127000000D01*
X402431250Y-124618750D02*
G75*
G02*
X400050000Y-127000000I-2381250J0D01*
G01*
X402431250Y-27781250D02*
X402431250Y-124618750D01*
X400050000Y-25400000D02*
G75*
G02*
X402431250Y-27781250I0J-2381250D01*
G01*
D11*
%TO.C,R1*%
X365313000Y-36319250D02*
X365313000Y-32959250D01*
X363413000Y-36319250D02*
X365313000Y-36319250D01*
X363413000Y-32959250D02*
X363413000Y-36319250D01*
X365313000Y-32959250D02*
X363413000Y-32959250D01*
%TO.C,R2*%
X363413000Y-37023250D02*
X363413000Y-40383250D01*
X365313000Y-37023250D02*
X363413000Y-37023250D01*
X365313000Y-40383250D02*
X365313000Y-37023250D01*
X363413000Y-40383250D02*
X365313000Y-40383250D01*
%TO.C,R3*%
X370012000Y-38374750D02*
X370012000Y-35014750D01*
X368112000Y-38374750D02*
X370012000Y-38374750D01*
X368112000Y-35014750D02*
X368112000Y-38374750D01*
X370012000Y-35014750D02*
X368112000Y-35014750D01*
%TO.C,C3*%
X370368000Y-35037250D02*
X370368000Y-38437250D01*
X372328000Y-35037250D02*
X370368000Y-35037250D01*
X372328000Y-38437250D02*
X372328000Y-35037250D01*
X370368000Y-38437250D02*
X372328000Y-38437250D01*
%TO.C,C2*%
X362930000Y-40403250D02*
X362930000Y-37003250D01*
X360970000Y-40403250D02*
X362930000Y-40403250D01*
X360970000Y-37003250D02*
X360970000Y-40403250D01*
X362930000Y-37003250D02*
X360970000Y-37003250D01*
%TO.C,C1*%
X360970000Y-32939250D02*
X360970000Y-36339250D01*
X362930000Y-32939250D02*
X360970000Y-32939250D01*
X362930000Y-36339250D02*
X362930000Y-32939250D01*
X360970000Y-36339250D02*
X362930000Y-36339250D01*
%TO.C,R6*%
X55306000Y-38859250D02*
X55306000Y-35499250D01*
X53406000Y-38859250D02*
X55306000Y-38859250D01*
X53406000Y-35499250D02*
X53406000Y-38859250D01*
X55306000Y-35499250D02*
X53406000Y-35499250D01*
%TO.C,R5*%
X48701920Y-36764170D02*
X48701920Y-40124170D01*
X50601920Y-36764170D02*
X48701920Y-36764170D01*
X50601920Y-40124170D02*
X50601920Y-36764170D01*
X48701920Y-40124170D02*
X50601920Y-40124170D01*
%TO.C,R4*%
X50601920Y-36547850D02*
X50601920Y-33187850D01*
X48701920Y-36547850D02*
X50601920Y-36547850D01*
X48701920Y-33187850D02*
X48701920Y-36547850D01*
X50601920Y-33187850D02*
X48701920Y-33187850D01*
%TO.C,D_Z1*%
X128150000Y-96012500D02*
X125850000Y-96012500D01*
X125850000Y-91312500D02*
X125850000Y-96012500D01*
X128150000Y-91312500D02*
X125850000Y-91312500D01*
X128150000Y-96012500D02*
X128150000Y-91312500D01*
%TO.C,D_Y1*%
X209112500Y-57912500D02*
X206812500Y-57912500D01*
X206812500Y-53212500D02*
X206812500Y-57912500D01*
X209112500Y-53212500D02*
X206812500Y-53212500D01*
X209112500Y-57912500D02*
X209112500Y-53212500D01*
%TO.C,D_X1*%
X147200000Y-96012500D02*
X144900000Y-96012500D01*
X144900000Y-91312500D02*
X144900000Y-96012500D01*
X147200000Y-91312500D02*
X144900000Y-91312500D01*
X147200000Y-96012500D02*
X147200000Y-91312500D01*
%TO.C,D_Win1*%
X375800000Y-100775000D02*
X373500000Y-100775000D01*
X373500000Y-96075000D02*
X373500000Y-100775000D01*
X375800000Y-96075000D02*
X373500000Y-96075000D01*
X375800000Y-100775000D02*
X375800000Y-96075000D01*
%TO.C,D_W1*%
X132912500Y-57912500D02*
X130612500Y-57912500D01*
X130612500Y-53212500D02*
X130612500Y-57912500D01*
X132912500Y-53212500D02*
X130612500Y-53212500D01*
X132912500Y-57912500D02*
X132912500Y-53212500D01*
%TO.C,D_V1*%
X185300000Y-96012500D02*
X183000000Y-96012500D01*
X183000000Y-91312500D02*
X183000000Y-96012500D01*
X185300000Y-91312500D02*
X183000000Y-91312500D01*
X185300000Y-96012500D02*
X185300000Y-91312500D01*
%TO.C,D_UArrow1*%
X356750000Y-100775000D02*
X354450000Y-100775000D01*
X354450000Y-96075000D02*
X354450000Y-100775000D01*
X356750000Y-96075000D02*
X354450000Y-96075000D01*
X356750000Y-100775000D02*
X356750000Y-96075000D01*
%TO.C,D_U1*%
X228162500Y-57912500D02*
X225862500Y-57912500D01*
X225862500Y-53212500D02*
X225862500Y-57912500D01*
X228162500Y-53212500D02*
X225862500Y-53212500D01*
X228162500Y-57912500D02*
X228162500Y-53212500D01*
%TO.C,D_Tab1*%
X90050000Y-57912500D02*
X87750000Y-57912500D01*
X87750000Y-53212500D02*
X87750000Y-57912500D01*
X90050000Y-53212500D02*
X87750000Y-53212500D01*
X90050000Y-57912500D02*
X90050000Y-53212500D01*
%TO.C,D_T1*%
X190062500Y-57912500D02*
X187762500Y-57912500D01*
X187762500Y-53212500D02*
X187762500Y-57912500D01*
X190062500Y-53212500D02*
X187762500Y-53212500D01*
X190062500Y-57912500D02*
X190062500Y-53212500D01*
%TO.C,D_Space_4*%
X254356250Y-115062500D02*
X252056250Y-115062500D01*
X252056250Y-110362500D02*
X252056250Y-115062500D01*
X254356250Y-110362500D02*
X252056250Y-110362500D01*
X254356250Y-115062500D02*
X254356250Y-110362500D01*
%TO.C,D_Space_3*%
X231337500Y-115062500D02*
X229037500Y-115062500D01*
X229037500Y-110362500D02*
X229037500Y-115062500D01*
X231337500Y-110362500D02*
X229037500Y-110362500D01*
X231337500Y-115062500D02*
X231337500Y-110362500D01*
%TO.C,D_Space_2*%
X193237500Y-115062500D02*
X190937500Y-115062500D01*
X190937500Y-110362500D02*
X190937500Y-115062500D01*
X193237500Y-110362500D02*
X190937500Y-110362500D01*
X193237500Y-115062500D02*
X193237500Y-110362500D01*
%TO.C,D_Space1*%
X156725000Y-115062500D02*
X154425000Y-115062500D01*
X154425000Y-110362500D02*
X154425000Y-115062500D01*
X156725000Y-110362500D02*
X154425000Y-110362500D01*
X156725000Y-115062500D02*
X156725000Y-110362500D01*
%TO.C,D_Slash1*%
X299600000Y-96012500D02*
X297300000Y-96012500D01*
X297300000Y-91312500D02*
X297300000Y-96012500D01*
X299600000Y-91312500D02*
X297300000Y-91312500D01*
X299600000Y-96012500D02*
X299600000Y-91312500D01*
%TO.C,D_Shift2*%
X325793750Y-96012500D02*
X323493750Y-96012500D01*
X323493750Y-91312500D02*
X323493750Y-96012500D01*
X325793750Y-91312500D02*
X323493750Y-91312500D01*
X325793750Y-96012500D02*
X325793750Y-91312500D01*
%TO.C,D_Shift1*%
X97193750Y-96012500D02*
X94893750Y-96012500D01*
X94893750Y-91312500D02*
X94893750Y-96012500D01*
X97193750Y-91312500D02*
X94893750Y-91312500D01*
X97193750Y-96012500D02*
X97193750Y-91312500D01*
%TO.C,D_S1*%
X137675000Y-76962500D02*
X135375000Y-76962500D01*
X135375000Y-72262500D02*
X135375000Y-76962500D01*
X137675000Y-72262500D02*
X135375000Y-72262500D01*
X137675000Y-76962500D02*
X137675000Y-72262500D01*
%TO.C,D_RThan1*%
X280550000Y-96012500D02*
X278250000Y-96012500D01*
X278250000Y-91312500D02*
X278250000Y-96012500D01*
X280550000Y-91312500D02*
X278250000Y-91312500D01*
X280550000Y-96012500D02*
X280550000Y-91312500D01*
%TO.C,D_RBrace1*%
X323412500Y-57912500D02*
X321112500Y-57912500D01*
X321112500Y-53212500D02*
X321112500Y-57912500D01*
X323412500Y-53212500D02*
X321112500Y-53212500D01*
X323412500Y-57912500D02*
X323412500Y-53212500D01*
%TO.C,D_RArrow1*%
X375800000Y-119825000D02*
X373500000Y-119825000D01*
X373500000Y-115125000D02*
X373500000Y-119825000D01*
X375800000Y-115125000D02*
X373500000Y-115125000D01*
X375800000Y-119825000D02*
X375800000Y-115125000D01*
%TO.C,D_R1*%
X171012500Y-57912500D02*
X168712500Y-57912500D01*
X168712500Y-53212500D02*
X168712500Y-57912500D01*
X171012500Y-53212500D02*
X168712500Y-53212500D01*
X171012500Y-57912500D02*
X171012500Y-53212500D01*
%TO.C,D_Q1*%
X113862500Y-57912500D02*
X111562500Y-57912500D01*
X111562500Y-53212500D02*
X111562500Y-57912500D01*
X113862500Y-53212500D02*
X111562500Y-53212500D01*
X113862500Y-57912500D02*
X113862500Y-53212500D01*
%TO.C,D_Plus1*%
X313887500Y-38862500D02*
X311587500Y-38862500D01*
X311587500Y-34162500D02*
X311587500Y-38862500D01*
X313887500Y-34162500D02*
X311587500Y-34162500D01*
X313887500Y-38862500D02*
X313887500Y-34162500D01*
%TO.C,D_P1*%
X285312500Y-57912500D02*
X283012500Y-57912500D01*
X283012500Y-53212500D02*
X283012500Y-57912500D01*
X285312500Y-53212500D02*
X283012500Y-53212500D01*
X285312500Y-57912500D02*
X285312500Y-53212500D01*
%TO.C,D_O1*%
X266262500Y-57912500D02*
X263962500Y-57912500D01*
X263962500Y-53212500D02*
X263962500Y-57912500D01*
X266262500Y-53212500D02*
X263962500Y-53212500D01*
X266262500Y-57912500D02*
X266262500Y-53212500D01*
%TO.C,D_Num9*%
X256737500Y-38862500D02*
X254437500Y-38862500D01*
X254437500Y-34162500D02*
X254437500Y-38862500D01*
X256737500Y-34162500D02*
X254437500Y-34162500D01*
X256737500Y-38862500D02*
X256737500Y-34162500D01*
%TO.C,D_Num8*%
X237687500Y-38862500D02*
X235387500Y-38862500D01*
X235387500Y-34162500D02*
X235387500Y-38862500D01*
X237687500Y-34162500D02*
X235387500Y-34162500D01*
X237687500Y-38862500D02*
X237687500Y-34162500D01*
%TO.C,D_Num7*%
X218637500Y-38862500D02*
X216337500Y-38862500D01*
X216337500Y-34162500D02*
X216337500Y-38862500D01*
X218637500Y-34162500D02*
X216337500Y-34162500D01*
X218637500Y-38862500D02*
X218637500Y-34162500D01*
%TO.C,D_Num6*%
X199587500Y-38862500D02*
X197287500Y-38862500D01*
X197287500Y-34162500D02*
X197287500Y-38862500D01*
X199587500Y-34162500D02*
X197287500Y-34162500D01*
X199587500Y-38862500D02*
X199587500Y-34162500D01*
%TO.C,D_Num5*%
X180537500Y-38862500D02*
X178237500Y-38862500D01*
X178237500Y-34162500D02*
X178237500Y-38862500D01*
X180537500Y-34162500D02*
X178237500Y-34162500D01*
X180537500Y-38862500D02*
X180537500Y-34162500D01*
%TO.C,D_Num4*%
X161487500Y-38862500D02*
X159187500Y-38862500D01*
X159187500Y-34162500D02*
X159187500Y-38862500D01*
X161487500Y-34162500D02*
X159187500Y-34162500D01*
X161487500Y-38862500D02*
X161487500Y-34162500D01*
%TO.C,D_Num3*%
X142437500Y-38862500D02*
X140137500Y-38862500D01*
X140137500Y-34162500D02*
X140137500Y-38862500D01*
X142437500Y-34162500D02*
X140137500Y-34162500D01*
X142437500Y-38862500D02*
X142437500Y-34162500D01*
%TO.C,D_Num2*%
X123387500Y-38862500D02*
X121087500Y-38862500D01*
X121087500Y-34162500D02*
X121087500Y-38862500D01*
X123387500Y-34162500D02*
X121087500Y-34162500D01*
X123387500Y-38862500D02*
X123387500Y-34162500D01*
%TO.C,D_Num1*%
X104337500Y-38862500D02*
X102037500Y-38862500D01*
X102037500Y-34162500D02*
X102037500Y-38862500D01*
X104337500Y-34162500D02*
X102037500Y-34162500D01*
X104337500Y-38862500D02*
X104337500Y-34162500D01*
%TO.C,D_Num0*%
X275787500Y-38862500D02*
X273487500Y-38862500D01*
X273487500Y-34162500D02*
X273487500Y-38862500D01*
X275787500Y-34162500D02*
X273487500Y-34162500D01*
X275787500Y-38862500D02*
X275787500Y-34162500D01*
%TO.C,D_N1*%
X223400000Y-96012500D02*
X221100000Y-96012500D01*
X221100000Y-91312500D02*
X221100000Y-96012500D01*
X223400000Y-91312500D02*
X221100000Y-91312500D01*
X223400000Y-96012500D02*
X223400000Y-91312500D01*
%TO.C,D_Minus1*%
X294837500Y-38862500D02*
X292537500Y-38862500D01*
X292537500Y-34162500D02*
X292537500Y-38862500D01*
X294837500Y-34162500D02*
X292537500Y-34162500D01*
X294837500Y-38862500D02*
X294837500Y-34162500D01*
%TO.C,D_M1*%
X242450000Y-96012500D02*
X240150000Y-96012500D01*
X240150000Y-91312500D02*
X240150000Y-96012500D01*
X242450000Y-91312500D02*
X240150000Y-91312500D01*
X242450000Y-96012500D02*
X242450000Y-91312500D01*
%TO.C,D_LThan1*%
X261500000Y-96012500D02*
X259200000Y-96012500D01*
X259200000Y-91312500D02*
X259200000Y-96012500D01*
X261500000Y-91312500D02*
X259200000Y-91312500D01*
X261500000Y-96012500D02*
X261500000Y-91312500D01*
%TO.C,D_LBrace1*%
X304362500Y-57912500D02*
X302062500Y-57912500D01*
X302062500Y-53212500D02*
X302062500Y-57912500D01*
X304362500Y-53212500D02*
X302062500Y-53212500D01*
X304362500Y-57912500D02*
X304362500Y-53212500D01*
%TO.C,D_LArrow1*%
X337700000Y-119825000D02*
X335400000Y-119825000D01*
X335400000Y-115125000D02*
X335400000Y-119825000D01*
X337700000Y-115125000D02*
X335400000Y-115125000D01*
X337700000Y-119825000D02*
X337700000Y-115125000D01*
%TO.C,D_L1*%
X271025000Y-76962500D02*
X268725000Y-76962500D01*
X268725000Y-72262500D02*
X268725000Y-76962500D01*
X271025000Y-72262500D02*
X268725000Y-72262500D01*
X271025000Y-76962500D02*
X271025000Y-72262500D01*
%TO.C,D_K1*%
X251975000Y-76962500D02*
X249675000Y-76962500D01*
X249675000Y-72262500D02*
X249675000Y-76962500D01*
X251975000Y-72262500D02*
X249675000Y-72262500D01*
X251975000Y-76962500D02*
X251975000Y-72262500D01*
%TO.C,D_J1*%
X232925000Y-76962500D02*
X230625000Y-76962500D01*
X230625000Y-72262500D02*
X230625000Y-76962500D01*
X232925000Y-72262500D02*
X230625000Y-72262500D01*
X232925000Y-76962500D02*
X232925000Y-72262500D01*
%TO.C,D_I1*%
X247212500Y-57912500D02*
X244912500Y-57912500D01*
X244912500Y-53212500D02*
X244912500Y-57912500D01*
X247212500Y-53212500D02*
X244912500Y-53212500D01*
X247212500Y-57912500D02*
X247212500Y-53212500D01*
%TO.C,D_H1*%
X213875000Y-76962500D02*
X211575000Y-76962500D01*
X211575000Y-72262500D02*
X211575000Y-76962500D01*
X213875000Y-72262500D02*
X211575000Y-72262500D01*
X213875000Y-76962500D02*
X213875000Y-72262500D01*
%TO.C,D_G1*%
X194825000Y-76962500D02*
X192525000Y-76962500D01*
X192525000Y-72262500D02*
X192525000Y-76962500D01*
X194825000Y-72262500D02*
X192525000Y-72262500D01*
X194825000Y-76962500D02*
X194825000Y-72262500D01*
%TO.C,D_Fn1*%
X294837500Y-115062500D02*
X292537500Y-115062500D01*
X292537500Y-110362500D02*
X292537500Y-115062500D01*
X294837500Y-110362500D02*
X292537500Y-110362500D01*
X294837500Y-115062500D02*
X294837500Y-110362500D01*
%TO.C,D_F18*%
X375800000Y-76962500D02*
X373500000Y-76962500D01*
X373500000Y-72262500D02*
X373500000Y-76962500D01*
X375800000Y-72262500D02*
X373500000Y-72262500D01*
X375800000Y-76962500D02*
X375800000Y-72262500D01*
%TO.C,D_F17*%
X375800000Y-57912500D02*
X373500000Y-57912500D01*
X373500000Y-53212500D02*
X373500000Y-57912500D01*
X375800000Y-53212500D02*
X373500000Y-53212500D01*
X375800000Y-57912500D02*
X375800000Y-53212500D01*
%TO.C,D_F16*%
X61475000Y-115062500D02*
X59175000Y-115062500D01*
X59175000Y-110362500D02*
X59175000Y-115062500D01*
X61475000Y-110362500D02*
X59175000Y-110362500D01*
X61475000Y-115062500D02*
X61475000Y-110362500D01*
%TO.C,D_F15*%
X61475000Y-96012500D02*
X59175000Y-96012500D01*
X59175000Y-91312500D02*
X59175000Y-96012500D01*
X61475000Y-91312500D02*
X59175000Y-91312500D01*
X61475000Y-96012500D02*
X61475000Y-91312500D01*
%TO.C,D_F14*%
X61475000Y-76962500D02*
X59175000Y-76962500D01*
X59175000Y-72262500D02*
X59175000Y-76962500D01*
X61475000Y-72262500D02*
X59175000Y-72262500D01*
X61475000Y-76962500D02*
X61475000Y-72262500D01*
%TO.C,D_F13*%
X61475000Y-57912500D02*
X59175000Y-57912500D01*
X59175000Y-53212500D02*
X59175000Y-57912500D01*
X61475000Y-53212500D02*
X59175000Y-53212500D01*
X61475000Y-57912500D02*
X61475000Y-53212500D01*
%TO.C,D_F1*%
X175775000Y-76962500D02*
X173475000Y-76962500D01*
X173475000Y-72262500D02*
X173475000Y-76962500D01*
X175775000Y-72262500D02*
X173475000Y-72262500D01*
X175775000Y-76962500D02*
X175775000Y-72262500D01*
%TO.C,D_Esc1*%
X85287500Y-38862500D02*
X82987500Y-38862500D01*
X82987500Y-34162500D02*
X82987500Y-38862500D01*
X85287500Y-34162500D02*
X82987500Y-34162500D01*
X85287500Y-38862500D02*
X85287500Y-34162500D01*
%TO.C,D_Enter1*%
X340081250Y-76962500D02*
X337781250Y-76962500D01*
X337781250Y-72262500D02*
X337781250Y-76962500D01*
X340081250Y-72262500D02*
X337781250Y-72262500D01*
X340081250Y-76962500D02*
X340081250Y-72262500D01*
%TO.C,D_E1*%
X151962500Y-57912500D02*
X149662500Y-57912500D01*
X149662500Y-53212500D02*
X149662500Y-57912500D01*
X151962500Y-53212500D02*
X149662500Y-53212500D01*
X151962500Y-57912500D02*
X151962500Y-53212500D01*
%TO.C,D_DArrow1*%
X356750000Y-119825000D02*
X354450000Y-119825000D01*
X354450000Y-115125000D02*
X354450000Y-119825000D01*
X356750000Y-115125000D02*
X354450000Y-115125000D01*
X356750000Y-119825000D02*
X356750000Y-115125000D01*
%TO.C,D_D1*%
X156725000Y-76962500D02*
X154425000Y-76962500D01*
X154425000Y-72262500D02*
X154425000Y-76962500D01*
X156725000Y-72262500D02*
X154425000Y-72262500D01*
X156725000Y-76962500D02*
X156725000Y-72262500D01*
%TO.C,D_Ctrl2*%
X313887500Y-115062500D02*
X311587500Y-115062500D01*
X311587500Y-110362500D02*
X311587500Y-115062500D01*
X313887500Y-110362500D02*
X311587500Y-110362500D01*
X313887500Y-115062500D02*
X313887500Y-110362500D01*
%TO.C,D_Ctrl1*%
X87668750Y-115062500D02*
X85368750Y-115062500D01*
X85368750Y-110362500D02*
X85368750Y-115062500D01*
X87668750Y-110362500D02*
X85368750Y-110362500D01*
X87668750Y-115062500D02*
X87668750Y-110362500D01*
%TO.C,D_Colon1*%
X290075000Y-76962500D02*
X287775000Y-76962500D01*
X287775000Y-72262500D02*
X287775000Y-76962500D01*
X290075000Y-72262500D02*
X287775000Y-72262500D01*
X290075000Y-76962500D02*
X290075000Y-72262500D01*
%TO.C,D_Caps1*%
X92431250Y-76962500D02*
X90131250Y-76962500D01*
X90131250Y-72262500D02*
X90131250Y-76962500D01*
X92431250Y-72262500D02*
X90131250Y-72262500D01*
X92431250Y-76962500D02*
X92431250Y-72262500D01*
%TO.C,D_C1*%
X166250000Y-96012500D02*
X163950000Y-96012500D01*
X163950000Y-91312500D02*
X163950000Y-96012500D01*
X166250000Y-91312500D02*
X163950000Y-91312500D01*
X166250000Y-96012500D02*
X166250000Y-91312500D01*
%TO.C,D_BSlash1*%
X347225000Y-57912500D02*
X344925000Y-57912500D01*
X344925000Y-53212500D02*
X344925000Y-57912500D01*
X347225000Y-53212500D02*
X344925000Y-53212500D01*
X347225000Y-57912500D02*
X347225000Y-53212500D01*
%TO.C,D_Backspace1*%
X342462500Y-38862500D02*
X340162500Y-38862500D01*
X340162500Y-34162500D02*
X340162500Y-38862500D01*
X342462500Y-34162500D02*
X340162500Y-34162500D01*
X342462500Y-38862500D02*
X342462500Y-34162500D01*
%TO.C,D_B1*%
X204350000Y-96012500D02*
X202050000Y-96012500D01*
X202050000Y-91312500D02*
X202050000Y-96012500D01*
X204350000Y-91312500D02*
X202050000Y-91312500D01*
X204350000Y-96012500D02*
X204350000Y-91312500D01*
%TO.C,D_Apostrophe1*%
X309125000Y-76962500D02*
X306825000Y-76962500D01*
X306825000Y-72262500D02*
X306825000Y-76962500D01*
X309125000Y-72262500D02*
X306825000Y-72262500D01*
X309125000Y-76962500D02*
X309125000Y-72262500D01*
%TO.C,D_Alt2*%
X275787500Y-115062500D02*
X273487500Y-115062500D01*
X273487500Y-110362500D02*
X273487500Y-115062500D01*
X275787500Y-110362500D02*
X273487500Y-110362500D01*
X275787500Y-115062500D02*
X275787500Y-110362500D01*
%TO.C,D_Alt1*%
X135293750Y-115062500D02*
X132993750Y-115062500D01*
X132993750Y-110362500D02*
X132993750Y-115062500D01*
X135293750Y-110362500D02*
X132993750Y-110362500D01*
X135293750Y-115062500D02*
X135293750Y-110362500D01*
%TO.C,D_A1*%
X118625000Y-76962500D02*
X116325000Y-76962500D01*
X116325000Y-72262500D02*
X116325000Y-76962500D01*
X118625000Y-72262500D02*
X116325000Y-72262500D01*
X118625000Y-76962500D02*
X118625000Y-72262500D01*
%TO.C,C6*%
X55662000Y-35479250D02*
X55662000Y-38879250D01*
X57622000Y-35479250D02*
X55662000Y-35479250D01*
X57622000Y-38879250D02*
X57622000Y-35479250D01*
X55662000Y-38879250D02*
X57622000Y-38879250D01*
%TO.C,C5*%
X48483080Y-40123850D02*
X48483080Y-36723850D01*
X46523080Y-40123850D02*
X48483080Y-40123850D01*
X46523080Y-36723850D02*
X46523080Y-40123850D01*
X48483080Y-36723850D02*
X46523080Y-36723850D01*
%TO.C,C4*%
X46523080Y-33147530D02*
X46523080Y-36547530D01*
X48483080Y-33147530D02*
X46523080Y-33147530D01*
X48483080Y-36547530D02*
X48483080Y-33147530D01*
X46523080Y-36547530D02*
X48483080Y-36547530D01*
%TD*%
M02*
